solid OpenSCAD_Model
  facet normal 0.406736 -0.913546 0
    outer loop
      vertex 95.0451 0.244717 0
      vertex 96 0.669872 25
      vertex 95.0451 0.244717 25
    endloop
  endfacet
  facet normal 0.406736 -0.913546 0
    outer loop
      vertex 96 0.669872 25
      vertex 95.0451 0.244717 0
      vertex 96 0.669872 0
    endloop
  endfacet
  facet normal -0.994522 -0.104528 0
    outer loop
      vertex 0.109262 3.96044 0
      vertex 0 5 25
      vertex 0 5 0
    endloop
  endfacet
  facet normal -0.994522 -0.104528 0
    outer loop
      vertex 0 5 25
      vertex 0.109262 3.96044 0
      vertex 0.109262 3.96044 25
    endloop
  endfacet
  facet normal 1 -0 0
    outer loop
      vertex 98.5 5 25
      vertex 98.5 64 0
      vertex 98.5 64 25
    endloop
  endfacet
  facet normal 1 0 0
    outer loop
      vertex 98.5 64 0
      vertex 98.5 5 25
      vertex 98.5 5 0
    endloop
  endfacet
  facet normal -0 0 1
    outer loop
      vertex 28.5 3 25
      vertex 29.5 1.02739 25
      vertex 29.5 4 25
    endloop
  endfacet
  facet normal 0 0 1
    outer loop
      vertex 28.5 1 25
      vertex 29.5 1.02739 25
      vertex 28.5 3 25
    endloop
  endfacet
  facet normal 0 0 1
    outer loop
      vertex 29.5 1.02739 25
      vertex 28.5 1 25
      vertex 29.5 0.0273905 25
    endloop
  endfacet
  facet normal 0 0 1
    outer loop
      vertex 29.5 4 25
      vertex 12 3 25
      vertex 28.5 3 25
    endloop
  endfacet
  facet normal 0 0 1
    outer loop
      vertex 11 1.02739 25
      vertex 12 3 25
      vertex 11 4 25
    endloop
  endfacet
  facet normal -0 0 1
    outer loop
      vertex 11 4 25
      vertex 12 3 25
      vertex 29.5 4 25
    endloop
  endfacet
  facet normal -0 0 1
    outer loop
      vertex 29.5 1.02739 25
      vertex 69 0.0273905 25
      vertex 69 1.02739 25
    endloop
  endfacet
  facet normal 0 0 1
    outer loop
      vertex 69 0.0273905 25
      vertex 29.5 1.02739 25
      vertex 29.5 0.0273905 25
    endloop
  endfacet
  facet normal 0 0 1
    outer loop
      vertex 29.5 0.0273905 25
      vertex 28.5 1 25
      vertex 29.5 0 25
    endloop
  endfacet
  facet normal 0 0 1
    outer loop
      vertex 26.75 0 25
      vertex 28.5 1 25
      vertex 26.75 1 25
    endloop
  endfacet
  facet normal 0 0 1
    outer loop
      vertex 28.5 1 25
      vertex 26.75 0 25
      vertex 29.5 0 25
    endloop
  endfacet
  facet normal -0 0 1
    outer loop
      vertex 86.5 3 25
      vertex 87.5 1.02739 25
      vertex 87.5 4 25
    endloop
  endfacet
  facet normal 0 0 1
    outer loop
      vertex 86.5 1 25
      vertex 87.5 1.02739 25
      vertex 86.5 3 25
    endloop
  endfacet
  facet normal 0 0 1
    outer loop
      vertex 87.5 1.02739 25
      vertex 86.5 1 25
      vertex 87.5 0.0273905 25
    endloop
  endfacet
  facet normal 0 0 1
    outer loop
      vertex 87.5 4 25
      vertex 70 3 25
      vertex 86.5 3 25
    endloop
  endfacet
  facet normal 0 0 1
    outer loop
      vertex 69 1.02739 25
      vertex 70 3 25
      vertex 69 4 25
    endloop
  endfacet
  facet normal -0 0 1
    outer loop
      vertex 69 4 25
      vertex 70 3 25
      vertex 87.5 4 25
    endloop
  endfacet
  facet normal -0 0 1
    outer loop
      vertex 97.3907 64.0396 25
      vertex 98.5 64 25
      vertex 98.3907 65.0396 25
    endloop
  endfacet
  facet normal 0 0 1
    outer loop
      vertex 98.5 64 25
      vertex 97.5 63 25
      vertex 98.5 5 25
    endloop
  endfacet
  facet normal 0 0 1
    outer loop
      vertex 97.0677 65.0337 25
      vertex 98.3907 65.0396 25
      vertex 98.0677 66.0337 25
    endloop
  endfacet
  facet normal -0 0 1
    outer loop
      vertex 97.5 6 25
      vertex 98.5 5 25
      vertex 97.5 63 25
    endloop
  endfacet
  facet normal 0 0 1
    outer loop
      vertex 96.5451 65.9389 25
      vertex 98.0677 66.0337 25
      vertex 97.5451 66.9389 25
    endloop
  endfacet
  facet normal 0 0 1
    outer loop
      vertex 97.3907 4.96044 25
      vertex 98.5 5 25
      vertex 97.5 6 25
    endloop
  endfacet
  facet normal 0 0 1
    outer loop
      vertex 98.5 5 25
      vertex 97.3907 4.96044 25
      vertex 98.3907 3.96044 25
    endloop
  endfacet
  facet normal 0 0 1
    outer loop
      vertex 98.5 64 25
      vertex 97.3907 64.0396 25
      vertex 97.5 63 25
    endloop
  endfacet
  facet normal 0 0 1
    outer loop
      vertex 98.3907 65.0396 25
      vertex 97.0677 65.0337 25
      vertex 97.3907 64.0396 25
    endloop
  endfacet
  facet normal 0 0 1
    outer loop
      vertex 95.8456 66.7157 25
      vertex 97.5451 66.9389 25
      vertex 96.8456 67.7157 25
    endloop
  endfacet
  facet normal 0 0 1
    outer loop
      vertex 98.0677 66.0337 25
      vertex 96.5451 65.9389 25
      vertex 97.0677 65.0337 25
    endloop
  endfacet
  facet normal 0 0 1
    outer loop
      vertex 95.8456 66.7157 25
      vertex 96.8456 67.7157 25
      vertex 96 68.3301 25
    endloop
  endfacet
  facet normal 0 0 1
    outer loop
      vertex 97.5451 66.9389 25
      vertex 95.8456 66.7157 25
      vertex 96.5451 65.9389 25
    endloop
  endfacet
  facet normal 0 0 1
    outer loop
      vertex 95 67.3301 25
      vertex 96 68.3301 25
      vertex 95.0451 68.7553 25
    endloop
  endfacet
  facet normal 0 0 1
    outer loop
      vertex 96 68.3301 25
      vertex 95 67.3301 25
      vertex 95.8456 66.7157 25
    endloop
  endfacet
  facet normal 0 0 1
    outer loop
      vertex 95.0451 68.7553 25
      vertex 94.0451 67.7553 25
      vertex 95 67.3301 25
    endloop
  endfacet
  facet normal 0 0 1
    outer loop
      vertex 94.0226 68.9726 25
      vertex 94.0451 67.7553 25
      vertex 95.0451 68.7553 25
    endloop
  endfacet
  facet normal 0 0 1
    outer loop
      vertex 94.0226 68.9726 25
      vertex 93.0226 67.9726 25
      vertex 94.0451 67.7553 25
    endloop
  endfacet
  facet normal 0 0 1
    outer loop
      vertex 94.0226 68.9726 25
      vertex 5.47736 67.9726 25
      vertex 93.0226 67.9726 25
    endloop
  endfacet
  facet normal -0 0 1
    outer loop
      vertex 4.47736 68.9726 25
      vertex 5.47736 67.9726 25
      vertex 94.0226 68.9726 25
    endloop
  endfacet
  facet normal 0 0 1
    outer loop
      vertex 4.47736 68.9726 25
      vertex 4.45491 67.7553 25
      vertex 5.47736 67.9726 25
    endloop
  endfacet
  facet normal -0 0 1
    outer loop
      vertex 3.45491 68.7553 25
      vertex 4.45491 67.7553 25
      vertex 4.47736 68.9726 25
    endloop
  endfacet
  facet normal 0 0 1
    outer loop
      vertex 4.45491 67.7553 25
      vertex 3.45491 68.7553 25
      vertex 3.5 67.3301 25
    endloop
  endfacet
  facet normal -0 0 1
    outer loop
      vertex 2.5 68.3301 25
      vertex 3.5 67.3301 25
      vertex 3.45491 68.7553 25
    endloop
  endfacet
  facet normal 0 0 1
    outer loop
      vertex 3.5 67.3301 25
      vertex 2.5 68.3301 25
      vertex 2.65435 66.7157 25
    endloop
  endfacet
  facet normal -0 0 1
    outer loop
      vertex 1.65435 67.7157 25
      vertex 2.65435 66.7157 25
      vertex 2.5 68.3301 25
    endloop
  endfacet
  facet normal -0 0 1
    outer loop
      vertex 0.954914 66.9389 25
      vertex 2.65435 66.7157 25
      vertex 1.65435 67.7157 25
    endloop
  endfacet
  facet normal 0 0 1
    outer loop
      vertex 2.65435 66.7157 25
      vertex 0.954914 66.9389 25
      vertex 1.95491 65.9389 25
    endloop
  endfacet
  facet normal -0 0 1
    outer loop
      vertex 0.432272 66.0337 25
      vertex 1.95491 65.9389 25
      vertex 0.954914 66.9389 25
    endloop
  endfacet
  facet normal 0 0 1
    outer loop
      vertex 1.43227 65.0337 25
      vertex 0.109262 65.0396 25
      vertex 1.10926 64.0396 25
    endloop
  endfacet
  facet normal -0 0 1
    outer loop
      vertex 0.109262 65.0396 25
      vertex 1.43227 65.0337 25
      vertex 0.432272 66.0337 25
    endloop
  endfacet
  facet normal 0 0 1
    outer loop
      vertex 1.95491 65.9389 25
      vertex 0.432272 66.0337 25
      vertex 1.43227 65.0337 25
    endloop
  endfacet
  facet normal -0 0 1
    outer loop
      vertex 97.0677 3.96632 25
      vertex 98.3907 3.96044 25
      vertex 97.3907 4.96044 25
    endloop
  endfacet
  facet normal 0 0 1
    outer loop
      vertex 98.3907 3.96044 25
      vertex 97.0677 3.96632 25
      vertex 98.0677 2.96632 25
    endloop
  endfacet
  facet normal -0 0 1
    outer loop
      vertex 96.5451 3.06107 25
      vertex 98.0677 2.96632 25
      vertex 97.0677 3.96632 25
    endloop
  endfacet
  facet normal 0 0 1
    outer loop
      vertex 98.0677 2.96632 25
      vertex 96.5451 3.06107 25
      vertex 97.5451 2.06107 25
    endloop
  endfacet
  facet normal -0 0 1
    outer loop
      vertex 95.8456 2.28428 25
      vertex 97.5451 2.06107 25
      vertex 96.5451 3.06107 25
    endloop
  endfacet
  facet normal 0 0 1
    outer loop
      vertex 97.5451 2.06107 25
      vertex 95.8456 2.28428 25
      vertex 96.8456 1.28428 25
    endloop
  endfacet
  facet normal 0 0 1
    outer loop
      vertex 96.8456 1.28428 25
      vertex 95.8456 2.28428 25
      vertex 96 0.669872 25
    endloop
  endfacet
  facet normal -0 0 1
    outer loop
      vertex 95 1.66987 25
      vertex 96 0.669872 25
      vertex 95.8456 2.28428 25
    endloop
  endfacet
  facet normal 0 0 1
    outer loop
      vertex 96 0.669872 25
      vertex 95 1.66987 25
      vertex 95.0451 0.244717 25
    endloop
  endfacet
  facet normal -0 0 1
    outer loop
      vertex 94.0451 1.24472 25
      vertex 95.0451 0.244717 25
      vertex 95 1.66987 25
    endloop
  endfacet
  facet normal 0 0 1
    outer loop
      vertex 94.0451 1.24472 25
      vertex 94.0226 0.0273905 25
      vertex 95.0451 0.244717 25
    endloop
  endfacet
  facet normal -0 0 1
    outer loop
      vertex 93.0226 1.02739 25
      vertex 94.0226 0.0273905 25
      vertex 94.0451 1.24472 25
    endloop
  endfacet
  facet normal 0 0 1
    outer loop
      vertex 87.5 0.0273905 25
      vertex 93.0226 1.02739 25
      vertex 87.5 1.02739 25
    endloop
  endfacet
  facet normal 0 0 1
    outer loop
      vertex 93.0226 1.02739 25
      vertex 87.5 0.0273905 25
      vertex 94.0226 0.0273905 25
    endloop
  endfacet
  facet normal 0 0 1
    outer loop
      vertex 87.5 0.0273905 25
      vertex 86.5 1 25
      vertex 87.5 0 25
    endloop
  endfacet
  facet normal 0 0 1
    outer loop
      vertex 84.75 0 25
      vertex 86.5 1 25
      vertex 84.75 1 25
    endloop
  endfacet
  facet normal 0 0 1
    outer loop
      vertex 86.5 1 25
      vertex 84.75 0 25
      vertex 87.5 0 25
    endloop
  endfacet
  facet normal -0 0 1
    outer loop
      vertex 70 1 25
      vertex 71.75 0 25
      vertex 71.75 1 25
    endloop
  endfacet
  facet normal 0 0 1
    outer loop
      vertex 70 3 25
      vertex 69 1.02739 25
      vertex 70 1 25
    endloop
  endfacet
  facet normal 0 0 1
    outer loop
      vertex 69 0.0273905 25
      vertex 70 1 25
      vertex 69 1.02739 25
    endloop
  endfacet
  facet normal 0 0 1
    outer loop
      vertex 69 0 25
      vertex 70 1 25
      vertex 69 0.0273905 25
    endloop
  endfacet
  facet normal 0 0 1
    outer loop
      vertex 70 1 25
      vertex 69 0 25
      vertex 71.75 0 25
    endloop
  endfacet
  facet normal -0 0 1
    outer loop
      vertex 12 1 25
      vertex 13.75 0 25
      vertex 13.75 1 25
    endloop
  endfacet
  facet normal 0 0 1
    outer loop
      vertex 12 3 25
      vertex 11 1.02739 25
      vertex 12 1 25
    endloop
  endfacet
  facet normal 0 0 1
    outer loop
      vertex 11 0.0273905 25
      vertex 12 1 25
      vertex 11 1.02739 25
    endloop
  endfacet
  facet normal 0 0 1
    outer loop
      vertex 11 0 25
      vertex 12 1 25
      vertex 11 0.0273905 25
    endloop
  endfacet
  facet normal 0 0 1
    outer loop
      vertex 12 1 25
      vertex 11 0 25
      vertex 13.75 0 25
    endloop
  endfacet
  facet normal -0 0 1
    outer loop
      vertex 5.47736 1.02739 25
      vertex 11 0.0273905 25
      vertex 11 1.02739 25
    endloop
  endfacet
  facet normal 0 0 1
    outer loop
      vertex 5.47736 1.02739 25
      vertex 4.47736 0.0273905 25
      vertex 11 0.0273905 25
    endloop
  endfacet
  facet normal 0 0 1
    outer loop
      vertex 4.45491 1.24472 25
      vertex 4.47736 0.0273905 25
      vertex 5.47736 1.02739 25
    endloop
  endfacet
  facet normal 0 0 1
    outer loop
      vertex 3.45491 0.244717 25
      vertex 4.45491 1.24472 25
      vertex 3.5 1.66987 25
    endloop
  endfacet
  facet normal 0 0 1
    outer loop
      vertex 4.45491 1.24472 25
      vertex 3.45491 0.244717 25
      vertex 4.47736 0.0273905 25
    endloop
  endfacet
  facet normal 0 0 1
    outer loop
      vertex 2.5 0.669872 25
      vertex 3.5 1.66987 25
      vertex 2.65435 2.28428 25
    endloop
  endfacet
  facet normal 0 0 1
    outer loop
      vertex 3.5 1.66987 25
      vertex 2.5 0.669872 25
      vertex 3.45491 0.244717 25
    endloop
  endfacet
  facet normal 0 0 1
    outer loop
      vertex 0.954914 2.06107 25
      vertex 2.65435 2.28428 25
      vertex 1.95491 3.06107 25
    endloop
  endfacet
  facet normal 0 0 1
    outer loop
      vertex 2.65435 2.28428 25
      vertex 1.65435 1.28428 25
      vertex 2.5 0.669872 25
    endloop
  endfacet
  facet normal 0 0 1
    outer loop
      vertex 0.432272 2.96632 25
      vertex 1.95491 3.06107 25
      vertex 1.43227 3.96632 25
    endloop
  endfacet
  facet normal 0 0 1
    outer loop
      vertex 0.109262 3.96044 25
      vertex 1.43227 3.96632 25
      vertex 1.10926 4.96044 25
    endloop
  endfacet
  facet normal 0 0 1
    outer loop
      vertex 2.65435 2.28428 25
      vertex 0.954914 2.06107 25
      vertex 1.65435 1.28428 25
    endloop
  endfacet
  facet normal -0 0 1
    outer loop
      vertex 0 5 25
      vertex 1.10926 4.96044 25
      vertex 1 6 25
    endloop
  endfacet
  facet normal 0 0 1
    outer loop
      vertex 1 63 25
      vertex 0 64 25
      vertex 1 6 25
    endloop
  endfacet
  facet normal 0 0 1
    outer loop
      vertex 0 64 25
      vertex 1.10926 64.0396 25
      vertex 0.109262 65.0396 25
    endloop
  endfacet
  facet normal 0 0 1
    outer loop
      vertex 0 5 25
      vertex 1 6 25
      vertex 0 64 25
    endloop
  endfacet
  facet normal 0 0 1
    outer loop
      vertex 1.10926 64.0396 25
      vertex 0 64 25
      vertex 1 63 25
    endloop
  endfacet
  facet normal 0 0 1
    outer loop
      vertex 1.10926 4.96044 25
      vertex 0 5 25
      vertex 0.109262 3.96044 25
    endloop
  endfacet
  facet normal 0 0 1
    outer loop
      vertex 1.95491 3.06107 25
      vertex 0.432272 2.96632 25
      vertex 0.954914 2.06107 25
    endloop
  endfacet
  facet normal 0 0 1
    outer loop
      vertex 1.43227 3.96632 25
      vertex 0.109262 3.96044 25
      vertex 0.432272 2.96632 25
    endloop
  endfacet
  facet normal -0.406737 0.913545 0
    outer loop
      vertex 3.45491 68.7553 0
      vertex 2.5 68.3301 25
      vertex 3.45491 68.7553 25
    endloop
  endfacet
  facet normal -0.406737 0.913545 0
    outer loop
      vertex 2.5 68.3301 25
      vertex 3.45491 68.7553 0
      vertex 2.5 68.3301 0
    endloop
  endfacet
  facet normal 0.743143 0.669132 0
    outer loop
      vertex 97.5451 66.9389 25
      vertex 96.8456 67.7157 0
      vertex 96.8456 67.7157 25
    endloop
  endfacet
  facet normal 0.743143 0.669132 0
    outer loop
      vertex 96.8456 67.7157 0
      vertex 97.5451 66.9389 25
      vertex 97.5451 66.9389 0
    endloop
  endfacet
  facet normal 0.587787 -0.809016 0
    outer loop
      vertex 96 0.669872 0
      vertex 96.8456 1.28428 25
      vertex 96 0.669872 25
    endloop
  endfacet
  facet normal 0.587787 -0.809016 0
    outer loop
      vertex 96.8456 1.28428 25
      vertex 96 0.669872 0
      vertex 96.8456 1.28428 0
    endloop
  endfacet
  facet normal -1 0 0
    outer loop
      vertex 0 5 0
      vertex 0 64 25
      vertex 0 64 0
    endloop
  endfacet
  facet normal -1 -0 0
    outer loop
      vertex 0 64 25
      vertex 0 5 0
      vertex 0 5 25
    endloop
  endfacet
  facet normal 0.866025 -0.500001 0
    outer loop
      vertex 97.5451 2.06107 25
      vertex 98.0677 2.96632 0
      vertex 98.0677 2.96632 25
    endloop
  endfacet
  facet normal 0.866025 -0.500001 0
    outer loop
      vertex 98.0677 2.96632 0
      vertex 97.5451 2.06107 25
      vertex 97.5451 2.06107 0
    endloop
  endfacet
  facet normal 0.994522 -0.104527 0
    outer loop
      vertex 98.3907 3.96044 25
      vertex 98.5 5 0
      vertex 98.5 5 25
    endloop
  endfacet
  facet normal 0.994522 -0.104527 0
    outer loop
      vertex 98.5 5 0
      vertex 98.3907 3.96044 25
      vertex 98.3907 3.96044 0
    endloop
  endfacet
  facet normal 0.743145 -0.669131 0
    outer loop
      vertex 96.8456 1.28428 25
      vertex 97.5451 2.06107 0
      vertex 97.5451 2.06107 25
    endloop
  endfacet
  facet normal 0.743145 -0.669131 0
    outer loop
      vertex 97.5451 2.06107 0
      vertex 96.8456 1.28428 25
      vertex 96.8456 1.28428 0
    endloop
  endfacet
  facet normal 0.406736 0.913546 -0
    outer loop
      vertex 96 68.3301 0
      vertex 95.0451 68.7553 25
      vertex 96 68.3301 25
    endloop
  endfacet
  facet normal 0.406736 0.913546 0
    outer loop
      vertex 95.0451 68.7553 25
      vertex 96 68.3301 0
      vertex 95.0451 68.7553 0
    endloop
  endfacet
  facet normal -0.406737 -0.913545 0
    outer loop
      vertex 2.5 0.669872 0
      vertex 3.45491 0.244717 25
      vertex 2.5 0.669872 25
    endloop
  endfacet
  facet normal -0.406737 -0.913545 -0
    outer loop
      vertex 3.45491 0.244717 25
      vertex 2.5 0.669872 0
      vertex 3.45491 0.244717 0
    endloop
  endfacet
  facet normal 0.951056 -0.309019 0
    outer loop
      vertex 98.0677 2.96632 25
      vertex 98.3907 3.96044 0
      vertex 98.3907 3.96044 25
    endloop
  endfacet
  facet normal 0.951056 -0.309019 0
    outer loop
      vertex 98.3907 3.96044 0
      vertex 98.0677 2.96632 25
      vertex 98.0677 2.96632 0
    endloop
  endfacet
  facet normal 0.207912 -0.978148 0
    outer loop
      vertex 94.0226 0.0273905 0
      vertex 95.0451 0.244717 25
      vertex 94.0226 0.0273905 25
    endloop
  endfacet
  facet normal 0.207912 -0.978148 0
    outer loop
      vertex 95.0451 0.244717 25
      vertex 94.0226 0.0273905 0
      vertex 95.0451 0.244717 0
    endloop
  endfacet
  facet normal 0 -1 0
    outer loop
      vertex 4.47736 0.0273905 25
      vertex 11 0.0273905 1
      vertex 11 0.0273905 25
    endloop
  endfacet
  facet normal 0 -1 0
    outer loop
      vertex 4.47736 0.0273905 0
      vertex 13.75 0.0273905 1
      vertex 11 0.0273905 1
    endloop
  endfacet
  facet normal 0 -1 -0
    outer loop
      vertex 13.75 0.0273905 1
      vertex 4.47736 0.0273905 0
      vertex 26.75 0.0273905 1
    endloop
  endfacet
  facet normal 0 -1 -0
    outer loop
      vertex 26.75 0.0273905 1
      vertex 4.47736 0.0273905 0
      vertex 29.5 0.0273905 1
    endloop
  endfacet
  facet normal 0 -1 -0
    outer loop
      vertex 29.5 0.0273905 1
      vertex 4.47736 0.0273905 0
      vertex 69 0.0273905 1
    endloop
  endfacet
  facet normal 0 -1 0
    outer loop
      vertex 94.0226 0.0273905 0
      vertex 69 0.0273905 1
      vertex 4.47736 0.0273905 0
    endloop
  endfacet
  facet normal 0 -1 0
    outer loop
      vertex 69 0.0273905 1
      vertex 94.0226 0.0273905 0
      vertex 71.75 0.0273905 1
    endloop
  endfacet
  facet normal 0 -1 0
    outer loop
      vertex 71.75 0.0273905 1
      vertex 94.0226 0.0273905 0
      vertex 84.75 0.0273905 1
    endloop
  endfacet
  facet normal 0 -1 0
    outer loop
      vertex 4.47736 0.0273905 0
      vertex 11 0.0273905 1
      vertex 4.47736 0.0273905 25
    endloop
  endfacet
  facet normal 0 -1 0
    outer loop
      vertex 29.5 0.0273905 1
      vertex 69 0.0273905 25
      vertex 29.5 0.0273905 25
    endloop
  endfacet
  facet normal 0 -1 -0
    outer loop
      vertex 69 0.0273905 25
      vertex 29.5 0.0273905 1
      vertex 69 0.0273905 1
    endloop
  endfacet
  facet normal 0 -1 0
    outer loop
      vertex 87.5 0.0273905 1
      vertex 94.0226 0.0273905 25
      vertex 87.5 0.0273905 25
    endloop
  endfacet
  facet normal 0 -1 0
    outer loop
      vertex 87.5 0.0273905 1
      vertex 94.0226 0.0273905 0
      vertex 94.0226 0.0273905 25
    endloop
  endfacet
  facet normal 0 -1 0
    outer loop
      vertex 84.75 0.0273905 1
      vertex 94.0226 0.0273905 0
      vertex 87.5 0.0273905 1
    endloop
  endfacet
  facet normal -0.994522 0.104528 0
    outer loop
      vertex 0 64 0
      vertex 0.109262 65.0396 25
      vertex 0.109262 65.0396 0
    endloop
  endfacet
  facet normal -0.994522 0.104528 0
    outer loop
      vertex 0.109262 65.0396 25
      vertex 0 64 0
      vertex 0 64 25
    endloop
  endfacet
  facet normal 0.587787 0.809016 -0
    outer loop
      vertex 96.8456 67.7157 0
      vertex 96 68.3301 25
      vertex 96.8456 67.7157 25
    endloop
  endfacet
  facet normal 0.587787 0.809016 0
    outer loop
      vertex 96 68.3301 25
      vertex 96.8456 67.7157 0
      vertex 96 68.3301 0
    endloop
  endfacet
  facet normal 0.207916 0.978147 -0
    outer loop
      vertex 95.0451 68.7553 0
      vertex 94.0226 68.9726 25
      vertex 95.0451 68.7553 25
    endloop
  endfacet
  facet normal 0.207916 0.978147 0
    outer loop
      vertex 94.0226 68.9726 25
      vertex 95.0451 68.7553 0
      vertex 94.0226 68.9726 0
    endloop
  endfacet
  facet normal -0.587785 0.809017 0
    outer loop
      vertex 2.5 68.3301 0
      vertex 1.65435 67.7157 25
      vertex 2.5 68.3301 25
    endloop
  endfacet
  facet normal -0.587785 0.809017 0
    outer loop
      vertex 1.65435 67.7157 25
      vertex 2.5 68.3301 0
      vertex 1.65435 67.7157 0
    endloop
  endfacet
  facet normal -0.743143 0.669132 0
    outer loop
      vertex 0.954914 66.9389 0
      vertex 1.65435 67.7157 25
      vertex 1.65435 67.7157 0
    endloop
  endfacet
  facet normal -0.743143 0.669132 0
    outer loop
      vertex 1.65435 67.7157 25
      vertex 0.954914 66.9389 0
      vertex 0.954914 66.9389 25
    endloop
  endfacet
  facet normal 0.866025 0.500001 0
    outer loop
      vertex 98.0677 66.0337 25
      vertex 97.5451 66.9389 0
      vertex 97.5451 66.9389 25
    endloop
  endfacet
  facet normal 0.866025 0.500001 0
    outer loop
      vertex 97.5451 66.9389 0
      vertex 98.0677 66.0337 25
      vertex 98.0677 66.0337 0
    endloop
  endfacet
  facet normal -0.866025 -0.5 0
    outer loop
      vertex 0.954914 2.06107 0
      vertex 0.432272 2.96632 25
      vertex 0.432272 2.96632 0
    endloop
  endfacet
  facet normal -0.866025 -0.5 0
    outer loop
      vertex 0.432272 2.96632 25
      vertex 0.954914 2.06107 0
      vertex 0.954914 2.06107 25
    endloop
  endfacet
  facet normal -0.207911 -0.978148 0
    outer loop
      vertex 3.45491 0.244717 0
      vertex 4.47736 0.0273905 25
      vertex 3.45491 0.244717 25
    endloop
  endfacet
  facet normal -0.207911 -0.978148 -0
    outer loop
      vertex 4.47736 0.0273905 25
      vertex 3.45491 0.244717 0
      vertex 4.47736 0.0273905 0
    endloop
  endfacet
  facet normal -0.951057 0.309017 0
    outer loop
      vertex 0.109262 65.0396 0
      vertex 0.432272 66.0337 25
      vertex 0.432272 66.0337 0
    endloop
  endfacet
  facet normal -0.951057 0.309017 0
    outer loop
      vertex 0.432272 66.0337 25
      vertex 0.109262 65.0396 0
      vertex 0.109262 65.0396 25
    endloop
  endfacet
  facet normal -0.866025 0.5 0
    outer loop
      vertex 0.432272 66.0337 0
      vertex 0.954914 66.9389 25
      vertex 0.954914 66.9389 0
    endloop
  endfacet
  facet normal -0.866025 0.5 0
    outer loop
      vertex 0.954914 66.9389 25
      vertex 0.432272 66.0337 0
      vertex 0.432272 66.0337 25
    endloop
  endfacet
  facet normal 0 0 -1
    outer loop
      vertex 94.0226 0.0273905 0
      vertex 98.5 5 0
      vertex 98.3907 3.96044 0
    endloop
  endfacet
  facet normal -0 0 -1
    outer loop
      vertex 98.5 5 0
      vertex 94.0226 0.0273905 0
      vertex 98.5 64 0
    endloop
  endfacet
  facet normal 0 0 -1
    outer loop
      vertex 94.0226 0.0273905 0
      vertex 98.3907 3.96044 0
      vertex 98.0677 2.96632 0
    endloop
  endfacet
  facet normal 0 0 -1
    outer loop
      vertex 94.0226 68.9726 0
      vertex 98.5 64 0
      vertex 94.0226 0.0273905 0
    endloop
  endfacet
  facet normal 0 0 -1
    outer loop
      vertex 94.0226 0.0273905 0
      vertex 98.0677 2.96632 0
      vertex 97.5451 2.06107 0
    endloop
  endfacet
  facet normal 0 0 -1
    outer loop
      vertex 98.5 64 0
      vertex 94.0226 68.9726 0
      vertex 98.3907 65.0396 0
    endloop
  endfacet
  facet normal 0 0 -1
    outer loop
      vertex 94.0226 0.0273905 0
      vertex 97.5451 2.06107 0
      vertex 96.8456 1.28428 0
    endloop
  endfacet
  facet normal 0 0 -1
    outer loop
      vertex 98.3907 65.0396 0
      vertex 94.0226 68.9726 0
      vertex 98.0677 66.0337 0
    endloop
  endfacet
  facet normal 0 0 -1
    outer loop
      vertex 94.0226 0.0273905 0
      vertex 96.8456 1.28428 0
      vertex 96 0.669872 0
    endloop
  endfacet
  facet normal 0 0 -1
    outer loop
      vertex 98.0677 66.0337 0
      vertex 94.0226 68.9726 0
      vertex 97.5451 66.9389 0
    endloop
  endfacet
  facet normal 0 0 -1
    outer loop
      vertex 94.0226 0.0273905 0
      vertex 96 0.669872 0
      vertex 95.0451 0.244717 0
    endloop
  endfacet
  facet normal 0 0 -1
    outer loop
      vertex 97.5451 66.9389 0
      vertex 94.0226 68.9726 0
      vertex 96.8456 67.7157 0
    endloop
  endfacet
  facet normal 0 0 -1
    outer loop
      vertex 96.8456 67.7157 0
      vertex 94.0226 68.9726 0
      vertex 96 68.3301 0
    endloop
  endfacet
  facet normal 0 0 -1
    outer loop
      vertex 96 68.3301 0
      vertex 94.0226 68.9726 0
      vertex 95.0451 68.7553 0
    endloop
  endfacet
  facet normal 0 0 -1
    outer loop
      vertex 4.47736 0.0273905 0
      vertex 94.0226 68.9726 0
      vertex 94.0226 0.0273905 0
    endloop
  endfacet
  facet normal 0 0 -1
    outer loop
      vertex 4.47736 0.0273905 0
      vertex 4.47736 68.9726 0
      vertex 94.0226 68.9726 0
    endloop
  endfacet
  facet normal 0 0 -1
    outer loop
      vertex 0 5 0
      vertex 4.47736 0.0273905 0
      vertex 3.45491 0.244717 0
    endloop
  endfacet
  facet normal 0 0 -1
    outer loop
      vertex 4.47736 0.0273905 0
      vertex 0 5 0
      vertex 4.47736 68.9726 0
    endloop
  endfacet
  facet normal 0 0 -1
    outer loop
      vertex 4.47736 68.9726 0
      vertex 0 64 0
      vertex 3.45491 68.7553 0
    endloop
  endfacet
  facet normal 0 0 -1
    outer loop
      vertex 0 5 0
      vertex 3.45491 0.244717 0
      vertex 2.5 0.669872 0
    endloop
  endfacet
  facet normal 0 0 -1
    outer loop
      vertex 0 5 0
      vertex 2.5 0.669872 0
      vertex 1.65435 1.28428 0
    endloop
  endfacet
  facet normal 0 0 -1
    outer loop
      vertex 4.47736 68.9726 0
      vertex 0 5 0
      vertex 0 64 0
    endloop
  endfacet
  facet normal 0 0 -1
    outer loop
      vertex 0 5 0
      vertex 1.65435 1.28428 0
      vertex 0.954914 2.06107 0
    endloop
  endfacet
  facet normal 0 0 -1
    outer loop
      vertex 3.45491 68.7553 0
      vertex 0 64 0
      vertex 2.5 68.3301 0
    endloop
  endfacet
  facet normal 0 0 -1
    outer loop
      vertex 0 5 0
      vertex 0.954914 2.06107 0
      vertex 0.432272 2.96632 0
    endloop
  endfacet
  facet normal 0 0 -1
    outer loop
      vertex 2.5 68.3301 0
      vertex 0 64 0
      vertex 1.65435 67.7157 0
    endloop
  endfacet
  facet normal 0 0 -1
    outer loop
      vertex 0 5 0
      vertex 0.432272 2.96632 0
      vertex 0.109262 3.96044 0
    endloop
  endfacet
  facet normal 0 0 -1
    outer loop
      vertex 1.65435 67.7157 0
      vertex 0 64 0
      vertex 0.954914 66.9389 0
    endloop
  endfacet
  facet normal 0 0 -1
    outer loop
      vertex 0.954914 66.9389 0
      vertex 0 64 0
      vertex 0.432272 66.0337 0
    endloop
  endfacet
  facet normal 0 0 -1
    outer loop
      vertex 0.432272 66.0337 0
      vertex 0 64 0
      vertex 0.109262 65.0396 0
    endloop
  endfacet
  facet normal -0.951057 -0.309017 0
    outer loop
      vertex 0.432272 2.96632 0
      vertex 0.109262 3.96044 25
      vertex 0.109262 3.96044 0
    endloop
  endfacet
  facet normal -0.951057 -0.309017 0
    outer loop
      vertex 0.109262 3.96044 25
      vertex 0.432272 2.96632 0
      vertex 0.432272 2.96632 25
    endloop
  endfacet
  facet normal -0.743145 -0.669131 0
    outer loop
      vertex 1.65435 1.28428 0
      vertex 0.954914 2.06107 25
      vertex 0.954914 2.06107 0
    endloop
  endfacet
  facet normal -0.743145 -0.669131 0
    outer loop
      vertex 0.954914 2.06107 25
      vertex 1.65435 1.28428 0
      vertex 1.65435 1.28428 25
    endloop
  endfacet
  facet normal -0.207915 0.978147 0
    outer loop
      vertex 4.47736 68.9726 0
      vertex 3.45491 68.7553 25
      vertex 4.47736 68.9726 25
    endloop
  endfacet
  facet normal -0.207915 0.978147 0
    outer loop
      vertex 3.45491 68.7553 25
      vertex 4.47736 68.9726 0
      vertex 3.45491 68.7553 0
    endloop
  endfacet
  facet normal 0 1 -0
    outer loop
      vertex 94.0226 68.9726 0
      vertex 4.47736 68.9726 25
      vertex 94.0226 68.9726 25
    endloop
  endfacet
  facet normal 0 1 0
    outer loop
      vertex 4.47736 68.9726 25
      vertex 94.0226 68.9726 0
      vertex 4.47736 68.9726 0
    endloop
  endfacet
  facet normal 0.951056 0.309019 0
    outer loop
      vertex 98.3907 65.0396 25
      vertex 98.0677 66.0337 0
      vertex 98.0677 66.0337 25
    endloop
  endfacet
  facet normal 0.951056 0.309019 0
    outer loop
      vertex 98.0677 66.0337 0
      vertex 98.3907 65.0396 25
      vertex 98.3907 65.0396 0
    endloop
  endfacet
  facet normal 0.994522 0.104527 0
    outer loop
      vertex 98.5 64 25
      vertex 98.3907 65.0396 0
      vertex 98.3907 65.0396 25
    endloop
  endfacet
  facet normal 0.994522 0.104527 0
    outer loop
      vertex 98.3907 65.0396 0
      vertex 98.5 64 25
      vertex 98.5 64 0
    endloop
  endfacet
  facet normal -0.587785 -0.809017 0
    outer loop
      vertex 1.65435 1.28428 0
      vertex 2.5 0.669872 25
      vertex 1.65435 1.28428 25
    endloop
  endfacet
  facet normal -0.587785 -0.809017 -0
    outer loop
      vertex 2.5 0.669872 25
      vertex 1.65435 1.28428 0
      vertex 2.5 0.669872 0
    endloop
  endfacet
  facet normal -0.994522 -0.104527 0
    outer loop
      vertex 97.5 63 1
      vertex 97.3907 64.0396 25
      vertex 97.3907 64.0396 1
    endloop
  endfacet
  facet normal -0.994522 -0.104527 0
    outer loop
      vertex 97.3907 64.0396 25
      vertex 97.5 63 1
      vertex 97.5 63 25
    endloop
  endfacet
  facet normal 0 0 1
    outer loop
      vertex 93.0226 67.9726 1
      vertex 97.5 63 1
      vertex 97.3907 64.0396 1
    endloop
  endfacet
  facet normal 0 0 1
    outer loop
      vertex 97.5 63 1
      vertex 87.5 4 1
      vertex 97.5 6 1
    endloop
  endfacet
  facet normal 0 0 1
    outer loop
      vertex 93.0226 67.9726 1
      vertex 97.3907 64.0396 1
      vertex 97.0677 65.0337 1
    endloop
  endfacet
  facet normal 0 -0 1
    outer loop
      vertex 93.0226 1.02739 1
      vertex 97.5 6 1
      vertex 87.5 4 1
    endloop
  endfacet
  facet normal 0 0 1
    outer loop
      vertex 93.0226 67.9726 1
      vertex 97.0677 65.0337 1
      vertex 96.5451 65.9389 1
    endloop
  endfacet
  facet normal 0 0 1
    outer loop
      vertex 97.5 6 1
      vertex 93.0226 1.02739 1
      vertex 97.3907 4.96044 1
    endloop
  endfacet
  facet normal 0 0 1
    outer loop
      vertex 93.0226 67.9726 1
      vertex 96.5451 65.9389 1
      vertex 95.8456 66.7157 1
    endloop
  endfacet
  facet normal 0 0 1
    outer loop
      vertex 97.3907 4.96044 1
      vertex 93.0226 1.02739 1
      vertex 97.0677 3.96632 1
    endloop
  endfacet
  facet normal 0 0 1
    outer loop
      vertex 93.0226 67.9726 1
      vertex 95.8456 66.7157 1
      vertex 95 67.3301 1
    endloop
  endfacet
  facet normal 0 0 1
    outer loop
      vertex 97.0677 3.96632 1
      vertex 93.0226 1.02739 1
      vertex 96.5451 3.06107 1
    endloop
  endfacet
  facet normal 0 0 1
    outer loop
      vertex 93.0226 67.9726 1
      vertex 95 67.3301 1
      vertex 94.0451 67.7553 1
    endloop
  endfacet
  facet normal 0 0 1
    outer loop
      vertex 96.5451 3.06107 1
      vertex 93.0226 1.02739 1
      vertex 95.8456 2.28428 1
    endloop
  endfacet
  facet normal 0 0 1
    outer loop
      vertex 97.5 63 1
      vertex 93.0226 67.9726 1
      vertex 69 4 1
    endloop
  endfacet
  facet normal 0 0 1
    outer loop
      vertex 95.8456 2.28428 1
      vertex 93.0226 1.02739 1
      vertex 95 1.66987 1
    endloop
  endfacet
  facet normal 0 0 1
    outer loop
      vertex 95 1.66987 1
      vertex 93.0226 1.02739 1
      vertex 94.0451 1.24472 1
    endloop
  endfacet
  facet normal 0 0 1
    outer loop
      vertex 97.5 63 1
      vertex 69 4 1
      vertex 87.5 4 1
    endloop
  endfacet
  facet normal 0 0 1
    outer loop
      vertex 69 4 1
      vertex 29.5 4 1
      vertex 69 1.02739 1
    endloop
  endfacet
  facet normal 0 0 1
    outer loop
      vertex 93.0226 67.9726 1
      vertex 29.5 4 1
      vertex 69 4 1
    endloop
  endfacet
  facet normal -0 0 1
    outer loop
      vertex 5.47736 67.9726 1
      vertex 29.5 4 1
      vertex 93.0226 67.9726 1
    endloop
  endfacet
  facet normal -0 0 1
    outer loop
      vertex 1 63 1
      vertex 29.5 4 1
      vertex 5.47736 67.9726 1
    endloop
  endfacet
  facet normal 0 0 1
    outer loop
      vertex 29.5 4 1
      vertex 1 63 1
      vertex 11 4 1
    endloop
  endfacet
  facet normal -0 0 1
    outer loop
      vertex 1 6 1
      vertex 11 4 1
      vertex 1 63 1
    endloop
  endfacet
  facet normal 0 0 1
    outer loop
      vertex 1 63 1
      vertex 5.47736 67.9726 1
      vertex 4.45491 67.7553 1
    endloop
  endfacet
  facet normal 0 -0 1
    outer loop
      vertex 5.47736 1.02739 1
      vertex 11 4 1
      vertex 1 6 1
    endloop
  endfacet
  facet normal 0 0 1
    outer loop
      vertex 1 63 1
      vertex 4.45491 67.7553 1
      vertex 3.5 67.3301 1
    endloop
  endfacet
  facet normal 0 0 1
    outer loop
      vertex 11 4 1
      vertex 5.47736 1.02739 1
      vertex 11 1.02739 1
    endloop
  endfacet
  facet normal 0 0 1
    outer loop
      vertex 1 63 1
      vertex 3.5 67.3301 1
      vertex 2.65435 66.7157 1
    endloop
  endfacet
  facet normal 0 0 1
    outer loop
      vertex 5.47736 1.02739 1
      vertex 1 6 1
      vertex 4.45491 1.24472 1
    endloop
  endfacet
  facet normal 0 0 1
    outer loop
      vertex 1 63 1
      vertex 2.65435 66.7157 1
      vertex 1.95491 65.9389 1
    endloop
  endfacet
  facet normal 0 0 1
    outer loop
      vertex 4.45491 1.24472 1
      vertex 1 6 1
      vertex 3.5 1.66987 1
    endloop
  endfacet
  facet normal 0 0 1
    outer loop
      vertex 1 63 1
      vertex 1.95491 65.9389 1
      vertex 1.43227 65.0337 1
    endloop
  endfacet
  facet normal 0 0 1
    outer loop
      vertex 3.5 1.66987 1
      vertex 1 6 1
      vertex 2.65435 2.28428 1
    endloop
  endfacet
  facet normal 0 0 1
    outer loop
      vertex 1 63 1
      vertex 1.43227 65.0337 1
      vertex 1.10926 64.0396 1
    endloop
  endfacet
  facet normal 0 0 1
    outer loop
      vertex 2.65435 2.28428 1
      vertex 1 6 1
      vertex 1.95491 3.06107 1
    endloop
  endfacet
  facet normal 0 0 1
    outer loop
      vertex 1.95491 3.06107 1
      vertex 1 6 1
      vertex 1.43227 3.96632 1
    endloop
  endfacet
  facet normal 0 0 1
    outer loop
      vertex 1.43227 3.96632 1
      vertex 1 6 1
      vertex 1.10926 4.96044 1
    endloop
  endfacet
  facet normal 0 0 1
    outer loop
      vertex 93.0226 1.02739 1
      vertex 87.5 4 1
      vertex 87.5 1.02739 1
    endloop
  endfacet
  facet normal 0 0 1
    outer loop
      vertex 69 1.02739 1
      vertex 29.5 4 1
      vertex 29.5 1.02739 1
    endloop
  endfacet
  facet normal 0 0 -1
    outer loop
      vertex 69 0 1
      vertex 71.75 0.0273905 1
      vertex 71.75 0 1
    endloop
  endfacet
  facet normal -0 0 -1
    outer loop
      vertex 71.75 0.0273905 1
      vertex 69 0 1
      vertex 69 0.0273905 1
    endloop
  endfacet
  facet normal 0 0 -1
    outer loop
      vertex 84.75 0 1
      vertex 87.5 0.0273905 1
      vertex 87.5 0 1
    endloop
  endfacet
  facet normal -0 0 -1
    outer loop
      vertex 87.5 0.0273905 1
      vertex 84.75 0 1
      vertex 84.75 0.0273905 1
    endloop
  endfacet
  facet normal 0 0 1
    outer loop
      vertex 86.5 3 1
      vertex 84.75 1 1
      vertex 86.5 1 1
    endloop
  endfacet
  facet normal 0 0 1
    outer loop
      vertex 84.75 1 1
      vertex 71.75 1 1
      vertex 84.75 0.0273905 1
    endloop
  endfacet
  facet normal 0 0 1
    outer loop
      vertex 86.5 3 1
      vertex 71.75 1 1
      vertex 84.75 1 1
    endloop
  endfacet
  facet normal -0 0 1
    outer loop
      vertex 70 3 1
      vertex 71.75 1 1
      vertex 86.5 3 1
    endloop
  endfacet
  facet normal 0 0 1
    outer loop
      vertex 71.75 1 1
      vertex 70 3 1
      vertex 70 1 1
    endloop
  endfacet
  facet normal 0 0 1
    outer loop
      vertex 84.75 0.0273905 1
      vertex 71.75 1 1
      vertex 71.75 0.0273905 1
    endloop
  endfacet
  facet normal 0 0 -1
    outer loop
      vertex 11 0 1
      vertex 13.75 0.0273905 1
      vertex 13.75 0 1
    endloop
  endfacet
  facet normal -0 0 -1
    outer loop
      vertex 13.75 0.0273905 1
      vertex 11 0 1
      vertex 11 0.0273905 1
    endloop
  endfacet
  facet normal 0 0 -1
    outer loop
      vertex 26.75 0 1
      vertex 29.5 0.0273905 1
      vertex 29.5 0 1
    endloop
  endfacet
  facet normal -0 0 -1
    outer loop
      vertex 29.5 0.0273905 1
      vertex 26.75 0 1
      vertex 26.75 0.0273905 1
    endloop
  endfacet
  facet normal 0 0 1
    outer loop
      vertex 28.5 3 1
      vertex 26.75 1 1
      vertex 28.5 1 1
    endloop
  endfacet
  facet normal 0 0 1
    outer loop
      vertex 26.75 1 1
      vertex 13.75 1 1
      vertex 26.75 0.0273905 1
    endloop
  endfacet
  facet normal 0 0 1
    outer loop
      vertex 28.5 3 1
      vertex 13.75 1 1
      vertex 26.75 1 1
    endloop
  endfacet
  facet normal -0 0 1
    outer loop
      vertex 12 3 1
      vertex 13.75 1 1
      vertex 28.5 3 1
    endloop
  endfacet
  facet normal 0 0 1
    outer loop
      vertex 13.75 1 1
      vertex 12 3 1
      vertex 12 1 1
    endloop
  endfacet
  facet normal 0 0 1
    outer loop
      vertex 26.75 0.0273905 1
      vertex 13.75 1 1
      vertex 13.75 0.0273905 1
    endloop
  endfacet
  facet normal 0.994522 0.104528 0
    outer loop
      vertex 1.10926 4.96044 25
      vertex 1 6 1
      vertex 1 6 25
    endloop
  endfacet
  facet normal 0.994522 0.104528 0
    outer loop
      vertex 1 6 1
      vertex 1.10926 4.96044 25
      vertex 1.10926 4.96044 1
    endloop
  endfacet
  facet normal -0.406736 0.913546 0
    outer loop
      vertex 95 1.66987 1
      vertex 94.0451 1.24472 25
      vertex 95 1.66987 25
    endloop
  endfacet
  facet normal -0.406736 0.913546 0
    outer loop
      vertex 94.0451 1.24472 25
      vertex 95 1.66987 1
      vertex 94.0451 1.24472 1
    endloop
  endfacet
  facet normal -1 0 0
    outer loop
      vertex 97.5 6 1
      vertex 97.5 63 25
      vertex 97.5 63 1
    endloop
  endfacet
  facet normal -1 -0 0
    outer loop
      vertex 97.5 63 25
      vertex 97.5 6 1
      vertex 97.5 6 25
    endloop
  endfacet
  facet normal 1 -0 0
    outer loop
      vertex 1 6 25
      vertex 1 63 1
      vertex 1 63 25
    endloop
  endfacet
  facet normal 1 0 0
    outer loop
      vertex 1 63 1
      vertex 1 6 25
      vertex 1 6 1
    endloop
  endfacet
  facet normal 0.406737 -0.913545 0
    outer loop
      vertex 3.5 67.3301 1
      vertex 4.45491 67.7553 25
      vertex 3.5 67.3301 25
    endloop
  endfacet
  facet normal 0.406737 -0.913545 0
    outer loop
      vertex 4.45491 67.7553 25
      vertex 3.5 67.3301 1
      vertex 4.45491 67.7553 1
    endloop
  endfacet
  facet normal 0.207911 0.978148 -0
    outer loop
      vertex 5.47736 1.02739 1
      vertex 4.45491 1.24472 25
      vertex 5.47736 1.02739 25
    endloop
  endfacet
  facet normal 0.207911 0.978148 0
    outer loop
      vertex 4.45491 1.24472 25
      vertex 5.47736 1.02739 1
      vertex 4.45491 1.24472 1
    endloop
  endfacet
  facet normal 0 1 -0
    outer loop
      vertex 11 1.02739 1
      vertex 5.47736 1.02739 25
      vertex 11 1.02739 25
    endloop
  endfacet
  facet normal 0 1 0
    outer loop
      vertex 5.47736 1.02739 25
      vertex 11 1.02739 1
      vertex 5.47736 1.02739 1
    endloop
  endfacet
  facet normal 0 1 -0
    outer loop
      vertex 93.0226 1.02739 1
      vertex 87.5 1.02739 25
      vertex 93.0226 1.02739 25
    endloop
  endfacet
  facet normal 0 1 0
    outer loop
      vertex 87.5 1.02739 25
      vertex 93.0226 1.02739 1
      vertex 87.5 1.02739 1
    endloop
  endfacet
  facet normal 0 1 -0
    outer loop
      vertex 69 1.02739 1
      vertex 29.5 1.02739 25
      vertex 69 1.02739 25
    endloop
  endfacet
  facet normal 0 1 0
    outer loop
      vertex 29.5 1.02739 25
      vertex 69 1.02739 1
      vertex 29.5 1.02739 1
    endloop
  endfacet
  facet normal -0.587787 0.809016 0
    outer loop
      vertex 95.8456 2.28428 1
      vertex 95 1.66987 25
      vertex 95.8456 2.28428 25
    endloop
  endfacet
  facet normal -0.587787 0.809016 0
    outer loop
      vertex 95 1.66987 25
      vertex 95.8456 2.28428 1
      vertex 95 1.66987 1
    endloop
  endfacet
  facet normal 0.951057 0.309017 0
    outer loop
      vertex 1.43227 3.96632 25
      vertex 1.10926 4.96044 1
      vertex 1.10926 4.96044 25
    endloop
  endfacet
  facet normal 0.951057 0.309017 0
    outer loop
      vertex 1.10926 4.96044 1
      vertex 1.43227 3.96632 25
      vertex 1.43227 3.96632 1
    endloop
  endfacet
  facet normal -0.207912 0.978148 0
    outer loop
      vertex 94.0451 1.24472 1
      vertex 93.0226 1.02739 25
      vertex 94.0451 1.24472 25
    endloop
  endfacet
  facet normal -0.207912 0.978148 0
    outer loop
      vertex 93.0226 1.02739 25
      vertex 94.0451 1.24472 1
      vertex 93.0226 1.02739 1
    endloop
  endfacet
  facet normal 0.406737 0.913545 -0
    outer loop
      vertex 4.45491 1.24472 1
      vertex 3.5 1.66987 25
      vertex 4.45491 1.24472 25
    endloop
  endfacet
  facet normal 0.406737 0.913545 0
    outer loop
      vertex 3.5 1.66987 25
      vertex 4.45491 1.24472 1
      vertex 3.5 1.66987 1
    endloop
  endfacet
  facet normal 0 -1 0
    outer loop
      vertex 5.47736 67.9726 1
      vertex 93.0226 67.9726 25
      vertex 5.47736 67.9726 25
    endloop
  endfacet
  facet normal 0 -1 -0
    outer loop
      vertex 93.0226 67.9726 25
      vertex 5.47736 67.9726 1
      vertex 93.0226 67.9726 1
    endloop
  endfacet
  facet normal -0.866025 0.500001 0
    outer loop
      vertex 96.5451 3.06107 1
      vertex 97.0677 3.96632 25
      vertex 97.0677 3.96632 1
    endloop
  endfacet
  facet normal -0.866025 0.500001 0
    outer loop
      vertex 97.0677 3.96632 25
      vertex 96.5451 3.06107 1
      vertex 96.5451 3.06107 25
    endloop
  endfacet
  facet normal -0.994522 0.104527 0
    outer loop
      vertex 97.3907 4.96044 1
      vertex 97.5 6 25
      vertex 97.5 6 1
    endloop
  endfacet
  facet normal -0.994522 0.104527 0
    outer loop
      vertex 97.5 6 25
      vertex 97.3907 4.96044 1
      vertex 97.3907 4.96044 25
    endloop
  endfacet
  facet normal -0.743145 0.669131 0
    outer loop
      vertex 95.8456 2.28428 1
      vertex 96.5451 3.06107 25
      vertex 96.5451 3.06107 1
    endloop
  endfacet
  facet normal -0.743145 0.669131 0
    outer loop
      vertex 96.5451 3.06107 25
      vertex 95.8456 2.28428 1
      vertex 95.8456 2.28428 25
    endloop
  endfacet
  facet normal -0.951056 -0.309019 0
    outer loop
      vertex 97.3907 64.0396 1
      vertex 97.0677 65.0337 25
      vertex 97.0677 65.0337 1
    endloop
  endfacet
  facet normal -0.951056 -0.309019 0
    outer loop
      vertex 97.0677 65.0337 25
      vertex 97.3907 64.0396 1
      vertex 97.3907 64.0396 25
    endloop
  endfacet
  facet normal -0.587787 -0.809016 0
    outer loop
      vertex 95 67.3301 1
      vertex 95.8456 66.7157 25
      vertex 95 67.3301 25
    endloop
  endfacet
  facet normal -0.587787 -0.809016 -0
    outer loop
      vertex 95.8456 66.7157 25
      vertex 95 67.3301 1
      vertex 95.8456 66.7157 1
    endloop
  endfacet
  facet normal 0.207915 -0.978147 0
    outer loop
      vertex 4.45491 67.7553 1
      vertex 5.47736 67.9726 25
      vertex 4.45491 67.7553 25
    endloop
  endfacet
  facet normal 0.207915 -0.978147 0
    outer loop
      vertex 5.47736 67.9726 25
      vertex 4.45491 67.7553 1
      vertex 5.47736 67.9726 1
    endloop
  endfacet
  facet normal -0.951056 0.309019 0
    outer loop
      vertex 97.0677 3.96632 1
      vertex 97.3907 4.96044 25
      vertex 97.3907 4.96044 1
    endloop
  endfacet
  facet normal -0.951056 0.309019 0
    outer loop
      vertex 97.3907 4.96044 25
      vertex 97.0677 3.96632 1
      vertex 97.0677 3.96632 25
    endloop
  endfacet
  facet normal 0.994522 -0.104528 0
    outer loop
      vertex 1 63 25
      vertex 1.10926 64.0396 1
      vertex 1.10926 64.0396 25
    endloop
  endfacet
  facet normal 0.994522 -0.104528 0
    outer loop
      vertex 1.10926 64.0396 1
      vertex 1 63 25
      vertex 1 63 1
    endloop
  endfacet
  facet normal 0.951057 -0.309017 0
    outer loop
      vertex 1.10926 64.0396 25
      vertex 1.43227 65.0337 1
      vertex 1.43227 65.0337 25
    endloop
  endfacet
  facet normal 0.951057 -0.309017 0
    outer loop
      vertex 1.43227 65.0337 1
      vertex 1.10926 64.0396 25
      vertex 1.10926 64.0396 1
    endloop
  endfacet
  facet normal 0.743145 0.669131 0
    outer loop
      vertex 2.65435 2.28428 25
      vertex 1.95491 3.06107 1
      vertex 1.95491 3.06107 25
    endloop
  endfacet
  facet normal 0.743145 0.669131 0
    outer loop
      vertex 1.95491 3.06107 1
      vertex 2.65435 2.28428 25
      vertex 2.65435 2.28428 1
    endloop
  endfacet
  facet normal 0.587785 0.809017 -0
    outer loop
      vertex 3.5 1.66987 1
      vertex 2.65435 2.28428 25
      vertex 3.5 1.66987 25
    endloop
  endfacet
  facet normal 0.587785 0.809017 0
    outer loop
      vertex 2.65435 2.28428 25
      vertex 3.5 1.66987 1
      vertex 2.65435 2.28428 1
    endloop
  endfacet
  facet normal -0.207916 -0.978147 0
    outer loop
      vertex 93.0226 67.9726 1
      vertex 94.0451 67.7553 25
      vertex 93.0226 67.9726 25
    endloop
  endfacet
  facet normal -0.207916 -0.978147 -0
    outer loop
      vertex 94.0451 67.7553 25
      vertex 93.0226 67.9726 1
      vertex 94.0451 67.7553 1
    endloop
  endfacet
  facet normal -0.406736 -0.913546 0
    outer loop
      vertex 94.0451 67.7553 1
      vertex 95 67.3301 25
      vertex 94.0451 67.7553 25
    endloop
  endfacet
  facet normal -0.406736 -0.913546 -0
    outer loop
      vertex 95 67.3301 25
      vertex 94.0451 67.7553 1
      vertex 95 67.3301 1
    endloop
  endfacet
  facet normal 0.866025 0.5 0
    outer loop
      vertex 1.95491 3.06107 25
      vertex 1.43227 3.96632 1
      vertex 1.43227 3.96632 25
    endloop
  endfacet
  facet normal 0.866025 0.5 0
    outer loop
      vertex 1.43227 3.96632 1
      vertex 1.95491 3.06107 25
      vertex 1.95491 3.06107 1
    endloop
  endfacet
  facet normal -0.743143 -0.669132 0
    outer loop
      vertex 96.5451 65.9389 1
      vertex 95.8456 66.7157 25
      vertex 95.8456 66.7157 1
    endloop
  endfacet
  facet normal -0.743143 -0.669132 0
    outer loop
      vertex 95.8456 66.7157 25
      vertex 96.5451 65.9389 1
      vertex 96.5451 65.9389 25
    endloop
  endfacet
  facet normal -0.866025 -0.500001 0
    outer loop
      vertex 97.0677 65.0337 1
      vertex 96.5451 65.9389 25
      vertex 96.5451 65.9389 1
    endloop
  endfacet
  facet normal -0.866025 -0.500001 0
    outer loop
      vertex 96.5451 65.9389 25
      vertex 97.0677 65.0337 1
      vertex 97.0677 65.0337 25
    endloop
  endfacet
  facet normal 0.866025 -0.5 0
    outer loop
      vertex 1.43227 65.0337 25
      vertex 1.95491 65.9389 1
      vertex 1.95491 65.9389 25
    endloop
  endfacet
  facet normal 0.866025 -0.5 0
    outer loop
      vertex 1.95491 65.9389 1
      vertex 1.43227 65.0337 25
      vertex 1.43227 65.0337 1
    endloop
  endfacet
  facet normal 0.743143 -0.669132 0
    outer loop
      vertex 1.95491 65.9389 25
      vertex 2.65435 66.7157 1
      vertex 2.65435 66.7157 25
    endloop
  endfacet
  facet normal 0.743143 -0.669132 0
    outer loop
      vertex 2.65435 66.7157 1
      vertex 1.95491 65.9389 25
      vertex 1.95491 65.9389 1
    endloop
  endfacet
  facet normal 0.587785 -0.809017 0
    outer loop
      vertex 2.65435 66.7157 1
      vertex 3.5 67.3301 25
      vertex 2.65435 66.7157 25
    endloop
  endfacet
  facet normal 0.587785 -0.809017 0
    outer loop
      vertex 3.5 67.3301 25
      vertex 2.65435 66.7157 1
      vertex 3.5 67.3301 1
    endloop
  endfacet
  facet normal -1 0 0
    outer loop
      vertex 11 0 1
      vertex 11 0.0273905 25
      vertex 11 0.0273905 1
    endloop
  endfacet
  facet normal -1 -0 0
    outer loop
      vertex 11 0.0273905 25
      vertex 11 0 1
      vertex 11 0 25
    endloop
  endfacet
  facet normal -1 0 0
    outer loop
      vertex 11 1.02739 1
      vertex 11 4 25
      vertex 11 4 1
    endloop
  endfacet
  facet normal -1 -0 0
    outer loop
      vertex 11 4 25
      vertex 11 1.02739 1
      vertex 11 1.02739 25
    endloop
  endfacet
  facet normal 1 -0 0
    outer loop
      vertex 29.5 0 25
      vertex 29.5 0.0273905 1
      vertex 29.5 0.0273905 25
    endloop
  endfacet
  facet normal 1 0 0
    outer loop
      vertex 29.5 0.0273905 1
      vertex 29.5 0 25
      vertex 29.5 0 1
    endloop
  endfacet
  facet normal 1 -0 0
    outer loop
      vertex 29.5 1.02739 25
      vertex 29.5 4 1
      vertex 29.5 4 25
    endloop
  endfacet
  facet normal 1 0 0
    outer loop
      vertex 29.5 4 1
      vertex 29.5 1.02739 25
      vertex 29.5 1.02739 1
    endloop
  endfacet
  facet normal -1 0 0
    outer loop
      vertex 69 0 1
      vertex 69 0.0273905 25
      vertex 69 0.0273905 1
    endloop
  endfacet
  facet normal -1 -0 0
    outer loop
      vertex 69 0.0273905 25
      vertex 69 0 1
      vertex 69 0 25
    endloop
  endfacet
  facet normal -1 0 0
    outer loop
      vertex 69 1.02739 1
      vertex 69 4 25
      vertex 69 4 1
    endloop
  endfacet
  facet normal -1 -0 0
    outer loop
      vertex 69 4 25
      vertex 69 1.02739 1
      vertex 69 1.02739 25
    endloop
  endfacet
  facet normal 1 -0 0
    outer loop
      vertex 87.5 0 25
      vertex 87.5 0.0273905 1
      vertex 87.5 0.0273905 25
    endloop
  endfacet
  facet normal 1 0 0
    outer loop
      vertex 87.5 0.0273905 1
      vertex 87.5 0 25
      vertex 87.5 0 1
    endloop
  endfacet
  facet normal 1 -0 0
    outer loop
      vertex 87.5 1.02739 25
      vertex 87.5 4 1
      vertex 87.5 4 25
    endloop
  endfacet
  facet normal 1 0 0
    outer loop
      vertex 87.5 4 1
      vertex 87.5 1.02739 25
      vertex 87.5 1.02739 1
    endloop
  endfacet
  facet normal 0 -1 0
    outer loop
      vertex 11 0 1
      vertex 13.75 0 25
      vertex 11 0 25
    endloop
  endfacet
  facet normal 0 -1 -0
    outer loop
      vertex 13.75 0 25
      vertex 11 0 1
      vertex 13.75 0 1
    endloop
  endfacet
  facet normal 0 -1 0
    outer loop
      vertex 26.75 0 1
      vertex 29.5 0 25
      vertex 26.75 0 25
    endloop
  endfacet
  facet normal 0 -1 -0
    outer loop
      vertex 29.5 0 25
      vertex 26.75 0 1
      vertex 29.5 0 1
    endloop
  endfacet
  facet normal 0 1 -0
    outer loop
      vertex 29.5 4 1
      vertex 11 4 25
      vertex 29.5 4 25
    endloop
  endfacet
  facet normal 0 1 0
    outer loop
      vertex 11 4 25
      vertex 29.5 4 1
      vertex 11 4 1
    endloop
  endfacet
  facet normal 1 -0 0
    outer loop
      vertex 12 1 25
      vertex 12 3 1
      vertex 12 3 25
    endloop
  endfacet
  facet normal 1 0 0
    outer loop
      vertex 12 3 1
      vertex 12 1 25
      vertex 12 1 1
    endloop
  endfacet
  facet normal -1 0 0
    outer loop
      vertex 28.5 1 1
      vertex 28.5 3 25
      vertex 28.5 3 1
    endloop
  endfacet
  facet normal -1 -0 0
    outer loop
      vertex 28.5 3 25
      vertex 28.5 1 1
      vertex 28.5 1 25
    endloop
  endfacet
  facet normal 0 -1 0
    outer loop
      vertex 12 3 1
      vertex 28.5 3 25
      vertex 12 3 25
    endloop
  endfacet
  facet normal 0 -1 -0
    outer loop
      vertex 28.5 3 25
      vertex 12 3 1
      vertex 28.5 3 1
    endloop
  endfacet
  facet normal 0 1 -0
    outer loop
      vertex 13.75 1 1
      vertex 12 1 25
      vertex 13.75 1 25
    endloop
  endfacet
  facet normal 0 1 0
    outer loop
      vertex 12 1 25
      vertex 13.75 1 1
      vertex 12 1 1
    endloop
  endfacet
  facet normal 0 1 -0
    outer loop
      vertex 28.5 1 1
      vertex 26.75 1 25
      vertex 28.5 1 25
    endloop
  endfacet
  facet normal 0 1 0
    outer loop
      vertex 26.75 1 25
      vertex 28.5 1 1
      vertex 26.75 1 1
    endloop
  endfacet
  facet normal 1 0 0
    outer loop
      vertex 13.75 1 25
      vertex 13.75 0.0273905 1
      vertex 13.75 1 1
    endloop
  endfacet
  facet normal 1 -0 0
    outer loop
      vertex 13.75 0 25
      vertex 13.75 0.0273905 1
      vertex 13.75 1 25
    endloop
  endfacet
  facet normal 1 0 0
    outer loop
      vertex 13.75 0.0273905 1
      vertex 13.75 0 25
      vertex 13.75 0 1
    endloop
  endfacet
  facet normal -1 0 0
    outer loop
      vertex 26.75 0.0273905 1
      vertex 26.75 1 25
      vertex 26.75 1 1
    endloop
  endfacet
  facet normal -1 0 0
    outer loop
      vertex 26.75 0 25
      vertex 26.75 0.0273905 1
      vertex 26.75 0 1
    endloop
  endfacet
  facet normal -1 0 0
    outer loop
      vertex 26.75 0.0273905 1
      vertex 26.75 0 25
      vertex 26.75 1 25
    endloop
  endfacet
  facet normal 0 -1 0
    outer loop
      vertex 69 0 1
      vertex 71.75 0 25
      vertex 69 0 25
    endloop
  endfacet
  facet normal 0 -1 -0
    outer loop
      vertex 71.75 0 25
      vertex 69 0 1
      vertex 71.75 0 1
    endloop
  endfacet
  facet normal 0 -1 0
    outer loop
      vertex 84.75 0 1
      vertex 87.5 0 25
      vertex 84.75 0 25
    endloop
  endfacet
  facet normal 0 -1 -0
    outer loop
      vertex 87.5 0 25
      vertex 84.75 0 1
      vertex 87.5 0 1
    endloop
  endfacet
  facet normal 0 1 -0
    outer loop
      vertex 87.5 4 1
      vertex 69 4 25
      vertex 87.5 4 25
    endloop
  endfacet
  facet normal 0 1 0
    outer loop
      vertex 69 4 25
      vertex 87.5 4 1
      vertex 69 4 1
    endloop
  endfacet
  facet normal 1 -0 0
    outer loop
      vertex 70 1 25
      vertex 70 3 1
      vertex 70 3 25
    endloop
  endfacet
  facet normal 1 0 0
    outer loop
      vertex 70 3 1
      vertex 70 1 25
      vertex 70 1 1
    endloop
  endfacet
  facet normal -1 0 0
    outer loop
      vertex 86.5 1 1
      vertex 86.5 3 25
      vertex 86.5 3 1
    endloop
  endfacet
  facet normal -1 -0 0
    outer loop
      vertex 86.5 3 25
      vertex 86.5 1 1
      vertex 86.5 1 25
    endloop
  endfacet
  facet normal 0 -1 0
    outer loop
      vertex 70 3 1
      vertex 86.5 3 25
      vertex 70 3 25
    endloop
  endfacet
  facet normal 0 -1 -0
    outer loop
      vertex 86.5 3 25
      vertex 70 3 1
      vertex 86.5 3 1
    endloop
  endfacet
  facet normal 0 1 -0
    outer loop
      vertex 71.75 1 1
      vertex 70 1 25
      vertex 71.75 1 25
    endloop
  endfacet
  facet normal 0 1 0
    outer loop
      vertex 70 1 25
      vertex 71.75 1 1
      vertex 70 1 1
    endloop
  endfacet
  facet normal 0 1 -0
    outer loop
      vertex 86.5 1 1
      vertex 84.75 1 25
      vertex 86.5 1 25
    endloop
  endfacet
  facet normal 0 1 0
    outer loop
      vertex 84.75 1 25
      vertex 86.5 1 1
      vertex 84.75 1 1
    endloop
  endfacet
  facet normal 1 0 0
    outer loop
      vertex 71.75 1 25
      vertex 71.75 0.0273905 1
      vertex 71.75 1 1
    endloop
  endfacet
  facet normal 1 -0 0
    outer loop
      vertex 71.75 0 25
      vertex 71.75 0.0273905 1
      vertex 71.75 1 25
    endloop
  endfacet
  facet normal 1 0 0
    outer loop
      vertex 71.75 0.0273905 1
      vertex 71.75 0 25
      vertex 71.75 0 1
    endloop
  endfacet
  facet normal -1 0 0
    outer loop
      vertex 84.75 0.0273905 1
      vertex 84.75 1 25
      vertex 84.75 1 1
    endloop
  endfacet
  facet normal -1 0 0
    outer loop
      vertex 84.75 0 25
      vertex 84.75 0.0273905 1
      vertex 84.75 0 1
    endloop
  endfacet
  facet normal -1 0 0
    outer loop
      vertex 84.75 0.0273905 1
      vertex 84.75 0 25
      vertex 84.75 1 25
    endloop
  endfacet
  facet normal 0.866026 0.499999 0
    outer loop
      vertex 58.3855 73.0674 25
      vertex 57.3402 74.8779 24
      vertex 57.3402 74.8779 25
    endloop
  endfacet
  facet normal 0.866026 0.499999 0
    outer loop
      vertex 57.3402 74.8779 24
      vertex 58.3855 73.0674 25
      vertex 58.3855 73.0674 24
    endloop
  endfacet
  facet normal 0.743145 0.669131 0
    outer loop
      vertex 57.3402 74.8779 25
      vertex 55.9413 76.4314 24
      vertex 55.9413 76.4314 25
    endloop
  endfacet
  facet normal 0.743145 0.669131 0
    outer loop
      vertex 55.9413 76.4314 24
      vertex 57.3402 74.8779 25
      vertex 57.3402 74.8779 24
    endloop
  endfacet
  facet normal -0.406737 0.913545 0
    outer loop
      vertex 46.1598 78.5106 24
      vertex 44.25 77.6603 25
      vertex 46.1598 78.5106 25
    endloop
  endfacet
  facet normal -0.406737 0.913545 0
    outer loop
      vertex 44.25 77.6603 25
      vertex 46.1598 78.5106 24
      vertex 44.25 77.6603 24
    endloop
  endfacet
  facet normal 0.951056 0.309017 0
    outer loop
      vertex 59.0315 71.0791 25
      vertex 58.3855 73.0674 24
      vertex 58.3855 73.0674 25
    endloop
  endfacet
  facet normal 0.951056 0.309017 0
    outer loop
      vertex 58.3855 73.0674 24
      vertex 59.0315 71.0791 25
      vertex 59.0315 71.0791 24
    endloop
  endfacet
  facet normal 0.587785 0.809017 -0
    outer loop
      vertex 55.9413 76.4314 24
      vertex 54.25 77.6603 25
      vertex 55.9413 76.4314 25
    endloop
  endfacet
  facet normal 0.587785 0.809017 0
    outer loop
      vertex 54.25 77.6603 25
      vertex 55.9413 76.4314 24
      vertex 54.25 77.6603 24
    endloop
  endfacet
  facet normal 0 1 -0
    outer loop
      vertex 50.2953 78.9452 24
      vertex 48.2047 78.9452 25
      vertex 50.2953 78.9452 25
    endloop
  endfacet
  facet normal 0 1 0
    outer loop
      vertex 48.2047 78.9452 25
      vertex 50.2953 78.9452 24
      vertex 48.2047 78.9452 24
    endloop
  endfacet
  facet normal 0.406737 0.913545 -0
    outer loop
      vertex 54.25 77.6603 24
      vertex 52.3402 78.5106 25
      vertex 54.25 77.6603 25
    endloop
  endfacet
  facet normal 0.406737 0.913545 0
    outer loop
      vertex 52.3402 78.5106 25
      vertex 54.25 77.6603 24
      vertex 52.3402 78.5106 24
    endloop
  endfacet
  facet normal -0.994522 0.104529 0
    outer loop
      vertex 39.25 69 24
      vertex 39.4685 71.0791 25
      vertex 39.4685 71.0791 24
    endloop
  endfacet
  facet normal -0.994522 0.104529 0
    outer loop
      vertex 39.4685 71.0791 25
      vertex 39.25 69 24
      vertex 39.25 69 25
    endloop
  endfacet
  facet normal -0.866026 0.499999 0
    outer loop
      vertex 40.1145 73.0674 24
      vertex 41.1598 74.8779 25
      vertex 41.1598 74.8779 24
    endloop
  endfacet
  facet normal -0.866026 0.499999 0
    outer loop
      vertex 41.1598 74.8779 25
      vertex 40.1145 73.0674 24
      vertex 40.1145 73.0674 25
    endloop
  endfacet
  facet normal -0.587785 0.809017 0
    outer loop
      vertex 44.25 77.6603 24
      vertex 42.5587 76.4314 25
      vertex 44.25 77.6603 25
    endloop
  endfacet
  facet normal -0.587785 0.809017 0
    outer loop
      vertex 42.5587 76.4314 25
      vertex 44.25 77.6603 24
      vertex 42.5587 76.4314 24
    endloop
  endfacet
  facet normal -0.207912 0.978148 0
    outer loop
      vertex 48.2047 78.9452 24
      vertex 46.1598 78.5106 25
      vertex 48.2047 78.9452 25
    endloop
  endfacet
  facet normal -0.207912 0.978148 0
    outer loop
      vertex 46.1598 78.5106 25
      vertex 48.2047 78.9452 24
      vertex 46.1598 78.5106 24
    endloop
  endfacet
  facet normal -0.743145 0.669131 0
    outer loop
      vertex 41.1598 74.8779 24
      vertex 42.5587 76.4314 25
      vertex 42.5587 76.4314 24
    endloop
  endfacet
  facet normal -0.743145 0.669131 0
    outer loop
      vertex 42.5587 76.4314 25
      vertex 41.1598 74.8779 24
      vertex 41.1598 74.8779 25
    endloop
  endfacet
  facet normal 0.994522 0.104529 0
    outer loop
      vertex 59.25 69 25
      vertex 59.0315 71.0791 24
      vertex 59.0315 71.0791 25
    endloop
  endfacet
  facet normal 0.994522 0.104529 0
    outer loop
      vertex 59.0315 71.0791 24
      vertex 59.25 69 25
      vertex 59.25 69 24
    endloop
  endfacet
  facet normal 0.207912 0.978148 -0
    outer loop
      vertex 52.3402 78.5106 24
      vertex 50.2953 78.9452 25
      vertex 52.3402 78.5106 25
    endloop
  endfacet
  facet normal 0.207912 0.978148 0
    outer loop
      vertex 50.2953 78.9452 25
      vertex 52.3402 78.5106 24
      vertex 50.2953 78.9452 24
    endloop
  endfacet
  facet normal 0 0 1
    outer loop
      vertex 55.4612 70.9159 25
      vertex 59.0315 71.0791 25
      vertex 58.3855 73.0674 25
    endloop
  endfacet
  facet normal 0 0 1
    outer loop
      vertex 54.6206 72.6616 25
      vertex 58.3855 73.0674 25
      vertex 57.3402 74.8779 25
    endloop
  endfacet
  facet normal 0 0 1
    outer loop
      vertex 54.6206 72.6616 25
      vertex 57.3402 74.8779 25
      vertex 55.9413 76.4314 25
    endloop
  endfacet
  facet normal 0 -0 1
    outer loop
      vertex 55.75 69 25
      vertex 59.0315 71.0791 25
      vertex 55.4612 70.9159 25
    endloop
  endfacet
  facet normal 0 0 1
    outer loop
      vertex 59.0315 71.0791 25
      vertex 55.75 69 25
      vertex 59.25 69 25
    endloop
  endfacet
  facet normal 0 0 1
    outer loop
      vertex 58.3855 73.0674 25
      vertex 54.6206 72.6616 25
      vertex 55.4612 70.9159 25
    endloop
  endfacet
  facet normal 0 0 1
    outer loop
      vertex 53.3027 74.0819 25
      vertex 55.9413 76.4314 25
      vertex 54.25 77.6603 25
    endloop
  endfacet
  facet normal 0 0 1
    outer loop
      vertex 55.9413 76.4314 25
      vertex 53.3027 74.0819 25
      vertex 54.6206 72.6616 25
    endloop
  endfacet
  facet normal 0 0 1
    outer loop
      vertex 51.6247 75.0507 25
      vertex 54.25 77.6603 25
      vertex 52.3402 78.5106 25
    endloop
  endfacet
  facet normal 0 0 1
    outer loop
      vertex 54.25 77.6603 25
      vertex 51.6247 75.0507 25
      vertex 53.3027 74.0819 25
    endloop
  endfacet
  facet normal 0 0 1
    outer loop
      vertex 49.7357 75.4818 25
      vertex 52.3402 78.5106 25
      vertex 50.2953 78.9452 25
    endloop
  endfacet
  facet normal 0 0 1
    outer loop
      vertex 52.3402 78.5106 25
      vertex 49.7357 75.4818 25
      vertex 51.6247 75.0507 25
    endloop
  endfacet
  facet normal -0 0 1
    outer loop
      vertex 48.2047 78.9452 25
      vertex 49.7357 75.4818 25
      vertex 50.2953 78.9452 25
    endloop
  endfacet
  facet normal 0 0 1
    outer loop
      vertex 48.2047 78.9452 25
      vertex 47.8036 75.337 25
      vertex 49.7357 75.4818 25
    endloop
  endfacet
  facet normal -0 0 1
    outer loop
      vertex 46.1598 78.5106 25
      vertex 47.8036 75.337 25
      vertex 48.2047 78.9452 25
    endloop
  endfacet
  facet normal 0 0 1
    outer loop
      vertex 46.1598 78.5106 25
      vertex 46 74.6292 25
      vertex 47.8036 75.337 25
    endloop
  endfacet
  facet normal -0 0 1
    outer loop
      vertex 44.25 77.6603 25
      vertex 46 74.6292 25
      vertex 46.1598 78.5106 25
    endloop
  endfacet
  facet normal -0 0 1
    outer loop
      vertex 42.5587 76.4314 25
      vertex 46 74.6292 25
      vertex 44.25 77.6603 25
    endloop
  endfacet
  facet normal 0 0 1
    outer loop
      vertex 46 74.6292 25
      vertex 42.5587 76.4314 25
      vertex 44.4852 73.4211 25
    endloop
  endfacet
  facet normal -0 0 1
    outer loop
      vertex 41.1598 74.8779 25
      vertex 44.4852 73.4211 25
      vertex 42.5587 76.4314 25
    endloop
  endfacet
  facet normal 0 0 1
    outer loop
      vertex 44.4852 73.4211 25
      vertex 41.1598 74.8779 25
      vertex 43.3937 71.8202 25
    endloop
  endfacet
  facet normal -0 0 1
    outer loop
      vertex 40.1145 73.0674 25
      vertex 43.3937 71.8202 25
      vertex 41.1598 74.8779 25
    endloop
  endfacet
  facet normal 0 0 1
    outer loop
      vertex 39.4685 71.0791 25
      vertex 43.3937 71.8202 25
      vertex 40.1145 73.0674 25
    endloop
  endfacet
  facet normal 0 0 1
    outer loop
      vertex 43.3937 71.8202 25
      vertex 39.4685 71.0791 25
      vertex 42.8226 69.9688 25
    endloop
  endfacet
  facet normal 0 0 1
    outer loop
      vertex 39.25 69 25
      vertex 42.8226 69.9688 25
      vertex 39.4685 71.0791 25
    endloop
  endfacet
  facet normal 0 0 1
    outer loop
      vertex 42.8226 69.9688 25
      vertex 39.25 69 25
      vertex 42.8226 69 25
    endloop
  endfacet
  facet normal -0.951056 0.309017 0
    outer loop
      vertex 39.4685 71.0791 24
      vertex 40.1145 73.0674 25
      vertex 40.1145 73.0674 24
    endloop
  endfacet
  facet normal -0.951056 0.309017 0
    outer loop
      vertex 40.1145 73.0674 25
      vertex 39.4685 71.0791 24
      vertex 39.4685 71.0791 25
    endloop
  endfacet
  facet normal 0 0 -1
    outer loop
      vertex 39.25 69 24
      vertex 42.8226 69.9688 24
      vertex 42.8226 69 24
    endloop
  endfacet
  facet normal 0 0 -1
    outer loop
      vertex 42.8226 69.9688 24
      vertex 41.1598 74.8779 24
      vertex 42.5587 76.4314 24
    endloop
  endfacet
  facet normal 0 0 -1
    outer loop
      vertex 42.8226 69.9688 24
      vertex 40.1145 73.0674 24
      vertex 41.1598 74.8779 24
    endloop
  endfacet
  facet normal 0 0 -1
    outer loop
      vertex 42.8226 69.9688 24
      vertex 39.4685 71.0791 24
      vertex 40.1145 73.0674 24
    endloop
  endfacet
  facet normal -0 0 -1
    outer loop
      vertex 42.8226 69.9688 24
      vertex 39.25 69 24
      vertex 39.4685 71.0791 24
    endloop
  endfacet
  facet normal 0 0 -1
    outer loop
      vertex 55.75 69 24
      vertex 59.0315 71.0791 24
      vertex 59.25 69 24
    endloop
  endfacet
  facet normal -0 0 -1
    outer loop
      vertex 59.0315 71.0791 24
      vertex 55.4612 70.9159 24
      vertex 58.3855 73.0674 24
    endloop
  endfacet
  facet normal 0 0 -1
    outer loop
      vertex 54.6206 72.6616 24
      vertex 58.3855 73.0674 24
      vertex 55.4612 70.9159 24
    endloop
  endfacet
  facet normal 0 0 -1
    outer loop
      vertex 59.0315 71.0791 24
      vertex 55.75 69 24
      vertex 55.4612 70.9159 24
    endloop
  endfacet
  facet normal -0 0 -1
    outer loop
      vertex 58.3855 73.0674 24
      vertex 54.6206 72.6616 24
      vertex 57.3402 74.8779 24
    endloop
  endfacet
  facet normal -0 0 -1
    outer loop
      vertex 57.3402 74.8779 24
      vertex 54.6206 72.6616 24
      vertex 55.9413 76.4314 24
    endloop
  endfacet
  facet normal 0 0 -1
    outer loop
      vertex 53.3027 74.0819 24
      vertex 55.9413 76.4314 24
      vertex 54.6206 72.6616 24
    endloop
  endfacet
  facet normal -0 0 -1
    outer loop
      vertex 55.9413 76.4314 24
      vertex 53.3027 74.0819 24
      vertex 54.25 77.6603 24
    endloop
  endfacet
  facet normal 0 0 -1
    outer loop
      vertex 51.6247 75.0507 24
      vertex 54.25 77.6603 24
      vertex 53.3027 74.0819 24
    endloop
  endfacet
  facet normal -0 0 -1
    outer loop
      vertex 54.25 77.6603 24
      vertex 51.6247 75.0507 24
      vertex 52.3402 78.5106 24
    endloop
  endfacet
  facet normal 0 0 -1
    outer loop
      vertex 49.7357 75.4818 24
      vertex 52.3402 78.5106 24
      vertex 51.6247 75.0507 24
    endloop
  endfacet
  facet normal -0 0 -1
    outer loop
      vertex 52.3402 78.5106 24
      vertex 49.7357 75.4818 24
      vertex 50.2953 78.9452 24
    endloop
  endfacet
  facet normal 0 0 -1
    outer loop
      vertex 49.7357 75.4818 24
      vertex 48.2047 78.9452 24
      vertex 50.2953 78.9452 24
    endloop
  endfacet
  facet normal 0 0 -1
    outer loop
      vertex 47.8036 75.337 24
      vertex 48.2047 78.9452 24
      vertex 49.7357 75.4818 24
    endloop
  endfacet
  facet normal 0 0 -1
    outer loop
      vertex 47.8036 75.337 24
      vertex 46.1598 78.5106 24
      vertex 48.2047 78.9452 24
    endloop
  endfacet
  facet normal 0 0 -1
    outer loop
      vertex 46 74.6292 24
      vertex 46.1598 78.5106 24
      vertex 47.8036 75.337 24
    endloop
  endfacet
  facet normal 0 0 -1
    outer loop
      vertex 42.5587 76.4314 24
      vertex 46 74.6292 24
      vertex 44.4852 73.4211 24
    endloop
  endfacet
  facet normal 0 0 -1
    outer loop
      vertex 46 74.6292 24
      vertex 44.25 77.6603 24
      vertex 46.1598 78.5106 24
    endloop
  endfacet
  facet normal 0 0 -1
    outer loop
      vertex 42.5587 76.4314 24
      vertex 44.4852 73.4211 24
      vertex 43.3937 71.8202 24
    endloop
  endfacet
  facet normal 0 0 -1
    outer loop
      vertex 42.5587 76.4314 24
      vertex 43.3937 71.8202 24
      vertex 42.8226 69.9688 24
    endloop
  endfacet
  facet normal 0 0 -1
    outer loop
      vertex 46 74.6292 24
      vertex 42.5587 76.4314 24
      vertex 44.25 77.6603 24
    endloop
  endfacet
  facet normal -0.988831 -0.149042 0
    outer loop
      vertex 55.75 69 24
      vertex 55.4612 70.9159 25
      vertex 55.4612 70.9159 24
    endloop
  endfacet
  facet normal -0.988831 -0.149042 0
    outer loop
      vertex 55.4612 70.9159 25
      vertex 55.75 69 24
      vertex 55.75 69 25
    endloop
  endfacet
  facet normal 1 -0 0
    outer loop
      vertex 42.8226 69 25
      vertex 42.8226 69.9688 24
      vertex 42.8226 69.9688 25
    endloop
  endfacet
  facet normal 1 0 0
    outer loop
      vertex 42.8226 69.9688 24
      vertex 42.8226 69 25
      vertex 42.8226 69 24
    endloop
  endfacet
  facet normal -0.73305 -0.680175 0
    outer loop
      vertex 54.6206 72.6616 24
      vertex 53.3027 74.0819 25
      vertex 53.3027 74.0819 24
    endloop
  endfacet
  facet normal -0.73305 -0.680175 0
    outer loop
      vertex 53.3027 74.0819 25
      vertex 54.6206 72.6616 24
      vertex 54.6206 72.6616 25
    endloop
  endfacet
  facet normal -0.900969 -0.433883 0
    outer loop
      vertex 55.4612 70.9159 24
      vertex 54.6206 72.6616 25
      vertex 54.6206 72.6616 24
    endloop
  endfacet
  facet normal -0.900969 -0.433883 0
    outer loop
      vertex 54.6206 72.6616 25
      vertex 55.4612 70.9159 24
      vertex 55.4612 70.9159 25
    endloop
  endfacet
  facet normal 0.623491 -0.78183 0
    outer loop
      vertex 44.4852 73.4211 24
      vertex 46 74.6292 25
      vertex 44.4852 73.4211 25
    endloop
  endfacet
  facet normal 0.623491 -0.78183 0
    outer loop
      vertex 46 74.6292 25
      vertex 44.4852 73.4211 24
      vertex 46 74.6292 24
    endloop
  endfacet
  facet normal 0.955573 -0.294755 0
    outer loop
      vertex 42.8226 69.9688 25
      vertex 43.3937 71.8202 24
      vertex 43.3937 71.8202 25
    endloop
  endfacet
  facet normal 0.955573 -0.294755 0
    outer loop
      vertex 43.3937 71.8202 24
      vertex 42.8226 69.9688 25
      vertex 42.8226 69.9688 24
    endloop
  endfacet
  facet normal 0.826238 -0.563321 0
    outer loop
      vertex 43.3937 71.8202 25
      vertex 44.4852 73.4211 24
      vertex 44.4852 73.4211 25
    endloop
  endfacet
  facet normal 0.826238 -0.563321 0
    outer loop
      vertex 44.4852 73.4211 24
      vertex 43.3937 71.8202 25
      vertex 43.3937 71.8202 24
    endloop
  endfacet
  facet normal 0.0747328 -0.997204 0
    outer loop
      vertex 47.8036 75.337 24
      vertex 49.7357 75.4818 25
      vertex 47.8036 75.337 25
    endloop
  endfacet
  facet normal 0.0747328 -0.997204 0
    outer loop
      vertex 49.7357 75.4818 25
      vertex 47.8036 75.337 24
      vertex 49.7357 75.4818 24
    endloop
  endfacet
  facet normal -0.500003 -0.866024 0
    outer loop
      vertex 51.6247 75.0507 24
      vertex 53.3027 74.0819 25
      vertex 51.6247 75.0507 25
    endloop
  endfacet
  facet normal -0.500003 -0.866024 -0
    outer loop
      vertex 53.3027 74.0819 25
      vertex 51.6247 75.0507 24
      vertex 53.3027 74.0819 24
    endloop
  endfacet
  facet normal 0.365339 -0.930874 0
    outer loop
      vertex 46 74.6292 24
      vertex 47.8036 75.337 25
      vertex 46 74.6292 25
    endloop
  endfacet
  facet normal 0.365339 -0.930874 0
    outer loop
      vertex 47.8036 75.337 25
      vertex 46 74.6292 24
      vertex 47.8036 75.337 24
    endloop
  endfacet
  facet normal -0.22252 -0.974928 0
    outer loop
      vertex 49.7357 75.4818 24
      vertex 51.6247 75.0507 25
      vertex 49.7357 75.4818 25
    endloop
  endfacet
  facet normal -0.22252 -0.974928 -0
    outer loop
      vertex 51.6247 75.0507 25
      vertex 49.7357 75.4818 24
      vertex 51.6247 75.0507 24
    endloop
  endfacet
  facet normal 0 -1 0
    outer loop
      vertex 55.75 69 24
      vertex 59.25 69 25
      vertex 55.75 69 25
    endloop
  endfacet
  facet normal 0 -1 -0
    outer loop
      vertex 59.25 69 25
      vertex 55.75 69 24
      vertex 59.25 69 24
    endloop
  endfacet
  facet normal 0 -1 0
    outer loop
      vertex 39.25 69 24
      vertex 42.8226 69 25
      vertex 39.25 69 25
    endloop
  endfacet
  facet normal 0 -1 -0
    outer loop
      vertex 42.8226 69 25
      vertex 39.25 69 24
      vertex 42.8226 69 24
    endloop
  endfacet
endsolid OpenSCAD_Model
