solid OpenSCAD_Model
  facet normal 0.838671 0.544639 0
    outer loop
      vertex 2.39542 11 9
      vertex 2.29779 11.1503 0
      vertex 2.29779 11.1503 9
    endloop
  endfacet
  facet normal 0.838671 0.544639 0
    outer loop
      vertex 2.29779 11.1503 0
      vertex 2.39542 11 9
      vertex 2.39542 11 0
    endloop
  endfacet
  facet normal 0 0 1
    outer loop
      vertex 32.4222 6.79 9
      vertex 29.4222 11.9862 9
      vertex 32.4184 6.7878 9
    endloop
  endfacet
  facet normal -0 0 1
    outer loop
      vertex 29.3 11.9156 9
      vertex 32.4184 6.7878 9
      vertex 29.4222 11.9862 9
    endloop
  endfacet
  facet normal 0 0 1
    outer loop
      vertex 32.4184 6.7878 9
      vertex 28.0094 -0.00711193 9
      vertex 32.4209 6.78612 9
    endloop
  endfacet
  facet normal -0 0 1
    outer loop
      vertex 27.3 11 9
      vertex 32.4184 6.7878 9
      vertex 29.3 11.9156 9
    endloop
  endfacet
  facet normal -0 0 1
    outer loop
      vertex -1.3 11.9384 9
      vertex 0.7 11 9
      vertex 0.7 12 9
    endloop
  endfacet
  facet normal 0 0 1
    outer loop
      vertex -1.3 11.9384 9
      vertex 0.7 12 9
      vertex -1.3 12 9
    endloop
  endfacet
  facet normal 0 0 1
    outer loop
      vertex 0.7 11 9
      vertex -1.3 11.9384 9
      vertex -4.39931 6.8012 9
    endloop
  endfacet
  facet normal 0 0 1
    outer loop
      vertex -4.39931 6.8012 9
      vertex -1.3 11.9384 9
      vertex -1.4 11.9962 9
    endloop
  endfacet
  facet normal 0 0 1
    outer loop
      vertex 0.7 11 9
      vertex -4.39931 6.8012 9
      vertex 0 0 9
    endloop
  endfacet
  facet normal 0 0 1
    outer loop
      vertex 0 0 9
      vertex -4.39931 6.8012 9
      vertex -4.41158 6.79323 9
    endloop
  endfacet
  facet normal -0 0 1
    outer loop
      vertex 27.3 12 9
      vertex 29.3 11.9156 9
      vertex 29.3 12 9
    endloop
  endfacet
  facet normal 0 0 1
    outer loop
      vertex 32.4184 6.7878 9
      vertex 27.9984 0 9
      vertex 28.0094 -0.00711193 9
    endloop
  endfacet
  facet normal 0 0 1
    outer loop
      vertex 29.3 11.9156 9
      vertex 27.3 12 9
      vertex 27.3 11 9
    endloop
  endfacet
  facet normal 0 0 1
    outer loop
      vertex 32.4184 6.7878 9
      vertex 27.3 11 9
      vertex 27.9984 0 9
    endloop
  endfacet
  facet normal -0 0 1
    outer loop
      vertex 25.9321 11 9
      vertex 27.9984 0 9
      vertex 27.3 11 9
    endloop
  endfacet
  facet normal 0 0 1
    outer loop
      vertex 25.6186 11 9
      vertex 25.9321 11 9
      vertex 25.7116 11.1432 9
    endloop
  endfacet
  facet normal 0 0 1
    outer loop
      vertex 25.9321 11 9
      vertex 25.6186 11 9
      vertex 27.9984 0 9
    endloop
  endfacet
  facet normal -0 0 1
    outer loop
      vertex 2.39542 11 9
      vertex 27.9984 0 9
      vertex 25.6186 11 9
    endloop
  endfacet
  facet normal 0 0 1
    outer loop
      vertex 2.06628 11 9
      vertex 2.39542 11 9
      vertex 2.29779 11.1503 9
    endloop
  endfacet
  facet normal 0 0 1
    outer loop
      vertex 0 0 9
      vertex 2.39542 11 9
      vertex 2.06628 11 9
    endloop
  endfacet
  facet normal 0 0 1
    outer loop
      vertex 0 0 9
      vertex 2.06628 11 9
      vertex 0.7 11 9
    endloop
  endfacet
  facet normal 0 0 1
    outer loop
      vertex 2.39542 11 9
      vertex 0 0 9
      vertex 27.9984 0 9
    endloop
  endfacet
  facet normal -0.544639 0.838671 0
    outer loop
      vertex 2.29779 11.1503 0
      vertex 2.06628 11 9
      vertex 2.29779 11.1503 9
    endloop
  endfacet
  facet normal -0.544639 0.838671 0
    outer loop
      vertex 2.06628 11 9
      vertex 2.29779 11.1503 0
      vertex 2.06628 11 0
    endloop
  endfacet
  facet normal -0.544632 0.838675 0
    outer loop
      vertex -4.39931 6.8012 6
      vertex -4.41158 6.79323 9
      vertex -4.39931 6.8012 9
    endloop
  endfacet
  facet normal -0.544632 0.838675 0
    outer loop
      vertex -4.41158 6.79323 9
      vertex -4.39931 6.8012 6
      vertex -4.41158 6.79323 6
    endloop
  endfacet
  facet normal -0.838671 -0.544639 0
    outer loop
      vertex -3.24704 5 0
      vertex 0 0 0
      vertex -3.24704 5 6
    endloop
  endfacet
  facet normal -0.838671 -0.544639 0
    outer loop
      vertex -3.24704 5 6
      vertex -4.41158 6.79323 9
      vertex -4.41158 6.79323 6
    endloop
  endfacet
  facet normal -0.838671 -0.544639 -0
    outer loop
      vertex 0 0 9
      vertex -3.24704 5 6
      vertex 0 0 0
    endloop
  endfacet
  facet normal -0.838671 -0.544639 1.08387e-08
    outer loop
      vertex -3.24704 5 6
      vertex 0 0 9
      vertex -4.41158 6.79323 9
    endloop
  endfacet
  facet normal 0 0 -1
    outer loop
      vertex -1.3 9 0
      vertex -1.4 11.9962 0
      vertex -1.3 11.9384 0
    endloop
  endfacet
  facet normal 0 -0 -1
    outer loop
      vertex -1.4 11.9962 0
      vertex -1.3 9 0
      vertex -3.12983 9 0
    endloop
  endfacet
  facet normal 0 0 -1
    outer loop
      vertex 28.0094 -0.00711193 0
      vertex 28 5 0
      vertex 31.261 5 0
    endloop
  endfacet
  facet normal 0 0 -1
    outer loop
      vertex 27.9984 0 0
      vertex 28 5 0
      vertex 28.0094 -0.00711193 0
    endloop
  endfacet
  facet normal 0 0 -1
    outer loop
      vertex 25 5 0
      vertex 28 5 0
      vertex 27.9984 0 0
    endloop
  endfacet
  facet normal 0 0 -1
    outer loop
      vertex 23 3.24601 0
      vertex 25 5 0
      vertex 23 1 0
    endloop
  endfacet
  facet normal 0 0 -1
    outer loop
      vertex 27.9984 0 0
      vertex 23 1 0
      vertex 25 5 0
    endloop
  endfacet
  facet normal 0 0 -1
    outer loop
      vertex 27.9984 0 0
      vertex 6 1 0
      vertex 23 1 0
    endloop
  endfacet
  facet normal 0 0 -1
    outer loop
      vertex 6 1 0
      vertex 4 5 0
      vertex 6 6 0
    endloop
  endfacet
  facet normal 0 0 -1
    outer loop
      vertex 0 0 0
      vertex 6 1 0
      vertex 27.9984 0 0
    endloop
  endfacet
  facet normal 0 0 -1
    outer loop
      vertex 0 0 0
      vertex 4 5 0
      vertex 6 1 0
    endloop
  endfacet
  facet normal -0 0 -1
    outer loop
      vertex 4 5 0
      vertex 0 0 0
      vertex -3.24704 5 0
    endloop
  endfacet
  facet normal 0 0 -1
    outer loop
      vertex 27.3 9 0
      vertex 25.9321 11 0
      vertex 27.3 11 0
    endloop
  endfacet
  facet normal 0 0 -1
    outer loop
      vertex 25 9 0
      vertex 25.9321 11 0
      vertex 27.3 9 0
    endloop
  endfacet
  facet normal 0 0 -1
    outer loop
      vertex 25.9321 11 0
      vertex 25.6186 11 0
      vertex 25.7116 11.1432 0
    endloop
  endfacet
  facet normal -0 0 -1
    outer loop
      vertex 25.9321 11 0
      vertex 25 9 0
      vertex 25.6186 11 0
    endloop
  endfacet
  facet normal 0 0 -1
    outer loop
      vertex 23 6 0
      vertex 25 5 0
      vertex 23 3.24601 0
    endloop
  endfacet
  facet normal 0 0 -1
    outer loop
      vertex 25 5 0
      vertex 23 6 0
      vertex 25 9 0
    endloop
  endfacet
  facet normal 0 0 -1
    outer loop
      vertex 22.3715 6 0
      vertex 25 9 0
      vertex 23 6 0
    endloop
  endfacet
  facet normal 0 0 -1
    outer loop
      vertex 19.1194 10.0866 0
      vertex 25 9 0
      vertex 22.3715 6 0
    endloop
  endfacet
  facet normal 0 -0 -1
    outer loop
      vertex 19.3011 11 0
      vertex 25 9 0
      vertex 19.1194 10.0866 0
    endloop
  endfacet
  facet normal 0 0 -1
    outer loop
      vertex 25 9 0
      vertex 19.3011 11 0
      vertex 25.6186 11 0
    endloop
  endfacet
  facet normal 0 0 -1
    outer loop
      vertex 22.3715 6 0
      vertex 18.0355 8.46447 0
      vertex 19.1194 10.0866 0
    endloop
  endfacet
  facet normal 0 0 -1
    outer loop
      vertex 22.3715 6 0
      vertex 16.4134 7.3806 0
      vertex 18.0355 8.46447 0
    endloop
  endfacet
  facet normal 0 0 -1
    outer loop
      vertex 22.3715 6 0
      vertex 14.5 7 0
      vertex 16.4134 7.3806 0
    endloop
  endfacet
  facet normal 0 0 -1
    outer loop
      vertex 6 6 0
      vertex 14.5 7 0
      vertex 22.3715 6 0
    endloop
  endfacet
  facet normal 0 0 -1
    outer loop
      vertex 6 6 0
      vertex 12.5866 7.3806 0
      vertex 14.5 7 0
    endloop
  endfacet
  facet normal 0 0 -1
    outer loop
      vertex 6 6 0
      vertex 10.9645 8.46447 0
      vertex 12.5866 7.3806 0
    endloop
  endfacet
  facet normal 0 0 -1
    outer loop
      vertex 6 6 0
      vertex 9.8806 10.0866 0
      vertex 10.9645 8.46447 0
    endloop
  endfacet
  facet normal 0 0 -1
    outer loop
      vertex 4 9 0
      vertex 9.8806 10.0866 0
      vertex 6 6 0
    endloop
  endfacet
  facet normal 0 0 -1
    outer loop
      vertex 4 9 0
      vertex 6 6 0
      vertex 4 5 0
    endloop
  endfacet
  facet normal -0 0 -1
    outer loop
      vertex 9.8806 10.0866 0
      vertex 4 9 0
      vertex 9.69891 11 0
    endloop
  endfacet
  facet normal 0 0 -1
    outer loop
      vertex 4 9 0
      vertex 2.39542 11 0
      vertex 9.69891 11 0
    endloop
  endfacet
  facet normal 0 0 -1
    outer loop
      vertex 2.39542 11 0
      vertex 2.06628 11 0
      vertex 2.29779 11.1503 0
    endloop
  endfacet
  facet normal 0 0 -1
    outer loop
      vertex 0.7 9 0
      vertex 2.39542 11 0
      vertex 4 9 0
    endloop
  endfacet
  facet normal -0 0 -1
    outer loop
      vertex 2.39542 11 0
      vertex 0.7 9 0
      vertex 2.06628 11 0
    endloop
  endfacet
  facet normal 0 0 -1
    outer loop
      vertex 0.7 9 0
      vertex 0.7 11 0
      vertex 2.06628 11 0
    endloop
  endfacet
  facet normal 0 0 -1
    outer loop
      vertex -1.3 9 0
      vertex 0.7 11 0
      vertex 0.7 9 0
    endloop
  endfacet
  facet normal -0 0 -1
    outer loop
      vertex 0.7 11 0
      vertex -1.3 9 0
      vertex -1.3 11.9384 0
    endloop
  endfacet
  facet normal 0 0 -1
    outer loop
      vertex 0.7 11 0
      vertex -1.3 11.9384 0
      vertex 0.7 12 0
    endloop
  endfacet
  facet normal -0 0 -1
    outer loop
      vertex 0.7 12 0
      vertex -1.3 11.9384 0
      vertex -1.3 12 0
    endloop
  endfacet
  facet normal 0 0 -1
    outer loop
      vertex 29.3 9 0
      vertex 29.4222 11.9862 0
      vertex 31.1462 9 0
    endloop
  endfacet
  facet normal 0 0 -1
    outer loop
      vertex 29.3 9 0
      vertex 29.3 11.9156 0
      vertex 29.4222 11.9862 0
    endloop
  endfacet
  facet normal 0 0 -1
    outer loop
      vertex 27.3 11 0
      vertex 29.3 11.9156 0
      vertex 29.3 9 0
    endloop
  endfacet
  facet normal 0 0 -1
    outer loop
      vertex 27.3 11 0
      vertex 29.3 9 0
      vertex 27.3 9 0
    endloop
  endfacet
  facet normal 0 0 -1
    outer loop
      vertex 27.3 12 0
      vertex 29.3 11.9156 0
      vertex 27.3 11 0
    endloop
  endfacet
  facet normal 0 0 -1
    outer loop
      vertex 29.3 11.9156 0
      vertex 27.3 12 0
      vertex 29.3 12 0
    endloop
  endfacet
  facet normal 1 -0 0
    outer loop
      vertex 6 1 6
      vertex 6 6 0
      vertex 6 6 6
    endloop
  endfacet
  facet normal 1 0 0
    outer loop
      vertex 6 6 0
      vertex 6 1 6
      vertex 6 1 0
    endloop
  endfacet
  facet normal 0 0 -1
    outer loop
      vertex 6 1 6
      vertex 23 3.24601 6
      vertex 23 1 6
    endloop
  endfacet
  facet normal 0 -0 -1
    outer loop
      vertex 22.3715 6 6
      vertex 23 3.24601 6
      vertex 6 1 6
    endloop
  endfacet
  facet normal 0 0 -1
    outer loop
      vertex 23 3.24601 6
      vertex 22.3715 6 6
      vertex 23 6 6
    endloop
  endfacet
  facet normal 0 0 -1
    outer loop
      vertex 6 6 6
      vertex 22.3715 6 6
      vertex 6 1 6
    endloop
  endfacet
  facet normal 0 0 -1
    outer loop
      vertex 4 5 6
      vertex 0.7 9 6
      vertex 4 9 6
    endloop
  endfacet
  facet normal 0 0 -1
    outer loop
      vertex -3.24704 5 6
      vertex 0.7 9 6
      vertex 4 5 6
    endloop
  endfacet
  facet normal -0 0 -1
    outer loop
      vertex 0.7 9 6
      vertex -3.24704 5 6
      vertex -1.3 9 6
    endloop
  endfacet
  facet normal 0 0 -1
    outer loop
      vertex -4.39931 6.8012 6
      vertex -1.3 9 6
      vertex -3.24704 5 6
    endloop
  endfacet
  facet normal -0 0 -1
    outer loop
      vertex -1.3 9 6
      vertex -4.39931 6.8012 6
      vertex -3.12983 9 6
    endloop
  endfacet
  facet normal 0 -0 -1
    outer loop
      vertex -4.39931 6.8012 6
      vertex -3.24704 5 6
      vertex -4.41158 6.79323 6
    endloop
  endfacet
  facet normal -1 0 0
    outer loop
      vertex 4 5 0
      vertex 4 9 6
      vertex 4 9 0
    endloop
  endfacet
  facet normal -1 -0 0
    outer loop
      vertex 4 9 6
      vertex 4 5 0
      vertex 4 5 6
    endloop
  endfacet
  facet normal 0 -1 0
    outer loop
      vertex -3.12983 9 0
      vertex -1.3 9 6
      vertex -3.12983 9 6
    endloop
  endfacet
  facet normal 0 -1 -0
    outer loop
      vertex -1.3 9 6
      vertex -3.12983 9 0
      vertex -1.3 9 0
    endloop
  endfacet
  facet normal 0 -1 0
    outer loop
      vertex -1.3 9 0
      vertex 0.7 9 6
      vertex -1.3 9 6
    endloop
  endfacet
  facet normal 0 -1 -0
    outer loop
      vertex 0.7 9 6
      vertex -1.3 9 0
      vertex 0.7 9 0
    endloop
  endfacet
  facet normal 0 -1 0
    outer loop
      vertex 0.7 9 0
      vertex 4 9 6
      vertex 0.7 9 6
    endloop
  endfacet
  facet normal 0 -1 -0
    outer loop
      vertex 4 9 6
      vertex 0.7 9 0
      vertex 4 9 0
    endloop
  endfacet
  facet normal 0 1 -0
    outer loop
      vertex 4 5 0
      vertex -3.24704 5 6
      vertex 4 5 6
    endloop
  endfacet
  facet normal 0 1 0
    outer loop
      vertex -3.24704 5 6
      vertex 4 5 0
      vertex -3.24704 5 0
    endloop
  endfacet
  facet normal -0.866025 0.5 0
    outer loop
      vertex -3.12983 9 6
      vertex -1.4 11.9962 0
      vertex -3.12983 9 0
    endloop
  endfacet
  facet normal -0.866025 0.5 0
    outer loop
      vertex -1.4 11.9962 0
      vertex -3.12983 9 6
      vertex -1.4 11.9962 9
    endloop
  endfacet
  facet normal -0.866025 0.5 0
    outer loop
      vertex -4.39931 6.8012 9
      vertex -3.12983 9 6
      vertex -4.39931 6.8012 6
    endloop
  endfacet
  facet normal -0.866025 0.5 2.12795e-08
    outer loop
      vertex -3.12983 9 6
      vertex -4.39931 6.8012 9
      vertex -1.4 11.9962 9
    endloop
  endfacet
  facet normal 0.500001 0.866025 -0
    outer loop
      vertex -1.3 11.9384 0
      vertex -1.4 11.9962 9
      vertex -1.3 11.9384 9
    endloop
  endfacet
  facet normal 0.500001 0.866025 0
    outer loop
      vertex -1.4 11.9962 9
      vertex -1.3 11.9384 0
      vertex -1.4 11.9962 0
    endloop
  endfacet
  facet normal 0 -1 0
    outer loop
      vertex 0 0 0
      vertex 27.9984 0 9
      vertex 0 0 9
    endloop
  endfacet
  facet normal 0 -1 -0
    outer loop
      vertex 27.9984 0 9
      vertex 0 0 0
      vertex 27.9984 0 0
    endloop
  endfacet
  facet normal 0 1 0
    outer loop
      vertex 9.69891 11 6
      vertex 25.6186 11 9
      vertex 19.3011 11 6
    endloop
  endfacet
  facet normal 0 1 -0
    outer loop
      vertex 25.6186 11 0
      vertex 19.3011 11 6
      vertex 25.6186 11 9
    endloop
  endfacet
  facet normal 0 1 0
    outer loop
      vertex 19.3011 11 6
      vertex 25.6186 11 0
      vertex 19.3011 11 0
    endloop
  endfacet
  facet normal 0 1 0
    outer loop
      vertex 25.6186 11 9
      vertex 9.69891 11 6
      vertex 2.39542 11 9
    endloop
  endfacet
  facet normal 0 1 0
    outer loop
      vertex 2.39542 11 0
      vertex 9.69891 11 6
      vertex 9.69891 11 0
    endloop
  endfacet
  facet normal 0 1 0
    outer loop
      vertex 9.69891 11 6
      vertex 2.39542 11 0
      vertex 2.39542 11 9
    endloop
  endfacet
  facet normal 0 1 -0
    outer loop
      vertex 2.06628 11 0
      vertex 0.7 11 9
      vertex 2.06628 11 9
    endloop
  endfacet
  facet normal 0 1 0
    outer loop
      vertex 0.7 11 9
      vertex 2.06628 11 0
      vertex 0.7 11 0
    endloop
  endfacet
  facet normal 0 1 -0
    outer loop
      vertex 27.3 11 0
      vertex 25.9321 11 9
      vertex 27.3 11 9
    endloop
  endfacet
  facet normal 0 1 0
    outer loop
      vertex 25.9321 11 9
      vertex 27.3 11 0
      vertex 25.9321 11 0
    endloop
  endfacet
  facet normal -1 0 0
    outer loop
      vertex 23 1 0
      vertex 23 3.24601 6
      vertex 23 3.24601 0
    endloop
  endfacet
  facet normal -1 -0 0
    outer loop
      vertex 23 3.24601 6
      vertex 23 1 0
      vertex 23 1 6
    endloop
  endfacet
  facet normal 0 1 -0
    outer loop
      vertex 23 1 0
      vertex 6 1 6
      vertex 23 1 6
    endloop
  endfacet
  facet normal 0 1 0
    outer loop
      vertex 6 1 6
      vertex 23 1 0
      vertex 6 1 0
    endloop
  endfacet
  facet normal 0 -1 0
    outer loop
      vertex 6 6 0
      vertex 22.3715 6 6
      vertex 6 6 6
    endloop
  endfacet
  facet normal 0 -1 -0
    outer loop
      vertex 22.3715 6 6
      vertex 6 6 0
      vertex 22.3715 6 0
    endloop
  endfacet
  facet normal 1 -0 0
    outer loop
      vertex 25 5 6
      vertex 25 9 0
      vertex 25 9 6
    endloop
  endfacet
  facet normal 1 0 0
    outer loop
      vertex 25 9 0
      vertex 25 5 6
      vertex 25 5 0
    endloop
  endfacet
  facet normal -0 0 -1
    outer loop
      vertex 32.4209 6.78612 6
      vertex 31.261 5 6
      vertex 32.4184 6.7878 6
    endloop
  endfacet
  facet normal 0 0 -1
    outer loop
      vertex 32.4184 6.7878 6
      vertex 31.1462 9 6
      vertex 32.4222 6.79 6
    endloop
  endfacet
  facet normal 0 0 -1
    outer loop
      vertex 29.3 9 6
      vertex 32.4184 6.7878 6
      vertex 31.261 5 6
    endloop
  endfacet
  facet normal 0 0 -1
    outer loop
      vertex 32.4184 6.7878 6
      vertex 29.3 9 6
      vertex 31.1462 9 6
    endloop
  endfacet
  facet normal 0 0 -1
    outer loop
      vertex 31.261 5 6
      vertex 28 5 6
      vertex 29.3 9 6
    endloop
  endfacet
  facet normal 0 0 -1
    outer loop
      vertex 28 5 6
      vertex 27.3 9 6
      vertex 29.3 9 6
    endloop
  endfacet
  facet normal 0 0 -1
    outer loop
      vertex 25 5 6
      vertex 27.3 9 6
      vertex 28 5 6
    endloop
  endfacet
  facet normal -0 0 -1
    outer loop
      vertex 27.3 9 6
      vertex 25 5 6
      vertex 25 9 6
    endloop
  endfacet
  facet normal 0 1 -0
    outer loop
      vertex 28 5 0
      vertex 25 5 6
      vertex 28 5 6
    endloop
  endfacet
  facet normal 0 1 0
    outer loop
      vertex 25 5 6
      vertex 28 5 0
      vertex 25 5 0
    endloop
  endfacet
  facet normal -0.19509 0.980785 0
    outer loop
      vertex 16.4134 7.3806 0
      vertex 14.5 7 6
      vertex 16.4134 7.3806 6
    endloop
  endfacet
  facet normal -0.19509 0.980785 0
    outer loop
      vertex 14.5 7 6
      vertex 16.4134 7.3806 0
      vertex 14.5 7 0
    endloop
  endfacet
  facet normal -0.55557 0.83147 0
    outer loop
      vertex 18.0355 8.46447 0
      vertex 16.4134 7.3806 6
      vertex 18.0355 8.46447 6
    endloop
  endfacet
  facet normal -0.55557 0.83147 0
    outer loop
      vertex 16.4134 7.3806 6
      vertex 18.0355 8.46447 0
      vertex 16.4134 7.3806 0
    endloop
  endfacet
  facet normal 0 0 -1
    outer loop
      vertex 18.0355 8.46447 6
      vertex 19.3011 11 6
      vertex 19.1194 10.0866 6
    endloop
  endfacet
  facet normal 0 0 -1
    outer loop
      vertex 16.4134 7.3806 6
      vertex 19.3011 11 6
      vertex 18.0355 8.46447 6
    endloop
  endfacet
  facet normal 0 0 -1
    outer loop
      vertex 14.5 7 6
      vertex 19.3011 11 6
      vertex 16.4134 7.3806 6
    endloop
  endfacet
  facet normal 0 0 -1
    outer loop
      vertex 12.5866 7.3806 6
      vertex 19.3011 11 6
      vertex 14.5 7 6
    endloop
  endfacet
  facet normal 0 0 -1
    outer loop
      vertex 9.69891 11 6
      vertex 12.5866 7.3806 6
      vertex 10.9645 8.46447 6
    endloop
  endfacet
  facet normal 0 0 -1
    outer loop
      vertex 9.69891 11 6
      vertex 10.9645 8.46447 6
      vertex 9.8806 10.0866 6
    endloop
  endfacet
  facet normal 0 0 -1
    outer loop
      vertex 12.5866 7.3806 6
      vertex 9.69891 11 6
      vertex 19.3011 11 6
    endloop
  endfacet
  facet normal -0.980785 0.195092 0
    outer loop
      vertex 19.1194 10.0866 0
      vertex 19.3011 11 6
      vertex 19.3011 11 0
    endloop
  endfacet
  facet normal -0.980785 0.195092 0
    outer loop
      vertex 19.3011 11 6
      vertex 19.1194 10.0866 0
      vertex 19.1194 10.0866 6
    endloop
  endfacet
  facet normal 0.19509 0.980785 -0
    outer loop
      vertex 14.5 7 0
      vertex 12.5866 7.3806 6
      vertex 14.5 7 6
    endloop
  endfacet
  facet normal 0.19509 0.980785 0
    outer loop
      vertex 12.5866 7.3806 6
      vertex 14.5 7 0
      vertex 12.5866 7.3806 0
    endloop
  endfacet
  facet normal 0.83147 0.55557 0
    outer loop
      vertex 10.9645 8.46447 6
      vertex 9.8806 10.0866 0
      vertex 9.8806 10.0866 6
    endloop
  endfacet
  facet normal 0.83147 0.55557 0
    outer loop
      vertex 9.8806 10.0866 0
      vertex 10.9645 8.46447 6
      vertex 10.9645 8.46447 0
    endloop
  endfacet
  facet normal 0.980785 0.19509 0
    outer loop
      vertex 9.8806 10.0866 6
      vertex 9.69891 11 0
      vertex 9.69891 11 6
    endloop
  endfacet
  facet normal 0.980785 0.19509 0
    outer loop
      vertex 9.69891 11 0
      vertex 9.8806 10.0866 6
      vertex 9.8806 10.0866 0
    endloop
  endfacet
  facet normal -0.83147 0.55557 0
    outer loop
      vertex 18.0355 8.46447 0
      vertex 19.1194 10.0866 6
      vertex 19.1194 10.0866 0
    endloop
  endfacet
  facet normal -0.83147 0.55557 0
    outer loop
      vertex 19.1194 10.0866 6
      vertex 18.0355 8.46447 0
      vertex 18.0355 8.46447 6
    endloop
  endfacet
  facet normal 0.55557 0.83147 -0
    outer loop
      vertex 12.5866 7.3806 0
      vertex 10.9645 8.46447 6
      vertex 12.5866 7.3806 6
    endloop
  endfacet
  facet normal 0.55557 0.83147 0
    outer loop
      vertex 10.9645 8.46447 6
      vertex 12.5866 7.3806 0
      vertex 10.9645 8.46447 0
    endloop
  endfacet
  facet normal 0.866025 0.5 0
    outer loop
      vertex 29.4222 11.9862 9
      vertex 31.1462 9 6
      vertex 29.4222 11.9862 0
    endloop
  endfacet
  facet normal 0.866025 0.5 1.31095e-07
    outer loop
      vertex 32.4222 6.79 9
      vertex 31.1462 9 6
      vertex 29.4222 11.9862 9
    endloop
  endfacet
  facet normal 0.866026 0.5 0
    outer loop
      vertex 31.1462 9 6
      vertex 32.4222 6.79 9
      vertex 32.4222 6.79 6
    endloop
  endfacet
  facet normal 0.866025 0.5 0
    outer loop
      vertex 29.4222 11.9862 0
      vertex 31.1462 9 6
      vertex 31.1462 9 0
    endloop
  endfacet
  facet normal 0.499966 -0.866045 0
    outer loop
      vertex 32.4184 6.7878 6
      vertex 32.4222 6.79 9
      vertex 32.4184 6.7878 9
    endloop
  endfacet
  facet normal 0.499966 -0.866045 0
    outer loop
      vertex 32.4222 6.79 9
      vertex 32.4184 6.7878 6
      vertex 32.4222 6.79 6
    endloop
  endfacet
  facet normal -0.500003 0.866024 0
    outer loop
      vertex 29.4222 11.9862 0
      vertex 29.3 11.9156 9
      vertex 29.4222 11.9862 9
    endloop
  endfacet
  facet normal -0.500003 0.866024 0
    outer loop
      vertex 29.3 11.9156 9
      vertex 29.4222 11.9862 0
      vertex 29.3 11.9156 0
    endloop
  endfacet
  facet normal 0 -1 0
    outer loop
      vertex 25 9 0
      vertex 27.3 9 6
      vertex 25 9 6
    endloop
  endfacet
  facet normal 0 -1 -0
    outer loop
      vertex 27.3 9 6
      vertex 25 9 0
      vertex 27.3 9 0
    endloop
  endfacet
  facet normal 0 -1 0
    outer loop
      vertex 29.3 9 0
      vertex 31.1462 9 6
      vertex 29.3 9 6
    endloop
  endfacet
  facet normal 0 -1 -0
    outer loop
      vertex 31.1462 9 6
      vertex 29.3 9 0
      vertex 31.1462 9 0
    endloop
  endfacet
  facet normal 0 -1 0
    outer loop
      vertex 27.3 9 0
      vertex 29.3 9 6
      vertex 27.3 9 6
    endloop
  endfacet
  facet normal 0 -1 -0
    outer loop
      vertex 29.3 9 6
      vertex 27.3 9 0
      vertex 29.3 9 0
    endloop
  endfacet
  facet normal 0 1 -0
    outer loop
      vertex 31.261 5 0
      vertex 28 5 6
      vertex 31.261 5 6
    endloop
  endfacet
  facet normal 0 1 0
    outer loop
      vertex 28 5 6
      vertex 31.261 5 0
      vertex 28 5 0
    endloop
  endfacet
  facet normal -0.838675 0.544632 0
    outer loop
      vertex 25.6186 11 0
      vertex 25.7116 11.1432 9
      vertex 25.7116 11.1432 0
    endloop
  endfacet
  facet normal -0.838675 0.544632 0
    outer loop
      vertex 25.7116 11.1432 9
      vertex 25.6186 11 0
      vertex 25.6186 11 9
    endloop
  endfacet
  facet normal 0.838671 -0.544639 0
    outer loop
      vertex 32.4209 6.78612 9
      vertex 31.261 5 6
      vertex 32.4209 6.78612 6
    endloop
  endfacet
  facet normal 0.83867 -0.544639 5.37761e-08
    outer loop
      vertex 28.0094 -0.00711193 9
      vertex 31.261 5 6
      vertex 32.4209 6.78612 9
    endloop
  endfacet
  facet normal 0.83867 -0.544639 0
    outer loop
      vertex 28.0094 -0.00711193 0
      vertex 31.261 5 6
      vertex 28.0094 -0.00711193 9
    endloop
  endfacet
  facet normal 0.83867 -0.544639 0
    outer loop
      vertex 31.261 5 6
      vertex 28.0094 -0.00711193 0
      vertex 31.261 5 0
    endloop
  endfacet
  facet normal -0.544685 -0.83864 0
    outer loop
      vertex 27.9984 0 0
      vertex 28.0094 -0.00711193 9
      vertex 27.9984 0 9
    endloop
  endfacet
  facet normal -0.544685 -0.83864 -0
    outer loop
      vertex 28.0094 -0.00711193 9
      vertex 27.9984 0 0
      vertex 28.0094 -0.00711193 0
    endloop
  endfacet
  facet normal 0.5444 0.838826 -0
    outer loop
      vertex 32.4209 6.78612 6
      vertex 32.4184 6.7878 9
      vertex 32.4209 6.78612 9
    endloop
  endfacet
  facet normal 0.5444 0.838826 0
    outer loop
      vertex 32.4184 6.7878 9
      vertex 32.4209 6.78612 6
      vertex 32.4184 6.7878 6
    endloop
  endfacet
  facet normal 0.54464 0.83867 -0
    outer loop
      vertex 25.9321 11 0
      vertex 25.7116 11.1432 9
      vertex 25.9321 11 9
    endloop
  endfacet
  facet normal 0.54464 0.83867 0
    outer loop
      vertex 25.7116 11.1432 9
      vertex 25.9321 11 0
      vertex 25.7116 11.1432 0
    endloop
  endfacet
  facet normal -1 0 0
    outer loop
      vertex 23 3.24601 0
      vertex 23 6 6
      vertex 23 6 0
    endloop
  endfacet
  facet normal -1 -0 0
    outer loop
      vertex 23 6 6
      vertex 23 3.24601 0
      vertex 23 3.24601 6
    endloop
  endfacet
  facet normal 0 -1 0
    outer loop
      vertex 22.3715 6 0
      vertex 23 6 6
      vertex 22.3715 6 6
    endloop
  endfacet
  facet normal 0 -1 -0
    outer loop
      vertex 23 6 6
      vertex 22.3715 6 0
      vertex 23 6 0
    endloop
  endfacet
  facet normal -1 0 0
    outer loop
      vertex 27.3 11 0
      vertex 27.3 12 9
      vertex 27.3 12 0
    endloop
  endfacet
  facet normal -1 -0 0
    outer loop
      vertex 27.3 12 9
      vertex 27.3 11 0
      vertex 27.3 11 9
    endloop
  endfacet
  facet normal 1 -0 0
    outer loop
      vertex 29.3 11.9156 9
      vertex 29.3 12 0
      vertex 29.3 12 9
    endloop
  endfacet
  facet normal 1 0 0
    outer loop
      vertex 29.3 12 0
      vertex 29.3 11.9156 9
      vertex 29.3 11.9156 0
    endloop
  endfacet
  facet normal 0 1 -0
    outer loop
      vertex 29.3 12 0
      vertex 27.3 12 9
      vertex 29.3 12 9
    endloop
  endfacet
  facet normal 0 1 0
    outer loop
      vertex 27.3 12 9
      vertex 29.3 12 0
      vertex 27.3 12 0
    endloop
  endfacet
  facet normal -1 0 0
    outer loop
      vertex -1.3 11.9384 0
      vertex -1.3 12 9
      vertex -1.3 12 0
    endloop
  endfacet
  facet normal -1 -0 0
    outer loop
      vertex -1.3 12 9
      vertex -1.3 11.9384 0
      vertex -1.3 11.9384 9
    endloop
  endfacet
  facet normal 1 -0 0
    outer loop
      vertex 0.7 11 9
      vertex 0.7 12 0
      vertex 0.7 12 9
    endloop
  endfacet
  facet normal 1 0 0
    outer loop
      vertex 0.7 12 0
      vertex 0.7 11 9
      vertex 0.7 11 0
    endloop
  endfacet
  facet normal 0 1 -0
    outer loop
      vertex 0.7 12 0
      vertex -1.3 12 9
      vertex 0.7 12 9
    endloop
  endfacet
  facet normal 0 1 0
    outer loop
      vertex -1.3 12 9
      vertex 0.7 12 0
      vertex -1.3 12 0
    endloop
  endfacet
endsolid OpenSCAD_Model
