solid OpenSCAD_Model
  facet normal -1 0 0
    outer loop
      vertex -3.5 2 4.44089e-16
      vertex -3.5 18 1
      vertex -3.5 18 3.9968e-15
    endloop
  endfacet
  facet normal -1 -0 0
    outer loop
      vertex -3.5 18 1
      vertex -3.5 2 4.44089e-16
      vertex -3.5 2 1
    endloop
  endfacet
  facet normal 0 1 -0
    outer loop
      vertex 35.5 18 3.9968e-15
      vertex -3.5 18 1
      vertex 35.5 18 1
    endloop
  endfacet
  facet normal 0 1 0
    outer loop
      vertex -3.5 18 1
      vertex 35.5 18 3.9968e-15
      vertex -3.5 18 3.9968e-15
    endloop
  endfacet
  facet normal 1 -0 0
    outer loop
      vertex 35.5 2 1
      vertex 35.5 18 3.9968e-15
      vertex 35.5 18 1
    endloop
  endfacet
  facet normal 1 0 0
    outer loop
      vertex 35.5 18 3.9968e-15
      vertex 35.5 2 1
      vertex 35.5 2 4.44089e-16
    endloop
  endfacet
  facet normal 0 -1 0
    outer loop
      vertex -3.5 2 4.44089e-16
      vertex 35.5 2 1
      vertex -3.5 2 1
    endloop
  endfacet
  facet normal 0 -1 -0
    outer loop
      vertex 35.5 2 1
      vertex -3.5 2 4.44089e-16
      vertex 35.5 2 4.44089e-16
    endloop
  endfacet
  facet normal 0 0 1
    outer loop
      vertex 35.5 18 1
      vertex 34.8 10.5 1
      vertex 35.5 2 1
    endloop
  endfacet
  facet normal 0 0 1
    outer loop
      vertex 35.5 18 1
      vertex 34.485 11.0456 1
      vertex 34.8 10.5 1
    endloop
  endfacet
  facet normal 0 0 1
    outer loop
      vertex 35.5 18 1
      vertex 33.9 12.0588 1
      vertex 34.485 11.0456 1
    endloop
  endfacet
  facet normal 0 0 1
    outer loop
      vertex 35.5 18 1
      vertex 32.1 12.0588 1
      vertex 33.9 12.0588 1
    endloop
  endfacet
  facet normal 0 0 1
    outer loop
      vertex -0.0999994 12.0588 1
      vertex 32.1 12.0588 1
      vertex 35.5 18 1
    endloop
  endfacet
  facet normal 0 0 1
    outer loop
      vertex 32.1 12.0588 1
      vertex -0.0999994 12.0588 1
      vertex 31.515 11.0456 1
    endloop
  endfacet
  facet normal 0 -0 1
    outer loop
      vertex 0.485 11.0456 1
      vertex 31.515 11.0456 1
      vertex -0.0999994 12.0588 1
    endloop
  endfacet
  facet normal 0 0 1
    outer loop
      vertex 31.2 10.5 1
      vertex 0.485 11.0456 1
      vertex 0.799999 10.5 1
    endloop
  endfacet
  facet normal 0 0 1
    outer loop
      vertex 31.515 11.0456 1
      vertex 0.485 11.0456 1
      vertex 31.2 10.5 1
    endloop
  endfacet
  facet normal -0 0 1
    outer loop
      vertex -3.5 18 1
      vertex -0.0999994 12.0588 1
      vertex 35.5 18 1
    endloop
  endfacet
  facet normal 0 0 1
    outer loop
      vertex -2.485 11.0456 1
      vertex -3.5 18 1
      vertex -2.8 10.5 1
    endloop
  endfacet
  facet normal 0 0 1
    outer loop
      vertex -1.9 12.0588 1
      vertex -3.5 18 1
      vertex -2.485 11.0456 1
    endloop
  endfacet
  facet normal 0 0 1
    outer loop
      vertex -0.0999994 12.0588 1
      vertex -3.5 18 1
      vertex -1.9 12.0588 1
    endloop
  endfacet
  facet normal -0 0 1
    outer loop
      vertex 34.215 9.48675 1
      vertex 35.5 2 1
      vertex 34.8 10.5 1
    endloop
  endfacet
  facet normal -0 0 1
    outer loop
      vertex 33.9 8.94115 1
      vertex 35.5 2 1
      vertex 34.215 9.48675 1
    endloop
  endfacet
  facet normal -0 0 1
    outer loop
      vertex 32.1 8.94115 1
      vertex 35.5 2 1
      vertex 33.9 8.94115 1
    endloop
  endfacet
  facet normal 0 0 1
    outer loop
      vertex -0.0999994 8.94115 1
      vertex 32.1 8.94115 1
      vertex 31.785 9.48675 1
    endloop
  endfacet
  facet normal 0 0 1
    outer loop
      vertex 0.215 9.48675 1
      vertex 31.785 9.48675 1
      vertex 31.2 10.5 1
    endloop
  endfacet
  facet normal 0 0 1
    outer loop
      vertex 0.215 9.48675 1
      vertex 31.2 10.5 1
      vertex 0.799999 10.5 1
    endloop
  endfacet
  facet normal 0 0 1
    outer loop
      vertex 31.785 9.48675 1
      vertex 0.215 9.48675 1
      vertex -0.0999994 8.94115 1
    endloop
  endfacet
  facet normal 0 0 1
    outer loop
      vertex 32.1 8.94115 1
      vertex -0.0999994 8.94115 1
      vertex 35.5 2 1
    endloop
  endfacet
  facet normal 0 0 1
    outer loop
      vertex -3.5 2 1
      vertex -0.0999994 8.94115 1
      vertex -1.9 8.94115 1
    endloop
  endfacet
  facet normal 0 0 1
    outer loop
      vertex -0.0999994 8.94115 1
      vertex -3.5 2 1
      vertex 35.5 2 1
    endloop
  endfacet
  facet normal 0 0 1
    outer loop
      vertex -2.215 9.48675 1
      vertex -3.5 2 1
      vertex -1.9 8.94115 1
    endloop
  endfacet
  facet normal 0 0 1
    outer loop
      vertex -2.8 10.5 1
      vertex -3.5 2 1
      vertex -2.215 9.48675 1
    endloop
  endfacet
  facet normal 0 0 1
    outer loop
      vertex -3.5 2 1
      vertex -2.8 10.5 1
      vertex -3.5 18 1
    endloop
  endfacet
  facet normal 0 2.22045e-16 -1
    outer loop
      vertex 35.5 2 4.44089e-16
      vertex 34.8 10.5 2.33147e-15
      vertex 35.5 18 3.9968e-15
    endloop
  endfacet
  facet normal 0 2.22045e-16 -1
    outer loop
      vertex 35.5 2 4.44089e-16
      vertex 34.125 9.33086 2.07187e-15
      vertex 34.8 10.5 2.33147e-15
    endloop
  endfacet
  facet normal 0 2.22045e-16 -1
    outer loop
      vertex 35.5 2 4.44089e-16
      vertex 33.9 8.94115 1.98533e-15
      vertex 34.125 9.33086 2.07187e-15
    endloop
  endfacet
  facet normal 0 2.22045e-16 -1
    outer loop
      vertex 35.5 2 4.44089e-16
      vertex 32.1 8.94115 1.98533e-15
      vertex 33.9 8.94115 1.98533e-15
    endloop
  endfacet
  facet normal 0 2.22045e-16 -1
    outer loop
      vertex -0.0999994 8.94115 1.98533e-15
      vertex 32.1 8.94115 1.98533e-15
      vertex 35.5 2 4.44089e-16
    endloop
  endfacet
  facet normal 0 2.22045e-16 -1
    outer loop
      vertex 32.1 8.94115 1.98533e-15
      vertex -0.0999994 8.94115 1.98533e-15
      vertex 31.875 9.33086 2.07187e-15
    endloop
  endfacet
  facet normal 0 2.22045e-16 -1
    outer loop
      vertex 0.125 9.33086 2.07187e-15
      vertex 31.875 9.33086 2.07187e-15
      vertex -0.0999994 8.94115 1.98533e-15
    endloop
  endfacet
  facet normal 0 2.22045e-16 -1
    outer loop
      vertex 31.2 10.5 2.33147e-15
      vertex 0.125 9.33086 2.07187e-15
      vertex 0.799999 10.5 2.33147e-15
    endloop
  endfacet
  facet normal 0 2.22045e-16 -1
    outer loop
      vertex 31.875 9.33086 2.07187e-15
      vertex 0.125 9.33086 2.07187e-15
      vertex 31.2 10.5 2.33147e-15
    endloop
  endfacet
  facet normal 0 2.22045e-16 -1
    outer loop
      vertex -3.5 2 4.44089e-16
      vertex -0.0999994 8.94115 1.98533e-15
      vertex 35.5 2 4.44089e-16
    endloop
  endfacet
  facet normal 0 2.22045e-16 -1
    outer loop
      vertex -2.125 9.33086 2.07187e-15
      vertex -3.5 2 4.44089e-16
      vertex -2.8 10.5 2.33147e-15
    endloop
  endfacet
  facet normal 0 2.22045e-16 -1
    outer loop
      vertex -1.9 8.94115 1.98533e-15
      vertex -3.5 2 4.44089e-16
      vertex -2.125 9.33086 2.07187e-15
    endloop
  endfacet
  facet normal 0 2.22045e-16 -1
    outer loop
      vertex -0.0999994 8.94115 1.98533e-15
      vertex -3.5 2 4.44089e-16
      vertex -1.9 8.94115 1.98533e-15
    endloop
  endfacet
  facet normal 0 2.22045e-16 -1
    outer loop
      vertex 34.575 10.8897 2.418e-15
      vertex 35.5 18 3.9968e-15
      vertex 34.8 10.5 2.33147e-15
    endloop
  endfacet
  facet normal 0 2.22045e-16 -1
    outer loop
      vertex 33.9 12.0588 2.6776e-15
      vertex 35.5 18 3.9968e-15
      vertex 34.575 10.8897 2.418e-15
    endloop
  endfacet
  facet normal 0 2.22045e-16 -1
    outer loop
      vertex 32.1 12.0588 2.6776e-15
      vertex 35.5 18 3.9968e-15
      vertex 33.9 12.0588 2.6776e-15
    endloop
  endfacet
  facet normal 0 2.22045e-16 -1
    outer loop
      vertex -0.0999994 12.0588 2.6776e-15
      vertex 32.1 12.0588 2.6776e-15
      vertex 31.425 10.8897 2.418e-15
    endloop
  endfacet
  facet normal 0 2.22045e-16 -1
    outer loop
      vertex 0.575 10.8897 2.418e-15
      vertex 31.425 10.8897 2.418e-15
      vertex 31.2 10.5 2.33147e-15
    endloop
  endfacet
  facet normal 0 2.22045e-16 -1
    outer loop
      vertex 0.575 10.8897 2.418e-15
      vertex 31.2 10.5 2.33147e-15
      vertex 0.799999 10.5 2.33147e-15
    endloop
  endfacet
  facet normal 0 2.22045e-16 -1
    outer loop
      vertex 31.425 10.8897 2.418e-15
      vertex 0.575 10.8897 2.418e-15
      vertex -0.0999994 12.0588 2.6776e-15
    endloop
  endfacet
  facet normal 0 2.22045e-16 -1
    outer loop
      vertex 32.1 12.0588 2.6776e-15
      vertex -0.0999994 12.0588 2.6776e-15
      vertex 35.5 18 3.9968e-15
    endloop
  endfacet
  facet normal 0 2.22045e-16 -1
    outer loop
      vertex -3.5 18 3.9968e-15
      vertex -0.0999994 12.0588 2.6776e-15
      vertex -1.9 12.0588 2.6776e-15
    endloop
  endfacet
  facet normal 0 2.22045e-16 -1
    outer loop
      vertex -3.5 18 3.9968e-15
      vertex -2.575 10.8897 2.418e-15
      vertex -2.8 10.5 2.33147e-15
    endloop
  endfacet
  facet normal 0 2.22045e-16 -1
    outer loop
      vertex -0.0999994 12.0588 2.6776e-15
      vertex -3.5 18 3.9968e-15
      vertex 35.5 18 3.9968e-15
    endloop
  endfacet
  facet normal 0 2.22045e-16 -1
    outer loop
      vertex -2.575 10.8897 2.418e-15
      vertex -3.5 18 3.9968e-15
      vertex -1.9 12.0588 2.6776e-15
    endloop
  endfacet
  facet normal 0 2.22045e-16 -1
    outer loop
      vertex -3.5 18 3.9968e-15
      vertex -2.8 10.5 2.33147e-15
      vertex -3.5 2 4.44089e-16
    endloop
  endfacet
  facet normal -0.866026 0.499999 0
    outer loop
      vertex -0.0999994 8.94115 1
      vertex 0.125 9.33086 2.07187e-15
      vertex -0.0999994 8.94115 1.98533e-15
    endloop
  endfacet
  facet normal -0.866026 0.499999 -5.15276e-08
    outer loop
      vertex 0.125 9.33086 2.07187e-15
      vertex -0.0999994 8.94115 1
      vertex 0.215 9.48675 1
    endloop
  endfacet
  facet normal -0.866026 0.499999 0
    outer loop
      vertex 0.799999 10.5 2.33147e-15
      vertex 0.215 9.48675 1
      vertex 0.799999 10.5 1
    endloop
  endfacet
  facet normal -0.866026 0.499999 -3.60907e-08
    outer loop
      vertex 0.215 9.48675 1
      vertex 0.799999 10.5 2.33147e-15
      vertex 0.125 9.33086 2.07187e-15
    endloop
  endfacet
  facet normal 0.866026 0.5 0
    outer loop
      vertex -2.215 9.48675 1
      vertex -2.8 10.5 2.33147e-15
      vertex -2.8 10.5 1
    endloop
  endfacet
  facet normal 0.866026 0.5 -7.30844e-08
    outer loop
      vertex -2.8 10.5 2.33147e-15
      vertex -2.215 9.48675 1
      vertex -2.125 9.33086 2.07187e-15
    endloop
  endfacet
  facet normal 0 1 -0
    outer loop
      vertex -0.0999994 8.94115 1.98533e-15
      vertex -1.9 8.94115 1
      vertex -0.0999994 8.94115 1
    endloop
  endfacet
  facet normal 0 1 0
    outer loop
      vertex -1.9 8.94115 1
      vertex -0.0999994 8.94115 1.98533e-15
      vertex -1.9 8.94115 1.98533e-15
    endloop
  endfacet
  facet normal 0.866026 0.5 -9.76162e-08
    outer loop
      vertex -1.9 8.94115 1
      vertex -2.125 9.33086 2.07187e-15
      vertex -2.215 9.48675 1
    endloop
  endfacet
  facet normal 0.866025 0.5 0
    outer loop
      vertex -2.125 9.33086 2.07187e-15
      vertex -1.9 8.94115 1
      vertex -1.9 8.94115 1.98533e-15
    endloop
  endfacet
  facet normal 0.866025 -0.5 0
    outer loop
      vertex -2.485 11.0456 1
      vertex -1.9 12.0588 2.6776e-15
      vertex -1.9 12.0588 1
    endloop
  endfacet
  facet normal 0.866025 -0.5 1.36663e-07
    outer loop
      vertex -1.9 12.0588 2.6776e-15
      vertex -2.485 11.0456 1
      vertex -2.575 10.8897 2.418e-15
    endloop
  endfacet
  facet normal 0 -1 0
    outer loop
      vertex -1.9 12.0588 2.6776e-15
      vertex -0.0999994 12.0588 1
      vertex -1.9 12.0588 1
    endloop
  endfacet
  facet normal 0 -1 -0
    outer loop
      vertex -0.0999994 12.0588 1
      vertex -1.9 12.0588 2.6776e-15
      vertex -0.0999994 12.0588 2.6776e-15
    endloop
  endfacet
  facet normal 0.866026 -0.5 9.76162e-08
    outer loop
      vertex -2.8 10.5 1
      vertex -2.575 10.8897 2.418e-15
      vertex -2.485 11.0456 1
    endloop
  endfacet
  facet normal 0.866025 -0.5 0
    outer loop
      vertex -2.575 10.8897 2.418e-15
      vertex -2.8 10.5 1
      vertex -2.8 10.5 2.33147e-15
    endloop
  endfacet
  facet normal -0.866026 -0.499999 -0
    outer loop
      vertex 0.799999 10.5 1
      vertex 0.575 10.8897 2.418e-15
      vertex 0.799999 10.5 2.33147e-15
    endloop
  endfacet
  facet normal -0.866026 -0.499999 4.23099e-08
    outer loop
      vertex 0.575 10.8897 2.418e-15
      vertex 0.799999 10.5 1
      vertex 0.485 11.0456 1
    endloop
  endfacet
  facet normal -0.866026 -0.5 0
    outer loop
      vertex -0.0999994 12.0588 2.6776e-15
      vertex 0.485 11.0456 1
      vertex -0.0999994 12.0588 1
    endloop
  endfacet
  facet normal -0.866026 -0.5 8.67641e-08
    outer loop
      vertex 0.485 11.0456 1
      vertex -0.0999994 12.0588 2.6776e-15
      vertex 0.575 10.8897 2.418e-15
    endloop
  endfacet
  facet normal -0.866027 0.499998 0
    outer loop
      vertex 33.9 8.94115 1
      vertex 34.125 9.33086 2.07187e-15
      vertex 33.9 8.94115 1.98533e-15
    endloop
  endfacet
  facet normal -0.866026 0.499998 4.03828e-07
    outer loop
      vertex 34.125 9.33086 2.07187e-15
      vertex 33.9 8.94115 1
      vertex 34.215 9.48675 1
    endloop
  endfacet
  facet normal -0.866026 0.499999 0
    outer loop
      vertex 34.8 10.5 2.33147e-15
      vertex 34.215 9.48675 1
      vertex 34.8 10.5 1
    endloop
  endfacet
  facet normal -0.866026 0.499999 1.88453e-07
    outer loop
      vertex 34.215 9.48675 1
      vertex 34.8 10.5 2.33147e-15
      vertex 34.125 9.33086 2.07187e-15
    endloop
  endfacet
  facet normal 0.866026 0.499999 0
    outer loop
      vertex 31.785 9.48675 1
      vertex 31.2 10.5 2.33147e-15
      vertex 31.2 10.5 1
    endloop
  endfacet
  facet normal 0.866026 0.499999 1.88453e-07
    outer loop
      vertex 31.2 10.5 2.33147e-15
      vertex 31.785 9.48675 1
      vertex 31.875 9.33086 2.07187e-15
    endloop
  endfacet
  facet normal 0 1 -0
    outer loop
      vertex 33.9 8.94115 1.98533e-15
      vertex 32.1 8.94115 1
      vertex 33.9 8.94115 1
    endloop
  endfacet
  facet normal 0 1 0
    outer loop
      vertex 32.1 8.94115 1
      vertex 33.9 8.94115 1.98533e-15
      vertex 32.1 8.94115 1.98533e-15
    endloop
  endfacet
  facet normal 0.866026 0.499998 4.03828e-07
    outer loop
      vertex 32.1 8.94115 1
      vertex 31.875 9.33086 2.07187e-15
      vertex 31.785 9.48675 1
    endloop
  endfacet
  facet normal 0.866027 0.499998 0
    outer loop
      vertex 31.875 9.33086 2.07187e-15
      vertex 32.1 8.94115 1
      vertex 32.1 8.94115 1.98533e-15
    endloop
  endfacet
  facet normal 0.866026 -0.5 0
    outer loop
      vertex 31.515 11.0456 1
      vertex 32.1 12.0588 2.6776e-15
      vertex 32.1 12.0588 1
    endloop
  endfacet
  facet normal 0.866026 -0.5 -1.24874e-07
    outer loop
      vertex 32.1 12.0588 2.6776e-15
      vertex 31.515 11.0456 1
      vertex 31.425 10.8897 2.418e-15
    endloop
  endfacet
  facet normal 0 -1 0
    outer loop
      vertex 32.1 12.0588 2.6776e-15
      vertex 33.9 12.0588 1
      vertex 32.1 12.0588 1
    endloop
  endfacet
  facet normal 0 -1 -0
    outer loop
      vertex 33.9 12.0588 1
      vertex 32.1 12.0588 2.6776e-15
      vertex 33.9 12.0588 2.6776e-15
    endloop
  endfacet
  facet normal 0.866026 -0.499998 -4.03828e-07
    outer loop
      vertex 31.2 10.5 1
      vertex 31.425 10.8897 2.418e-15
      vertex 31.515 11.0456 1
    endloop
  endfacet
  facet normal 0.866027 -0.499998 0
    outer loop
      vertex 31.425 10.8897 2.418e-15
      vertex 31.2 10.5 1
      vertex 31.2 10.5 2.33147e-15
    endloop
  endfacet
  facet normal -0.866027 -0.499998 -0
    outer loop
      vertex 34.8 10.5 1
      vertex 34.575 10.8897 2.418e-15
      vertex 34.8 10.5 2.33147e-15
    endloop
  endfacet
  facet normal -0.866026 -0.499998 -4.03828e-07
    outer loop
      vertex 34.575 10.8897 2.418e-15
      vertex 34.8 10.5 1
      vertex 34.485 11.0456 1
    endloop
  endfacet
  facet normal -0.866026 -0.5 0
    outer loop
      vertex 33.9 12.0588 2.6776e-15
      vertex 34.485 11.0456 1
      vertex 33.9 12.0588 1
    endloop
  endfacet
  facet normal -0.866026 -0.5 -1.24874e-07
    outer loop
      vertex 34.485 11.0456 1
      vertex 33.9 12.0588 2.6776e-15
      vertex 34.575 10.8897 2.418e-15
    endloop
  endfacet
endsolid OpenSCAD_Model
