solid OpenSCAD_Model
  facet normal 0 0 -1
    outer loop
      vertex -35 0 0
      vertex -34.2352 7.27691 0
      vertex -34.2352 -7.27691 0
    endloop
  endfacet
  facet normal 0 0 -1
    outer loop
      vertex -34.2352 -7.27691 0
      vertex -34.2352 7.27691 0
      vertex -31.9741 14.2358 0
    endloop
  endfacet
  facet normal 0 0 -1
    outer loop
      vertex -34.2352 -7.27691 0
      vertex -31.9741 14.2358 0
      vertex -28.3156 20.5725 0
    endloop
  endfacet
  facet normal 0 0 -1
    outer loop
      vertex -34.2352 -7.27691 0
      vertex -28.3156 20.5725 0
      vertex -23.4196 26.0101 0
    endloop
  endfacet
  facet normal 0 0 -1
    outer loop
      vertex -34.2352 -7.27691 0
      vertex -23.4196 26.0101 0
      vertex -17.5 30.3109 0
    endloop
  endfacet
  facet normal 0 0 -1
    outer loop
      vertex -34.2352 -7.27691 0
      vertex -17.5 30.3109 0
      vertex -10.8156 33.287 0
    endloop
  endfacet
  facet normal 0 0 -1
    outer loop
      vertex -28.8019 0.867767 0
      vertex -10.8156 33.287 0
      vertex -3.6585 34.8083 0
    endloop
  endfacet
  facet normal 0 0 -1
    outer loop
      vertex -20 0 0
      vertex -25.753 -1.56366 0
      vertex -25 0 0
    endloop
  endfacet
  facet normal 0 0 -1
    outer loop
      vertex 2 27 0
      vertex 3.6585 34.8083 0
      vertex 10.8156 33.287 0
    endloop
  endfacet
  facet normal 0 0 -1
    outer loop
      vertex 2.09057 19.8904 0
      vertex 10.8156 33.287 0
      vertex 17.5 30.3109 0
    endloop
  endfacet
  facet normal 0 0 -1
    outer loop
      vertex 6.18034 19.0211 0
      vertex 17.5 30.3109 0
      vertex 23.4196 26.0101 0
    endloop
  endfacet
  facet normal 0 0 -1
    outer loop
      vertex 13.3826 14.8629 0
      vertex 23.4196 26.0101 0
      vertex 28.3156 20.5725 0
    endloop
  endfacet
  facet normal 0 0 -1
    outer loop
      vertex 16.1803 11.7557 0
      vertex 28.3156 20.5725 0
      vertex 31.9741 14.2358 0
    endloop
  endfacet
  facet normal 0 0 -1
    outer loop
      vertex 19.563 4.15823 0
      vertex 31.9741 14.2358 0
      vertex 34.2352 7.27691 0
    endloop
  endfacet
  facet normal 0 0 -1
    outer loop
      vertex 28.247 1.56366 0
      vertex 34.2352 7.27691 0
      vertex 35 0 0
    endloop
  endfacet
  facet normal 0 0 -1
    outer loop
      vertex 19.563 -4.15823 0
      vertex 35 0 0
      vertex 34.2352 -7.27691 0
    endloop
  endfacet
  facet normal 0 0 -1
    outer loop
      vertex 16.1803 -11.7557 0
      vertex 34.2352 -7.27691 0
      vertex 31.9741 -14.2358 0
    endloop
  endfacet
  facet normal 0 0 -1
    outer loop
      vertex 13.3826 -14.8629 0
      vertex 31.9741 -14.2358 0
      vertex 28.3156 -20.5725 0
    endloop
  endfacet
  facet normal 0 0 -1
    outer loop
      vertex 6.18034 -19.0211 0
      vertex 28.3156 -20.5725 0
      vertex 23.4196 -26.0101 0
    endloop
  endfacet
  facet normal 0 0 -1
    outer loop
      vertex -2.09057 -19.8904 0
      vertex 23.4196 -26.0101 0
      vertex 17.5 -30.3109 0
    endloop
  endfacet
  facet normal 0 0 -1
    outer loop
      vertex 2 -27 0
      vertex 17.5 -30.3109 0
      vertex 10.8156 -33.287 0
    endloop
  endfacet
  facet normal 0 0 -1
    outer loop
      vertex 1.24698 -28.5637 0
      vertex 10.8156 -33.287 0
      vertex 3.6585 -34.8083 0
    endloop
  endfacet
  facet normal 0 0 -1
    outer loop
      vertex -34.2352 -7.27691 0
      vertex 3.6585 -34.8083 0
      vertex -3.6585 -34.8083 0
    endloop
  endfacet
  facet normal 0 0 -1
    outer loop
      vertex -34.2352 -7.27691 0
      vertex -3.6585 -34.8083 0
      vertex -10.8156 -33.287 0
    endloop
  endfacet
  facet normal 0 0 -1
    outer loop
      vertex -34.2352 -7.27691 0
      vertex -10.8156 -33.287 0
      vertex -17.5 -30.3109 0
    endloop
  endfacet
  facet normal 0 0 -1
    outer loop
      vertex -34.2352 -7.27691 0
      vertex -17.5 -30.3109 0
      vertex -23.4196 -26.0101 0
    endloop
  endfacet
  facet normal 0 0 -1
    outer loop
      vertex -34.2352 -7.27691 0
      vertex -23.4196 -26.0101 0
      vertex -28.3156 -20.5725 0
    endloop
  endfacet
  facet normal 0 0 -1
    outer loop
      vertex -34.2352 -7.27691 0
      vertex -28.3156 -20.5725 0
      vertex -31.9741 -14.2358 0
    endloop
  endfacet
  facet normal 0 0 -1
    outer loop
      vertex -34.2352 -7.27691 0
      vertex -10.8156 33.287 0
      vertex -28.8019 0.867767 0
    endloop
  endfacet
  facet normal 0 0 -1
    outer loop
      vertex -28.8019 -0.867767 0
      vertex -34.2352 -7.27691 0
      vertex -28.8019 0.867767 0
    endloop
  endfacet
  facet normal 0 0 -1
    outer loop
      vertex -20 0 0
      vertex -34.2352 -7.27691 0
      vertex -25.753 -1.56366 0
    endloop
  endfacet
  facet normal 0 0 -1
    outer loop
      vertex -6.18034 19.0211 0
      vertex 10.8156 33.287 0
      vertex -2.09057 19.8904 0
    endloop
  endfacet
  facet normal 0 0 -1
    outer loop
      vertex -25.753 -1.56366 0
      vertex -34.2352 -7.27691 0
      vertex -27.445 -1.94986 0
    endloop
  endfacet
  facet normal 0 0 -1
    outer loop
      vertex -27.445 1.94986 0
      vertex 3.6585 34.8083 0
      vertex -25.753 1.56366 0
    endloop
  endfacet
  facet normal 0 0 -1
    outer loop
      vertex -27.445 -1.94986 0
      vertex -34.2352 -7.27691 0
      vertex -28.8019 -0.867767 0
    endloop
  endfacet
  facet normal 0 0 -1
    outer loop
      vertex -19.563 -4.15823 0
      vertex -34.2352 -7.27691 0
      vertex -20 0 0
    endloop
  endfacet
  facet normal 0 0 -1
    outer loop
      vertex -18.2709 -8.13473 0
      vertex -34.2352 -7.27691 0
      vertex -19.563 -4.15823 0
    endloop
  endfacet
  facet normal 0 0 -1
    outer loop
      vertex -16.1803 -11.7557 0
      vertex -34.2352 -7.27691 0
      vertex -18.2709 -8.13473 0
    endloop
  endfacet
  facet normal 0 0 -1
    outer loop
      vertex 20 0 0
      vertex 26.555 -1.94986 0
      vertex 19.563 -4.15823 0
    endloop
  endfacet
  facet normal 0 0 -1
    outer loop
      vertex -13.3826 -14.8629 0
      vertex -34.2352 -7.27691 0
      vertex -16.1803 -11.7557 0
    endloop
  endfacet
  facet normal 0 0 -1
    outer loop
      vertex -2.09057 -19.8904 0
      vertex 17.5 -30.3109 0
      vertex -6.18034 -19.0211 0
    endloop
  endfacet
  facet normal 0 0 -1
    outer loop
      vertex -34.2352 -7.27691 0
      vertex -13.3826 -14.8629 0
      vertex -10 -17.3205 0
    endloop
  endfacet
  facet normal 0 0 -1
    outer loop
      vertex -34.2352 -7.27691 0
      vertex -10 -17.3205 0
      vertex 17.5 -30.3109 0
    endloop
  endfacet
  facet normal 0 0 -1
    outer loop
      vertex -10 -17.3205 0
      vertex -6.18034 -19.0211 0
      vertex 17.5 -30.3109 0
    endloop
  endfacet
  facet normal 0 0 -1
    outer loop
      vertex 2.09057 -19.8904 0
      vertex 23.4196 -26.0101 0
      vertex -2.09057 -19.8904 0
    endloop
  endfacet
  facet normal 0 0 -1
    outer loop
      vertex 6.18034 -19.0211 0
      vertex 23.4196 -26.0101 0
      vertex 2.09057 -19.8904 0
    endloop
  endfacet
  facet normal 0 0 -1
    outer loop
      vertex 10 -17.3205 0
      vertex 28.3156 -20.5725 0
      vertex 6.18034 -19.0211 0
    endloop
  endfacet
  facet normal 0 0 -1
    outer loop
      vertex 13.3826 -14.8629 0
      vertex 28.3156 -20.5725 0
      vertex 10 -17.3205 0
    endloop
  endfacet
  facet normal 0 0 -1
    outer loop
      vertex 18.2709 -8.13473 0
      vertex 34.2352 -7.27691 0
      vertex 16.1803 -11.7557 0
    endloop
  endfacet
  facet normal 0 0 -1
    outer loop
      vertex 19.563 -4.15823 0
      vertex 34.2352 -7.27691 0
      vertex 18.2709 -8.13473 0
    endloop
  endfacet
  facet normal 0 0 -1
    outer loop
      vertex 20 0 0
      vertex 25.1981 -0.867767 0
      vertex 26.555 -1.94986 0
    endloop
  endfacet
  facet normal 0 0 -1
    outer loop
      vertex 28.247 -1.56366 0
      vertex 35 0 0
      vertex 19.563 -4.15823 0
    endloop
  endfacet
  facet normal 0 0 -1
    outer loop
      vertex 18.2709 8.13473 0
      vertex 31.9741 14.2358 0
      vertex 19.563 4.15823 0
    endloop
  endfacet
  facet normal 0 0 -1
    outer loop
      vertex 29 0 0
      vertex 35 0 0
      vertex 28.247 -1.56366 0
    endloop
  endfacet
  facet normal 0 0 -1
    outer loop
      vertex 28.247 1.56366 0
      vertex 35 0 0
      vertex 29 0 0
    endloop
  endfacet
  facet normal 0 0 -1
    outer loop
      vertex 10 17.3205 0
      vertex 23.4196 26.0101 0
      vertex 13.3826 14.8629 0
    endloop
  endfacet
  facet normal 0 0 -1
    outer loop
      vertex 6.18034 19.0211 0
      vertex 23.4196 26.0101 0
      vertex 10 17.3205 0
    endloop
  endfacet
  facet normal 0 0 -1
    outer loop
      vertex 13.3826 14.8629 0
      vertex 28.3156 20.5725 0
      vertex 16.1803 11.7557 0
    endloop
  endfacet
  facet normal 0 0 -1
    outer loop
      vertex -2.09057 19.8904 0
      vertex 10.8156 33.287 0
      vertex 2.09057 19.8904 0
    endloop
  endfacet
  facet normal 0 0 -1
    outer loop
      vertex 16.1803 11.7557 0
      vertex 31.9741 14.2358 0
      vertex 18.2709 8.13473 0
    endloop
  endfacet
  facet normal 0 0 -1
    outer loop
      vertex -18.2709 8.13473 0
      vertex -25.753 1.56366 0
      vertex -16.1803 11.7557 0
    endloop
  endfacet
  facet normal 0 0 -1
    outer loop
      vertex -1.80194 26.1322 0
      vertex -10 17.3205 0
      vertex -1.80194 27.8678 0
    endloop
  endfacet
  facet normal 0 0 -1
    outer loop
      vertex -19.563 4.15823 0
      vertex -25.753 1.56366 0
      vertex -18.2709 8.13473 0
    endloop
  endfacet
  facet normal 0 0 -1
    outer loop
      vertex -25.753 1.56366 0
      vertex 3.6585 34.8083 0
      vertex -13.3826 14.8629 0
    endloop
  endfacet
  facet normal 0 0 -1
    outer loop
      vertex -25.753 1.56366 0
      vertex -13.3826 14.8629 0
      vertex -16.1803 11.7557 0
    endloop
  endfacet
  facet normal 0 0 -1
    outer loop
      vertex -19.563 4.15823 0
      vertex -25 0 0
      vertex -25.753 1.56366 0
    endloop
  endfacet
  facet normal 0 0 -1
    outer loop
      vertex -1.80194 -26.1322 0
      vertex -34.2352 -7.27691 0
      vertex -0.445042 -25.0501 0
    endloop
  endfacet
  facet normal 0 0 -1
    outer loop
      vertex 1.24698 -28.5637 0
      vertex 3.6585 -34.8083 0
      vertex -0.445042 -28.9499 0
    endloop
  endfacet
  facet normal 0 0 -1
    outer loop
      vertex -34.2352 -7.27691 0
      vertex -1.80194 -26.1322 0
      vertex -1.80194 -27.8678 0
    endloop
  endfacet
  facet normal 0 0 -1
    outer loop
      vertex -34.2352 -7.27691 0
      vertex -1.80194 -27.8678 0
      vertex 3.6585 -34.8083 0
    endloop
  endfacet
  facet normal 0 0 -1
    outer loop
      vertex -1.80194 -27.8678 0
      vertex -0.445042 -28.9499 0
      vertex 3.6585 -34.8083 0
    endloop
  endfacet
  facet normal 0 0 -1
    outer loop
      vertex 2 -27 0
      vertex 10.8156 -33.287 0
      vertex 1.24698 -28.5637 0
    endloop
  endfacet
  facet normal 0 0 -1
    outer loop
      vertex 1.24698 -25.4363 0
      vertex 17.5 -30.3109 0
      vertex 2 -27 0
    endloop
  endfacet
  facet normal 0 0 -1
    outer loop
      vertex -34.2352 -7.27691 0
      vertex 17.5 -30.3109 0
      vertex 1.24698 -25.4363 0
    endloop
  endfacet
  facet normal 0 0 -1
    outer loop
      vertex -34.2352 -7.27691 0
      vertex 1.24698 -25.4363 0
      vertex -0.445042 -25.0501 0
    endloop
  endfacet
  facet normal 0 0 -1
    outer loop
      vertex -13.3826 14.8629 0
      vertex 3.6585 34.8083 0
      vertex -1.80194 27.8678 0
    endloop
  endfacet
  facet normal 0 0 -1
    outer loop
      vertex -13.3826 14.8629 0
      vertex -1.80194 27.8678 0
      vertex -10 17.3205 0
    endloop
  endfacet
  facet normal 0 0 -1
    outer loop
      vertex 25.1981 -0.867767 0
      vertex 20 0 0
      vertex 25.1981 0.867767 0
    endloop
  endfacet
  facet normal 0 0 -1
    outer loop
      vertex -10 17.3205 0
      vertex -1.80194 26.1322 0
      vertex -6.18034 19.0211 0
    endloop
  endfacet
  facet normal 0 0 -1
    outer loop
      vertex 2 27 0
      vertex 10.8156 33.287 0
      vertex 1.24698 25.4363 0
    endloop
  endfacet
  facet normal 0 0 -1
    outer loop
      vertex -6.18034 19.0211 0
      vertex -0.445042 25.0501 0
      vertex 1.24698 25.4363 0
    endloop
  endfacet
  facet normal 0 0 -1
    outer loop
      vertex -6.18034 19.0211 0
      vertex 1.24698 25.4363 0
      vertex 10.8156 33.287 0
    endloop
  endfacet
  facet normal 0 0 -1
    outer loop
      vertex 1.24698 28.5637 0
      vertex 3.6585 34.8083 0
      vertex 2 27 0
    endloop
  endfacet
  facet normal 0 0 -1
    outer loop
      vertex -0.445042 28.9499 0
      vertex 3.6585 34.8083 0
      vertex 1.24698 28.5637 0
    endloop
  endfacet
  facet normal 0 0 -1
    outer loop
      vertex -0.445042 25.0501 0
      vertex -6.18034 19.0211 0
      vertex -1.80194 26.1322 0
    endloop
  endfacet
  facet normal 0 0 -1
    outer loop
      vertex 16.1803 -11.7557 0
      vertex 31.9741 -14.2358 0
      vertex 13.3826 -14.8629 0
    endloop
  endfacet
  facet normal 0 0 -1
    outer loop
      vertex 26.555 -1.94986 0
      vertex 28.247 -1.56366 0
      vertex 19.563 -4.15823 0
    endloop
  endfacet
  facet normal 0 0 -1
    outer loop
      vertex 19.563 4.15823 0
      vertex 34.2352 7.27691 0
      vertex 20 0 0
    endloop
  endfacet
  facet normal 0 0 -1
    outer loop
      vertex 26.555 1.94986 0
      vertex 34.2352 7.27691 0
      vertex 28.247 1.56366 0
    endloop
  endfacet
  facet normal 0 0 -1
    outer loop
      vertex 20 0 0
      vertex 34.2352 7.27691 0
      vertex 26.555 1.94986 0
    endloop
  endfacet
  facet normal 0 0 -1
    outer loop
      vertex 20 0 0
      vertex 26.555 1.94986 0
      vertex 25.1981 0.867767 0
    endloop
  endfacet
  facet normal 0 0 -1
    outer loop
      vertex -28.8019 0.867767 0
      vertex -3.6585 34.8083 0
      vertex -27.445 1.94986 0
    endloop
  endfacet
  facet normal 0 0 -1
    outer loop
      vertex -20 0 0
      vertex -25 0 0
      vertex -19.563 4.15823 0
    endloop
  endfacet
  facet normal 0 0 -1
    outer loop
      vertex -27.445 1.94986 0
      vertex -3.6585 34.8083 0
      vertex 3.6585 34.8083 0
    endloop
  endfacet
  facet normal 0 0 -1
    outer loop
      vertex -1.80194 27.8678 0
      vertex 3.6585 34.8083 0
      vertex -0.445042 28.9499 0
    endloop
  endfacet
  facet normal 0 0 -1
    outer loop
      vertex 2.09057 19.8904 0
      vertex 17.5 30.3109 0
      vertex 6.18034 19.0211 0
    endloop
  endfacet
  facet normal -0.994522 0.104528 0
    outer loop
      vertex -35 0 0
      vertex -35 0 10
      vertex -34.2352 7.27691 0
    endloop
  endfacet
  facet normal -0.994522 0.104528 0
    outer loop
      vertex -34.2352 7.27691 0
      vertex -35 0 10
      vertex -34.2352 7.27691 10
    endloop
  endfacet
  facet normal -0.994522 -0.104528 0
    outer loop
      vertex -35 0 0
      vertex -34.2352 -7.27691 0
      vertex -35 0 10
    endloop
  endfacet
  facet normal -0.994522 -0.104528 0
    outer loop
      vertex -35 0 10
      vertex -34.2352 -7.27691 0
      vertex -34.2352 -7.27691 10
    endloop
  endfacet
  facet normal -0.951057 -0.309017 0
    outer loop
      vertex -34.2352 -7.27691 0
      vertex -31.9741 -14.2358 0
      vertex -34.2352 -7.27691 10
    endloop
  endfacet
  facet normal -0.951057 -0.309017 0
    outer loop
      vertex -34.2352 -7.27691 10
      vertex -31.9741 -14.2358 0
      vertex -31.9741 -14.2358 10
    endloop
  endfacet
  facet normal -0.866025 -0.5 0
    outer loop
      vertex -31.9741 -14.2358 0
      vertex -28.3156 -20.5725 0
      vertex -31.9741 -14.2358 10
    endloop
  endfacet
  facet normal -0.866025 -0.5 0
    outer loop
      vertex -31.9741 -14.2358 10
      vertex -28.3156 -20.5725 0
      vertex -28.3156 -20.5725 10
    endloop
  endfacet
  facet normal -0.743145 -0.669131 0
    outer loop
      vertex -28.3156 -20.5725 0
      vertex -23.4196 -26.0101 0
      vertex -28.3156 -20.5725 10
    endloop
  endfacet
  facet normal -0.743145 -0.669131 0
    outer loop
      vertex -28.3156 -20.5725 10
      vertex -23.4196 -26.0101 0
      vertex -23.4196 -26.0101 10
    endloop
  endfacet
  facet normal -0.587785 -0.809017 0
    outer loop
      vertex -23.4196 -26.0101 10
      vertex -23.4196 -26.0101 0
      vertex -17.5 -30.3109 0
    endloop
  endfacet
  facet normal -0.587785 -0.809017 0
    outer loop
      vertex -17.5 -30.3109 10
      vertex -23.4196 -26.0101 10
      vertex -17.5 -30.3109 0
    endloop
  endfacet
  facet normal -0.406737 -0.913545 0
    outer loop
      vertex -17.5 -30.3109 10
      vertex -17.5 -30.3109 0
      vertex -10.8156 -33.287 0
    endloop
  endfacet
  facet normal -0.406737 -0.913545 0
    outer loop
      vertex -10.8156 -33.287 10
      vertex -17.5 -30.3109 10
      vertex -10.8156 -33.287 0
    endloop
  endfacet
  facet normal -0.207912 -0.978148 0
    outer loop
      vertex -10.8156 -33.287 10
      vertex -10.8156 -33.287 0
      vertex -3.6585 -34.8083 0
    endloop
  endfacet
  facet normal -0.207912 -0.978148 0
    outer loop
      vertex -3.6585 -34.8083 10
      vertex -10.8156 -33.287 10
      vertex -3.6585 -34.8083 0
    endloop
  endfacet
  facet normal 0 -1 0
    outer loop
      vertex -3.6585 -34.8083 10
      vertex -3.6585 -34.8083 0
      vertex 3.6585 -34.8083 0
    endloop
  endfacet
  facet normal 0 -1 0
    outer loop
      vertex 3.6585 -34.8083 10
      vertex -3.6585 -34.8083 10
      vertex 3.6585 -34.8083 0
    endloop
  endfacet
  facet normal 0.207912 -0.978148 0
    outer loop
      vertex 3.6585 -34.8083 10
      vertex 3.6585 -34.8083 0
      vertex 10.8156 -33.287 0
    endloop
  endfacet
  facet normal 0.207912 -0.978148 0
    outer loop
      vertex 10.8156 -33.287 10
      vertex 3.6585 -34.8083 10
      vertex 10.8156 -33.287 0
    endloop
  endfacet
  facet normal 0.406737 -0.913545 0
    outer loop
      vertex 10.8156 -33.287 10
      vertex 10.8156 -33.287 0
      vertex 17.5 -30.3109 0
    endloop
  endfacet
  facet normal 0.406737 -0.913545 0
    outer loop
      vertex 17.5 -30.3109 10
      vertex 10.8156 -33.287 10
      vertex 17.5 -30.3109 0
    endloop
  endfacet
  facet normal 0.587785 -0.809017 0
    outer loop
      vertex 17.5 -30.3109 10
      vertex 17.5 -30.3109 0
      vertex 23.4196 -26.0101 0
    endloop
  endfacet
  facet normal 0.587785 -0.809017 0
    outer loop
      vertex 23.4196 -26.0101 10
      vertex 17.5 -30.3109 10
      vertex 23.4196 -26.0101 0
    endloop
  endfacet
  facet normal 0.743145 -0.669131 0
    outer loop
      vertex 23.4196 -26.0101 10
      vertex 23.4196 -26.0101 0
      vertex 28.3156 -20.5725 0
    endloop
  endfacet
  facet normal 0.743145 -0.669131 0
    outer loop
      vertex 28.3156 -20.5725 10
      vertex 23.4196 -26.0101 10
      vertex 28.3156 -20.5725 0
    endloop
  endfacet
  facet normal 0.866025 -0.5 0
    outer loop
      vertex 28.3156 -20.5725 10
      vertex 28.3156 -20.5725 0
      vertex 31.9741 -14.2358 0
    endloop
  endfacet
  facet normal 0.866025 -0.5 0
    outer loop
      vertex 31.9741 -14.2358 10
      vertex 28.3156 -20.5725 10
      vertex 31.9741 -14.2358 0
    endloop
  endfacet
  facet normal 0.951057 -0.309017 0
    outer loop
      vertex 31.9741 -14.2358 10
      vertex 31.9741 -14.2358 0
      vertex 34.2352 -7.27691 0
    endloop
  endfacet
  facet normal 0.951057 -0.309017 0
    outer loop
      vertex 34.2352 -7.27691 10
      vertex 31.9741 -14.2358 10
      vertex 34.2352 -7.27691 0
    endloop
  endfacet
  facet normal 0.994522 -0.104528 0
    outer loop
      vertex 34.2352 -7.27691 10
      vertex 34.2352 -7.27691 0
      vertex 35 0 0
    endloop
  endfacet
  facet normal 0.994522 -0.104528 0
    outer loop
      vertex 35 0 10
      vertex 34.2352 -7.27691 10
      vertex 35 0 0
    endloop
  endfacet
  facet normal 0.994522 0.104528 0
    outer loop
      vertex 35 0 0
      vertex 34.2352 7.27691 0
      vertex 34.2352 7.27691 10
    endloop
  endfacet
  facet normal 0.994522 0.104528 0
    outer loop
      vertex 35 0 10
      vertex 35 0 0
      vertex 34.2352 7.27691 10
    endloop
  endfacet
  facet normal 0.951057 0.309017 0
    outer loop
      vertex 34.2352 7.27691 0
      vertex 31.9741 14.2358 0
      vertex 31.9741 14.2358 10
    endloop
  endfacet
  facet normal 0.951057 0.309017 0
    outer loop
      vertex 34.2352 7.27691 10
      vertex 34.2352 7.27691 0
      vertex 31.9741 14.2358 10
    endloop
  endfacet
  facet normal 0.866025 0.5 0
    outer loop
      vertex 31.9741 14.2358 0
      vertex 28.3156 20.5725 0
      vertex 28.3156 20.5725 10
    endloop
  endfacet
  facet normal 0.866025 0.5 0
    outer loop
      vertex 31.9741 14.2358 10
      vertex 31.9741 14.2358 0
      vertex 28.3156 20.5725 10
    endloop
  endfacet
  facet normal 0.743145 0.669131 0
    outer loop
      vertex 28.3156 20.5725 0
      vertex 23.4196 26.0101 0
      vertex 23.4196 26.0101 10
    endloop
  endfacet
  facet normal 0.743145 0.669131 0
    outer loop
      vertex 28.3156 20.5725 10
      vertex 28.3156 20.5725 0
      vertex 23.4196 26.0101 10
    endloop
  endfacet
  facet normal 0.587785 0.809017 0
    outer loop
      vertex 17.5 30.3109 0
      vertex 17.5 30.3109 10
      vertex 23.4196 26.0101 0
    endloop
  endfacet
  facet normal 0.587785 0.809017 0
    outer loop
      vertex 23.4196 26.0101 0
      vertex 17.5 30.3109 10
      vertex 23.4196 26.0101 10
    endloop
  endfacet
  facet normal 0.406737 0.913545 0
    outer loop
      vertex 10.8156 33.287 0
      vertex 10.8156 33.287 10
      vertex 17.5 30.3109 0
    endloop
  endfacet
  facet normal 0.406737 0.913545 0
    outer loop
      vertex 17.5 30.3109 0
      vertex 10.8156 33.287 10
      vertex 17.5 30.3109 10
    endloop
  endfacet
  facet normal 0.207912 0.978148 0
    outer loop
      vertex 3.6585 34.8083 0
      vertex 3.6585 34.8083 10
      vertex 10.8156 33.287 0
    endloop
  endfacet
  facet normal 0.207912 0.978148 0
    outer loop
      vertex 10.8156 33.287 0
      vertex 3.6585 34.8083 10
      vertex 10.8156 33.287 10
    endloop
  endfacet
  facet normal 0 1 0
    outer loop
      vertex -3.6585 34.8083 0
      vertex -3.6585 34.8083 10
      vertex 3.6585 34.8083 0
    endloop
  endfacet
  facet normal 0 1 0
    outer loop
      vertex 3.6585 34.8083 0
      vertex -3.6585 34.8083 10
      vertex 3.6585 34.8083 10
    endloop
  endfacet
  facet normal -0.207912 0.978148 0
    outer loop
      vertex -10.8156 33.287 0
      vertex -10.8156 33.287 10
      vertex -3.6585 34.8083 0
    endloop
  endfacet
  facet normal -0.207912 0.978148 0
    outer loop
      vertex -3.6585 34.8083 0
      vertex -10.8156 33.287 10
      vertex -3.6585 34.8083 10
    endloop
  endfacet
  facet normal -0.406737 0.913545 0
    outer loop
      vertex -17.5 30.3109 0
      vertex -17.5 30.3109 10
      vertex -10.8156 33.287 0
    endloop
  endfacet
  facet normal -0.406737 0.913545 0
    outer loop
      vertex -10.8156 33.287 0
      vertex -17.5 30.3109 10
      vertex -10.8156 33.287 10
    endloop
  endfacet
  facet normal -0.587785 0.809017 0
    outer loop
      vertex -23.4196 26.0101 0
      vertex -23.4196 26.0101 10
      vertex -17.5 30.3109 0
    endloop
  endfacet
  facet normal -0.587785 0.809017 0
    outer loop
      vertex -17.5 30.3109 0
      vertex -23.4196 26.0101 10
      vertex -17.5 30.3109 10
    endloop
  endfacet
  facet normal -0.743145 0.669131 0
    outer loop
      vertex -28.3156 20.5725 0
      vertex -28.3156 20.5725 10
      vertex -23.4196 26.0101 0
    endloop
  endfacet
  facet normal -0.743145 0.669131 0
    outer loop
      vertex -23.4196 26.0101 0
      vertex -28.3156 20.5725 10
      vertex -23.4196 26.0101 10
    endloop
  endfacet
  facet normal -0.866025 0.5 0
    outer loop
      vertex -31.9741 14.2358 0
      vertex -31.9741 14.2358 10
      vertex -28.3156 20.5725 0
    endloop
  endfacet
  facet normal -0.866025 0.5 0
    outer loop
      vertex -28.3156 20.5725 0
      vertex -31.9741 14.2358 10
      vertex -28.3156 20.5725 10
    endloop
  endfacet
  facet normal -0.951057 0.309017 0
    outer loop
      vertex -34.2352 7.27691 0
      vertex -34.2352 7.27691 10
      vertex -31.9741 14.2358 0
    endloop
  endfacet
  facet normal -0.951057 0.309017 0
    outer loop
      vertex -31.9741 14.2358 0
      vertex -34.2352 7.27691 10
      vertex -31.9741 14.2358 10
    endloop
  endfacet
  facet normal 1 0 0
    outer loop
      vertex -28.8019 0.867767 0
      vertex -28.8019 0.867767 2
      vertex -28.8019 -0.867767 2
    endloop
  endfacet
  facet normal 1 0 0
    outer loop
      vertex -28.8019 -0.867767 0
      vertex -28.8019 0.867767 0
      vertex -28.8019 -0.867767 2
    endloop
  endfacet
  facet normal 0.62349 -0.781831 0
    outer loop
      vertex -27.445 1.94986 0
      vertex -27.445 1.94986 2
      vertex -28.8019 0.867767 2
    endloop
  endfacet
  facet normal 0.62349 -0.781831 0
    outer loop
      vertex -28.8019 0.867767 0
      vertex -27.445 1.94986 0
      vertex -28.8019 0.867767 2
    endloop
  endfacet
  facet normal -0.222521 -0.974928 0
    outer loop
      vertex -25.753 1.56366 0
      vertex -25.753 1.56366 2
      vertex -27.445 1.94986 2
    endloop
  endfacet
  facet normal -0.222521 -0.974928 0
    outer loop
      vertex -27.445 1.94986 0
      vertex -25.753 1.56366 0
      vertex -27.445 1.94986 2
    endloop
  endfacet
  facet normal -0.900969 -0.433884 0
    outer loop
      vertex -25 0 2
      vertex -25.753 1.56366 2
      vertex -25 0 0
    endloop
  endfacet
  facet normal -0.900969 -0.433884 0
    outer loop
      vertex -25 0 0
      vertex -25.753 1.56366 2
      vertex -25.753 1.56366 0
    endloop
  endfacet
  facet normal -0.900969 0.433884 0
    outer loop
      vertex -25 0 2
      vertex -25 0 0
      vertex -25.753 -1.56366 2
    endloop
  endfacet
  facet normal -0.900969 0.433884 0
    outer loop
      vertex -25.753 -1.56366 2
      vertex -25 0 0
      vertex -25.753 -1.56366 0
    endloop
  endfacet
  facet normal -0.222521 0.974928 0
    outer loop
      vertex -25.753 -1.56366 2
      vertex -25.753 -1.56366 0
      vertex -27.445 -1.94986 2
    endloop
  endfacet
  facet normal -0.222521 0.974928 0
    outer loop
      vertex -27.445 -1.94986 2
      vertex -25.753 -1.56366 0
      vertex -27.445 -1.94986 0
    endloop
  endfacet
  facet normal 0.62349 0.781831 0
    outer loop
      vertex -27.445 -1.94986 2
      vertex -27.445 -1.94986 0
      vertex -28.8019 -0.867767 2
    endloop
  endfacet
  facet normal 0.62349 0.781831 0
    outer loop
      vertex -28.8019 -0.867767 2
      vertex -27.445 -1.94986 0
      vertex -28.8019 -0.867767 0
    endloop
  endfacet
  facet normal 0.994522 -0.104528 0
    outer loop
      vertex -19.563 4.15823 0
      vertex -19.563 4.15823 10
      vertex -20 0 10
    endloop
  endfacet
  facet normal 0.994522 -0.104528 0
    outer loop
      vertex -20 0 0
      vertex -19.563 4.15823 0
      vertex -20 0 10
    endloop
  endfacet
  facet normal 0.994522 0.104528 0
    outer loop
      vertex -20 0 10
      vertex -19.563 -4.15823 10
      vertex -19.563 -4.15823 0
    endloop
  endfacet
  facet normal 0.994522 0.104528 0
    outer loop
      vertex -20 0 0
      vertex -20 0 10
      vertex -19.563 -4.15823 0
    endloop
  endfacet
  facet normal 0.951057 -0.309017 0
    outer loop
      vertex -18.2709 8.13473 0
      vertex -18.2709 8.13473 10
      vertex -19.563 4.15823 10
    endloop
  endfacet
  facet normal 0.951057 -0.309017 0
    outer loop
      vertex -19.563 4.15823 0
      vertex -18.2709 8.13473 0
      vertex -19.563 4.15823 10
    endloop
  endfacet
  facet normal 0.866025 -0.5 0
    outer loop
      vertex -16.1803 11.7557 0
      vertex -16.1803 11.7557 10
      vertex -18.2709 8.13473 10
    endloop
  endfacet
  facet normal 0.866025 -0.5 0
    outer loop
      vertex -18.2709 8.13473 0
      vertex -16.1803 11.7557 0
      vertex -18.2709 8.13473 10
    endloop
  endfacet
  facet normal 0.743145 -0.669131 0
    outer loop
      vertex -13.3826 14.8629 0
      vertex -13.3826 14.8629 10
      vertex -16.1803 11.7557 10
    endloop
  endfacet
  facet normal 0.743145 -0.669131 0
    outer loop
      vertex -16.1803 11.7557 0
      vertex -13.3826 14.8629 0
      vertex -16.1803 11.7557 10
    endloop
  endfacet
  facet normal 0.587785 -0.809017 0
    outer loop
      vertex -10 17.3205 0
      vertex -10 17.3205 10
      vertex -13.3826 14.8629 10
    endloop
  endfacet
  facet normal 0.587785 -0.809017 0
    outer loop
      vertex -13.3826 14.8629 0
      vertex -10 17.3205 0
      vertex -13.3826 14.8629 10
    endloop
  endfacet
  facet normal 0.406737 -0.913545 0
    outer loop
      vertex -6.18034 19.0211 0
      vertex -6.18034 19.0211 10
      vertex -10 17.3205 10
    endloop
  endfacet
  facet normal 0.406737 -0.913545 0
    outer loop
      vertex -10 17.3205 0
      vertex -6.18034 19.0211 0
      vertex -10 17.3205 10
    endloop
  endfacet
  facet normal 0.207912 -0.978148 0
    outer loop
      vertex -2.09057 19.8904 0
      vertex -2.09057 19.8904 10
      vertex -6.18034 19.0211 10
    endloop
  endfacet
  facet normal 0.207912 -0.978148 0
    outer loop
      vertex -6.18034 19.0211 0
      vertex -2.09057 19.8904 0
      vertex -6.18034 19.0211 10
    endloop
  endfacet
  facet normal 0 -1 0
    outer loop
      vertex 2.09057 19.8904 0
      vertex 2.09057 19.8904 10
      vertex -2.09057 19.8904 10
    endloop
  endfacet
  facet normal 0 -1 0
    outer loop
      vertex -2.09057 19.8904 0
      vertex 2.09057 19.8904 0
      vertex -2.09057 19.8904 10
    endloop
  endfacet
  facet normal -0.207912 -0.978148 0
    outer loop
      vertex 6.18034 19.0211 0
      vertex 6.18034 19.0211 10
      vertex 2.09057 19.8904 10
    endloop
  endfacet
  facet normal -0.207912 -0.978148 0
    outer loop
      vertex 2.09057 19.8904 0
      vertex 6.18034 19.0211 0
      vertex 2.09057 19.8904 10
    endloop
  endfacet
  facet normal -0.406737 -0.913545 0
    outer loop
      vertex 10 17.3205 0
      vertex 10 17.3205 10
      vertex 6.18034 19.0211 10
    endloop
  endfacet
  facet normal -0.406737 -0.913545 0
    outer loop
      vertex 6.18034 19.0211 0
      vertex 10 17.3205 0
      vertex 6.18034 19.0211 10
    endloop
  endfacet
  facet normal -0.587785 -0.809017 0
    outer loop
      vertex 13.3826 14.8629 0
      vertex 13.3826 14.8629 10
      vertex 10 17.3205 10
    endloop
  endfacet
  facet normal -0.587785 -0.809017 0
    outer loop
      vertex 10 17.3205 0
      vertex 13.3826 14.8629 0
      vertex 10 17.3205 10
    endloop
  endfacet
  facet normal -0.743145 -0.669131 0
    outer loop
      vertex 16.1803 11.7557 10
      vertex 13.3826 14.8629 10
      vertex 16.1803 11.7557 0
    endloop
  endfacet
  facet normal -0.743145 -0.669131 0
    outer loop
      vertex 16.1803 11.7557 0
      vertex 13.3826 14.8629 10
      vertex 13.3826 14.8629 0
    endloop
  endfacet
  facet normal -0.866025 -0.5 0
    outer loop
      vertex 18.2709 8.13473 10
      vertex 16.1803 11.7557 10
      vertex 18.2709 8.13473 0
    endloop
  endfacet
  facet normal -0.866025 -0.5 0
    outer loop
      vertex 18.2709 8.13473 0
      vertex 16.1803 11.7557 10
      vertex 16.1803 11.7557 0
    endloop
  endfacet
  facet normal -0.951057 -0.309017 0
    outer loop
      vertex 19.563 4.15823 10
      vertex 18.2709 8.13473 10
      vertex 19.563 4.15823 0
    endloop
  endfacet
  facet normal -0.951057 -0.309017 0
    outer loop
      vertex 19.563 4.15823 0
      vertex 18.2709 8.13473 10
      vertex 18.2709 8.13473 0
    endloop
  endfacet
  facet normal -0.994522 -0.104528 0
    outer loop
      vertex 20 0 10
      vertex 19.563 4.15823 10
      vertex 20 0 0
    endloop
  endfacet
  facet normal -0.994522 -0.104528 0
    outer loop
      vertex 20 0 0
      vertex 19.563 4.15823 10
      vertex 19.563 4.15823 0
    endloop
  endfacet
  facet normal -0.994522 0.104528 0
    outer loop
      vertex 20 0 10
      vertex 20 0 0
      vertex 19.563 -4.15823 10
    endloop
  endfacet
  facet normal -0.994522 0.104528 0
    outer loop
      vertex 19.563 -4.15823 10
      vertex 20 0 0
      vertex 19.563 -4.15823 0
    endloop
  endfacet
  facet normal -0.951057 0.309017 0
    outer loop
      vertex 19.563 -4.15823 10
      vertex 19.563 -4.15823 0
      vertex 18.2709 -8.13473 10
    endloop
  endfacet
  facet normal -0.951057 0.309017 0
    outer loop
      vertex 18.2709 -8.13473 10
      vertex 19.563 -4.15823 0
      vertex 18.2709 -8.13473 0
    endloop
  endfacet
  facet normal -0.866025 0.5 0
    outer loop
      vertex 18.2709 -8.13473 10
      vertex 18.2709 -8.13473 0
      vertex 16.1803 -11.7557 10
    endloop
  endfacet
  facet normal -0.866025 0.5 0
    outer loop
      vertex 16.1803 -11.7557 10
      vertex 18.2709 -8.13473 0
      vertex 16.1803 -11.7557 0
    endloop
  endfacet
  facet normal -0.743145 0.669131 0
    outer loop
      vertex 16.1803 -11.7557 10
      vertex 16.1803 -11.7557 0
      vertex 13.3826 -14.8629 10
    endloop
  endfacet
  facet normal -0.743145 0.669131 0
    outer loop
      vertex 13.3826 -14.8629 10
      vertex 16.1803 -11.7557 0
      vertex 13.3826 -14.8629 0
    endloop
  endfacet
  facet normal -0.587785 0.809017 0
    outer loop
      vertex 13.3826 -14.8629 10
      vertex 13.3826 -14.8629 0
      vertex 10 -17.3205 10
    endloop
  endfacet
  facet normal -0.587785 0.809017 0
    outer loop
      vertex 10 -17.3205 10
      vertex 13.3826 -14.8629 0
      vertex 10 -17.3205 0
    endloop
  endfacet
  facet normal -0.406737 0.913545 0
    outer loop
      vertex 10 -17.3205 10
      vertex 10 -17.3205 0
      vertex 6.18034 -19.0211 10
    endloop
  endfacet
  facet normal -0.406737 0.913545 0
    outer loop
      vertex 6.18034 -19.0211 10
      vertex 10 -17.3205 0
      vertex 6.18034 -19.0211 0
    endloop
  endfacet
  facet normal -0.207912 0.978148 0
    outer loop
      vertex 6.18034 -19.0211 10
      vertex 6.18034 -19.0211 0
      vertex 2.09057 -19.8904 10
    endloop
  endfacet
  facet normal -0.207912 0.978148 0
    outer loop
      vertex 2.09057 -19.8904 10
      vertex 6.18034 -19.0211 0
      vertex 2.09057 -19.8904 0
    endloop
  endfacet
  facet normal 0 1 0
    outer loop
      vertex 2.09057 -19.8904 10
      vertex 2.09057 -19.8904 0
      vertex -2.09057 -19.8904 10
    endloop
  endfacet
  facet normal 0 1 0
    outer loop
      vertex -2.09057 -19.8904 10
      vertex 2.09057 -19.8904 0
      vertex -2.09057 -19.8904 0
    endloop
  endfacet
  facet normal 0.207912 0.978148 0
    outer loop
      vertex -2.09057 -19.8904 10
      vertex -2.09057 -19.8904 0
      vertex -6.18034 -19.0211 10
    endloop
  endfacet
  facet normal 0.207912 0.978148 0
    outer loop
      vertex -6.18034 -19.0211 10
      vertex -2.09057 -19.8904 0
      vertex -6.18034 -19.0211 0
    endloop
  endfacet
  facet normal 0.406737 0.913545 0
    outer loop
      vertex -6.18034 -19.0211 10
      vertex -6.18034 -19.0211 0
      vertex -10 -17.3205 10
    endloop
  endfacet
  facet normal 0.406737 0.913545 0
    outer loop
      vertex -10 -17.3205 10
      vertex -6.18034 -19.0211 0
      vertex -10 -17.3205 0
    endloop
  endfacet
  facet normal 0.587785 0.809017 0
    outer loop
      vertex -10 -17.3205 10
      vertex -10 -17.3205 0
      vertex -13.3826 -14.8629 10
    endloop
  endfacet
  facet normal 0.587785 0.809017 0
    outer loop
      vertex -13.3826 -14.8629 10
      vertex -10 -17.3205 0
      vertex -13.3826 -14.8629 0
    endloop
  endfacet
  facet normal 0.743145 0.669131 0
    outer loop
      vertex -16.1803 -11.7557 10
      vertex -13.3826 -14.8629 10
      vertex -13.3826 -14.8629 0
    endloop
  endfacet
  facet normal 0.743145 0.669131 0
    outer loop
      vertex -16.1803 -11.7557 0
      vertex -16.1803 -11.7557 10
      vertex -13.3826 -14.8629 0
    endloop
  endfacet
  facet normal 0.866025 0.5 0
    outer loop
      vertex -18.2709 -8.13473 10
      vertex -16.1803 -11.7557 10
      vertex -16.1803 -11.7557 0
    endloop
  endfacet
  facet normal 0.866025 0.5 0
    outer loop
      vertex -18.2709 -8.13473 0
      vertex -18.2709 -8.13473 10
      vertex -16.1803 -11.7557 0
    endloop
  endfacet
  facet normal 0.951057 0.309017 0
    outer loop
      vertex -19.563 -4.15823 10
      vertex -18.2709 -8.13473 10
      vertex -18.2709 -8.13473 0
    endloop
  endfacet
  facet normal 0.951057 0.309017 0
    outer loop
      vertex -19.563 -4.15823 0
      vertex -19.563 -4.15823 10
      vertex -18.2709 -8.13473 0
    endloop
  endfacet
  facet normal 1 0 0
    outer loop
      vertex -1.80194 -26.1322 0
      vertex -1.80194 -26.1322 2
      vertex -1.80194 -27.8678 2
    endloop
  endfacet
  facet normal 1 0 0
    outer loop
      vertex -1.80194 -27.8678 0
      vertex -1.80194 -26.1322 0
      vertex -1.80194 -27.8678 2
    endloop
  endfacet
  facet normal 0.62349 -0.781831 0
    outer loop
      vertex -0.445042 -25.0501 0
      vertex -0.445042 -25.0501 2
      vertex -1.80194 -26.1322 2
    endloop
  endfacet
  facet normal 0.62349 -0.781831 0
    outer loop
      vertex -1.80194 -26.1322 0
      vertex -0.445042 -25.0501 0
      vertex -1.80194 -26.1322 2
    endloop
  endfacet
  facet normal -0.222521 -0.974928 0
    outer loop
      vertex 1.24698 -25.4363 0
      vertex 1.24698 -25.4363 2
      vertex -0.445042 -25.0501 2
    endloop
  endfacet
  facet normal -0.222521 -0.974928 0
    outer loop
      vertex -0.445042 -25.0501 0
      vertex 1.24698 -25.4363 0
      vertex -0.445042 -25.0501 2
    endloop
  endfacet
  facet normal -0.900969 -0.433884 0
    outer loop
      vertex 2 -27 2
      vertex 1.24698 -25.4363 2
      vertex 2 -27 0
    endloop
  endfacet
  facet normal -0.900969 -0.433884 0
    outer loop
      vertex 2 -27 0
      vertex 1.24698 -25.4363 2
      vertex 1.24698 -25.4363 0
    endloop
  endfacet
  facet normal -0.900969 0.433884 0
    outer loop
      vertex 2 -27 2
      vertex 2 -27 0
      vertex 1.24698 -28.5637 2
    endloop
  endfacet
  facet normal -0.900969 0.433884 0
    outer loop
      vertex 1.24698 -28.5637 2
      vertex 2 -27 0
      vertex 1.24698 -28.5637 0
    endloop
  endfacet
  facet normal -0.222521 0.974928 0
    outer loop
      vertex 1.24698 -28.5637 2
      vertex 1.24698 -28.5637 0
      vertex -0.445042 -28.9499 2
    endloop
  endfacet
  facet normal -0.222521 0.974928 0
    outer loop
      vertex -0.445042 -28.9499 2
      vertex 1.24698 -28.5637 0
      vertex -0.445042 -28.9499 0
    endloop
  endfacet
  facet normal 0.62349 0.781831 0
    outer loop
      vertex -0.445042 -28.9499 2
      vertex -0.445042 -28.9499 0
      vertex -1.80194 -27.8678 2
    endloop
  endfacet
  facet normal 0.62349 0.781831 0
    outer loop
      vertex -1.80194 -27.8678 2
      vertex -0.445042 -28.9499 0
      vertex -1.80194 -27.8678 0
    endloop
  endfacet
  facet normal 1 0 0
    outer loop
      vertex -1.80194 27.8678 0
      vertex -1.80194 27.8678 2
      vertex -1.80194 26.1322 2
    endloop
  endfacet
  facet normal 1 0 0
    outer loop
      vertex -1.80194 26.1322 0
      vertex -1.80194 27.8678 0
      vertex -1.80194 26.1322 2
    endloop
  endfacet
  facet normal 0.62349 -0.781831 0
    outer loop
      vertex -0.445042 28.9499 0
      vertex -0.445042 28.9499 2
      vertex -1.80194 27.8678 2
    endloop
  endfacet
  facet normal 0.62349 -0.781831 0
    outer loop
      vertex -1.80194 27.8678 0
      vertex -0.445042 28.9499 0
      vertex -1.80194 27.8678 2
    endloop
  endfacet
  facet normal -0.222521 -0.974928 0
    outer loop
      vertex 1.24698 28.5637 0
      vertex 1.24698 28.5637 2
      vertex -0.445042 28.9499 2
    endloop
  endfacet
  facet normal -0.222521 -0.974928 0
    outer loop
      vertex -0.445042 28.9499 0
      vertex 1.24698 28.5637 0
      vertex -0.445042 28.9499 2
    endloop
  endfacet
  facet normal -0.900969 -0.433884 0
    outer loop
      vertex 2 27 2
      vertex 1.24698 28.5637 2
      vertex 2 27 0
    endloop
  endfacet
  facet normal -0.900969 -0.433884 0
    outer loop
      vertex 2 27 0
      vertex 1.24698 28.5637 2
      vertex 1.24698 28.5637 0
    endloop
  endfacet
  facet normal -0.900969 0.433884 0
    outer loop
      vertex 2 27 2
      vertex 2 27 0
      vertex 1.24698 25.4363 2
    endloop
  endfacet
  facet normal -0.900969 0.433884 0
    outer loop
      vertex 1.24698 25.4363 2
      vertex 2 27 0
      vertex 1.24698 25.4363 0
    endloop
  endfacet
  facet normal -0.222521 0.974928 0
    outer loop
      vertex 1.24698 25.4363 2
      vertex 1.24698 25.4363 0
      vertex -0.445042 25.0501 2
    endloop
  endfacet
  facet normal -0.222521 0.974928 0
    outer loop
      vertex -0.445042 25.0501 2
      vertex 1.24698 25.4363 0
      vertex -0.445042 25.0501 0
    endloop
  endfacet
  facet normal 0.62349 0.781831 0
    outer loop
      vertex -0.445042 25.0501 2
      vertex -0.445042 25.0501 0
      vertex -1.80194 26.1322 2
    endloop
  endfacet
  facet normal 0.62349 0.781831 0
    outer loop
      vertex -1.80194 26.1322 2
      vertex -0.445042 25.0501 0
      vertex -1.80194 26.1322 0
    endloop
  endfacet
  facet normal 1 0 0
    outer loop
      vertex 25.1981 0.867767 0
      vertex 25.1981 0.867767 2
      vertex 25.1981 -0.867767 2
    endloop
  endfacet
  facet normal 1 0 0
    outer loop
      vertex 25.1981 -0.867767 0
      vertex 25.1981 0.867767 0
      vertex 25.1981 -0.867767 2
    endloop
  endfacet
  facet normal 0.62349 -0.781831 0
    outer loop
      vertex 26.555 1.94986 0
      vertex 26.555 1.94986 2
      vertex 25.1981 0.867767 2
    endloop
  endfacet
  facet normal 0.62349 -0.781831 0
    outer loop
      vertex 25.1981 0.867767 0
      vertex 26.555 1.94986 0
      vertex 25.1981 0.867767 2
    endloop
  endfacet
  facet normal -0.222521 -0.974928 0
    outer loop
      vertex 28.247 1.56366 0
      vertex 28.247 1.56366 2
      vertex 26.555 1.94986 2
    endloop
  endfacet
  facet normal -0.222521 -0.974928 0
    outer loop
      vertex 26.555 1.94986 0
      vertex 28.247 1.56366 0
      vertex 26.555 1.94986 2
    endloop
  endfacet
  facet normal -0.900969 -0.433884 0
    outer loop
      vertex 29 0 2
      vertex 28.247 1.56366 2
      vertex 29 0 0
    endloop
  endfacet
  facet normal -0.900969 -0.433884 0
    outer loop
      vertex 29 0 0
      vertex 28.247 1.56366 2
      vertex 28.247 1.56366 0
    endloop
  endfacet
  facet normal -0.900969 0.433884 0
    outer loop
      vertex 29 0 2
      vertex 29 0 0
      vertex 28.247 -1.56366 2
    endloop
  endfacet
  facet normal -0.900969 0.433884 0
    outer loop
      vertex 28.247 -1.56366 2
      vertex 29 0 0
      vertex 28.247 -1.56366 0
    endloop
  endfacet
  facet normal -0.222521 0.974928 0
    outer loop
      vertex 28.247 -1.56366 2
      vertex 28.247 -1.56366 0
      vertex 26.555 -1.94986 2
    endloop
  endfacet
  facet normal -0.222521 0.974928 0
    outer loop
      vertex 26.555 -1.94986 2
      vertex 28.247 -1.56366 0
      vertex 26.555 -1.94986 0
    endloop
  endfacet
  facet normal 0.62349 0.781831 0
    outer loop
      vertex 26.555 -1.94986 2
      vertex 26.555 -1.94986 0
      vertex 25.1981 -0.867767 2
    endloop
  endfacet
  facet normal 0.62349 0.781831 0
    outer loop
      vertex 25.1981 -0.867767 2
      vertex 26.555 -1.94986 0
      vertex 25.1981 -0.867767 0
    endloop
  endfacet
  facet normal 0 0 1
    outer loop
      vertex -34.2352 7.27691 10
      vertex -35 0 10
      vertex -34.2352 -7.27691 10
    endloop
  endfacet
  facet normal 0 0 1
    outer loop
      vertex -28.3156 -20.5725 10
      vertex -34.2352 7.27691 10
      vertex -31.9741 -14.2358 10
    endloop
  endfacet
  facet normal 0 0 1
    outer loop
      vertex -31.9741 -14.2358 10
      vertex -34.2352 7.27691 10
      vertex -34.2352 -7.27691 10
    endloop
  endfacet
  facet normal 0 0 1
    outer loop
      vertex -23.4196 -26.0101 10
      vertex -34.2352 7.27691 10
      vertex -28.3156 -20.5725 10
    endloop
  endfacet
  facet normal 0 0 1
    outer loop
      vertex -29.3444 -6.23735 10
      vertex -34.2352 7.27691 10
      vertex -23.4196 -26.0101 10
    endloop
  endfacet
  facet normal 0 0 1
    outer loop
      vertex 24.2705 -17.6336 10
      vertex 20.0739 -22.2943 10
      vertex 28.3156 -20.5725 10
    endloop
  endfacet
  facet normal 0 0 1
    outer loop
      vertex -29.3444 6.23735 10
      vertex -27.4064 12.2021 10
      vertex -34.2352 7.27691 10
    endloop
  endfacet
  facet normal 0 0 1
    outer loop
      vertex -3.13585 -29.8357 10
      vertex -9.27051 -28.5317 10
      vertex -3.6585 -34.8083 10
    endloop
  endfacet
  facet normal 0 0 1
    outer loop
      vertex 27.4064 12.2021 10
      vertex 29.3444 6.23735 10
      vertex 34.2352 7.27691 10
    endloop
  endfacet
  facet normal 0 0 1
    outer loop
      vertex 24.2705 17.6336 10
      vertex 27.4064 12.2021 10
      vertex 31.9741 14.2358 10
    endloop
  endfacet
  facet normal 0 0 1
    outer loop
      vertex 20.0739 22.2943 10
      vertex 24.2705 17.6336 10
      vertex 28.3156 20.5725 10
    endloop
  endfacet
  facet normal 0 0 1
    outer loop
      vertex 3.13585 29.8357 10
      vertex 9.27051 28.5317 10
      vertex 10.8156 33.287 10
    endloop
  endfacet
  facet normal 0 0 1
    outer loop
      vertex -9.27051 28.5317 10
      vertex -3.13585 29.8357 10
      vertex 3.6585 34.8083 10
    endloop
  endfacet
  facet normal 0 0 1
    outer loop
      vertex -17.5 30.3109 10
      vertex -34.2352 7.27691 10
      vertex -10.8156 33.287 10
    endloop
  endfacet
  facet normal 0 0 1
    outer loop
      vertex -23.4196 26.0101 10
      vertex -34.2352 7.27691 10
      vertex -17.5 30.3109 10
    endloop
  endfacet
  facet normal 0 0 1
    outer loop
      vertex -28.3156 20.5725 10
      vertex -34.2352 7.27691 10
      vertex -23.4196 26.0101 10
    endloop
  endfacet
  facet normal 0 0 1
    outer loop
      vertex -31.9741 14.2358 10
      vertex -34.2352 7.27691 10
      vertex -28.3156 20.5725 10
    endloop
  endfacet
  facet normal 0 0 1
    outer loop
      vertex -27.4064 -12.2021 10
      vertex -29.3444 -6.23735 10
      vertex -23.4196 -26.0101 10
    endloop
  endfacet
  facet normal 0 0 1
    outer loop
      vertex 27.4064 -12.2021 10
      vertex 24.2705 -17.6336 10
      vertex 31.9741 -14.2358 10
    endloop
  endfacet
  facet normal 0 0 1
    outer loop
      vertex 9.27051 28.5317 10
      vertex 15 25.9808 10
      vertex 17.5 30.3109 10
    endloop
  endfacet
  facet normal 0 0 1
    outer loop
      vertex -10.8156 33.287 10
      vertex -34.2352 7.27691 10
      vertex -24.2705 17.6336 10
    endloop
  endfacet
  facet normal 0 0 1
    outer loop
      vertex -10.8156 33.287 10
      vertex -20.0739 22.2943 10
      vertex -3.6585 34.8083 10
    endloop
  endfacet
  facet normal 0 0 1
    outer loop
      vertex -10.8156 33.287 10
      vertex -24.2705 17.6336 10
      vertex -20.0739 22.2943 10
    endloop
  endfacet
  facet normal 0 0 1
    outer loop
      vertex -20.0739 22.2943 10
      vertex -15 25.9808 10
      vertex -3.6585 34.8083 10
    endloop
  endfacet
  facet normal 0 0 1
    outer loop
      vertex -3.6585 34.8083 10
      vertex -9.27051 28.5317 10
      vertex 3.6585 34.8083 10
    endloop
  endfacet
  facet normal 0 0 1
    outer loop
      vertex -15 25.9808 10
      vertex -9.27051 28.5317 10
      vertex -3.6585 34.8083 10
    endloop
  endfacet
  facet normal 0 0 1
    outer loop
      vertex 3.6585 34.8083 10
      vertex -3.13585 29.8357 10
      vertex 10.8156 33.287 10
    endloop
  endfacet
  facet normal 0 0 1
    outer loop
      vertex -3.13585 29.8357 10
      vertex 3.13585 29.8357 10
      vertex 10.8156 33.287 10
    endloop
  endfacet
  facet normal 0 0 1
    outer loop
      vertex 10.8156 33.287 10
      vertex 9.27051 28.5317 10
      vertex 17.5 30.3109 10
    endloop
  endfacet
  facet normal 0 0 1
    outer loop
      vertex 29.3444 6.23735 10
      vertex 30 0 10
      vertex 35 0 10
    endloop
  endfacet
  facet normal 0 0 1
    outer loop
      vertex 17.5 30.3109 10
      vertex 15 25.9808 10
      vertex 23.4196 26.0101 10
    endloop
  endfacet
  facet normal 0 0 1
    outer loop
      vertex -27.4064 12.2021 10
      vertex -24.2705 17.6336 10
      vertex -34.2352 7.27691 10
    endloop
  endfacet
  facet normal 0 0 1
    outer loop
      vertex 23.4196 26.0101 10
      vertex 20.0739 22.2943 10
      vertex 28.3156 20.5725 10
    endloop
  endfacet
  facet normal 0 0 1
    outer loop
      vertex 28.3156 20.5725 10
      vertex 24.2705 17.6336 10
      vertex 31.9741 14.2358 10
    endloop
  endfacet
  facet normal 0 0 1
    outer loop
      vertex 31.9741 14.2358 10
      vertex 27.4064 12.2021 10
      vertex 34.2352 7.27691 10
    endloop
  endfacet
  facet normal 0 0 1
    outer loop
      vertex 34.2352 7.27691 10
      vertex 29.3444 6.23735 10
      vertex 35 0 10
    endloop
  endfacet
  facet normal 0 0 1
    outer loop
      vertex 35 0 10
      vertex 30 0 10
      vertex 34.2352 -7.27691 10
    endloop
  endfacet
  facet normal 0 0 1
    outer loop
      vertex 34.2352 -7.27691 10
      vertex 29.3444 -6.23735 10
      vertex 31.9741 -14.2358 10
    endloop
  endfacet
  facet normal 0 0 1
    outer loop
      vertex 15 25.9808 10
      vertex 20.0739 22.2943 10
      vertex 23.4196 26.0101 10
    endloop
  endfacet
  facet normal 0 0 1
    outer loop
      vertex 29.3444 -6.23735 10
      vertex 27.4064 -12.2021 10
      vertex 31.9741 -14.2358 10
    endloop
  endfacet
  facet normal 0 0 1
    outer loop
      vertex 31.9741 -14.2358 10
      vertex 24.2705 -17.6336 10
      vertex 28.3156 -20.5725 10
    endloop
  endfacet
  facet normal 0 0 1
    outer loop
      vertex 28.3156 -20.5725 10
      vertex 20.0739 -22.2943 10
      vertex 23.4196 -26.0101 10
    endloop
  endfacet
  facet normal 0 0 1
    outer loop
      vertex 23.4196 -26.0101 10
      vertex 15 -25.9808 10
      vertex 17.5 -30.3109 10
    endloop
  endfacet
  facet normal 0 0 1
    outer loop
      vertex 17.5 -30.3109 10
      vertex 9.27051 -28.5317 10
      vertex 10.8156 -33.287 10
    endloop
  endfacet
  facet normal 0 0 1
    outer loop
      vertex 10.8156 -33.287 10
      vertex 3.13585 -29.8357 10
      vertex 3.6585 -34.8083 10
    endloop
  endfacet
  facet normal 0 0 1
    outer loop
      vertex 30 0 10
      vertex 29.3444 -6.23735 10
      vertex 34.2352 -7.27691 10
    endloop
  endfacet
  facet normal 0 0 1
    outer loop
      vertex 3.6585 -34.8083 10
      vertex -3.13585 -29.8357 10
      vertex -3.6585 -34.8083 10
    endloop
  endfacet
  facet normal 0 0 1
    outer loop
      vertex -3.6585 -34.8083 10
      vertex -9.27051 -28.5317 10
      vertex -10.8156 -33.287 10
    endloop
  endfacet
  facet normal 0 0 1
    outer loop
      vertex -9.27051 -28.5317 10
      vertex -15 -25.9808 10
      vertex -10.8156 -33.287 10
    endloop
  endfacet
  facet normal 0 0 1
    outer loop
      vertex -10.8156 -33.287 10
      vertex -20.0739 -22.2943 10
      vertex -17.5 -30.3109 10
    endloop
  endfacet
  facet normal 0 0 1
    outer loop
      vertex -17.5 -30.3109 10
      vertex -24.2705 -17.6336 10
      vertex -23.4196 -26.0101 10
    endloop
  endfacet
  facet normal 0 0 1
    outer loop
      vertex -24.2705 -17.6336 10
      vertex -27.4064 -12.2021 10
      vertex -23.4196 -26.0101 10
    endloop
  endfacet
  facet normal 0 0 1
    outer loop
      vertex -29.3444 -6.23735 10
      vertex -30 0 10
      vertex -34.2352 7.27691 10
    endloop
  endfacet
  facet normal 0 0 1
    outer loop
      vertex 20.0739 -22.2943 10
      vertex 15 -25.9808 10
      vertex 23.4196 -26.0101 10
    endloop
  endfacet
  facet normal 0 0 1
    outer loop
      vertex 15 -25.9808 10
      vertex 9.27051 -28.5317 10
      vertex 17.5 -30.3109 10
    endloop
  endfacet
  facet normal 0 0 1
    outer loop
      vertex 9.27051 -28.5317 10
      vertex 3.13585 -29.8357 10
      vertex 10.8156 -33.287 10
    endloop
  endfacet
  facet normal 0 0 1
    outer loop
      vertex 3.13585 -29.8357 10
      vertex -3.13585 -29.8357 10
      vertex 3.6585 -34.8083 10
    endloop
  endfacet
  facet normal 0 0 1
    outer loop
      vertex -20.0739 -22.2943 10
      vertex -24.2705 -17.6336 10
      vertex -17.5 -30.3109 10
    endloop
  endfacet
  facet normal 0 0 1
    outer loop
      vertex -15 -25.9808 10
      vertex -20.0739 -22.2943 10
      vertex -10.8156 -33.287 10
    endloop
  endfacet
  facet normal 0 0 1
    outer loop
      vertex -30 0 10
      vertex -29.3444 6.23735 10
      vertex -34.2352 7.27691 10
    endloop
  endfacet
  facet normal 0 0 1
    outer loop
      vertex -29.3444 6.23735 2
      vertex -30 0 2
      vertex -29.3444 -6.23735 2
    endloop
  endfacet
  facet normal 0 0 1
    outer loop
      vertex -28.8019 0.867767 2
      vertex -27.445 1.94986 2
      vertex -29.3444 6.23735 2
    endloop
  endfacet
  facet normal 0 0 1
    outer loop
      vertex -28.8019 -0.867767 2
      vertex -29.3444 6.23735 2
      vertex -29.3444 -6.23735 2
    endloop
  endfacet
  facet normal 0 0 1
    outer loop
      vertex -25 0 2
      vertex -25.753 -1.56366 2
      vertex -24.4537 -5.19779 2
    endloop
  endfacet
  facet normal 0 0 1
    outer loop
      vertex 7.72542 -23.7764 2
      vertex 2.61321 -24.863 2
      vertex 9.27051 -28.5317 2
    endloop
  endfacet
  facet normal 0 0 1
    outer loop
      vertex 2.61321 -24.863 2
      vertex -2.61321 -24.863 2
      vertex -0.445042 -25.0501 2
    endloop
  endfacet
  facet normal 0 0 1
    outer loop
      vertex 24.4537 5.19779 2
      vertex 25 0 2
      vertex 25.1981 0.867767 2
    endloop
  endfacet
  facet normal 0 0 1
    outer loop
      vertex 2 27 2
      vertex 1.24698 25.4363 2
      vertex 9.27051 28.5317 2
    endloop
  endfacet
  facet normal 0 0 1
    outer loop
      vertex -15 25.9808 2
      vertex -29.3444 6.23735 2
      vertex -9.27051 28.5317 2
    endloop
  endfacet
  facet normal 0 0 1
    outer loop
      vertex -20.0739 22.2943 2
      vertex -29.3444 6.23735 2
      vertex -15 25.9808 2
    endloop
  endfacet
  facet normal 0 0 1
    outer loop
      vertex -24.2705 17.6336 2
      vertex -29.3444 6.23735 2
      vertex -20.0739 22.2943 2
    endloop
  endfacet
  facet normal 0 0 1
    outer loop
      vertex -27.4064 12.2021 2
      vertex -29.3444 6.23735 2
      vertex -24.2705 17.6336 2
    endloop
  endfacet
  facet normal 0 0 1
    outer loop
      vertex -27.4064 -12.2021 2
      vertex -28.8019 -0.867767 2
      vertex -29.3444 -6.23735 2
    endloop
  endfacet
  facet normal 0 0 1
    outer loop
      vertex -28.8019 0.867767 2
      vertex -29.3444 6.23735 2
      vertex -28.8019 -0.867767 2
    endloop
  endfacet
  facet normal 0 0 1
    outer loop
      vertex 1.24698 -28.5637 2
      vertex -0.445042 -28.9499 2
      vertex 3.13585 -29.8357 2
    endloop
  endfacet
  facet normal 0 0 1
    outer loop
      vertex -1.80194 -26.1322 2
      vertex -0.445042 -25.0501 2
      vertex -2.61321 -24.863 2
    endloop
  endfacet
  facet normal 0 0 1
    outer loop
      vertex -25.753 -1.56366 2
      vertex -20.0739 -22.2943 2
      vertex -22.8386 -10.1684 2
    endloop
  endfacet
  facet normal 0 0 1
    outer loop
      vertex 16.7283 -18.5786 2
      vertex 12.5 -21.6506 2
      vertex 20.0739 -22.2943 2
    endloop
  endfacet
  facet normal 0 0 1
    outer loop
      vertex 20.2254 -14.6946 2
      vertex 16.7283 -18.5786 2
      vertex 24.2705 -17.6336 2
    endloop
  endfacet
  facet normal 0 0 1
    outer loop
      vertex 7.72542 23.7764 2
      vertex 12.5 21.6506 2
      vertex 15 25.9808 2
    endloop
  endfacet
  facet normal 0 0 1
    outer loop
      vertex -9.27051 28.5317 2
      vertex -29.3444 6.23735 2
      vertex -20.2254 14.6946 2
    endloop
  endfacet
  facet normal 0 0 1
    outer loop
      vertex -9.27051 28.5317 2
      vertex -16.7283 18.5786 2
      vertex -3.13585 29.8357 2
    endloop
  endfacet
  facet normal 0 0 1
    outer loop
      vertex -9.27051 28.5317 2
      vertex -20.2254 14.6946 2
      vertex -16.7283 18.5786 2
    endloop
  endfacet
  facet normal 0 0 1
    outer loop
      vertex -16.7283 18.5786 2
      vertex -12.5 21.6506 2
      vertex -3.13585 29.8357 2
    endloop
  endfacet
  facet normal 0 0 1
    outer loop
      vertex -12.5 21.6506 2
      vertex -7.72542 23.7764 2
      vertex -3.13585 29.8357 2
    endloop
  endfacet
  facet normal 0 0 1
    outer loop
      vertex -1.80194 26.1322 2
      vertex -1.80194 27.8678 2
      vertex -7.72542 23.7764 2
    endloop
  endfacet
  facet normal 0 0 1
    outer loop
      vertex 1.24698 25.4363 2
      vertex 2.61321 24.863 2
      vertex 9.27051 28.5317 2
    endloop
  endfacet
  facet normal 0 0 1
    outer loop
      vertex 9.27051 28.5317 2
      vertex 7.72542 23.7764 2
      vertex 15 25.9808 2
    endloop
  endfacet
  facet normal 0 0 1
    outer loop
      vertex -25.753 -1.56366 2
      vertex -22.8386 -10.1684 2
      vertex -24.4537 -5.19779 2
    endloop
  endfacet
  facet normal 0 0 1
    outer loop
      vertex 15 25.9808 2
      vertex 12.5 21.6506 2
      vertex 20.0739 22.2943 2
    endloop
  endfacet
  facet normal 0 0 1
    outer loop
      vertex 20.0739 22.2943 2
      vertex 16.7283 18.5786 2
      vertex 24.2705 17.6336 2
    endloop
  endfacet
  facet normal 0 0 1
    outer loop
      vertex -22.8386 10.1684 2
      vertex -20.2254 14.6946 2
      vertex -29.3444 6.23735 2
    endloop
  endfacet
  facet normal 0 0 1
    outer loop
      vertex 24.2705 17.6336 2
      vertex 20.2254 14.6946 2
      vertex 27.4064 12.2021 2
    endloop
  endfacet
  facet normal 0 0 1
    outer loop
      vertex 27.4064 12.2021 2
      vertex 22.8386 10.1684 2
      vertex 29.3444 6.23735 2
    endloop
  endfacet
  facet normal 0 0 1
    outer loop
      vertex 29.3444 6.23735 2
      vertex 24.4537 5.19779 2
      vertex 30 0 2
    endloop
  endfacet
  facet normal 0 0 1
    outer loop
      vertex 30 0 2
      vertex 29 0 2
      vertex 29.3444 -6.23735 2
    endloop
  endfacet
  facet normal 0 0 1
    outer loop
      vertex 25.1981 -0.867767 2
      vertex 24.4537 -5.19779 2
      vertex 29.3444 -6.23735 2
    endloop
  endfacet
  facet normal 0 0 1
    outer loop
      vertex 29.3444 -6.23735 2
      vertex 22.8386 -10.1684 2
      vertex 27.4064 -12.2021 2
    endloop
  endfacet
  facet normal 0 0 1
    outer loop
      vertex 27.4064 -12.2021 2
      vertex 20.2254 -14.6946 2
      vertex 24.2705 -17.6336 2
    endloop
  endfacet
  facet normal 0 0 1
    outer loop
      vertex 12.5 21.6506 2
      vertex 16.7283 18.5786 2
      vertex 20.0739 22.2943 2
    endloop
  endfacet
  facet normal 0 0 1
    outer loop
      vertex 24.2705 -17.6336 2
      vertex 16.7283 -18.5786 2
      vertex 20.0739 -22.2943 2
    endloop
  endfacet
  facet normal 0 0 1
    outer loop
      vertex 16.7283 18.5786 2
      vertex 20.2254 14.6946 2
      vertex 24.2705 17.6336 2
    endloop
  endfacet
  facet normal 0 0 1
    outer loop
      vertex 20.0739 -22.2943 2
      vertex 12.5 -21.6506 2
      vertex 15 -25.9808 2
    endloop
  endfacet
  facet normal 0 0 1
    outer loop
      vertex 20.2254 14.6946 2
      vertex 22.8386 10.1684 2
      vertex 27.4064 12.2021 2
    endloop
  endfacet
  facet normal 0 0 1
    outer loop
      vertex 15 -25.9808 2
      vertex 7.72542 -23.7764 2
      vertex 9.27051 -28.5317 2
    endloop
  endfacet
  facet normal 0 0 1
    outer loop
      vertex 22.8386 10.1684 2
      vertex 24.4537 5.19779 2
      vertex 29.3444 6.23735 2
    endloop
  endfacet
  facet normal 0 0 1
    outer loop
      vertex 9.27051 -28.5317 2
      vertex 2.61321 -24.863 2
      vertex 3.13585 -29.8357 2
    endloop
  endfacet
  facet normal 0 0 1
    outer loop
      vertex -1.80194 -27.8678 2
      vertex -2.61321 -24.863 2
      vertex -3.13585 -29.8357 2
    endloop
  endfacet
  facet normal 0 0 1
    outer loop
      vertex 24.4537 -5.19779 2
      vertex 22.8386 -10.1684 2
      vertex 29.3444 -6.23735 2
    endloop
  endfacet
  facet normal 0 0 1
    outer loop
      vertex -3.13585 -29.8357 2
      vertex -7.72542 -23.7764 2
      vertex -9.27051 -28.5317 2
    endloop
  endfacet
  facet normal 0 0 1
    outer loop
      vertex -7.72542 -23.7764 2
      vertex -12.5 -21.6506 2
      vertex -9.27051 -28.5317 2
    endloop
  endfacet
  facet normal 0 0 1
    outer loop
      vertex -9.27051 -28.5317 2
      vertex -16.7283 -18.5786 2
      vertex -15 -25.9808 2
    endloop
  endfacet
  facet normal 0 0 1
    outer loop
      vertex 12.5 -21.6506 2
      vertex 7.72542 -23.7764 2
      vertex 15 -25.9808 2
    endloop
  endfacet
  facet normal 0 0 1
    outer loop
      vertex -15 -25.9808 2
      vertex -20.2254 -14.6946 2
      vertex -20.0739 -22.2943 2
    endloop
  endfacet
  facet normal 0 0 1
    outer loop
      vertex -20.2254 -14.6946 2
      vertex -22.8386 -10.1684 2
      vertex -20.0739 -22.2943 2
    endloop
  endfacet
  facet normal 0 0 1
    outer loop
      vertex -0.445042 25.0501 2
      vertex -1.80194 26.1322 2
      vertex -2.61321 24.863 2
    endloop
  endfacet
  facet normal 0 0 1
    outer loop
      vertex 2 -27 2
      vertex 1.24698 -28.5637 2
      vertex 3.13585 -29.8357 2
    endloop
  endfacet
  facet normal 0 0 1
    outer loop
      vertex -20.0739 -22.2943 2
      vertex -27.445 -1.94986 2
      vertex -24.2705 -17.6336 2
    endloop
  endfacet
  facet normal 0 0 1
    outer loop
      vertex -25.753 -1.56366 2
      vertex -27.445 -1.94986 2
      vertex -20.0739 -22.2943 2
    endloop
  endfacet
  facet normal 0 0 1
    outer loop
      vertex -0.445042 -28.9499 2
      vertex -1.80194 -27.8678 2
      vertex -3.13585 -29.8357 2
    endloop
  endfacet
  facet normal 0 0 1
    outer loop
      vertex -1.80194 -26.1322 2
      vertex -2.61321 -24.863 2
      vertex -1.80194 -27.8678 2
    endloop
  endfacet
  facet normal 0 0 1
    outer loop
      vertex 2.61321 -24.863 2
      vertex -0.445042 -25.0501 2
      vertex 1.24698 -25.4363 2
    endloop
  endfacet
  facet normal 0 0 1
    outer loop
      vertex 2.61321 -24.863 2
      vertex 2 -27 2
      vertex 3.13585 -29.8357 2
    endloop
  endfacet
  facet normal 0 0 1
    outer loop
      vertex 2.61321 -24.863 2
      vertex 1.24698 -25.4363 2
      vertex 2 -27 2
    endloop
  endfacet
  facet normal 0 0 1
    outer loop
      vertex 26.555 -1.94986 2
      vertex 25.1981 -0.867767 2
      vertex 29.3444 -6.23735 2
    endloop
  endfacet
  facet normal 0 0 1
    outer loop
      vertex 3.13585 -29.8357 2
      vertex -0.445042 -28.9499 2
      vertex -3.13585 -29.8357 2
    endloop
  endfacet
  facet normal 0 0 1
    outer loop
      vertex 2.61321 24.863 2
      vertex 7.72542 23.7764 2
      vertex 9.27051 28.5317 2
    endloop
  endfacet
  facet normal 0 0 1
    outer loop
      vertex -7.72542 23.7764 2
      vertex -2.61321 24.863 2
      vertex -1.80194 26.1322 2
    endloop
  endfacet
  facet normal 0 0 1
    outer loop
      vertex 1.24698 28.5637 2
      vertex 2 27 2
      vertex 3.13585 29.8357 2
    endloop
  endfacet
  facet normal 0 0 1
    outer loop
      vertex -3.13585 29.8357 2
      vertex -7.72542 23.7764 2
      vertex -1.80194 27.8678 2
    endloop
  endfacet
  facet normal 0 0 1
    outer loop
      vertex -3.13585 29.8357 2
      vertex -0.445042 28.9499 2
      vertex 3.13585 29.8357 2
    endloop
  endfacet
  facet normal 0 0 1
    outer loop
      vertex -3.13585 29.8357 2
      vertex -1.80194 27.8678 2
      vertex -0.445042 28.9499 2
    endloop
  endfacet
  facet normal 0 0 1
    outer loop
      vertex -0.445042 28.9499 2
      vertex 1.24698 28.5637 2
      vertex 3.13585 29.8357 2
    endloop
  endfacet
  facet normal 0 0 1
    outer loop
      vertex 3.13585 29.8357 2
      vertex 2 27 2
      vertex 9.27051 28.5317 2
    endloop
  endfacet
  facet normal 0 0 1
    outer loop
      vertex 25.1981 -0.867767 2
      vertex 25.1981 0.867767 2
      vertex 25 0 2
    endloop
  endfacet
  facet normal 0 0 1
    outer loop
      vertex -0.445042 25.0501 2
      vertex 2.61321 24.863 2
      vertex 1.24698 25.4363 2
    endloop
  endfacet
  facet normal 0 0 1
    outer loop
      vertex -2.61321 24.863 2
      vertex 2.61321 24.863 2
      vertex -0.445042 25.0501 2
    endloop
  endfacet
  facet normal 0 0 1
    outer loop
      vertex 25 0 2
      vertex 24.4537 -5.19779 2
      vertex 25.1981 -0.867767 2
    endloop
  endfacet
  facet normal 0 0 1
    outer loop
      vertex 24.4537 5.19779 2
      vertex 25.1981 0.867767 2
      vertex 26.555 1.94986 2
    endloop
  endfacet
  facet normal 0 0 1
    outer loop
      vertex 24.4537 5.19779 2
      vertex 28.247 1.56366 2
      vertex 30 0 2
    endloop
  endfacet
  facet normal 0 0 1
    outer loop
      vertex 24.4537 5.19779 2
      vertex 26.555 1.94986 2
      vertex 28.247 1.56366 2
    endloop
  endfacet
  facet normal 0 0 1
    outer loop
      vertex 28.247 1.56366 2
      vertex 29 0 2
      vertex 30 0 2
    endloop
  endfacet
  facet normal 0 0 1
    outer loop
      vertex 29.3444 -6.23735 2
      vertex 29 0 2
      vertex 28.247 -1.56366 2
    endloop
  endfacet
  facet normal 0 0 1
    outer loop
      vertex 29.3444 -6.23735 2
      vertex 28.247 -1.56366 2
      vertex 26.555 -1.94986 2
    endloop
  endfacet
  facet normal 0 0 1
    outer loop
      vertex -27.445 -1.94986 2
      vertex -27.4064 -12.2021 2
      vertex -24.2705 -17.6336 2
    endloop
  endfacet
  facet normal 0 0 1
    outer loop
      vertex -27.445 -1.94986 2
      vertex -28.8019 -0.867767 2
      vertex -27.4064 -12.2021 2
    endloop
  endfacet
  facet normal 0 0 1
    outer loop
      vertex -27.445 1.94986 2
      vertex -25.753 1.56366 2
      vertex -29.3444 6.23735 2
    endloop
  endfacet
  facet normal 0 0 1
    outer loop
      vertex -2.61321 -24.863 2
      vertex -7.72542 -23.7764 2
      vertex -3.13585 -29.8357 2
    endloop
  endfacet
  facet normal 0 0 1
    outer loop
      vertex -16.7283 -18.5786 2
      vertex -20.2254 -14.6946 2
      vertex -15 -25.9808 2
    endloop
  endfacet
  facet normal 0 0 1
    outer loop
      vertex -12.5 -21.6506 2
      vertex -16.7283 -18.5786 2
      vertex -9.27051 -28.5317 2
    endloop
  endfacet
  facet normal 0 0 1
    outer loop
      vertex -25.753 1.56366 2
      vertex -24.4537 5.19779 2
      vertex -29.3444 6.23735 2
    endloop
  endfacet
  facet normal 0 0 1
    outer loop
      vertex -25 0 2
      vertex -24.4537 5.19779 2
      vertex -25.753 1.56366 2
    endloop
  endfacet
  facet normal 0 0 1
    outer loop
      vertex 22.8386 -10.1684 2
      vertex 20.2254 -14.6946 2
      vertex 27.4064 -12.2021 2
    endloop
  endfacet
  facet normal 0 0 1
    outer loop
      vertex -24.4537 5.19779 2
      vertex -22.8386 10.1684 2
      vertex -29.3444 6.23735 2
    endloop
  endfacet
  facet normal -0.994522 0.104528 0
    outer loop
      vertex -24.4537 5.19779 10
      vertex -24.4537 5.19779 2
      vertex -25 0 10
    endloop
  endfacet
  facet normal -0.994522 0.104528 0
    outer loop
      vertex -25 0 10
      vertex -24.4537 5.19779 2
      vertex -25 0 2
    endloop
  endfacet
  facet normal -0.994522 -0.104528 0
    outer loop
      vertex -25 0 2
      vertex -24.4537 -5.19779 2
      vertex -25 0 10
    endloop
  endfacet
  facet normal -0.994522 -0.104528 0
    outer loop
      vertex -25 0 10
      vertex -24.4537 -5.19779 2
      vertex -24.4537 -5.19779 10
    endloop
  endfacet
  facet normal 0 0 1
    outer loop
      vertex -24.4537 5.19779 10
      vertex -25 0 10
      vertex -24.4537 -5.19779 10
    endloop
  endfacet
  facet normal 0 0 1
    outer loop
      vertex -20.2254 -14.6946 10
      vertex -24.4537 5.19779 10
      vertex -22.8386 -10.1684 10
    endloop
  endfacet
  facet normal 0 0 1
    outer loop
      vertex -22.8386 -10.1684 10
      vertex -24.4537 5.19779 10
      vertex -24.4537 -5.19779 10
    endloop
  endfacet
  facet normal 0 0 1
    outer loop
      vertex -16.7283 -18.5786 10
      vertex -24.4537 5.19779 10
      vertex -20.2254 -14.6946 10
    endloop
  endfacet
  facet normal 0 0 1
    outer loop
      vertex -12.5 -21.6506 10
      vertex -24.4537 5.19779 10
      vertex -16.7283 -18.5786 10
    endloop
  endfacet
  facet normal 0 0 1
    outer loop
      vertex -18.2709 -8.13473 10
      vertex -24.4537 5.19779 10
      vertex -12.5 -21.6506 10
    endloop
  endfacet
  facet normal 0 0 1
    outer loop
      vertex 16.1803 -11.7557 10
      vertex 13.3826 -14.8629 10
      vertex 20.2254 -14.6946 10
    endloop
  endfacet
  facet normal 0 0 1
    outer loop
      vertex -19.563 4.15823 10
      vertex -18.2709 8.13473 10
      vertex -24.4537 5.19779 10
    endloop
  endfacet
  facet normal 0 0 1
    outer loop
      vertex 2.09057 -19.8904 10
      vertex -2.09057 -19.8904 10
      vertex 2.61321 -24.863 10
    endloop
  endfacet
  facet normal 0 0 1
    outer loop
      vertex 18.2709 8.13473 10
      vertex 19.563 4.15823 10
      vertex 24.4537 5.19779 10
    endloop
  endfacet
  facet normal 0 0 1
    outer loop
      vertex 16.1803 11.7557 10
      vertex 18.2709 8.13473 10
      vertex 22.8386 10.1684 10
    endloop
  endfacet
  facet normal 0 0 1
    outer loop
      vertex 6.18034 19.0211 10
      vertex 10 17.3205 10
      vertex 12.5 21.6506 10
    endloop
  endfacet
  facet normal 0 0 1
    outer loop
      vertex -2.09057 19.8904 10
      vertex 2.09057 19.8904 10
      vertex 7.72542 23.7764 10
    endloop
  endfacet
  facet normal 0 0 1
    outer loop
      vertex -7.72542 23.7764 10
      vertex -24.4537 5.19779 10
      vertex -2.61321 24.863 10
    endloop
  endfacet
  facet normal 0 0 1
    outer loop
      vertex -12.5 21.6506 10
      vertex -24.4537 5.19779 10
      vertex -7.72542 23.7764 10
    endloop
  endfacet
  facet normal 0 0 1
    outer loop
      vertex -16.7283 18.5786 10
      vertex -24.4537 5.19779 10
      vertex -12.5 21.6506 10
    endloop
  endfacet
  facet normal 0 0 1
    outer loop
      vertex -20.2254 14.6946 10
      vertex -24.4537 5.19779 10
      vertex -16.7283 18.5786 10
    endloop
  endfacet
  facet normal 0 0 1
    outer loop
      vertex -22.8386 10.1684 10
      vertex -24.4537 5.19779 10
      vertex -20.2254 14.6946 10
    endloop
  endfacet
  facet normal 0 0 1
    outer loop
      vertex 18.2709 -8.13473 10
      vertex 16.1803 -11.7557 10
      vertex 22.8386 -10.1684 10
    endloop
  endfacet
  facet normal 0 0 1
    outer loop
      vertex 10 17.3205 10
      vertex 13.3826 14.8629 10
      vertex 16.7283 18.5786 10
    endloop
  endfacet
  facet normal 0 0 1
    outer loop
      vertex -13.3826 14.8629 10
      vertex -24.4537 5.19779 10
      vertex -16.1803 11.7557 10
    endloop
  endfacet
  facet normal 0 0 1
    outer loop
      vertex -6.18034 19.0211 10
      vertex -2.09057 19.8904 10
      vertex 2.61321 24.863 10
    endloop
  endfacet
  facet normal 0 0 1
    outer loop
      vertex -2.61321 24.863 10
      vertex -24.4537 5.19779 10
      vertex -13.3826 14.8629 10
    endloop
  endfacet
  facet normal 0 0 1
    outer loop
      vertex -2.61321 24.863 10
      vertex -10 17.3205 10
      vertex 2.61321 24.863 10
    endloop
  endfacet
  facet normal 0 0 1
    outer loop
      vertex -10 17.3205 10
      vertex -6.18034 19.0211 10
      vertex 2.61321 24.863 10
    endloop
  endfacet
  facet normal 0 0 1
    outer loop
      vertex 2.61321 24.863 10
      vertex -2.09057 19.8904 10
      vertex 7.72542 23.7764 10
    endloop
  endfacet
  facet normal 0 0 1
    outer loop
      vertex -13.3826 14.8629 10
      vertex -10 17.3205 10
      vertex -2.61321 24.863 10
    endloop
  endfacet
  facet normal 0 0 1
    outer loop
      vertex 7.72542 23.7764 10
      vertex 2.09057 19.8904 10
      vertex 12.5 21.6506 10
    endloop
  endfacet
  facet normal 0 0 1
    outer loop
      vertex 2.09057 19.8904 10
      vertex 6.18034 19.0211 10
      vertex 12.5 21.6506 10
    endloop
  endfacet
  facet normal 0 0 1
    outer loop
      vertex 12.5 21.6506 10
      vertex 10 17.3205 10
      vertex 16.7283 18.5786 10
    endloop
  endfacet
  facet normal 0 0 1
    outer loop
      vertex 19.563 4.15823 10
      vertex 20 0 10
      vertex 25 0 10
    endloop
  endfacet
  facet normal 0 0 1
    outer loop
      vertex 16.7283 18.5786 10
      vertex 13.3826 14.8629 10
      vertex 20.2254 14.6946 10
    endloop
  endfacet
  facet normal 0 0 1
    outer loop
      vertex -18.2709 8.13473 10
      vertex -16.1803 11.7557 10
      vertex -24.4537 5.19779 10
    endloop
  endfacet
  facet normal 0 0 1
    outer loop
      vertex 20.2254 14.6946 10
      vertex 16.1803 11.7557 10
      vertex 22.8386 10.1684 10
    endloop
  endfacet
  facet normal 0 0 1
    outer loop
      vertex 22.8386 10.1684 10
      vertex 18.2709 8.13473 10
      vertex 24.4537 5.19779 10
    endloop
  endfacet
  facet normal 0 0 1
    outer loop
      vertex 24.4537 5.19779 10
      vertex 19.563 4.15823 10
      vertex 25 0 10
    endloop
  endfacet
  facet normal 0 0 1
    outer loop
      vertex 25 0 10
      vertex 20 0 10
      vertex 24.4537 -5.19779 10
    endloop
  endfacet
  facet normal 0 0 1
    outer loop
      vertex 24.4537 -5.19779 10
      vertex 19.563 -4.15823 10
      vertex 22.8386 -10.1684 10
    endloop
  endfacet
  facet normal 0 0 1
    outer loop
      vertex 13.3826 14.8629 10
      vertex 16.1803 11.7557 10
      vertex 20.2254 14.6946 10
    endloop
  endfacet
  facet normal 0 0 1
    outer loop
      vertex 19.563 -4.15823 10
      vertex 18.2709 -8.13473 10
      vertex 22.8386 -10.1684 10
    endloop
  endfacet
  facet normal 0 0 1
    outer loop
      vertex 22.8386 -10.1684 10
      vertex 16.1803 -11.7557 10
      vertex 20.2254 -14.6946 10
    endloop
  endfacet
  facet normal 0 0 1
    outer loop
      vertex 20.2254 -14.6946 10
      vertex 13.3826 -14.8629 10
      vertex 16.7283 -18.5786 10
    endloop
  endfacet
  facet normal 0 0 1
    outer loop
      vertex 16.7283 -18.5786 10
      vertex 10 -17.3205 10
      vertex 12.5 -21.6506 10
    endloop
  endfacet
  facet normal 0 0 1
    outer loop
      vertex 12.5 -21.6506 10
      vertex 6.18034 -19.0211 10
      vertex 7.72542 -23.7764 10
    endloop
  endfacet
  facet normal 0 0 1
    outer loop
      vertex 20 0 10
      vertex 19.563 -4.15823 10
      vertex 24.4537 -5.19779 10
    endloop
  endfacet
  facet normal 0 0 1
    outer loop
      vertex 7.72542 -23.7764 10
      vertex 2.09057 -19.8904 10
      vertex 2.61321 -24.863 10
    endloop
  endfacet
  facet normal 0 0 1
    outer loop
      vertex 2.61321 -24.863 10
      vertex -2.09057 -19.8904 10
      vertex -2.61321 -24.863 10
    endloop
  endfacet
  facet normal 0 0 1
    outer loop
      vertex -2.09057 -19.8904 10
      vertex -6.18034 -19.0211 10
      vertex -2.61321 -24.863 10
    endloop
  endfacet
  facet normal 0 0 1
    outer loop
      vertex -2.61321 -24.863 10
      vertex -10 -17.3205 10
      vertex -7.72542 -23.7764 10
    endloop
  endfacet
  facet normal 0 0 1
    outer loop
      vertex -7.72542 -23.7764 10
      vertex -13.3826 -14.8629 10
      vertex -12.5 -21.6506 10
    endloop
  endfacet
  facet normal 0 0 1
    outer loop
      vertex -13.3826 -14.8629 10
      vertex -16.1803 -11.7557 10
      vertex -12.5 -21.6506 10
    endloop
  endfacet
  facet normal 0 0 1
    outer loop
      vertex -19.563 -4.15823 10
      vertex -24.4537 5.19779 10
      vertex -18.2709 -8.13473 10
    endloop
  endfacet
  facet normal 0 0 1
    outer loop
      vertex -16.1803 -11.7557 10
      vertex -18.2709 -8.13473 10
      vertex -12.5 -21.6506 10
    endloop
  endfacet
  facet normal 0 0 1
    outer loop
      vertex -19.563 -4.15823 10
      vertex -20 0 10
      vertex -24.4537 5.19779 10
    endloop
  endfacet
  facet normal 0 0 1
    outer loop
      vertex 13.3826 -14.8629 10
      vertex 10 -17.3205 10
      vertex 16.7283 -18.5786 10
    endloop
  endfacet
  facet normal 0 0 1
    outer loop
      vertex 10 -17.3205 10
      vertex 6.18034 -19.0211 10
      vertex 12.5 -21.6506 10
    endloop
  endfacet
  facet normal 0 0 1
    outer loop
      vertex 6.18034 -19.0211 10
      vertex 2.09057 -19.8904 10
      vertex 7.72542 -23.7764 10
    endloop
  endfacet
  facet normal 0 0 1
    outer loop
      vertex -10 -17.3205 10
      vertex -13.3826 -14.8629 10
      vertex -7.72542 -23.7764 10
    endloop
  endfacet
  facet normal 0 0 1
    outer loop
      vertex -6.18034 -19.0211 10
      vertex -10 -17.3205 10
      vertex -2.61321 -24.863 10
    endloop
  endfacet
  facet normal 0 0 1
    outer loop
      vertex -20 0 10
      vertex -19.563 4.15823 10
      vertex -24.4537 5.19779 10
    endloop
  endfacet
  facet normal 0.994522 0.104528 0
    outer loop
      vertex -30 0 10
      vertex -29.3444 -6.23735 10
      vertex -29.3444 -6.23735 2
    endloop
  endfacet
  facet normal 0.994522 0.104528 0
    outer loop
      vertex -30 0 2
      vertex -30 0 10
      vertex -29.3444 -6.23735 2
    endloop
  endfacet
  facet normal 0.951057 0.309017 0
    outer loop
      vertex -29.3444 -6.23735 10
      vertex -27.4064 -12.2021 10
      vertex -27.4064 -12.2021 2
    endloop
  endfacet
  facet normal 0.951057 0.309017 0
    outer loop
      vertex -29.3444 -6.23735 2
      vertex -29.3444 -6.23735 10
      vertex -27.4064 -12.2021 2
    endloop
  endfacet
  facet normal 0.866025 0.5 0
    outer loop
      vertex -27.4064 -12.2021 10
      vertex -24.2705 -17.6336 10
      vertex -24.2705 -17.6336 2
    endloop
  endfacet
  facet normal 0.866025 0.5 0
    outer loop
      vertex -27.4064 -12.2021 2
      vertex -27.4064 -12.2021 10
      vertex -24.2705 -17.6336 2
    endloop
  endfacet
  facet normal 0.743145 0.669131 0
    outer loop
      vertex -24.2705 -17.6336 10
      vertex -20.0739 -22.2943 10
      vertex -20.0739 -22.2943 2
    endloop
  endfacet
  facet normal 0.743145 0.669131 0
    outer loop
      vertex -24.2705 -17.6336 2
      vertex -24.2705 -17.6336 10
      vertex -20.0739 -22.2943 2
    endloop
  endfacet
  facet normal 0.587785 0.809017 0
    outer loop
      vertex -15 -25.9808 10
      vertex -15 -25.9808 2
      vertex -20.0739 -22.2943 10
    endloop
  endfacet
  facet normal 0.587785 0.809017 0
    outer loop
      vertex -20.0739 -22.2943 10
      vertex -15 -25.9808 2
      vertex -20.0739 -22.2943 2
    endloop
  endfacet
  facet normal 0.406737 0.913545 0
    outer loop
      vertex -9.27051 -28.5317 10
      vertex -9.27051 -28.5317 2
      vertex -15 -25.9808 10
    endloop
  endfacet
  facet normal 0.406737 0.913545 0
    outer loop
      vertex -15 -25.9808 10
      vertex -9.27051 -28.5317 2
      vertex -15 -25.9808 2
    endloop
  endfacet
  facet normal 0.207912 0.978148 0
    outer loop
      vertex -3.13585 -29.8357 10
      vertex -3.13585 -29.8357 2
      vertex -9.27051 -28.5317 10
    endloop
  endfacet
  facet normal 0.207912 0.978148 0
    outer loop
      vertex -9.27051 -28.5317 10
      vertex -3.13585 -29.8357 2
      vertex -9.27051 -28.5317 2
    endloop
  endfacet
  facet normal 0 1 0
    outer loop
      vertex 3.13585 -29.8357 10
      vertex 3.13585 -29.8357 2
      vertex -3.13585 -29.8357 10
    endloop
  endfacet
  facet normal 0 1 0
    outer loop
      vertex -3.13585 -29.8357 10
      vertex 3.13585 -29.8357 2
      vertex -3.13585 -29.8357 2
    endloop
  endfacet
  facet normal -0.207912 0.978148 0
    outer loop
      vertex 9.27051 -28.5317 10
      vertex 9.27051 -28.5317 2
      vertex 3.13585 -29.8357 10
    endloop
  endfacet
  facet normal -0.207912 0.978148 0
    outer loop
      vertex 3.13585 -29.8357 10
      vertex 9.27051 -28.5317 2
      vertex 3.13585 -29.8357 2
    endloop
  endfacet
  facet normal -0.406737 0.913545 0
    outer loop
      vertex 15 -25.9808 10
      vertex 15 -25.9808 2
      vertex 9.27051 -28.5317 10
    endloop
  endfacet
  facet normal -0.406737 0.913545 0
    outer loop
      vertex 9.27051 -28.5317 10
      vertex 15 -25.9808 2
      vertex 9.27051 -28.5317 2
    endloop
  endfacet
  facet normal -0.587785 0.809017 0
    outer loop
      vertex 20.0739 -22.2943 10
      vertex 20.0739 -22.2943 2
      vertex 15 -25.9808 10
    endloop
  endfacet
  facet normal -0.587785 0.809017 0
    outer loop
      vertex 15 -25.9808 10
      vertex 20.0739 -22.2943 2
      vertex 15 -25.9808 2
    endloop
  endfacet
  facet normal -0.743145 0.669131 0
    outer loop
      vertex 24.2705 -17.6336 10
      vertex 24.2705 -17.6336 2
      vertex 20.0739 -22.2943 10
    endloop
  endfacet
  facet normal -0.743145 0.669131 0
    outer loop
      vertex 20.0739 -22.2943 10
      vertex 24.2705 -17.6336 2
      vertex 20.0739 -22.2943 2
    endloop
  endfacet
  facet normal -0.866025 0.5 0
    outer loop
      vertex 27.4064 -12.2021 10
      vertex 27.4064 -12.2021 2
      vertex 24.2705 -17.6336 10
    endloop
  endfacet
  facet normal -0.866025 0.5 0
    outer loop
      vertex 24.2705 -17.6336 10
      vertex 27.4064 -12.2021 2
      vertex 24.2705 -17.6336 2
    endloop
  endfacet
  facet normal -0.951057 0.309017 0
    outer loop
      vertex 29.3444 -6.23735 10
      vertex 29.3444 -6.23735 2
      vertex 27.4064 -12.2021 10
    endloop
  endfacet
  facet normal -0.951057 0.309017 0
    outer loop
      vertex 27.4064 -12.2021 10
      vertex 29.3444 -6.23735 2
      vertex 27.4064 -12.2021 2
    endloop
  endfacet
  facet normal -0.994522 0.104528 0
    outer loop
      vertex 30 0 10
      vertex 30 0 2
      vertex 29.3444 -6.23735 10
    endloop
  endfacet
  facet normal -0.994522 0.104528 0
    outer loop
      vertex 29.3444 -6.23735 10
      vertex 30 0 2
      vertex 29.3444 -6.23735 2
    endloop
  endfacet
  facet normal -0.994522 -0.104528 0
    outer loop
      vertex 30 0 10
      vertex 29.3444 6.23735 10
      vertex 30 0 2
    endloop
  endfacet
  facet normal -0.994522 -0.104528 0
    outer loop
      vertex 30 0 2
      vertex 29.3444 6.23735 10
      vertex 29.3444 6.23735 2
    endloop
  endfacet
  facet normal -0.951057 -0.309017 0
    outer loop
      vertex 29.3444 6.23735 10
      vertex 27.4064 12.2021 10
      vertex 29.3444 6.23735 2
    endloop
  endfacet
  facet normal -0.951057 -0.309017 0
    outer loop
      vertex 29.3444 6.23735 2
      vertex 27.4064 12.2021 10
      vertex 27.4064 12.2021 2
    endloop
  endfacet
  facet normal -0.866025 -0.5 0
    outer loop
      vertex 27.4064 12.2021 10
      vertex 24.2705 17.6336 10
      vertex 27.4064 12.2021 2
    endloop
  endfacet
  facet normal -0.866025 -0.5 0
    outer loop
      vertex 27.4064 12.2021 2
      vertex 24.2705 17.6336 10
      vertex 24.2705 17.6336 2
    endloop
  endfacet
  facet normal -0.743145 -0.669131 0
    outer loop
      vertex 24.2705 17.6336 10
      vertex 20.0739 22.2943 10
      vertex 24.2705 17.6336 2
    endloop
  endfacet
  facet normal -0.743145 -0.669131 0
    outer loop
      vertex 24.2705 17.6336 2
      vertex 20.0739 22.2943 10
      vertex 20.0739 22.2943 2
    endloop
  endfacet
  facet normal -0.587785 -0.809017 0
    outer loop
      vertex 20.0739 22.2943 2
      vertex 20.0739 22.2943 10
      vertex 15 25.9808 10
    endloop
  endfacet
  facet normal -0.587785 -0.809017 0
    outer loop
      vertex 15 25.9808 2
      vertex 20.0739 22.2943 2
      vertex 15 25.9808 10
    endloop
  endfacet
  facet normal -0.406737 -0.913545 0
    outer loop
      vertex 15 25.9808 2
      vertex 15 25.9808 10
      vertex 9.27051 28.5317 10
    endloop
  endfacet
  facet normal -0.406737 -0.913545 0
    outer loop
      vertex 9.27051 28.5317 2
      vertex 15 25.9808 2
      vertex 9.27051 28.5317 10
    endloop
  endfacet
  facet normal -0.207912 -0.978148 0
    outer loop
      vertex 9.27051 28.5317 2
      vertex 9.27051 28.5317 10
      vertex 3.13585 29.8357 10
    endloop
  endfacet
  facet normal -0.207912 -0.978148 0
    outer loop
      vertex 3.13585 29.8357 2
      vertex 9.27051 28.5317 2
      vertex 3.13585 29.8357 10
    endloop
  endfacet
  facet normal 0 -1 0
    outer loop
      vertex 3.13585 29.8357 2
      vertex 3.13585 29.8357 10
      vertex -3.13585 29.8357 10
    endloop
  endfacet
  facet normal 0 -1 0
    outer loop
      vertex -3.13585 29.8357 2
      vertex 3.13585 29.8357 2
      vertex -3.13585 29.8357 10
    endloop
  endfacet
  facet normal 0.207912 -0.978148 0
    outer loop
      vertex -3.13585 29.8357 2
      vertex -3.13585 29.8357 10
      vertex -9.27051 28.5317 10
    endloop
  endfacet
  facet normal 0.207912 -0.978148 0
    outer loop
      vertex -9.27051 28.5317 2
      vertex -3.13585 29.8357 2
      vertex -9.27051 28.5317 10
    endloop
  endfacet
  facet normal 0.406737 -0.913545 0
    outer loop
      vertex -9.27051 28.5317 2
      vertex -9.27051 28.5317 10
      vertex -15 25.9808 10
    endloop
  endfacet
  facet normal 0.406737 -0.913545 0
    outer loop
      vertex -15 25.9808 2
      vertex -9.27051 28.5317 2
      vertex -15 25.9808 10
    endloop
  endfacet
  facet normal 0.587785 -0.809017 0
    outer loop
      vertex -15 25.9808 2
      vertex -15 25.9808 10
      vertex -20.0739 22.2943 10
    endloop
  endfacet
  facet normal 0.587785 -0.809017 0
    outer loop
      vertex -20.0739 22.2943 2
      vertex -15 25.9808 2
      vertex -20.0739 22.2943 10
    endloop
  endfacet
  facet normal 0.743145 -0.669131 0
    outer loop
      vertex -20.0739 22.2943 2
      vertex -20.0739 22.2943 10
      vertex -24.2705 17.6336 10
    endloop
  endfacet
  facet normal 0.743145 -0.669131 0
    outer loop
      vertex -24.2705 17.6336 2
      vertex -20.0739 22.2943 2
      vertex -24.2705 17.6336 10
    endloop
  endfacet
  facet normal 0.866025 -0.5 0
    outer loop
      vertex -24.2705 17.6336 2
      vertex -24.2705 17.6336 10
      vertex -27.4064 12.2021 10
    endloop
  endfacet
  facet normal 0.866025 -0.5 0
    outer loop
      vertex -27.4064 12.2021 2
      vertex -24.2705 17.6336 2
      vertex -27.4064 12.2021 10
    endloop
  endfacet
  facet normal 0.951057 -0.309017 0
    outer loop
      vertex -27.4064 12.2021 2
      vertex -27.4064 12.2021 10
      vertex -29.3444 6.23735 10
    endloop
  endfacet
  facet normal 0.951057 -0.309017 0
    outer loop
      vertex -29.3444 6.23735 2
      vertex -27.4064 12.2021 2
      vertex -29.3444 6.23735 10
    endloop
  endfacet
  facet normal 0.994522 -0.104528 0
    outer loop
      vertex -29.3444 6.23735 2
      vertex -29.3444 6.23735 10
      vertex -30 0 10
    endloop
  endfacet
  facet normal 0.994522 -0.104528 0
    outer loop
      vertex -30 0 2
      vertex -29.3444 6.23735 2
      vertex -30 0 10
    endloop
  endfacet
  facet normal -0.951056 -0.309017 0
    outer loop
      vertex -24.4537 -5.19779 2
      vertex -22.8386 -10.1684 2
      vertex -24.4537 -5.19779 10
    endloop
  endfacet
  facet normal -0.951056 -0.309017 0
    outer loop
      vertex -24.4537 -5.19779 10
      vertex -22.8386 -10.1684 2
      vertex -22.8386 -10.1684 10
    endloop
  endfacet
  facet normal -0.866025 -0.5 0
    outer loop
      vertex -22.8386 -10.1684 2
      vertex -20.2254 -14.6946 2
      vertex -22.8386 -10.1684 10
    endloop
  endfacet
  facet normal -0.866025 -0.5 0
    outer loop
      vertex -22.8386 -10.1684 10
      vertex -20.2254 -14.6946 2
      vertex -20.2254 -14.6946 10
    endloop
  endfacet
  facet normal -0.743145 -0.669131 0
    outer loop
      vertex -20.2254 -14.6946 2
      vertex -16.7283 -18.5786 2
      vertex -20.2254 -14.6946 10
    endloop
  endfacet
  facet normal -0.743145 -0.669131 0
    outer loop
      vertex -20.2254 -14.6946 10
      vertex -16.7283 -18.5786 2
      vertex -16.7283 -18.5786 10
    endloop
  endfacet
  facet normal -0.587785 -0.809017 0
    outer loop
      vertex -16.7283 -18.5786 10
      vertex -16.7283 -18.5786 2
      vertex -12.5 -21.6506 2
    endloop
  endfacet
  facet normal -0.587785 -0.809017 0
    outer loop
      vertex -12.5 -21.6506 10
      vertex -16.7283 -18.5786 10
      vertex -12.5 -21.6506 2
    endloop
  endfacet
  facet normal -0.406737 -0.913545 0
    outer loop
      vertex -12.5 -21.6506 10
      vertex -12.5 -21.6506 2
      vertex -7.72542 -23.7764 2
    endloop
  endfacet
  facet normal -0.406737 -0.913545 0
    outer loop
      vertex -7.72542 -23.7764 10
      vertex -12.5 -21.6506 10
      vertex -7.72542 -23.7764 2
    endloop
  endfacet
  facet normal -0.207912 -0.978148 0
    outer loop
      vertex -7.72542 -23.7764 10
      vertex -7.72542 -23.7764 2
      vertex -2.61321 -24.863 2
    endloop
  endfacet
  facet normal -0.207912 -0.978148 0
    outer loop
      vertex -2.61321 -24.863 10
      vertex -7.72542 -23.7764 10
      vertex -2.61321 -24.863 2
    endloop
  endfacet
  facet normal 0 -1 0
    outer loop
      vertex -2.61321 -24.863 10
      vertex -2.61321 -24.863 2
      vertex 2.61321 -24.863 2
    endloop
  endfacet
  facet normal 0 -1 0
    outer loop
      vertex 2.61321 -24.863 10
      vertex -2.61321 -24.863 10
      vertex 2.61321 -24.863 2
    endloop
  endfacet
  facet normal 0.207912 -0.978148 0
    outer loop
      vertex 2.61321 -24.863 10
      vertex 2.61321 -24.863 2
      vertex 7.72542 -23.7764 2
    endloop
  endfacet
  facet normal 0.207912 -0.978148 0
    outer loop
      vertex 7.72542 -23.7764 10
      vertex 2.61321 -24.863 10
      vertex 7.72542 -23.7764 2
    endloop
  endfacet
  facet normal 0.406737 -0.913545 0
    outer loop
      vertex 7.72542 -23.7764 10
      vertex 7.72542 -23.7764 2
      vertex 12.5 -21.6506 2
    endloop
  endfacet
  facet normal 0.406737 -0.913545 0
    outer loop
      vertex 12.5 -21.6506 10
      vertex 7.72542 -23.7764 10
      vertex 12.5 -21.6506 2
    endloop
  endfacet
  facet normal 0.587785 -0.809017 0
    outer loop
      vertex 12.5 -21.6506 10
      vertex 12.5 -21.6506 2
      vertex 16.7283 -18.5786 2
    endloop
  endfacet
  facet normal 0.587785 -0.809017 0
    outer loop
      vertex 16.7283 -18.5786 10
      vertex 12.5 -21.6506 10
      vertex 16.7283 -18.5786 2
    endloop
  endfacet
  facet normal 0.743145 -0.669131 0
    outer loop
      vertex 16.7283 -18.5786 10
      vertex 16.7283 -18.5786 2
      vertex 20.2254 -14.6946 2
    endloop
  endfacet
  facet normal 0.743145 -0.669131 0
    outer loop
      vertex 20.2254 -14.6946 10
      vertex 16.7283 -18.5786 10
      vertex 20.2254 -14.6946 2
    endloop
  endfacet
  facet normal 0.866025 -0.5 0
    outer loop
      vertex 20.2254 -14.6946 10
      vertex 20.2254 -14.6946 2
      vertex 22.8386 -10.1684 2
    endloop
  endfacet
  facet normal 0.866025 -0.5 0
    outer loop
      vertex 22.8386 -10.1684 10
      vertex 20.2254 -14.6946 10
      vertex 22.8386 -10.1684 2
    endloop
  endfacet
  facet normal 0.951056 -0.309017 0
    outer loop
      vertex 22.8386 -10.1684 10
      vertex 22.8386 -10.1684 2
      vertex 24.4537 -5.19779 2
    endloop
  endfacet
  facet normal 0.951056 -0.309017 0
    outer loop
      vertex 24.4537 -5.19779 10
      vertex 22.8386 -10.1684 10
      vertex 24.4537 -5.19779 2
    endloop
  endfacet
  facet normal 0.994522 -0.104528 0
    outer loop
      vertex 24.4537 -5.19779 10
      vertex 24.4537 -5.19779 2
      vertex 25 0 2
    endloop
  endfacet
  facet normal 0.994522 -0.104528 0
    outer loop
      vertex 25 0 10
      vertex 24.4537 -5.19779 10
      vertex 25 0 2
    endloop
  endfacet
  facet normal 0.994522 0.104528 0
    outer loop
      vertex 24.4537 5.19779 10
      vertex 25 0 10
      vertex 25 0 2
    endloop
  endfacet
  facet normal 0.994522 0.104528 0
    outer loop
      vertex 24.4537 5.19779 2
      vertex 24.4537 5.19779 10
      vertex 25 0 2
    endloop
  endfacet
  facet normal 0.951056 0.309017 0
    outer loop
      vertex 22.8386 10.1684 10
      vertex 24.4537 5.19779 10
      vertex 24.4537 5.19779 2
    endloop
  endfacet
  facet normal 0.951056 0.309017 0
    outer loop
      vertex 22.8386 10.1684 2
      vertex 22.8386 10.1684 10
      vertex 24.4537 5.19779 2
    endloop
  endfacet
  facet normal 0.866025 0.5 0
    outer loop
      vertex 20.2254 14.6946 10
      vertex 22.8386 10.1684 10
      vertex 22.8386 10.1684 2
    endloop
  endfacet
  facet normal 0.866025 0.5 0
    outer loop
      vertex 20.2254 14.6946 2
      vertex 20.2254 14.6946 10
      vertex 22.8386 10.1684 2
    endloop
  endfacet
  facet normal 0.743145 0.669131 0
    outer loop
      vertex 16.7283 18.5786 10
      vertex 20.2254 14.6946 10
      vertex 20.2254 14.6946 2
    endloop
  endfacet
  facet normal 0.743145 0.669131 0
    outer loop
      vertex 16.7283 18.5786 2
      vertex 16.7283 18.5786 10
      vertex 20.2254 14.6946 2
    endloop
  endfacet
  facet normal 0.587785 0.809017 0
    outer loop
      vertex 16.7283 18.5786 10
      vertex 16.7283 18.5786 2
      vertex 12.5 21.6506 10
    endloop
  endfacet
  facet normal 0.587785 0.809017 0
    outer loop
      vertex 12.5 21.6506 10
      vertex 16.7283 18.5786 2
      vertex 12.5 21.6506 2
    endloop
  endfacet
  facet normal 0.406737 0.913545 0
    outer loop
      vertex 12.5 21.6506 10
      vertex 12.5 21.6506 2
      vertex 7.72542 23.7764 10
    endloop
  endfacet
  facet normal 0.406737 0.913545 0
    outer loop
      vertex 7.72542 23.7764 10
      vertex 12.5 21.6506 2
      vertex 7.72542 23.7764 2
    endloop
  endfacet
  facet normal 0.207912 0.978148 0
    outer loop
      vertex 7.72542 23.7764 10
      vertex 7.72542 23.7764 2
      vertex 2.61321 24.863 10
    endloop
  endfacet
  facet normal 0.207912 0.978148 0
    outer loop
      vertex 2.61321 24.863 10
      vertex 7.72542 23.7764 2
      vertex 2.61321 24.863 2
    endloop
  endfacet
  facet normal 0 1 0
    outer loop
      vertex 2.61321 24.863 10
      vertex 2.61321 24.863 2
      vertex -2.61321 24.863 10
    endloop
  endfacet
  facet normal 0 1 0
    outer loop
      vertex -2.61321 24.863 10
      vertex 2.61321 24.863 2
      vertex -2.61321 24.863 2
    endloop
  endfacet
  facet normal -0.207912 0.978148 0
    outer loop
      vertex -2.61321 24.863 10
      vertex -2.61321 24.863 2
      vertex -7.72542 23.7764 10
    endloop
  endfacet
  facet normal -0.207912 0.978148 0
    outer loop
      vertex -7.72542 23.7764 10
      vertex -2.61321 24.863 2
      vertex -7.72542 23.7764 2
    endloop
  endfacet
  facet normal -0.406737 0.913545 0
    outer loop
      vertex -7.72542 23.7764 10
      vertex -7.72542 23.7764 2
      vertex -12.5 21.6506 10
    endloop
  endfacet
  facet normal -0.406737 0.913545 0
    outer loop
      vertex -12.5 21.6506 10
      vertex -7.72542 23.7764 2
      vertex -12.5 21.6506 2
    endloop
  endfacet
  facet normal -0.587785 0.809017 0
    outer loop
      vertex -12.5 21.6506 10
      vertex -12.5 21.6506 2
      vertex -16.7283 18.5786 10
    endloop
  endfacet
  facet normal -0.587785 0.809017 0
    outer loop
      vertex -16.7283 18.5786 10
      vertex -12.5 21.6506 2
      vertex -16.7283 18.5786 2
    endloop
  endfacet
  facet normal -0.743145 0.669131 0
    outer loop
      vertex -16.7283 18.5786 10
      vertex -16.7283 18.5786 2
      vertex -20.2254 14.6946 10
    endloop
  endfacet
  facet normal -0.743145 0.669131 0
    outer loop
      vertex -20.2254 14.6946 10
      vertex -16.7283 18.5786 2
      vertex -20.2254 14.6946 2
    endloop
  endfacet
  facet normal -0.866025 0.5 0
    outer loop
      vertex -20.2254 14.6946 10
      vertex -20.2254 14.6946 2
      vertex -22.8386 10.1684 10
    endloop
  endfacet
  facet normal -0.866025 0.5 0
    outer loop
      vertex -22.8386 10.1684 10
      vertex -20.2254 14.6946 2
      vertex -22.8386 10.1684 2
    endloop
  endfacet
  facet normal -0.951056 0.309017 0
    outer loop
      vertex -22.8386 10.1684 10
      vertex -22.8386 10.1684 2
      vertex -24.4537 5.19779 10
    endloop
  endfacet
  facet normal -0.951056 0.309017 0
    outer loop
      vertex -24.4537 5.19779 10
      vertex -22.8386 10.1684 2
      vertex -24.4537 5.19779 2
    endloop
  endfacet
endsolid OpenSCAD_Model
