solid OpenSCAD_Model
  facet normal -1 0 0
    outer loop
      vertex 1 1 1
      vertex 1 21 2
      vertex 1 21 1
    endloop
  endfacet
  facet normal -1 -0 0
    outer loop
      vertex 1 21 2
      vertex 1 1 1
      vertex 1 1 2
    endloop
  endfacet
  facet normal 0 0 1
    outer loop
      vertex 21 21 2
      vertex 20 20 2
      vertex 21 1 2
    endloop
  endfacet
  facet normal 0 0 1
    outer loop
      vertex 21 21 2
      vertex 2 20 2
      vertex 20 20 2
    endloop
  endfacet
  facet normal 0 0 1
    outer loop
      vertex 2 20 2
      vertex 1 21 2
      vertex 2 2 2
    endloop
  endfacet
  facet normal -0 0 1
    outer loop
      vertex 1 21 2
      vertex 2 20 2
      vertex 21 21 2
    endloop
  endfacet
  facet normal -0 0 1
    outer loop
      vertex 20 2 2
      vertex 21 1 2
      vertex 20 20 2
    endloop
  endfacet
  facet normal -0 0 1
    outer loop
      vertex 2 2 2
      vertex 21 1 2
      vertex 20 2 2
    endloop
  endfacet
  facet normal 0 0 1
    outer loop
      vertex 2 2 2
      vertex 1 1 2
      vertex 21 1 2
    endloop
  endfacet
  facet normal 0 0 1
    outer loop
      vertex 1 1 2
      vertex 2 2 2
      vertex 1 21 2
    endloop
  endfacet
  facet normal 1 -0 0
    outer loop
      vertex 21 1 2
      vertex 21 21 1
      vertex 21 21 2
    endloop
  endfacet
  facet normal 1 0 0
    outer loop
      vertex 21 21 1
      vertex 21 1 2
      vertex 21 1 1
    endloop
  endfacet
  facet normal 0 1 -0
    outer loop
      vertex 21 21 1
      vertex 1 21 2
      vertex 21 21 2
    endloop
  endfacet
  facet normal 0 1 0
    outer loop
      vertex 1 21 2
      vertex 21 21 1
      vertex 1 21 1
    endloop
  endfacet
  facet normal -0 0 1
    outer loop
      vertex 2 20 1
      vertex 20 2 1
      vertex 20 20 1
    endloop
  endfacet
  facet normal 0 0 1
    outer loop
      vertex 20 2 1
      vertex 2 20 1
      vertex 2 2 1
    endloop
  endfacet
  facet normal 0 0 1
    outer loop
      vertex 22 22 1
      vertex 21 21 1
      vertex 22 0 1
    endloop
  endfacet
  facet normal 0 0 1
    outer loop
      vertex 22 22 1
      vertex 1 21 1
      vertex 21 21 1
    endloop
  endfacet
  facet normal 0 0 1
    outer loop
      vertex 1 21 1
      vertex 0 22 1
      vertex 1 1 1
    endloop
  endfacet
  facet normal -0 0 1
    outer loop
      vertex 0 22 1
      vertex 1 21 1
      vertex 22 22 1
    endloop
  endfacet
  facet normal -0 0 1
    outer loop
      vertex 21 1 1
      vertex 22 0 1
      vertex 21 21 1
    endloop
  endfacet
  facet normal -0 0 1
    outer loop
      vertex 1 1 1
      vertex 22 0 1
      vertex 21 1 1
    endloop
  endfacet
  facet normal 0 0 1
    outer loop
      vertex 1 1 1
      vertex 0 0 1
      vertex 22 0 1
    endloop
  endfacet
  facet normal 0 0 1
    outer loop
      vertex 0 0 1
      vertex 1 1 1
      vertex 0 22 1
    endloop
  endfacet
  facet normal 0 -1 0
    outer loop
      vertex 1 1 1
      vertex 21 1 2
      vertex 1 1 2
    endloop
  endfacet
  facet normal 0 -1 -0
    outer loop
      vertex 21 1 2
      vertex 1 1 1
      vertex 21 1 1
    endloop
  endfacet
  facet normal 1 -0 0
    outer loop
      vertex 2 2 2
      vertex 2 20 1
      vertex 2 20 2
    endloop
  endfacet
  facet normal 1 0 0
    outer loop
      vertex 2 20 1
      vertex 2 2 2
      vertex 2 2 1
    endloop
  endfacet
  facet normal -1 0 0
    outer loop
      vertex 20 2 1
      vertex 20 20 2
      vertex 20 20 1
    endloop
  endfacet
  facet normal -1 -0 0
    outer loop
      vertex 20 20 2
      vertex 20 2 1
      vertex 20 2 2
    endloop
  endfacet
  facet normal 0 -1 0
    outer loop
      vertex 2 20 1
      vertex 20 20 2
      vertex 2 20 2
    endloop
  endfacet
  facet normal 0 -1 -0
    outer loop
      vertex 20 20 2
      vertex 2 20 1
      vertex 20 20 1
    endloop
  endfacet
  facet normal 0 1 -0
    outer loop
      vertex 20 2 1
      vertex 2 2 2
      vertex 20 2 2
    endloop
  endfacet
  facet normal 0 1 0
    outer loop
      vertex 2 2 2
      vertex 20 2 1
      vertex 2 2 1
    endloop
  endfacet
  facet normal -1 0 0
    outer loop
      vertex 0 0 0
      vertex 0 22 1
      vertex 0 22 0
    endloop
  endfacet
  facet normal -1 -0 0
    outer loop
      vertex 0 22 1
      vertex 0 0 0
      vertex 0 0 1
    endloop
  endfacet
  facet normal 1 -0 0
    outer loop
      vertex 22 0 1
      vertex 22 22 0
      vertex 22 22 1
    endloop
  endfacet
  facet normal 1 0 0
    outer loop
      vertex 22 22 0
      vertex 22 0 1
      vertex 22 0 0
    endloop
  endfacet
  facet normal 0 1 -0
    outer loop
      vertex 22 22 0
      vertex 0 22 1
      vertex 22 22 1
    endloop
  endfacet
  facet normal 0 1 0
    outer loop
      vertex 0 22 1
      vertex 22 22 0
      vertex 0 22 0
    endloop
  endfacet
  facet normal 0 0 -1
    outer loop
      vertex 0 0 0
      vertex 22 22 0
      vertex 22 0 0
    endloop
  endfacet
  facet normal -0 0 -1
    outer loop
      vertex 22 22 0
      vertex 0 0 0
      vertex 0 22 0
    endloop
  endfacet
  facet normal 0 -1 0
    outer loop
      vertex 0 0 0
      vertex 22 0 1
      vertex 0 0 1
    endloop
  endfacet
  facet normal 0 -1 -0
    outer loop
      vertex 22 0 1
      vertex 0 0 0
      vertex 22 0 0
    endloop
  endfacet
endsolid OpenSCAD_Model
