solid OpenSCAD_Model
  facet normal -1 0 0
    outer loop
      vertex 0 0 0
      vertex 0 0 10
      vertex 0 100 0
    endloop
  endfacet
  facet normal -1 0 0
    outer loop
      vertex 0 100 0
      vertex 0 0 10
      vertex 0 100 10
    endloop
  endfacet
  facet normal 0 -1 0
    outer loop
      vertex 0 0 10
      vertex 0 0 0
      vertex 100 0 0
    endloop
  endfacet
  facet normal 0 -1 0
    outer loop
      vertex 100 0 10
      vertex 0 0 10
      vertex 100 0 0
    endloop
  endfacet
  facet normal 0 0 -1
    outer loop
      vertex 0 0 0
      vertex 0 100 0
      vertex 100 0 0
    endloop
  endfacet
  facet normal 0 0 -1
    outer loop
      vertex 100 0 0
      vertex 0 100 0
      vertex 100 100 0
    endloop
  endfacet
  facet normal 0 1 0
    outer loop
      vertex 0 100 0
      vertex 0 100 10
      vertex 100 100 0
    endloop
  endfacet
  facet normal 0 1 0
    outer loop
      vertex 100 100 0
      vertex 0 100 10
      vertex 100 100 10
    endloop
  endfacet
  facet normal 0 0 1
    outer loop
      vertex 52.0906 30.1096 10
      vertex 0 0 10
      vertex 100 0 10
    endloop
  endfacet
  facet normal 0 0 1
    outer loop
      vertex 0 100 10
      vertex 0 0 10
      vertex 30.437 45.8418 10
    endloop
  endfacet
  facet normal 0 0 1
    outer loop
      vertex 56.1803 30.9789 10
      vertex 52.0906 30.1096 10
      vertex 100 0 10
    endloop
  endfacet
  facet normal 0 0 1
    outer loop
      vertex 0 100 10
      vertex 30.437 45.8418 10
      vertex 30 50 10
    endloop
  endfacet
  facet normal 0 0 1
    outer loop
      vertex 0 100 10
      vertex 30 50 10
      vertex 30.437 54.1582 10
    endloop
  endfacet
  facet normal 0 0 1
    outer loop
      vertex 0 100 10
      vertex 30.437 54.1582 10
      vertex 31.7291 58.1347 10
    endloop
  endfacet
  facet normal 0 0 1
    outer loop
      vertex 60 32.6795 10
      vertex 56.1803 30.9789 10
      vertex 100 0 10
    endloop
  endfacet
  facet normal 0 0 1
    outer loop
      vertex 0 100 10
      vertex 31.7291 58.1347 10
      vertex 33.8197 61.7557 10
    endloop
  endfacet
  facet normal 0 0 1
    outer loop
      vertex 40 67.3205 10
      vertex 0 100 10
      vertex 36.6174 64.8629 10
    endloop
  endfacet
  facet normal 0 0 1
    outer loop
      vertex 100 100 10
      vertex 0 100 10
      vertex 40 67.3205 10
    endloop
  endfacet
  facet normal 0 0 1
    outer loop
      vertex 68.2709 58.1347 10
      vertex 69.563 54.1582 10
      vertex 100 0 10
    endloop
  endfacet
  facet normal 0 0 1
    outer loop
      vertex 100 100 10
      vertex 40 67.3205 10
      vertex 43.8197 69.0211 10
    endloop
  endfacet
  facet normal 0 0 1
    outer loop
      vertex 66.1803 38.2443 10
      vertex 63.3826 35.1371 10
      vertex 100 0 10
    endloop
  endfacet
  facet normal 0 0 1
    outer loop
      vertex 63.3826 35.1371 10
      vertex 60 32.6795 10
      vertex 100 0 10
    endloop
  endfacet
  facet normal 0 0 1
    outer loop
      vertex 100 100 10
      vertex 47.9094 69.8904 10
      vertex 52.0906 69.8904 10
    endloop
  endfacet
  facet normal 0 0 1
    outer loop
      vertex 100 100 10
      vertex 52.0906 69.8904 10
      vertex 56.1803 69.0211 10
    endloop
  endfacet
  facet normal 0 0 1
    outer loop
      vertex 70 50 10
      vertex 69.563 45.8418 10
      vertex 100 0 10
    endloop
  endfacet
  facet normal 0 0 1
    outer loop
      vertex 100 100 10
      vertex 56.1803 69.0211 10
      vertex 60 67.3205 10
    endloop
  endfacet
  facet normal 0 0 1
    outer loop
      vertex 69.563 45.8418 10
      vertex 68.2709 41.8653 10
      vertex 100 0 10
    endloop
  endfacet
  facet normal 0 0 1
    outer loop
      vertex 100 100 10
      vertex 60 67.3205 10
      vertex 63.3826 64.8629 10
    endloop
  endfacet
  facet normal 0 0 1
    outer loop
      vertex 100 100 10
      vertex 63.3826 64.8629 10
      vertex 66.1803 61.7557 10
    endloop
  endfacet
  facet normal 0 0 1
    outer loop
      vertex 100 100 10
      vertex 68.2709 58.1347 10
      vertex 100 0 10
    endloop
  endfacet
  facet normal 0 0 1
    outer loop
      vertex 100 100 10
      vertex 66.1803 61.7557 10
      vertex 68.2709 58.1347 10
    endloop
  endfacet
  facet normal 0 0 1
    outer loop
      vertex 68.2709 41.8653 10
      vertex 66.1803 38.2443 10
      vertex 100 0 10
    endloop
  endfacet
  facet normal 0 0 1
    outer loop
      vertex 43.8197 69.0211 10
      vertex 47.9094 69.8904 10
      vertex 100 100 10
    endloop
  endfacet
  facet normal 0 0 1
    outer loop
      vertex 69.563 54.1582 10
      vertex 70 50 10
      vertex 100 0 10
    endloop
  endfacet
  facet normal 0 0 1
    outer loop
      vertex 47.9094 30.1096 10
      vertex 0 0 10
      vertex 52.0906 30.1096 10
    endloop
  endfacet
  facet normal 0 0 1
    outer loop
      vertex 43.8197 30.9789 10
      vertex 0 0 10
      vertex 47.9094 30.1096 10
    endloop
  endfacet
  facet normal 0 0 1
    outer loop
      vertex 40 32.6795 10
      vertex 0 0 10
      vertex 43.8197 30.9789 10
    endloop
  endfacet
  facet normal 0 0 1
    outer loop
      vertex 36.6174 35.1371 10
      vertex 0 0 10
      vertex 40 32.6795 10
    endloop
  endfacet
  facet normal 0 0 1
    outer loop
      vertex 33.8197 38.2443 10
      vertex 0 0 10
      vertex 36.6174 35.1371 10
    endloop
  endfacet
  facet normal 0 0 1
    outer loop
      vertex 31.7291 41.8653 10
      vertex 0 0 10
      vertex 33.8197 38.2443 10
    endloop
  endfacet
  facet normal 0 0 1
    outer loop
      vertex 30.437 45.8418 10
      vertex 0 0 10
      vertex 31.7291 41.8653 10
    endloop
  endfacet
  facet normal 0 0 1
    outer loop
      vertex 33.8197 61.7557 10
      vertex 36.6174 64.8629 10
      vertex 0 100 10
    endloop
  endfacet
  facet normal 1 0 0
    outer loop
      vertex 100 0 10
      vertex 100 0 0
      vertex 100 100 0
    endloop
  endfacet
  facet normal 1 0 0
    outer loop
      vertex 100 100 10
      vertex 100 0 10
      vertex 100 100 0
    endloop
  endfacet
  facet normal -0.994522 -0.104528 0
    outer loop
      vertex 30 50 10
      vertex 30.437 45.8418 10
      vertex 30 50 100
    endloop
  endfacet
  facet normal -0.994522 -0.104528 0
    outer loop
      vertex 30 50 100
      vertex 30.437 45.8418 10
      vertex 30.437 45.8418 100
    endloop
  endfacet
  facet normal -0.951057 -0.309017 0
    outer loop
      vertex 30.437 45.8418 10
      vertex 31.7291 41.8653 10
      vertex 30.437 45.8418 100
    endloop
  endfacet
  facet normal -0.951057 -0.309017 0
    outer loop
      vertex 30.437 45.8418 100
      vertex 31.7291 41.8653 10
      vertex 31.7291 41.8653 100
    endloop
  endfacet
  facet normal -0.866025 -0.5 0
    outer loop
      vertex 31.7291 41.8653 10
      vertex 33.8197 38.2443 10
      vertex 31.7291 41.8653 100
    endloop
  endfacet
  facet normal -0.866025 -0.5 0
    outer loop
      vertex 31.7291 41.8653 100
      vertex 33.8197 38.2443 10
      vertex 33.8197 38.2443 100
    endloop
  endfacet
  facet normal -0.743145 -0.669131 0
    outer loop
      vertex 33.8197 38.2443 10
      vertex 36.6174 35.1371 10
      vertex 33.8197 38.2443 100
    endloop
  endfacet
  facet normal -0.743145 -0.669131 0
    outer loop
      vertex 33.8197 38.2443 100
      vertex 36.6174 35.1371 10
      vertex 36.6174 35.1371 100
    endloop
  endfacet
  facet normal -0.587785 -0.809017 0
    outer loop
      vertex 36.6174 35.1371 100
      vertex 36.6174 35.1371 10
      vertex 40 32.6795 10
    endloop
  endfacet
  facet normal -0.587785 -0.809017 0
    outer loop
      vertex 40 32.6795 100
      vertex 36.6174 35.1371 100
      vertex 40 32.6795 10
    endloop
  endfacet
  facet normal -0.406737 -0.913545 0
    outer loop
      vertex 40 32.6795 100
      vertex 40 32.6795 10
      vertex 43.8197 30.9789 10
    endloop
  endfacet
  facet normal -0.406737 -0.913545 0
    outer loop
      vertex 43.8197 30.9789 100
      vertex 40 32.6795 100
      vertex 43.8197 30.9789 10
    endloop
  endfacet
  facet normal -0.207912 -0.978148 0
    outer loop
      vertex 43.8197 30.9789 100
      vertex 43.8197 30.9789 10
      vertex 47.9094 30.1096 10
    endloop
  endfacet
  facet normal -0.207912 -0.978148 0
    outer loop
      vertex 47.9094 30.1096 100
      vertex 43.8197 30.9789 100
      vertex 47.9094 30.1096 10
    endloop
  endfacet
  facet normal 0 -1 0
    outer loop
      vertex 47.9094 30.1096 100
      vertex 47.9094 30.1096 10
      vertex 52.0906 30.1096 10
    endloop
  endfacet
  facet normal 0 -1 0
    outer loop
      vertex 52.0906 30.1096 100
      vertex 47.9094 30.1096 100
      vertex 52.0906 30.1096 10
    endloop
  endfacet
  facet normal 0.207912 -0.978148 0
    outer loop
      vertex 52.0906 30.1096 100
      vertex 52.0906 30.1096 10
      vertex 56.1803 30.9789 10
    endloop
  endfacet
  facet normal 0.207912 -0.978148 0
    outer loop
      vertex 56.1803 30.9789 100
      vertex 52.0906 30.1096 100
      vertex 56.1803 30.9789 10
    endloop
  endfacet
  facet normal 0.406737 -0.913545 0
    outer loop
      vertex 56.1803 30.9789 100
      vertex 56.1803 30.9789 10
      vertex 60 32.6795 10
    endloop
  endfacet
  facet normal 0.406737 -0.913545 0
    outer loop
      vertex 60 32.6795 100
      vertex 56.1803 30.9789 100
      vertex 60 32.6795 10
    endloop
  endfacet
  facet normal 0.587785 -0.809017 0
    outer loop
      vertex 60 32.6795 100
      vertex 60 32.6795 10
      vertex 63.3826 35.1371 10
    endloop
  endfacet
  facet normal 0.587785 -0.809017 0
    outer loop
      vertex 63.3826 35.1371 100
      vertex 60 32.6795 100
      vertex 63.3826 35.1371 10
    endloop
  endfacet
  facet normal 0.743145 -0.669131 0
    outer loop
      vertex 63.3826 35.1371 100
      vertex 63.3826 35.1371 10
      vertex 66.1803 38.2443 10
    endloop
  endfacet
  facet normal 0.743145 -0.669131 0
    outer loop
      vertex 66.1803 38.2443 100
      vertex 63.3826 35.1371 100
      vertex 66.1803 38.2443 10
    endloop
  endfacet
  facet normal 0.866025 -0.5 0
    outer loop
      vertex 66.1803 38.2443 100
      vertex 66.1803 38.2443 10
      vertex 68.2709 41.8653 10
    endloop
  endfacet
  facet normal 0.866025 -0.5 0
    outer loop
      vertex 68.2709 41.8653 100
      vertex 66.1803 38.2443 100
      vertex 68.2709 41.8653 10
    endloop
  endfacet
  facet normal 0.951057 -0.309017 0
    outer loop
      vertex 68.2709 41.8653 100
      vertex 68.2709 41.8653 10
      vertex 69.563 45.8418 10
    endloop
  endfacet
  facet normal 0.951057 -0.309017 0
    outer loop
      vertex 69.563 45.8418 100
      vertex 68.2709 41.8653 100
      vertex 69.563 45.8418 10
    endloop
  endfacet
  facet normal 0.994522 -0.104528 0
    outer loop
      vertex 69.563 45.8418 100
      vertex 69.563 45.8418 10
      vertex 70 50 10
    endloop
  endfacet
  facet normal 0.994522 -0.104528 0
    outer loop
      vertex 70 50 100
      vertex 69.563 45.8418 100
      vertex 70 50 10
    endloop
  endfacet
  facet normal 0.994522 0.104528 0
    outer loop
      vertex 70 50 10
      vertex 69.563 54.1582 10
      vertex 69.563 54.1582 100
    endloop
  endfacet
  facet normal 0.994522 0.104528 0
    outer loop
      vertex 70 50 100
      vertex 70 50 10
      vertex 69.563 54.1582 100
    endloop
  endfacet
  facet normal 0.951057 0.309017 0
    outer loop
      vertex 69.563 54.1582 10
      vertex 68.2709 58.1347 10
      vertex 68.2709 58.1347 100
    endloop
  endfacet
  facet normal 0.951057 0.309017 0
    outer loop
      vertex 69.563 54.1582 100
      vertex 69.563 54.1582 10
      vertex 68.2709 58.1347 100
    endloop
  endfacet
  facet normal 0.866025 0.5 0
    outer loop
      vertex 68.2709 58.1347 10
      vertex 66.1803 61.7557 10
      vertex 66.1803 61.7557 100
    endloop
  endfacet
  facet normal 0.866025 0.5 0
    outer loop
      vertex 68.2709 58.1347 100
      vertex 68.2709 58.1347 10
      vertex 66.1803 61.7557 100
    endloop
  endfacet
  facet normal 0.743145 0.669131 0
    outer loop
      vertex 66.1803 61.7557 10
      vertex 63.3826 64.8629 10
      vertex 63.3826 64.8629 100
    endloop
  endfacet
  facet normal 0.743145 0.669131 0
    outer loop
      vertex 66.1803 61.7557 100
      vertex 66.1803 61.7557 10
      vertex 63.3826 64.8629 100
    endloop
  endfacet
  facet normal 0.587785 0.809017 0
    outer loop
      vertex 60 67.3205 10
      vertex 60 67.3205 100
      vertex 63.3826 64.8629 10
    endloop
  endfacet
  facet normal 0.587785 0.809017 0
    outer loop
      vertex 63.3826 64.8629 10
      vertex 60 67.3205 100
      vertex 63.3826 64.8629 100
    endloop
  endfacet
  facet normal 0.406737 0.913545 0
    outer loop
      vertex 56.1803 69.0211 10
      vertex 56.1803 69.0211 100
      vertex 60 67.3205 10
    endloop
  endfacet
  facet normal 0.406737 0.913545 0
    outer loop
      vertex 60 67.3205 10
      vertex 56.1803 69.0211 100
      vertex 60 67.3205 100
    endloop
  endfacet
  facet normal 0.207912 0.978148 0
    outer loop
      vertex 52.0906 69.8904 10
      vertex 52.0906 69.8904 100
      vertex 56.1803 69.0211 10
    endloop
  endfacet
  facet normal 0.207912 0.978148 0
    outer loop
      vertex 56.1803 69.0211 10
      vertex 52.0906 69.8904 100
      vertex 56.1803 69.0211 100
    endloop
  endfacet
  facet normal 0 1 0
    outer loop
      vertex 47.9094 69.8904 10
      vertex 47.9094 69.8904 100
      vertex 52.0906 69.8904 10
    endloop
  endfacet
  facet normal 0 1 0
    outer loop
      vertex 52.0906 69.8904 10
      vertex 47.9094 69.8904 100
      vertex 52.0906 69.8904 100
    endloop
  endfacet
  facet normal -0.207912 0.978148 0
    outer loop
      vertex 43.8197 69.0211 10
      vertex 43.8197 69.0211 100
      vertex 47.9094 69.8904 10
    endloop
  endfacet
  facet normal -0.207912 0.978148 0
    outer loop
      vertex 47.9094 69.8904 10
      vertex 43.8197 69.0211 100
      vertex 47.9094 69.8904 100
    endloop
  endfacet
  facet normal -0.406737 0.913545 0
    outer loop
      vertex 40 67.3205 10
      vertex 40 67.3205 100
      vertex 43.8197 69.0211 10
    endloop
  endfacet
  facet normal -0.406737 0.913545 0
    outer loop
      vertex 43.8197 69.0211 10
      vertex 40 67.3205 100
      vertex 43.8197 69.0211 100
    endloop
  endfacet
  facet normal -0.587785 0.809017 0
    outer loop
      vertex 36.6174 64.8629 10
      vertex 36.6174 64.8629 100
      vertex 40 67.3205 10
    endloop
  endfacet
  facet normal -0.587785 0.809017 0
    outer loop
      vertex 40 67.3205 10
      vertex 36.6174 64.8629 100
      vertex 40 67.3205 100
    endloop
  endfacet
  facet normal -0.743145 0.669131 0
    outer loop
      vertex 33.8197 61.7557 10
      vertex 33.8197 61.7557 100
      vertex 36.6174 64.8629 10
    endloop
  endfacet
  facet normal -0.743145 0.669131 0
    outer loop
      vertex 36.6174 64.8629 10
      vertex 33.8197 61.7557 100
      vertex 36.6174 64.8629 100
    endloop
  endfacet
  facet normal -0.866025 0.5 0
    outer loop
      vertex 31.7291 58.1347 10
      vertex 31.7291 58.1347 100
      vertex 33.8197 61.7557 10
    endloop
  endfacet
  facet normal -0.866025 0.5 0
    outer loop
      vertex 33.8197 61.7557 10
      vertex 31.7291 58.1347 100
      vertex 33.8197 61.7557 100
    endloop
  endfacet
  facet normal -0.951057 0.309017 0
    outer loop
      vertex 30.437 54.1582 10
      vertex 30.437 54.1582 100
      vertex 31.7291 58.1347 10
    endloop
  endfacet
  facet normal -0.951057 0.309017 0
    outer loop
      vertex 31.7291 58.1347 10
      vertex 30.437 54.1582 100
      vertex 31.7291 58.1347 100
    endloop
  endfacet
  facet normal -0.994522 0.104528 0
    outer loop
      vertex 30 50 10
      vertex 30 50 100
      vertex 30.437 54.1582 10
    endloop
  endfacet
  facet normal -0.994522 0.104528 0
    outer loop
      vertex 30.437 54.1582 10
      vertex 30 50 100
      vertex 30.437 54.1582 100
    endloop
  endfacet
  facet normal 0 0 1
    outer loop
      vertex 30.437 54.1582 100
      vertex 30 50 100
      vertex 30.437 45.8418 100
    endloop
  endfacet
  facet normal 0 0 1
    outer loop
      vertex 33.8197 38.2443 100
      vertex 30.437 54.1582 100
      vertex 31.7291 41.8653 100
    endloop
  endfacet
  facet normal 0 0 1
    outer loop
      vertex 31.7291 41.8653 100
      vertex 30.437 54.1582 100
      vertex 30.437 45.8418 100
    endloop
  endfacet
  facet normal 0 0 1
    outer loop
      vertex 36.6174 35.1371 100
      vertex 30.437 54.1582 100
      vertex 33.8197 38.2443 100
    endloop
  endfacet
  facet normal 0 0 1
    outer loop
      vertex 40 32.6795 100
      vertex 30.437 54.1582 100
      vertex 36.6174 35.1371 100
    endloop
  endfacet
  facet normal 0 0 1
    outer loop
      vertex 43.8197 30.9789 100
      vertex 30.437 54.1582 100
      vertex 40 32.6795 100
    endloop
  endfacet
  facet normal 0 0 1
    outer loop
      vertex 47.9094 30.1096 100
      vertex 30.437 54.1582 100
      vertex 43.8197 30.9789 100
    endloop
  endfacet
  facet normal 0 0 1
    outer loop
      vertex 52.0906 30.1096 100
      vertex 30.437 54.1582 100
      vertex 47.9094 30.1096 100
    endloop
  endfacet
  facet normal 0 0 1
    outer loop
      vertex 56.1803 30.9789 100
      vertex 30.437 54.1582 100
      vertex 52.0906 30.1096 100
    endloop
  endfacet
  facet normal 0 0 1
    outer loop
      vertex 60 32.6795 100
      vertex 30.437 54.1582 100
      vertex 56.1803 30.9789 100
    endloop
  endfacet
  facet normal 0 0 1
    outer loop
      vertex 63.3826 35.1371 100
      vertex 30.437 54.1582 100
      vertex 60 32.6795 100
    endloop
  endfacet
  facet normal 0 0 1
    outer loop
      vertex 66.1803 38.2443 100
      vertex 30.437 54.1582 100
      vertex 63.3826 35.1371 100
    endloop
  endfacet
  facet normal 0 0 1
    outer loop
      vertex 68.2709 41.8653 100
      vertex 30.437 54.1582 100
      vertex 66.1803 38.2443 100
    endloop
  endfacet
  facet normal 0 0 1
    outer loop
      vertex 69.563 45.8418 100
      vertex 30.437 54.1582 100
      vertex 68.2709 41.8653 100
    endloop
  endfacet
  facet normal 0 0 1
    outer loop
      vertex 70 50 100
      vertex 30.437 54.1582 100
      vertex 69.563 45.8418 100
    endloop
  endfacet
  facet normal 0 0 1
    outer loop
      vertex 69.563 54.1582 100
      vertex 30.437 54.1582 100
      vertex 70 50 100
    endloop
  endfacet
  facet normal 0 0 1
    outer loop
      vertex 68.2709 58.1347 100
      vertex 30.437 54.1582 100
      vertex 69.563 54.1582 100
    endloop
  endfacet
  facet normal 0 0 1
    outer loop
      vertex 66.1803 61.7557 100
      vertex 30.437 54.1582 100
      vertex 68.2709 58.1347 100
    endloop
  endfacet
  facet normal 0 0 1
    outer loop
      vertex 63.3826 64.8629 100
      vertex 30.437 54.1582 100
      vertex 66.1803 61.7557 100
    endloop
  endfacet
  facet normal 0 0 1
    outer loop
      vertex 60 67.3205 100
      vertex 30.437 54.1582 100
      vertex 63.3826 64.8629 100
    endloop
  endfacet
  facet normal 0 0 1
    outer loop
      vertex 56.1803 69.0211 100
      vertex 30.437 54.1582 100
      vertex 60 67.3205 100
    endloop
  endfacet
  facet normal 0 0 1
    outer loop
      vertex 52.0906 69.8904 100
      vertex 30.437 54.1582 100
      vertex 56.1803 69.0211 100
    endloop
  endfacet
  facet normal 0 0 1
    outer loop
      vertex 47.9094 69.8904 100
      vertex 30.437 54.1582 100
      vertex 52.0906 69.8904 100
    endloop
  endfacet
  facet normal 0 0 1
    outer loop
      vertex 43.8197 69.0211 100
      vertex 30.437 54.1582 100
      vertex 47.9094 69.8904 100
    endloop
  endfacet
  facet normal 0 0 1
    outer loop
      vertex 40 67.3205 100
      vertex 30.437 54.1582 100
      vertex 43.8197 69.0211 100
    endloop
  endfacet
  facet normal 0 0 1
    outer loop
      vertex 36.6174 64.8629 100
      vertex 30.437 54.1582 100
      vertex 40 67.3205 100
    endloop
  endfacet
  facet normal 0 0 1
    outer loop
      vertex 33.8197 61.7557 100
      vertex 30.437 54.1582 100
      vertex 36.6174 64.8629 100
    endloop
  endfacet
  facet normal 0 0 1
    outer loop
      vertex 31.7291 58.1347 100
      vertex 30.437 54.1582 100
      vertex 33.8197 61.7557 100
    endloop
  endfacet
endsolid OpenSCAD_Model
