solid OpenSCAD_Model
  facet normal -1 0 0
    outer loop
      vertex 0 2 0
      vertex 0 0 0
      vertex 0 2 3
    endloop
  endfacet
  facet normal -1 0 0
    outer loop
      vertex 0 15 3
      vertex 0 17 0
      vertex 0 15 0
    endloop
  endfacet
  facet normal -1 0 0
    outer loop
      vertex 0 17 0
      vertex 0 15 3
      vertex 0 17 7
    endloop
  endfacet
  facet normal -1 0 0
    outer loop
      vertex 0 2 3
      vertex 0 17 7
      vertex 0 15 3
    endloop
  endfacet
  facet normal -1 0 0
    outer loop
      vertex 0 2 3
      vertex 0 0 7
      vertex 0 17 7
    endloop
  endfacet
  facet normal -1 0 0
    outer loop
      vertex 0 0 7
      vertex 0 2 3
      vertex 0 0 0
    endloop
  endfacet
  facet normal 0 0 1
    outer loop
      vertex 23 17 7
      vertex 17.5 8.5 7
      vertex 23 0 7
    endloop
  endfacet
  facet normal 0 0 1
    outer loop
      vertex 23 17 7
      vertex 17.3776 9.27254 7
      vertex 17.5 8.5 7
    endloop
  endfacet
  facet normal 0 0 1
    outer loop
      vertex 23 17 7
      vertex 17.0225 9.96946 7
      vertex 17.3776 9.27254 7
    endloop
  endfacet
  facet normal 0 0 1
    outer loop
      vertex 23 17 7
      vertex 16.4695 10.5225 7
      vertex 17.0225 9.96946 7
    endloop
  endfacet
  facet normal 0 0 1
    outer loop
      vertex 23 17 7
      vertex 15.7725 10.8776 7
      vertex 16.4695 10.5225 7
    endloop
  endfacet
  facet normal 0 0 1
    outer loop
      vertex 23 17 7
      vertex 15 11 7
      vertex 15.7725 10.8776 7
    endloop
  endfacet
  facet normal -0 0 1
    outer loop
      vertex 0 17 7
      vertex 15 11 7
      vertex 23 17 7
    endloop
  endfacet
  facet normal 0 0 1
    outer loop
      vertex 15 11 7
      vertex 0 17 7
      vertex 5 11 7
    endloop
  endfacet
  facet normal 0 0 1
    outer loop
      vertex 2.62236 9.27254 7
      vertex 0 17 7
      vertex 2.5 8.5 7
    endloop
  endfacet
  facet normal 0 0 1
    outer loop
      vertex 2.97746 9.96946 7
      vertex 0 17 7
      vertex 2.62236 9.27254 7
    endloop
  endfacet
  facet normal 0 0 1
    outer loop
      vertex 3.53054 10.5225 7
      vertex 0 17 7
      vertex 2.97746 9.96946 7
    endloop
  endfacet
  facet normal 0 0 1
    outer loop
      vertex 4.22746 10.8776 7
      vertex 0 17 7
      vertex 3.53054 10.5225 7
    endloop
  endfacet
  facet normal 0 0 1
    outer loop
      vertex 5 11 7
      vertex 0 17 7
      vertex 4.22746 10.8776 7
    endloop
  endfacet
  facet normal -0 0 1
    outer loop
      vertex 17.3776 7.72746 7
      vertex 23 0 7
      vertex 17.5 8.5 7
    endloop
  endfacet
  facet normal -0 0 1
    outer loop
      vertex 17.0225 7.03054 7
      vertex 23 0 7
      vertex 17.3776 7.72746 7
    endloop
  endfacet
  facet normal -0 0 1
    outer loop
      vertex 16.4695 6.47746 7
      vertex 23 0 7
      vertex 17.0225 7.03054 7
    endloop
  endfacet
  facet normal -0 0 1
    outer loop
      vertex 15.7725 6.12236 7
      vertex 23 0 7
      vertex 16.4695 6.47746 7
    endloop
  endfacet
  facet normal -0 0 1
    outer loop
      vertex 15 6 7
      vertex 23 0 7
      vertex 15.7725 6.12236 7
    endloop
  endfacet
  facet normal 0 0 1
    outer loop
      vertex 0 0 7
      vertex 15 6 7
      vertex 5 6 7
    endloop
  endfacet
  facet normal 0 0 1
    outer loop
      vertex 0 0 7
      vertex 5 6 7
      vertex 4.22746 6.12236 7
    endloop
  endfacet
  facet normal 0 0 1
    outer loop
      vertex 0 0 7
      vertex 2.5 8.5 7
      vertex 0 17 7
    endloop
  endfacet
  facet normal 0 0 1
    outer loop
      vertex 15 6 7
      vertex 0 0 7
      vertex 23 0 7
    endloop
  endfacet
  facet normal 0 0 1
    outer loop
      vertex 3.53054 6.47746 7
      vertex 0 0 7
      vertex 4.22746 6.12236 7
    endloop
  endfacet
  facet normal 0 0 1
    outer loop
      vertex 2.97746 7.03054 7
      vertex 0 0 7
      vertex 3.53054 6.47746 7
    endloop
  endfacet
  facet normal 0 0 1
    outer loop
      vertex 2.62236 7.72746 7
      vertex 0 0 7
      vertex 2.97746 7.03054 7
    endloop
  endfacet
  facet normal 0 0 1
    outer loop
      vertex 2.5 8.5 7
      vertex 0 0 7
      vertex 2.62236 7.72746 7
    endloop
  endfacet
  facet normal 1 -0 0
    outer loop
      vertex 33 1 1.90809
      vertex 33 16 0
      vertex 33 16 1.90809
    endloop
  endfacet
  facet normal 1 0 0
    outer loop
      vertex 33 16 0
      vertex 33 1 1.90809
      vertex 33 1 0
    endloop
  endfacet
  facet normal 0 1 -0
    outer loop
      vertex 23 17 0
      vertex 0 17 7
      vertex 23 17 7
    endloop
  endfacet
  facet normal 0 1 0
    outer loop
      vertex 0 17 7
      vertex 23 17 0
      vertex 0 17 0
    endloop
  endfacet
  facet normal 0 0 -1
    outer loop
      vertex 20 2 0
      vertex 23 1 0
      vertex 23 0 0
    endloop
  endfacet
  facet normal 0 0 -1
    outer loop
      vertex 23 1 0
      vertex 20 2 0
      vertex 23 16 0
    endloop
  endfacet
  facet normal 0 0 -1
    outer loop
      vertex 20 15 0
      vertex 23 16 0
      vertex 20 2 0
    endloop
  endfacet
  facet normal 0 0 -1
    outer loop
      vertex 0 0 0
      vertex 20 2 0
      vertex 23 0 0
    endloop
  endfacet
  facet normal -0 0 -1
    outer loop
      vertex 20 2 0
      vertex 0 0 0
      vertex 0 2 0
    endloop
  endfacet
  facet normal 0 0 -1
    outer loop
      vertex 23 1 0
      vertex 33 16 0
      vertex 33 1 0
    endloop
  endfacet
  facet normal -0 0 -1
    outer loop
      vertex 33 16 0
      vertex 23 1 0
      vertex 23 16 0
    endloop
  endfacet
  facet normal -0 0 -1
    outer loop
      vertex 23 16 0
      vertex 20 15 0
      vertex 23 17 0
    endloop
  endfacet
  facet normal 0 0 -1
    outer loop
      vertex 0 17 0
      vertex 20 15 0
      vertex 0 15 0
    endloop
  endfacet
  facet normal 0 0 -1
    outer loop
      vertex 20 15 0
      vertex 0 17 0
      vertex 23 17 0
    endloop
  endfacet
  facet normal 0 -1 0
    outer loop
      vertex 0 0 0
      vertex 23 0 7
      vertex 0 0 7
    endloop
  endfacet
  facet normal 0 -1 -0
    outer loop
      vertex 23 0 7
      vertex 0 0 0
      vertex 23 0 0
    endloop
  endfacet
  facet normal 0 0 -1
    outer loop
      vertex 20 2 3
      vertex 17.5 8.5 3
      vertex 20 15 3
    endloop
  endfacet
  facet normal 0 0 -1
    outer loop
      vertex 20 2 3
      vertex 17.3776 7.72746 3
      vertex 17.5 8.5 3
    endloop
  endfacet
  facet normal 0 0 -1
    outer loop
      vertex 20 2 3
      vertex 17.0225 7.03054 3
      vertex 17.3776 7.72746 3
    endloop
  endfacet
  facet normal 0 0 -1
    outer loop
      vertex 20 2 3
      vertex 16.4695 6.47746 3
      vertex 17.0225 7.03054 3
    endloop
  endfacet
  facet normal 0 0 -1
    outer loop
      vertex 20 2 3
      vertex 15.7725 6.12236 3
      vertex 16.4695 6.47746 3
    endloop
  endfacet
  facet normal 0 0 -1
    outer loop
      vertex 20 2 3
      vertex 15 6 3
      vertex 15.7725 6.12236 3
    endloop
  endfacet
  facet normal 0 0 -1
    outer loop
      vertex 20 2 3
      vertex 5 6 3
      vertex 15 6 3
    endloop
  endfacet
  facet normal 0 0 -1
    outer loop
      vertex 0 2 3
      vertex 5 6 3
      vertex 20 2 3
    endloop
  endfacet
  facet normal -0 0 -1
    outer loop
      vertex 2.62236 7.72746 3
      vertex 0 2 3
      vertex 2.5 8.5 3
    endloop
  endfacet
  facet normal -0 0 -1
    outer loop
      vertex 2.97746 7.03054 3
      vertex 0 2 3
      vertex 2.62236 7.72746 3
    endloop
  endfacet
  facet normal -0 0 -1
    outer loop
      vertex 3.53054 6.47746 3
      vertex 0 2 3
      vertex 2.97746 7.03054 3
    endloop
  endfacet
  facet normal -0 0 -1
    outer loop
      vertex 4.22746 6.12236 3
      vertex 0 2 3
      vertex 3.53054 6.47746 3
    endloop
  endfacet
  facet normal -0 0 -1
    outer loop
      vertex 5 6 3
      vertex 0 2 3
      vertex 4.22746 6.12236 3
    endloop
  endfacet
  facet normal 0 0 -1
    outer loop
      vertex 17.3776 9.27254 3
      vertex 20 15 3
      vertex 17.5 8.5 3
    endloop
  endfacet
  facet normal 0 0 -1
    outer loop
      vertex 17.0225 9.96946 3
      vertex 20 15 3
      vertex 17.3776 9.27254 3
    endloop
  endfacet
  facet normal 0 0 -1
    outer loop
      vertex 16.4695 10.5225 3
      vertex 20 15 3
      vertex 17.0225 9.96946 3
    endloop
  endfacet
  facet normal 0 0 -1
    outer loop
      vertex 15.7725 10.8776 3
      vertex 20 15 3
      vertex 16.4695 10.5225 3
    endloop
  endfacet
  facet normal 0 0 -1
    outer loop
      vertex 15 11 3
      vertex 20 15 3
      vertex 15.7725 10.8776 3
    endloop
  endfacet
  facet normal 0 0 -1
    outer loop
      vertex 5 11 3
      vertex 20 15 3
      vertex 15 11 3
    endloop
  endfacet
  facet normal 0 0 -1
    outer loop
      vertex 0 15 3
      vertex 5 11 3
      vertex 4.22746 10.8776 3
    endloop
  endfacet
  facet normal 0 0 -1
    outer loop
      vertex 0 15 3
      vertex 2.5 8.5 3
      vertex 0 2 3
    endloop
  endfacet
  facet normal 0 0 -1
    outer loop
      vertex 5 11 3
      vertex 0 15 3
      vertex 20 15 3
    endloop
  endfacet
  facet normal 0 0 -1
    outer loop
      vertex 3.53054 10.5225 3
      vertex 0 15 3
      vertex 4.22746 10.8776 3
    endloop
  endfacet
  facet normal 0 0 -1
    outer loop
      vertex 2.97746 9.96946 3
      vertex 0 15 3
      vertex 3.53054 10.5225 3
    endloop
  endfacet
  facet normal 0 0 -1
    outer loop
      vertex 2.62236 9.27254 3
      vertex 0 15 3
      vertex 2.97746 9.96946 3
    endloop
  endfacet
  facet normal 0 0 -1
    outer loop
      vertex 2.5 8.5 3
      vertex 0 15 3
      vertex 2.62236 9.27254 3
    endloop
  endfacet
  facet normal -1 0 0
    outer loop
      vertex 20 2 0
      vertex 20 15 3
      vertex 20 15 0
    endloop
  endfacet
  facet normal -1 -0 0
    outer loop
      vertex 20 15 3
      vertex 20 2 0
      vertex 20 2 3
    endloop
  endfacet
  facet normal 0 -1 0
    outer loop
      vertex 0 15 0
      vertex 20 15 3
      vertex 0 15 3
    endloop
  endfacet
  facet normal 0 -1 -0
    outer loop
      vertex 20 15 3
      vertex 0 15 0
      vertex 20 15 0
    endloop
  endfacet
  facet normal 0 1 -0
    outer loop
      vertex 20 2 0
      vertex 0 2 3
      vertex 20 2 3
    endloop
  endfacet
  facet normal 0 1 0
    outer loop
      vertex 0 2 3
      vertex 20 2 0
      vertex 0 2 0
    endloop
  endfacet
  facet normal 1 0 0
    outer loop
      vertex 23 17 7
      vertex 23 16 3
      vertex 23 17 0
    endloop
  endfacet
  facet normal 1 0 0
    outer loop
      vertex 23 17 7
      vertex 23 1 3
      vertex 23 16 3
    endloop
  endfacet
  facet normal 1 -0 0
    outer loop
      vertex 23 0 7
      vertex 23 1 3
      vertex 23 17 7
    endloop
  endfacet
  facet normal 1 0 0
    outer loop
      vertex 23 0 0
      vertex 23 1 3
      vertex 23 0 7
    endloop
  endfacet
  facet normal 1 0 0
    outer loop
      vertex 23 1 3
      vertex 23 0 0
      vertex 23 1 0
    endloop
  endfacet
  facet normal 1 0 0
    outer loop
      vertex 23 17 0
      vertex 23 16 3
      vertex 23 16 0
    endloop
  endfacet
  facet normal -0 0 1
    outer loop
      vertex 23 16 3
      vertex 30 1 3
      vertex 30 16 3
    endloop
  endfacet
  facet normal 0 0 1
    outer loop
      vertex 30 1 3
      vertex 23 16 3
      vertex 23 1 3
    endloop
  endfacet
  facet normal 0 -1 0
    outer loop
      vertex 23 1 0
      vertex 30 1 3
      vertex 23 1 3
    endloop
  endfacet
  facet normal 0 -1 0
    outer loop
      vertex 33 1 0
      vertex 30 1 3
      vertex 23 1 0
    endloop
  endfacet
  facet normal 0 -1 0
    outer loop
      vertex 30 1 3
      vertex 33 1 0
      vertex 33 1 1.90809
    endloop
  endfacet
  facet normal 0 1 -0
    outer loop
      vertex 33 16 0
      vertex 30 16 3
      vertex 33 16 1.90809
    endloop
  endfacet
  facet normal 0 1 0
    outer loop
      vertex 30 16 3
      vertex 33 16 0
      vertex 23 16 0
    endloop
  endfacet
  facet normal 0 1 0
    outer loop
      vertex 30 16 3
      vertex 23 16 0
      vertex 23 16 3
    endloop
  endfacet
  facet normal 0.987688 0.156434 0
    outer loop
      vertex 2.62236 7.72746 7
      vertex 2.5 8.5 3
      vertex 2.5 8.5 7
    endloop
  endfacet
  facet normal 0.987688 0.156434 0
    outer loop
      vertex 2.5 8.5 3
      vertex 2.62236 7.72746 7
      vertex 2.62236 7.72746 3
    endloop
  endfacet
  facet normal 0.156435 -0.987688 0
    outer loop
      vertex 4.22746 10.8776 3
      vertex 5 11 7
      vertex 4.22746 10.8776 7
    endloop
  endfacet
  facet normal 0.156435 -0.987688 0
    outer loop
      vertex 5 11 7
      vertex 4.22746 10.8776 3
      vertex 5 11 3
    endloop
  endfacet
  facet normal 0.453991 -0.891006 0
    outer loop
      vertex 3.53054 10.5225 3
      vertex 4.22746 10.8776 7
      vertex 3.53054 10.5225 7
    endloop
  endfacet
  facet normal 0.453991 -0.891006 0
    outer loop
      vertex 4.22746 10.8776 7
      vertex 3.53054 10.5225 3
      vertex 4.22746 10.8776 3
    endloop
  endfacet
  facet normal 0.987688 -0.156434 0
    outer loop
      vertex 2.5 8.5 7
      vertex 2.62236 9.27254 3
      vertex 2.62236 9.27254 7
    endloop
  endfacet
  facet normal 0.987688 -0.156434 0
    outer loop
      vertex 2.62236 9.27254 3
      vertex 2.5 8.5 7
      vertex 2.5 8.5 3
    endloop
  endfacet
  facet normal 0.891006 0.453991 0
    outer loop
      vertex 2.97746 7.03054 7
      vertex 2.62236 7.72746 3
      vertex 2.62236 7.72746 7
    endloop
  endfacet
  facet normal 0.891006 0.453991 0
    outer loop
      vertex 2.62236 7.72746 3
      vertex 2.97746 7.03054 7
      vertex 2.97746 7.03054 3
    endloop
  endfacet
  facet normal 0.156434 0.987688 -0
    outer loop
      vertex 5 6 3
      vertex 4.22746 6.12236 7
      vertex 5 6 7
    endloop
  endfacet
  facet normal 0.156434 0.987688 0
    outer loop
      vertex 4.22746 6.12236 7
      vertex 5 6 3
      vertex 4.22746 6.12236 3
    endloop
  endfacet
  facet normal 0.707107 -0.707107 0
    outer loop
      vertex 2.97746 9.96946 7
      vertex 3.53054 10.5225 3
      vertex 3.53054 10.5225 7
    endloop
  endfacet
  facet normal 0.707107 -0.707107 0
    outer loop
      vertex 3.53054 10.5225 3
      vertex 2.97746 9.96946 7
      vertex 2.97746 9.96946 3
    endloop
  endfacet
  facet normal 0.891006 -0.453991 0
    outer loop
      vertex 2.62236 9.27254 7
      vertex 2.97746 9.96946 3
      vertex 2.97746 9.96946 7
    endloop
  endfacet
  facet normal 0.891006 -0.453991 0
    outer loop
      vertex 2.97746 9.96946 3
      vertex 2.62236 9.27254 7
      vertex 2.62236 9.27254 3
    endloop
  endfacet
  facet normal 0.707107 0.707107 0
    outer loop
      vertex 3.53054 6.47746 7
      vertex 2.97746 7.03054 3
      vertex 2.97746 7.03054 7
    endloop
  endfacet
  facet normal 0.707107 0.707107 0
    outer loop
      vertex 2.97746 7.03054 3
      vertex 3.53054 6.47746 7
      vertex 3.53054 6.47746 3
    endloop
  endfacet
  facet normal 0.453991 0.891006 -0
    outer loop
      vertex 4.22746 6.12236 3
      vertex 3.53054 6.47746 7
      vertex 4.22746 6.12236 7
    endloop
  endfacet
  facet normal 0.453991 0.891006 0
    outer loop
      vertex 3.53054 6.47746 7
      vertex 4.22746 6.12236 3
      vertex 3.53054 6.47746 3
    endloop
  endfacet
  facet normal -0.987688 -0.156436 0
    outer loop
      vertex 17.5 8.5 3
      vertex 17.3776 9.27254 7
      vertex 17.3776 9.27254 3
    endloop
  endfacet
  facet normal -0.987688 -0.156436 0
    outer loop
      vertex 17.3776 9.27254 7
      vertex 17.5 8.5 3
      vertex 17.5 8.5 7
    endloop
  endfacet
  facet normal -0.156434 0.987688 0
    outer loop
      vertex 15.7725 6.12236 3
      vertex 15 6 7
      vertex 15.7725 6.12236 7
    endloop
  endfacet
  facet normal -0.156434 0.987688 0
    outer loop
      vertex 15 6 7
      vertex 15.7725 6.12236 3
      vertex 15 6 3
    endloop
  endfacet
  facet normal -0.45399 0.891007 0
    outer loop
      vertex 16.4695 6.47746 3
      vertex 15.7725 6.12236 7
      vertex 16.4695 6.47746 7
    endloop
  endfacet
  facet normal -0.45399 0.891007 0
    outer loop
      vertex 15.7725 6.12236 7
      vertex 16.4695 6.47746 3
      vertex 15.7725 6.12236 3
    endloop
  endfacet
  facet normal -0.45399 -0.891007 0
    outer loop
      vertex 15.7725 10.8776 3
      vertex 16.4695 10.5225 7
      vertex 15.7725 10.8776 7
    endloop
  endfacet
  facet normal -0.45399 -0.891007 -0
    outer loop
      vertex 16.4695 10.5225 7
      vertex 15.7725 10.8776 3
      vertex 16.4695 10.5225 3
    endloop
  endfacet
  facet normal -0.891006 -0.453991 0
    outer loop
      vertex 17.3776 9.27254 3
      vertex 17.0225 9.96946 7
      vertex 17.0225 9.96946 3
    endloop
  endfacet
  facet normal -0.891006 -0.453991 0
    outer loop
      vertex 17.0225 9.96946 7
      vertex 17.3776 9.27254 3
      vertex 17.3776 9.27254 7
    endloop
  endfacet
  facet normal -0.156435 -0.987688 0
    outer loop
      vertex 15 11 3
      vertex 15.7725 10.8776 7
      vertex 15 11 7
    endloop
  endfacet
  facet normal -0.156435 -0.987688 -0
    outer loop
      vertex 15.7725 10.8776 7
      vertex 15 11 3
      vertex 15.7725 10.8776 3
    endloop
  endfacet
  facet normal -0.987688 0.156436 0
    outer loop
      vertex 17.3776 7.72746 3
      vertex 17.5 8.5 7
      vertex 17.5 8.5 3
    endloop
  endfacet
  facet normal -0.987688 0.156436 0
    outer loop
      vertex 17.5 8.5 7
      vertex 17.3776 7.72746 3
      vertex 17.3776 7.72746 7
    endloop
  endfacet
  facet normal -0.707108 -0.707106 0
    outer loop
      vertex 17.0225 9.96946 3
      vertex 16.4695 10.5225 7
      vertex 16.4695 10.5225 3
    endloop
  endfacet
  facet normal -0.707108 -0.707106 0
    outer loop
      vertex 16.4695 10.5225 7
      vertex 17.0225 9.96946 3
      vertex 17.0225 9.96946 7
    endloop
  endfacet
  facet normal -0.707108 0.707106 0
    outer loop
      vertex 16.4695 6.47746 3
      vertex 17.0225 7.03054 7
      vertex 17.0225 7.03054 3
    endloop
  endfacet
  facet normal -0.707108 0.707106 0
    outer loop
      vertex 17.0225 7.03054 7
      vertex 16.4695 6.47746 3
      vertex 16.4695 6.47746 7
    endloop
  endfacet
  facet normal -0.891006 0.453991 0
    outer loop
      vertex 17.0225 7.03054 3
      vertex 17.3776 7.72746 7
      vertex 17.3776 7.72746 3
    endloop
  endfacet
  facet normal -0.891006 0.453991 0
    outer loop
      vertex 17.3776 7.72746 7
      vertex 17.0225 7.03054 3
      vertex 17.0225 7.03054 7
    endloop
  endfacet
  facet normal 0 -1 0
    outer loop
      vertex 5 11 3
      vertex 15 11 7
      vertex 5 11 7
    endloop
  endfacet
  facet normal 0 -1 -0
    outer loop
      vertex 15 11 7
      vertex 5 11 3
      vertex 15 11 3
    endloop
  endfacet
  facet normal 0 1 -0
    outer loop
      vertex 15 6 3
      vertex 5 6 7
      vertex 15 6 7
    endloop
  endfacet
  facet normal 0 1 0
    outer loop
      vertex 5 6 7
      vertex 15 6 3
      vertex 5 6 3
    endloop
  endfacet
  facet normal 0.34202 0 0.939693
    outer loop
      vertex 30 16 3
      vertex 33 1 1.90809
      vertex 33 16 1.90809
    endloop
  endfacet
  facet normal 0.34202 0 0.939693
    outer loop
      vertex 33 1 1.90809
      vertex 30 16 3
      vertex 30 1 3
    endloop
  endfacet
endsolid OpenSCAD_Model
