solid OpenSCAD_Model
  facet normal -1 0 0
    outer loop
      vertex 0 0 0
      vertex 0 2 19
      vertex 0 2 0
    endloop
  endfacet
  facet normal -1 -0 0
    outer loop
      vertex 0 2 19
      vertex 0 0 0
      vertex 0 0 19
    endloop
  endfacet
  facet normal -1 0 0
    outer loop
      vertex 0 3.3 0
      vertex 0 5 19
      vertex 0 5 0
    endloop
  endfacet
  facet normal -1 -0 0
    outer loop
      vertex 0 5 19
      vertex 0 3.3 0
      vertex 0 3.3 19
    endloop
  endfacet
  facet normal -0 0 1
    outer loop
      vertex 8.95 4.14545 19
      vertex 10 3.3 19
      vertex 10 5 19
    endloop
  endfacet
  facet normal 0 0 1
    outer loop
      vertex 10 3.3 19
      vertex 8.95 4.14545 19
      vertex 9.43812 3.3 19
    endloop
  endfacet
  facet normal 0 0 1
    outer loop
      vertex 10 5 19
      vertex 7.05 4.14545 19
      vertex 8.95 4.14545 19
    endloop
  endfacet
  facet normal 0 0 1
    outer loop
      vertex 7.05 4.14545 19
      vertex 3.9 2.5 19
      vertex 6.1 2.5 19
    endloop
  endfacet
  facet normal 0 0 1
    outer loop
      vertex 7.05 4.14545 19
      vertex 2.95 4.14545 19
      vertex 3.9 2.5 19
    endloop
  endfacet
  facet normal 0 0 1
    outer loop
      vertex 10 5 19
      vertex 2.95 4.14545 19
      vertex 7.05 4.14545 19
    endloop
  endfacet
  facet normal -0 0 1
    outer loop
      vertex 0 5 19
      vertex 2.95 4.14545 19
      vertex 10 5 19
    endloop
  endfacet
  facet normal 0 0 1
    outer loop
      vertex 2.95 4.14545 19
      vertex 0 5 19
      vertex 1.05 4.14545 19
    endloop
  endfacet
  facet normal 0 0 1
    outer loop
      vertex 0 3.3 19
      vertex 1.05 4.14545 19
      vertex 0 5 19
    endloop
  endfacet
  facet normal 0 0 1
    outer loop
      vertex 1.05 4.14545 19
      vertex 0 3.3 19
      vertex 0.561879 3.3 19
    endloop
  endfacet
  facet normal 0 0 1
    outer loop
      vertex 8.95 0.854551 19
      vertex 10 2 19
      vertex 9.61132 2 19
    endloop
  endfacet
  facet normal 0 0 1
    outer loop
      vertex 10 2 19
      vertex 8.95 0.854551 19
      vertex 10 0 19
    endloop
  endfacet
  facet normal -0 0 1
    outer loop
      vertex 7.05 0.854551 19
      vertex 10 0 19
      vertex 8.95 0.854551 19
    endloop
  endfacet
  facet normal -0 0 1
    outer loop
      vertex 3.9 2.5 19
      vertex 7.05 0.854551 19
      vertex 6.1 2.5 19
    endloop
  endfacet
  facet normal 0 0 1
    outer loop
      vertex 2.95 0.854551 19
      vertex 7.05 0.854551 19
      vertex 3.9 2.5 19
    endloop
  endfacet
  facet normal -0 0 1
    outer loop
      vertex 2.95 0.854551 19
      vertex 10 0 19
      vertex 7.05 0.854551 19
    endloop
  endfacet
  facet normal 0 0 1
    outer loop
      vertex 0 0 19
      vertex 2.95 0.854551 19
      vertex 1.05 0.854551 19
    endloop
  endfacet
  facet normal -0 0 1
    outer loop
      vertex 0 2 19
      vertex 1.05 0.854551 19
      vertex 0.388674 2 19
    endloop
  endfacet
  facet normal 0 0 1
    outer loop
      vertex 2.95 0.854551 19
      vertex 0 0 19
      vertex 10 0 19
    endloop
  endfacet
  facet normal 0 0 1
    outer loop
      vertex 0 0 19
      vertex 1.05 0.854551 19
      vertex 0 2 19
    endloop
  endfacet
  facet normal 1 -0 0
    outer loop
      vertex 10 0 19
      vertex 10 2 0
      vertex 10 2 19
    endloop
  endfacet
  facet normal 1 0 0
    outer loop
      vertex 10 2 0
      vertex 10 0 19
      vertex 10 0 0
    endloop
  endfacet
  facet normal 1 -0 0
    outer loop
      vertex 10 3.3 19
      vertex 10 5 0
      vertex 10 5 19
    endloop
  endfacet
  facet normal 1 0 0
    outer loop
      vertex 10 5 0
      vertex 10 3.3 19
      vertex 10 3.3 0
    endloop
  endfacet
  facet normal 0 0 -1
    outer loop
      vertex 8.95 0.854551 0
      vertex 10 2 0
      vertex 10 0 0
    endloop
  endfacet
  facet normal -0 0 -1
    outer loop
      vertex 10 2 0
      vertex 8.95 0.854551 0
      vertex 9.61132 2 0
    endloop
  endfacet
  facet normal 0 0 -1
    outer loop
      vertex 10 0 0
      vertex 7.05 0.854551 0
      vertex 8.95 0.854551 0
    endloop
  endfacet
  facet normal 0 0 -1
    outer loop
      vertex 7.05 0.854551 0
      vertex 3.9 2.5 0
      vertex 6.1 2.5 0
    endloop
  endfacet
  facet normal 0 0 -1
    outer loop
      vertex 7.05 0.854551 0
      vertex 2.95 0.854551 0
      vertex 3.9 2.5 0
    endloop
  endfacet
  facet normal 0 0 -1
    outer loop
      vertex 10 0 0
      vertex 2.95 0.854551 0
      vertex 7.05 0.854551 0
    endloop
  endfacet
  facet normal 0 0 -1
    outer loop
      vertex 0 0 0
      vertex 2.95 0.854551 0
      vertex 10 0 0
    endloop
  endfacet
  facet normal -0 0 -1
    outer loop
      vertex 2.95 0.854551 0
      vertex 0 0 0
      vertex 1.05 0.854551 0
    endloop
  endfacet
  facet normal 0 0 -1
    outer loop
      vertex 0 2 0
      vertex 1.05 0.854551 0
      vertex 0 0 0
    endloop
  endfacet
  facet normal 0 0 -1
    outer loop
      vertex 1.05 0.854551 0
      vertex 0 2 0
      vertex 0.388674 2 0
    endloop
  endfacet
  facet normal 0 0 -1
    outer loop
      vertex 8.95 4.14545 0
      vertex 10 3.3 0
      vertex 9.43812 3.3 0
    endloop
  endfacet
  facet normal 0 0 -1
    outer loop
      vertex 10 3.3 0
      vertex 8.95 4.14545 0
      vertex 10 5 0
    endloop
  endfacet
  facet normal 0 0 -1
    outer loop
      vertex 7.05 4.14545 0
      vertex 10 5 0
      vertex 8.95 4.14545 0
    endloop
  endfacet
  facet normal 0 0 -1
    outer loop
      vertex 3.9 2.5 0
      vertex 7.05 4.14545 0
      vertex 6.1 2.5 0
    endloop
  endfacet
  facet normal 0 0 -1
    outer loop
      vertex 2.95 4.14545 0
      vertex 7.05 4.14545 0
      vertex 3.9 2.5 0
    endloop
  endfacet
  facet normal 0 0 -1
    outer loop
      vertex 2.95 4.14545 0
      vertex 10 5 0
      vertex 7.05 4.14545 0
    endloop
  endfacet
  facet normal 0 0 -1
    outer loop
      vertex 0 5 0
      vertex 2.95 4.14545 0
      vertex 1.05 4.14545 0
    endloop
  endfacet
  facet normal 0 0 -1
    outer loop
      vertex 0 3.3 0
      vertex 1.05 4.14545 0
      vertex 0.561879 3.3 0
    endloop
  endfacet
  facet normal 0 0 -1
    outer loop
      vertex 2.95 4.14545 0
      vertex 0 5 0
      vertex 10 5 0
    endloop
  endfacet
  facet normal 0 0 -1
    outer loop
      vertex 0 5 0
      vertex 1.05 4.14545 0
      vertex 0 3.3 0
    endloop
  endfacet
  facet normal 0 -1 0
    outer loop
      vertex 0 0 0
      vertex 10 0 19
      vertex 0 0 19
    endloop
  endfacet
  facet normal 0 -1 -0
    outer loop
      vertex 10 0 19
      vertex 0 0 0
      vertex 10 0 0
    endloop
  endfacet
  facet normal 0 1 -0
    outer loop
      vertex 10 5 0
      vertex 0 5 19
      vertex 10 5 19
    endloop
  endfacet
  facet normal 0 1 0
    outer loop
      vertex 0 5 19
      vertex 10 5 0
      vertex 0 5 0
    endloop
  endfacet
  facet normal -0.866025 -0.5 0
    outer loop
      vertex 3.9 2.5 0
      vertex 2.95 4.14545 19
      vertex 2.95 4.14545 0
    endloop
  endfacet
  facet normal -0.866025 -0.5 0
    outer loop
      vertex 2.95 4.14545 19
      vertex 3.9 2.5 0
      vertex 3.9 2.5 19
    endloop
  endfacet
  facet normal 0 -1 0
    outer loop
      vertex 1.05 4.14545 0
      vertex 2.95 4.14545 19
      vertex 1.05 4.14545 19
    endloop
  endfacet
  facet normal 0 -1 -0
    outer loop
      vertex 2.95 4.14545 19
      vertex 1.05 4.14545 0
      vertex 2.95 4.14545 0
    endloop
  endfacet
  facet normal 0 1 -0
    outer loop
      vertex 2.95 0.854551 0
      vertex 1.05 0.854551 19
      vertex 2.95 0.854551 19
    endloop
  endfacet
  facet normal 0 1 0
    outer loop
      vertex 1.05 0.854551 19
      vertex 2.95 0.854551 0
      vertex 1.05 0.854551 0
    endloop
  endfacet
  facet normal 0.866025 -0.5 0
    outer loop
      vertex 0.561879 3.3 19
      vertex 1.05 4.14545 0
      vertex 1.05 4.14545 19
    endloop
  endfacet
  facet normal 0.866025 -0.5 0
    outer loop
      vertex 1.05 4.14545 0
      vertex 0.561879 3.3 19
      vertex 0.561879 3.3 0
    endloop
  endfacet
  facet normal -0.866026 0.5 0
    outer loop
      vertex 2.95 0.854551 0
      vertex 3.9 2.5 19
      vertex 3.9 2.5 0
    endloop
  endfacet
  facet normal -0.866026 0.5 0
    outer loop
      vertex 3.9 2.5 19
      vertex 2.95 0.854551 0
      vertex 2.95 0.854551 19
    endloop
  endfacet
  facet normal 0.866026 0.5 0
    outer loop
      vertex 1.05 0.854551 19
      vertex 0.388674 2 0
      vertex 0.388674 2 19
    endloop
  endfacet
  facet normal 0.866026 0.5 0
    outer loop
      vertex 0.388674 2 0
      vertex 1.05 0.854551 19
      vertex 1.05 0.854551 0
    endloop
  endfacet
  facet normal 0 -1 0
    outer loop
      vertex 0 3.3 0
      vertex 0.561879 3.3 19
      vertex 0 3.3 19
    endloop
  endfacet
  facet normal 0 -1 -0
    outer loop
      vertex 0.561879 3.3 19
      vertex 0 3.3 0
      vertex 0.561879 3.3 0
    endloop
  endfacet
  facet normal 0 1 -0
    outer loop
      vertex 0.388674 2 0
      vertex 0 2 19
      vertex 0.388674 2 19
    endloop
  endfacet
  facet normal 0 1 0
    outer loop
      vertex 0 2 19
      vertex 0.388674 2 0
      vertex 0 2 0
    endloop
  endfacet
  facet normal -0.866025 -0.5 0
    outer loop
      vertex 9.43812 3.3 0
      vertex 8.95 4.14545 19
      vertex 8.95 4.14545 0
    endloop
  endfacet
  facet normal -0.866025 -0.5 0
    outer loop
      vertex 8.95 4.14545 19
      vertex 9.43812 3.3 0
      vertex 9.43812 3.3 19
    endloop
  endfacet
  facet normal 0 -1 0
    outer loop
      vertex 7.05 4.14545 0
      vertex 8.95 4.14545 19
      vertex 7.05 4.14545 19
    endloop
  endfacet
  facet normal 0 -1 -0
    outer loop
      vertex 8.95 4.14545 19
      vertex 7.05 4.14545 0
      vertex 8.95 4.14545 0
    endloop
  endfacet
  facet normal 0 1 -0
    outer loop
      vertex 8.95 0.854551 0
      vertex 7.05 0.854551 19
      vertex 8.95 0.854551 19
    endloop
  endfacet
  facet normal 0 1 0
    outer loop
      vertex 7.05 0.854551 19
      vertex 8.95 0.854551 0
      vertex 7.05 0.854551 0
    endloop
  endfacet
  facet normal 0.866025 -0.5 0
    outer loop
      vertex 6.1 2.5 19
      vertex 7.05 4.14545 0
      vertex 7.05 4.14545 19
    endloop
  endfacet
  facet normal 0.866025 -0.5 0
    outer loop
      vertex 7.05 4.14545 0
      vertex 6.1 2.5 19
      vertex 6.1 2.5 0
    endloop
  endfacet
  facet normal -0.866026 0.5 0
    outer loop
      vertex 8.95 0.854551 0
      vertex 9.61132 2 19
      vertex 9.61132 2 0
    endloop
  endfacet
  facet normal -0.866026 0.5 0
    outer loop
      vertex 9.61132 2 19
      vertex 8.95 0.854551 0
      vertex 8.95 0.854551 19
    endloop
  endfacet
  facet normal 0.866026 0.5 0
    outer loop
      vertex 7.05 0.854551 19
      vertex 6.1 2.5 0
      vertex 6.1 2.5 19
    endloop
  endfacet
  facet normal 0.866026 0.5 0
    outer loop
      vertex 6.1 2.5 0
      vertex 7.05 0.854551 19
      vertex 7.05 0.854551 0
    endloop
  endfacet
  facet normal 0 -1 0
    outer loop
      vertex 9.43812 3.3 0
      vertex 10 3.3 19
      vertex 9.43812 3.3 19
    endloop
  endfacet
  facet normal 0 -1 -0
    outer loop
      vertex 10 3.3 19
      vertex 9.43812 3.3 0
      vertex 10 3.3 0
    endloop
  endfacet
  facet normal 0 1 -0
    outer loop
      vertex 10 2 0
      vertex 9.61132 2 19
      vertex 10 2 19
    endloop
  endfacet
  facet normal 0 1 0
    outer loop
      vertex 9.61132 2 19
      vertex 10 2 0
      vertex 9.61132 2 0
    endloop
  endfacet
endsolid OpenSCAD_Model
