solid OpenSCAD_Model
  facet normal 0.866025 0.5 0
    outer loop
      vertex 25.1225 11.1853 19
      vertex 22.248 16.1641 0
      vertex 22.248 16.1641 19
    endloop
  endfacet
  facet normal 0.866025 0.5 0
    outer loop
      vertex 22.248 16.1641 0
      vertex 25.1225 11.1853 19
      vertex 25.1225 11.1853 0
    endloop
  endfacet
  facet normal -0.951056 0.309017 0
    outer loop
      vertex -26.8991 5.71757 0
      vertex -25.1225 11.1853 19
      vertex -25.1225 11.1853 0
    endloop
  endfacet
  facet normal -0.951056 0.309017 0
    outer loop
      vertex -25.1225 11.1853 19
      vertex -26.8991 5.71757 0
      vertex -26.8991 5.71757 19
    endloop
  endfacet
  facet normal 0.743145 0.66913 0
    outer loop
      vertex 22.248 16.1641 19
      vertex 18.4011 20.4365 0
      vertex 18.4011 20.4365 19
    endloop
  endfacet
  facet normal 0.743145 0.66913 0
    outer loop
      vertex 18.4011 20.4365 0
      vertex 22.248 16.1641 19
      vertex 22.248 16.1641 0
    endloop
  endfacet
  facet normal 0.207912 0.978147 -0
    outer loop
      vertex 8.49797 26.1541 0
      vertex 6.46424 26.5863 19
      vertex 8.49797 26.1541 19
    endloop
  endfacet
  facet normal 0.207912 0.978147 0
    outer loop
      vertex 6.46424 26.5863 19
      vertex 8.49797 26.1541 0
      vertex 6.46424 26.5863 0
    endloop
  endfacet
  facet normal 0.406737 0.913545 -0
    outer loop
      vertex 13.75 23.8157 0
      vertex 8.49797 26.1541 19
      vertex 13.75 23.8157 19
    endloop
  endfacet
  facet normal 0.406737 0.913545 0
    outer loop
      vertex 8.49797 26.1541 19
      vertex 13.75 23.8157 0
      vertex 8.49797 26.1541 0
    endloop
  endfacet
  facet normal -0.207912 0.978147 0
    outer loop
      vertex -6.46424 26.5863 0
      vertex -8.49797 26.1541 19
      vertex -6.46424 26.5863 19
    endloop
  endfacet
  facet normal -0.207912 0.978147 0
    outer loop
      vertex -8.49797 26.1541 19
      vertex -6.46424 26.5863 0
      vertex -8.49797 26.1541 0
    endloop
  endfacet
  facet normal -0.866025 0.5 0
    outer loop
      vertex -25.1225 11.1853 0
      vertex -22.248 16.1641 19
      vertex -22.248 16.1641 0
    endloop
  endfacet
  facet normal -0.866025 0.5 0
    outer loop
      vertex -22.248 16.1641 19
      vertex -25.1225 11.1853 0
      vertex -25.1225 11.1853 19
    endloop
  endfacet
  facet normal 0.994522 -0.104528 0
    outer loop
      vertex 26.8991 -5.71757 19
      vertex 27.5 0 0
      vertex 27.5 0 19
    endloop
  endfacet
  facet normal 0.994522 -0.104528 0
    outer loop
      vertex 27.5 0 0
      vertex 26.8991 -5.71757 19
      vertex 26.8991 -5.71757 0
    endloop
  endfacet
  facet normal 0.207912 -0.978147 0
    outer loop
      vertex 6.43235 -26.5931 0
      vertex 8.49797 -26.1541 19
      vertex 6.43235 -26.5931 19
    endloop
  endfacet
  facet normal 0.207912 -0.978147 0
    outer loop
      vertex 8.49797 -26.1541 19
      vertex 6.43235 -26.5931 0
      vertex 8.49797 -26.1541 0
    endloop
  endfacet
  facet normal 0.951056 0.309017 0
    outer loop
      vertex 26.8991 5.71757 19
      vertex 25.1225 11.1853 0
      vertex 25.1225 11.1853 19
    endloop
  endfacet
  facet normal 0.951056 0.309017 0
    outer loop
      vertex 25.1225 11.1853 0
      vertex 26.8991 5.71757 19
      vertex 26.8991 5.71757 0
    endloop
  endfacet
  facet normal 0.587785 0.809017 -0
    outer loop
      vertex 18.4011 20.4365 0
      vertex 13.75 23.8157 19
      vertex 18.4011 20.4365 19
    endloop
  endfacet
  facet normal 0.587785 0.809017 0
    outer loop
      vertex 13.75 23.8157 19
      vertex 18.4011 20.4365 0
      vertex 13.75 23.8157 0
    endloop
  endfacet
  facet normal -0.994522 0.104528 0
    outer loop
      vertex -27.5 0 0
      vertex -26.8991 5.71757 19
      vertex -26.8991 5.71757 0
    endloop
  endfacet
  facet normal -0.994522 0.104528 0
    outer loop
      vertex -26.8991 5.71757 19
      vertex -27.5 0 0
      vertex -27.5 0 19
    endloop
  endfacet
  facet normal -0.743145 0.66913 0
    outer loop
      vertex -22.248 16.1641 0
      vertex -18.4011 20.4365 19
      vertex -18.4011 20.4365 0
    endloop
  endfacet
  facet normal -0.743145 0.66913 0
    outer loop
      vertex -18.4011 20.4365 19
      vertex -22.248 16.1641 0
      vertex -22.248 16.1641 19
    endloop
  endfacet
  facet normal -0.406737 0.913545 0
    outer loop
      vertex -8.49797 26.1541 0
      vertex -13.75 23.8157 19
      vertex -8.49797 26.1541 19
    endloop
  endfacet
  facet normal -0.406737 0.913545 0
    outer loop
      vertex -13.75 23.8157 19
      vertex -8.49797 26.1541 0
      vertex -13.75 23.8157 0
    endloop
  endfacet
  facet normal -0.587785 0.809017 0
    outer loop
      vertex -13.75 23.8157 0
      vertex -18.4011 20.4365 19
      vertex -13.75 23.8157 19
    endloop
  endfacet
  facet normal -0.587785 0.809017 0
    outer loop
      vertex -18.4011 20.4365 19
      vertex -13.75 23.8157 0
      vertex -18.4011 20.4365 0
    endloop
  endfacet
  facet normal 0.994522 0.104528 0
    outer loop
      vertex 27.5 0 19
      vertex 26.8991 5.71757 0
      vertex 26.8991 5.71757 19
    endloop
  endfacet
  facet normal 0.994522 0.104528 0
    outer loop
      vertex 26.8991 5.71757 0
      vertex 27.5 0 19
      vertex 27.5 0 0
    endloop
  endfacet
  facet normal 0.587785 -0.809017 0
    outer loop
      vertex 13.75 -23.8157 0
      vertex 18.4011 -20.4365 19
      vertex 13.75 -23.8157 19
    endloop
  endfacet
  facet normal 0.587785 -0.809017 0
    outer loop
      vertex 18.4011 -20.4365 19
      vertex 13.75 -23.8157 0
      vertex 18.4011 -20.4365 0
    endloop
  endfacet
  facet normal 0 0 1
    outer loop
      vertex 26.5 0 19
      vertex 27.5 0 19
      vertex 26.8991 5.71757 19
    endloop
  endfacet
  facet normal 0 0 1
    outer loop
      vertex 27.5 0 19
      vertex 26.5 0 19
      vertex 26.8991 -5.71757 19
    endloop
  endfacet
  facet normal 0 0 1
    outer loop
      vertex 26.8991 5.71757 19
      vertex 25.9209 5.50966 19
      vertex 26.5 0 19
    endloop
  endfacet
  facet normal 0 0 1
    outer loop
      vertex 25.1225 11.1853 19
      vertex 25.9209 5.50966 19
      vertex 26.8991 5.71757 19
    endloop
  endfacet
  facet normal 0 0 1
    outer loop
      vertex 25.1225 11.1853 19
      vertex 24.209 10.7785 19
      vertex 25.9209 5.50966 19
    endloop
  endfacet
  facet normal 0 0 1
    outer loop
      vertex 22.248 16.1641 19
      vertex 24.209 10.7785 19
      vertex 25.1225 11.1853 19
    endloop
  endfacet
  facet normal 0 0 1
    outer loop
      vertex 22.248 16.1641 19
      vertex 21.4389 15.5763 19
      vertex 24.209 10.7785 19
    endloop
  endfacet
  facet normal 0 0 1
    outer loop
      vertex 18.4011 20.4365 19
      vertex 21.4389 15.5763 19
      vertex 22.248 16.1641 19
    endloop
  endfacet
  facet normal 0 0 1
    outer loop
      vertex 18.4011 20.4365 19
      vertex 17.732 19.6933 19
      vertex 21.4389 15.5763 19
    endloop
  endfacet
  facet normal 0 0 1
    outer loop
      vertex 13.75 23.8157 19
      vertex 17.732 19.6933 19
      vertex 18.4011 20.4365 19
    endloop
  endfacet
  facet normal 0 0 1
    outer loop
      vertex 13.75 23.8157 19
      vertex 13.25 22.9497 19
      vertex 17.732 19.6933 19
    endloop
  endfacet
  facet normal 0 0 1
    outer loop
      vertex 8.49797 26.1541 19
      vertex 13.25 22.9497 19
      vertex 13.75 23.8157 19
    endloop
  endfacet
  facet normal 0 0 1
    outer loop
      vertex 8.49797 26.1541 19
      vertex 8.18895 25.203 19
      vertex 13.25 22.9497 19
    endloop
  endfacet
  facet normal 0 0 1
    outer loop
      vertex 6.46424 26.5863 19
      vertex 8.18895 25.203 19
      vertex 8.49797 26.1541 19
    endloop
  endfacet
  facet normal 0 0 1
    outer loop
      vertex 6.46424 26.5863 19
      vertex 6.14291 25.6379 19
      vertex 8.18895 25.203 19
    endloop
  endfacet
  facet normal 0 0 1
    outer loop
      vertex 5.5 26.5 19
      vertex 6.46424 26.5863 19
      vertex 5.76777 28.2678 19
    endloop
  endfacet
  facet normal 0 0 1
    outer loop
      vertex 6.46424 26.5863 19
      vertex 5.5 26.5 19
      vertex 6.14291 25.6379 19
    endloop
  endfacet
  facet normal 0 0 1
    outer loop
      vertex 4.46352 25.0734 19
      vertex 6.14291 25.6379 19
      vertex 5.5 26.5 19
    endloop
  endfacet
  facet normal 0 0 1
    outer loop
      vertex 5.76777 28.2678 19
      vertex 4.46352 27.9266 19
      vertex 5.5 26.5 19
    endloop
  endfacet
  facet normal 0 0 1
    outer loop
      vertex 4 29 19
      vertex 4.46352 27.9266 19
      vertex 5.76777 28.2678 19
    endloop
  endfacet
  facet normal 0 0 1
    outer loop
      vertex 4 29 19
      vertex 2.78648 27.3817 19
      vertex 4.46352 27.9266 19
    endloop
  endfacet
  facet normal 0 0 1
    outer loop
      vertex 1.5 26.5 19
      vertex 2.78648 27.3817 19
      vertex 2.23223 28.2678 19
    endloop
  endfacet
  facet normal -0 0 1
    outer loop
      vertex 2.23223 28.2678 19
      vertex 2.78648 27.3817 19
      vertex 4 29 19
    endloop
  endfacet
  facet normal -0 0 1
    outer loop
      vertex 25.9209 -5.50966 19
      vertex 26.8991 -5.71757 19
      vertex 26.5 0 19
    endloop
  endfacet
  facet normal 0 0 1
    outer loop
      vertex 25.9209 -5.50966 19
      vertex 25.1225 -11.1853 19
      vertex 26.8991 -5.71757 19
    endloop
  endfacet
  facet normal -0 0 1
    outer loop
      vertex 24.209 -10.7785 19
      vertex 25.1225 -11.1853 19
      vertex 25.9209 -5.50966 19
    endloop
  endfacet
  facet normal 0 0 1
    outer loop
      vertex 24.209 -10.7785 19
      vertex 22.248 -16.1641 19
      vertex 25.1225 -11.1853 19
    endloop
  endfacet
  facet normal -0 0 1
    outer loop
      vertex 21.4389 -15.5763 19
      vertex 22.248 -16.1641 19
      vertex 24.209 -10.7785 19
    endloop
  endfacet
  facet normal 0 0 1
    outer loop
      vertex 21.4389 -15.5763 19
      vertex 18.4011 -20.4365 19
      vertex 22.248 -16.1641 19
    endloop
  endfacet
  facet normal -0 0 1
    outer loop
      vertex 17.732 -19.6933 19
      vertex 18.4011 -20.4365 19
      vertex 21.4389 -15.5763 19
    endloop
  endfacet
  facet normal 0 0 1
    outer loop
      vertex 17.732 -19.6933 19
      vertex 13.75 -23.8157 19
      vertex 18.4011 -20.4365 19
    endloop
  endfacet
  facet normal -0 0 1
    outer loop
      vertex 13.25 -22.9497 19
      vertex 13.75 -23.8157 19
      vertex 17.732 -19.6933 19
    endloop
  endfacet
  facet normal 0 0 1
    outer loop
      vertex 13.25 -22.9497 19
      vertex 8.49797 -26.1541 19
      vertex 13.75 -23.8157 19
    endloop
  endfacet
  facet normal -0 0 1
    outer loop
      vertex 8.18895 -25.203 19
      vertex 8.49797 -26.1541 19
      vertex 13.25 -22.9497 19
    endloop
  endfacet
  facet normal 0 0 1
    outer loop
      vertex 8.18895 -25.203 19
      vertex 6.43235 -26.5931 19
      vertex 8.49797 -26.1541 19
    endloop
  endfacet
  facet normal -0 0 1
    outer loop
      vertex 6 -25.6683 19
      vertex 6.43235 -26.5931 19
      vertex 8.18895 -25.203 19
    endloop
  endfacet
  facet normal -0 0 1
    outer loop
      vertex 6 -25.8118 19
      vertex 6.43235 -26.5931 19
      vertex 6 -25.6683 19
    endloop
  endfacet
  facet normal -0 0 1
    outer loop
      vertex 3.78647 -25.6183 19
      vertex 6 -25.8118 19
      vertex 5.46352 -25.0734 19
    endloop
  endfacet
  facet normal 0 0 1
    outer loop
      vertex 3.78647 -27.3817 19
      vertex 6 -25.8118 19
      vertex 3.78647 -25.6183 19
    endloop
  endfacet
  facet normal 0 -0 1
    outer loop
      vertex 5.46352 -27.9266 19
      vertex 6 -25.8118 19
      vertex 3.78647 -27.3817 19
    endloop
  endfacet
  facet normal 0 0 1
    outer loop
      vertex 6 -25.8118 19
      vertex 5.46352 -27.9266 19
      vertex 6.43235 -26.5931 19
    endloop
  endfacet
  facet normal 0 0 1
    outer loop
      vertex 6.14291 25.6379 19
      vertex 4.46352 25.0734 19
      vertex 5.76777 24.7322 19
    endloop
  endfacet
  facet normal 0 0 1
    outer loop
      vertex 4.46352 25.0734 19
      vertex 4 24 19
      vertex 5.76777 24.7322 19
    endloop
  endfacet
  facet normal 0 0 1
    outer loop
      vertex 2.78648 25.6183 19
      vertex 4 24 19
      vertex 4.46352 25.0734 19
    endloop
  endfacet
  facet normal 0 0 1
    outer loop
      vertex 2.78648 25.6183 19
      vertex 2.23223 24.7322 19
      vertex 4 24 19
    endloop
  endfacet
  facet normal 0 0 1
    outer loop
      vertex 2.78648 27.3817 19
      vertex 1.5 26.5 19
      vertex 2.78648 25.6183 19
    endloop
  endfacet
  facet normal 0 0 1
    outer loop
      vertex 2.78648 25.6183 19
      vertex 1.5 26.5 19
      vertex 2.23223 24.7322 19
    endloop
  endfacet
  facet normal 0 0 1
    outer loop
      vertex -8.49797 -26.1541 19
      vertex -6.21352 -25.6229 19
      vertex -8.18895 -25.203 19
    endloop
  endfacet
  facet normal 0 0 1
    outer loop
      vertex -6.21352 -25.6229 19
      vertex -8.49797 -26.1541 19
      vertex -6.21352 -26.6396 19
    endloop
  endfacet
  facet normal 0 0 1
    outer loop
      vertex -13.25 -22.9497 19
      vertex -8.49797 -26.1541 19
      vertex -8.18895 -25.203 19
    endloop
  endfacet
  facet normal 0 0 1
    outer loop
      vertex -13.25 -22.9497 19
      vertex -13.75 -23.8157 19
      vertex -8.49797 -26.1541 19
    endloop
  endfacet
  facet normal 0 0 1
    outer loop
      vertex -17.732 -19.6933 19
      vertex -13.75 -23.8157 19
      vertex -13.25 -22.9497 19
    endloop
  endfacet
  facet normal 0 0 1
    outer loop
      vertex -17.732 -19.6933 19
      vertex -18.4011 -20.4365 19
      vertex -13.75 -23.8157 19
    endloop
  endfacet
  facet normal 0 0 1
    outer loop
      vertex -21.4389 -15.5763 19
      vertex -18.4011 -20.4365 19
      vertex -17.732 -19.6933 19
    endloop
  endfacet
  facet normal 0 0 1
    outer loop
      vertex -21.4389 -15.5763 19
      vertex -22.248 -16.1641 19
      vertex -18.4011 -20.4365 19
    endloop
  endfacet
  facet normal 0 0 1
    outer loop
      vertex -24.209 -10.7785 19
      vertex -22.248 -16.1641 19
      vertex -21.4389 -15.5763 19
    endloop
  endfacet
  facet normal 0 0 1
    outer loop
      vertex -24.209 -10.7785 19
      vertex -25.1225 -11.1853 19
      vertex -22.248 -16.1641 19
    endloop
  endfacet
  facet normal 0 0 1
    outer loop
      vertex -25.9209 -5.50966 19
      vertex -25.1225 -11.1853 19
      vertex -24.209 -10.7785 19
    endloop
  endfacet
  facet normal 0 0 1
    outer loop
      vertex -25.9209 -5.50966 19
      vertex -26.8991 -5.71757 19
      vertex -25.1225 -11.1853 19
    endloop
  endfacet
  facet normal 0 0 1
    outer loop
      vertex -26.5 0 19
      vertex -26.8991 -5.71757 19
      vertex -25.9209 -5.50966 19
    endloop
  endfacet
  facet normal 0 0 1
    outer loop
      vertex -27.5 0 19
      vertex -26.5 0 19
      vertex -26.8991 5.71757 19
    endloop
  endfacet
  facet normal 0 0 1
    outer loop
      vertex -26.5 0 19
      vertex -27.5 0 19
      vertex -26.8991 -5.71757 19
    endloop
  endfacet
  facet normal 0 0 1
    outer loop
      vertex -6.21352 -26.6396 19
      vertex -3.5 -26.5 19
      vertex -4.53647 -25.0734 19
    endloop
  endfacet
  facet normal 0 0 1
    outer loop
      vertex -6.21352 -25.6229 19
      vertex -4.53647 -25.0734 19
      vertex -6.21352 -25.6183 19
    endloop
  endfacet
  facet normal 0 0 1
    outer loop
      vertex -6.21352 -26.6396 19
      vertex -4.53647 -25.0734 19
      vertex -6.21352 -25.6229 19
    endloop
  endfacet
  facet normal 0 0 1
    outer loop
      vertex -3.5 -26.5 19
      vertex -6.21352 -26.6396 19
      vertex -4.53647 -27.9266 19
    endloop
  endfacet
  facet normal 0 0 1
    outer loop
      vertex -4.53647 -27.9266 19
      vertex -6.21352 -26.6396 19
      vertex -6.21352 -27.3817 19
    endloop
  endfacet
  facet normal 0 0 1
    outer loop
      vertex -2.5 26.5 19
      vertex -1.5 26.5 19
      vertex -2.23223 28.2678 19
    endloop
  endfacet
  facet normal 0 0 1
    outer loop
      vertex -1.5 26.5 19
      vertex -2.5 26.5 19
      vertex -2.23223 24.7322 19
    endloop
  endfacet
  facet normal 0 0 1
    outer loop
      vertex -2.23223 28.2678 19
      vertex -3.53648 27.9266 19
      vertex -2.5 26.5 19
    endloop
  endfacet
  facet normal 0 0 1
    outer loop
      vertex -4 29 19
      vertex -3.53648 27.9266 19
      vertex -2.23223 28.2678 19
    endloop
  endfacet
  facet normal 0 0 1
    outer loop
      vertex -4 29 19
      vertex -5.21352 27.3817 19
      vertex -3.53648 27.9266 19
    endloop
  endfacet
  facet normal 0 0 1
    outer loop
      vertex -6.46424 26.5863 19
      vertex -5.21352 27.3817 19
      vertex -5.76777 28.2678 19
    endloop
  endfacet
  facet normal -0 0 1
    outer loop
      vertex -5.76777 28.2678 19
      vertex -5.21352 27.3817 19
      vertex -4 29 19
    endloop
  endfacet
  facet normal -0 0 1
    outer loop
      vertex -3.53648 25.0734 19
      vertex -2.23223 24.7322 19
      vertex -2.5 26.5 19
    endloop
  endfacet
  facet normal 0 0 1
    outer loop
      vertex -3.53648 25.0734 19
      vertex -4 24 19
      vertex -2.23223 24.7322 19
    endloop
  endfacet
  facet normal 0 0 1
    outer loop
      vertex -5.21352 25.6183 19
      vertex -4 24 19
      vertex -3.53648 25.0734 19
    endloop
  endfacet
  facet normal 0 0 1
    outer loop
      vertex -5.21352 25.6183 19
      vertex -5.76777 24.7322 19
      vertex -4 24 19
    endloop
  endfacet
  facet normal 0 0 1
    outer loop
      vertex -5.21352 27.3817 19
      vertex -6.46424 26.5863 19
      vertex -5.21352 25.6183 19
    endloop
  endfacet
  facet normal 0 0 1
    outer loop
      vertex -5.21352 25.6183 19
      vertex -6.14291 25.6379 19
      vertex -5.76777 24.7322 19
    endloop
  endfacet
  facet normal 0 0 1
    outer loop
      vertex -5.21352 25.6183 19
      vertex -6.46424 26.5863 19
      vertex -6.14291 25.6379 19
    endloop
  endfacet
  facet normal 0 0 1
    outer loop
      vertex -6.46424 26.5863 19
      vertex -8.18895 25.203 19
      vertex -6.14291 25.6379 19
    endloop
  endfacet
  facet normal -0 0 1
    outer loop
      vertex -8.49797 26.1541 19
      vertex -8.18895 25.203 19
      vertex -6.46424 26.5863 19
    endloop
  endfacet
  facet normal 0 0 1
    outer loop
      vertex -8.49797 26.1541 19
      vertex -13.25 22.9497 19
      vertex -8.18895 25.203 19
    endloop
  endfacet
  facet normal -0 0 1
    outer loop
      vertex -13.75 23.8157 19
      vertex -13.25 22.9497 19
      vertex -8.49797 26.1541 19
    endloop
  endfacet
  facet normal 0 0 1
    outer loop
      vertex -13.75 23.8157 19
      vertex -17.732 19.6933 19
      vertex -13.25 22.9497 19
    endloop
  endfacet
  facet normal -0 0 1
    outer loop
      vertex -18.4011 20.4365 19
      vertex -17.732 19.6933 19
      vertex -13.75 23.8157 19
    endloop
  endfacet
  facet normal 0 0 1
    outer loop
      vertex -18.4011 20.4365 19
      vertex -21.4389 15.5763 19
      vertex -17.732 19.6933 19
    endloop
  endfacet
  facet normal -0 0 1
    outer loop
      vertex -22.248 16.1641 19
      vertex -21.4389 15.5763 19
      vertex -18.4011 20.4365 19
    endloop
  endfacet
  facet normal 0 0 1
    outer loop
      vertex -22.248 16.1641 19
      vertex -24.209 10.7785 19
      vertex -21.4389 15.5763 19
    endloop
  endfacet
  facet normal -0 0 1
    outer loop
      vertex -25.1225 11.1853 19
      vertex -24.209 10.7785 19
      vertex -22.248 16.1641 19
    endloop
  endfacet
  facet normal 0 0 1
    outer loop
      vertex -25.1225 11.1853 19
      vertex -25.9209 5.50966 19
      vertex -24.209 10.7785 19
    endloop
  endfacet
  facet normal 0 0 1
    outer loop
      vertex -25.9209 5.50966 19
      vertex -26.8991 5.71757 19
      vertex -26.5 0 19
    endloop
  endfacet
  facet normal -0 0 1
    outer loop
      vertex -26.8991 5.71757 19
      vertex -25.9209 5.50966 19
      vertex -25.1225 11.1853 19
    endloop
  endfacet
  facet normal 0.951056 -0.309017 0
    outer loop
      vertex 25.1225 -11.1853 19
      vertex 26.8991 -5.71757 0
      vertex 26.8991 -5.71757 19
    endloop
  endfacet
  facet normal 0.951056 -0.309017 0
    outer loop
      vertex 26.8991 -5.71757 0
      vertex 25.1225 -11.1853 19
      vertex 25.1225 -11.1853 0
    endloop
  endfacet
  facet normal 0.866025 -0.5 0
    outer loop
      vertex 22.248 -16.1641 19
      vertex 25.1225 -11.1853 0
      vertex 25.1225 -11.1853 19
    endloop
  endfacet
  facet normal 0.866025 -0.5 0
    outer loop
      vertex 25.1225 -11.1853 0
      vertex 22.248 -16.1641 19
      vertex 22.248 -16.1641 0
    endloop
  endfacet
  facet normal -0.207912 -0.978147 0
    outer loop
      vertex -8.49797 -26.1541 0
      vertex -6.21352 -26.6396 19
      vertex -8.49797 -26.1541 19
    endloop
  endfacet
  facet normal -0.207912 -0.978147 -0
    outer loop
      vertex -6.21352 -26.6396 19
      vertex -8.49797 -26.1541 0
      vertex -6.21352 -26.6396 0
    endloop
  endfacet
  facet normal -0.994522 -0.104528 0
    outer loop
      vertex -26.8991 -5.71757 0
      vertex -27.5 0 19
      vertex -27.5 0 0
    endloop
  endfacet
  facet normal -0.994522 -0.104528 0
    outer loop
      vertex -27.5 0 19
      vertex -26.8991 -5.71757 0
      vertex -26.8991 -5.71757 19
    endloop
  endfacet
  facet normal -0.866025 -0.5 0
    outer loop
      vertex -22.248 -16.1641 0
      vertex -25.1225 -11.1853 19
      vertex -25.1225 -11.1853 0
    endloop
  endfacet
  facet normal -0.866025 -0.5 0
    outer loop
      vertex -25.1225 -11.1853 19
      vertex -22.248 -16.1641 0
      vertex -22.248 -16.1641 19
    endloop
  endfacet
  facet normal 0.743145 -0.66913 0
    outer loop
      vertex 18.4011 -20.4365 19
      vertex 22.248 -16.1641 0
      vertex 22.248 -16.1641 19
    endloop
  endfacet
  facet normal 0.743145 -0.66913 0
    outer loop
      vertex 22.248 -16.1641 0
      vertex 18.4011 -20.4365 19
      vertex 18.4011 -20.4365 0
    endloop
  endfacet
  facet normal -0.587785 -0.809017 0
    outer loop
      vertex -18.4011 -20.4365 0
      vertex -13.75 -23.8157 19
      vertex -18.4011 -20.4365 19
    endloop
  endfacet
  facet normal -0.587785 -0.809017 -0
    outer loop
      vertex -13.75 -23.8157 19
      vertex -18.4011 -20.4365 0
      vertex -13.75 -23.8157 0
    endloop
  endfacet
  facet normal -0.406737 -0.913545 0
    outer loop
      vertex -13.75 -23.8157 0
      vertex -8.49797 -26.1541 19
      vertex -13.75 -23.8157 19
    endloop
  endfacet
  facet normal -0.406737 -0.913545 -0
    outer loop
      vertex -8.49797 -26.1541 19
      vertex -13.75 -23.8157 0
      vertex -8.49797 -26.1541 0
    endloop
  endfacet
  facet normal 0 0 -1
    outer loop
      vertex 5.46352 -27.9266 0
      vertex 6 -25.8118 0
      vertex 6.43235 -26.5931 0
    endloop
  endfacet
  facet normal 0 0 -1
    outer loop
      vertex 3.78647 -27.3817 0
      vertex 6 -25.8118 0
      vertex 5.46352 -27.9266 0
    endloop
  endfacet
  facet normal 0 0 -1
    outer loop
      vertex 3.78647 -25.6183 0
      vertex 6 -25.8118 0
      vertex 3.78647 -27.3817 0
    endloop
  endfacet
  facet normal 0 0 -1
    outer loop
      vertex 6 -25.8118 0
      vertex 3.78647 -25.6183 0
      vertex 5.46352 -25.0734 0
    endloop
  endfacet
  facet normal 0 0 -1
    outer loop
      vertex 26.5 0 0
      vertex 27.5 0 0
      vertex 26.8991 -5.71757 0
    endloop
  endfacet
  facet normal 0 0 -1
    outer loop
      vertex 27.5 0 0
      vertex 26.5 0 0
      vertex 26.8991 5.71757 0
    endloop
  endfacet
  facet normal 0 0 -1
    outer loop
      vertex 26.8991 -5.71757 0
      vertex 25.9209 -5.50966 0
      vertex 26.5 0 0
    endloop
  endfacet
  facet normal 0 0 -1
    outer loop
      vertex 25.1225 -11.1853 0
      vertex 25.9209 -5.50966 0
      vertex 26.8991 -5.71757 0
    endloop
  endfacet
  facet normal 0 0 -1
    outer loop
      vertex 25.1225 -11.1853 0
      vertex 24.209 -10.7785 0
      vertex 25.9209 -5.50966 0
    endloop
  endfacet
  facet normal 0 0 -1
    outer loop
      vertex 22.248 -16.1641 0
      vertex 24.209 -10.7785 0
      vertex 25.1225 -11.1853 0
    endloop
  endfacet
  facet normal 0 0 -1
    outer loop
      vertex 22.248 -16.1641 0
      vertex 21.4389 -15.5763 0
      vertex 24.209 -10.7785 0
    endloop
  endfacet
  facet normal 0 0 -1
    outer loop
      vertex 18.4011 -20.4365 0
      vertex 21.4389 -15.5763 0
      vertex 22.248 -16.1641 0
    endloop
  endfacet
  facet normal 0 0 -1
    outer loop
      vertex 18.4011 -20.4365 0
      vertex 17.732 -19.6933 0
      vertex 21.4389 -15.5763 0
    endloop
  endfacet
  facet normal 0 0 -1
    outer loop
      vertex 13.75 -23.8157 0
      vertex 17.732 -19.6933 0
      vertex 18.4011 -20.4365 0
    endloop
  endfacet
  facet normal 0 0 -1
    outer loop
      vertex 13.75 -23.8157 0
      vertex 13.25 -22.9497 0
      vertex 17.732 -19.6933 0
    endloop
  endfacet
  facet normal 0 0 -1
    outer loop
      vertex 8.49797 -26.1541 0
      vertex 13.25 -22.9497 0
      vertex 13.75 -23.8157 0
    endloop
  endfacet
  facet normal 0 0 -1
    outer loop
      vertex 8.49797 -26.1541 0
      vertex 8.18895 -25.203 0
      vertex 13.25 -22.9497 0
    endloop
  endfacet
  facet normal 0 0 -1
    outer loop
      vertex 6.43235 -26.5931 0
      vertex 8.18895 -25.203 0
      vertex 8.49797 -26.1541 0
    endloop
  endfacet
  facet normal 0 0 -1
    outer loop
      vertex 6 -25.6683 0
      vertex 6.43235 -26.5931 0
      vertex 6 -25.8118 0
    endloop
  endfacet
  facet normal 0 0 -1
    outer loop
      vertex 6.43235 -26.5931 0
      vertex 6 -25.6683 0
      vertex 8.18895 -25.203 0
    endloop
  endfacet
  facet normal 0 0 -1
    outer loop
      vertex 25.9209 5.50966 0
      vertex 26.8991 5.71757 0
      vertex 26.5 0 0
    endloop
  endfacet
  facet normal 0 0 -1
    outer loop
      vertex 25.9209 5.50966 0
      vertex 25.1225 11.1853 0
      vertex 26.8991 5.71757 0
    endloop
  endfacet
  facet normal 0 0 -1
    outer loop
      vertex 24.209 10.7785 0
      vertex 25.1225 11.1853 0
      vertex 25.9209 5.50966 0
    endloop
  endfacet
  facet normal 0 0 -1
    outer loop
      vertex 24.209 10.7785 0
      vertex 22.248 16.1641 0
      vertex 25.1225 11.1853 0
    endloop
  endfacet
  facet normal 0 0 -1
    outer loop
      vertex 21.4389 15.5763 0
      vertex 22.248 16.1641 0
      vertex 24.209 10.7785 0
    endloop
  endfacet
  facet normal 0 0 -1
    outer loop
      vertex 21.4389 15.5763 0
      vertex 18.4011 20.4365 0
      vertex 22.248 16.1641 0
    endloop
  endfacet
  facet normal 0 0 -1
    outer loop
      vertex 17.732 19.6933 0
      vertex 18.4011 20.4365 0
      vertex 21.4389 15.5763 0
    endloop
  endfacet
  facet normal 0 0 -1
    outer loop
      vertex 17.732 19.6933 0
      vertex 13.75 23.8157 0
      vertex 18.4011 20.4365 0
    endloop
  endfacet
  facet normal 0 0 -1
    outer loop
      vertex 13.25 22.9497 0
      vertex 13.75 23.8157 0
      vertex 17.732 19.6933 0
    endloop
  endfacet
  facet normal 0 0 -1
    outer loop
      vertex 13.25 22.9497 0
      vertex 8.49797 26.1541 0
      vertex 13.75 23.8157 0
    endloop
  endfacet
  facet normal 0 0 -1
    outer loop
      vertex 8.18895 25.203 0
      vertex 8.49797 26.1541 0
      vertex 13.25 22.9497 0
    endloop
  endfacet
  facet normal 0 0 -1
    outer loop
      vertex 8.18895 25.203 0
      vertex 6.46424 26.5863 0
      vertex 8.49797 26.1541 0
    endloop
  endfacet
  facet normal 0 0 -1
    outer loop
      vertex 6.14291 25.6379 0
      vertex 6.46424 26.5863 0
      vertex 8.18895 25.203 0
    endloop
  endfacet
  facet normal 0 0 -1
    outer loop
      vertex 4.46352 25.0734 0
      vertex 6.14291 25.6379 0
      vertex 5.76777 24.7322 0
    endloop
  endfacet
  facet normal 0 0 -1
    outer loop
      vertex 6.14291 25.6379 0
      vertex 5.5 26.5 0
      vertex 6.46424 26.5863 0
    endloop
  endfacet
  facet normal -0 0 -1
    outer loop
      vertex 6.46424 26.5863 0
      vertex 5.5 26.5 0
      vertex 5.76777 28.2678 0
    endloop
  endfacet
  facet normal -0 0 -1
    outer loop
      vertex 6.14291 25.6379 0
      vertex 4.46352 25.0734 0
      vertex 5.5 26.5 0
    endloop
  endfacet
  facet normal 0 0 -1
    outer loop
      vertex 4 24 0
      vertex 4.46352 25.0734 0
      vertex 5.76777 24.7322 0
    endloop
  endfacet
  facet normal 0 0 -1
    outer loop
      vertex 4 24 0
      vertex 2.78648 25.6183 0
      vertex 4.46352 25.0734 0
    endloop
  endfacet
  facet normal 0 0 -1
    outer loop
      vertex 1.5 26.5 0
      vertex 2.78648 25.6183 0
      vertex 2.23223 24.7322 0
    endloop
  endfacet
  facet normal 0 0 -1
    outer loop
      vertex 2.23223 24.7322 0
      vertex 2.78648 25.6183 0
      vertex 4 24 0
    endloop
  endfacet
  facet normal 0 0 -1
    outer loop
      vertex 4.46352 27.9266 0
      vertex 5.76777 28.2678 0
      vertex 5.5 26.5 0
    endloop
  endfacet
  facet normal 0 0 -1
    outer loop
      vertex 4.46352 27.9266 0
      vertex 4 29 0
      vertex 5.76777 28.2678 0
    endloop
  endfacet
  facet normal 0 0 -1
    outer loop
      vertex 2.78648 27.3817 0
      vertex 4 29 0
      vertex 4.46352 27.9266 0
    endloop
  endfacet
  facet normal 0 0 -1
    outer loop
      vertex 2.78648 27.3817 0
      vertex 2.23223 28.2678 0
      vertex 4 29 0
    endloop
  endfacet
  facet normal 0 0 -1
    outer loop
      vertex 2.78648 25.6183 0
      vertex 1.5 26.5 0
      vertex 2.78648 27.3817 0
    endloop
  endfacet
  facet normal -0 0 -1
    outer loop
      vertex 2.78648 27.3817 0
      vertex 1.5 26.5 0
      vertex 2.23223 28.2678 0
    endloop
  endfacet
  facet normal 0 0 -1
    outer loop
      vertex -8.49797 -26.1541 0
      vertex -6.21352 -25.6229 0
      vertex -6.21352 -26.6396 0
    endloop
  endfacet
  facet normal -0 0 -1
    outer loop
      vertex -6.21352 -25.6229 0
      vertex -8.49797 -26.1541 0
      vertex -8.18895 -25.203 0
    endloop
  endfacet
  facet normal 0 0 -1
    outer loop
      vertex -8.49797 -26.1541 0
      vertex -13.25 -22.9497 0
      vertex -8.18895 -25.203 0
    endloop
  endfacet
  facet normal 0 0 -1
    outer loop
      vertex -13.75 -23.8157 0
      vertex -13.25 -22.9497 0
      vertex -8.49797 -26.1541 0
    endloop
  endfacet
  facet normal 0 0 -1
    outer loop
      vertex -13.75 -23.8157 0
      vertex -17.732 -19.6933 0
      vertex -13.25 -22.9497 0
    endloop
  endfacet
  facet normal 0 0 -1
    outer loop
      vertex -18.4011 -20.4365 0
      vertex -17.732 -19.6933 0
      vertex -13.75 -23.8157 0
    endloop
  endfacet
  facet normal 0 0 -1
    outer loop
      vertex -18.4011 -20.4365 0
      vertex -21.4389 -15.5763 0
      vertex -17.732 -19.6933 0
    endloop
  endfacet
  facet normal 0 0 -1
    outer loop
      vertex -22.248 -16.1641 0
      vertex -21.4389 -15.5763 0
      vertex -18.4011 -20.4365 0
    endloop
  endfacet
  facet normal 0 0 -1
    outer loop
      vertex -22.248 -16.1641 0
      vertex -24.209 -10.7785 0
      vertex -21.4389 -15.5763 0
    endloop
  endfacet
  facet normal 0 0 -1
    outer loop
      vertex -25.1225 -11.1853 0
      vertex -24.209 -10.7785 0
      vertex -22.248 -16.1641 0
    endloop
  endfacet
  facet normal 0 0 -1
    outer loop
      vertex -25.1225 -11.1853 0
      vertex -25.9209 -5.50966 0
      vertex -24.209 -10.7785 0
    endloop
  endfacet
  facet normal -0 0 -1
    outer loop
      vertex -25.9209 -5.50966 0
      vertex -26.8991 -5.71757 0
      vertex -26.5 0 0
    endloop
  endfacet
  facet normal 0 0 -1
    outer loop
      vertex -26.8991 -5.71757 0
      vertex -25.9209 -5.50966 0
      vertex -25.1225 -11.1853 0
    endloop
  endfacet
  facet normal 0 0 -1
    outer loop
      vertex -6.21352 -26.6396 0
      vertex -3.5 -26.5 0
      vertex -4.53647 -27.9266 0
    endloop
  endfacet
  facet normal 0 0 -1
    outer loop
      vertex -6.21352 -26.6396 0
      vertex -4.53647 -27.9266 0
      vertex -6.21352 -27.3817 0
    endloop
  endfacet
  facet normal -0 0 -1
    outer loop
      vertex -3.5 -26.5 0
      vertex -6.21352 -26.6396 0
      vertex -4.53647 -25.0734 0
    endloop
  endfacet
  facet normal 0 0 -1
    outer loop
      vertex -6.21352 -25.6229 0
      vertex -4.53647 -25.0734 0
      vertex -6.21352 -26.6396 0
    endloop
  endfacet
  facet normal 0 0 -1
    outer loop
      vertex -4.53647 -25.0734 0
      vertex -6.21352 -25.6229 0
      vertex -6.21352 -25.6183 0
    endloop
  endfacet
  facet normal 0 0 -1
    outer loop
      vertex -2.5 26.5 0
      vertex -1.5 26.5 0
      vertex -2.23223 24.7322 0
    endloop
  endfacet
  facet normal 0 0 -1
    outer loop
      vertex -1.5 26.5 0
      vertex -2.5 26.5 0
      vertex -2.23223 28.2678 0
    endloop
  endfacet
  facet normal 0 0 -1
    outer loop
      vertex -2.23223 24.7322 0
      vertex -3.53648 25.0734 0
      vertex -2.5 26.5 0
    endloop
  endfacet
  facet normal 0 0 -1
    outer loop
      vertex -4 24 0
      vertex -3.53648 25.0734 0
      vertex -2.23223 24.7322 0
    endloop
  endfacet
  facet normal 0 0 -1
    outer loop
      vertex -4 24 0
      vertex -5.21352 25.6183 0
      vertex -3.53648 25.0734 0
    endloop
  endfacet
  facet normal 0 0 -1
    outer loop
      vertex -6.14291 25.6379 0
      vertex -5.21352 25.6183 0
      vertex -5.76777 24.7322 0
    endloop
  endfacet
  facet normal 0 0 -1
    outer loop
      vertex -5.76777 24.7322 0
      vertex -5.21352 25.6183 0
      vertex -4 24 0
    endloop
  endfacet
  facet normal 0 0 -1
    outer loop
      vertex -3.53648 27.9266 0
      vertex -2.23223 28.2678 0
      vertex -2.5 26.5 0
    endloop
  endfacet
  facet normal 0 0 -1
    outer loop
      vertex -3.53648 27.9266 0
      vertex -4 29 0
      vertex -2.23223 28.2678 0
    endloop
  endfacet
  facet normal 0 0 -1
    outer loop
      vertex -5.21352 27.3817 0
      vertex -4 29 0
      vertex -3.53648 27.9266 0
    endloop
  endfacet
  facet normal 0 0 -1
    outer loop
      vertex -5.21352 27.3817 0
      vertex -5.76777 28.2678 0
      vertex -4 29 0
    endloop
  endfacet
  facet normal 0 0 -1
    outer loop
      vertex -6.46424 26.5863 0
      vertex -5.21352 25.6183 0
      vertex -6.14291 25.6379 0
    endloop
  endfacet
  facet normal 0 0 -1
    outer loop
      vertex -5.21352 25.6183 0
      vertex -6.46424 26.5863 0
      vertex -5.21352 27.3817 0
    endloop
  endfacet
  facet normal -0 0 -1
    outer loop
      vertex -5.21352 27.3817 0
      vertex -6.46424 26.5863 0
      vertex -5.76777 28.2678 0
    endloop
  endfacet
  facet normal 0 0 -1
    outer loop
      vertex -8.18895 25.203 0
      vertex -6.46424 26.5863 0
      vertex -6.14291 25.6379 0
    endloop
  endfacet
  facet normal 0 0 -1
    outer loop
      vertex -8.18895 25.203 0
      vertex -8.49797 26.1541 0
      vertex -6.46424 26.5863 0
    endloop
  endfacet
  facet normal 0 0 -1
    outer loop
      vertex -13.25 22.9497 0
      vertex -8.49797 26.1541 0
      vertex -8.18895 25.203 0
    endloop
  endfacet
  facet normal 0 0 -1
    outer loop
      vertex -13.25 22.9497 0
      vertex -13.75 23.8157 0
      vertex -8.49797 26.1541 0
    endloop
  endfacet
  facet normal 0 0 -1
    outer loop
      vertex -17.732 19.6933 0
      vertex -13.75 23.8157 0
      vertex -13.25 22.9497 0
    endloop
  endfacet
  facet normal 0 0 -1
    outer loop
      vertex -17.732 19.6933 0
      vertex -18.4011 20.4365 0
      vertex -13.75 23.8157 0
    endloop
  endfacet
  facet normal 0 0 -1
    outer loop
      vertex -21.4389 15.5763 0
      vertex -18.4011 20.4365 0
      vertex -17.732 19.6933 0
    endloop
  endfacet
  facet normal 0 0 -1
    outer loop
      vertex -21.4389 15.5763 0
      vertex -22.248 16.1641 0
      vertex -18.4011 20.4365 0
    endloop
  endfacet
  facet normal 0 0 -1
    outer loop
      vertex -24.209 10.7785 0
      vertex -22.248 16.1641 0
      vertex -21.4389 15.5763 0
    endloop
  endfacet
  facet normal 0 0 -1
    outer loop
      vertex -24.209 10.7785 0
      vertex -25.1225 11.1853 0
      vertex -22.248 16.1641 0
    endloop
  endfacet
  facet normal 0 0 -1
    outer loop
      vertex -25.9209 5.50966 0
      vertex -25.1225 11.1853 0
      vertex -24.209 10.7785 0
    endloop
  endfacet
  facet normal 0 0 -1
    outer loop
      vertex -25.9209 5.50966 0
      vertex -26.8991 5.71757 0
      vertex -25.1225 11.1853 0
    endloop
  endfacet
  facet normal 0 0 -1
    outer loop
      vertex -26.5 0 0
      vertex -26.8991 5.71757 0
      vertex -25.9209 5.50966 0
    endloop
  endfacet
  facet normal 0 0 -1
    outer loop
      vertex -27.5 0 0
      vertex -26.5 0 0
      vertex -26.8991 -5.71757 0
    endloop
  endfacet
  facet normal 0 0 -1
    outer loop
      vertex -26.5 0 0
      vertex -27.5 0 0
      vertex -26.8991 5.71757 0
    endloop
  endfacet
  facet normal -0.951056 -0.309017 0
    outer loop
      vertex -25.1225 -11.1853 0
      vertex -26.8991 -5.71757 19
      vertex -26.8991 -5.71757 0
    endloop
  endfacet
  facet normal -0.951056 -0.309017 0
    outer loop
      vertex -26.8991 -5.71757 19
      vertex -25.1225 -11.1853 0
      vertex -25.1225 -11.1853 19
    endloop
  endfacet
  facet normal -0.743145 -0.66913 0
    outer loop
      vertex -18.4011 -20.4365 0
      vertex -22.248 -16.1641 19
      vertex -22.248 -16.1641 0
    endloop
  endfacet
  facet normal -0.743145 -0.66913 0
    outer loop
      vertex -22.248 -16.1641 19
      vertex -18.4011 -20.4365 0
      vertex -18.4011 -20.4365 19
    endloop
  endfacet
  facet normal 0.406737 -0.913545 0
    outer loop
      vertex 8.49797 -26.1541 0
      vertex 13.75 -23.8157 19
      vertex 8.49797 -26.1541 19
    endloop
  endfacet
  facet normal 0.406737 -0.913545 0
    outer loop
      vertex 13.75 -23.8157 19
      vertex 8.49797 -26.1541 0
      vertex 13.75 -23.8157 0
    endloop
  endfacet
  facet normal -0.994522 -0.104529 0
    outer loop
      vertex 26.5 0 0
      vertex 25.9209 5.50966 19
      vertex 25.9209 5.50966 0
    endloop
  endfacet
  facet normal -0.994522 -0.104529 0
    outer loop
      vertex 25.9209 5.50966 19
      vertex 26.5 0 0
      vertex 26.5 0 19
    endloop
  endfacet
  facet normal 0.994522 -0.104529 0
    outer loop
      vertex -26.5 0 19
      vertex -25.9209 5.50966 0
      vertex -25.9209 5.50966 19
    endloop
  endfacet
  facet normal 0.994522 -0.104529 0
    outer loop
      vertex -25.9209 5.50966 0
      vertex -26.5 0 19
      vertex -26.5 0 0
    endloop
  endfacet
  facet normal -0.587785 -0.809017 0
    outer loop
      vertex 13.25 22.9497 0
      vertex 17.732 19.6933 19
      vertex 13.25 22.9497 19
    endloop
  endfacet
  facet normal -0.587785 -0.809017 -0
    outer loop
      vertex 17.732 19.6933 19
      vertex 13.25 22.9497 0
      vertex 17.732 19.6933 0
    endloop
  endfacet
  facet normal 0.587785 -0.809017 0
    outer loop
      vertex -17.732 19.6933 0
      vertex -13.25 22.9497 19
      vertex -17.732 19.6933 19
    endloop
  endfacet
  facet normal 0.587785 -0.809017 0
    outer loop
      vertex -13.25 22.9497 19
      vertex -17.732 19.6933 0
      vertex -13.25 22.9497 0
    endloop
  endfacet
  facet normal 0.406737 -0.913545 0
    outer loop
      vertex -13.25 22.9497 0
      vertex -8.18895 25.203 19
      vertex -13.25 22.9497 19
    endloop
  endfacet
  facet normal 0.406737 -0.913545 0
    outer loop
      vertex -8.18895 25.203 19
      vertex -13.25 22.9497 0
      vertex -8.18895 25.203 0
    endloop
  endfacet
  facet normal -0.951057 0.309017 0
    outer loop
      vertex 24.209 -10.7785 0
      vertex 25.9209 -5.50966 19
      vertex 25.9209 -5.50966 0
    endloop
  endfacet
  facet normal -0.951057 0.309017 0
    outer loop
      vertex 25.9209 -5.50966 19
      vertex 24.209 -10.7785 0
      vertex 24.209 -10.7785 19
    endloop
  endfacet
  facet normal -0.866025 -0.5 0
    outer loop
      vertex 24.209 10.7785 0
      vertex 21.4389 15.5763 19
      vertex 21.4389 15.5763 0
    endloop
  endfacet
  facet normal -0.866025 -0.5 0
    outer loop
      vertex 21.4389 15.5763 19
      vertex 24.209 10.7785 0
      vertex 24.209 10.7785 19
    endloop
  endfacet
  facet normal -0.951057 -0.309017 0
    outer loop
      vertex 25.9209 5.50966 0
      vertex 24.209 10.7785 19
      vertex 24.209 10.7785 0
    endloop
  endfacet
  facet normal -0.951057 -0.309017 0
    outer loop
      vertex 24.209 10.7785 19
      vertex 25.9209 5.50966 0
      vertex 25.9209 5.50966 19
    endloop
  endfacet
  facet normal -0.743145 -0.669131 0
    outer loop
      vertex 21.4389 15.5763 0
      vertex 17.732 19.6933 19
      vertex 17.732 19.6933 0
    endloop
  endfacet
  facet normal -0.743145 -0.669131 0
    outer loop
      vertex 17.732 19.6933 19
      vertex 21.4389 15.5763 0
      vertex 21.4389 15.5763 19
    endloop
  endfacet
  facet normal -0.207912 -0.978148 0
    outer loop
      vertex 6.14291 25.6379 0
      vertex 8.18895 25.203 19
      vertex 6.14291 25.6379 19
    endloop
  endfacet
  facet normal -0.207912 -0.978148 -0
    outer loop
      vertex 8.18895 25.203 19
      vertex 6.14291 25.6379 0
      vertex 8.18895 25.203 0
    endloop
  endfacet
  facet normal -0.406737 -0.913545 0
    outer loop
      vertex 8.18895 25.203 0
      vertex 13.25 22.9497 19
      vertex 8.18895 25.203 19
    endloop
  endfacet
  facet normal -0.406737 -0.913545 -0
    outer loop
      vertex 13.25 22.9497 19
      vertex 8.18895 25.203 0
      vertex 13.25 22.9497 0
    endloop
  endfacet
  facet normal 0.866025 -0.5 0
    outer loop
      vertex -24.209 10.7785 19
      vertex -21.4389 15.5763 0
      vertex -21.4389 15.5763 19
    endloop
  endfacet
  facet normal 0.866025 -0.5 0
    outer loop
      vertex -21.4389 15.5763 0
      vertex -24.209 10.7785 19
      vertex -24.209 10.7785 0
    endloop
  endfacet
  facet normal 0.743145 -0.669131 0
    outer loop
      vertex -21.4389 15.5763 19
      vertex -17.732 19.6933 0
      vertex -17.732 19.6933 19
    endloop
  endfacet
  facet normal 0.743145 -0.669131 0
    outer loop
      vertex -17.732 19.6933 0
      vertex -21.4389 15.5763 19
      vertex -21.4389 15.5763 0
    endloop
  endfacet
  facet normal 0.951057 -0.309017 0
    outer loop
      vertex -25.9209 5.50966 19
      vertex -24.209 10.7785 0
      vertex -24.209 10.7785 19
    endloop
  endfacet
  facet normal 0.951057 -0.309017 0
    outer loop
      vertex -24.209 10.7785 0
      vertex -25.9209 5.50966 19
      vertex -25.9209 5.50966 0
    endloop
  endfacet
  facet normal 0.207912 -0.978148 0
    outer loop
      vertex -8.18895 25.203 0
      vertex -6.14291 25.6379 19
      vertex -8.18895 25.203 19
    endloop
  endfacet
  facet normal 0.207912 -0.978148 0
    outer loop
      vertex -6.14291 25.6379 19
      vertex -8.18895 25.203 0
      vertex -6.14291 25.6379 0
    endloop
  endfacet
  facet normal -0.994522 0.104529 0
    outer loop
      vertex 25.9209 -5.50966 0
      vertex 26.5 0 19
      vertex 26.5 0 0
    endloop
  endfacet
  facet normal -0.994522 0.104529 0
    outer loop
      vertex 26.5 0 19
      vertex 25.9209 -5.50966 0
      vertex 25.9209 -5.50966 19
    endloop
  endfacet
  facet normal -0.866025 0.5 0
    outer loop
      vertex 21.4389 -15.5763 0
      vertex 24.209 -10.7785 19
      vertex 24.209 -10.7785 0
    endloop
  endfacet
  facet normal -0.866025 0.5 0
    outer loop
      vertex 24.209 -10.7785 19
      vertex 21.4389 -15.5763 0
      vertex 21.4389 -15.5763 19
    endloop
  endfacet
  facet normal 0.587785 0.809017 -0
    outer loop
      vertex -13.25 -22.9497 0
      vertex -17.732 -19.6933 19
      vertex -13.25 -22.9497 19
    endloop
  endfacet
  facet normal 0.587785 0.809017 0
    outer loop
      vertex -17.732 -19.6933 19
      vertex -13.25 -22.9497 0
      vertex -17.732 -19.6933 0
    endloop
  endfacet
  facet normal 0.866025 0.5 0
    outer loop
      vertex -21.4389 -15.5763 19
      vertex -24.209 -10.7785 0
      vertex -24.209 -10.7785 19
    endloop
  endfacet
  facet normal 0.866025 0.5 0
    outer loop
      vertex -24.209 -10.7785 0
      vertex -21.4389 -15.5763 19
      vertex -21.4389 -15.5763 0
    endloop
  endfacet
  facet normal 0.743145 0.669131 0
    outer loop
      vertex -17.732 -19.6933 19
      vertex -21.4389 -15.5763 0
      vertex -21.4389 -15.5763 19
    endloop
  endfacet
  facet normal 0.743145 0.669131 0
    outer loop
      vertex -21.4389 -15.5763 0
      vertex -17.732 -19.6933 19
      vertex -17.732 -19.6933 0
    endloop
  endfacet
  facet normal 0.994522 0.104529 0
    outer loop
      vertex -25.9209 -5.50966 19
      vertex -26.5 0 0
      vertex -26.5 0 19
    endloop
  endfacet
  facet normal 0.994522 0.104529 0
    outer loop
      vertex -26.5 0 0
      vertex -25.9209 -5.50966 19
      vertex -25.9209 -5.50966 0
    endloop
  endfacet
  facet normal -0.207911 0.978148 0
    outer loop
      vertex 8.18895 -25.203 0
      vertex 6 -25.6683 19
      vertex 8.18895 -25.203 19
    endloop
  endfacet
  facet normal -0.207911 0.978148 0
    outer loop
      vertex 6 -25.6683 19
      vertex 8.18895 -25.203 0
      vertex 6 -25.6683 0
    endloop
  endfacet
  facet normal -0.587785 0.809017 0
    outer loop
      vertex 17.732 -19.6933 0
      vertex 13.25 -22.9497 19
      vertex 17.732 -19.6933 19
    endloop
  endfacet
  facet normal -0.587785 0.809017 0
    outer loop
      vertex 13.25 -22.9497 19
      vertex 17.732 -19.6933 0
      vertex 13.25 -22.9497 0
    endloop
  endfacet
  facet normal 0.951057 0.309017 0
    outer loop
      vertex -24.209 -10.7785 19
      vertex -25.9209 -5.50966 0
      vertex -25.9209 -5.50966 19
    endloop
  endfacet
  facet normal 0.951057 0.309017 0
    outer loop
      vertex -25.9209 -5.50966 0
      vertex -24.209 -10.7785 19
      vertex -24.209 -10.7785 0
    endloop
  endfacet
  facet normal -0.406737 0.913545 0
    outer loop
      vertex 13.25 -22.9497 0
      vertex 8.18895 -25.203 19
      vertex 13.25 -22.9497 19
    endloop
  endfacet
  facet normal -0.406737 0.913545 0
    outer loop
      vertex 8.18895 -25.203 19
      vertex 13.25 -22.9497 0
      vertex 8.18895 -25.203 0
    endloop
  endfacet
  facet normal -0.743145 0.669131 0
    outer loop
      vertex 17.732 -19.6933 0
      vertex 21.4389 -15.5763 19
      vertex 21.4389 -15.5763 0
    endloop
  endfacet
  facet normal -0.743145 0.669131 0
    outer loop
      vertex 21.4389 -15.5763 19
      vertex 17.732 -19.6933 0
      vertex 17.732 -19.6933 19
    endloop
  endfacet
  facet normal 0.406737 0.913545 -0
    outer loop
      vertex -8.18895 -25.203 0
      vertex -13.25 -22.9497 19
      vertex -8.18895 -25.203 19
    endloop
  endfacet
  facet normal 0.406737 0.913545 0
    outer loop
      vertex -13.25 -22.9497 19
      vertex -8.18895 -25.203 0
      vertex -13.25 -22.9497 0
    endloop
  endfacet
  facet normal 0.207912 0.978148 -0
    outer loop
      vertex -6.21352 -25.6229 0
      vertex -8.18895 -25.203 19
      vertex -6.21352 -25.6229 19
    endloop
  endfacet
  facet normal 0.207912 0.978148 0
    outer loop
      vertex -8.18895 -25.203 19
      vertex -6.21352 -25.6229 0
      vertex -8.18895 -25.203 0
    endloop
  endfacet
  facet normal -1 0 0
    outer loop
      vertex 6 -25.8118 0
      vertex 6 -25.6683 19
      vertex 6 -25.6683 0
    endloop
  endfacet
  facet normal -1 -0 0
    outer loop
      vertex 6 -25.6683 19
      vertex 6 -25.8118 0
      vertex 6 -25.8118 19
    endloop
  endfacet
  facet normal 0.92388 0.382683 0
    outer loop
      vertex -1.5 26.5 19
      vertex -2.23223 28.2678 0
      vertex -2.23223 28.2678 19
    endloop
  endfacet
  facet normal 0.92388 0.382683 0
    outer loop
      vertex -2.23223 28.2678 0
      vertex -1.5 26.5 19
      vertex -1.5 26.5 0
    endloop
  endfacet
  facet normal -0.92388 0.382683 0
    outer loop
      vertex -6.46424 26.5863 0
      vertex -5.76777 28.2678 19
      vertex -5.76777 28.2678 0
    endloop
  endfacet
  facet normal -0.92388 0.382683 0
    outer loop
      vertex -5.76777 28.2678 19
      vertex -6.46424 26.5863 0
      vertex -6.46424 26.5863 19
    endloop
  endfacet
  facet normal 0.382683 0.92388 -0
    outer loop
      vertex -2.23223 28.2678 0
      vertex -4 29 19
      vertex -2.23223 28.2678 19
    endloop
  endfacet
  facet normal 0.382683 0.92388 0
    outer loop
      vertex -4 29 19
      vertex -2.23223 28.2678 0
      vertex -4 29 0
    endloop
  endfacet
  facet normal -0.382683 0.92388 0
    outer loop
      vertex -4 29 0
      vertex -5.76777 28.2678 19
      vertex -4 29 19
    endloop
  endfacet
  facet normal -0.382683 0.92388 0
    outer loop
      vertex -5.76777 28.2678 19
      vertex -4 29 0
      vertex -5.76777 28.2678 0
    endloop
  endfacet
  facet normal 0.382683 -0.92388 0
    outer loop
      vertex -4 24 0
      vertex -2.23223 24.7322 19
      vertex -4 24 19
    endloop
  endfacet
  facet normal 0.382683 -0.92388 0
    outer loop
      vertex -2.23223 24.7322 19
      vertex -4 24 0
      vertex -2.23223 24.7322 0
    endloop
  endfacet
  facet normal -0.92388 -0.382683 0
    outer loop
      vertex -5.76777 24.7322 0
      vertex -6.14291 25.6379 19
      vertex -6.14291 25.6379 0
    endloop
  endfacet
  facet normal -0.92388 -0.382683 0
    outer loop
      vertex -6.14291 25.6379 19
      vertex -5.76777 24.7322 0
      vertex -5.76777 24.7322 19
    endloop
  endfacet
  facet normal -0.382683 -0.92388 0
    outer loop
      vertex -5.76777 24.7322 0
      vertex -4 24 19
      vertex -5.76777 24.7322 19
    endloop
  endfacet
  facet normal -0.382683 -0.92388 -0
    outer loop
      vertex -4 24 19
      vertex -5.76777 24.7322 0
      vertex -4 24 0
    endloop
  endfacet
  facet normal 0.92388 -0.382683 0
    outer loop
      vertex -2.23223 24.7322 19
      vertex -1.5 26.5 0
      vertex -1.5 26.5 19
    endloop
  endfacet
  facet normal 0.92388 -0.382683 0
    outer loop
      vertex -1.5 26.5 0
      vertex -2.23223 24.7322 19
      vertex -2.23223 24.7322 0
    endloop
  endfacet
  facet normal -0.809017 -0.587786 0
    outer loop
      vertex -2.5 26.5 0
      vertex -3.53648 27.9266 19
      vertex -3.53648 27.9266 0
    endloop
  endfacet
  facet normal -0.809017 -0.587786 0
    outer loop
      vertex -3.53648 27.9266 19
      vertex -2.5 26.5 0
      vertex -2.5 26.5 19
    endloop
  endfacet
  facet normal 1 -0 0
    outer loop
      vertex -5.21352 25.6183 19
      vertex -5.21352 27.3817 0
      vertex -5.21352 27.3817 19
    endloop
  endfacet
  facet normal 1 0 0
    outer loop
      vertex -5.21352 27.3817 0
      vertex -5.21352 25.6183 19
      vertex -5.21352 25.6183 0
    endloop
  endfacet
  facet normal 0.309017 -0.951056 0
    outer loop
      vertex -5.21352 27.3817 0
      vertex -3.53648 27.9266 19
      vertex -5.21352 27.3817 19
    endloop
  endfacet
  facet normal 0.309017 -0.951056 0
    outer loop
      vertex -3.53648 27.9266 19
      vertex -5.21352 27.3817 0
      vertex -3.53648 27.9266 0
    endloop
  endfacet
  facet normal -0.809017 0.587786 0
    outer loop
      vertex -3.53648 25.0734 0
      vertex -2.5 26.5 19
      vertex -2.5 26.5 0
    endloop
  endfacet
  facet normal -0.809017 0.587786 0
    outer loop
      vertex -2.5 26.5 19
      vertex -3.53648 25.0734 0
      vertex -3.53648 25.0734 19
    endloop
  endfacet
  facet normal 0.309017 0.951056 -0
    outer loop
      vertex -3.53648 25.0734 0
      vertex -5.21352 25.6183 19
      vertex -3.53648 25.0734 19
    endloop
  endfacet
  facet normal 0.309017 0.951056 0
    outer loop
      vertex -5.21352 25.6183 19
      vertex -3.53648 25.0734 0
      vertex -5.21352 25.6183 0
    endloop
  endfacet
  facet normal 0.92388 0.382683 0
    outer loop
      vertex 6.46424 26.5863 19
      vertex 5.76777 28.2678 0
      vertex 5.76777 28.2678 19
    endloop
  endfacet
  facet normal 0.92388 0.382683 0
    outer loop
      vertex 5.76777 28.2678 0
      vertex 6.46424 26.5863 19
      vertex 6.46424 26.5863 0
    endloop
  endfacet
  facet normal -0.92388 0.382683 0
    outer loop
      vertex 1.5 26.5 0
      vertex 2.23223 28.2678 19
      vertex 2.23223 28.2678 0
    endloop
  endfacet
  facet normal -0.92388 0.382683 0
    outer loop
      vertex 2.23223 28.2678 19
      vertex 1.5 26.5 0
      vertex 1.5 26.5 19
    endloop
  endfacet
  facet normal 0.382683 0.92388 -0
    outer loop
      vertex 5.76777 28.2678 0
      vertex 4 29 19
      vertex 5.76777 28.2678 19
    endloop
  endfacet
  facet normal 0.382683 0.92388 0
    outer loop
      vertex 4 29 19
      vertex 5.76777 28.2678 0
      vertex 4 29 0
    endloop
  endfacet
  facet normal -0.382683 0.92388 0
    outer loop
      vertex 4 29 0
      vertex 2.23223 28.2678 19
      vertex 4 29 19
    endloop
  endfacet
  facet normal -0.382683 0.92388 0
    outer loop
      vertex 2.23223 28.2678 19
      vertex 4 29 0
      vertex 2.23223 28.2678 0
    endloop
  endfacet
  facet normal 0.382683 -0.92388 0
    outer loop
      vertex 4 24 0
      vertex 5.76777 24.7322 19
      vertex 4 24 19
    endloop
  endfacet
  facet normal 0.382683 -0.92388 0
    outer loop
      vertex 5.76777 24.7322 19
      vertex 4 24 0
      vertex 5.76777 24.7322 0
    endloop
  endfacet
  facet normal -0.92388 -0.382683 0
    outer loop
      vertex 2.23223 24.7322 0
      vertex 1.5 26.5 19
      vertex 1.5 26.5 0
    endloop
  endfacet
  facet normal -0.92388 -0.382683 0
    outer loop
      vertex 1.5 26.5 19
      vertex 2.23223 24.7322 0
      vertex 2.23223 24.7322 19
    endloop
  endfacet
  facet normal -0.382683 -0.92388 0
    outer loop
      vertex 2.23223 24.7322 0
      vertex 4 24 19
      vertex 2.23223 24.7322 19
    endloop
  endfacet
  facet normal -0.382683 -0.92388 -0
    outer loop
      vertex 4 24 19
      vertex 2.23223 24.7322 0
      vertex 4 24 0
    endloop
  endfacet
  facet normal 0.92388 -0.382683 0
    outer loop
      vertex 5.76777 24.7322 19
      vertex 6.14291 25.6379 0
      vertex 6.14291 25.6379 19
    endloop
  endfacet
  facet normal 0.92388 -0.382683 0
    outer loop
      vertex 6.14291 25.6379 0
      vertex 5.76777 24.7322 19
      vertex 5.76777 24.7322 0
    endloop
  endfacet
  facet normal -0.809017 -0.587786 0
    outer loop
      vertex 5.5 26.5 0
      vertex 4.46352 27.9266 19
      vertex 4.46352 27.9266 0
    endloop
  endfacet
  facet normal -0.809017 -0.587786 0
    outer loop
      vertex 4.46352 27.9266 19
      vertex 5.5 26.5 0
      vertex 5.5 26.5 19
    endloop
  endfacet
  facet normal 1 -0 0
    outer loop
      vertex 2.78648 25.6183 19
      vertex 2.78648 27.3817 0
      vertex 2.78648 27.3817 19
    endloop
  endfacet
  facet normal 1 0 0
    outer loop
      vertex 2.78648 27.3817 0
      vertex 2.78648 25.6183 19
      vertex 2.78648 25.6183 0
    endloop
  endfacet
  facet normal 0.309017 -0.951056 0
    outer loop
      vertex 2.78648 27.3817 0
      vertex 4.46352 27.9266 19
      vertex 2.78648 27.3817 19
    endloop
  endfacet
  facet normal 0.309017 -0.951056 0
    outer loop
      vertex 4.46352 27.9266 19
      vertex 2.78648 27.3817 0
      vertex 4.46352 27.9266 0
    endloop
  endfacet
  facet normal -0.809017 0.587786 0
    outer loop
      vertex 4.46352 25.0734 0
      vertex 5.5 26.5 19
      vertex 5.5 26.5 0
    endloop
  endfacet
  facet normal -0.809017 0.587786 0
    outer loop
      vertex 5.5 26.5 19
      vertex 4.46352 25.0734 0
      vertex 4.46352 25.0734 19
    endloop
  endfacet
  facet normal 0.309017 0.951056 -0
    outer loop
      vertex 4.46352 25.0734 0
      vertex 2.78648 25.6183 19
      vertex 4.46352 25.0734 19
    endloop
  endfacet
  facet normal 0.309017 0.951056 0
    outer loop
      vertex 2.78648 25.6183 19
      vertex 4.46352 25.0734 0
      vertex 2.78648 25.6183 0
    endloop
  endfacet
  facet normal -1 0 0
    outer loop
      vertex 0 0 0
      vertex 0 2 19
      vertex 0 2 0
    endloop
  endfacet
  facet normal -1 -0 0
    outer loop
      vertex 0 2 19
      vertex 0 0 0
      vertex 0 0 19
    endloop
  endfacet
  facet normal -1 0 0
    outer loop
      vertex 0 3.3 0
      vertex 0 5 19
      vertex 0 5 0
    endloop
  endfacet
  facet normal -1 -0 0
    outer loop
      vertex 0 5 19
      vertex 0 3.3 0
      vertex 0 3.3 19
    endloop
  endfacet
  facet normal -0 0 1
    outer loop
      vertex 8.95 4.14545 19
      vertex 10 3.3 19
      vertex 10 5 19
    endloop
  endfacet
  facet normal 0 0 1
    outer loop
      vertex 10 3.3 19
      vertex 8.95 4.14545 19
      vertex 9.43812 3.3 19
    endloop
  endfacet
  facet normal 0 0 1
    outer loop
      vertex 10 5 19
      vertex 7.05 4.14545 19
      vertex 8.95 4.14545 19
    endloop
  endfacet
  facet normal 0 0 1
    outer loop
      vertex 7.05 4.14545 19
      vertex 3.9 2.5 19
      vertex 6.1 2.5 19
    endloop
  endfacet
  facet normal 0 0 1
    outer loop
      vertex 7.05 4.14545 19
      vertex 2.95 4.14545 19
      vertex 3.9 2.5 19
    endloop
  endfacet
  facet normal 0 0 1
    outer loop
      vertex 10 5 19
      vertex 2.95 4.14545 19
      vertex 7.05 4.14545 19
    endloop
  endfacet
  facet normal -0 0 1
    outer loop
      vertex 0 5 19
      vertex 2.95 4.14545 19
      vertex 10 5 19
    endloop
  endfacet
  facet normal 0 0 1
    outer loop
      vertex 2.95 4.14545 19
      vertex 0 5 19
      vertex 1.05 4.14545 19
    endloop
  endfacet
  facet normal 0 0 1
    outer loop
      vertex 0 3.3 19
      vertex 1.05 4.14545 19
      vertex 0 5 19
    endloop
  endfacet
  facet normal 0 0 1
    outer loop
      vertex 1.05 4.14545 19
      vertex 0 3.3 19
      vertex 0.561879 3.3 19
    endloop
  endfacet
  facet normal 0 0 1
    outer loop
      vertex 8.95 0.854551 19
      vertex 10 2 19
      vertex 9.61132 2 19
    endloop
  endfacet
  facet normal 0 0 1
    outer loop
      vertex 10 2 19
      vertex 8.95 0.854551 19
      vertex 10 0 19
    endloop
  endfacet
  facet normal -0 0 1
    outer loop
      vertex 7.05 0.854551 19
      vertex 10 0 19
      vertex 8.95 0.854551 19
    endloop
  endfacet
  facet normal -0 0 1
    outer loop
      vertex 3.9 2.5 19
      vertex 7.05 0.854551 19
      vertex 6.1 2.5 19
    endloop
  endfacet
  facet normal 0 0 1
    outer loop
      vertex 2.95 0.854551 19
      vertex 7.05 0.854551 19
      vertex 3.9 2.5 19
    endloop
  endfacet
  facet normal -0 0 1
    outer loop
      vertex 2.95 0.854551 19
      vertex 10 0 19
      vertex 7.05 0.854551 19
    endloop
  endfacet
  facet normal 0 0 1
    outer loop
      vertex 0 0 19
      vertex 2.95 0.854551 19
      vertex 1.05 0.854551 19
    endloop
  endfacet
  facet normal -0 0 1
    outer loop
      vertex 0 2 19
      vertex 1.05 0.854551 19
      vertex 0.388674 2 19
    endloop
  endfacet
  facet normal 0 0 1
    outer loop
      vertex 2.95 0.854551 19
      vertex 0 0 19
      vertex 10 0 19
    endloop
  endfacet
  facet normal 0 0 1
    outer loop
      vertex 0 0 19
      vertex 1.05 0.854551 19
      vertex 0 2 19
    endloop
  endfacet
  facet normal 1 -0 0
    outer loop
      vertex 10 0 19
      vertex 10 2 0
      vertex 10 2 19
    endloop
  endfacet
  facet normal 1 0 0
    outer loop
      vertex 10 2 0
      vertex 10 0 19
      vertex 10 0 0
    endloop
  endfacet
  facet normal 1 -0 0
    outer loop
      vertex 10 3.3 19
      vertex 10 5 0
      vertex 10 5 19
    endloop
  endfacet
  facet normal 1 0 0
    outer loop
      vertex 10 5 0
      vertex 10 3.3 19
      vertex 10 3.3 0
    endloop
  endfacet
  facet normal 0 0 -1
    outer loop
      vertex 8.95 0.854551 0
      vertex 10 2 0
      vertex 10 0 0
    endloop
  endfacet
  facet normal -0 0 -1
    outer loop
      vertex 10 2 0
      vertex 8.95 0.854551 0
      vertex 9.61132 2 0
    endloop
  endfacet
  facet normal 0 0 -1
    outer loop
      vertex 10 0 0
      vertex 7.05 0.854551 0
      vertex 8.95 0.854551 0
    endloop
  endfacet
  facet normal 0 0 -1
    outer loop
      vertex 7.05 0.854551 0
      vertex 3.9 2.5 0
      vertex 6.1 2.5 0
    endloop
  endfacet
  facet normal 0 0 -1
    outer loop
      vertex 7.05 0.854551 0
      vertex 2.95 0.854551 0
      vertex 3.9 2.5 0
    endloop
  endfacet
  facet normal 0 0 -1
    outer loop
      vertex 10 0 0
      vertex 2.95 0.854551 0
      vertex 7.05 0.854551 0
    endloop
  endfacet
  facet normal 0 0 -1
    outer loop
      vertex 0 0 0
      vertex 2.95 0.854551 0
      vertex 10 0 0
    endloop
  endfacet
  facet normal -0 0 -1
    outer loop
      vertex 2.95 0.854551 0
      vertex 0 0 0
      vertex 1.05 0.854551 0
    endloop
  endfacet
  facet normal 0 0 -1
    outer loop
      vertex 0 2 0
      vertex 1.05 0.854551 0
      vertex 0 0 0
    endloop
  endfacet
  facet normal 0 0 -1
    outer loop
      vertex 1.05 0.854551 0
      vertex 0 2 0
      vertex 0.388674 2 0
    endloop
  endfacet
  facet normal 0 0 -1
    outer loop
      vertex 8.95 4.14545 0
      vertex 10 3.3 0
      vertex 9.43812 3.3 0
    endloop
  endfacet
  facet normal 0 0 -1
    outer loop
      vertex 10 3.3 0
      vertex 8.95 4.14545 0
      vertex 10 5 0
    endloop
  endfacet
  facet normal 0 0 -1
    outer loop
      vertex 7.05 4.14545 0
      vertex 10 5 0
      vertex 8.95 4.14545 0
    endloop
  endfacet
  facet normal 0 0 -1
    outer loop
      vertex 3.9 2.5 0
      vertex 7.05 4.14545 0
      vertex 6.1 2.5 0
    endloop
  endfacet
  facet normal 0 0 -1
    outer loop
      vertex 2.95 4.14545 0
      vertex 7.05 4.14545 0
      vertex 3.9 2.5 0
    endloop
  endfacet
  facet normal 0 0 -1
    outer loop
      vertex 2.95 4.14545 0
      vertex 10 5 0
      vertex 7.05 4.14545 0
    endloop
  endfacet
  facet normal 0 0 -1
    outer loop
      vertex 0 5 0
      vertex 2.95 4.14545 0
      vertex 1.05 4.14545 0
    endloop
  endfacet
  facet normal 0 0 -1
    outer loop
      vertex 0 3.3 0
      vertex 1.05 4.14545 0
      vertex 0.561879 3.3 0
    endloop
  endfacet
  facet normal 0 0 -1
    outer loop
      vertex 2.95 4.14545 0
      vertex 0 5 0
      vertex 10 5 0
    endloop
  endfacet
  facet normal 0 0 -1
    outer loop
      vertex 0 5 0
      vertex 1.05 4.14545 0
      vertex 0 3.3 0
    endloop
  endfacet
  facet normal 0 -1 0
    outer loop
      vertex 0 0 0
      vertex 10 0 19
      vertex 0 0 19
    endloop
  endfacet
  facet normal 0 -1 -0
    outer loop
      vertex 10 0 19
      vertex 0 0 0
      vertex 10 0 0
    endloop
  endfacet
  facet normal 0 1 -0
    outer loop
      vertex 10 5 0
      vertex 0 5 19
      vertex 10 5 19
    endloop
  endfacet
  facet normal 0 1 0
    outer loop
      vertex 0 5 19
      vertex 10 5 0
      vertex 0 5 0
    endloop
  endfacet
  facet normal -0.866025 -0.5 0
    outer loop
      vertex 3.9 2.5 0
      vertex 2.95 4.14545 19
      vertex 2.95 4.14545 0
    endloop
  endfacet
  facet normal -0.866025 -0.5 0
    outer loop
      vertex 2.95 4.14545 19
      vertex 3.9 2.5 0
      vertex 3.9 2.5 19
    endloop
  endfacet
  facet normal 0 -1 0
    outer loop
      vertex 1.05 4.14545 0
      vertex 2.95 4.14545 19
      vertex 1.05 4.14545 19
    endloop
  endfacet
  facet normal 0 -1 -0
    outer loop
      vertex 2.95 4.14545 19
      vertex 1.05 4.14545 0
      vertex 2.95 4.14545 0
    endloop
  endfacet
  facet normal 0 1 -0
    outer loop
      vertex 2.95 0.854551 0
      vertex 1.05 0.854551 19
      vertex 2.95 0.854551 19
    endloop
  endfacet
  facet normal 0 1 0
    outer loop
      vertex 1.05 0.854551 19
      vertex 2.95 0.854551 0
      vertex 1.05 0.854551 0
    endloop
  endfacet
  facet normal 0.866025 -0.5 0
    outer loop
      vertex 0.561879 3.3 19
      vertex 1.05 4.14545 0
      vertex 1.05 4.14545 19
    endloop
  endfacet
  facet normal 0.866025 -0.5 0
    outer loop
      vertex 1.05 4.14545 0
      vertex 0.561879 3.3 19
      vertex 0.561879 3.3 0
    endloop
  endfacet
  facet normal -0.866026 0.5 0
    outer loop
      vertex 2.95 0.854551 0
      vertex 3.9 2.5 19
      vertex 3.9 2.5 0
    endloop
  endfacet
  facet normal -0.866026 0.5 0
    outer loop
      vertex 3.9 2.5 19
      vertex 2.95 0.854551 0
      vertex 2.95 0.854551 19
    endloop
  endfacet
  facet normal 0.866026 0.5 0
    outer loop
      vertex 1.05 0.854551 19
      vertex 0.388674 2 0
      vertex 0.388674 2 19
    endloop
  endfacet
  facet normal 0.866026 0.5 0
    outer loop
      vertex 0.388674 2 0
      vertex 1.05 0.854551 19
      vertex 1.05 0.854551 0
    endloop
  endfacet
  facet normal 0 -1 0
    outer loop
      vertex 0 3.3 0
      vertex 0.561879 3.3 19
      vertex 0 3.3 19
    endloop
  endfacet
  facet normal 0 -1 -0
    outer loop
      vertex 0.561879 3.3 19
      vertex 0 3.3 0
      vertex 0.561879 3.3 0
    endloop
  endfacet
  facet normal 0 1 -0
    outer loop
      vertex 0.388674 2 0
      vertex 0 2 19
      vertex 0.388674 2 19
    endloop
  endfacet
  facet normal 0 1 0
    outer loop
      vertex 0 2 19
      vertex 0.388674 2 0
      vertex 0 2 0
    endloop
  endfacet
  facet normal -0.866025 -0.5 0
    outer loop
      vertex 9.43812 3.3 0
      vertex 8.95 4.14545 19
      vertex 8.95 4.14545 0
    endloop
  endfacet
  facet normal -0.866025 -0.5 0
    outer loop
      vertex 8.95 4.14545 19
      vertex 9.43812 3.3 0
      vertex 9.43812 3.3 19
    endloop
  endfacet
  facet normal 0 -1 0
    outer loop
      vertex 7.05 4.14545 0
      vertex 8.95 4.14545 19
      vertex 7.05 4.14545 19
    endloop
  endfacet
  facet normal 0 -1 -0
    outer loop
      vertex 8.95 4.14545 19
      vertex 7.05 4.14545 0
      vertex 8.95 4.14545 0
    endloop
  endfacet
  facet normal 0 1 -0
    outer loop
      vertex 8.95 0.854551 0
      vertex 7.05 0.854551 19
      vertex 8.95 0.854551 19
    endloop
  endfacet
  facet normal 0 1 0
    outer loop
      vertex 7.05 0.854551 19
      vertex 8.95 0.854551 0
      vertex 7.05 0.854551 0
    endloop
  endfacet
  facet normal 0.866025 -0.5 0
    outer loop
      vertex 6.1 2.5 19
      vertex 7.05 4.14545 0
      vertex 7.05 4.14545 19
    endloop
  endfacet
  facet normal 0.866025 -0.5 0
    outer loop
      vertex 7.05 4.14545 0
      vertex 6.1 2.5 19
      vertex 6.1 2.5 0
    endloop
  endfacet
  facet normal -0.866026 0.5 0
    outer loop
      vertex 8.95 0.854551 0
      vertex 9.61132 2 19
      vertex 9.61132 2 0
    endloop
  endfacet
  facet normal -0.866026 0.5 0
    outer loop
      vertex 9.61132 2 19
      vertex 8.95 0.854551 0
      vertex 8.95 0.854551 19
    endloop
  endfacet
  facet normal 0.866026 0.5 0
    outer loop
      vertex 7.05 0.854551 19
      vertex 6.1 2.5 0
      vertex 6.1 2.5 19
    endloop
  endfacet
  facet normal 0.866026 0.5 0
    outer loop
      vertex 6.1 2.5 0
      vertex 7.05 0.854551 19
      vertex 7.05 0.854551 0
    endloop
  endfacet
  facet normal 0 -1 0
    outer loop
      vertex 9.43812 3.3 0
      vertex 10 3.3 19
      vertex 9.43812 3.3 19
    endloop
  endfacet
  facet normal 0 -1 -0
    outer loop
      vertex 10 3.3 19
      vertex 9.43812 3.3 0
      vertex 10 3.3 0
    endloop
  endfacet
  facet normal 0 1 -0
    outer loop
      vertex 10 2 0
      vertex 9.61132 2 19
      vertex 10 2 19
    endloop
  endfacet
  facet normal 0 1 0
    outer loop
      vertex 9.61132 2 19
      vertex 10 2 0
      vertex 9.61132 2 0
    endloop
  endfacet
  facet normal 0.809017 0.587785 0
    outer loop
      vertex -3.5 -26.5 19
      vertex -4.53647 -25.0734 0
      vertex -4.53647 -25.0734 19
    endloop
  endfacet
  facet normal 0.809017 0.587785 0
    outer loop
      vertex -4.53647 -25.0734 0
      vertex -3.5 -26.5 19
      vertex -3.5 -26.5 0
    endloop
  endfacet
  facet normal -1 0 0
    outer loop
      vertex -6.21352 -27.3817 0
      vertex -6.21352 -26.6396 19
      vertex -6.21352 -26.6396 0
    endloop
  endfacet
  facet normal -1 -0 0
    outer loop
      vertex -6.21352 -26.6396 19
      vertex -6.21352 -27.3817 0
      vertex -6.21352 -27.3817 19
    endloop
  endfacet
  facet normal -1 0 0
    outer loop
      vertex -6.21352 -25.6229 0
      vertex -6.21352 -25.6183 19
      vertex -6.21352 -25.6183 0
    endloop
  endfacet
  facet normal -1 -0 0
    outer loop
      vertex -6.21352 -25.6183 19
      vertex -6.21352 -25.6229 0
      vertex -6.21352 -25.6229 19
    endloop
  endfacet
  facet normal -0.309017 0.951057 0
    outer loop
      vertex -4.53647 -25.0734 0
      vertex -6.21352 -25.6183 19
      vertex -4.53647 -25.0734 19
    endloop
  endfacet
  facet normal -0.309017 0.951057 0
    outer loop
      vertex -6.21352 -25.6183 19
      vertex -4.53647 -25.0734 0
      vertex -6.21352 -25.6183 0
    endloop
  endfacet
  facet normal 0.809017 -0.587785 0
    outer loop
      vertex -4.53647 -27.9266 19
      vertex -3.5 -26.5 0
      vertex -3.5 -26.5 19
    endloop
  endfacet
  facet normal 0.809017 -0.587785 0
    outer loop
      vertex -3.5 -26.5 0
      vertex -4.53647 -27.9266 19
      vertex -4.53647 -27.9266 0
    endloop
  endfacet
  facet normal -0.309017 -0.951057 0
    outer loop
      vertex -6.21352 -27.3817 0
      vertex -4.53647 -27.9266 19
      vertex -6.21352 -27.3817 19
    endloop
  endfacet
  facet normal -0.309017 -0.951057 -0
    outer loop
      vertex -4.53647 -27.9266 19
      vertex -6.21352 -27.3817 0
      vertex -4.53647 -27.9266 0
    endloop
  endfacet
  facet normal 0.809017 0.587785 0
    outer loop
      vertex 6 -25.8118 19
      vertex 5.46352 -25.0734 0
      vertex 5.46352 -25.0734 19
    endloop
  endfacet
  facet normal 0.809017 0.587785 0
    outer loop
      vertex 5.46352 -25.0734 0
      vertex 6 -25.8118 19
      vertex 6 -25.8118 0
    endloop
  endfacet
  facet normal -1 0 0
    outer loop
      vertex 3.78647 -27.3817 0
      vertex 3.78647 -25.6183 19
      vertex 3.78647 -25.6183 0
    endloop
  endfacet
  facet normal -1 -0 0
    outer loop
      vertex 3.78647 -25.6183 19
      vertex 3.78647 -27.3817 0
      vertex 3.78647 -27.3817 19
    endloop
  endfacet
  facet normal -0.309017 0.951057 0
    outer loop
      vertex 5.46352 -25.0734 0
      vertex 3.78647 -25.6183 19
      vertex 5.46352 -25.0734 19
    endloop
  endfacet
  facet normal -0.309017 0.951057 0
    outer loop
      vertex 3.78647 -25.6183 19
      vertex 5.46352 -25.0734 0
      vertex 3.78647 -25.6183 0
    endloop
  endfacet
  facet normal 0.809017 -0.587786 0
    outer loop
      vertex 5.46352 -27.9266 19
      vertex 6.43235 -26.5931 0
      vertex 6.43235 -26.5931 19
    endloop
  endfacet
  facet normal 0.809017 -0.587786 0
    outer loop
      vertex 6.43235 -26.5931 0
      vertex 5.46352 -27.9266 19
      vertex 5.46352 -27.9266 0
    endloop
  endfacet
  facet normal -0.309017 -0.951057 0
    outer loop
      vertex 3.78647 -27.3817 0
      vertex 5.46352 -27.9266 19
      vertex 3.78647 -27.3817 19
    endloop
  endfacet
  facet normal -0.309017 -0.951057 -0
    outer loop
      vertex 5.46352 -27.9266 19
      vertex 3.78647 -27.3817 0
      vertex 5.46352 -27.9266 0
    endloop
  endfacet
endsolid OpenSCAD_Model
