solid OpenSCAD_Model
  facet normal -1 0 0
    outer loop
      vertex 0 -5 0
      vertex 0 -5 5
      vertex 0 50 0
    endloop
  endfacet
  facet normal -1 0 0
    outer loop
      vertex 0 50 0
      vertex 0 -5 5
      vertex 0 0 5
    endloop
  endfacet
  facet normal -1 0 0
    outer loop
      vertex 0 50 0
      vertex 0 0 5
      vertex 0 0 10
    endloop
  endfacet
  facet normal -1 0 0
    outer loop
      vertex 0 50 0
      vertex 0 0 10
      vertex 0 50 10
    endloop
  endfacet
  facet normal 0 -1 0
    outer loop
      vertex 0 -5 5
      vertex 0 -5 0
      vertex 12 -5 0
    endloop
  endfacet
  facet normal 0 -1 0
    outer loop
      vertex 12 -5 5
      vertex 0 -5 5
      vertex 12 -5 0
    endloop
  endfacet
  facet normal 0 0 -1
    outer loop
      vertex 0 -5 0
      vertex 0 50 0
      vertex 12 -5 0
    endloop
  endfacet
  facet normal 0 0 -1
    outer loop
      vertex 12 0 0
      vertex 0 50 0
      vertex 18 50 0
    endloop
  endfacet
  facet normal 0 0 -1
    outer loop
      vertex 31.7165 48.0279 0
      vertex 32 50 0
      vertex 50 50 0
    endloop
  endfacet
  facet normal 0 0 -1
    outer loop
      vertex 37.5 0 0
      vertex 50 50 0
      vertex 50 0 0
    endloop
  endfacet
  facet normal 0 0 -1
    outer loop
      vertex 25.5 0 0
      vertex 50 50 0
      vertex 37.5 0 0
    endloop
  endfacet
  facet normal 0 0 -1
    outer loop
      vertex 12 0 0
      vertex 19.1112 46.2155 0
      vertex 20.416 44.7098 0
    endloop
  endfacet
  facet normal 0 0 -1
    outer loop
      vertex 25.5 0 0
      vertex 37.5 0 0
      vertex 25.5 -5 0
    endloop
  endfacet
  facet normal 0 0 -1
    outer loop
      vertex 12 0 0
      vertex 18 50 0
      vertex 18.2835 48.0279 0
    endloop
  endfacet
  facet normal 0 0 -1
    outer loop
      vertex 12 -5 0
      vertex 0 50 0
      vertex 12 0 0
    endloop
  endfacet
  facet normal 0 0 -1
    outer loop
      vertex 12 0 0
      vertex 18.2835 48.0279 0
      vertex 19.1112 46.2155 0
    endloop
  endfacet
  facet normal 0 0 -1
    outer loop
      vertex 37.5 -5 0
      vertex 25.5 -5 0
      vertex 37.5 0 0
    endloop
  endfacet
  facet normal 0 0 -1
    outer loop
      vertex 12 0 0
      vertex 20.416 44.7098 0
      vertex 22.0921 43.6326 0
    endloop
  endfacet
  facet normal 0 0 -1
    outer loop
      vertex 12 0 0
      vertex 22.0921 43.6326 0
      vertex 24.0038 43.0712 0
    endloop
  endfacet
  facet normal 0 0 -1
    outer loop
      vertex 12 0 0
      vertex 24.0038 43.0712 0
      vertex 25.9962 43.0712 0
    endloop
  endfacet
  facet normal 0 0 -1
    outer loop
      vertex 12 0 0
      vertex 25.9962 43.0712 0
      vertex 27.9079 43.6326 0
    endloop
  endfacet
  facet normal 0 0 -1
    outer loop
      vertex 12 0 0
      vertex 27.9079 43.6326 0
      vertex 29.584 44.7098 0
    endloop
  endfacet
  facet normal 0 0 -1
    outer loop
      vertex 12 0 0
      vertex 29.584 44.7098 0
      vertex 30.8888 46.2155 0
    endloop
  endfacet
  facet normal 0 0 -1
    outer loop
      vertex 12 0 0
      vertex 30.8888 46.2155 0
      vertex 31.7165 48.0279 0
    endloop
  endfacet
  facet normal 0 0 -1
    outer loop
      vertex 12 0 0
      vertex 31.7165 48.0279 0
      vertex 50 50 0
    endloop
  endfacet
  facet normal 0 0 -1
    outer loop
      vertex 12 0 0
      vertex 50 50 0
      vertex 25.5 0 0
    endloop
  endfacet
  facet normal 0 1 0
    outer loop
      vertex 0 50 0
      vertex 0 50 10
      vertex 18 50 0
    endloop
  endfacet
  facet normal 0 1 0
    outer loop
      vertex 18 50 0
      vertex 0 50 10
      vertex 18 50 10
    endloop
  endfacet
  facet normal 0 0 1
    outer loop
      vertex 24.5 0 10
      vertex 38 0 10
      vertex 0 50 10
    endloop
  endfacet
  facet normal 0 0 1
    outer loop
      vertex 0 50 10
      vertex 0 0 10
      vertex 12.5 0 10
    endloop
  endfacet
  facet normal 0 0 1
    outer loop
      vertex 24.5 -5 10
      vertex 0 50 10
      vertex 12.5 0 10
    endloop
  endfacet
  facet normal 0 0 1
    outer loop
      vertex 12.5 -5 10
      vertex 24.5 -5 10
      vertex 12.5 0 10
    endloop
  endfacet
  facet normal 0 0 1
    outer loop
      vertex 24.5 -5 10
      vertex 24.5 0 10
      vertex 0 50 10
    endloop
  endfacet
  facet normal 0 0 1
    outer loop
      vertex 38 0 10
      vertex 50 -5 10
      vertex 0 50 10
    endloop
  endfacet
  facet normal 0 0 1
    outer loop
      vertex 38 -5 10
      vertex 50 -5 10
      vertex 38 0 10
    endloop
  endfacet
  facet normal 0 0 1
    outer loop
      vertex 50 -5 10
      vertex 50 50 10
      vertex 32 50 10
    endloop
  endfacet
  facet normal 0 0 1
    outer loop
      vertex 50 -5 10
      vertex 32 50 10
      vertex 31.7165 48.0279 10
    endloop
  endfacet
  facet normal 0 0 1
    outer loop
      vertex 18.2835 48.0279 10
      vertex 18 50 10
      vertex 0 50 10
    endloop
  endfacet
  facet normal 0 0 1
    outer loop
      vertex 50 -5 10
      vertex 31.7165 48.0279 10
      vertex 30.8888 46.2155 10
    endloop
  endfacet
  facet normal 0 0 1
    outer loop
      vertex 50 -5 10
      vertex 30.8888 46.2155 10
      vertex 29.584 44.7098 10
    endloop
  endfacet
  facet normal 0 0 1
    outer loop
      vertex 50 -5 10
      vertex 29.584 44.7098 10
      vertex 27.9079 43.6326 10
    endloop
  endfacet
  facet normal 0 0 1
    outer loop
      vertex 20.416 44.7098 10
      vertex 19.1112 46.2155 10
      vertex 0 50 10
    endloop
  endfacet
  facet normal 0 0 1
    outer loop
      vertex 50 -5 10
      vertex 27.9079 43.6326 10
      vertex 25.9962 43.0712 10
    endloop
  endfacet
  facet normal 0 0 1
    outer loop
      vertex 50 -5 10
      vertex 24.0038 43.0712 10
      vertex 0 50 10
    endloop
  endfacet
  facet normal 0 0 1
    outer loop
      vertex 50 -5 10
      vertex 25.9962 43.0712 10
      vertex 24.0038 43.0712 10
    endloop
  endfacet
  facet normal 0 0 1
    outer loop
      vertex 24.0038 43.0712 10
      vertex 22.0921 43.6326 10
      vertex 0 50 10
    endloop
  endfacet
  facet normal 0 0 1
    outer loop
      vertex 22.0921 43.6326 10
      vertex 20.416 44.7098 10
      vertex 0 50 10
    endloop
  endfacet
  facet normal 0 0 1
    outer loop
      vertex 19.1112 46.2155 10
      vertex 18.2835 48.0279 10
      vertex 0 50 10
    endloop
  endfacet
  facet normal 0 -1 0
    outer loop
      vertex 24.5 0 5
      vertex 12.5 0 5
      vertex 25.5 0 0
    endloop
  endfacet
  facet normal 0 -1 0
    outer loop
      vertex 0 0 10
      vertex 0 0 5
      vertex 12 0 5
    endloop
  endfacet
  facet normal 0 -1 0
    outer loop
      vertex 12.5 0 5
      vertex 0 0 10
      vertex 12 0 5
    endloop
  endfacet
  facet normal 0 -1 0
    outer loop
      vertex 12 0 0
      vertex 25.5 0 0
      vertex 12 0 5
    endloop
  endfacet
  facet normal 0 -1 0
    outer loop
      vertex 24.5 0 10
      vertex 25.5 0 5
      vertex 37.5 0 5
    endloop
  endfacet
  facet normal 0 -1 0
    outer loop
      vertex 37.5 0 0
      vertex 50 0 0
      vertex 37.5 0 5
    endloop
  endfacet
  facet normal 0 -1 0
    outer loop
      vertex 50 0 0
      vertex 50 0 5
      vertex 38 0 5
    endloop
  endfacet
  facet normal 0 -1 0
    outer loop
      vertex 37.5 0 5
      vertex 50 0 0
      vertex 38 0 5
    endloop
  endfacet
  facet normal 0 -1 0
    outer loop
      vertex 12.5 0 5
      vertex 12.5 0 10
      vertex 0 0 10
    endloop
  endfacet
  facet normal 0 -1 0
    outer loop
      vertex 25.5 0 0
      vertex 25.5 0 5
      vertex 24.5 0 5
    endloop
  endfacet
  facet normal 0 -1 0
    outer loop
      vertex 25.5 0 0
      vertex 12.5 0 5
      vertex 12 0 5
    endloop
  endfacet
  facet normal 0 -1 0
    outer loop
      vertex 24.5 0 10
      vertex 37.5 0 5
      vertex 38 0 5
    endloop
  endfacet
  facet normal 0 -1 0
    outer loop
      vertex 38 0 5
      vertex 38 0 10
      vertex 24.5 0 10
    endloop
  endfacet
  facet normal 0 -1 0
    outer loop
      vertex 24.5 0 10
      vertex 24.5 0 5
      vertex 25.5 0 5
    endloop
  endfacet
  facet normal 0 0 1
    outer loop
      vertex 0 0 5
      vertex 0 -5 5
      vertex 12 -5 5
    endloop
  endfacet
  facet normal 0 0 1
    outer loop
      vertex 12 0 5
      vertex 0 0 5
      vertex 12 -5 5
    endloop
  endfacet
  facet normal 1 0 0
    outer loop
      vertex 12 -5 5
      vertex 12 -5 0
      vertex 12 0 0
    endloop
  endfacet
  facet normal 1 0 0
    outer loop
      vertex 12 0 5
      vertex 12 -5 5
      vertex 12 0 0
    endloop
  endfacet
  facet normal -1 0 0
    outer loop
      vertex 25.5 -5 0
      vertex 25.5 -5 5
      vertex 25.5 0 0
    endloop
  endfacet
  facet normal -1 0 0
    outer loop
      vertex 25.5 0 0
      vertex 25.5 -5 5
      vertex 25.5 0 5
    endloop
  endfacet
  facet normal 0 -1 0
    outer loop
      vertex 25.5 -5 5
      vertex 25.5 -5 0
      vertex 37.5 -5 0
    endloop
  endfacet
  facet normal 0 -1 0
    outer loop
      vertex 37.5 -5 5
      vertex 25.5 -5 5
      vertex 37.5 -5 0
    endloop
  endfacet
  facet normal 1 0 0
    outer loop
      vertex 37.5 -5 5
      vertex 37.5 -5 0
      vertex 37.5 0 0
    endloop
  endfacet
  facet normal 1 0 0
    outer loop
      vertex 37.5 0 5
      vertex 37.5 -5 5
      vertex 37.5 0 0
    endloop
  endfacet
  facet normal 1 0 0
    outer loop
      vertex 50 -5 10
      vertex 50 -5 5
      vertex 50 0 5
    endloop
  endfacet
  facet normal 1 0 0
    outer loop
      vertex 50 50 0
      vertex 50 -5 10
      vertex 50 0 5
    endloop
  endfacet
  facet normal 1 0 0
    outer loop
      vertex 50 0 0
      vertex 50 50 0
      vertex 50 0 5
    endloop
  endfacet
  facet normal 1 0 0
    outer loop
      vertex 50 50 0
      vertex 50 50 10
      vertex 50 -5 10
    endloop
  endfacet
  facet normal 0 1 0
    outer loop
      vertex 32 50 0
      vertex 32 50 10
      vertex 50 50 0
    endloop
  endfacet
  facet normal 0 1 0
    outer loop
      vertex 50 50 0
      vertex 32 50 10
      vertex 50 50 10
    endloop
  endfacet
  facet normal -0.989821 0.142315 0
    outer loop
      vertex 32 50 10
      vertex 32 50 0
      vertex 31.7165 48.0279 10
    endloop
  endfacet
  facet normal -0.989821 0.142315 0
    outer loop
      vertex 31.7165 48.0279 10
      vertex 32 50 0
      vertex 31.7165 48.0279 0
    endloop
  endfacet
  facet normal -0.909632 0.415415 0
    outer loop
      vertex 31.7165 48.0279 10
      vertex 31.7165 48.0279 0
      vertex 30.8888 46.2155 10
    endloop
  endfacet
  facet normal -0.909632 0.415415 0
    outer loop
      vertex 30.8888 46.2155 10
      vertex 31.7165 48.0279 0
      vertex 30.8888 46.2155 0
    endloop
  endfacet
  facet normal -0.755749 0.654861 0
    outer loop
      vertex 30.8888 46.2155 10
      vertex 30.8888 46.2155 0
      vertex 29.584 44.7098 10
    endloop
  endfacet
  facet normal -0.755749 0.654861 0
    outer loop
      vertex 29.584 44.7098 10
      vertex 30.8888 46.2155 0
      vertex 29.584 44.7098 0
    endloop
  endfacet
  facet normal -0.540641 0.841254 0
    outer loop
      vertex 29.584 44.7098 10
      vertex 29.584 44.7098 0
      vertex 27.9079 43.6326 10
    endloop
  endfacet
  facet normal -0.540641 0.841254 0
    outer loop
      vertex 27.9079 43.6326 10
      vertex 29.584 44.7098 0
      vertex 27.9079 43.6326 0
    endloop
  endfacet
  facet normal -0.281733 0.959493 0
    outer loop
      vertex 27.9079 43.6326 10
      vertex 27.9079 43.6326 0
      vertex 25.9962 43.0712 10
    endloop
  endfacet
  facet normal -0.281733 0.959493 0
    outer loop
      vertex 25.9962 43.0712 10
      vertex 27.9079 43.6326 0
      vertex 25.9962 43.0712 0
    endloop
  endfacet
  facet normal 0 1 0
    outer loop
      vertex 25.9962 43.0712 10
      vertex 25.9962 43.0712 0
      vertex 24.0038 43.0712 10
    endloop
  endfacet
  facet normal 0 1 0
    outer loop
      vertex 24.0038 43.0712 10
      vertex 25.9962 43.0712 0
      vertex 24.0038 43.0712 0
    endloop
  endfacet
  facet normal 0.281733 0.959493 0
    outer loop
      vertex 24.0038 43.0712 10
      vertex 24.0038 43.0712 0
      vertex 22.0921 43.6326 10
    endloop
  endfacet
  facet normal 0.281733 0.959493 0
    outer loop
      vertex 22.0921 43.6326 10
      vertex 24.0038 43.0712 0
      vertex 22.0921 43.6326 0
    endloop
  endfacet
  facet normal 0.540641 0.841254 0
    outer loop
      vertex 22.0921 43.6326 10
      vertex 22.0921 43.6326 0
      vertex 20.416 44.7098 10
    endloop
  endfacet
  facet normal 0.540641 0.841254 0
    outer loop
      vertex 20.416 44.7098 10
      vertex 22.0921 43.6326 0
      vertex 20.416 44.7098 0
    endloop
  endfacet
  facet normal 0.755749 0.654861 0
    outer loop
      vertex 19.1112 46.2155 10
      vertex 20.416 44.7098 10
      vertex 20.416 44.7098 0
    endloop
  endfacet
  facet normal 0.755749 0.654861 0
    outer loop
      vertex 19.1112 46.2155 0
      vertex 19.1112 46.2155 10
      vertex 20.416 44.7098 0
    endloop
  endfacet
  facet normal 0.909632 0.415415 0
    outer loop
      vertex 18.2835 48.0279 10
      vertex 19.1112 46.2155 10
      vertex 19.1112 46.2155 0
    endloop
  endfacet
  facet normal 0.909632 0.415415 0
    outer loop
      vertex 18.2835 48.0279 0
      vertex 18.2835 48.0279 10
      vertex 19.1112 46.2155 0
    endloop
  endfacet
  facet normal 0.989821 0.142315 0
    outer loop
      vertex 18 50 10
      vertex 18.2835 48.0279 10
      vertex 18.2835 48.0279 0
    endloop
  endfacet
  facet normal 0.989821 0.142315 0
    outer loop
      vertex 18 50 0
      vertex 18 50 10
      vertex 18.2835 48.0279 0
    endloop
  endfacet
  facet normal 0 -1 0
    outer loop
      vertex 38 -5 10
      vertex 38 -5 5
      vertex 50 -5 5
    endloop
  endfacet
  facet normal 0 -1 0
    outer loop
      vertex 50 -5 10
      vertex 38 -5 10
      vertex 50 -5 5
    endloop
  endfacet
  facet normal -1 0 0
    outer loop
      vertex 38 -5 5
      vertex 38 -5 10
      vertex 38 0 5
    endloop
  endfacet
  facet normal -1 0 0
    outer loop
      vertex 38 0 5
      vertex 38 -5 10
      vertex 38 0 10
    endloop
  endfacet
  facet normal 1 0 0
    outer loop
      vertex 24.5 -5 10
      vertex 24.5 -5 5
      vertex 24.5 0 5
    endloop
  endfacet
  facet normal 1 0 0
    outer loop
      vertex 24.5 0 10
      vertex 24.5 -5 10
      vertex 24.5 0 5
    endloop
  endfacet
  facet normal 0 -1 0
    outer loop
      vertex 12.5 -5 10
      vertex 12.5 -5 5
      vertex 24.5 -5 5
    endloop
  endfacet
  facet normal 0 -1 0
    outer loop
      vertex 24.5 -5 10
      vertex 12.5 -5 10
      vertex 24.5 -5 5
    endloop
  endfacet
  facet normal -1 0 0
    outer loop
      vertex 12.5 -5 5
      vertex 12.5 -5 10
      vertex 12.5 0 5
    endloop
  endfacet
  facet normal -1 0 0
    outer loop
      vertex 12.5 0 5
      vertex 12.5 -5 10
      vertex 12.5 0 10
    endloop
  endfacet
  facet normal 0 0 -1
    outer loop
      vertex 12.5 -5 5
      vertex 12.5 0 5
      vertex 24.5 -5 5
    endloop
  endfacet
  facet normal 0 0 -1
    outer loop
      vertex 24.5 -5 5
      vertex 12.5 0 5
      vertex 24.5 0 5
    endloop
  endfacet
  facet normal 0 0 -1
    outer loop
      vertex 38 -5 5
      vertex 38 0 5
      vertex 50 -5 5
    endloop
  endfacet
  facet normal 0 0 -1
    outer loop
      vertex 50 -5 5
      vertex 38 0 5
      vertex 50 0 5
    endloop
  endfacet
  facet normal 0 0 1
    outer loop
      vertex 25.5 0 5
      vertex 25.5 -5 5
      vertex 37.5 -5 5
    endloop
  endfacet
  facet normal 0 0 1
    outer loop
      vertex 37.5 0 5
      vertex 25.5 0 5
      vertex 37.5 -5 5
    endloop
  endfacet
endsolid OpenSCAD_Model
