solid OpenSCAD_Model
  facet normal -6.12323e-17 -1 0
    outer loop
      vertex -5 -25 0
      vertex -1.53081e-15 -25 0
      vertex -1.53081e-15 -25 60
    endloop
  endfacet
  facet normal -6.12323e-17 -1 0
    outer loop
      vertex -2.5 -25 50
      vertex -5 -25 0
      vertex -1.53081e-15 -25 60
    endloop
  endfacet
  facet normal -6.12323e-17 -1 0
    outer loop
      vertex -2.5 -25 60
      vertex -2.5 -25 50
      vertex -1.53081e-15 -25 60
    endloop
  endfacet
  facet normal -6.12323e-17 -1 0
    outer loop
      vertex -2.5 -25 50
      vertex -5 -25 50
      vertex -5 -25 0
    endloop
  endfacet
  facet normal 1 -6.12323e-17 0
    outer loop
      vertex -7.9602e-16 -13 50
      vertex -1.53081e-15 -25 0
      vertex 4.59243e-15 75 0
    endloop
  endfacet
  facet normal 1 -6.12323e-17 0
    outer loop
      vertex 3.06162e-15 50 60
      vertex 3.06162e-15 50 50
      vertex 3.79641e-15 62 50
    endloop
  endfacet
  facet normal 1 -6.12323e-17 0
    outer loop
      vertex -7.9602e-16 -13 50
      vertex -7.9602e-16 -13 60
      vertex -1.53081e-15 -25 60
    endloop
  endfacet
  facet normal 1 -6.12323e-17 0
    outer loop
      vertex 4.59243e-15 75 50
      vertex 3.79641e-15 62 50
      vertex 4.59243e-15 75 0
    endloop
  endfacet
  facet normal 1 -6.12323e-17 0
    outer loop
      vertex 1.53081e-15 25 60
      vertex 1.53081e-15 25 50
      vertex 2.2656e-15 37 50
    endloop
  endfacet
  facet normal 1 -6.12323e-17 0
    outer loop
      vertex 3.79641e-15 62 50
      vertex 3.06162e-15 50 50
      vertex 4.59243e-15 75 0
    endloop
  endfacet
  facet normal 1 -6.12323e-17 0
    outer loop
      vertex 3.06162e-15 50 50
      vertex 2.2656e-15 37 50
      vertex 4.59243e-15 75 0
    endloop
  endfacet
  facet normal 1 -6.12323e-17 0
    outer loop
      vertex 2.2656e-15 37 50
      vertex 1.53081e-15 25 50
      vertex 4.59243e-15 75 0
    endloop
  endfacet
  facet normal 1 -6.12323e-17 0
    outer loop
      vertex 1.53081e-15 25 50
      vertex 7.34788e-16 12 50
      vertex 4.59243e-15 75 0
    endloop
  endfacet
  facet normal 1 -6.12323e-17 0
    outer loop
      vertex 0 0 60
      vertex 0 0 50
      vertex 7.34788e-16 12 50
    endloop
  endfacet
  facet normal 1 -6.12323e-17 0
    outer loop
      vertex 7.34788e-16 12 50
      vertex 0 0 50
      vertex 4.59243e-15 75 0
    endloop
  endfacet
  facet normal 1 -6.12323e-17 0
    outer loop
      vertex -1.53081e-15 -25 60
      vertex -1.53081e-15 -25 0
      vertex -7.9602e-16 -13 50
    endloop
  endfacet
  facet normal 1 -6.12323e-17 0
    outer loop
      vertex 0 0 50
      vertex -7.9602e-16 -13 50
      vertex 4.59243e-15 75 0
    endloop
  endfacet
  facet normal 1 -6.12323e-17 0
    outer loop
      vertex 7.34788e-16 12 50
      vertex 7.34788e-16 12 60
      vertex 0 0 60
    endloop
  endfacet
  facet normal 1 -6.12323e-17 0
    outer loop
      vertex 2.2656e-15 37 50
      vertex 2.2656e-15 37 60
      vertex 1.53081e-15 25 60
    endloop
  endfacet
  facet normal 1 -6.12323e-17 0
    outer loop
      vertex 3.79641e-15 62 50
      vertex 3.79641e-15 62 60
      vertex 3.06162e-15 50 60
    endloop
  endfacet
  facet normal 0 0 -1
    outer loop
      vertex -1.53081e-15 -25 0
      vertex -5 -25 0
      vertex 4.59243e-15 75 0
    endloop
  endfacet
  facet normal 0 0 -1
    outer loop
      vertex 4.59243e-15 75 0
      vertex -5 -25 0
      vertex -5 3.06162e-16 0
    endloop
  endfacet
  facet normal 0 0 -1
    outer loop
      vertex -5 50 0
      vertex -5 3.06162e-16 0
      vertex -150 9.18485e-15 0
    endloop
  endfacet
  facet normal 0 0 -1
    outer loop
      vertex -136.367 27.9079 0
      vertex -150 9.18485e-15 0
      vertex -150 50 0
    endloop
  endfacet
  facet normal 0 0 -1
    outer loop
      vertex 4.59243e-15 75 0
      vertex -5 3.06162e-16 0
      vertex -5 50 0
    endloop
  endfacet
  facet normal 0 0 -1
    outer loop
      vertex -5 75 0
      vertex 4.59243e-15 75 0
      vertex -5 50 0
    endloop
  endfacet
  facet normal 0 0 -1
    outer loop
      vertex -128.028 31.7165 0
      vertex -150 50 0
      vertex -126.216 30.8888 0
    endloop
  endfacet
  facet normal 0 0 -1
    outer loop
      vertex -128.028 18.2835 0
      vertex -150 9.18485e-15 0
      vertex -130 18 0
    endloop
  endfacet
  facet normal 0 0 -1
    outer loop
      vertex -130 32 0
      vertex -150 50 0
      vertex -128.028 31.7165 0
    endloop
  endfacet
  facet normal 0 0 -1
    outer loop
      vertex -131.972 31.7165 0
      vertex -150 50 0
      vertex -130 32 0
    endloop
  endfacet
  facet normal 0 0 -1
    outer loop
      vertex -133.784 30.8888 0
      vertex -150 50 0
      vertex -131.972 31.7165 0
    endloop
  endfacet
  facet normal 0 0 -1
    outer loop
      vertex -136.367 27.9079 0
      vertex -150 50 0
      vertex -135.29 29.584 0
    endloop
  endfacet
  facet normal 0 0 -1
    outer loop
      vertex -133.784 30.8888 0
      vertex -135.29 29.584 0
      vertex -150 50 0
    endloop
  endfacet
  facet normal 0 0 -1
    outer loop
      vertex -136.929 25.9962 0
      vertex -150 9.18485e-15 0
      vertex -136.367 27.9079 0
    endloop
  endfacet
  facet normal 0 0 -1
    outer loop
      vertex -136.929 24.0038 0
      vertex -150 9.18485e-15 0
      vertex -136.929 25.9962 0
    endloop
  endfacet
  facet normal 0 0 -1
    outer loop
      vertex -136.367 22.0921 0
      vertex -150 9.18485e-15 0
      vertex -136.929 24.0038 0
    endloop
  endfacet
  facet normal 0 0 -1
    outer loop
      vertex -135.29 20.416 0
      vertex -150 9.18485e-15 0
      vertex -136.367 22.0921 0
    endloop
  endfacet
  facet normal 0 0 -1
    outer loop
      vertex -133.784 19.1112 0
      vertex -150 9.18485e-15 0
      vertex -135.29 20.416 0
    endloop
  endfacet
  facet normal 0 0 -1
    outer loop
      vertex -131.972 18.2835 0
      vertex -150 9.18485e-15 0
      vertex -133.784 19.1112 0
    endloop
  endfacet
  facet normal 0 0 -1
    outer loop
      vertex -130 18 0
      vertex -150 9.18485e-15 0
      vertex -131.972 18.2835 0
    endloop
  endfacet
  facet normal 0 0 -1
    outer loop
      vertex -5 50 0
      vertex -150 9.18485e-15 0
      vertex -128.028 18.2835 0
    endloop
  endfacet
  facet normal 0 0 -1
    outer loop
      vertex -5 50 0
      vertex -128.028 18.2835 0
      vertex -126.216 19.1112 0
    endloop
  endfacet
  facet normal 0 0 -1
    outer loop
      vertex -5 50 0
      vertex -126.216 19.1112 0
      vertex -124.71 20.416 0
    endloop
  endfacet
  facet normal 0 0 -1
    outer loop
      vertex -5 50 0
      vertex -124.71 20.416 0
      vertex -123.633 22.0921 0
    endloop
  endfacet
  facet normal 0 0 -1
    outer loop
      vertex -5 50 0
      vertex -123.633 22.0921 0
      vertex -123.071 24.0038 0
    endloop
  endfacet
  facet normal 0 0 -1
    outer loop
      vertex -5 50 0
      vertex -123.071 24.0038 0
      vertex -123.071 25.9962 0
    endloop
  endfacet
  facet normal 0 0 -1
    outer loop
      vertex -5 50 0
      vertex -123.071 25.9962 0
      vertex -123.633 27.9079 0
    endloop
  endfacet
  facet normal 0 0 -1
    outer loop
      vertex -5 50 0
      vertex -123.633 27.9079 0
      vertex -124.71 29.584 0
    endloop
  endfacet
  facet normal 0 0 -1
    outer loop
      vertex -5 50 0
      vertex -124.71 29.584 0
      vertex -126.216 30.8888 0
    endloop
  endfacet
  facet normal 0 0 -1
    outer loop
      vertex -5 50 0
      vertex -126.216 30.8888 0
      vertex -150 50 0
    endloop
  endfacet
  facet normal -1 6.12323e-17 0
    outer loop
      vertex -5 -25 0
      vertex -5 -25 50
      vertex -5 3.06162e-16 0
    endloop
  endfacet
  facet normal -1 6.12323e-17 0
    outer loop
      vertex -5 3.06162e-16 0
      vertex -5 -25 50
      vertex -5 -12.5 50
    endloop
  endfacet
  facet normal -1 6.12323e-17 0
    outer loop
      vertex -5 3.06162e-16 0
      vertex -5 -12.5 50
      vertex -5 -12.5 60
    endloop
  endfacet
  facet normal -1 6.12323e-17 0
    outer loop
      vertex -5 -0.5 50
      vertex -5 -12.5 60
      vertex -5 -0.5 60
    endloop
  endfacet
  facet normal -1 6.12323e-17 0
    outer loop
      vertex -5 3.06162e-16 0
      vertex -5 -12.5 60
      vertex -5 -0.5 50
    endloop
  endfacet
  facet normal -1 6.12323e-17 0
    outer loop
      vertex -5 5 5
      vertex -5 75 50
      vertex -5 50 5
    endloop
  endfacet
  facet normal -1 6.12323e-17 0
    outer loop
      vertex -5 5 5
      vertex -5 62.5 50
      vertex -5 74.5 50
    endloop
  endfacet
  facet normal -1 6.12323e-17 0
    outer loop
      vertex -5 12.5 50
      vertex -5 12.5 60
      vertex -5 24.5 60
    endloop
  endfacet
  facet normal -1 6.12323e-17 0
    outer loop
      vertex -5 3.06162e-16 15
      vertex -5 12.5 50
      vertex -5 5 15
    endloop
  endfacet
  facet normal -1 6.12323e-17 0
    outer loop
      vertex -5 37.5 50
      vertex -5 37.5 60
      vertex -5 49.5 60
    endloop
  endfacet
  facet normal -1 6.12323e-17 0
    outer loop
      vertex -5 5 5
      vertex -5 49.5 50
      vertex -5 62.5 50
    endloop
  endfacet
  facet normal -1 6.12323e-17 0
    outer loop
      vertex -5 62.5 50
      vertex -5 62.5 60
      vertex -5 74.5 60
    endloop
  endfacet
  facet normal -1 6.12323e-17 0
    outer loop
      vertex -5 62.5 50
      vertex -5 74.5 60
      vertex -5 74.5 50
    endloop
  endfacet
  facet normal -1 6.12323e-17 0
    outer loop
      vertex -5 5 15
      vertex -5 24.5 50
      vertex -5 37.5 50
    endloop
  endfacet
  facet normal -1 6.12323e-17 0
    outer loop
      vertex -5 5 15
      vertex -5 37.5 50
      vertex -5 49.5 60
    endloop
  endfacet
  facet normal -1 6.12323e-17 0
    outer loop
      vertex -5 50 0
      vertex -5 75 50
      vertex -5 75 0
    endloop
  endfacet
  facet normal -1 6.12323e-17 0
    outer loop
      vertex -5 50 5
      vertex -5 75 50
      vertex -5 50 0
    endloop
  endfacet
  facet normal -1 6.12323e-17 0
    outer loop
      vertex -5 5 15
      vertex -5 49.5 60
      vertex -5 49.5 50
    endloop
  endfacet
  facet normal -1 6.12323e-17 0
    outer loop
      vertex -5 5 15
      vertex -5 24.5 60
      vertex -5 24.5 50
    endloop
  endfacet
  facet normal -1 6.12323e-17 0
    outer loop
      vertex -5 12.5 50
      vertex -5 24.5 60
      vertex -5 5 15
    endloop
  endfacet
  facet normal -1 6.12323e-17 0
    outer loop
      vertex -5 5 5
      vertex -5 74.5 50
      vertex -5 75 50
    endloop
  endfacet
  facet normal -1 6.12323e-17 0
    outer loop
      vertex -5 3.06162e-16 15
      vertex -5 3.06162e-16 0
      vertex -5 -0.5 50
    endloop
  endfacet
  facet normal -1 6.12323e-17 0
    outer loop
      vertex -5 12.5 50
      vertex -5 3.06162e-16 15
      vertex -5 -0.5 50
    endloop
  endfacet
  facet normal -1 6.12323e-17 0
    outer loop
      vertex -5 5 15
      vertex -5 49.5 50
      vertex -5 5 5
    endloop
  endfacet
  facet normal 0 0 1
    outer loop
      vertex -2.5 -12.5 50
      vertex -5 -12.5 50
      vertex -5 -25 50
    endloop
  endfacet
  facet normal 0 0 1
    outer loop
      vertex -5 -25 50
      vertex -2.5 -25 50
      vertex -2.5 -13 50
    endloop
  endfacet
  facet normal 0 0 1
    outer loop
      vertex 0 0 50
      vertex -2.5 -12.5 50
      vertex -2.5 -13 50
    endloop
  endfacet
  facet normal 0 0 1
    outer loop
      vertex -7.9602e-16 -13 50
      vertex 0 0 50
      vertex -2.5 -13 50
    endloop
  endfacet
  facet normal 0 0 1
    outer loop
      vertex 7.34788e-16 12 50
      vertex 1.53081e-15 25 50
      vertex -2.5 12 50
    endloop
  endfacet
  facet normal 0 0 1
    outer loop
      vertex 1.53081e-15 25 50
      vertex -2.5 25 50
      vertex -2.5 24.5 50
    endloop
  endfacet
  facet normal 0 0 1
    outer loop
      vertex 2.2656e-15 37 50
      vertex 3.06162e-15 50 50
      vertex -2.5 37 50
    endloop
  endfacet
  facet normal 0 0 1
    outer loop
      vertex 3.06162e-15 50 50
      vertex -2.5 50 50
      vertex -2.5 49.5 50
    endloop
  endfacet
  facet normal 0 0 1
    outer loop
      vertex -2.5 12.5 50
      vertex -5 12.5 50
      vertex -5 -0.5 50
    endloop
  endfacet
  facet normal 0 0 1
    outer loop
      vertex 3.79641e-15 62 50
      vertex 4.59243e-15 75 50
      vertex -2.5 62 50
    endloop
  endfacet
  facet normal 0 0 1
    outer loop
      vertex -2.5 62.5 50
      vertex -5 62.5 50
      vertex -2.5 62 50
    endloop
  endfacet
  facet normal 0 0 1
    outer loop
      vertex 4.59243e-15 75 50
      vertex -2.5 74.5 50
      vertex -2.5 62.5 50
    endloop
  endfacet
  facet normal 0 0 1
    outer loop
      vertex 4.59243e-15 75 50
      vertex -5 75 50
      vertex -2.5 74.5 50
    endloop
  endfacet
  facet normal 0 0 1
    outer loop
      vertex 4.59243e-15 75 50
      vertex -2.5 62.5 50
      vertex -2.5 62 50
    endloop
  endfacet
  facet normal 0 0 1
    outer loop
      vertex -5 24.5 50
      vertex -2.5 37 50
      vertex -2.5 37.5 50
    endloop
  endfacet
  facet normal 0 0 1
    outer loop
      vertex -2.5 62 50
      vertex -5 62.5 50
      vertex -5 49.5 50
    endloop
  endfacet
  facet normal 0 0 1
    outer loop
      vertex -5 24.5 50
      vertex -2.5 25 50
      vertex -2.5 37 50
    endloop
  endfacet
  facet normal 0 0 1
    outer loop
      vertex -2.5 37.5 50
      vertex 3.06162e-15 50 50
      vertex -2.5 49.5 50
    endloop
  endfacet
  facet normal 0 0 1
    outer loop
      vertex -2.5 37 50
      vertex 3.06162e-15 50 50
      vertex -2.5 37.5 50
    endloop
  endfacet
  facet normal 0 0 1
    outer loop
      vertex -5 24.5 50
      vertex -2.5 24.5 50
      vertex -2.5 25 50
    endloop
  endfacet
  facet normal 0 0 1
    outer loop
      vertex -5 -0.5 50
      vertex -2.5 1.53081e-16 50
      vertex -2.5 12 50
    endloop
  endfacet
  facet normal 0 0 1
    outer loop
      vertex -2.5 12.5 50
      vertex 1.53081e-15 25 50
      vertex -2.5 24.5 50
    endloop
  endfacet
  facet normal 0 0 1
    outer loop
      vertex -2.5 12 50
      vertex 1.53081e-15 25 50
      vertex -2.5 12.5 50
    endloop
  endfacet
  facet normal 0 0 1
    outer loop
      vertex -2.5 37.5 50
      vertex -5 37.5 50
      vertex -5 24.5 50
    endloop
  endfacet
  facet normal 0 0 1
    outer loop
      vertex 0 0 50
      vertex -2.5 1.53081e-16 50
      vertex -2.5 -0.5 50
    endloop
  endfacet
  facet normal 0 0 1
    outer loop
      vertex -2.5 -13 50
      vertex -2.5 -12.5 50
      vertex -5 -25 50
    endloop
  endfacet
  facet normal 0 0 1
    outer loop
      vertex 0 0 50
      vertex -2.5 -0.5 50
      vertex -2.5 -12.5 50
    endloop
  endfacet
  facet normal 0 0 1
    outer loop
      vertex -5 -0.5 50
      vertex -2.5 -0.5 50
      vertex -2.5 1.53081e-16 50
    endloop
  endfacet
  facet normal 0 0 1
    outer loop
      vertex -5 74.5 50
      vertex -2.5 74.5 50
      vertex -5 75 50
    endloop
  endfacet
  facet normal 0 0 1
    outer loop
      vertex -5 -0.5 50
      vertex -2.5 12 50
      vertex -2.5 12.5 50
    endloop
  endfacet
  facet normal 0 0 1
    outer loop
      vertex -5 49.5 50
      vertex -2.5 50 50
      vertex -2.5 62 50
    endloop
  endfacet
  facet normal 0 0 1
    outer loop
      vertex -5 49.5 50
      vertex -2.5 49.5 50
      vertex -2.5 50 50
    endloop
  endfacet
  facet normal -1 6.12323e-17 0
    outer loop
      vertex -2.5 -25 50
      vertex -2.5 -25 60
      vertex -2.5 -13 50
    endloop
  endfacet
  facet normal -1 6.12323e-17 0
    outer loop
      vertex -2.5 -13 50
      vertex -2.5 -25 60
      vertex -2.5 -13 60
    endloop
  endfacet
  facet normal 0 0 1
    outer loop
      vertex -2.5 -25 60
      vertex -1.53081e-15 -25 60
      vertex -7.9602e-16 -13 60
    endloop
  endfacet
  facet normal 0 0 1
    outer loop
      vertex -2.5 -13 60
      vertex -2.5 -25 60
      vertex -7.9602e-16 -13 60
    endloop
  endfacet
  facet normal 6.12323e-17 1 0
    outer loop
      vertex -7.9602e-16 -13 50
      vertex -2.5 -13 50
      vertex -7.9602e-16 -13 60
    endloop
  endfacet
  facet normal 6.12323e-17 1 0
    outer loop
      vertex -7.9602e-16 -13 60
      vertex -2.5 -13 50
      vertex -2.5 -13 60
    endloop
  endfacet
  facet normal -6.12323e-17 -1 0
    outer loop
      vertex -2.5 1.53081e-16 50
      vertex 0 0 50
      vertex 0 0 60
    endloop
  endfacet
  facet normal -6.12323e-17 -1 0
    outer loop
      vertex -2.5 1.53081e-16 60
      vertex -2.5 1.53081e-16 50
      vertex 0 0 60
    endloop
  endfacet
  facet normal 0 0 1
    outer loop
      vertex -2.5 1.53081e-16 60
      vertex 0 0 60
      vertex 7.34788e-16 12 60
    endloop
  endfacet
  facet normal 0 0 1
    outer loop
      vertex -2.5 12 60
      vertex -2.5 1.53081e-16 60
      vertex 7.34788e-16 12 60
    endloop
  endfacet
  facet normal 6.12323e-17 1 0
    outer loop
      vertex 7.34788e-16 12 50
      vertex -2.5 12 50
      vertex 7.34788e-16 12 60
    endloop
  endfacet
  facet normal 6.12323e-17 1 0
    outer loop
      vertex 7.34788e-16 12 60
      vertex -2.5 12 50
      vertex -2.5 12 60
    endloop
  endfacet
  facet normal -6.12323e-17 -1 0
    outer loop
      vertex -2.5 25 50
      vertex 1.53081e-15 25 50
      vertex 1.53081e-15 25 60
    endloop
  endfacet
  facet normal -6.12323e-17 -1 0
    outer loop
      vertex -2.5 25 60
      vertex -2.5 25 50
      vertex 1.53081e-15 25 60
    endloop
  endfacet
  facet normal 0 0 1
    outer loop
      vertex -2.5 25 60
      vertex 1.53081e-15 25 60
      vertex 2.2656e-15 37 60
    endloop
  endfacet
  facet normal 0 0 1
    outer loop
      vertex -2.5 37 60
      vertex -2.5 25 60
      vertex 2.2656e-15 37 60
    endloop
  endfacet
  facet normal 6.12323e-17 1 0
    outer loop
      vertex 2.2656e-15 37 50
      vertex -2.5 37 50
      vertex 2.2656e-15 37 60
    endloop
  endfacet
  facet normal 6.12323e-17 1 0
    outer loop
      vertex 2.2656e-15 37 60
      vertex -2.5 37 50
      vertex -2.5 37 60
    endloop
  endfacet
  facet normal -6.12323e-17 -1 0
    outer loop
      vertex -2.5 50 50
      vertex 3.06162e-15 50 50
      vertex 3.06162e-15 50 60
    endloop
  endfacet
  facet normal -6.12323e-17 -1 0
    outer loop
      vertex -2.5 50 60
      vertex -2.5 50 50
      vertex 3.06162e-15 50 60
    endloop
  endfacet
  facet normal 0 0 1
    outer loop
      vertex -2.5 50 60
      vertex 3.06162e-15 50 60
      vertex 3.79641e-15 62 60
    endloop
  endfacet
  facet normal 0 0 1
    outer loop
      vertex -2.5 62 60
      vertex -2.5 50 60
      vertex 3.79641e-15 62 60
    endloop
  endfacet
  facet normal 6.12323e-17 1 0
    outer loop
      vertex 3.79641e-15 62 50
      vertex -2.5 62 50
      vertex 3.79641e-15 62 60
    endloop
  endfacet
  facet normal 6.12323e-17 1 0
    outer loop
      vertex 3.79641e-15 62 60
      vertex -2.5 62 50
      vertex -2.5 62 60
    endloop
  endfacet
  facet normal 6.12323e-17 1 0
    outer loop
      vertex 4.59243e-15 75 0
      vertex -5 75 0
      vertex 4.59243e-15 75 50
    endloop
  endfacet
  facet normal 6.12323e-17 1 0
    outer loop
      vertex 4.59243e-15 75 50
      vertex -5 75 0
      vertex -5 75 50
    endloop
  endfacet
  facet normal 6.12323e-17 1 0
    outer loop
      vertex -5 50 0
      vertex -150 50 0
      vertex -5 50 5
    endloop
  endfacet
  facet normal 6.12323e-17 1 0
    outer loop
      vertex -5 50 5
      vertex -150 50 0
      vertex -150 50 5
    endloop
  endfacet
  facet normal -1 6.12323e-17 0
    outer loop
      vertex -150 9.18485e-15 0
      vertex -150 9.18485e-15 5
      vertex -150 50 0
    endloop
  endfacet
  facet normal -1 6.12323e-17 0
    outer loop
      vertex -150 50 0
      vertex -150 9.18485e-15 5
      vertex -150 50 5
    endloop
  endfacet
  facet normal -6.12323e-17 -1 0
    outer loop
      vertex -8.05014 4.92929e-16 10.445
      vertex -5 3.06162e-16 0
      vertex -5 3.06162e-16 15
    endloop
  endfacet
  facet normal -6.12323e-17 -1 0
    outer loop
      vertex -18.1517 1.11147e-15 10
      vertex -25 1.53081e-15 5
      vertex -5 3.06162e-16 15
    endloop
  endfacet
  facet normal -6.12323e-17 -1 0
    outer loop
      vertex -150 9.18485e-15 0
      vertex -5 3.06162e-16 0
      vertex -25 1.53081e-15 5
    endloop
  endfacet
  facet normal -6.12323e-17 -1 0
    outer loop
      vertex -9.13223 5.59188e-16 11.8019
      vertex -8.05014 4.92929e-16 10.445
      vertex -5 3.06162e-16 15
    endloop
  endfacet
  facet normal -6.12323e-17 -1 0
    outer loop
      vertex -8.15172 4.99149e-16 10
      vertex -5 3.06162e-16 0
      vertex -8.05014 4.92929e-16 10.445
    endloop
  endfacet
  facet normal -6.12323e-17 -1 0
    outer loop
      vertex -25 1.53081e-15 5
      vertex -5 3.06162e-16 0
      vertex -8.15172 4.99149e-16 10
    endloop
  endfacet
  facet normal -6.12323e-17 -1 0
    outer loop
      vertex -19.1322 1.17151e-15 11.8019
      vertex -18.0501 1.10525e-15 10.445
      vertex -5 3.06162e-16 15
    endloop
  endfacet
  facet normal -6.12323e-17 -1 0
    outer loop
      vertex -25 1.53081e-15 5
      vertex -11.8483 7.25498e-16 10
      vertex -11.9499 7.31718e-16 10.445
    endloop
  endfacet
  facet normal -6.12323e-17 -1 0
    outer loop
      vertex -25 1.53081e-15 5
      vertex -10.8678 6.65459e-16 11.8019
      vertex -5 3.06162e-16 15
    endloop
  endfacet
  facet normal -6.12323e-17 -1 0
    outer loop
      vertex -25 1.53081e-15 5
      vertex -11.9499 7.31718e-16 10.445
      vertex -10.8678 6.65459e-16 11.8019
    endloop
  endfacet
  facet normal -6.12323e-17 -1 0
    outer loop
      vertex -18.0501 1.10525e-15 10.445
      vertex -18.1517 1.11147e-15 10
      vertex -5 3.06162e-16 15
    endloop
  endfacet
  facet normal -6.12323e-17 -1 0
    outer loop
      vertex -25 1.53081e-15 5
      vertex -150 9.18485e-15 5
      vertex -150 9.18485e-15 0
    endloop
  endfacet
  facet normal -6.12323e-17 -1 0
    outer loop
      vertex -18.1517 1.11147e-15 10
      vertex -21.8483 1.33782e-15 10
      vertex -25 1.53081e-15 5
    endloop
  endfacet
  facet normal -6.12323e-17 -1 0
    outer loop
      vertex -10.8678 6.65459e-16 11.8019
      vertex -9.13223 5.59188e-16 11.8019
      vertex -5 3.06162e-16 15
    endloop
  endfacet
  facet normal -6.12323e-17 -1 0
    outer loop
      vertex -20.8678 1.27778e-15 11.8019
      vertex -19.1322 1.17151e-15 11.8019
      vertex -5 3.06162e-16 15
    endloop
  endfacet
  facet normal -6.12323e-17 -1 0
    outer loop
      vertex -8.15172 4.99149e-16 10
      vertex -11.8483 7.25498e-16 10
      vertex -25 1.53081e-15 5
    endloop
  endfacet
  facet normal -6.12323e-17 -1 0
    outer loop
      vertex -25 1.53081e-15 15
      vertex -20.8678 1.27778e-15 11.8019
      vertex -5 3.06162e-16 15
    endloop
  endfacet
  facet normal -6.12323e-17 -1 0
    outer loop
      vertex -25 1.53081e-15 15
      vertex -21.9499 1.34404e-15 10.445
      vertex -20.8678 1.27778e-15 11.8019
    endloop
  endfacet
  facet normal -6.12323e-17 -1 0
    outer loop
      vertex -25 1.53081e-15 15
      vertex -21.8483 1.33782e-15 10
      vertex -21.9499 1.34404e-15 10.445
    endloop
  endfacet
  facet normal -6.12323e-17 -1 0
    outer loop
      vertex -25 1.53081e-15 15
      vertex -25 1.53081e-15 5
      vertex -21.8483 1.33782e-15 10
    endloop
  endfacet
  facet normal 0.142315 0.989821 0
    outer loop
      vertex -131.972 18.2835 5
      vertex -130 18 5
      vertex -131.972 18.2835 0
    endloop
  endfacet
  facet normal 0.142315 0.989821 0
    outer loop
      vertex -131.972 18.2835 0
      vertex -130 18 5
      vertex -130 18 0
    endloop
  endfacet
  facet normal -0.142315 0.989821 0
    outer loop
      vertex -128.028 18.2835 5
      vertex -128.028 18.2835 0
      vertex -130 18 5
    endloop
  endfacet
  facet normal -0.142315 0.989821 0
    outer loop
      vertex -130 18 5
      vertex -128.028 18.2835 0
      vertex -130 18 0
    endloop
  endfacet
  facet normal 0.415415 0.909632 0
    outer loop
      vertex -133.784 19.1112 5
      vertex -131.972 18.2835 5
      vertex -133.784 19.1112 0
    endloop
  endfacet
  facet normal 0.415415 0.909632 0
    outer loop
      vertex -133.784 19.1112 0
      vertex -131.972 18.2835 5
      vertex -131.972 18.2835 0
    endloop
  endfacet
  facet normal 0.654861 0.755749 0
    outer loop
      vertex -135.29 20.416 5
      vertex -133.784 19.1112 5
      vertex -135.29 20.416 0
    endloop
  endfacet
  facet normal 0.654861 0.755749 0
    outer loop
      vertex -135.29 20.416 0
      vertex -133.784 19.1112 5
      vertex -133.784 19.1112 0
    endloop
  endfacet
  facet normal 0.841254 0.540641 0
    outer loop
      vertex -136.367 22.0921 0
      vertex -136.367 22.0921 5
      vertex -135.29 20.416 5
    endloop
  endfacet
  facet normal 0.841254 0.540641 0
    outer loop
      vertex -135.29 20.416 0
      vertex -136.367 22.0921 0
      vertex -135.29 20.416 5
    endloop
  endfacet
  facet normal 0.959493 0.281733 0
    outer loop
      vertex -136.929 24.0038 0
      vertex -136.929 24.0038 5
      vertex -136.367 22.0921 5
    endloop
  endfacet
  facet normal 0.959493 0.281733 0
    outer loop
      vertex -136.367 22.0921 0
      vertex -136.929 24.0038 0
      vertex -136.367 22.0921 5
    endloop
  endfacet
  facet normal 1 -6.12323e-17 0
    outer loop
      vertex -136.929 25.9962 0
      vertex -136.929 25.9962 5
      vertex -136.929 24.0038 5
    endloop
  endfacet
  facet normal 1 -6.12323e-17 0
    outer loop
      vertex -136.929 24.0038 0
      vertex -136.929 25.9962 0
      vertex -136.929 24.0038 5
    endloop
  endfacet
  facet normal 0.959493 -0.281733 0
    outer loop
      vertex -136.367 27.9079 0
      vertex -136.367 27.9079 5
      vertex -136.929 25.9962 5
    endloop
  endfacet
  facet normal 0.959493 -0.281733 0
    outer loop
      vertex -136.929 25.9962 0
      vertex -136.367 27.9079 0
      vertex -136.929 25.9962 5
    endloop
  endfacet
  facet normal 0.841254 -0.540641 0
    outer loop
      vertex -135.29 29.584 0
      vertex -135.29 29.584 5
      vertex -136.367 27.9079 5
    endloop
  endfacet
  facet normal 0.841254 -0.540641 0
    outer loop
      vertex -136.367 27.9079 0
      vertex -135.29 29.584 0
      vertex -136.367 27.9079 5
    endloop
  endfacet
  facet normal 0.654861 -0.755749 0
    outer loop
      vertex -133.784 30.8888 0
      vertex -133.784 30.8888 5
      vertex -135.29 29.584 5
    endloop
  endfacet
  facet normal 0.654861 -0.755749 0
    outer loop
      vertex -135.29 29.584 0
      vertex -133.784 30.8888 0
      vertex -135.29 29.584 5
    endloop
  endfacet
  facet normal 0.415415 -0.909632 0
    outer loop
      vertex -131.972 31.7165 0
      vertex -131.972 31.7165 5
      vertex -133.784 30.8888 5
    endloop
  endfacet
  facet normal 0.415415 -0.909632 0
    outer loop
      vertex -133.784 30.8888 0
      vertex -131.972 31.7165 0
      vertex -133.784 30.8888 5
    endloop
  endfacet
  facet normal 0.142315 -0.989821 0
    outer loop
      vertex -130 32 0
      vertex -130 32 5
      vertex -131.972 31.7165 5
    endloop
  endfacet
  facet normal 0.142315 -0.989821 0
    outer loop
      vertex -131.972 31.7165 0
      vertex -130 32 0
      vertex -131.972 31.7165 5
    endloop
  endfacet
  facet normal -0.142315 -0.989821 0
    outer loop
      vertex -128.028 31.7165 5
      vertex -130 32 5
      vertex -130 32 0
    endloop
  endfacet
  facet normal -0.142315 -0.989821 0
    outer loop
      vertex -128.028 31.7165 0
      vertex -128.028 31.7165 5
      vertex -130 32 0
    endloop
  endfacet
  facet normal -0.415415 -0.909632 0
    outer loop
      vertex -126.216 30.8888 5
      vertex -128.028 31.7165 5
      vertex -128.028 31.7165 0
    endloop
  endfacet
  facet normal -0.415415 -0.909632 0
    outer loop
      vertex -126.216 30.8888 0
      vertex -126.216 30.8888 5
      vertex -128.028 31.7165 0
    endloop
  endfacet
  facet normal -0.654861 -0.755749 0
    outer loop
      vertex -124.71 29.584 5
      vertex -126.216 30.8888 5
      vertex -126.216 30.8888 0
    endloop
  endfacet
  facet normal -0.654861 -0.755749 0
    outer loop
      vertex -124.71 29.584 0
      vertex -124.71 29.584 5
      vertex -126.216 30.8888 0
    endloop
  endfacet
  facet normal -0.841254 -0.540641 0
    outer loop
      vertex -124.71 29.584 5
      vertex -124.71 29.584 0
      vertex -123.633 27.9079 5
    endloop
  endfacet
  facet normal -0.841254 -0.540641 0
    outer loop
      vertex -123.633 27.9079 5
      vertex -124.71 29.584 0
      vertex -123.633 27.9079 0
    endloop
  endfacet
  facet normal -0.959493 -0.281733 0
    outer loop
      vertex -123.633 27.9079 5
      vertex -123.633 27.9079 0
      vertex -123.071 25.9962 5
    endloop
  endfacet
  facet normal -0.959493 -0.281733 0
    outer loop
      vertex -123.071 25.9962 5
      vertex -123.633 27.9079 0
      vertex -123.071 25.9962 0
    endloop
  endfacet
  facet normal -1 6.12323e-17 0
    outer loop
      vertex -123.071 25.9962 5
      vertex -123.071 25.9962 0
      vertex -123.071 24.0038 5
    endloop
  endfacet
  facet normal -1 6.12323e-17 0
    outer loop
      vertex -123.071 24.0038 5
      vertex -123.071 25.9962 0
      vertex -123.071 24.0038 0
    endloop
  endfacet
  facet normal -0.959493 0.281733 0
    outer loop
      vertex -123.071 24.0038 5
      vertex -123.071 24.0038 0
      vertex -123.633 22.0921 5
    endloop
  endfacet
  facet normal -0.959493 0.281733 0
    outer loop
      vertex -123.633 22.0921 5
      vertex -123.071 24.0038 0
      vertex -123.633 22.0921 0
    endloop
  endfacet
  facet normal -0.841254 0.540641 0
    outer loop
      vertex -123.633 22.0921 5
      vertex -123.633 22.0921 0
      vertex -124.71 20.416 5
    endloop
  endfacet
  facet normal -0.841254 0.540641 0
    outer loop
      vertex -124.71 20.416 5
      vertex -123.633 22.0921 0
      vertex -124.71 20.416 0
    endloop
  endfacet
  facet normal -0.654861 0.755749 0
    outer loop
      vertex -124.71 20.416 5
      vertex -124.71 20.416 0
      vertex -126.216 19.1112 5
    endloop
  endfacet
  facet normal -0.654861 0.755749 0
    outer loop
      vertex -126.216 19.1112 5
      vertex -124.71 20.416 0
      vertex -126.216 19.1112 0
    endloop
  endfacet
  facet normal -0.415415 0.909632 0
    outer loop
      vertex -126.216 19.1112 5
      vertex -126.216 19.1112 0
      vertex -128.028 18.2835 5
    endloop
  endfacet
  facet normal -0.415415 0.909632 0
    outer loop
      vertex -128.028 18.2835 5
      vertex -126.216 19.1112 0
      vertex -128.028 18.2835 0
    endloop
  endfacet
  facet normal 0 0 1
    outer loop
      vertex -25 1.53081e-15 15
      vertex -5 3.06162e-16 15
      vertex -5 5 15
    endloop
  endfacet
  facet normal 0 0 1
    outer loop
      vertex -25 5 15
      vertex -25 1.53081e-15 15
      vertex -5 5 15
    endloop
  endfacet
  facet normal 6.12323e-17 1 0
    outer loop
      vertex -11.8483 5 10
      vertex -25 5 5
      vertex -5 5 15
    endloop
  endfacet
  facet normal 6.12323e-17 1 0
    outer loop
      vertex -21.8483 5 10
      vertex -25 5 5
      vertex -25 5 15
    endloop
  endfacet
  facet normal 6.12323e-17 1 0
    outer loop
      vertex -21.8483 5 10
      vertex -25 5 15
      vertex -18.1517 5 10
    endloop
  endfacet
  facet normal 6.12323e-17 1 0
    outer loop
      vertex -5 5 5
      vertex -8.43634 5 8.75302
      vertex -5 5 15
    endloop
  endfacet
  facet normal 6.12323e-17 1 0
    outer loop
      vertex -10 5 8
      vertex -25 5 5
      vertex -11.5637 5 8.75302
    endloop
  endfacet
  facet normal 6.12323e-17 1 0
    outer loop
      vertex -8.43634 5 8.75302
      vertex -8.15172 5 10
      vertex -5 5 15
    endloop
  endfacet
  facet normal 6.12323e-17 1 0
    outer loop
      vertex -8.15172 5 10
      vertex -11.8483 5 10
      vertex -5 5 15
    endloop
  endfacet
  facet normal 6.12323e-17 1 0
    outer loop
      vertex -5 5 5
      vertex -25 5 5
      vertex -10 5 8
    endloop
  endfacet
  facet normal 6.12323e-17 1 0
    outer loop
      vertex -5 5 5
      vertex -10 5 8
      vertex -8.43634 5 8.75302
    endloop
  endfacet
  facet normal 6.12323e-17 1 0
    outer loop
      vertex -5 5 15
      vertex -25 5 5
      vertex -18.4363 5 8.75302
    endloop
  endfacet
  facet normal 6.12323e-17 1 0
    outer loop
      vertex -5 5 15
      vertex -18.4363 5 8.75302
      vertex -18.1517 5 10
    endloop
  endfacet
  facet normal 6.12323e-17 1 0
    outer loop
      vertex -5 5 15
      vertex -18.1517 5 10
      vertex -25 5 15
    endloop
  endfacet
  facet normal 6.12323e-17 1 0
    outer loop
      vertex -21.5637 5 8.75302
      vertex -25 5 5
      vertex -21.8483 5 10
    endloop
  endfacet
  facet normal 6.12323e-17 1 0
    outer loop
      vertex -20 5 8
      vertex -25 5 5
      vertex -21.5637 5 8.75302
    endloop
  endfacet
  facet normal 6.12323e-17 1 0
    outer loop
      vertex -18.4363 5 8.75302
      vertex -25 5 5
      vertex -20 5 8
    endloop
  endfacet
  facet normal 6.12323e-17 1 0
    outer loop
      vertex -11.5637 5 8.75302
      vertex -25 5 5
      vertex -11.8483 5 10
    endloop
  endfacet
  facet normal 0 0 1
    outer loop
      vertex -150 9.18485e-15 5
      vertex -25 1.53081e-15 5
      vertex -25 5 5
    endloop
  endfacet
  facet normal 0 0 1
    outer loop
      vertex -5 50 5
      vertex -150 9.18485e-15 5
      vertex -25 5 5
    endloop
  endfacet
  facet normal 0 0 1
    outer loop
      vertex -5 5 5
      vertex -5 50 5
      vertex -25 5 5
    endloop
  endfacet
  facet normal 0 0 1
    outer loop
      vertex -136.367 22.0921 5
      vertex -150 50 5
      vertex -150 9.18485e-15 5
    endloop
  endfacet
  facet normal 0 0 1
    outer loop
      vertex -5 50 5
      vertex -128.028 18.2835 5
      vertex -150 9.18485e-15 5
    endloop
  endfacet
  facet normal 0 0 1
    outer loop
      vertex -128.028 18.2835 5
      vertex -130 18 5
      vertex -150 9.18485e-15 5
    endloop
  endfacet
  facet normal 0 0 1
    outer loop
      vertex -130 32 5
      vertex -128.028 31.7165 5
      vertex -5 50 5
    endloop
  endfacet
  facet normal 0 0 1
    outer loop
      vertex -130 18 5
      vertex -131.972 18.2835 5
      vertex -150 9.18485e-15 5
    endloop
  endfacet
  facet normal 0 0 1
    outer loop
      vertex -131.972 18.2835 5
      vertex -133.784 19.1112 5
      vertex -150 9.18485e-15 5
    endloop
  endfacet
  facet normal 0 0 1
    outer loop
      vertex -133.784 19.1112 5
      vertex -135.29 20.416 5
      vertex -150 9.18485e-15 5
    endloop
  endfacet
  facet normal 0 0 1
    outer loop
      vertex -135.29 20.416 5
      vertex -136.367 22.0921 5
      vertex -150 9.18485e-15 5
    endloop
  endfacet
  facet normal 0 0 1
    outer loop
      vertex -136.929 24.0038 5
      vertex -136.929 25.9962 5
      vertex -150 50 5
    endloop
  endfacet
  facet normal 0 0 1
    outer loop
      vertex -136.929 25.9962 5
      vertex -136.367 27.9079 5
      vertex -150 50 5
    endloop
  endfacet
  facet normal 0 0 1
    outer loop
      vertex -133.784 30.8888 5
      vertex -150 50 5
      vertex -135.29 29.584 5
    endloop
  endfacet
  facet normal 0 0 1
    outer loop
      vertex -131.972 31.7165 5
      vertex -150 50 5
      vertex -133.784 30.8888 5
    endloop
  endfacet
  facet normal 0 0 1
    outer loop
      vertex -5 50 5
      vertex -150 50 5
      vertex -131.972 31.7165 5
    endloop
  endfacet
  facet normal 0 0 1
    outer loop
      vertex -128.028 31.7165 5
      vertex -126.216 30.8888 5
      vertex -5 50 5
    endloop
  endfacet
  facet normal 0 0 1
    outer loop
      vertex -5 50 5
      vertex -131.972 31.7165 5
      vertex -130 32 5
    endloop
  endfacet
  facet normal 0 0 1
    outer loop
      vertex -5 50 5
      vertex -126.216 30.8888 5
      vertex -124.71 29.584 5
    endloop
  endfacet
  facet normal 0 0 1
    outer loop
      vertex -5 50 5
      vertex -124.71 29.584 5
      vertex -123.633 27.9079 5
    endloop
  endfacet
  facet normal 0 0 1
    outer loop
      vertex -5 50 5
      vertex -123.633 27.9079 5
      vertex -123.071 25.9962 5
    endloop
  endfacet
  facet normal 0 0 1
    outer loop
      vertex -5 50 5
      vertex -123.071 25.9962 5
      vertex -123.071 24.0038 5
    endloop
  endfacet
  facet normal 0 0 1
    outer loop
      vertex -5 50 5
      vertex -123.071 24.0038 5
      vertex -123.633 22.0921 5
    endloop
  endfacet
  facet normal 0 0 1
    outer loop
      vertex -5 50 5
      vertex -123.633 22.0921 5
      vertex -124.71 20.416 5
    endloop
  endfacet
  facet normal 0 0 1
    outer loop
      vertex -5 50 5
      vertex -126.216 19.1112 5
      vertex -128.028 18.2835 5
    endloop
  endfacet
  facet normal 0 0 1
    outer loop
      vertex -5 50 5
      vertex -124.71 20.416 5
      vertex -126.216 19.1112 5
    endloop
  endfacet
  facet normal 0 0 1
    outer loop
      vertex -136.367 22.0921 5
      vertex -136.929 24.0038 5
      vertex -150 50 5
    endloop
  endfacet
  facet normal 0 0 1
    outer loop
      vertex -136.367 27.9079 5
      vertex -135.29 29.584 5
      vertex -150 50 5
    endloop
  endfacet
  facet normal 6.12323e-17 1 0
    outer loop
      vertex -2.5 74.5 50
      vertex -5 74.5 50
      vertex -2.5 74.5 60
    endloop
  endfacet
  facet normal 6.12323e-17 1 0
    outer loop
      vertex -2.5 74.5 60
      vertex -5 74.5 50
      vertex -5 74.5 60
    endloop
  endfacet
  facet normal 0 0 1
    outer loop
      vertex -5 62.5 60
      vertex -2.5 62.5 60
      vertex -2.5 74.5 60
    endloop
  endfacet
  facet normal 0 0 1
    outer loop
      vertex -5 74.5 60
      vertex -5 62.5 60
      vertex -2.5 74.5 60
    endloop
  endfacet
  facet normal -6.12323e-17 -1 0
    outer loop
      vertex -5 62.5 50
      vertex -2.5 62.5 50
      vertex -2.5 62.5 60
    endloop
  endfacet
  facet normal -6.12323e-17 -1 0
    outer loop
      vertex -5 62.5 60
      vertex -5 62.5 50
      vertex -2.5 62.5 60
    endloop
  endfacet
  facet normal 6.12323e-17 1 0
    outer loop
      vertex -2.5 49.5 50
      vertex -5 49.5 50
      vertex -2.5 49.5 60
    endloop
  endfacet
  facet normal 6.12323e-17 1 0
    outer loop
      vertex -2.5 49.5 60
      vertex -5 49.5 50
      vertex -5 49.5 60
    endloop
  endfacet
  facet normal 0 0 1
    outer loop
      vertex -5 37.5 60
      vertex -2.5 37.5 60
      vertex -2.5 49.5 60
    endloop
  endfacet
  facet normal 0 0 1
    outer loop
      vertex -5 49.5 60
      vertex -5 37.5 60
      vertex -2.5 49.5 60
    endloop
  endfacet
  facet normal -6.12323e-17 -1 0
    outer loop
      vertex -5 37.5 50
      vertex -2.5 37.5 50
      vertex -2.5 37.5 60
    endloop
  endfacet
  facet normal -6.12323e-17 -1 0
    outer loop
      vertex -5 37.5 60
      vertex -5 37.5 50
      vertex -2.5 37.5 60
    endloop
  endfacet
  facet normal 6.12323e-17 1 0
    outer loop
      vertex -2.5 24.5 50
      vertex -5 24.5 50
      vertex -2.5 24.5 60
    endloop
  endfacet
  facet normal 6.12323e-17 1 0
    outer loop
      vertex -2.5 24.5 60
      vertex -5 24.5 50
      vertex -5 24.5 60
    endloop
  endfacet
  facet normal 0 0 1
    outer loop
      vertex -5 12.5 60
      vertex -2.5 12.5 60
      vertex -2.5 24.5 60
    endloop
  endfacet
  facet normal 0 0 1
    outer loop
      vertex -5 24.5 60
      vertex -5 12.5 60
      vertex -2.5 24.5 60
    endloop
  endfacet
  facet normal -6.12323e-17 -1 0
    outer loop
      vertex -5 12.5 50
      vertex -2.5 12.5 50
      vertex -2.5 12.5 60
    endloop
  endfacet
  facet normal -6.12323e-17 -1 0
    outer loop
      vertex -5 12.5 60
      vertex -5 12.5 50
      vertex -2.5 12.5 60
    endloop
  endfacet
  facet normal 6.12323e-17 1 0
    outer loop
      vertex -2.5 -0.5 50
      vertex -5 -0.5 50
      vertex -2.5 -0.5 60
    endloop
  endfacet
  facet normal 6.12323e-17 1 0
    outer loop
      vertex -2.5 -0.5 60
      vertex -5 -0.5 50
      vertex -5 -0.5 60
    endloop
  endfacet
  facet normal 0 0 1
    outer loop
      vertex -5 -12.5 60
      vertex -2.5 -12.5 60
      vertex -2.5 -0.5 60
    endloop
  endfacet
  facet normal 0 0 1
    outer loop
      vertex -5 -0.5 60
      vertex -5 -12.5 60
      vertex -2.5 -0.5 60
    endloop
  endfacet
  facet normal -6.12323e-17 -1 0
    outer loop
      vertex -5 -12.5 50
      vertex -2.5 -12.5 50
      vertex -2.5 -12.5 60
    endloop
  endfacet
  facet normal -6.12323e-17 -1 0
    outer loop
      vertex -5 -12.5 60
      vertex -5 -12.5 50
      vertex -2.5 -12.5 60
    endloop
  endfacet
  facet normal 1 -6.12323e-17 0
    outer loop
      vertex -2.5 -12.5 60
      vertex -2.5 -12.5 50
      vertex -2.5 -0.5 50
    endloop
  endfacet
  facet normal 1 -6.12323e-17 0
    outer loop
      vertex -2.5 -0.5 60
      vertex -2.5 -12.5 60
      vertex -2.5 -0.5 50
    endloop
  endfacet
  facet normal 1 -6.12323e-17 0
    outer loop
      vertex -2.5 12.5 60
      vertex -2.5 12.5 50
      vertex -2.5 24.5 50
    endloop
  endfacet
  facet normal 1 -6.12323e-17 0
    outer loop
      vertex -2.5 24.5 60
      vertex -2.5 12.5 60
      vertex -2.5 24.5 50
    endloop
  endfacet
  facet normal 1 -6.12323e-17 0
    outer loop
      vertex -2.5 37.5 60
      vertex -2.5 37.5 50
      vertex -2.5 49.5 50
    endloop
  endfacet
  facet normal 1 -6.12323e-17 0
    outer loop
      vertex -2.5 49.5 60
      vertex -2.5 37.5 60
      vertex -2.5 49.5 50
    endloop
  endfacet
  facet normal 1 -6.12323e-17 0
    outer loop
      vertex -2.5 62.5 60
      vertex -2.5 62.5 50
      vertex -2.5 74.5 50
    endloop
  endfacet
  facet normal 1 -6.12323e-17 0
    outer loop
      vertex -2.5 74.5 60
      vertex -2.5 62.5 60
      vertex -2.5 74.5 50
    endloop
  endfacet
  facet normal -1 6.12323e-17 0
    outer loop
      vertex -2.5 50 50
      vertex -2.5 50 60
      vertex -2.5 62 50
    endloop
  endfacet
  facet normal -1 6.12323e-17 0
    outer loop
      vertex -2.5 62 50
      vertex -2.5 50 60
      vertex -2.5 62 60
    endloop
  endfacet
  facet normal -1 6.12323e-17 0
    outer loop
      vertex -2.5 25 50
      vertex -2.5 25 60
      vertex -2.5 37 50
    endloop
  endfacet
  facet normal -1 6.12323e-17 0
    outer loop
      vertex -2.5 37 50
      vertex -2.5 25 60
      vertex -2.5 37 60
    endloop
  endfacet
  facet normal -1 6.12323e-17 0
    outer loop
      vertex -2.5 1.53081e-16 50
      vertex -2.5 1.53081e-16 60
      vertex -2.5 12 50
    endloop
  endfacet
  facet normal -1 6.12323e-17 0
    outer loop
      vertex -2.5 12 50
      vertex -2.5 1.53081e-16 60
      vertex -2.5 12 60
    endloop
  endfacet
  facet normal -1 6.12323e-17 0
    outer loop
      vertex -25 1.53081e-15 5
      vertex -25 1.53081e-15 15
      vertex -25 5 5
    endloop
  endfacet
  facet normal -1 6.12323e-17 0
    outer loop
      vertex -25 5 5
      vertex -25 1.53081e-15 15
      vertex -25 5 15
    endloop
  endfacet
  facet normal -0.974928 1.02875e-17 0.222521
    outer loop
      vertex -8.15172 5 10
      vertex -8.43634 5 8.75302
      vertex -8.05014 5 10.445
    endloop
  endfacet
  facet normal -0.974928 1.02875e-17 0.222521
    outer loop
      vertex -8.05014 5 10.445
      vertex -8.43634 5 8.75302
      vertex -8.43634 7.93462e-16 8.75302
    endloop
  endfacet
  facet normal -0.974928 1.02875e-17 0.222521
    outer loop
      vertex -8.05014 5 10.445
      vertex -8.43634 7.93462e-16 8.75302
      vertex -8.15172 4.99149e-16 10
    endloop
  endfacet
  facet normal -0.974928 1.02875e-17 0.222521
    outer loop
      vertex -8.05014 5 10.445
      vertex -8.15172 4.99149e-16 10
      vertex -8.05014 4.92929e-16 10.445
    endloop
  endfacet
  facet normal -0.781831 1.86316e-16 -0.62349
    outer loop
      vertex -9.13223 5 11.8019
      vertex -8.05014 5 10.445
      vertex -9.13223 5.59188e-16 11.8019
    endloop
  endfacet
  facet normal -0.781831 1.86316e-16 -0.62349
    outer loop
      vertex -9.13223 5.59188e-16 11.8019
      vertex -8.05014 5 10.445
      vertex -8.05014 4.92929e-16 10.445
    endloop
  endfacet
  facet normal 1.35963e-32 2.22045e-16 -1
    outer loop
      vertex -10.8678 5 11.8019
      vertex -9.13223 5 11.8019
      vertex -10.8678 6.65459e-16 11.8019
    endloop
  endfacet
  facet normal 1.35963e-32 2.22045e-16 -1
    outer loop
      vertex -10.8678 6.65459e-16 11.8019
      vertex -9.13223 5 11.8019
      vertex -9.13223 5.59188e-16 11.8019
    endloop
  endfacet
  facet normal 0.781831 9.05692e-17 -0.62349
    outer loop
      vertex -11.9499 7.31718e-16 10.445
      vertex -11.9499 5 10.445
      vertex -10.8678 5 11.8019
    endloop
  endfacet
  facet normal 0.781831 9.05692e-17 -0.62349
    outer loop
      vertex -10.8678 6.65459e-16 11.8019
      vertex -11.9499 7.31718e-16 10.445
      vertex -10.8678 5 11.8019
    endloop
  endfacet
  facet normal 0.974928 -1.09107e-16 0.222521
    outer loop
      vertex -11.5637 9.84955e-16 8.75302
      vertex -11.5637 5 8.75302
      vertex -11.8483 5 10
    endloop
  endfacet
  facet normal 0.974928 -1.09107e-16 0.222521
    outer loop
      vertex -11.9499 7.31718e-16 10.445
      vertex -11.5637 9.84955e-16 8.75302
      vertex -11.9499 5 10.445
    endloop
  endfacet
  facet normal 0.974928 -1.09107e-16 0.222521
    outer loop
      vertex -11.9499 5 10.445
      vertex -11.5637 9.84955e-16 8.75302
      vertex -11.8483 5 10
    endloop
  endfacet
  facet normal 0.974928 -1.09107e-16 0.222521
    outer loop
      vertex -11.8483 7.25498e-16 10
      vertex -11.5637 9.84955e-16 8.75302
      vertex -11.9499 7.31718e-16 10.445
    endloop
  endfacet
  facet normal 6.12323e-17 1 2.22045e-16
    outer loop
      vertex -10 1.05641e-15 8
      vertex -11.5637 9.84955e-16 8.75302
      vertex -8.43634 7.93462e-16 8.75302
    endloop
  endfacet
  facet normal 6.12323e-17 1 2.22045e-16
    outer loop
      vertex -8.43634 7.93462e-16 8.75302
      vertex -11.5637 9.84955e-16 8.75302
      vertex -11.8483 7.25498e-16 10
    endloop
  endfacet
  facet normal 6.12323e-17 1 2.22045e-16
    outer loop
      vertex -8.43634 7.93462e-16 8.75302
      vertex -11.8483 7.25498e-16 10
      vertex -8.15172 4.99149e-16 10
    endloop
  endfacet
  facet normal -0.781831 1.86316e-16 -0.62349
    outer loop
      vertex -19.1322 5 11.8019
      vertex -18.0501 5 10.445
      vertex -19.1322 1.17151e-15 11.8019
    endloop
  endfacet
  facet normal -0.781831 1.86316e-16 -0.62349
    outer loop
      vertex -19.1322 1.17151e-15 11.8019
      vertex -18.0501 5 10.445
      vertex -18.0501 1.10525e-15 10.445
    endloop
  endfacet
  facet normal -0.974928 1.02875e-17 0.222521
    outer loop
      vertex -18.1517 5 10
      vertex -18.4363 5 8.75302
      vertex -18.0501 5 10.445
    endloop
  endfacet
  facet normal -0.974928 1.02875e-17 0.222521
    outer loop
      vertex -18.0501 5 10.445
      vertex -18.4363 5 8.75302
      vertex -18.4363 1.40579e-15 8.75302
    endloop
  endfacet
  facet normal -0.974928 1.02875e-17 0.222521
    outer loop
      vertex -18.0501 5 10.445
      vertex -18.4363 1.40579e-15 8.75302
      vertex -18.1517 1.11147e-15 10
    endloop
  endfacet
  facet normal -0.974928 1.02875e-17 0.222521
    outer loop
      vertex -18.0501 5 10.445
      vertex -18.1517 1.11147e-15 10
      vertex -18.0501 1.10525e-15 10.445
    endloop
  endfacet
  facet normal 1.35963e-32 2.22045e-16 -1
    outer loop
      vertex -20.8678 5 11.8019
      vertex -19.1322 5 11.8019
      vertex -20.8678 1.27778e-15 11.8019
    endloop
  endfacet
  facet normal 1.35963e-32 2.22045e-16 -1
    outer loop
      vertex -20.8678 1.27778e-15 11.8019
      vertex -19.1322 5 11.8019
      vertex -19.1322 1.17151e-15 11.8019
    endloop
  endfacet
  facet normal 0.781831 9.05692e-17 -0.62349
    outer loop
      vertex -21.9499 1.34404e-15 10.445
      vertex -21.9499 5 10.445
      vertex -20.8678 5 11.8019
    endloop
  endfacet
  facet normal 0.781831 9.05692e-17 -0.62349
    outer loop
      vertex -20.8678 1.27778e-15 11.8019
      vertex -21.9499 1.34404e-15 10.445
      vertex -20.8678 5 11.8019
    endloop
  endfacet
  facet normal 0.974928 -1.09107e-16 0.222521
    outer loop
      vertex -21.5637 1.59728e-15 8.75302
      vertex -21.5637 5 8.75302
      vertex -21.8483 5 10
    endloop
  endfacet
  facet normal 0.974928 -1.09107e-16 0.222521
    outer loop
      vertex -21.9499 1.34404e-15 10.445
      vertex -21.5637 1.59728e-15 8.75302
      vertex -21.9499 5 10.445
    endloop
  endfacet
  facet normal 0.974928 -1.09107e-16 0.222521
    outer loop
      vertex -21.9499 5 10.445
      vertex -21.5637 1.59728e-15 8.75302
      vertex -21.8483 5 10
    endloop
  endfacet
  facet normal 0.974928 -1.09107e-16 0.222521
    outer loop
      vertex -21.8483 1.33782e-15 10
      vertex -21.5637 1.59728e-15 8.75302
      vertex -21.9499 1.34404e-15 10.445
    endloop
  endfacet
  facet normal 6.12323e-17 1 2.22045e-16
    outer loop
      vertex -20 1.66874e-15 8
      vertex -21.5637 1.59728e-15 8.75302
      vertex -18.4363 1.40579e-15 8.75302
    endloop
  endfacet
  facet normal 6.12323e-17 1 2.22045e-16
    outer loop
      vertex -18.4363 1.40579e-15 8.75302
      vertex -21.5637 1.59728e-15 8.75302
      vertex -21.8483 1.33782e-15 10
    endloop
  endfacet
  facet normal 6.12323e-17 1 2.22045e-16
    outer loop
      vertex -18.4363 1.40579e-15 8.75302
      vertex -21.8483 1.33782e-15 10
      vertex -18.1517 1.11147e-15 10
    endloop
  endfacet
  facet normal -0.433884 -1.73488e-16 0.900969
    outer loop
      vertex -8.43634 5 8.75302
      vertex -10 5 8
      vertex -10 1.05641e-15 8
    endloop
  endfacet
  facet normal -0.433884 -1.73488e-16 0.900969
    outer loop
      vertex -8.43634 7.93462e-16 8.75302
      vertex -8.43634 5 8.75302
      vertex -10 1.05641e-15 8
    endloop
  endfacet
  facet normal 0.433884 -2.26623e-16 0.900969
    outer loop
      vertex -10 1.05641e-15 8
      vertex -10 5 8
      vertex -11.5637 5 8.75302
    endloop
  endfacet
  facet normal 0.433884 -2.26623e-16 0.900969
    outer loop
      vertex -11.5637 9.84955e-16 8.75302
      vertex -10 1.05641e-15 8
      vertex -11.5637 5 8.75302
    endloop
  endfacet
  facet normal -6.12323e-17 -1 -2.22045e-16
    outer loop
      vertex -10.8678 5 11.8019
      vertex -11.9499 5 10.445
      vertex -11.8483 5 10
    endloop
  endfacet
  facet normal -6.12323e-17 -1 -2.22045e-16
    outer loop
      vertex -8.05014 5 10.445
      vertex -10.8678 5 11.8019
      vertex -8.15172 5 10
    endloop
  endfacet
  facet normal -6.12323e-17 -1 -2.22045e-16
    outer loop
      vertex -8.15172 5 10
      vertex -10.8678 5 11.8019
      vertex -11.8483 5 10
    endloop
  endfacet
  facet normal -6.12323e-17 -1 -2.22045e-16
    outer loop
      vertex -9.13223 5 11.8019
      vertex -10.8678 5 11.8019
      vertex -8.05014 5 10.445
    endloop
  endfacet
  facet normal -0.433884 -1.73488e-16 0.900969
    outer loop
      vertex -18.4363 5 8.75302
      vertex -20 5 8
      vertex -20 1.66874e-15 8
    endloop
  endfacet
  facet normal -0.433884 -1.73488e-16 0.900969
    outer loop
      vertex -18.4363 1.40579e-15 8.75302
      vertex -18.4363 5 8.75302
      vertex -20 1.66874e-15 8
    endloop
  endfacet
  facet normal 0.433884 -2.26623e-16 0.900969
    outer loop
      vertex -20 1.66874e-15 8
      vertex -20 5 8
      vertex -21.5637 5 8.75302
    endloop
  endfacet
  facet normal 0.433884 -2.26623e-16 0.900969
    outer loop
      vertex -21.5637 1.59728e-15 8.75302
      vertex -20 1.66874e-15 8
      vertex -21.5637 5 8.75302
    endloop
  endfacet
  facet normal -6.12323e-17 -1 -2.22045e-16
    outer loop
      vertex -20.8678 5 11.8019
      vertex -21.9499 5 10.445
      vertex -21.8483 5 10
    endloop
  endfacet
  facet normal -6.12323e-17 -1 -2.22045e-16
    outer loop
      vertex -18.0501 5 10.445
      vertex -20.8678 5 11.8019
      vertex -18.1517 5 10
    endloop
  endfacet
  facet normal -6.12323e-17 -1 -2.22045e-16
    outer loop
      vertex -18.1517 5 10
      vertex -20.8678 5 11.8019
      vertex -21.8483 5 10
    endloop
  endfacet
  facet normal -6.12323e-17 -1 -2.22045e-16
    outer loop
      vertex -19.1322 5 11.8019
      vertex -20.8678 5 11.8019
      vertex -18.0501 5 10.445
    endloop
  endfacet
endsolid OpenSCAD_Model
