solid OpenSCAD_Model
  facet normal -1 0 0
    outer loop
      vertex 0 30 0
      vertex 0 0 0
      vertex 0 30 5.28981
    endloop
  endfacet
  facet normal 0 -0.173648 0.984808
    outer loop
      vertex 9 0 0
      vertex 9 30 5.28981
      vertex 0 30 5.28981
    endloop
  endfacet
  facet normal 0 -0.173648 0.984808
    outer loop
      vertex 0 0 0
      vertex 9 0 0
      vertex 0 30 5.28981
    endloop
  endfacet
  facet normal 0 0 -1
    outer loop
      vertex 0 0 0
      vertex 0 30 0
      vertex 9 0 0
    endloop
  endfacet
  facet normal 0 0 -1
    outer loop
      vertex 9 0 0
      vertex 0 30 0
      vertex 9 30 0
    endloop
  endfacet
  facet normal 0 1 0
    outer loop
      vertex 0 30 0
      vertex 0 30 5.28981
      vertex 9 30 0
    endloop
  endfacet
  facet normal 0 1 0
    outer loop
      vertex 9 30 0
      vertex 0 30 5.28981
      vertex 9 30 5.28981
    endloop
  endfacet
  facet normal 1 0 0
    outer loop
      vertex 9 30 5.28981
      vertex 9 0 0
      vertex 9 30 0
    endloop
  endfacet
endsolid OpenSCAD_Model
