solid OpenSCAD_Model
  facet normal -1 0 0
    outer loop
      vertex 0 2 0
      vertex 0 33 10
      vertex 0 33 0
    endloop
  endfacet
  facet normal -1 -0 0
    outer loop
      vertex 0 33 10
      vertex 0 2 0
      vertex 0 2 10
    endloop
  endfacet
  facet normal 0 0 1
    outer loop
      vertex -10 12 10
      vertex -12 12 10
      vertex -10 2 10
    endloop
  endfacet
  facet normal 0 0 1
    outer loop
      vertex 33 33 10
      vertex 31 31 10
      vertex 33 0 10
    endloop
  endfacet
  facet normal 0 0 1
    outer loop
      vertex 33 33 10
      vertex 2 31 10
      vertex 31 31 10
    endloop
  endfacet
  facet normal -0 0 1
    outer loop
      vertex 0 33 10
      vertex 2 31 10
      vertex 33 33 10
    endloop
  endfacet
  facet normal 0 0 1
    outer loop
      vertex 0 2 10
      vertex 2 31 10
      vertex 0 33 10
    endloop
  endfacet
  facet normal 0 0 1
    outer loop
      vertex 2 31 10
      vertex 0 2 10
      vertex 2 0 10
    endloop
  endfacet
  facet normal -0 0 1
    outer loop
      vertex -10 2 10
      vertex 2 0 10
      vertex 0 2 10
    endloop
  endfacet
  facet normal 0 0 1
    outer loop
      vertex -10 2 10
      vertex -12 0 10
      vertex 2 0 10
    endloop
  endfacet
  facet normal 0 0 1
    outer loop
      vertex -12 0 10
      vertex -10 2 10
      vertex -12 12 10
    endloop
  endfacet
  facet normal -0 0 1
    outer loop
      vertex 31 2 10
      vertex 33 0 10
      vertex 31 31 10
    endloop
  endfacet
  facet normal 0 0 1
    outer loop
      vertex 29 0 10
      vertex 31 2 10
      vertex 29 2 10
    endloop
  endfacet
  facet normal 0 0 1
    outer loop
      vertex 31 2 10
      vertex 29 0 10
      vertex 33 0 10
    endloop
  endfacet
  facet normal 1 -0 0
    outer loop
      vertex 33 0 10
      vertex 33 33 0
      vertex 33 33 10
    endloop
  endfacet
  facet normal 1 0 0
    outer loop
      vertex 33 33 0
      vertex 33 0 10
      vertex 33 0 0
    endloop
  endfacet
  facet normal 0 1 -0
    outer loop
      vertex 33 33 0
      vertex 0 33 10
      vertex 33 33 10
    endloop
  endfacet
  facet normal 0 1 0
    outer loop
      vertex 0 33 10
      vertex 33 33 0
      vertex 0 33 0
    endloop
  endfacet
  facet normal 0 0 -1
    outer loop
      vertex 2 0 0
      vertex 0 2 0
      vertex 2 31 0
    endloop
  endfacet
  facet normal 0 0 -1
    outer loop
      vertex 2 0 0
      vertex -10 2 0
      vertex 0 2 0
    endloop
  endfacet
  facet normal 0 0 -1
    outer loop
      vertex -12 0 0
      vertex -10 2 0
      vertex 2 0 0
    endloop
  endfacet
  facet normal 0 0 -1
    outer loop
      vertex -12 12 0
      vertex -10 2 0
      vertex -12 0 0
    endloop
  endfacet
  facet normal 0 0 -1
    outer loop
      vertex -10 2 0
      vertex -12 12 0
      vertex -10 12 0
    endloop
  endfacet
  facet normal 0 0 -1
    outer loop
      vertex 33 0 0
      vertex 31 2 0
      vertex 33 33 0
    endloop
  endfacet
  facet normal 0 0 -1
    outer loop
      vertex 29 0 0
      vertex 31 2 0
      vertex 33 0 0
    endloop
  endfacet
  facet normal -0 0 -1
    outer loop
      vertex 31 2 0
      vertex 29 0 0
      vertex 29 2 0
    endloop
  endfacet
  facet normal 0 0 -1
    outer loop
      vertex 31 31 0
      vertex 33 33 0
      vertex 31 2 0
    endloop
  endfacet
  facet normal 0 0 -1
    outer loop
      vertex 2 31 0
      vertex 33 33 0
      vertex 31 31 0
    endloop
  endfacet
  facet normal 0 0 -1
    outer loop
      vertex 2 31 0
      vertex 0 33 0
      vertex 33 33 0
    endloop
  endfacet
  facet normal 0 0 -1
    outer loop
      vertex 0 33 0
      vertex 2 31 0
      vertex 0 2 0
    endloop
  endfacet
  facet normal 0 -1 0
    outer loop
      vertex -12 0 0
      vertex 2 0 10
      vertex -12 0 10
    endloop
  endfacet
  facet normal 0 -1 -0
    outer loop
      vertex 2 0 10
      vertex -12 0 0
      vertex 2 0 0
    endloop
  endfacet
  facet normal 0 -1 0
    outer loop
      vertex 29 0 0
      vertex 33 0 10
      vertex 29 0 10
    endloop
  endfacet
  facet normal 0 -1 -0
    outer loop
      vertex 33 0 10
      vertex 29 0 0
      vertex 33 0 0
    endloop
  endfacet
  facet normal 1 -0 0
    outer loop
      vertex 2 0 10
      vertex 2 31 0
      vertex 2 31 10
    endloop
  endfacet
  facet normal 1 0 0
    outer loop
      vertex 2 31 0
      vertex 2 0 10
      vertex 2 0 0
    endloop
  endfacet
  facet normal -1 0 0
    outer loop
      vertex 31 2 0
      vertex 31 31 10
      vertex 31 31 0
    endloop
  endfacet
  facet normal -1 -0 0
    outer loop
      vertex 31 31 10
      vertex 31 2 0
      vertex 31 2 10
    endloop
  endfacet
  facet normal 0 1 -0
    outer loop
      vertex 31 2 0
      vertex 29 2 10
      vertex 31 2 10
    endloop
  endfacet
  facet normal 0 1 0
    outer loop
      vertex 29 2 10
      vertex 31 2 0
      vertex 29 2 0
    endloop
  endfacet
  facet normal 0 -1 0
    outer loop
      vertex 2 31 0
      vertex 31 31 10
      vertex 2 31 10
    endloop
  endfacet
  facet normal 0 -1 -0
    outer loop
      vertex 31 31 10
      vertex 2 31 0
      vertex 31 31 0
    endloop
  endfacet
  facet normal -1 0 0
    outer loop
      vertex 29 0 0
      vertex 29 2 10
      vertex 29 2 0
    endloop
  endfacet
  facet normal -1 -0 0
    outer loop
      vertex 29 2 10
      vertex 29 0 0
      vertex 29 0 10
    endloop
  endfacet
  facet normal -1 0 0
    outer loop
      vertex -12 0 0
      vertex -12 12 10
      vertex -12 12 0
    endloop
  endfacet
  facet normal -1 -0 0
    outer loop
      vertex -12 12 10
      vertex -12 0 0
      vertex -12 0 10
    endloop
  endfacet
  facet normal 0 1 -0
    outer loop
      vertex 0 2 0
      vertex -10 2 10
      vertex 0 2 10
    endloop
  endfacet
  facet normal 0 1 0
    outer loop
      vertex -10 2 10
      vertex 0 2 0
      vertex -10 2 0
    endloop
  endfacet
  facet normal 1 -0 0
    outer loop
      vertex -10 2 10
      vertex -10 12 0
      vertex -10 12 10
    endloop
  endfacet
  facet normal 1 0 0
    outer loop
      vertex -10 12 0
      vertex -10 2 10
      vertex -10 2 0
    endloop
  endfacet
  facet normal 0 1 -0
    outer loop
      vertex -10 12 0
      vertex -12 12 10
      vertex -10 12 10
    endloop
  endfacet
  facet normal 0 1 0
    outer loop
      vertex -12 12 10
      vertex -10 12 0
      vertex -12 12 0
    endloop
  endfacet
endsolid OpenSCAD_Model
