solid OpenSCAD_Model
  facet normal -1 0 0
    outer loop
      vertex 0 -30 6.66134e-15
      vertex 0 6.66134e-15 30
      vertex 0 0 0
    endloop
  endfacet
  facet normal -1 -0 0
    outer loop
      vertex 0 6.66134e-15 30
      vertex 0 -30 6.66134e-15
      vertex 0 -30 30
    endloop
  endfacet
  facet normal 0 -1 0
    outer loop
      vertex 0 -30 6.66134e-15
      vertex 2 -30 30
      vertex 0 -30 30
    endloop
  endfacet
  facet normal 0 -1 -0
    outer loop
      vertex 2 -30 30
      vertex 0 -30 6.66134e-15
      vertex 2 -30 6.66134e-15
    endloop
  endfacet
  facet normal 0 -1 0
    outer loop
      vertex 9 -30 6.66134e-15
      vertex 18 -30 30
      vertex 9 -30 30
    endloop
  endfacet
  facet normal 0 -1 -0
    outer loop
      vertex 18 -30 30
      vertex 9 -30 6.66134e-15
      vertex 18 -30 6.66134e-15
    endloop
  endfacet
  facet normal 1 -0 0
    outer loop
      vertex 18 -30 30
      vertex 18 0 0
      vertex 18 6.66134e-15 30
    endloop
  endfacet
  facet normal 1 0 0
    outer loop
      vertex 18 0 0
      vertex 18 -30 30
      vertex 18 -30 6.66134e-15
    endloop
  endfacet
  facet normal 0 1 -2.22045e-16
    outer loop
      vertex 2 0 0
      vertex 0 6.66134e-15 30
      vertex 2 6.66134e-15 30
    endloop
  endfacet
  facet normal 0 1 -2.22045e-16
    outer loop
      vertex 0 6.66134e-15 30
      vertex 2 0 0
      vertex 0 0 0
    endloop
  endfacet
  facet normal 0 1 -2.22045e-16
    outer loop
      vertex 18 0 0
      vertex 16 6.66134e-15 30
      vertex 18 6.66134e-15 30
    endloop
  endfacet
  facet normal 0 1 -2.22045e-16
    outer loop
      vertex 16 6.66134e-15 30
      vertex 18 0 0
      vertex 16 0 0
    endloop
  endfacet
  facet normal 0 -2.22045e-16 -1
    outer loop
      vertex 0 -30 6.66134e-15
      vertex 2 -16 3.55271e-15
      vertex 2 -30 6.66134e-15
    endloop
  endfacet
  facet normal 0 -2.22045e-16 -1
    outer loop
      vertex 2 -16 3.55271e-15
      vertex 0 -30 6.66134e-15
      vertex 2 -14 3.10862e-15
    endloop
  endfacet
  facet normal 0 -2.22045e-16 -1
    outer loop
      vertex 0 0 0
      vertex 2 -14 3.10862e-15
      vertex 0 -30 6.66134e-15
    endloop
  endfacet
  facet normal 0 -2.22045e-16 -1
    outer loop
      vertex 2 -14 3.10862e-15
      vertex 0 0 0
      vertex 2 0 0
    endloop
  endfacet
  facet normal 0 -2.22045e-16 -1
    outer loop
      vertex 18 -30 6.66134e-15
      vertex 16 -14 3.10862e-15
      vertex 18 0 0
    endloop
  endfacet
  facet normal 0 -2.22045e-16 -1
    outer loop
      vertex 9 -16 3.55271e-15
      vertex 18 -30 6.66134e-15
      vertex 9 -30 6.66134e-15
    endloop
  endfacet
  facet normal 0 -2.22045e-16 -1
    outer loop
      vertex 18 -30 6.66134e-15
      vertex 9 -16 3.55271e-15
      vertex 16 -14 3.10862e-15
    endloop
  endfacet
  facet normal 0 -2.22045e-16 -1
    outer loop
      vertex 2 -14 3.10862e-15
      vertex 9 -16 3.55271e-15
      vertex 2 -16 3.55271e-15
    endloop
  endfacet
  facet normal 0 -2.22045e-16 -1
    outer loop
      vertex 9 -16 3.55271e-15
      vertex 2 -14 3.10862e-15
      vertex 16 -14 3.10862e-15
    endloop
  endfacet
  facet normal -0 -2.22045e-16 -1
    outer loop
      vertex 18 0 0
      vertex 16 -14 3.10862e-15
      vertex 16 0 0
    endloop
  endfacet
  facet normal -0 0 1
    outer loop
      vertex 0 6.66134e-15 30
      vertex 2 -14 30
      vertex 2 6.66134e-15 30
    endloop
  endfacet
  facet normal 0 0 1
    outer loop
      vertex 2 -14 30
      vertex 0 6.66134e-15 30
      vertex 2 -16 30
    endloop
  endfacet
  facet normal 0 0 1
    outer loop
      vertex 0 -30 30
      vertex 2 -16 30
      vertex 0 6.66134e-15 30
    endloop
  endfacet
  facet normal 0 0 1
    outer loop
      vertex 2 -16 30
      vertex 0 -30 30
      vertex 2 -30 30
    endloop
  endfacet
  facet normal -0 0 1
    outer loop
      vertex 2 -14 30
      vertex 9 -16 30
      vertex 16 -14 30
    endloop
  endfacet
  facet normal 0 0 1
    outer loop
      vertex 9 -16 30
      vertex 2 -14 30
      vertex 2 -16 30
    endloop
  endfacet
  facet normal 0 0 1
    outer loop
      vertex 16 -14 30
      vertex 18 6.66134e-15 30
      vertex 16 6.66134e-15 30
    endloop
  endfacet
  facet normal 0 0 1
    outer loop
      vertex 18 6.66134e-15 30
      vertex 16 -14 30
      vertex 18 -30 30
    endloop
  endfacet
  facet normal -0 0 1
    outer loop
      vertex 9 -16 30
      vertex 18 -30 30
      vertex 16 -14 30
    endloop
  endfacet
  facet normal 0 0 1
    outer loop
      vertex 18 -30 30
      vertex 9 -16 30
      vertex 9 -30 30
    endloop
  endfacet
  facet normal 1 -0 0
    outer loop
      vertex 2 -14 30
      vertex 2 0 0
      vertex 2 6.66134e-15 30
    endloop
  endfacet
  facet normal 1 0 0
    outer loop
      vertex 2 0 0
      vertex 2 -14 30
      vertex 2 -14 3.10862e-15
    endloop
  endfacet
  facet normal 0 1 -0
    outer loop
      vertex 16 -14 3.10862e-15
      vertex 2 -14 30
      vertex 16 -14 30
    endloop
  endfacet
  facet normal 0 1 0
    outer loop
      vertex 2 -14 30
      vertex 16 -14 3.10862e-15
      vertex 2 -14 3.10862e-15
    endloop
  endfacet
  facet normal -1 0 0
    outer loop
      vertex 16 -14 3.10862e-15
      vertex 16 6.66134e-15 30
      vertex 16 0 0
    endloop
  endfacet
  facet normal -1 -0 0
    outer loop
      vertex 16 6.66134e-15 30
      vertex 16 -14 3.10862e-15
      vertex 16 -14 30
    endloop
  endfacet
  facet normal 1 -0 0
    outer loop
      vertex 2 -30 30
      vertex 2 -16 3.55271e-15
      vertex 2 -16 30
    endloop
  endfacet
  facet normal 1 0 0
    outer loop
      vertex 2 -16 3.55271e-15
      vertex 2 -30 30
      vertex 2 -30 6.66134e-15
    endloop
  endfacet
  facet normal -1 0 0
    outer loop
      vertex 9 -30 6.66134e-15
      vertex 9 -16 30
      vertex 9 -16 3.55271e-15
    endloop
  endfacet
  facet normal -1 -0 0
    outer loop
      vertex 9 -16 30
      vertex 9 -30 6.66134e-15
      vertex 9 -30 30
    endloop
  endfacet
  facet normal 0 -1 0
    outer loop
      vertex 2 -16 3.55271e-15
      vertex 9 -16 30
      vertex 2 -16 30
    endloop
  endfacet
  facet normal 0 -1 -0
    outer loop
      vertex 9 -16 30
      vertex 2 -16 3.55271e-15
      vertex 9 -16 3.55271e-15
    endloop
  endfacet
endsolid OpenSCAD_Model
