solid OpenSCAD_Model
  facet normal 0 0 -1
    outer loop
      vertex 2 -63 0
      vertex 10 -63 0
      vertex 9.78148 -65.0791 0
    endloop
  endfacet
  facet normal 0 0 -1
    outer loop
      vertex 25.8715 -9.87531 0
      vertex 22.6852 -7.09563 0
      vertex 25.8715 -7.09563 0
    endloop
  endfacet
  facet normal 0 0 -1
    outer loop
      vertex 22.6852 -7.09563 0
      vertex 19.9556 -7.07962 0
      vertex 22.6852 -7.07962 0
    endloop
  endfacet
  facet normal 0 0 -1
    outer loop
      vertex 25.8715 -9.87531 0
      vertex 19.9556 -7.07962 0
      vertex 22.6852 -7.09563 0
    endloop
  endfacet
  facet normal 0 0 -1
    outer loop
      vertex 19.9556 -7.07962 0
      vertex 15.6303 -3.56149 0
      vertex 19.9556 -3.56149 0
    endloop
  endfacet
  facet normal 0 0 -1
    outer loop
      vertex 15.6303 -3.56149 0
      vertex 7.88142 1.73689 0
      vertex 15.6303 2.85983 0
    endloop
  endfacet
  facet normal 0 0 -1
    outer loop
      vertex -6.71147 -2.36673 0
      vertex 15.6303 -3.56149 0
      vertex 19.9556 -7.07962 0
    endloop
  endfacet
  facet normal 0 0 -1
    outer loop
      vertex 15.6303 -3.56149 0
      vertex 3.86203 1.77307 0
      vertex 7.88142 1.73689 0
    endloop
  endfacet
  facet normal 0 0 -1
    outer loop
      vertex -3.72768 5.55525 0
      vertex 3.86203 5.55525 0
      vertex 3.86203 1.77307 0
    endloop
  endfacet
  facet normal 0 -0 -1
    outer loop
      vertex -2.39029 9.12971 0
      vertex 3.86203 5.55525 0
      vertex -3.72768 5.55525 0
    endloop
  endfacet
  facet normal 0 0 -1
    outer loop
      vertex 3.86203 5.55525 0
      vertex 2.55669 9.14316 0
      vertex 3.80168 7.63789 0
    endloop
  endfacet
  facet normal 0 0 -1
    outer loop
      vertex 3.55287 8.50035 0
      vertex 2.55669 9.14316 0
      vertex 3.0042 9.0522 0
    endloop
  endfacet
  facet normal 0 0 -1
    outer loop
      vertex 3.80168 7.63789 0
      vertex 2.55669 9.14316 0
      vertex 3.55287 8.50035 0
    endloop
  endfacet
  facet normal -0 0 -1
    outer loop
      vertex 2.55669 9.14316 0
      vertex -2.39029 9.12971 0
      vertex 2.07689 10.5578 0
    endloop
  endfacet
  facet normal 0 0 -1
    outer loop
      vertex -0.632767 11.4629 0
      vertex 0.900452 13.5129 0
      vertex 0.900452 11.4283 0
    endloop
  endfacet
  facet normal 0 0 -1
    outer loop
      vertex 0.900452 13.5129 0
      vertex -0.632767 13.5129 0
      vertex 0.64296 14.0033 0
    endloop
  endfacet
  facet normal 0 -0 -1
    outer loop
      vertex -0.375397 14.0033 0
      vertex 0.64296 14.0033 0
      vertex -0.632767 13.5129 0
    endloop
  endfacet
  facet normal -0 0 -1
    outer loop
      vertex 2.07689 10.5578 0
      vertex -2.39029 9.12971 0
      vertex 0.900452 11.4283 0
    endloop
  endfacet
  facet normal -0 0 -1
    outer loop
      vertex 0.900452 13.5129 0
      vertex -0.632767 11.4629 0
      vertex -0.632767 13.5129 0
    endloop
  endfacet
  facet normal -0 0 -1
    outer loop
      vertex 0.900452 11.4283 0
      vertex -2.39029 9.12971 0
      vertex -0.632767 11.4629 0
    endloop
  endfacet
  facet normal 0 0 -1
    outer loop
      vertex -0.632767 11.4629 0
      vertex -2.39029 9.12971 0
      vertex -1.88313 10.5957 0
    endloop
  endfacet
  facet normal 0 0 -1
    outer loop
      vertex 3.86203 5.55525 0
      vertex -2.39029 9.12971 0
      vertex 2.55669 9.14316 0
    endloop
  endfacet
  facet normal 0 -0 -1
    outer loop
      vertex -3.59563 7.62123 0
      vertex -2.39029 9.12971 0
      vertex -3.72768 5.55525 0
    endloop
  endfacet
  facet normal 0 0 -1
    outer loop
      vertex -2.39029 9.12971 0
      vertex -3.30037 8.4816 0
      vertex -2.73651 9.0522 0
    endloop
  endfacet
  facet normal 0 0 -1
    outer loop
      vertex -3.72768 5.55525 0
      vertex 3.86203 1.77307 0
      vertex -3.72768 1.80821 0
    endloop
  endfacet
  facet normal 0 0 -1
    outer loop
      vertex 15.6303 -3.56149 0
      vertex -6.71147 -2.36673 0
      vertex 3.86203 1.77307 0
    endloop
  endfacet
  facet normal 0 0 -1
    outer loop
      vertex -20.9597 -9.87531 0
      vertex 19.9556 -7.07962 0
      vertex 25.8715 -9.87531 0
    endloop
  endfacet
  facet normal -0 0 -1
    outer loop
      vertex 3.86203 1.77307 0
      vertex -6.71147 -2.36673 0
      vertex -3.72768 1.80821 0
    endloop
  endfacet
  facet normal 0 0 -1
    outer loop
      vertex -6.71147 -0.72496 0
      vertex -3.72768 1.80821 0
      vertex -6.71147 -2.36673 0
    endloop
  endfacet
  facet normal -0 0 -1
    outer loop
      vertex -3.72768 1.80821 0
      vertex -6.71147 -0.72496 0
      vertex -4.82373 1.80821 0
    endloop
  endfacet
  facet normal 0 -0 -1
    outer loop
      vertex -6.27957 1.06351 0
      vertex -4.82373 1.80821 0
      vertex -6.71147 -0.72496 0
    endloop
  endfacet
  facet normal -0 0 -1
    outer loop
      vertex 19.9556 -7.07962 0
      vertex -20.9597 -9.87531 0
      vertex -6.71147 -2.36673 0
    endloop
  endfacet
  facet normal 0 0 -1
    outer loop
      vertex -14.8671 3.25516 0
      vertex -9.38727 -2.36673 0
      vertex -14.8671 -2.76619 0
    endloop
  endfacet
  facet normal -0 0 -1
    outer loop
      vertex -6.71147 -2.36673 0
      vertex -20.9597 -9.87531 0
      vertex -9.38727 -2.36673 0
    endloop
  endfacet
  facet normal 0 -0 -1
    outer loop
      vertex -19.5029 -7.07962 0
      vertex -9.38727 -2.36673 0
      vertex -20.9597 -9.87531 0
    endloop
  endfacet
  facet normal 0 0 -1
    outer loop
      vertex -9.38727 -2.36673 0
      vertex -19.5029 -7.07962 0
      vertex -14.8671 -2.76619 0
    endloop
  endfacet
  facet normal 0 0 -1
    outer loop
      vertex -25.2793 -7.07962 0
      vertex -20.9597 -9.87531 0
      vertex -25.2793 -9.90631 0
    endloop
  endfacet
  facet normal 0 0 -1
    outer loop
      vertex -20.9597 -9.87531 0
      vertex -25.2793 -7.07962 0
      vertex -19.5029 -7.07962 0
    endloop
  endfacet
  facet normal 0 0 -1
    outer loop
      vertex 25.8715 -6.45329 0
      vertex 45 0 0
      vertex 44.0166 -9.35603 0
    endloop
  endfacet
  facet normal 0 0 -1
    outer loop
      vertex 29.0766 -13.1314 0
      vertex 44.0166 -9.35603 0
      vertex 41.1095 -18.3031 0
    endloop
  endfacet
  facet normal 0 0 -1
    outer loop
      vertex 25.8715 -6.45329 0
      vertex 44.0166 -9.35603 0
      vertex 28.3539 -11.8013 0
    endloop
  endfacet
  facet normal 0 0 -1
    outer loop
      vertex 29.337 -14.6812 0
      vertex 41.1095 -18.3031 0
      vertex 36.4058 -26.4503 0
    endloop
  endfacet
  facet normal 0 0 -1
    outer loop
      vertex 44.0166 -9.35603 0
      vertex 29.0766 -13.1314 0
      vertex 28.3539 -11.8013 0
    endloop
  endfacet
  facet normal 0 0 -1
    outer loop
      vertex 29.337 -14.6812 0
      vertex 36.4058 -26.4503 0
      vertex 30.1109 -33.4415 0
    endloop
  endfacet
  facet normal 0 0 -1
    outer loop
      vertex 41.1095 -18.3031 0
      vertex 29.337 -14.6812 0
      vertex 29.0766 -13.1314 0
    endloop
  endfacet
  facet normal 0 0 -1
    outer loop
      vertex 45 0 0
      vertex 25.8715 -6.45329 0
      vertex 25.5794 -5.77946 0
    endloop
  endfacet
  facet normal 0 0 -1
    outer loop
      vertex 22.5 -38.9711 0
      vertex 29.337 -14.6812 0
      vertex 30.1109 -33.4415 0
    endloop
  endfacet
  facet normal 0 0 -1
    outer loop
      vertex 13.9058 -42.7975 0
      vertex 29.337 -14.6812 0
      vertex 22.5 -38.9711 0
    endloop
  endfacet
  facet normal 0 0 -1
    outer loop
      vertex 10 -43.6277 0
      vertex 29.337 -14.6812 0
      vertex 13.9058 -42.7975 0
    endloop
  endfacet
  facet normal 0 0 -1
    outer loop
      vertex 2 -63 0
      vertex 9.78148 -65.0791 0
      vertex 9.13545 -67.0674 0
    endloop
  endfacet
  facet normal 0 0 -1
    outer loop
      vertex 1.24698 -64.5637 0
      vertex 9.13545 -67.0674 0
      vertex 8.09017 -68.8779 0
    endloop
  endfacet
  facet normal 0 0 -1
    outer loop
      vertex 1.24698 -64.5637 0
      vertex 8.09017 -68.8779 0
      vertex 6.69131 -70.4314 0
    endloop
  endfacet
  facet normal 0 0 -1
    outer loop
      vertex 1.24698 -64.5637 0
      vertex 6.69131 -70.4314 0
      vertex 5 -71.6603 0
    endloop
  endfacet
  facet normal 0 0 -1
    outer loop
      vertex 1.24698 -64.5637 0
      vertex 5 -71.6603 0
      vertex 3.09017 -72.5106 0
    endloop
  endfacet
  facet normal 0 0 -1
    outer loop
      vertex 10 -63 0
      vertex 2 -63 0
      vertex 1.24698 -61.4363 0
    endloop
  endfacet
  facet normal 0 0 -1
    outer loop
      vertex 10 -63 0
      vertex 1.24698 -61.4363 0
      vertex 10 -43.6277 0
    endloop
  endfacet
  facet normal 0 0 -1
    outer loop
      vertex -0.445042 -61.0501 0
      vertex 10 -43.6277 0
      vertex 1.24698 -61.4363 0
    endloop
  endfacet
  facet normal 0 0 -1
    outer loop
      vertex -10 -63 0
      vertex -0.445042 -61.0501 0
      vertex -1.80194 -62.1322 0
    endloop
  endfacet
  facet normal -0 0 -1
    outer loop
      vertex -0.445042 -64.9499 0
      vertex -6.69131 -70.4314 0
      vertex -1.80194 -63.8678 0
    endloop
  endfacet
  facet normal 0 0 -1
    outer loop
      vertex -8.09017 -68.8779 0
      vertex -1.80194 -63.8678 0
      vertex -6.69131 -70.4314 0
    endloop
  endfacet
  facet normal 0 0 -1
    outer loop
      vertex -9.13545 -67.0674 0
      vertex -1.80194 -63.8678 0
      vertex -8.09017 -68.8779 0
    endloop
  endfacet
  facet normal 0 0 -1
    outer loop
      vertex -9.78148 -65.0791 0
      vertex -1.80194 -63.8678 0
      vertex -9.13545 -67.0674 0
    endloop
  endfacet
  facet normal -0 0 -1
    outer loop
      vertex -0.445042 -61.0501 0
      vertex -10 -63 0
      vertex -10 -43.6277 0
    endloop
  endfacet
  facet normal 0 0 -1
    outer loop
      vertex -10 -63 0
      vertex -1.80194 -63.8678 0
      vertex -9.78148 -65.0791 0
    endloop
  endfacet
  facet normal 0 0 -1
    outer loop
      vertex -1.80194 -63.8678 0
      vertex -10 -63 0
      vertex -1.80194 -62.1322 0
    endloop
  endfacet
  facet normal 0 0 -1
    outer loop
      vertex -0.445042 -61.0501 0
      vertex -10 -43.6277 0
      vertex 10 -43.6277 0
    endloop
  endfacet
  facet normal 0 0 -1
    outer loop
      vertex 10 -43.6277 0
      vertex -10 -43.6277 0
      vertex 29.337 -14.6812 0
    endloop
  endfacet
  facet normal 0 0 -1
    outer loop
      vertex -29.337 -14.6812 0
      vertex -10 -43.6277 0
      vertex -13.9058 -42.7975 0
    endloop
  endfacet
  facet normal 0 0 -1
    outer loop
      vertex -29.337 -14.6812 0
      vertex -13.9058 -42.7975 0
      vertex -22.5 -38.9711 0
    endloop
  endfacet
  facet normal 0 0 -1
    outer loop
      vertex -10 -43.6277 0
      vertex -29.337 -14.6812 0
      vertex 29.337 -14.6812 0
    endloop
  endfacet
  facet normal 0 -0 -1
    outer loop
      vertex -29.337 -14.6812 0
      vertex -22.5 -38.9711 0
      vertex -30.1109 -33.4415 0
    endloop
  endfacet
  facet normal 0 0 -1
    outer loop
      vertex 22.0432 1.24019 0
      vertex 45 0 0
      vertex 25.5794 -5.77946 0
    endloop
  endfacet
  facet normal 0 0 -1
    outer loop
      vertex 45 0 0
      vertex 22.0432 1.24019 0
      vertex 44.0166 9.35603 0
    endloop
  endfacet
  facet normal 0 0 -1
    outer loop
      vertex 25.8715 -7.09563 0
      vertex 28.3539 -11.8013 0
      vertex 27.2564 -10.777 0
    endloop
  endfacet
  facet normal 0 0 -1
    outer loop
      vertex 25.8715 -9.87531 0
      vertex 27.2564 -10.777 0
      vertex 25.8715 -10.1445 0
    endloop
  endfacet
  facet normal 0 0 -1
    outer loop
      vertex 25.8715 -7.09563 0
      vertex 27.2564 -10.777 0
      vertex 25.8715 -9.87531 0
    endloop
  endfacet
  facet normal 0 0 -1
    outer loop
      vertex 28.3539 -11.8013 0
      vertex 25.8715 -7.09563 0
      vertex 25.8715 -6.45329 0
    endloop
  endfacet
  facet normal 0 0 -1
    outer loop
      vertex 20.8451 5.25287 0
      vertex 44.0166 9.35603 0
      vertex 22.0432 1.24019 0
    endloop
  endfacet
  facet normal -0 0 -1
    outer loop
      vertex 44.0166 9.35603 0
      vertex 20.8451 5.25287 0
      vertex 41.1095 18.3031 0
    endloop
  endfacet
  facet normal 0 0 -1
    outer loop
      vertex 22.0432 1.24019 0
      vertex 25.5794 -5.77946 0
      vertex 24.9036 -5.48901 0
    endloop
  endfacet
  facet normal 0 0 -1
    outer loop
      vertex 22.4604 -3.04575 0
      vertex 24.9036 -5.48901 0
      vertex 23.9474 -5.29874 0
    endloop
  endfacet
  facet normal 0 0 -1
    outer loop
      vertex 22.4604 -3.04575 0
      vertex 23.9474 -5.29874 0
      vertex 23.1714 -4.77802 0
    endloop
  endfacet
  facet normal 0 0 -1
    outer loop
      vertex 22.4604 -3.04575 0
      vertex 23.1714 -4.77802 0
      vertex 22.6507 -4.00198 0
    endloop
  endfacet
  facet normal 0 0 -1
    outer loop
      vertex 18.946 8.91106 0
      vertex 41.1095 18.3031 0
      vertex 20.8451 5.25287 0
    endloop
  endfacet
  facet normal 0 0 -1
    outer loop
      vertex 24.9036 -5.48901 0
      vertex 22.4604 -3.04575 0
      vertex 22.0432 1.24019 0
    endloop
  endfacet
  facet normal -0 0 -1
    outer loop
      vertex 41.1095 18.3031 0
      vertex 18.946 8.91106 0
      vertex 36.4058 26.4503 0
    endloop
  endfacet
  facet normal 0 0 -1
    outer loop
      vertex 16.4256 12.1335 0
      vertex 36.4058 26.4503 0
      vertex 18.946 8.91106 0
    endloop
  endfacet
  facet normal -0 0 -1
    outer loop
      vertex 36.4058 26.4503 0
      vertex 16.4256 12.1335 0
      vertex 30.1109 33.4415 0
    endloop
  endfacet
  facet normal 0 0 -1
    outer loop
      vertex 13.3641 14.8388 0
      vertex 30.1109 33.4415 0
      vertex 16.4256 12.1335 0
    endloop
  endfacet
  facet normal -0 0 -1
    outer loop
      vertex 30.1109 33.4415 0
      vertex 13.3641 14.8388 0
      vertex 22.5 38.9711 0
    endloop
  endfacet
  facet normal 0 0 -1
    outer loop
      vertex 9.84128 16.9458 0
      vertex 22.5 38.9711 0
      vertex 13.3641 14.8388 0
    endloop
  endfacet
  facet normal 0 0 -1
    outer loop
      vertex 4.66353 24.6812 0
      vertex 22.5 38.9711 0
      vertex 9.84128 16.9458 0
    endloop
  endfacet
  facet normal 0 0 -1
    outer loop
      vertex 4.66353 21.5729 0
      vertex 9.84128 16.9458 0
      vertex 5.93707 18.3732 0
    endloop
  endfacet
  facet normal -0 0 -1
    outer loop
      vertex 22.5 38.9711 0
      vertex 4.66353 24.6812 0
      vertex 13.9058 42.7975 0
    endloop
  endfacet
  facet normal 0 0 -1
    outer loop
      vertex 9.84128 16.9458 0
      vertex 4.66353 21.5729 0
      vertex 4.66353 24.6812 0
    endloop
  endfacet
  facet normal 0 0 -1
    outer loop
      vertex 1.73141 19.0397 0
      vertex 4.66353 21.5729 0
      vertex 5.93707 18.3732 0
    endloop
  endfacet
  facet normal -0 0 -1
    outer loop
      vertex 4.66353 21.5729 0
      vertex 1.73141 19.0397 0
      vertex 1.73141 21.5729 0
    endloop
  endfacet
  facet normal 0 0 -1
    outer loop
      vertex -20.9597 -9.90631 0
      vertex -25.2793 -9.90631 0
      vertex -20.9597 -9.87531 0
    endloop
  endfacet
  facet normal 0 0 -1
    outer loop
      vertex -1.14023 19.0335 0
      vertex -4.01035 21.5729 0
      vertex -1.14023 21.5729 0
    endloop
  endfacet
  facet normal 0 0 -1
    outer loop
      vertex -9.27403 16.9125 0
      vertex -4.01035 24.6812 0
      vertex -4.01035 21.5729 0
    endloop
  endfacet
  facet normal 0 0 -1
    outer loop
      vertex -5.36224 18.3502 0
      vertex -4.01035 21.5729 0
      vertex -1.14023 19.0335 0
    endloop
  endfacet
  facet normal 0 0 -1
    outer loop
      vertex -9.27403 16.9125 0
      vertex -4.01035 21.5729 0
      vertex -5.36224 18.3502 0
    endloop
  endfacet
  facet normal -0 0 -1
    outer loop
      vertex -4.01035 24.6812 0
      vertex -9.27403 16.9125 0
      vertex -22.5 38.9711 0
    endloop
  endfacet
  facet normal 0 0 -1
    outer loop
      vertex -22.5 38.9711 0
      vertex -9.27403 16.9125 0
      vertex -12.7977 14.801 0
    endloop
  endfacet
  facet normal 0 0 -1
    outer loop
      vertex -4.01035 24.6812 0
      vertex -13.9058 42.7975 0
      vertex -4.70378 44.7535 0
    endloop
  endfacet
  facet normal 0 0 -1
    outer loop
      vertex -30.1109 33.4415 0
      vertex -12.7977 14.801 0
      vertex -15.8554 12.0962 0
    endloop
  endfacet
  facet normal 0 0 -1
    outer loop
      vertex -36.4058 26.4503 0
      vertex -15.8554 12.0962 0
      vertex -18.3691 8.87856 0
    endloop
  endfacet
  facet normal 0 0 -1
    outer loop
      vertex -41.1095 18.3031 0
      vertex -18.3691 8.87856 0
      vertex -20.2611 5.22867 0
    endloop
  endfacet
  facet normal 0 0 -1
    outer loop
      vertex -44.0166 9.35603 0
      vertex -20.2611 5.22867 0
      vertex -21.4534 1.22708 0
    endloop
  endfacet
  facet normal 0 0 -1
    outer loop
      vertex -24.312 -5.48901 0
      vertex -21.8682 -3.04576 0
      vertex -22.0585 -4.002 0
    endloop
  endfacet
  facet normal 0 0 -1
    outer loop
      vertex -4.01035 24.6812 0
      vertex -22.5 38.9711 0
      vertex -13.9058 42.7975 0
    endloop
  endfacet
  facet normal -0 0 -1
    outer loop
      vertex -21.8682 -3.04576 0
      vertex -24.312 -5.48901 0
      vertex -21.4534 1.22708 0
    endloop
  endfacet
  facet normal 0 0 -1
    outer loop
      vertex -24.312 -5.48901 0
      vertex -22.0585 -4.002 0
      vertex -22.5794 -4.77803 0
    endloop
  endfacet
  facet normal 0 0 -1
    outer loop
      vertex -24.312 -5.48901 0
      vertex -22.5794 -4.77803 0
      vertex -23.3556 -5.29875 0
    endloop
  endfacet
  facet normal 0 0 -1
    outer loop
      vertex -21.4534 1.22708 0
      vertex -24.312 -5.48901 0
      vertex -24.9875 -5.77946 0
    endloop
  endfacet
  facet normal 0 0 -1
    outer loop
      vertex -45 0 0
      vertex -21.4534 1.22708 0
      vertex -24.9875 -5.77946 0
    endloop
  endfacet
  facet normal 0 0 -1
    outer loop
      vertex -45 0 0
      vertex -24.9875 -5.77946 0
      vertex -25.2793 -6.45329 0
    endloop
  endfacet
  facet normal 0 0 -1
    outer loop
      vertex -28.1649 -11.5779 0
      vertex -25.2793 -6.45329 0
      vertex -26.8772 -10.5504 0
    endloop
  endfacet
  facet normal 0 0 -1
    outer loop
      vertex -44.0166 -9.35603 0
      vertex -25.2793 -6.45329 0
      vertex -28.1649 -11.5779 0
    endloop
  endfacet
  facet normal 0 0 -1
    outer loop
      vertex -44.0166 -9.35603 0
      vertex -28.1649 -11.5779 0
      vertex -29.0242 -12.9927 0
    endloop
  endfacet
  facet normal 0 0 -1
    outer loop
      vertex -41.1095 -18.3031 0
      vertex -29.0242 -12.9927 0
      vertex -29.337 -14.6812 0
    endloop
  endfacet
  facet normal 0 0 -1
    outer loop
      vertex -12.7977 14.801 0
      vertex -30.1109 33.4415 0
      vertex -22.5 38.9711 0
    endloop
  endfacet
  facet normal 0 0 -1
    outer loop
      vertex -36.4058 -26.4503 0
      vertex -29.337 -14.6812 0
      vertex -30.1109 -33.4415 0
    endloop
  endfacet
  facet normal 0 0 -1
    outer loop
      vertex -41.1095 -18.3031 0
      vertex -29.337 -14.6812 0
      vertex -36.4058 -26.4503 0
    endloop
  endfacet
  facet normal 0 0 -1
    outer loop
      vertex -15.8554 12.0962 0
      vertex -36.4058 26.4503 0
      vertex -30.1109 33.4415 0
    endloop
  endfacet
  facet normal -0 0 -1
    outer loop
      vertex -29.0242 -12.9927 0
      vertex -41.1095 -18.3031 0
      vertex -44.0166 -9.35603 0
    endloop
  endfacet
  facet normal 0 0 -1
    outer loop
      vertex -18.3691 8.87856 0
      vertex -41.1095 18.3031 0
      vertex -36.4058 26.4503 0
    endloop
  endfacet
  facet normal -0 0 -1
    outer loop
      vertex -25.2793 -6.45329 0
      vertex -44.0166 -9.35603 0
      vertex -45 0 0
    endloop
  endfacet
  facet normal 0 0 -1
    outer loop
      vertex -20.2611 5.22867 0
      vertex -44.0166 9.35603 0
      vertex -41.1095 18.3031 0
    endloop
  endfacet
  facet normal -0 0 -1
    outer loop
      vertex -21.4534 1.22708 0
      vertex -45 0 0
      vertex -44.0166 9.35603 0
    endloop
  endfacet
  facet normal 0 -0 -1
    outer loop
      vertex -3.30037 8.4816 0
      vertex -2.39029 9.12971 0
      vertex -3.59563 7.62123 0
    endloop
  endfacet
  facet normal 0 0 -1
    outer loop
      vertex -4.82373 1.80821 0
      vertex -6.27957 1.06351 0
      vertex -5.69466 1.60811 0
    endloop
  endfacet
  facet normal 0 0 -1
    outer loop
      vertex -9.38727 -2.36673 0
      vertex -14.8671 3.25516 0
      vertex -9.38727 6.12628 0
    endloop
  endfacet
  facet normal -0 0 -1
    outer loop
      vertex -14.8671 -2.76619 0
      vertex -19.5029 -7.07962 0
      vertex -19.5029 -2.76619 0
    endloop
  endfacet
  facet normal 0 0 -1
    outer loop
      vertex -26.8772 -10.5504 0
      vertex -25.2793 -9.90631 0
      vertex -25.2793 -10.0241 0
    endloop
  endfacet
  facet normal -0 0 -1
    outer loop
      vertex -25.2793 -9.90631 0
      vertex -26.8772 -10.5504 0
      vertex -25.2793 -7.07962 0
    endloop
  endfacet
  facet normal -0 0 -1
    outer loop
      vertex -25.2793 -7.07962 0
      vertex -26.8772 -10.5504 0
      vertex -25.2793 -6.45329 0
    endloop
  endfacet
  facet normal 0 0 -1
    outer loop
      vertex 9.13545 -67.0674 0
      vertex 1.24698 -64.5637 0
      vertex 2 -63 0
    endloop
  endfacet
  facet normal 0 0 -1
    outer loop
      vertex -0.445042 -64.9499 0
      vertex 3.09017 -72.5106 0
      vertex 1.04528 -72.9452 0
    endloop
  endfacet
  facet normal 0 0 -1
    outer loop
      vertex 3.09017 -72.5106 0
      vertex -0.445042 -64.9499 0
      vertex 1.24698 -64.5637 0
    endloop
  endfacet
  facet normal 0 0 -1
    outer loop
      vertex -1.04528 -72.9452 0
      vertex -0.445042 -64.9499 0
      vertex 1.04528 -72.9452 0
    endloop
  endfacet
  facet normal 0 0 -1
    outer loop
      vertex -3.09017 -72.5106 0
      vertex -0.445042 -64.9499 0
      vertex -1.04528 -72.9452 0
    endloop
  endfacet
  facet normal 0 0 -1
    outer loop
      vertex -6.69131 -70.4314 0
      vertex -0.445042 -64.9499 0
      vertex -5 -71.6603 0
    endloop
  endfacet
  facet normal 0 0 -1
    outer loop
      vertex -5 -71.6603 0
      vertex -0.445042 -64.9499 0
      vertex -3.09017 -72.5106 0
    endloop
  endfacet
  facet normal -0 0 -1
    outer loop
      vertex 15.6303 2.85983 0
      vertex 7.88142 1.73689 0
      vertex 7.88142 6.65854 0
    endloop
  endfacet
  facet normal -0 0 -1
    outer loop
      vertex 13.9058 42.7975 0
      vertex 4.66353 24.6812 0
      vertex 4.70378 44.7535 0
    endloop
  endfacet
  facet normal 0 0 -1
    outer loop
      vertex -4.01035 24.6812 0
      vertex 4.70378 44.7535 0
      vertex 4.66353 24.6812 0
    endloop
  endfacet
  facet normal -0 0 -1
    outer loop
      vertex 4.70378 44.7535 0
      vertex -4.01035 24.6812 0
      vertex -4.70378 44.7535 0
    endloop
  endfacet
  facet normal 0 0 -1
    outer loop
      vertex 0.64296 14.0033 0
      vertex -0.375397 14.0033 0
      vertex 0.133575 14.2529 0
    endloop
  endfacet
  facet normal 0 1 -0
    outer loop
      vertex 4.66353 21.5729 0
      vertex 1.73141 21.5729 1
      vertex 4.66353 21.5729 1
    endloop
  endfacet
  facet normal 0 1 0
    outer loop
      vertex 1.73141 21.5729 1
      vertex 4.66353 21.5729 0
      vertex 1.73141 21.5729 0
    endloop
  endfacet
  facet normal -1 0 0
    outer loop
      vertex 1.73141 19.0397 0
      vertex 1.73141 21.5729 1
      vertex 1.73141 21.5729 0
    endloop
  endfacet
  facet normal -1 -0 0
    outer loop
      vertex 1.73141 21.5729 1
      vertex 1.73141 19.0397 0
      vertex 1.73141 19.0397 1
    endloop
  endfacet
  facet normal -0.156525 -0.987674 0
    outer loop
      vertex 1.73141 19.0397 0
      vertex 5.93707 18.3732 1
      vertex 1.73141 19.0397 1
    endloop
  endfacet
  facet normal -0.156525 -0.987674 -0
    outer loop
      vertex 5.93707 18.3732 1
      vertex 1.73141 19.0397 0
      vertex 5.93707 18.3732 0
    endloop
  endfacet
  facet normal -0.343376 -0.939198 0
    outer loop
      vertex 5.93707 18.3732 0
      vertex 9.84128 16.9458 1
      vertex 5.93707 18.3732 1
    endloop
  endfacet
  facet normal -0.343376 -0.939198 -0
    outer loop
      vertex 9.84128 16.9458 1
      vertex 5.93707 18.3732 0
      vertex 9.84128 16.9458 0
    endloop
  endfacet
  facet normal -0.513293 -0.858213 0
    outer loop
      vertex 9.84128 16.9458 0
      vertex 13.3641 14.8388 1
      vertex 9.84128 16.9458 1
    endloop
  endfacet
  facet normal -0.513293 -0.858213 -0
    outer loop
      vertex 13.3641 14.8388 1
      vertex 9.84128 16.9458 0
      vertex 13.3641 14.8388 0
    endloop
  endfacet
  facet normal -0.662173 -0.749351 0
    outer loop
      vertex 13.3641 14.8388 0
      vertex 16.4256 12.1335 1
      vertex 13.3641 14.8388 1
    endloop
  endfacet
  facet normal -0.662173 -0.749351 -0
    outer loop
      vertex 16.4256 12.1335 1
      vertex 13.3641 14.8388 0
      vertex 16.4256 12.1335 0
    endloop
  endfacet
  facet normal -0.78769 -0.616071 0
    outer loop
      vertex 18.946 8.91106 0
      vertex 16.4256 12.1335 1
      vertex 16.4256 12.1335 0
    endloop
  endfacet
  facet normal -0.78769 -0.616071 0
    outer loop
      vertex 16.4256 12.1335 1
      vertex 18.946 8.91106 0
      vertex 18.946 8.91106 1
    endloop
  endfacet
  facet normal -0.887523 -0.460763 0
    outer loop
      vertex 20.8451 5.25287 0
      vertex 18.946 8.91106 1
      vertex 18.946 8.91106 0
    endloop
  endfacet
  facet normal -0.887523 -0.460763 0
    outer loop
      vertex 18.946 8.91106 1
      vertex 20.8451 5.25287 0
      vertex 20.8451 5.25287 1
    endloop
  endfacet
  facet normal -0.9582 -0.286099 0
    outer loop
      vertex 22.0432 1.24019 0
      vertex 20.8451 5.25287 1
      vertex 20.8451 5.25287 0
    endloop
  endfacet
  facet normal -0.9582 -0.286099 0
    outer loop
      vertex 20.8451 5.25287 1
      vertex 22.0432 1.24019 0
      vertex 22.0432 1.24019 1
    endloop
  endfacet
  facet normal -0.995297 -0.0968675 0
    outer loop
      vertex 22.4604 -3.04575 0
      vertex 22.0432 1.24019 1
      vertex 22.0432 1.24019 0
    endloop
  endfacet
  facet normal -0.995297 -0.0968675 0
    outer loop
      vertex 22.0432 1.24019 1
      vertex 22.4604 -3.04575 0
      vertex 22.4604 -3.04575 1
    endloop
  endfacet
  facet normal -0.980772 -0.195159 0
    outer loop
      vertex 22.6507 -4.00198 0
      vertex 22.4604 -3.04575 1
      vertex 22.4604 -3.04575 0
    endloop
  endfacet
  facet normal -0.980772 -0.195159 0
    outer loop
      vertex 22.4604 -3.04575 1
      vertex 22.6507 -4.00198 0
      vertex 22.6507 -4.00198 1
    endloop
  endfacet
  facet normal -0.830391 -0.557181 0
    outer loop
      vertex 23.1714 -4.77802 0
      vertex 22.6507 -4.00198 1
      vertex 22.6507 -4.00198 0
    endloop
  endfacet
  facet normal -0.830391 -0.557181 0
    outer loop
      vertex 22.6507 -4.00198 1
      vertex 23.1714 -4.77802 0
      vertex 23.1714 -4.77802 1
    endloop
  endfacet
  facet normal -0.557184 -0.830389 0
    outer loop
      vertex 23.1714 -4.77802 0
      vertex 23.9474 -5.29874 1
      vertex 23.1714 -4.77802 1
    endloop
  endfacet
  facet normal -0.557184 -0.830389 -0
    outer loop
      vertex 23.9474 -5.29874 1
      vertex 23.1714 -4.77802 0
      vertex 23.9474 -5.29874 0
    endloop
  endfacet
  facet normal -0.195159 -0.980772 0
    outer loop
      vertex 23.9474 -5.29874 0
      vertex 24.9036 -5.48901 1
      vertex 23.9474 -5.29874 1
    endloop
  endfacet
  facet normal -0.195159 -0.980772 -0
    outer loop
      vertex 24.9036 -5.48901 1
      vertex 23.9474 -5.29874 0
      vertex 24.9036 -5.48901 0
    endloop
  endfacet
  facet normal -0.394881 -0.918732 0
    outer loop
      vertex 24.9036 -5.48901 0
      vertex 25.5794 -5.77946 1
      vertex 24.9036 -5.48901 1
    endloop
  endfacet
  facet normal -0.394881 -0.918732 -0
    outer loop
      vertex 25.5794 -5.77946 1
      vertex 24.9036 -5.48901 0
      vertex 25.5794 -5.77946 0
    endloop
  endfacet
  facet normal -0.917487 -0.397765 0
    outer loop
      vertex 25.8715 -6.45329 0
      vertex 25.5794 -5.77946 1
      vertex 25.5794 -5.77946 0
    endloop
  endfacet
  facet normal -0.917487 -0.397765 0
    outer loop
      vertex 25.5794 -5.77946 1
      vertex 25.8715 -6.45329 0
      vertex 25.8715 -6.45329 1
    endloop
  endfacet
  facet normal -1 0 0
    outer loop
      vertex 25.8715 -7.09563 0
      vertex 25.8715 -6.45329 1
      vertex 25.8715 -6.45329 0
    endloop
  endfacet
  facet normal -1 -0 0
    outer loop
      vertex 25.8715 -6.45329 1
      vertex 25.8715 -7.09563 0
      vertex 25.8715 -7.09563 1
    endloop
  endfacet
  facet normal 0 1 -0
    outer loop
      vertex 25.8715 -7.09563 0
      vertex 22.6852 -7.09563 1
      vertex 25.8715 -7.09563 1
    endloop
  endfacet
  facet normal 0 1 0
    outer loop
      vertex 22.6852 -7.09563 1
      vertex 25.8715 -7.09563 0
      vertex 22.6852 -7.09563 0
    endloop
  endfacet
  facet normal 1 -0 0
    outer loop
      vertex 22.6852 -7.09563 1
      vertex 22.6852 -7.07962 0
      vertex 22.6852 -7.07962 1
    endloop
  endfacet
  facet normal 1 0 0
    outer loop
      vertex 22.6852 -7.07962 0
      vertex 22.6852 -7.09563 1
      vertex 22.6852 -7.09563 0
    endloop
  endfacet
  facet normal 0 1 -0
    outer loop
      vertex 22.6852 -7.07962 0
      vertex 19.9556 -7.07962 1
      vertex 22.6852 -7.07962 1
    endloop
  endfacet
  facet normal 0 1 0
    outer loop
      vertex 19.9556 -7.07962 1
      vertex 22.6852 -7.07962 0
      vertex 19.9556 -7.07962 0
    endloop
  endfacet
  facet normal 1 -0 0
    outer loop
      vertex 19.9556 -7.07962 1
      vertex 19.9556 -3.56149 0
      vertex 19.9556 -3.56149 1
    endloop
  endfacet
  facet normal 1 0 0
    outer loop
      vertex 19.9556 -3.56149 0
      vertex 19.9556 -7.07962 1
      vertex 19.9556 -7.07962 0
    endloop
  endfacet
  facet normal 0 1 -0
    outer loop
      vertex 19.9556 -3.56149 0
      vertex 15.6303 -3.56149 1
      vertex 19.9556 -3.56149 1
    endloop
  endfacet
  facet normal 0 1 0
    outer loop
      vertex 15.6303 -3.56149 1
      vertex 19.9556 -3.56149 0
      vertex 15.6303 -3.56149 0
    endloop
  endfacet
  facet normal 1 -0 0
    outer loop
      vertex 15.6303 -3.56149 1
      vertex 15.6303 2.85983 0
      vertex 15.6303 2.85983 1
    endloop
  endfacet
  facet normal 1 0 0
    outer loop
      vertex 15.6303 2.85983 0
      vertex 15.6303 -3.56149 1
      vertex 15.6303 -3.56149 0
    endloop
  endfacet
  facet normal 0.440179 0.89791 -0
    outer loop
      vertex 15.6303 2.85983 0
      vertex 7.88142 6.65854 1
      vertex 15.6303 2.85983 1
    endloop
  endfacet
  facet normal 0.440179 0.89791 0
    outer loop
      vertex 7.88142 6.65854 1
      vertex 15.6303 2.85983 0
      vertex 7.88142 6.65854 0
    endloop
  endfacet
  facet normal -1 0 0
    outer loop
      vertex 7.88142 1.73689 0
      vertex 7.88142 6.65854 1
      vertex 7.88142 6.65854 0
    endloop
  endfacet
  facet normal -1 -0 0
    outer loop
      vertex 7.88142 6.65854 1
      vertex 7.88142 1.73689 0
      vertex 7.88142 1.73689 1
    endloop
  endfacet
  facet normal 0.00900064 0.999959 -0
    outer loop
      vertex 7.88142 1.73689 0
      vertex 3.86203 1.77307 1
      vertex 7.88142 1.73689 1
    endloop
  endfacet
  facet normal 0.00900064 0.999959 0
    outer loop
      vertex 3.86203 1.77307 1
      vertex 7.88142 1.73689 0
      vertex 3.86203 1.77307 0
    endloop
  endfacet
  facet normal 1 -0 0
    outer loop
      vertex 3.86203 1.77307 1
      vertex 3.86203 5.55525 0
      vertex 3.86203 5.55525 1
    endloop
  endfacet
  facet normal 1 0 0
    outer loop
      vertex 3.86203 5.55525 0
      vertex 3.86203 1.77307 1
      vertex 3.86203 1.77307 0
    endloop
  endfacet
  facet normal 0.99958 0.0289647 0
    outer loop
      vertex 3.86203 5.55525 1
      vertex 3.80168 7.63789 0
      vertex 3.80168 7.63789 1
    endloop
  endfacet
  facet normal 0.99958 0.0289647 0
    outer loop
      vertex 3.80168 7.63789 0
      vertex 3.86203 5.55525 1
      vertex 3.86203 5.55525 0
    endloop
  endfacet
  facet normal 0.960816 0.277185 0
    outer loop
      vertex 3.80168 7.63789 1
      vertex 3.55287 8.50035 0
      vertex 3.55287 8.50035 1
    endloop
  endfacet
  facet normal 0.960816 0.277185 0
    outer loop
      vertex 3.55287 8.50035 0
      vertex 3.80168 7.63789 1
      vertex 3.80168 7.63789 0
    endloop
  endfacet
  facet normal 0.709143 0.705065 0
    outer loop
      vertex 3.55287 8.50035 1
      vertex 3.0042 9.0522 0
      vertex 3.0042 9.0522 1
    endloop
  endfacet
  facet normal 0.709143 0.705065 0
    outer loop
      vertex 3.0042 9.0522 0
      vertex 3.55287 8.50035 1
      vertex 3.55287 8.50035 0
    endloop
  endfacet
  facet normal 0.19918 0.979963 -0
    outer loop
      vertex 3.0042 9.0522 0
      vertex 2.55669 9.14316 1
      vertex 3.0042 9.0522 1
    endloop
  endfacet
  facet normal 0.19918 0.979963 0
    outer loop
      vertex 2.55669 9.14316 1
      vertex 3.0042 9.0522 0
      vertex 2.55669 9.14316 0
    endloop
  endfacet
  facet normal 0.947017 0.321185 0
    outer loop
      vertex 2.55669 9.14316 1
      vertex 2.07689 10.5578 0
      vertex 2.07689 10.5578 1
    endloop
  endfacet
  facet normal 0.947017 0.321185 0
    outer loop
      vertex 2.07689 10.5578 0
      vertex 2.55669 9.14316 1
      vertex 2.55669 9.14316 0
    endloop
  endfacet
  facet normal 0.594787 0.803883 -0
    outer loop
      vertex 2.07689 10.5578 0
      vertex 0.900452 11.4283 1
      vertex 2.07689 10.5578 1
    endloop
  endfacet
  facet normal 0.594787 0.803883 0
    outer loop
      vertex 0.900452 11.4283 1
      vertex 2.07689 10.5578 0
      vertex 0.900452 11.4283 0
    endloop
  endfacet
  facet normal 1 -0 0
    outer loop
      vertex 0.900452 11.4283 1
      vertex 0.900452 13.5129 0
      vertex 0.900452 13.5129 1
    endloop
  endfacet
  facet normal 1 0 0
    outer loop
      vertex 0.900452 13.5129 0
      vertex 0.900452 11.4283 1
      vertex 0.900452 11.4283 0
    endloop
  endfacet
  facet normal 0.885369 0.464889 0
    outer loop
      vertex 0.900452 13.5129 1
      vertex 0.64296 14.0033 0
      vertex 0.64296 14.0033 1
    endloop
  endfacet
  facet normal 0.885369 0.464889 0
    outer loop
      vertex 0.64296 14.0033 0
      vertex 0.900452 13.5129 1
      vertex 0.900452 13.5129 0
    endloop
  endfacet
  facet normal 0.440044 0.897976 -0
    outer loop
      vertex 0.64296 14.0033 0
      vertex 0.133575 14.2529 1
      vertex 0.64296 14.0033 1
    endloop
  endfacet
  facet normal 0.440044 0.897976 0
    outer loop
      vertex 0.133575 14.2529 1
      vertex 0.64296 14.0033 0
      vertex 0.133575 14.2529 0
    endloop
  endfacet
  facet normal -0.440331 0.897835 0
    outer loop
      vertex 0.133575 14.2529 0
      vertex -0.375397 14.0033 1
      vertex 0.133575 14.2529 1
    endloop
  endfacet
  facet normal -0.440331 0.897835 0
    outer loop
      vertex -0.375397 14.0033 1
      vertex 0.133575 14.2529 0
      vertex -0.375397 14.0033 0
    endloop
  endfacet
  facet normal -0.88546 0.464716 0
    outer loop
      vertex -0.632767 13.5129 0
      vertex -0.375397 14.0033 1
      vertex -0.375397 14.0033 0
    endloop
  endfacet
  facet normal -0.88546 0.464716 0
    outer loop
      vertex -0.375397 14.0033 1
      vertex -0.632767 13.5129 0
      vertex -0.632767 13.5129 1
    endloop
  endfacet
  facet normal -1 0 0
    outer loop
      vertex -0.632767 11.4629 0
      vertex -0.632767 13.5129 1
      vertex -0.632767 13.5129 0
    endloop
  endfacet
  facet normal -1 -0 0
    outer loop
      vertex -0.632767 13.5129 1
      vertex -0.632767 11.4629 0
      vertex -0.632767 11.4629 1
    endloop
  endfacet
  facet normal -0.569912 0.821706 0
    outer loop
      vertex -0.632767 11.4629 0
      vertex -1.88313 10.5957 1
      vertex -0.632767 11.4629 1
    endloop
  endfacet
  facet normal -0.569912 0.821706 0
    outer loop
      vertex -1.88313 10.5957 1
      vertex -0.632767 11.4629 0
      vertex -1.88313 10.5957 0
    endloop
  endfacet
  facet normal -0.945045 0.32694 0
    outer loop
      vertex -2.39029 9.12971 0
      vertex -1.88313 10.5957 1
      vertex -1.88313 10.5957 0
    endloop
  endfacet
  facet normal -0.945045 0.32694 0
    outer loop
      vertex -1.88313 10.5957 1
      vertex -2.39029 9.12971 0
      vertex -2.39029 9.12971 1
    endloop
  endfacet
  facet normal -0.218478 0.975842 0
    outer loop
      vertex -2.39029 9.12971 0
      vertex -2.73651 9.0522 1
      vertex -2.39029 9.12971 1
    endloop
  endfacet
  facet normal -0.218478 0.975842 0
    outer loop
      vertex -2.73651 9.0522 1
      vertex -2.39029 9.12971 0
      vertex -2.73651 9.0522 0
    endloop
  endfacet
  facet normal -0.711298 0.702891 0
    outer loop
      vertex -3.30037 8.4816 0
      vertex -2.73651 9.0522 1
      vertex -2.73651 9.0522 0
    endloop
  endfacet
  facet normal -0.711298 0.702891 0
    outer loop
      vertex -2.73651 9.0522 1
      vertex -3.30037 8.4816 0
      vertex -3.30037 8.4816 1
    endloop
  endfacet
  facet normal -0.945853 0.324594 0
    outer loop
      vertex -3.59563 7.62123 0
      vertex -3.30037 8.4816 1
      vertex -3.30037 8.4816 0
    endloop
  endfacet
  facet normal -0.945853 0.324594 0
    outer loop
      vertex -3.30037 8.4816 1
      vertex -3.59563 7.62123 0
      vertex -3.59563 7.62123 1
    endloop
  endfacet
  facet normal -0.997964 0.0637861 0
    outer loop
      vertex -3.72768 5.55525 0
      vertex -3.59563 7.62123 1
      vertex -3.59563 7.62123 0
    endloop
  endfacet
  facet normal -0.997964 0.0637861 0
    outer loop
      vertex -3.59563 7.62123 1
      vertex -3.72768 5.55525 0
      vertex -3.72768 5.55525 1
    endloop
  endfacet
  facet normal -1 0 0
    outer loop
      vertex -3.72768 1.80821 0
      vertex -3.72768 5.55525 1
      vertex -3.72768 5.55525 0
    endloop
  endfacet
  facet normal -1 -0 0
    outer loop
      vertex -3.72768 5.55525 1
      vertex -3.72768 1.80821 0
      vertex -3.72768 1.80821 1
    endloop
  endfacet
  facet normal 0 1 -0
    outer loop
      vertex -3.72768 1.80821 0
      vertex -4.82373 1.80821 1
      vertex -3.72768 1.80821 1
    endloop
  endfacet
  facet normal 0 1 0
    outer loop
      vertex -4.82373 1.80821 1
      vertex -3.72768 1.80821 0
      vertex -4.82373 1.80821 0
    endloop
  endfacet
  facet normal -0.223925 0.974606 0
    outer loop
      vertex -4.82373 1.80821 0
      vertex -5.69466 1.60811 1
      vertex -4.82373 1.80821 1
    endloop
  endfacet
  facet normal -0.223925 0.974606 0
    outer loop
      vertex -5.69466 1.60811 1
      vertex -4.82373 1.80821 0
      vertex -5.69466 1.60811 0
    endloop
  endfacet
  facet normal -0.681435 0.731878 0
    outer loop
      vertex -5.69466 1.60811 0
      vertex -6.27957 1.06351 1
      vertex -5.69466 1.60811 1
    endloop
  endfacet
  facet normal -0.681435 0.731878 0
    outer loop
      vertex -6.27957 1.06351 1
      vertex -5.69466 1.60811 0
      vertex -6.27957 1.06351 0
    endloop
  endfacet
  facet normal -0.972057 0.234744 0
    outer loop
      vertex -6.71147 -0.72496 0
      vertex -6.27957 1.06351 1
      vertex -6.27957 1.06351 0
    endloop
  endfacet
  facet normal -0.972057 0.234744 0
    outer loop
      vertex -6.27957 1.06351 1
      vertex -6.71147 -0.72496 0
      vertex -6.71147 -0.72496 1
    endloop
  endfacet
  facet normal -1 0 0
    outer loop
      vertex -6.71147 -2.36673 0
      vertex -6.71147 -0.72496 1
      vertex -6.71147 -0.72496 0
    endloop
  endfacet
  facet normal -1 -0 0
    outer loop
      vertex -6.71147 -0.72496 1
      vertex -6.71147 -2.36673 0
      vertex -6.71147 -2.36673 1
    endloop
  endfacet
  facet normal 0 1 -0
    outer loop
      vertex -6.71147 -2.36673 0
      vertex -9.38727 -2.36673 1
      vertex -6.71147 -2.36673 1
    endloop
  endfacet
  facet normal 0 1 0
    outer loop
      vertex -9.38727 -2.36673 1
      vertex -6.71147 -2.36673 0
      vertex -9.38727 -2.36673 0
    endloop
  endfacet
  facet normal 1 -0 0
    outer loop
      vertex -9.38727 -2.36673 1
      vertex -9.38727 6.12628 0
      vertex -9.38727 6.12628 1
    endloop
  endfacet
  facet normal 1 0 0
    outer loop
      vertex -9.38727 6.12628 0
      vertex -9.38727 -2.36673 1
      vertex -9.38727 -2.36673 0
    endloop
  endfacet
  facet normal -0.464104 0.885781 0
    outer loop
      vertex -9.38727 6.12628 0
      vertex -14.8671 3.25516 1
      vertex -9.38727 6.12628 1
    endloop
  endfacet
  facet normal -0.464104 0.885781 0
    outer loop
      vertex -14.8671 3.25516 1
      vertex -9.38727 6.12628 0
      vertex -14.8671 3.25516 0
    endloop
  endfacet
  facet normal -1 0 0
    outer loop
      vertex -14.8671 -2.76619 0
      vertex -14.8671 3.25516 1
      vertex -14.8671 3.25516 0
    endloop
  endfacet
  facet normal -1 -0 0
    outer loop
      vertex -14.8671 3.25516 1
      vertex -14.8671 -2.76619 0
      vertex -14.8671 -2.76619 1
    endloop
  endfacet
  facet normal 0 1 -0
    outer loop
      vertex -14.8671 -2.76619 0
      vertex -19.5029 -2.76619 1
      vertex -14.8671 -2.76619 1
    endloop
  endfacet
  facet normal 0 1 0
    outer loop
      vertex -19.5029 -2.76619 1
      vertex -14.8671 -2.76619 0
      vertex -19.5029 -2.76619 0
    endloop
  endfacet
  facet normal -1 0 0
    outer loop
      vertex -19.5029 -7.07962 0
      vertex -19.5029 -2.76619 1
      vertex -19.5029 -2.76619 0
    endloop
  endfacet
  facet normal -1 -0 0
    outer loop
      vertex -19.5029 -2.76619 1
      vertex -19.5029 -7.07962 0
      vertex -19.5029 -7.07962 1
    endloop
  endfacet
  facet normal 0 1 -0
    outer loop
      vertex -19.5029 -7.07962 0
      vertex -25.2793 -7.07962 1
      vertex -19.5029 -7.07962 1
    endloop
  endfacet
  facet normal 0 1 0
    outer loop
      vertex -25.2793 -7.07962 1
      vertex -19.5029 -7.07962 0
      vertex -25.2793 -7.07962 0
    endloop
  endfacet
  facet normal 1 -0 0
    outer loop
      vertex -25.2793 -7.07962 1
      vertex -25.2793 -6.45329 0
      vertex -25.2793 -6.45329 1
    endloop
  endfacet
  facet normal 1 0 0
    outer loop
      vertex -25.2793 -6.45329 0
      vertex -25.2793 -7.07962 1
      vertex -25.2793 -7.07962 0
    endloop
  endfacet
  facet normal 0.917616 -0.397467 0
    outer loop
      vertex -25.2793 -6.45329 1
      vertex -24.9875 -5.77946 0
      vertex -24.9875 -5.77946 1
    endloop
  endfacet
  facet normal 0.917616 -0.397467 0
    outer loop
      vertex -24.9875 -5.77946 0
      vertex -25.2793 -6.45329 1
      vertex -25.2793 -6.45329 0
    endloop
  endfacet
  facet normal 0.395008 -0.918677 0
    outer loop
      vertex -24.9875 -5.77946 0
      vertex -24.312 -5.48901 1
      vertex -24.9875 -5.77946 1
    endloop
  endfacet
  facet normal 0.395008 -0.918677 0
    outer loop
      vertex -24.312 -5.48901 1
      vertex -24.9875 -5.77946 0
      vertex -24.312 -5.48901 0
    endloop
  endfacet
  facet normal 0.195126 -0.980778 0
    outer loop
      vertex -24.312 -5.48901 0
      vertex -23.3556 -5.29875 1
      vertex -24.312 -5.48901 1
    endloop
  endfacet
  facet normal 0.195126 -0.980778 0
    outer loop
      vertex -23.3556 -5.29875 1
      vertex -24.312 -5.48901 0
      vertex -23.3556 -5.29875 0
    endloop
  endfacet
  facet normal 0.557101 -0.830444 0
    outer loop
      vertex -23.3556 -5.29875 0
      vertex -22.5794 -4.77803 1
      vertex -23.3556 -5.29875 1
    endloop
  endfacet
  facet normal 0.557101 -0.830444 0
    outer loop
      vertex -22.5794 -4.77803 1
      vertex -23.3556 -5.29875 0
      vertex -22.5794 -4.77803 0
    endloop
  endfacet
  facet normal 0.830301 -0.557316 0
    outer loop
      vertex -22.5794 -4.77803 1
      vertex -22.0585 -4.002 0
      vertex -22.0585 -4.002 1
    endloop
  endfacet
  facet normal 0.830301 -0.557316 0
    outer loop
      vertex -22.0585 -4.002 0
      vertex -22.5794 -4.77803 1
      vertex -22.5794 -4.77803 0
    endloop
  endfacet
  facet normal 0.980757 -0.195234 0
    outer loop
      vertex -22.0585 -4.002 1
      vertex -21.8682 -3.04576 0
      vertex -21.8682 -3.04576 1
    endloop
  endfacet
  facet normal 0.980757 -0.195234 0
    outer loop
      vertex -21.8682 -3.04576 0
      vertex -22.0585 -4.002 1
      vertex -22.0585 -4.002 0
    endloop
  endfacet
  facet normal 0.995322 -0.0966123 0
    outer loop
      vertex -21.8682 -3.04576 1
      vertex -21.4534 1.22708 0
      vertex -21.4534 1.22708 1
    endloop
  endfacet
  facet normal 0.995322 -0.0966123 0
    outer loop
      vertex -21.4534 1.22708 0
      vertex -21.8682 -3.04576 1
      vertex -21.8682 -3.04576 0
    endloop
  endfacet
  facet normal 0.958363 -0.285552 0
    outer loop
      vertex -21.4534 1.22708 1
      vertex -20.2611 5.22867 0
      vertex -20.2611 5.22867 1
    endloop
  endfacet
  facet normal 0.958363 -0.285552 0
    outer loop
      vertex -20.2611 5.22867 0
      vertex -21.4534 1.22708 1
      vertex -21.4534 1.22708 0
    endloop
  endfacet
  facet normal 0.887809 -0.460212 0
    outer loop
      vertex -20.2611 5.22867 1
      vertex -18.3691 8.87856 0
      vertex -18.3691 8.87856 1
    endloop
  endfacet
  facet normal 0.887809 -0.460212 0
    outer loop
      vertex -18.3691 8.87856 0
      vertex -20.2611 5.22867 1
      vertex -20.2611 5.22867 0
    endloop
  endfacet
  facet normal 0.788023 -0.615645 0
    outer loop
      vertex -18.3691 8.87856 1
      vertex -15.8554 12.0962 0
      vertex -15.8554 12.0962 1
    endloop
  endfacet
  facet normal 0.788023 -0.615645 0
    outer loop
      vertex -15.8554 12.0962 0
      vertex -18.3691 8.87856 1
      vertex -18.3691 8.87856 0
    endloop
  endfacet
  facet normal 0.662571 -0.748999 0
    outer loop
      vertex -15.8554 12.0962 0
      vertex -12.7977 14.801 1
      vertex -15.8554 12.0962 1
    endloop
  endfacet
  facet normal 0.662571 -0.748999 0
    outer loop
      vertex -12.7977 14.801 1
      vertex -15.8554 12.0962 0
      vertex -12.7977 14.801 0
    endloop
  endfacet
  facet normal 0.514014 -0.857782 0
    outer loop
      vertex -12.7977 14.801 0
      vertex -9.27403 16.9125 1
      vertex -12.7977 14.801 1
    endloop
  endfacet
  facet normal 0.514014 -0.857782 0
    outer loop
      vertex -9.27403 16.9125 1
      vertex -12.7977 14.801 0
      vertex -9.27403 16.9125 0
    endloop
  endfacet
  facet normal 0.344965 -0.938615 0
    outer loop
      vertex -9.27403 16.9125 0
      vertex -5.36224 18.3502 1
      vertex -9.27403 16.9125 1
    endloop
  endfacet
  facet normal 0.344965 -0.938615 0
    outer loop
      vertex -5.36224 18.3502 1
      vertex -9.27403 16.9125 0
      vertex -5.36224 18.3502 0
    endloop
  endfacet
  facet normal 0.159768 -0.987155 0
    outer loop
      vertex -5.36224 18.3502 0
      vertex -1.14023 19.0335 1
      vertex -5.36224 18.3502 1
    endloop
  endfacet
  facet normal 0.159768 -0.987155 0
    outer loop
      vertex -1.14023 19.0335 1
      vertex -5.36224 18.3502 0
      vertex -1.14023 19.0335 0
    endloop
  endfacet
  facet normal 1 -0 0
    outer loop
      vertex -1.14023 19.0335 1
      vertex -1.14023 21.5729 0
      vertex -1.14023 21.5729 1
    endloop
  endfacet
  facet normal 1 0 0
    outer loop
      vertex -1.14023 21.5729 0
      vertex -1.14023 19.0335 1
      vertex -1.14023 19.0335 0
    endloop
  endfacet
  facet normal 0 1 -0
    outer loop
      vertex -1.14023 21.5729 0
      vertex -4.01035 21.5729 1
      vertex -1.14023 21.5729 1
    endloop
  endfacet
  facet normal 0 1 0
    outer loop
      vertex -4.01035 21.5729 1
      vertex -1.14023 21.5729 0
      vertex -4.01035 21.5729 0
    endloop
  endfacet
  facet normal 1 -0 0
    outer loop
      vertex -4.01035 21.5729 1
      vertex -4.01035 24.6812 0
      vertex -4.01035 24.6812 1
    endloop
  endfacet
  facet normal 1 0 0
    outer loop
      vertex -4.01035 24.6812 0
      vertex -4.01035 21.5729 1
      vertex -4.01035 21.5729 0
    endloop
  endfacet
  facet normal 0 -1 0
    outer loop
      vertex -4.01035 24.6812 0
      vertex 4.66353 24.6812 1
      vertex -4.01035 24.6812 1
    endloop
  endfacet
  facet normal 0 -1 -0
    outer loop
      vertex 4.66353 24.6812 1
      vertex -4.01035 24.6812 0
      vertex 4.66353 24.6812 0
    endloop
  endfacet
  facet normal -1 0 0
    outer loop
      vertex 4.66353 21.5729 0
      vertex 4.66353 24.6812 1
      vertex 4.66353 24.6812 0
    endloop
  endfacet
  facet normal -1 -0 0
    outer loop
      vertex 4.66353 24.6812 1
      vertex 4.66353 21.5729 0
      vertex 4.66353 21.5729 1
    endloop
  endfacet
  facet normal -0.415404 -0.909637 0
    outer loop
      vertex 25.8715 -10.1445 0
      vertex 27.2564 -10.777 1
      vertex 25.8715 -10.1445 1
    endloop
  endfacet
  facet normal -0.415404 -0.909637 -0
    outer loop
      vertex 27.2564 -10.777 1
      vertex 25.8715 -10.1445 0
      vertex 27.2564 -10.777 0
    endloop
  endfacet
  facet normal -0.682314 -0.731059 0
    outer loop
      vertex 27.2564 -10.777 0
      vertex 28.3539 -11.8013 1
      vertex 27.2564 -10.777 1
    endloop
  endfacet
  facet normal -0.682314 -0.731059 -0
    outer loop
      vertex 28.3539 -11.8013 1
      vertex 27.2564 -10.777 0
      vertex 28.3539 -11.8013 0
    endloop
  endfacet
  facet normal -0.878678 -0.477416 0
    outer loop
      vertex 29.0766 -13.1314 0
      vertex 28.3539 -11.8013 1
      vertex 28.3539 -11.8013 0
    endloop
  endfacet
  facet normal -0.878678 -0.477416 0
    outer loop
      vertex 28.3539 -11.8013 1
      vertex 29.0766 -13.1314 0
      vertex 29.0766 -13.1314 1
    endloop
  endfacet
  facet normal -0.986182 -0.165668 0
    outer loop
      vertex 29.337 -14.6812 0
      vertex 29.0766 -13.1314 1
      vertex 29.0766 -13.1314 0
    endloop
  endfacet
  facet normal -0.986182 -0.165668 0
    outer loop
      vertex 29.0766 -13.1314 1
      vertex 29.337 -14.6812 0
      vertex 29.337 -14.6812 1
    endloop
  endfacet
  facet normal 0 1 -0
    outer loop
      vertex 29.337 -14.6812 0
      vertex -29.337 -14.6812 1
      vertex 29.337 -14.6812 1
    endloop
  endfacet
  facet normal 0 1 0
    outer loop
      vertex -29.337 -14.6812 1
      vertex 29.337 -14.6812 0
      vertex -29.337 -14.6812 0
    endloop
  endfacet
  facet normal 0.983277 -0.182115 0
    outer loop
      vertex -29.337 -14.6812 1
      vertex -29.0242 -12.9927 0
      vertex -29.0242 -12.9927 1
    endloop
  endfacet
  facet normal 0.983277 -0.182115 0
    outer loop
      vertex -29.0242 -12.9927 0
      vertex -29.337 -14.6812 1
      vertex -29.337 -14.6812 0
    endloop
  endfacet
  facet normal 0.854694 -0.519132 0
    outer loop
      vertex -29.0242 -12.9927 1
      vertex -28.1649 -11.5779 0
      vertex -28.1649 -11.5779 1
    endloop
  endfacet
  facet normal 0.854694 -0.519132 0
    outer loop
      vertex -28.1649 -11.5779 0
      vertex -29.0242 -12.9927 1
      vertex -29.0242 -12.9927 0
    endloop
  endfacet
  facet normal 0.62368 -0.78168 0
    outer loop
      vertex -28.1649 -11.5779 0
      vertex -26.8772 -10.5504 1
      vertex -28.1649 -11.5779 1
    endloop
  endfacet
  facet normal 0.62368 -0.78168 0
    outer loop
      vertex -26.8772 -10.5504 1
      vertex -28.1649 -11.5779 0
      vertex -26.8772 -10.5504 0
    endloop
  endfacet
  facet normal 0.312854 -0.949801 0
    outer loop
      vertex -26.8772 -10.5504 0
      vertex -25.2793 -10.0241 1
      vertex -26.8772 -10.5504 1
    endloop
  endfacet
  facet normal 0.312854 -0.949801 0
    outer loop
      vertex -25.2793 -10.0241 1
      vertex -26.8772 -10.5504 0
      vertex -25.2793 -10.0241 0
    endloop
  endfacet
  facet normal 1 -0 0
    outer loop
      vertex -25.2793 -10.0241 1
      vertex -25.2793 -9.90631 0
      vertex -25.2793 -9.90631 1
    endloop
  endfacet
  facet normal 1 0 0
    outer loop
      vertex -25.2793 -9.90631 0
      vertex -25.2793 -10.0241 1
      vertex -25.2793 -10.0241 0
    endloop
  endfacet
  facet normal 0 -1 0
    outer loop
      vertex -25.2793 -9.90631 0
      vertex -20.9597 -9.90631 1
      vertex -25.2793 -9.90631 1
    endloop
  endfacet
  facet normal 0 -1 -0
    outer loop
      vertex -20.9597 -9.90631 1
      vertex -25.2793 -9.90631 0
      vertex -20.9597 -9.90631 0
    endloop
  endfacet
  facet normal 1 -0 0
    outer loop
      vertex -20.9597 -9.90631 1
      vertex -20.9597 -9.87531 0
      vertex -20.9597 -9.87531 1
    endloop
  endfacet
  facet normal 1 0 0
    outer loop
      vertex -20.9597 -9.87531 0
      vertex -20.9597 -9.90631 1
      vertex -20.9597 -9.90631 0
    endloop
  endfacet
  facet normal 0 -1 0
    outer loop
      vertex -20.9597 -9.87531 0
      vertex 25.8715 -9.87531 1
      vertex -20.9597 -9.87531 1
    endloop
  endfacet
  facet normal 0 -1 -0
    outer loop
      vertex 25.8715 -9.87531 1
      vertex -20.9597 -9.87531 0
      vertex 25.8715 -9.87531 0
    endloop
  endfacet
  facet normal -1 0 0
    outer loop
      vertex 25.8715 -10.1445 0
      vertex 25.8715 -9.87531 1
      vertex 25.8715 -9.87531 0
    endloop
  endfacet
  facet normal -1 -0 0
    outer loop
      vertex 25.8715 -9.87531 1
      vertex 25.8715 -10.1445 0
      vertex 25.8715 -10.1445 1
    endloop
  endfacet
  facet normal 0.994522 0.104529 0
    outer loop
      vertex 45 0 1
      vertex 44.0166 9.35603 0
      vertex 44.0166 9.35603 1
    endloop
  endfacet
  facet normal 0.994522 0.104529 0
    outer loop
      vertex 44.0166 9.35603 0
      vertex 45 0 1
      vertex 45 0 0
    endloop
  endfacet
  facet normal -0.994522 0.104529 0
    outer loop
      vertex -45 0 0
      vertex -44.0166 9.35603 1
      vertex -44.0166 9.35603 0
    endloop
  endfacet
  facet normal -0.994522 0.104529 0
    outer loop
      vertex -44.0166 9.35603 1
      vertex -45 0 0
      vertex -45 0 1
    endloop
  endfacet
  facet normal 0 1 -0
    outer loop
      vertex 4.70378 44.7535 0
      vertex -4.70378 44.7535 1
      vertex 4.70378 44.7535 1
    endloop
  endfacet
  facet normal 0 1 0
    outer loop
      vertex -4.70378 44.7535 1
      vertex 4.70378 44.7535 0
      vertex -4.70378 44.7535 0
    endloop
  endfacet
  facet normal 0.743145 0.669131 0
    outer loop
      vertex 36.4058 26.4503 1
      vertex 30.1109 33.4415 0
      vertex 30.1109 33.4415 1
    endloop
  endfacet
  facet normal 0.743145 0.669131 0
    outer loop
      vertex 30.1109 33.4415 0
      vertex 36.4058 26.4503 1
      vertex 36.4058 26.4503 0
    endloop
  endfacet
  facet normal -0.587785 0.809017 0
    outer loop
      vertex -22.5 38.9711 0
      vertex -30.1109 33.4415 1
      vertex -22.5 38.9711 1
    endloop
  endfacet
  facet normal -0.587785 0.809017 0
    outer loop
      vertex -30.1109 33.4415 1
      vertex -22.5 38.9711 0
      vertex -30.1109 33.4415 0
    endloop
  endfacet
  facet normal -0.207912 0.978148 0
    outer loop
      vertex -4.70378 44.7535 0
      vertex -13.9058 42.7975 1
      vertex -4.70378 44.7535 1
    endloop
  endfacet
  facet normal -0.207912 0.978148 0
    outer loop
      vertex -13.9058 42.7975 1
      vertex -4.70378 44.7535 0
      vertex -13.9058 42.7975 0
    endloop
  endfacet
  facet normal 0.951057 -0.309017 0
    outer loop
      vertex 41.1095 -18.3031 1
      vertex 44.0166 -9.35603 0
      vertex 44.0166 -9.35603 1
    endloop
  endfacet
  facet normal 0.951057 -0.309017 0
    outer loop
      vertex 44.0166 -9.35603 0
      vertex 41.1095 -18.3031 1
      vertex 41.1095 -18.3031 0
    endloop
  endfacet
  facet normal 0.866026 0.5 0
    outer loop
      vertex 41.1095 18.3031 1
      vertex 36.4058 26.4503 0
      vertex 36.4058 26.4503 1
    endloop
  endfacet
  facet normal 0.866026 0.5 0
    outer loop
      vertex 36.4058 26.4503 0
      vertex 41.1095 18.3031 1
      vertex 41.1095 18.3031 0
    endloop
  endfacet
  facet normal 0.951057 0.309017 0
    outer loop
      vertex 44.0166 9.35603 1
      vertex 41.1095 18.3031 0
      vertex 41.1095 18.3031 1
    endloop
  endfacet
  facet normal 0.951057 0.309017 0
    outer loop
      vertex 41.1095 18.3031 0
      vertex 44.0166 9.35603 1
      vertex 44.0166 9.35603 0
    endloop
  endfacet
  facet normal 0.406737 0.913545 -0
    outer loop
      vertex 22.5 38.9711 0
      vertex 13.9058 42.7975 1
      vertex 22.5 38.9711 1
    endloop
  endfacet
  facet normal 0.406737 0.913545 0
    outer loop
      vertex 13.9058 42.7975 1
      vertex 22.5 38.9711 0
      vertex 13.9058 42.7975 0
    endloop
  endfacet
  facet normal 0.207912 0.978148 -0
    outer loop
      vertex 13.9058 42.7975 0
      vertex 4.70378 44.7535 1
      vertex 13.9058 42.7975 1
    endloop
  endfacet
  facet normal 0.207912 0.978148 0
    outer loop
      vertex 4.70378 44.7535 1
      vertex 13.9058 42.7975 0
      vertex 4.70378 44.7535 0
    endloop
  endfacet
  facet normal 0.587785 0.809017 -0
    outer loop
      vertex 30.1109 33.4415 0
      vertex 22.5 38.9711 1
      vertex 30.1109 33.4415 1
    endloop
  endfacet
  facet normal 0.587785 0.809017 0
    outer loop
      vertex 22.5 38.9711 1
      vertex 30.1109 33.4415 0
      vertex 22.5 38.9711 0
    endloop
  endfacet
  facet normal -0.866026 0.5 0
    outer loop
      vertex -41.1095 18.3031 0
      vertex -36.4058 26.4503 1
      vertex -36.4058 26.4503 0
    endloop
  endfacet
  facet normal -0.866026 0.5 0
    outer loop
      vertex -36.4058 26.4503 1
      vertex -41.1095 18.3031 0
      vertex -41.1095 18.3031 1
    endloop
  endfacet
  facet normal -0.743145 0.669131 0
    outer loop
      vertex -36.4058 26.4503 0
      vertex -30.1109 33.4415 1
      vertex -30.1109 33.4415 0
    endloop
  endfacet
  facet normal -0.743145 0.669131 0
    outer loop
      vertex -30.1109 33.4415 1
      vertex -36.4058 26.4503 0
      vertex -36.4058 26.4503 1
    endloop
  endfacet
  facet normal -0.951057 0.309017 0
    outer loop
      vertex -44.0166 9.35603 0
      vertex -41.1095 18.3031 1
      vertex -41.1095 18.3031 0
    endloop
  endfacet
  facet normal -0.951057 0.309017 0
    outer loop
      vertex -41.1095 18.3031 1
      vertex -44.0166 9.35603 0
      vertex -44.0166 9.35603 1
    endloop
  endfacet
  facet normal 0 0 1
    outer loop
      vertex -1.80194 -63.8678 1
      vertex -10 -63 1
      vertex -9.78148 -65.0791 1
    endloop
  endfacet
  facet normal 0 0 1
    outer loop
      vertex -9.38727 6.12628 1
      vertex -14.8671 3.25516 1
      vertex -9.38727 -2.36673 1
    endloop
  endfacet
  facet normal 0 0 1
    outer loop
      vertex -0.632767 13.5129 1
      vertex 0.900452 13.5129 1
      vertex 0.64296 14.0033 1
    endloop
  endfacet
  facet normal 0 0 1
    outer loop
      vertex 5 -71.6603 1
      vertex 1.24698 -64.5637 1
      vertex 3.09017 -72.5106 1
    endloop
  endfacet
  facet normal -0 0 1
    outer loop
      vertex -0.445042 -64.9499 1
      vertex 3.09017 -72.5106 1
      vertex 1.24698 -64.5637 1
    endloop
  endfacet
  facet normal 0 0 1
    outer loop
      vertex 3.09017 -72.5106 1
      vertex -0.445042 -64.9499 1
      vertex 1.04528 -72.9452 1
    endloop
  endfacet
  facet normal 0 0 1
    outer loop
      vertex -0.445042 -64.9499 1
      vertex -1.04528 -72.9452 1
      vertex 1.04528 -72.9452 1
    endloop
  endfacet
  facet normal 0 0 1
    outer loop
      vertex -6.69131 -70.4314 1
      vertex -0.445042 -64.9499 1
      vertex -1.80194 -63.8678 1
    endloop
  endfacet
  facet normal 0 0 1
    outer loop
      vertex -0.445042 -64.9499 1
      vertex -3.09017 -72.5106 1
      vertex -1.04528 -72.9452 1
    endloop
  endfacet
  facet normal 0 0 1
    outer loop
      vertex 2.55669 9.14316 1
      vertex 3.86203 5.55525 1
      vertex 3.80168 7.63789 1
    endloop
  endfacet
  facet normal 0 0 1
    outer loop
      vertex 7.88142 1.73689 1
      vertex 15.6303 2.85983 1
      vertex 7.88142 6.65854 1
    endloop
  endfacet
  facet normal 0 0 1
    outer loop
      vertex 19.9556 -3.56149 1
      vertex 15.6303 -3.56149 1
      vertex 19.9556 -7.07962 1
    endloop
  endfacet
  facet normal 0 0 1
    outer loop
      vertex 22.6852 -7.07962 1
      vertex 19.9556 -7.07962 1
      vertex 22.6852 -7.09563 1
    endloop
  endfacet
  facet normal -0 0 1
    outer loop
      vertex 22.6852 -7.09563 1
      vertex 25.8715 -9.87531 1
      vertex 25.8715 -7.09563 1
    endloop
  endfacet
  facet normal 0 0 1
    outer loop
      vertex 19.9556 -7.07962 1
      vertex 25.8715 -9.87531 1
      vertex 22.6852 -7.09563 1
    endloop
  endfacet
  facet normal 0 0 1
    outer loop
      vertex 15.6303 2.85983 1
      vertex 7.88142 1.73689 1
      vertex 15.6303 -3.56149 1
    endloop
  endfacet
  facet normal 0 0 1
    outer loop
      vertex 3.86203 1.77307 1
      vertex 15.6303 -3.56149 1
      vertex 7.88142 1.73689 1
    endloop
  endfacet
  facet normal -0 0 1
    outer loop
      vertex -6.71147 -2.36673 1
      vertex 15.6303 -3.56149 1
      vertex 3.86203 1.77307 1
    endloop
  endfacet
  facet normal 0 0 1
    outer loop
      vertex 2.55669 9.14316 1
      vertex 3.80168 7.63789 1
      vertex 3.55287 8.50035 1
    endloop
  endfacet
  facet normal 0 0 1
    outer loop
      vertex 2.55669 9.14316 1
      vertex 3.55287 8.50035 1
      vertex 3.0042 9.0522 1
    endloop
  endfacet
  facet normal -0 0 1
    outer loop
      vertex -2.39029 9.12971 1
      vertex 3.86203 5.55525 1
      vertex 2.55669 9.14316 1
    endloop
  endfacet
  facet normal 0 0 1
    outer loop
      vertex -2.39029 9.12971 1
      vertex 2.55669 9.14316 1
      vertex 2.07689 10.5578 1
    endloop
  endfacet
  facet normal 0 0 1
    outer loop
      vertex -2.39029 9.12971 1
      vertex 2.07689 10.5578 1
      vertex 0.900452 11.4283 1
    endloop
  endfacet
  facet normal 0 0 1
    outer loop
      vertex -0.375397 14.0033 1
      vertex 0.64296 14.0033 1
      vertex 0.133575 14.2529 1
    endloop
  endfacet
  facet normal 0 0 1
    outer loop
      vertex 0.64296 14.0033 1
      vertex -0.375397 14.0033 1
      vertex -0.632767 13.5129 1
    endloop
  endfacet
  facet normal 0 0 1
    outer loop
      vertex -0.632767 11.4629 1
      vertex 0.900452 13.5129 1
      vertex -0.632767 13.5129 1
    endloop
  endfacet
  facet normal 0 0 1
    outer loop
      vertex 0.900452 13.5129 1
      vertex -0.632767 11.4629 1
      vertex 0.900452 11.4283 1
    endloop
  endfacet
  facet normal 0 0 1
    outer loop
      vertex -2.39029 9.12971 1
      vertex 0.900452 11.4283 1
      vertex -0.632767 11.4629 1
    endloop
  endfacet
  facet normal 0 0 1
    outer loop
      vertex -2.39029 9.12971 1
      vertex -0.632767 11.4629 1
      vertex -1.88313 10.5957 1
    endloop
  endfacet
  facet normal 0 0 1
    outer loop
      vertex 3.86203 5.55525 1
      vertex -2.39029 9.12971 1
      vertex -3.72768 5.55525 1
    endloop
  endfacet
  facet normal 0 0 1
    outer loop
      vertex -3.30037 8.4816 1
      vertex -2.39029 9.12971 1
      vertex -2.73651 9.0522 1
    endloop
  endfacet
  facet normal 0 0 1
    outer loop
      vertex -2.39029 9.12971 1
      vertex -3.30037 8.4816 1
      vertex -3.59563 7.62123 1
    endloop
  endfacet
  facet normal 0 0 1
    outer loop
      vertex -2.39029 9.12971 1
      vertex -3.59563 7.62123 1
      vertex -3.72768 5.55525 1
    endloop
  endfacet
  facet normal 0 0 1
    outer loop
      vertex 3.86203 5.55525 1
      vertex -3.72768 5.55525 1
      vertex 3.86203 1.77307 1
    endloop
  endfacet
  facet normal -0 0 1
    outer loop
      vertex -3.72768 1.80821 1
      vertex 3.86203 1.77307 1
      vertex -3.72768 5.55525 1
    endloop
  endfacet
  facet normal 0 0 1
    outer loop
      vertex -6.71147 -2.36673 1
      vertex 3.86203 1.77307 1
      vertex -3.72768 1.80821 1
    endloop
  endfacet
  facet normal 0 0 1
    outer loop
      vertex 15.6303 -3.56149 1
      vertex -6.71147 -2.36673 1
      vertex 19.9556 -7.07962 1
    endloop
  endfacet
  facet normal 0 0 1
    outer loop
      vertex -6.71147 -0.72496 1
      vertex -3.72768 1.80821 1
      vertex -4.82373 1.80821 1
    endloop
  endfacet
  facet normal 0 0 1
    outer loop
      vertex -6.27957 1.06351 1
      vertex -4.82373 1.80821 1
      vertex -5.69466 1.60811 1
    endloop
  endfacet
  facet normal 0 0 1
    outer loop
      vertex -4.82373 1.80821 1
      vertex -6.27957 1.06351 1
      vertex -6.71147 -0.72496 1
    endloop
  endfacet
  facet normal 0 0 1
    outer loop
      vertex -3.72768 1.80821 1
      vertex -6.71147 -0.72496 1
      vertex -6.71147 -2.36673 1
    endloop
  endfacet
  facet normal 0 0 1
    outer loop
      vertex -20.9597 -9.87531 1
      vertex 19.9556 -7.07962 1
      vertex -6.71147 -2.36673 1
    endloop
  endfacet
  facet normal 0 0 1
    outer loop
      vertex -20.9597 -9.87531 1
      vertex -6.71147 -2.36673 1
      vertex -9.38727 -2.36673 1
    endloop
  endfacet
  facet normal 0 0 1
    outer loop
      vertex -14.8671 -2.76619 1
      vertex -9.38727 -2.36673 1
      vertex -14.8671 3.25516 1
    endloop
  endfacet
  facet normal 0 0 1
    outer loop
      vertex -19.5029 -7.07962 1
      vertex -9.38727 -2.36673 1
      vertex -14.8671 -2.76619 1
    endloop
  endfacet
  facet normal 0 0 1
    outer loop
      vertex -19.5029 -7.07962 1
      vertex -14.8671 -2.76619 1
      vertex -19.5029 -2.76619 1
    endloop
  endfacet
  facet normal 0 0 1
    outer loop
      vertex -9.38727 -2.36673 1
      vertex -19.5029 -7.07962 1
      vertex -20.9597 -9.87531 1
    endloop
  endfacet
  facet normal 0 0 1
    outer loop
      vertex 19.9556 -7.07962 1
      vertex -20.9597 -9.87531 1
      vertex 25.8715 -9.87531 1
    endloop
  endfacet
  facet normal -0 0 1
    outer loop
      vertex -25.2793 -7.07962 1
      vertex -20.9597 -9.87531 1
      vertex -19.5029 -7.07962 1
    endloop
  endfacet
  facet normal 0 0 1
    outer loop
      vertex -25.2793 -9.90631 1
      vertex -20.9597 -9.87531 1
      vertex -25.2793 -7.07962 1
    endloop
  endfacet
  facet normal 0 0 1
    outer loop
      vertex -20.9597 -9.87531 1
      vertex -25.2793 -9.90631 1
      vertex -20.9597 -9.90631 1
    endloop
  endfacet
  facet normal -0 0 1
    outer loop
      vertex 22.0432 1.24019 1
      vertex 45 0 1
      vertex 44.0166 9.35603 1
    endloop
  endfacet
  facet normal 0 0 1
    outer loop
      vertex 20.8451 5.25287 1
      vertex 44.0166 9.35603 1
      vertex 41.1095 18.3031 1
    endloop
  endfacet
  facet normal 0 -0 1
    outer loop
      vertex 25.8715 -6.45329 1
      vertex 45 0 1
      vertex 25.5794 -5.77946 1
    endloop
  endfacet
  facet normal 0 0 1
    outer loop
      vertex 18.946 8.91106 1
      vertex 41.1095 18.3031 1
      vertex 36.4058 26.4503 1
    endloop
  endfacet
  facet normal 0 0 1
    outer loop
      vertex 45 0 1
      vertex 25.8715 -6.45329 1
      vertex 44.0166 -9.35603 1
    endloop
  endfacet
  facet normal 0 0 1
    outer loop
      vertex 16.4256 12.1335 1
      vertex 36.4058 26.4503 1
      vertex 30.1109 33.4415 1
    endloop
  endfacet
  facet normal -0 -0 1
    outer loop
      vertex 29.337 -14.6812 1
      vertex 41.1095 -18.3031 1
      vertex 29.0766 -13.1314 1
    endloop
  endfacet
  facet normal 0 0 1
    outer loop
      vertex 36.4058 -26.4503 1
      vertex 29.337 -14.6812 1
      vertex 30.1109 -33.4415 1
    endloop
  endfacet
  facet normal 0 0 1
    outer loop
      vertex 41.1095 -18.3031 1
      vertex 29.337 -14.6812 1
      vertex 36.4058 -26.4503 1
    endloop
  endfacet
  facet normal 0 0 1
    outer loop
      vertex 44.0166 -9.35603 1
      vertex 29.0766 -13.1314 1
      vertex 41.1095 -18.3031 1
    endloop
  endfacet
  facet normal 0 -0 1
    outer loop
      vertex 29.0766 -13.1314 1
      vertex 44.0166 -9.35603 1
      vertex 28.3539 -11.8013 1
    endloop
  endfacet
  facet normal -0 0 1
    outer loop
      vertex 25.8715 -7.09563 1
      vertex 28.3539 -11.8013 1
      vertex 25.8715 -6.45329 1
    endloop
  endfacet
  facet normal 0 -0 1
    outer loop
      vertex 28.3539 -11.8013 1
      vertex 44.0166 -9.35603 1
      vertex 25.8715 -6.45329 1
    endloop
  endfacet
  facet normal 0 0 1
    outer loop
      vertex 45 0 1
      vertex 22.0432 1.24019 1
      vertex 25.5794 -5.77946 1
    endloop
  endfacet
  facet normal 0 0 1
    outer loop
      vertex 25.5794 -5.77946 1
      vertex 22.0432 1.24019 1
      vertex 24.9036 -5.48901 1
    endloop
  endfacet
  facet normal -0 -0 1
    outer loop
      vertex 22.4604 -3.04575 1
      vertex 24.9036 -5.48901 1
      vertex 22.0432 1.24019 1
    endloop
  endfacet
  facet normal 0 0 1
    outer loop
      vertex 24.9036 -5.48901 1
      vertex 22.4604 -3.04575 1
      vertex 23.9474 -5.29874 1
    endloop
  endfacet
  facet normal 0 0 1
    outer loop
      vertex 13.3641 14.8388 1
      vertex 30.1109 33.4415 1
      vertex 22.5 38.9711 1
    endloop
  endfacet
  facet normal 0 0 1
    outer loop
      vertex 23.9474 -5.29874 1
      vertex 22.4604 -3.04575 1
      vertex 23.1714 -4.77802 1
    endloop
  endfacet
  facet normal 0 0 1
    outer loop
      vertex 23.1714 -4.77802 1
      vertex 22.4604 -3.04575 1
      vertex 22.6507 -4.00198 1
    endloop
  endfacet
  facet normal 0 0 1
    outer loop
      vertex 44.0166 9.35603 1
      vertex 20.8451 5.25287 1
      vertex 22.0432 1.24019 1
    endloop
  endfacet
  facet normal 0 0 1
    outer loop
      vertex 41.1095 18.3031 1
      vertex 18.946 8.91106 1
      vertex 20.8451 5.25287 1
    endloop
  endfacet
  facet normal 0 0 1
    outer loop
      vertex 36.4058 26.4503 1
      vertex 16.4256 12.1335 1
      vertex 18.946 8.91106 1
    endloop
  endfacet
  facet normal 0 0 1
    outer loop
      vertex 4.66353 24.6812 1
      vertex 22.5 38.9711 1
      vertex 13.9058 42.7975 1
    endloop
  endfacet
  facet normal 0 0 1
    outer loop
      vertex 30.1109 33.4415 1
      vertex 13.3641 14.8388 1
      vertex 16.4256 12.1335 1
    endloop
  endfacet
  facet normal 0 0 1
    outer loop
      vertex 22.5 38.9711 1
      vertex 9.84128 16.9458 1
      vertex 13.3641 14.8388 1
    endloop
  endfacet
  facet normal 0 0 1
    outer loop
      vertex 22.5 38.9711 1
      vertex 4.66353 24.6812 1
      vertex 9.84128 16.9458 1
    endloop
  endfacet
  facet normal 0 0 1
    outer loop
      vertex 4.66353 24.6812 1
      vertex 13.9058 42.7975 1
      vertex 4.70378 44.7535 1
    endloop
  endfacet
  facet normal -0 0 1
    outer loop
      vertex 4.66353 21.5729 1
      vertex 9.84128 16.9458 1
      vertex 4.66353 24.6812 1
    endloop
  endfacet
  facet normal 0 0 1
    outer loop
      vertex 9.84128 16.9458 1
      vertex 4.66353 21.5729 1
      vertex 5.93707 18.3732 1
    endloop
  endfacet
  facet normal 0 0 1
    outer loop
      vertex 1.73141 19.0397 1
      vertex 4.66353 21.5729 1
      vertex 1.73141 21.5729 1
    endloop
  endfacet
  facet normal 0 0 1
    outer loop
      vertex 4.66353 21.5729 1
      vertex 1.73141 19.0397 1
      vertex 5.93707 18.3732 1
    endloop
  endfacet
  facet normal 0 0 1
    outer loop
      vertex 29.337 -14.6812 1
      vertex 22.5 -38.9711 1
      vertex 30.1109 -33.4415 1
    endloop
  endfacet
  facet normal 0 0 1
    outer loop
      vertex 29.337 -14.6812 1
      vertex 13.9058 -42.7975 1
      vertex 22.5 -38.9711 1
    endloop
  endfacet
  facet normal 0 0 1
    outer loop
      vertex 29.337 -14.6812 1
      vertex 10 -43.6277 1
      vertex 13.9058 -42.7975 1
    endloop
  endfacet
  facet normal -0 0 1
    outer loop
      vertex 1.24698 -61.4363 1
      vertex 10 -63 1
      vertex 10 -43.6277 1
    endloop
  endfacet
  facet normal 0 -0 1
    outer loop
      vertex 2 -63 1
      vertex 10 -63 1
      vertex 1.24698 -61.4363 1
    endloop
  endfacet
  facet normal 0 0 1
    outer loop
      vertex 10 -63 1
      vertex 2 -63 1
      vertex 9.78148 -65.0791 1
    endloop
  endfacet
  facet normal -0 0 1
    outer loop
      vertex 1.24698 -64.5637 1
      vertex 9.13545 -67.0674 1
      vertex 2 -63 1
    endloop
  endfacet
  facet normal 0 0 1
    outer loop
      vertex 9.13545 -67.0674 1
      vertex 1.24698 -64.5637 1
      vertex 8.09017 -68.8779 1
    endloop
  endfacet
  facet normal 0 0 1
    outer loop
      vertex 8.09017 -68.8779 1
      vertex 1.24698 -64.5637 1
      vertex 6.69131 -70.4314 1
    endloop
  endfacet
  facet normal 0 0 1
    outer loop
      vertex 6.69131 -70.4314 1
      vertex 1.24698 -64.5637 1
      vertex 5 -71.6603 1
    endloop
  endfacet
  facet normal 0 0 1
    outer loop
      vertex 9.78148 -65.0791 1
      vertex 2 -63 1
      vertex 9.13545 -67.0674 1
    endloop
  endfacet
  facet normal 0 0 1
    outer loop
      vertex 10 -43.6277 1
      vertex -0.445042 -61.0501 1
      vertex 1.24698 -61.4363 1
    endloop
  endfacet
  facet normal -0 0 1
    outer loop
      vertex -10 -43.6277 1
      vertex -0.445042 -61.0501 1
      vertex 10 -43.6277 1
    endloop
  endfacet
  facet normal -0 0 1
    outer loop
      vertex -10 -63 1
      vertex -1.80194 -63.8678 1
      vertex -1.80194 -62.1322 1
    endloop
  endfacet
  facet normal 0 0 1
    outer loop
      vertex -0.445042 -64.9499 1
      vertex -5 -71.6603 1
      vertex -3.09017 -72.5106 1
    endloop
  endfacet
  facet normal 0 0 1
    outer loop
      vertex -0.445042 -64.9499 1
      vertex -6.69131 -70.4314 1
      vertex -5 -71.6603 1
    endloop
  endfacet
  facet normal 0 0 1
    outer loop
      vertex -1.80194 -63.8678 1
      vertex -8.09017 -68.8779 1
      vertex -6.69131 -70.4314 1
    endloop
  endfacet
  facet normal 0 0 1
    outer loop
      vertex -10 -63 1
      vertex -0.445042 -61.0501 1
      vertex -10 -43.6277 1
    endloop
  endfacet
  facet normal 0 0 1
    outer loop
      vertex -10 -43.6277 1
      vertex 10 -43.6277 1
      vertex 29.337 -14.6812 1
    endloop
  endfacet
  facet normal 0 0 1
    outer loop
      vertex -0.445042 -61.0501 1
      vertex -10 -63 1
      vertex -1.80194 -62.1322 1
    endloop
  endfacet
  facet normal 0 0 1
    outer loop
      vertex -1.80194 -63.8678 1
      vertex -9.13545 -67.0674 1
      vertex -8.09017 -68.8779 1
    endloop
  endfacet
  facet normal 0 0 1
    outer loop
      vertex -1.80194 -63.8678 1
      vertex -9.78148 -65.0791 1
      vertex -9.13545 -67.0674 1
    endloop
  endfacet
  facet normal -0 0 1
    outer loop
      vertex -29.337 -14.6812 1
      vertex -10 -43.6277 1
      vertex 29.337 -14.6812 1
    endloop
  endfacet
  facet normal 0 0 1
    outer loop
      vertex -10 -43.6277 1
      vertex -29.337 -14.6812 1
      vertex -13.9058 -42.7975 1
    endloop
  endfacet
  facet normal 0 0 1
    outer loop
      vertex -13.9058 -42.7975 1
      vertex -29.337 -14.6812 1
      vertex -22.5 -38.9711 1
    endloop
  endfacet
  facet normal 0 0 1
    outer loop
      vertex -29.337 -14.6812 1
      vertex -30.1109 -33.4415 1
      vertex -22.5 -38.9711 1
    endloop
  endfacet
  facet normal 0 0 1
    outer loop
      vertex -24.9875 -5.77946 1
      vertex -45 0 1
      vertex -25.2793 -6.45329 1
    endloop
  endfacet
  facet normal 0 -0 1
    outer loop
      vertex -44.0166 -9.35603 1
      vertex -25.2793 -6.45329 1
      vertex -45 0 1
    endloop
  endfacet
  facet normal 0 0 1
    outer loop
      vertex -29.337 -14.6812 1
      vertex -36.4058 -26.4503 1
      vertex -30.1109 -33.4415 1
    endloop
  endfacet
  facet normal 0 0 1
    outer loop
      vertex -25.2793 -6.45329 1
      vertex -44.0166 -9.35603 1
      vertex -28.1649 -11.5779 1
    endloop
  endfacet
  facet normal 0 0 1
    outer loop
      vertex -29.337 -14.6812 1
      vertex -41.1095 -18.3031 1
      vertex -36.4058 -26.4503 1
    endloop
  endfacet
  facet normal 0 0 1
    outer loop
      vertex -28.1649 -11.5779 1
      vertex -44.0166 -9.35603 1
      vertex -29.0242 -12.9927 1
    endloop
  endfacet
  facet normal 0 0 1
    outer loop
      vertex -29.0242 -12.9927 1
      vertex -41.1095 -18.3031 1
      vertex -29.337 -14.6812 1
    endloop
  endfacet
  facet normal 0 -0 1
    outer loop
      vertex -41.1095 -18.3031 1
      vertex -29.0242 -12.9927 1
      vertex -44.0166 -9.35603 1
    endloop
  endfacet
  facet normal 0 0 1
    outer loop
      vertex 28.3539 -11.8013 1
      vertex 25.8715 -7.09563 1
      vertex 27.2564 -10.777 1
    endloop
  endfacet
  facet normal -0 0 1
    outer loop
      vertex 25.8715 -9.87531 1
      vertex 27.2564 -10.777 1
      vertex 25.8715 -7.09563 1
    endloop
  endfacet
  facet normal 0 0 1
    outer loop
      vertex 27.2564 -10.777 1
      vertex 25.8715 -9.87531 1
      vertex 25.8715 -10.1445 1
    endloop
  endfacet
  facet normal 0 0 1
    outer loop
      vertex 4.70378 44.7535 1
      vertex -4.01035 24.6812 1
      vertex 4.66353 24.6812 1
    endloop
  endfacet
  facet normal -0 0 1
    outer loop
      vertex -13.9058 42.7975 1
      vertex -4.01035 24.6812 1
      vertex -4.70378 44.7535 1
    endloop
  endfacet
  facet normal -0 0 1
    outer loop
      vertex -4.70378 44.7535 1
      vertex -4.01035 24.6812 1
      vertex 4.70378 44.7535 1
    endloop
  endfacet
  facet normal -0 0 1
    outer loop
      vertex -4.01035 21.5729 1
      vertex -1.14023 19.0335 1
      vertex -1.14023 21.5729 1
    endloop
  endfacet
  facet normal 0 0 1
    outer loop
      vertex -4.01035 21.5729 1
      vertex -5.36224 18.3502 1
      vertex -1.14023 19.0335 1
    endloop
  endfacet
  facet normal -0 0 1
    outer loop
      vertex -22.5 38.9711 1
      vertex -4.01035 24.6812 1
      vertex -13.9058 42.7975 1
    endloop
  endfacet
  facet normal 0 -0 1
    outer loop
      vertex -9.27403 16.9125 1
      vertex -4.01035 24.6812 1
      vertex -22.5 38.9711 1
    endloop
  endfacet
  facet normal 0 0 1
    outer loop
      vertex -4.01035 21.5729 1
      vertex -9.27403 16.9125 1
      vertex -5.36224 18.3502 1
    endloop
  endfacet
  facet normal 0 0 1
    outer loop
      vertex -4.01035 24.6812 1
      vertex -9.27403 16.9125 1
      vertex -4.01035 21.5729 1
    endloop
  endfacet
  facet normal 0 0 1
    outer loop
      vertex -9.27403 16.9125 1
      vertex -22.5 38.9711 1
      vertex -12.7977 14.801 1
    endloop
  endfacet
  facet normal -0 0 1
    outer loop
      vertex -30.1109 33.4415 1
      vertex -12.7977 14.801 1
      vertex -22.5 38.9711 1
    endloop
  endfacet
  facet normal 0 0 1
    outer loop
      vertex -12.7977 14.801 1
      vertex -30.1109 33.4415 1
      vertex -15.8554 12.0962 1
    endloop
  endfacet
  facet normal -0 0 1
    outer loop
      vertex -36.4058 26.4503 1
      vertex -15.8554 12.0962 1
      vertex -30.1109 33.4415 1
    endloop
  endfacet
  facet normal 0 0 1
    outer loop
      vertex -24.312 -5.48901 1
      vertex -21.8682 -3.04576 1
      vertex -21.4534 1.22708 1
    endloop
  endfacet
  facet normal 0 0 1
    outer loop
      vertex -15.8554 12.0962 1
      vertex -36.4058 26.4503 1
      vertex -18.3691 8.87856 1
    endloop
  endfacet
  facet normal -0 0 1
    outer loop
      vertex -41.1095 18.3031 1
      vertex -18.3691 8.87856 1
      vertex -36.4058 26.4503 1
    endloop
  endfacet
  facet normal 0 0 1
    outer loop
      vertex -18.3691 8.87856 1
      vertex -41.1095 18.3031 1
      vertex -20.2611 5.22867 1
    endloop
  endfacet
  facet normal 0 -0 1
    outer loop
      vertex -24.312 -5.48901 1
      vertex -21.4534 1.22708 1
      vertex -24.9875 -5.77946 1
    endloop
  endfacet
  facet normal 0 0 1
    outer loop
      vertex -22.0585 -4.002 1
      vertex -24.312 -5.48901 1
      vertex -22.5794 -4.77803 1
    endloop
  endfacet
  facet normal 0 0 1
    outer loop
      vertex -22.5794 -4.77803 1
      vertex -24.312 -5.48901 1
      vertex -23.3556 -5.29875 1
    endloop
  endfacet
  facet normal 0 0 1
    outer loop
      vertex -21.8682 -3.04576 1
      vertex -24.312 -5.48901 1
      vertex -22.0585 -4.002 1
    endloop
  endfacet
  facet normal 0 0 1
    outer loop
      vertex -26.8772 -10.5504 1
      vertex -25.2793 -7.07962 1
      vertex -25.2793 -6.45329 1
    endloop
  endfacet
  facet normal 0 0 1
    outer loop
      vertex -25.2793 -7.07962 1
      vertex -26.8772 -10.5504 1
      vertex -25.2793 -9.90631 1
    endloop
  endfacet
  facet normal 0 0 1
    outer loop
      vertex -25.2793 -9.90631 1
      vertex -26.8772 -10.5504 1
      vertex -25.2793 -10.0241 1
    endloop
  endfacet
  facet normal -0 0 1
    outer loop
      vertex -44.0166 9.35603 1
      vertex -20.2611 5.22867 1
      vertex -41.1095 18.3031 1
    endloop
  endfacet
  facet normal 0 0 1
    outer loop
      vertex -20.2611 5.22867 1
      vertex -44.0166 9.35603 1
      vertex -21.4534 1.22708 1
    endloop
  endfacet
  facet normal 0 0 1
    outer loop
      vertex -25.2793 -6.45329 1
      vertex -28.1649 -11.5779 1
      vertex -26.8772 -10.5504 1
    endloop
  endfacet
  facet normal 0 0 1
    outer loop
      vertex -45 0 1
      vertex -21.4534 1.22708 1
      vertex -44.0166 9.35603 1
    endloop
  endfacet
  facet normal 0 0 1
    outer loop
      vertex -21.4534 1.22708 1
      vertex -45 0 1
      vertex -24.9875 -5.77946 1
    endloop
  endfacet
  facet normal -0.406737 0.913545 0
    outer loop
      vertex -13.9058 42.7975 0
      vertex -22.5 38.9711 1
      vertex -13.9058 42.7975 1
    endloop
  endfacet
  facet normal -0.406737 0.913545 0
    outer loop
      vertex -22.5 38.9711 1
      vertex -13.9058 42.7975 0
      vertex -22.5 38.9711 0
    endloop
  endfacet
  facet normal 0.994522 -0.104529 0
    outer loop
      vertex 44.0166 -9.35603 1
      vertex 45 0 0
      vertex 45 0 1
    endloop
  endfacet
  facet normal 0.994522 -0.104529 0
    outer loop
      vertex 45 0 0
      vertex 44.0166 -9.35603 1
      vertex 44.0166 -9.35603 0
    endloop
  endfacet
  facet normal 0.207912 -0.978148 0
    outer loop
      vertex 10 -43.6277 0
      vertex 13.9058 -42.7975 1
      vertex 10 -43.6277 1
    endloop
  endfacet
  facet normal 0.207912 -0.978148 0
    outer loop
      vertex 13.9058 -42.7975 1
      vertex 10 -43.6277 0
      vertex 13.9058 -42.7975 0
    endloop
  endfacet
  facet normal 0.866026 -0.5 0
    outer loop
      vertex 36.4058 -26.4503 1
      vertex 41.1095 -18.3031 0
      vertex 41.1095 -18.3031 1
    endloop
  endfacet
  facet normal 0.866026 -0.5 0
    outer loop
      vertex 41.1095 -18.3031 0
      vertex 36.4058 -26.4503 1
      vertex 36.4058 -26.4503 0
    endloop
  endfacet
  facet normal -0.866026 -0.5 0
    outer loop
      vertex -36.4058 -26.4503 0
      vertex -41.1095 -18.3031 1
      vertex -41.1095 -18.3031 0
    endloop
  endfacet
  facet normal -0.866026 -0.5 0
    outer loop
      vertex -41.1095 -18.3031 1
      vertex -36.4058 -26.4503 0
      vertex -36.4058 -26.4503 1
    endloop
  endfacet
  facet normal -0.743145 -0.669131 0
    outer loop
      vertex -30.1109 -33.4415 0
      vertex -36.4058 -26.4503 1
      vertex -36.4058 -26.4503 0
    endloop
  endfacet
  facet normal -0.743145 -0.669131 0
    outer loop
      vertex -36.4058 -26.4503 1
      vertex -30.1109 -33.4415 0
      vertex -30.1109 -33.4415 1
    endloop
  endfacet
  facet normal 0.587785 -0.809017 0
    outer loop
      vertex 22.5 -38.9711 0
      vertex 30.1109 -33.4415 1
      vertex 22.5 -38.9711 1
    endloop
  endfacet
  facet normal 0.587785 -0.809017 0
    outer loop
      vertex 30.1109 -33.4415 1
      vertex 22.5 -38.9711 0
      vertex 30.1109 -33.4415 0
    endloop
  endfacet
  facet normal 0.406737 -0.913545 0
    outer loop
      vertex 13.9058 -42.7975 0
      vertex 22.5 -38.9711 1
      vertex 13.9058 -42.7975 1
    endloop
  endfacet
  facet normal 0.406737 -0.913545 0
    outer loop
      vertex 22.5 -38.9711 1
      vertex 13.9058 -42.7975 0
      vertex 22.5 -38.9711 0
    endloop
  endfacet
  facet normal -0.207912 -0.978148 0
    outer loop
      vertex -13.9058 -42.7975 0
      vertex -10 -43.6277 1
      vertex -13.9058 -42.7975 1
    endloop
  endfacet
  facet normal -0.207912 -0.978148 -0
    outer loop
      vertex -10 -43.6277 1
      vertex -13.9058 -42.7975 0
      vertex -10 -43.6277 0
    endloop
  endfacet
  facet normal -0.951057 -0.309017 0
    outer loop
      vertex -41.1095 -18.3031 0
      vertex -44.0166 -9.35603 1
      vertex -44.0166 -9.35603 0
    endloop
  endfacet
  facet normal -0.951057 -0.309017 0
    outer loop
      vertex -44.0166 -9.35603 1
      vertex -41.1095 -18.3031 0
      vertex -41.1095 -18.3031 1
    endloop
  endfacet
  facet normal -0.994522 -0.104529 0
    outer loop
      vertex -44.0166 -9.35603 0
      vertex -45 0 1
      vertex -45 0 0
    endloop
  endfacet
  facet normal -0.994522 -0.104529 0
    outer loop
      vertex -45 0 1
      vertex -44.0166 -9.35603 0
      vertex -44.0166 -9.35603 1
    endloop
  endfacet
  facet normal 0.743145 -0.669131 0
    outer loop
      vertex 30.1109 -33.4415 1
      vertex 36.4058 -26.4503 0
      vertex 36.4058 -26.4503 1
    endloop
  endfacet
  facet normal 0.743145 -0.669131 0
    outer loop
      vertex 36.4058 -26.4503 0
      vertex 30.1109 -33.4415 1
      vertex 30.1109 -33.4415 0
    endloop
  endfacet
  facet normal -0.406737 -0.913545 0
    outer loop
      vertex -22.5 -38.9711 0
      vertex -13.9058 -42.7975 1
      vertex -22.5 -38.9711 1
    endloop
  endfacet
  facet normal -0.406737 -0.913545 -0
    outer loop
      vertex -13.9058 -42.7975 1
      vertex -22.5 -38.9711 0
      vertex -13.9058 -42.7975 0
    endloop
  endfacet
  facet normal -0.587785 -0.809017 0
    outer loop
      vertex -30.1109 -33.4415 0
      vertex -22.5 -38.9711 1
      vertex -30.1109 -33.4415 1
    endloop
  endfacet
  facet normal -0.587785 -0.809017 -0
    outer loop
      vertex -22.5 -38.9711 1
      vertex -30.1109 -33.4415 0
      vertex -22.5 -38.9711 0
    endloop
  endfacet
  facet normal -1 0 0
    outer loop
      vertex -10 -63 0
      vertex -10 -43.6277 1
      vertex -10 -43.6277 0
    endloop
  endfacet
  facet normal -1 -0 0
    outer loop
      vertex -10 -43.6277 1
      vertex -10 -63 0
      vertex -10 -63 1
    endloop
  endfacet
  facet normal 1 -0 0
    outer loop
      vertex 10 -63 1
      vertex 10 -43.6277 0
      vertex 10 -43.6277 1
    endloop
  endfacet
  facet normal 1 0 0
    outer loop
      vertex 10 -43.6277 0
      vertex 10 -63 1
      vertex 10 -63 0
    endloop
  endfacet
  facet normal -0.900969 -0.433884 0
    outer loop
      vertex 2 -63 0
      vertex 1.24698 -61.4363 1
      vertex 1.24698 -61.4363 0
    endloop
  endfacet
  facet normal -0.900969 -0.433884 0
    outer loop
      vertex 1.24698 -61.4363 1
      vertex 2 -63 0
      vertex 2 -63 1
    endloop
  endfacet
  facet normal 1 -0 0
    outer loop
      vertex -1.80194 -63.8678 1
      vertex -1.80194 -62.1322 0
      vertex -1.80194 -62.1322 1
    endloop
  endfacet
  facet normal 1 0 0
    outer loop
      vertex -1.80194 -62.1322 0
      vertex -1.80194 -63.8678 1
      vertex -1.80194 -63.8678 0
    endloop
  endfacet
  facet normal 0.62349 -0.781831 0
    outer loop
      vertex -1.80194 -62.1322 0
      vertex -0.445042 -61.0501 1
      vertex -1.80194 -62.1322 1
    endloop
  endfacet
  facet normal 0.62349 -0.781831 0
    outer loop
      vertex -0.445042 -61.0501 1
      vertex -1.80194 -62.1322 0
      vertex -0.445042 -61.0501 0
    endloop
  endfacet
  facet normal -0.222521 -0.974928 0
    outer loop
      vertex -0.445042 -61.0501 0
      vertex 1.24698 -61.4363 1
      vertex -0.445042 -61.0501 1
    endloop
  endfacet
  facet normal -0.222521 -0.974928 -0
    outer loop
      vertex 1.24698 -61.4363 1
      vertex -0.445042 -61.0501 0
      vertex 1.24698 -61.4363 0
    endloop
  endfacet
  facet normal 0.994522 -0.104529 0
    outer loop
      vertex 9.78148 -65.0791 1
      vertex 10 -63 0
      vertex 10 -63 1
    endloop
  endfacet
  facet normal 0.994522 -0.104529 0
    outer loop
      vertex 10 -63 0
      vertex 9.78148 -65.0791 1
      vertex 9.78148 -65.0791 0
    endloop
  endfacet
  facet normal 0.951057 -0.309017 0
    outer loop
      vertex 9.13545 -67.0674 1
      vertex 9.78148 -65.0791 0
      vertex 9.78148 -65.0791 1
    endloop
  endfacet
  facet normal 0.951057 -0.309017 0
    outer loop
      vertex 9.78148 -65.0791 0
      vertex 9.13545 -67.0674 1
      vertex 9.13545 -67.0674 0
    endloop
  endfacet
  facet normal -0.866025 -0.5 0
    outer loop
      vertex -8.09017 -68.8779 0
      vertex -9.13545 -67.0674 1
      vertex -9.13545 -67.0674 0
    endloop
  endfacet
  facet normal -0.866025 -0.5 0
    outer loop
      vertex -9.13545 -67.0674 1
      vertex -8.09017 -68.8779 0
      vertex -8.09017 -68.8779 1
    endloop
  endfacet
  facet normal 0.587785 -0.809017 0
    outer loop
      vertex 5 -71.6603 0
      vertex 6.69131 -70.4314 1
      vertex 5 -71.6603 1
    endloop
  endfacet
  facet normal 0.587785 -0.809017 0
    outer loop
      vertex 6.69131 -70.4314 1
      vertex 5 -71.6603 0
      vertex 6.69131 -70.4314 0
    endloop
  endfacet
  facet normal 0.866025 -0.5 0
    outer loop
      vertex 8.09017 -68.8779 1
      vertex 9.13545 -67.0674 0
      vertex 9.13545 -67.0674 1
    endloop
  endfacet
  facet normal 0.866025 -0.5 0
    outer loop
      vertex 9.13545 -67.0674 0
      vertex 8.09017 -68.8779 1
      vertex 8.09017 -68.8779 0
    endloop
  endfacet
  facet normal -0.994522 -0.104529 0
    outer loop
      vertex -9.78148 -65.0791 0
      vertex -10 -63 1
      vertex -10 -63 0
    endloop
  endfacet
  facet normal -0.994522 -0.104529 0
    outer loop
      vertex -10 -63 1
      vertex -9.78148 -65.0791 0
      vertex -9.78148 -65.0791 1
    endloop
  endfacet
  facet normal 0.207912 -0.978148 0
    outer loop
      vertex 1.04528 -72.9452 0
      vertex 3.09017 -72.5106 1
      vertex 1.04528 -72.9452 1
    endloop
  endfacet
  facet normal 0.207912 -0.978148 0
    outer loop
      vertex 3.09017 -72.5106 1
      vertex 1.04528 -72.9452 0
      vertex 3.09017 -72.5106 0
    endloop
  endfacet
  facet normal 0.406737 -0.913545 0
    outer loop
      vertex 3.09017 -72.5106 0
      vertex 5 -71.6603 1
      vertex 3.09017 -72.5106 1
    endloop
  endfacet
  facet normal 0.406737 -0.913545 0
    outer loop
      vertex 5 -71.6603 1
      vertex 3.09017 -72.5106 0
      vertex 5 -71.6603 0
    endloop
  endfacet
  facet normal -0.207912 -0.978148 0
    outer loop
      vertex -3.09017 -72.5106 0
      vertex -1.04528 -72.9452 1
      vertex -3.09017 -72.5106 1
    endloop
  endfacet
  facet normal -0.207912 -0.978148 -0
    outer loop
      vertex -1.04528 -72.9452 1
      vertex -3.09017 -72.5106 0
      vertex -1.04528 -72.9452 0
    endloop
  endfacet
  facet normal 0 -1 0
    outer loop
      vertex -1.04528 -72.9452 0
      vertex 1.04528 -72.9452 1
      vertex -1.04528 -72.9452 1
    endloop
  endfacet
  facet normal 0 -1 -0
    outer loop
      vertex 1.04528 -72.9452 1
      vertex -1.04528 -72.9452 0
      vertex 1.04528 -72.9452 0
    endloop
  endfacet
  facet normal -0.951057 -0.309017 0
    outer loop
      vertex -9.13545 -67.0674 0
      vertex -9.78148 -65.0791 1
      vertex -9.78148 -65.0791 0
    endloop
  endfacet
  facet normal -0.951057 -0.309017 0
    outer loop
      vertex -9.78148 -65.0791 1
      vertex -9.13545 -67.0674 0
      vertex -9.13545 -67.0674 1
    endloop
  endfacet
  facet normal -0.743145 -0.669131 0
    outer loop
      vertex -6.69131 -70.4314 0
      vertex -8.09017 -68.8779 1
      vertex -8.09017 -68.8779 0
    endloop
  endfacet
  facet normal -0.743145 -0.669131 0
    outer loop
      vertex -8.09017 -68.8779 1
      vertex -6.69131 -70.4314 0
      vertex -6.69131 -70.4314 1
    endloop
  endfacet
  facet normal 0.743145 -0.669131 0
    outer loop
      vertex 6.69131 -70.4314 1
      vertex 8.09017 -68.8779 0
      vertex 8.09017 -68.8779 1
    endloop
  endfacet
  facet normal 0.743145 -0.669131 0
    outer loop
      vertex 8.09017 -68.8779 0
      vertex 6.69131 -70.4314 1
      vertex 6.69131 -70.4314 0
    endloop
  endfacet
  facet normal -0.406737 -0.913545 0
    outer loop
      vertex -5 -71.6603 0
      vertex -3.09017 -72.5106 1
      vertex -5 -71.6603 1
    endloop
  endfacet
  facet normal -0.406737 -0.913545 -0
    outer loop
      vertex -3.09017 -72.5106 1
      vertex -5 -71.6603 0
      vertex -3.09017 -72.5106 0
    endloop
  endfacet
  facet normal -0.587785 -0.809017 0
    outer loop
      vertex -6.69131 -70.4314 0
      vertex -5 -71.6603 1
      vertex -6.69131 -70.4314 1
    endloop
  endfacet
  facet normal -0.587785 -0.809017 -0
    outer loop
      vertex -5 -71.6603 1
      vertex -6.69131 -70.4314 0
      vertex -5 -71.6603 0
    endloop
  endfacet
  facet normal 0.623491 0.78183 -0
    outer loop
      vertex -0.445042 -64.9499 0
      vertex -1.80194 -63.8678 1
      vertex -0.445042 -64.9499 1
    endloop
  endfacet
  facet normal 0.623491 0.78183 0
    outer loop
      vertex -1.80194 -63.8678 1
      vertex -0.445042 -64.9499 0
      vertex -1.80194 -63.8678 0
    endloop
  endfacet
  facet normal -0.900968 0.433885 0
    outer loop
      vertex 1.24698 -64.5637 0
      vertex 2 -63 1
      vertex 2 -63 0
    endloop
  endfacet
  facet normal -0.900968 0.433885 0
    outer loop
      vertex 2 -63 1
      vertex 1.24698 -64.5637 0
      vertex 1.24698 -64.5637 1
    endloop
  endfacet
  facet normal -0.222525 0.974927 0
    outer loop
      vertex 1.24698 -64.5637 0
      vertex -0.445042 -64.9499 1
      vertex 1.24698 -64.5637 1
    endloop
  endfacet
  facet normal -0.222525 0.974927 0
    outer loop
      vertex -0.445042 -64.9499 1
      vertex 1.24698 -64.5637 0
      vertex -0.445042 -64.9499 0
    endloop
  endfacet
endsolid OpenSCAD_Model
