solid OpenSCAD_Model
  facet normal 0.866025 -0.5 0
    outer loop
      vertex 62.5623 -10.5801 49
      vertex 64.4438 -7.32126 41
      vertex 64.4438 -7.32126 49
    endloop
  endfacet
  facet normal 0.866025 -0.5 0
    outer loop
      vertex 64.4438 -7.32126 41
      vertex 62.5623 -10.5801 49
      vertex 62.5623 -10.5801 41
    endloop
  endfacet
  facet normal 0 -1 0
    outer loop
      vertex 46.1185 -17.9014 41
      vertex 49.8815 -17.9014 49
      vertex 46.1185 -17.9014 49
    endloop
  endfacet
  facet normal 0 -1 -0
    outer loop
      vertex 49.8815 -17.9014 49
      vertex 46.1185 -17.9014 41
      vertex 49.8815 -17.9014 41
    endloop
  endfacet
  facet normal -0.951057 -0.309017 0
    outer loop
      vertex 31.5562 -7.32126 41
      vertex 30.3933 -3.74241 49
      vertex 30.3933 -3.74241 41
    endloop
  endfacet
  facet normal -0.951057 -0.309017 0
    outer loop
      vertex 30.3933 -3.74241 49
      vertex 31.5562 -7.32126 41
      vertex 31.5562 -7.32126 49
    endloop
  endfacet
  facet normal 0.743145 -0.669131 0
    outer loop
      vertex 60.0443 -13.3766 49
      vertex 62.5623 -10.5801 41
      vertex 62.5623 -10.5801 49
    endloop
  endfacet
  facet normal 0.743145 -0.669131 0
    outer loop
      vertex 62.5623 -10.5801 41
      vertex 60.0443 -13.3766 49
      vertex 60.0443 -13.3766 41
    endloop
  endfacet
  facet normal 0.207912 -0.978148 0
    outer loop
      vertex 49.8815 -17.9014 41
      vertex 53.5623 -17.119 49
      vertex 49.8815 -17.9014 49
    endloop
  endfacet
  facet normal 0.207912 -0.978148 0
    outer loop
      vertex 53.5623 -17.119 49
      vertex 49.8815 -17.9014 41
      vertex 53.5623 -17.119 41
    endloop
  endfacet
  facet normal -0.406736 -0.913546 0
    outer loop
      vertex 39 -15.5885 41
      vertex 42.4377 -17.119 49
      vertex 39 -15.5885 49
    endloop
  endfacet
  facet normal -0.406736 -0.913546 -0
    outer loop
      vertex 42.4377 -17.119 49
      vertex 39 -15.5885 41
      vertex 42.4377 -17.119 41
    endloop
  endfacet
  facet normal 0.994522 0.104528 -1.2801e-17
    outer loop
      vertex 66 5.51091e-15 45
      vertex 65.6067 3.74241 49
      vertex 66 6.00077e-15 49
    endloop
  endfacet
  facet normal 0.994522 0.104528 0
    outer loop
      vertex 65.6067 3.74241 49
      vertex 66 5.51091e-15 45
      vertex 65.6067 3.74241 41
    endloop
  endfacet
  facet normal 0.994522 0.104528 -1.2801e-17
    outer loop
      vertex 66 5.38845e-15 44
      vertex 65.6067 3.74241 41
      vertex 66 5.51091e-15 45
    endloop
  endfacet
  facet normal 0.994522 0.104528 0
    outer loop
      vertex 65.6067 3.74241 41
      vertex 66 5.38845e-15 44
      vertex 66 5.02105e-15 41
    endloop
  endfacet
  facet normal 0.207912 0.978148 -0
    outer loop
      vertex 53.5623 17.119 41
      vertex 49.8815 17.9014 49
      vertex 53.5623 17.119 49
    endloop
  endfacet
  facet normal 0.207912 0.978148 0
    outer loop
      vertex 49.8815 17.9014 49
      vertex 53.5623 17.119 41
      vertex 49.8815 17.9014 41
    endloop
  endfacet
  facet normal 0.587786 -0.809017 0
    outer loop
      vertex 57 -15.5885 41
      vertex 60.0443 -13.3766 49
      vertex 57 -15.5885 49
    endloop
  endfacet
  facet normal 0.587786 -0.809017 0
    outer loop
      vertex 60.0443 -13.3766 49
      vertex 57 -15.5885 41
      vertex 60.0443 -13.3766 41
    endloop
  endfacet
  facet normal 0.406736 -0.913546 0
    outer loop
      vertex 53.5623 -17.119 41
      vertex 57 -15.5885 49
      vertex 53.5623 -17.119 49
    endloop
  endfacet
  facet normal 0.406736 -0.913546 0
    outer loop
      vertex 57 -15.5885 49
      vertex 53.5623 -17.119 41
      vertex 57 -15.5885 41
    endloop
  endfacet
  facet normal -0.994522 -0.104529 0
    outer loop
      vertex 30.3933 -3.74241 41
      vertex 30 5.51091e-15 45
      vertex 30 5.38845e-15 44
    endloop
  endfacet
  facet normal -0.994522 -0.104529 0
    outer loop
      vertex 30.3933 -3.74241 41
      vertex 30 5.38845e-15 44
      vertex 30 5.02105e-15 41
    endloop
  endfacet
  facet normal -0.994522 -0.104529 0
    outer loop
      vertex 30 5.51091e-15 45
      vertex 30.3933 -3.74241 41
      vertex 30.3933 -3.74241 49
    endloop
  endfacet
  facet normal -0.994522 -0.104529 1.28011e-17
    outer loop
      vertex 30 5.51091e-15 45
      vertex 30.3933 -3.74241 49
      vertex 30 6.00077e-15 49
    endloop
  endfacet
  facet normal -0.866025 -0.5 0
    outer loop
      vertex 33.4377 -10.5801 41
      vertex 31.5562 -7.32126 49
      vertex 31.5562 -7.32126 41
    endloop
  endfacet
  facet normal -0.866025 -0.5 0
    outer loop
      vertex 31.5562 -7.32126 49
      vertex 33.4377 -10.5801 41
      vertex 33.4377 -10.5801 49
    endloop
  endfacet
  facet normal -0.587786 -0.809017 0
    outer loop
      vertex 35.9557 -13.3766 41
      vertex 39 -15.5885 49
      vertex 35.9557 -13.3766 49
    endloop
  endfacet
  facet normal -0.587786 -0.809017 -0
    outer loop
      vertex 39 -15.5885 49
      vertex 35.9557 -13.3766 41
      vertex 39 -15.5885 41
    endloop
  endfacet
  facet normal -0.207912 -0.978148 0
    outer loop
      vertex 42.4377 -17.119 41
      vertex 46.1185 -17.9014 49
      vertex 42.4377 -17.119 49
    endloop
  endfacet
  facet normal -0.207912 -0.978148 -0
    outer loop
      vertex 46.1185 -17.9014 49
      vertex 42.4377 -17.119 41
      vertex 46.1185 -17.9014 41
    endloop
  endfacet
  facet normal -0.743145 -0.669131 0
    outer loop
      vertex 35.9557 -13.3766 41
      vertex 33.4377 -10.5801 49
      vertex 33.4377 -10.5801 41
    endloop
  endfacet
  facet normal -0.743145 -0.669131 0
    outer loop
      vertex 33.4377 -10.5801 49
      vertex 35.9557 -13.3766 41
      vertex 35.9557 -13.3766 49
    endloop
  endfacet
  facet normal 0.994522 -0.104528 2.95035e-17
    outer loop
      vertex 65.6067 -3.74241 49
      vertex 66 5.51091e-15 45
      vertex 66 6.00077e-15 49
    endloop
  endfacet
  facet normal 0.994522 -0.104528 0
    outer loop
      vertex 65.6067 -3.74241 41
      vertex 66 5.51091e-15 45
      vertex 65.6067 -3.74241 49
    endloop
  endfacet
  facet normal 0.994522 -0.104528 1.2801e-17
    outer loop
      vertex 66 5.51091e-15 45
      vertex 65.6067 -3.74241 41
      vertex 66 5.38845e-15 44
    endloop
  endfacet
  facet normal 0.994522 -0.104528 1.2801e-17
    outer loop
      vertex 66 5.38845e-15 44
      vertex 65.6067 -3.74241 41
      vertex 66 5.02105e-15 41
    endloop
  endfacet
  facet normal -0.207912 0.978148 0
    outer loop
      vertex 46.1185 17.9014 41
      vertex 42.4377 17.119 49
      vertex 46.1185 17.9014 49
    endloop
  endfacet
  facet normal -0.207912 0.978148 0
    outer loop
      vertex 42.4377 17.119 49
      vertex 46.1185 17.9014 41
      vertex 42.4377 17.119 41
    endloop
  endfacet
  facet normal 0.587786 0.809017 -0
    outer loop
      vertex 60.0443 13.3766 41
      vertex 57 15.5885 49
      vertex 60.0443 13.3766 49
    endloop
  endfacet
  facet normal 0.587786 0.809017 0
    outer loop
      vertex 57 15.5885 49
      vertex 60.0443 13.3766 41
      vertex 57 15.5885 41
    endloop
  endfacet
  facet normal 0.951056 -0.309018 0
    outer loop
      vertex 64.4438 -7.32126 49
      vertex 65.6067 -3.74241 41
      vertex 65.6067 -3.74241 49
    endloop
  endfacet
  facet normal 0.951056 -0.309018 0
    outer loop
      vertex 65.6067 -3.74241 41
      vertex 64.4438 -7.32126 49
      vertex 64.4438 -7.32126 41
    endloop
  endfacet
  facet normal 0.951056 0.309018 0
    outer loop
      vertex 65.6067 3.74241 49
      vertex 64.4438 7.32126 41
      vertex 64.4438 7.32126 49
    endloop
  endfacet
  facet normal 0.951056 0.309018 0
    outer loop
      vertex 64.4438 7.32126 41
      vertex 65.6067 3.74241 49
      vertex 65.6067 3.74241 41
    endloop
  endfacet
  facet normal 0.866025 0.5 0
    outer loop
      vertex 64.4438 7.32126 49
      vertex 62.5623 10.5801 41
      vertex 62.5623 10.5801 49
    endloop
  endfacet
  facet normal 0.866025 0.5 0
    outer loop
      vertex 62.5623 10.5801 41
      vertex 64.4438 7.32126 49
      vertex 64.4438 7.32126 41
    endloop
  endfacet
  facet normal -0.994522 0.104529 0
    outer loop
      vertex 30 5.51091e-15 45
      vertex 30.3933 3.74241 49
      vertex 30.3933 3.74241 41
    endloop
  endfacet
  facet normal -0.994522 0.104529 -2.95035e-17
    outer loop
      vertex 30.3933 3.74241 49
      vertex 30 5.51091e-15 45
      vertex 30 6.00077e-15 49
    endloop
  endfacet
  facet normal -0.994522 0.104529 0
    outer loop
      vertex 30.3933 3.74241 41
      vertex 30 5.38845e-15 44
      vertex 30 5.51091e-15 45
    endloop
  endfacet
  facet normal -0.994522 0.104529 -1.28011e-17
    outer loop
      vertex 30 5.38845e-15 44
      vertex 30.3933 3.74241 41
      vertex 30 5.02105e-15 41
    endloop
  endfacet
  facet normal -0.866025 0.5 0
    outer loop
      vertex 31.5562 7.32126 41
      vertex 33.4377 10.5801 49
      vertex 33.4377 10.5801 41
    endloop
  endfacet
  facet normal -0.866025 0.5 0
    outer loop
      vertex 33.4377 10.5801 49
      vertex 31.5562 7.32126 41
      vertex 31.5562 7.32126 49
    endloop
  endfacet
  facet normal 0.743145 0.669131 0
    outer loop
      vertex 62.5623 10.5801 49
      vertex 60.0443 13.3766 41
      vertex 60.0443 13.3766 49
    endloop
  endfacet
  facet normal 0.743145 0.669131 0
    outer loop
      vertex 60.0443 13.3766 41
      vertex 62.5623 10.5801 49
      vertex 62.5623 10.5801 41
    endloop
  endfacet
  facet normal -0.406736 0.913546 0
    outer loop
      vertex 42.4377 17.119 41
      vertex 39 15.5885 49
      vertex 42.4377 17.119 49
    endloop
  endfacet
  facet normal -0.406736 0.913546 0
    outer loop
      vertex 39 15.5885 49
      vertex 42.4377 17.119 41
      vertex 39 15.5885 41
    endloop
  endfacet
  facet normal 0 1 -0
    outer loop
      vertex 49.8815 17.9014 41
      vertex 46.1185 17.9014 49
      vertex 49.8815 17.9014 49
    endloop
  endfacet
  facet normal 0 1 0
    outer loop
      vertex 46.1185 17.9014 49
      vertex 49.8815 17.9014 41
      vertex 46.1185 17.9014 41
    endloop
  endfacet
  facet normal 0 0 1
    outer loop
      vertex 65 6.00077e-15 49
      vertex 66 6.00077e-15 49
      vertex 65.6067 3.74241 49
    endloop
  endfacet
  facet normal 0 0 1
    outer loop
      vertex 66 6.00077e-15 49
      vertex 65 6.00077e-15 49
      vertex 65.6067 -3.74241 49
    endloop
  endfacet
  facet normal 0 0 1
    outer loop
      vertex 65.6067 3.74241 49
      vertex 64.6285 3.5345 49
      vertex 65 6.00077e-15 49
    endloop
  endfacet
  facet normal 0 0 1
    outer loop
      vertex 64.4438 7.32126 49
      vertex 64.6285 3.5345 49
      vertex 65.6067 3.74241 49
    endloop
  endfacet
  facet normal 0 0 1
    outer loop
      vertex 64.4438 7.32126 49
      vertex 63.5303 6.91452 49
      vertex 64.6285 3.5345 49
    endloop
  endfacet
  facet normal 0 0 1
    outer loop
      vertex 62.5623 10.5801 49
      vertex 63.5303 6.91452 49
      vertex 64.4438 7.32126 49
    endloop
  endfacet
  facet normal 0 0 1
    outer loop
      vertex 62.5623 10.5801 49
      vertex 61.7533 9.99235 49
      vertex 63.5303 6.91452 49
    endloop
  endfacet
  facet normal 0 0 1
    outer loop
      vertex 60.0443 13.3766 49
      vertex 61.7533 9.99235 49
      vertex 62.5623 10.5801 49
    endloop
  endfacet
  facet normal 0 0 1
    outer loop
      vertex 60.0443 13.3766 49
      vertex 59.3752 12.6335 49
      vertex 61.7533 9.99235 49
    endloop
  endfacet
  facet normal 0 0 1
    outer loop
      vertex 57 15.5885 49
      vertex 59.3752 12.6335 49
      vertex 60.0443 13.3766 49
    endloop
  endfacet
  facet normal 0 0 1
    outer loop
      vertex 57 15.5885 49
      vertex 56.5 14.7224 49
      vertex 59.3752 12.6335 49
    endloop
  endfacet
  facet normal 0 0 1
    outer loop
      vertex 53.5623 17.119 49
      vertex 56.5 14.7224 49
      vertex 57 15.5885 49
    endloop
  endfacet
  facet normal 0 0 1
    outer loop
      vertex 53.5623 17.119 49
      vertex 53.2533 16.168 49
      vertex 56.5 14.7224 49
    endloop
  endfacet
  facet normal 0 0 1
    outer loop
      vertex 49.8815 17.9014 49
      vertex 53.2533 16.168 49
      vertex 53.5623 17.119 49
    endloop
  endfacet
  facet normal 0 0 1
    outer loop
      vertex 49.8815 17.9014 49
      vertex 49.777 16.9069 49
      vertex 53.2533 16.168 49
    endloop
  endfacet
  facet normal 0 0 1
    outer loop
      vertex 49.8815 17.9014 49
      vertex 46.223 16.9069 49
      vertex 49.777 16.9069 49
    endloop
  endfacet
  facet normal -0 0 1
    outer loop
      vertex 46.1185 17.9014 49
      vertex 46.223 16.9069 49
      vertex 49.8815 17.9014 49
    endloop
  endfacet
  facet normal 0 0 1
    outer loop
      vertex 46.1185 17.9014 49
      vertex 42.7467 16.168 49
      vertex 46.223 16.9069 49
    endloop
  endfacet
  facet normal -0 0 1
    outer loop
      vertex 42.4377 17.119 49
      vertex 42.7467 16.168 49
      vertex 46.1185 17.9014 49
    endloop
  endfacet
  facet normal 0 0 1
    outer loop
      vertex 42.4377 17.119 49
      vertex 39.5 14.7224 49
      vertex 42.7467 16.168 49
    endloop
  endfacet
  facet normal -0 0 1
    outer loop
      vertex 39 15.5885 49
      vertex 39.5 14.7224 49
      vertex 42.4377 17.119 49
    endloop
  endfacet
  facet normal 0 0 1
    outer loop
      vertex 39 15.5885 49
      vertex 36.6248 12.6335 49
      vertex 39.5 14.7224 49
    endloop
  endfacet
  facet normal -0 0 1
    outer loop
      vertex 35.9557 13.3766 49
      vertex 36.6248 12.6335 49
      vertex 39 15.5885 49
    endloop
  endfacet
  facet normal 0 0 1
    outer loop
      vertex 35.9557 13.3766 49
      vertex 34.2467 9.99235 49
      vertex 36.6248 12.6335 49
    endloop
  endfacet
  facet normal -0 0 1
    outer loop
      vertex 33.4377 10.5801 49
      vertex 34.2467 9.99235 49
      vertex 35.9557 13.3766 49
    endloop
  endfacet
  facet normal 0 0 1
    outer loop
      vertex 33.4377 10.5801 49
      vertex 32.4697 6.91452 49
      vertex 34.2467 9.99235 49
    endloop
  endfacet
  facet normal -0 0 1
    outer loop
      vertex 31.5562 7.32126 49
      vertex 32.4697 6.91452 49
      vertex 33.4377 10.5801 49
    endloop
  endfacet
  facet normal 0 0 1
    outer loop
      vertex 31.5562 7.32126 49
      vertex 31.3715 3.5345 49
      vertex 32.4697 6.91452 49
    endloop
  endfacet
  facet normal -0 0 1
    outer loop
      vertex 30.3933 3.74241 49
      vertex 31.3715 3.5345 49
      vertex 31.5562 7.32126 49
    endloop
  endfacet
  facet normal 0 0 1
    outer loop
      vertex 31.3715 3.5345 49
      vertex 30.3933 3.74241 49
      vertex 31 6.00077e-15 49
    endloop
  endfacet
  facet normal -0 0 1
    outer loop
      vertex 64.6285 -3.5345 49
      vertex 65.6067 -3.74241 49
      vertex 65 6.00077e-15 49
    endloop
  endfacet
  facet normal 0 0 1
    outer loop
      vertex 64.6285 -3.5345 49
      vertex 64.4438 -7.32126 49
      vertex 65.6067 -3.74241 49
    endloop
  endfacet
  facet normal -0 0 1
    outer loop
      vertex 63.5303 -6.91452 49
      vertex 64.4438 -7.32126 49
      vertex 64.6285 -3.5345 49
    endloop
  endfacet
  facet normal 0 0 1
    outer loop
      vertex 63.5303 -6.91452 49
      vertex 62.5623 -10.5801 49
      vertex 64.4438 -7.32126 49
    endloop
  endfacet
  facet normal -0 0 1
    outer loop
      vertex 61.7533 -9.99235 49
      vertex 62.5623 -10.5801 49
      vertex 63.5303 -6.91452 49
    endloop
  endfacet
  facet normal 0 0 1
    outer loop
      vertex 61.7533 -9.99235 49
      vertex 60.0443 -13.3766 49
      vertex 62.5623 -10.5801 49
    endloop
  endfacet
  facet normal -0 0 1
    outer loop
      vertex 59.3752 -12.6335 49
      vertex 60.0443 -13.3766 49
      vertex 61.7533 -9.99235 49
    endloop
  endfacet
  facet normal 0 0 1
    outer loop
      vertex 59.3752 -12.6335 49
      vertex 57 -15.5885 49
      vertex 60.0443 -13.3766 49
    endloop
  endfacet
  facet normal -0 0 1
    outer loop
      vertex 56.5 -14.7224 49
      vertex 57 -15.5885 49
      vertex 59.3752 -12.6335 49
    endloop
  endfacet
  facet normal 0 0 1
    outer loop
      vertex 56.5 -14.7224 49
      vertex 53.5623 -17.119 49
      vertex 57 -15.5885 49
    endloop
  endfacet
  facet normal -0 0 1
    outer loop
      vertex 53.2533 -16.168 49
      vertex 53.5623 -17.119 49
      vertex 56.5 -14.7224 49
    endloop
  endfacet
  facet normal 0 0 1
    outer loop
      vertex 53.2533 -16.168 49
      vertex 49.8815 -17.9014 49
      vertex 53.5623 -17.119 49
    endloop
  endfacet
  facet normal -0 0 1
    outer loop
      vertex 49.777 -16.9069 49
      vertex 49.8815 -17.9014 49
      vertex 53.2533 -16.168 49
    endloop
  endfacet
  facet normal -0 0 1
    outer loop
      vertex 46.223 -16.9069 49
      vertex 49.8815 -17.9014 49
      vertex 49.777 -16.9069 49
    endloop
  endfacet
  facet normal 0 0 1
    outer loop
      vertex 46.223 -16.9069 49
      vertex 46.1185 -17.9014 49
      vertex 49.8815 -17.9014 49
    endloop
  endfacet
  facet normal 0 0 1
    outer loop
      vertex 42.7467 -16.168 49
      vertex 46.1185 -17.9014 49
      vertex 46.223 -16.9069 49
    endloop
  endfacet
  facet normal 0 0 1
    outer loop
      vertex 42.7467 -16.168 49
      vertex 42.4377 -17.119 49
      vertex 46.1185 -17.9014 49
    endloop
  endfacet
  facet normal 0 0 1
    outer loop
      vertex 39.5 -14.7224 49
      vertex 42.4377 -17.119 49
      vertex 42.7467 -16.168 49
    endloop
  endfacet
  facet normal 0 0 1
    outer loop
      vertex 39.5 -14.7224 49
      vertex 39 -15.5885 49
      vertex 42.4377 -17.119 49
    endloop
  endfacet
  facet normal 0 0 1
    outer loop
      vertex 36.6248 -12.6335 49
      vertex 39 -15.5885 49
      vertex 39.5 -14.7224 49
    endloop
  endfacet
  facet normal 0 0 1
    outer loop
      vertex 36.6248 -12.6335 49
      vertex 35.9557 -13.3766 49
      vertex 39 -15.5885 49
    endloop
  endfacet
  facet normal 0 0 1
    outer loop
      vertex 34.2467 -9.99235 49
      vertex 35.9557 -13.3766 49
      vertex 36.6248 -12.6335 49
    endloop
  endfacet
  facet normal 0 0 1
    outer loop
      vertex 34.2467 -9.99235 49
      vertex 33.4377 -10.5801 49
      vertex 35.9557 -13.3766 49
    endloop
  endfacet
  facet normal 0 0 1
    outer loop
      vertex 32.4697 -6.91452 49
      vertex 33.4377 -10.5801 49
      vertex 34.2467 -9.99235 49
    endloop
  endfacet
  facet normal 0 0 1
    outer loop
      vertex 32.4697 -6.91452 49
      vertex 31.5562 -7.32126 49
      vertex 33.4377 -10.5801 49
    endloop
  endfacet
  facet normal 0 0 1
    outer loop
      vertex 31.3715 -3.5345 49
      vertex 31.5562 -7.32126 49
      vertex 32.4697 -6.91452 49
    endloop
  endfacet
  facet normal 0 0 1
    outer loop
      vertex 30.3933 -3.74241 49
      vertex 31.3715 -3.5345 49
      vertex 31 6.00077e-15 49
    endloop
  endfacet
  facet normal 0 0 1
    outer loop
      vertex 30 6.00077e-15 49
      vertex 31 6.00077e-15 49
      vertex 30.3933 3.74241 49
    endloop
  endfacet
  facet normal 0 0 1
    outer loop
      vertex 31.3715 -3.5345 49
      vertex 30.3933 -3.74241 49
      vertex 31.5562 -7.32126 49
    endloop
  endfacet
  facet normal 0 0 1
    outer loop
      vertex 31 6.00077e-15 49
      vertex 30 6.00077e-15 49
      vertex 30.3933 -3.74241 49
    endloop
  endfacet
  facet normal -0.951057 0.309017 0
    outer loop
      vertex 30.3933 3.74241 41
      vertex 31.5562 7.32126 49
      vertex 31.5562 7.32126 41
    endloop
  endfacet
  facet normal -0.951057 0.309017 0
    outer loop
      vertex 31.5562 7.32126 49
      vertex 30.3933 3.74241 41
      vertex 30.3933 3.74241 49
    endloop
  endfacet
  facet normal -0.743145 0.669131 0
    outer loop
      vertex 33.4377 10.5801 41
      vertex 35.9557 13.3766 49
      vertex 35.9557 13.3766 41
    endloop
  endfacet
  facet normal -0.743145 0.669131 0
    outer loop
      vertex 35.9557 13.3766 49
      vertex 33.4377 10.5801 41
      vertex 33.4377 10.5801 49
    endloop
  endfacet
  facet normal 0.406736 0.913546 -0
    outer loop
      vertex 57 15.5885 41
      vertex 53.5623 17.119 49
      vertex 57 15.5885 49
    endloop
  endfacet
  facet normal 0.406736 0.913546 0
    outer loop
      vertex 53.5623 17.119 49
      vertex 57 15.5885 41
      vertex 53.5623 17.119 41
    endloop
  endfacet
  facet normal -0.587786 0.809017 0
    outer loop
      vertex 39 15.5885 41
      vertex 35.9557 13.3766 49
      vertex 39 15.5885 49
    endloop
  endfacet
  facet normal -0.587786 0.809017 0
    outer loop
      vertex 35.9557 13.3766 49
      vertex 39 15.5885 41
      vertex 35.9557 13.3766 41
    endloop
  endfacet
  facet normal -0.994522 0.104528 -1.56195e-17
    outer loop
      vertex 64.6285 -3.5345 41
      vertex 65 6.00077e-15 49
      vertex 65 5.02105e-15 41
    endloop
  endfacet
  facet normal -0.994522 0.104528 0
    outer loop
      vertex 65 6.00077e-15 49
      vertex 64.6285 -3.5345 41
      vertex 64.6285 -3.5345 49
    endloop
  endfacet
  facet normal 0.994522 0.104528 -1.56195e-17
    outer loop
      vertex 31.3715 -3.5345 49
      vertex 31 5.02105e-15 41
      vertex 31 6.00077e-15 49
    endloop
  endfacet
  facet normal 0.994522 0.104528 0
    outer loop
      vertex 31 5.02105e-15 41
      vertex 31.3715 -3.5345 49
      vertex 31.3715 -3.5345 41
    endloop
  endfacet
  facet normal 0 1 -0
    outer loop
      vertex 49.777 -16.9069 41
      vertex 46.223 -16.9069 49
      vertex 49.777 -16.9069 49
    endloop
  endfacet
  facet normal 0 1 0
    outer loop
      vertex 46.223 -16.9069 49
      vertex 49.777 -16.9069 41
      vertex 46.223 -16.9069 41
    endloop
  endfacet
  facet normal 0 -1 0
    outer loop
      vertex 46.223 16.9069 41
      vertex 49.777 16.9069 49
      vertex 46.223 16.9069 49
    endloop
  endfacet
  facet normal 0 -1 -0
    outer loop
      vertex 49.777 16.9069 49
      vertex 46.223 16.9069 41
      vertex 49.777 16.9069 41
    endloop
  endfacet
  facet normal -0.743145 0.66913 0
    outer loop
      vertex 59.3752 -12.6335 41
      vertex 61.7533 -9.99235 49
      vertex 61.7533 -9.99235 41
    endloop
  endfacet
  facet normal -0.743145 0.66913 0
    outer loop
      vertex 61.7533 -9.99235 49
      vertex 59.3752 -12.6335 41
      vertex 59.3752 -12.6335 49
    endloop
  endfacet
  facet normal -0.951057 0.309017 0
    outer loop
      vertex 63.5303 -6.91452 41
      vertex 64.6285 -3.5345 49
      vertex 64.6285 -3.5345 41
    endloop
  endfacet
  facet normal -0.951057 0.309017 0
    outer loop
      vertex 64.6285 -3.5345 49
      vertex 63.5303 -6.91452 41
      vertex 63.5303 -6.91452 49
    endloop
  endfacet
  facet normal 0.587785 0.809017 -0
    outer loop
      vertex 39.5 -14.7224 41
      vertex 36.6248 -12.6335 49
      vertex 39.5 -14.7224 49
    endloop
  endfacet
  facet normal 0.587785 0.809017 0
    outer loop
      vertex 36.6248 -12.6335 49
      vertex 39.5 -14.7224 41
      vertex 36.6248 -12.6335 41
    endloop
  endfacet
  facet normal 0.207912 0.978148 -0
    outer loop
      vertex 46.223 -16.9069 41
      vertex 42.7467 -16.168 49
      vertex 46.223 -16.9069 49
    endloop
  endfacet
  facet normal 0.207912 0.978148 0
    outer loop
      vertex 42.7467 -16.168 49
      vertex 46.223 -16.9069 41
      vertex 42.7467 -16.168 41
    endloop
  endfacet
  facet normal -0.951057 -0.309017 0
    outer loop
      vertex 64.6285 3.5345 41
      vertex 63.5303 6.91452 49
      vertex 63.5303 6.91452 41
    endloop
  endfacet
  facet normal -0.951057 -0.309017 0
    outer loop
      vertex 63.5303 6.91452 49
      vertex 64.6285 3.5345 41
      vertex 64.6285 3.5345 49
    endloop
  endfacet
  facet normal -0.866025 0.5 0
    outer loop
      vertex 61.7533 -9.99235 41
      vertex 63.5303 -6.91452 49
      vertex 63.5303 -6.91452 41
    endloop
  endfacet
  facet normal -0.866025 0.5 0
    outer loop
      vertex 63.5303 -6.91452 49
      vertex 61.7533 -9.99235 41
      vertex 61.7533 -9.99235 49
    endloop
  endfacet
  facet normal -0.406736 0.913546 0
    outer loop
      vertex 56.5 -14.7224 41
      vertex 53.2533 -16.168 49
      vertex 56.5 -14.7224 49
    endloop
  endfacet
  facet normal -0.406736 0.913546 0
    outer loop
      vertex 53.2533 -16.168 49
      vertex 56.5 -14.7224 41
      vertex 53.2533 -16.168 41
    endloop
  endfacet
  facet normal -0.207912 0.978148 0
    outer loop
      vertex 53.2533 -16.168 41
      vertex 49.777 -16.9069 49
      vertex 53.2533 -16.168 49
    endloop
  endfacet
  facet normal -0.207912 0.978148 0
    outer loop
      vertex 49.777 -16.9069 49
      vertex 53.2533 -16.168 41
      vertex 49.777 -16.9069 41
    endloop
  endfacet
  facet normal -0.587785 0.809017 0
    outer loop
      vertex 59.3752 -12.6335 41
      vertex 56.5 -14.7224 49
      vertex 59.3752 -12.6335 49
    endloop
  endfacet
  facet normal -0.587785 0.809017 0
    outer loop
      vertex 56.5 -14.7224 49
      vertex 59.3752 -12.6335 41
      vertex 56.5 -14.7224 41
    endloop
  endfacet
  facet normal 0.866025 0.5 0
    outer loop
      vertex 34.2467 -9.99235 49
      vertex 32.4697 -6.91452 41
      vertex 32.4697 -6.91452 49
    endloop
  endfacet
  facet normal 0.866025 0.5 0
    outer loop
      vertex 32.4697 -6.91452 41
      vertex 34.2467 -9.99235 49
      vertex 34.2467 -9.99235 41
    endloop
  endfacet
  facet normal 0.743145 0.66913 0
    outer loop
      vertex 36.6248 -12.6335 49
      vertex 34.2467 -9.99235 41
      vertex 34.2467 -9.99235 49
    endloop
  endfacet
  facet normal 0.743145 0.66913 0
    outer loop
      vertex 34.2467 -9.99235 41
      vertex 36.6248 -12.6335 49
      vertex 36.6248 -12.6335 41
    endloop
  endfacet
  facet normal 0.951057 0.309017 0
    outer loop
      vertex 32.4697 -6.91452 49
      vertex 31.3715 -3.5345 41
      vertex 31.3715 -3.5345 49
    endloop
  endfacet
  facet normal 0.951057 0.309017 0
    outer loop
      vertex 31.3715 -3.5345 41
      vertex 32.4697 -6.91452 49
      vertex 32.4697 -6.91452 41
    endloop
  endfacet
  facet normal 0.406736 0.913546 -0
    outer loop
      vertex 42.7467 -16.168 41
      vertex 39.5 -14.7224 49
      vertex 42.7467 -16.168 49
    endloop
  endfacet
  facet normal 0.406736 0.913546 0
    outer loop
      vertex 39.5 -14.7224 49
      vertex 42.7467 -16.168 41
      vertex 39.5 -14.7224 41
    endloop
  endfacet
  facet normal -0.994522 -0.104528 0
    outer loop
      vertex 64.6285 3.5345 41
      vertex 65 6.00077e-15 49
      vertex 64.6285 3.5345 49
    endloop
  endfacet
  facet normal -0.994522 -0.104528 1.2801e-17
    outer loop
      vertex 65 6.00077e-15 49
      vertex 64.6285 3.5345 41
      vertex 65 5.02105e-15 41
    endloop
  endfacet
  facet normal -0.866025 -0.5 0
    outer loop
      vertex 63.5303 6.91452 41
      vertex 61.7533 9.99235 49
      vertex 61.7533 9.99235 41
    endloop
  endfacet
  facet normal -0.866025 -0.5 0
    outer loop
      vertex 61.7533 9.99235 49
      vertex 63.5303 6.91452 41
      vertex 63.5303 6.91452 49
    endloop
  endfacet
  facet normal 0.866025 -0.5 0
    outer loop
      vertex 32.4697 6.91452 49
      vertex 34.2467 9.99235 41
      vertex 34.2467 9.99235 49
    endloop
  endfacet
  facet normal 0.866025 -0.5 0
    outer loop
      vertex 34.2467 9.99235 41
      vertex 32.4697 6.91452 49
      vertex 32.4697 6.91452 41
    endloop
  endfacet
  facet normal 0.743145 -0.66913 0
    outer loop
      vertex 34.2467 9.99235 49
      vertex 36.6248 12.6335 41
      vertex 36.6248 12.6335 49
    endloop
  endfacet
  facet normal 0.743145 -0.66913 0
    outer loop
      vertex 36.6248 12.6335 41
      vertex 34.2467 9.99235 49
      vertex 34.2467 9.99235 41
    endloop
  endfacet
  facet normal -0.587785 -0.809017 0
    outer loop
      vertex 56.5 14.7224 41
      vertex 59.3752 12.6335 49
      vertex 56.5 14.7224 49
    endloop
  endfacet
  facet normal -0.587785 -0.809017 -0
    outer loop
      vertex 59.3752 12.6335 49
      vertex 56.5 14.7224 41
      vertex 59.3752 12.6335 41
    endloop
  endfacet
  facet normal 0.951057 -0.309017 0
    outer loop
      vertex 31.3715 3.5345 49
      vertex 32.4697 6.91452 41
      vertex 32.4697 6.91452 49
    endloop
  endfacet
  facet normal 0.951057 -0.309017 0
    outer loop
      vertex 32.4697 6.91452 41
      vertex 31.3715 3.5345 49
      vertex 31.3715 3.5345 41
    endloop
  endfacet
  facet normal 0.994522 -0.104528 0
    outer loop
      vertex 31 6.00077e-15 49
      vertex 31.3715 3.5345 41
      vertex 31.3715 3.5345 49
    endloop
  endfacet
  facet normal 0.994522 -0.104528 1.56195e-17
    outer loop
      vertex 31.3715 3.5345 41
      vertex 31 6.00077e-15 49
      vertex 31 5.02105e-15 41
    endloop
  endfacet
  facet normal -0.406737 -0.913545 0
    outer loop
      vertex 53.2533 16.168 41
      vertex 56.5 14.7224 49
      vertex 53.2533 16.168 49
    endloop
  endfacet
  facet normal -0.406737 -0.913545 -0
    outer loop
      vertex 56.5 14.7224 49
      vertex 53.2533 16.168 41
      vertex 56.5 14.7224 41
    endloop
  endfacet
  facet normal -0.207912 -0.978148 0
    outer loop
      vertex 49.777 16.9069 41
      vertex 53.2533 16.168 49
      vertex 49.777 16.9069 49
    endloop
  endfacet
  facet normal -0.207912 -0.978148 -0
    outer loop
      vertex 53.2533 16.168 49
      vertex 49.777 16.9069 41
      vertex 53.2533 16.168 41
    endloop
  endfacet
  facet normal -0.743145 -0.66913 0
    outer loop
      vertex 61.7533 9.99235 41
      vertex 59.3752 12.6335 49
      vertex 59.3752 12.6335 41
    endloop
  endfacet
  facet normal -0.743145 -0.66913 0
    outer loop
      vertex 59.3752 12.6335 49
      vertex 61.7533 9.99235 41
      vertex 61.7533 9.99235 49
    endloop
  endfacet
  facet normal 0.406737 -0.913545 0
    outer loop
      vertex 39.5 14.7224 41
      vertex 42.7467 16.168 49
      vertex 39.5 14.7224 49
    endloop
  endfacet
  facet normal 0.406737 -0.913545 0
    outer loop
      vertex 42.7467 16.168 49
      vertex 39.5 14.7224 41
      vertex 42.7467 16.168 41
    endloop
  endfacet
  facet normal 0.587785 -0.809017 0
    outer loop
      vertex 36.6248 12.6335 41
      vertex 39.5 14.7224 49
      vertex 36.6248 12.6335 49
    endloop
  endfacet
  facet normal 0.587785 -0.809017 0
    outer loop
      vertex 39.5 14.7224 49
      vertex 36.6248 12.6335 41
      vertex 39.5 14.7224 41
    endloop
  endfacet
  facet normal 0.207912 -0.978148 0
    outer loop
      vertex 42.7467 16.168 41
      vertex 46.223 16.9069 49
      vertex 42.7467 16.168 49
    endloop
  endfacet
  facet normal 0.207912 -0.978148 0
    outer loop
      vertex 46.223 16.9069 49
      vertex 42.7467 16.168 41
      vertex 46.223 16.9069 41
    endloop
  endfacet
  facet normal 0.994522 -0.104529 1.32766e-17
    outer loop
      vertex 67.563 -4.15823 40
      vertex 68 0 0
      vertex 68 4.89859e-15 40
    endloop
  endfacet
  facet normal 0.994522 -0.104529 0
    outer loop
      vertex 68 0 0
      vertex 67.563 -4.15823 40
      vertex 67.563 -4.15823 5.09237e-16
    endloop
  endfacet
  facet normal -0.994522 -0.104529 1.32766e-17
    outer loop
      vertex 28.437 -4.15823 5.09237e-16
      vertex 28 4.89859e-15 40
      vertex 28 0 0
    endloop
  endfacet
  facet normal -0.994522 -0.104529 0
    outer loop
      vertex 28 4.89859e-15 40
      vertex 28.437 -4.15823 5.09237e-16
      vertex 28.437 -4.15823 40
    endloop
  endfacet
  facet normal 0 -1 4.76837e-08
    outer loop
      vertex 45.9094 -19.8904 2.43588e-15
      vertex 50.0906 -19.8904 40
      vertex 45.9094 -19.8904 40
    endloop
  endfacet
  facet normal 0 -1 4.76837e-08
    outer loop
      vertex 50.0906 -19.8904 40
      vertex 45.9094 -19.8904 2.43588e-15
      vertex 50.0906 -19.8904 2.43588e-15
    endloop
  endfacet
  facet normal 0 1 -0
    outer loop
      vertex 50.0906 19.8904 -2.43588e-15
      vertex 45.9094 19.8904 40
      vertex 50.0906 19.8904 40
    endloop
  endfacet
  facet normal 0 1 0
    outer loop
      vertex 45.9094 19.8904 40
      vertex 50.0906 19.8904 -2.43588e-15
      vertex 45.9094 19.8904 -2.43588e-15
    endloop
  endfacet
  facet normal 0.587785 -0.809017 0
    outer loop
      vertex 58 -17.3205 2.12115e-15
      vertex 61.3826 -14.8629 40
      vertex 58 -17.3205 40
    endloop
  endfacet
  facet normal 0.587785 -0.809017 0
    outer loop
      vertex 61.3826 -14.8629 40
      vertex 58 -17.3205 2.12115e-15
      vertex 61.3826 -14.8629 1.82018e-15
    endloop
  endfacet
  facet normal 0.406737 -0.913545 0
    outer loop
      vertex 54.1803 -19.0211 2.32942e-15
      vertex 58 -17.3205 40
      vertex 54.1803 -19.0211 40
    endloop
  endfacet
  facet normal 0.406737 -0.913545 0
    outer loop
      vertex 58 -17.3205 40
      vertex 54.1803 -19.0211 2.32942e-15
      vertex 58 -17.3205 2.12115e-15
    endloop
  endfacet
  facet normal -0.743145 -0.669131 0
    outer loop
      vertex 34.6174 -14.8629 1.82018e-15
      vertex 31.8197 -11.7557 40
      vertex 31.8197 -11.7557 1.43966e-15
    endloop
  endfacet
  facet normal -0.743145 -0.669131 0
    outer loop
      vertex 31.8197 -11.7557 40
      vertex 34.6174 -14.8629 1.82018e-15
      vertex 34.6174 -14.8629 40
    endloop
  endfacet
  facet normal -0.866026 -0.5 0
    outer loop
      vertex 31.8197 -11.7557 1.43966e-15
      vertex 29.7291 -8.13473 40
      vertex 29.7291 -8.13473 9.96217e-16
    endloop
  endfacet
  facet normal -0.866026 -0.5 0
    outer loop
      vertex 29.7291 -8.13473 40
      vertex 31.8197 -11.7557 1.43966e-15
      vertex 31.8197 -11.7557 40
    endloop
  endfacet
  facet normal -0.406737 -0.913545 0
    outer loop
      vertex 38 -17.3205 40
      vertex 41.8197 -19.0211 2.32942e-15
      vertex 41.8197 -19.0211 40
    endloop
  endfacet
  facet normal -0.406737 -0.913545 0
    outer loop
      vertex 41.8197 -19.0211 2.32942e-15
      vertex 38 -17.3205 40
      vertex 38 -17.3205 2.12115e-15
    endloop
  endfacet
  facet normal 0.866026 -0.499998 0
    outer loop
      vertex 64.1803 -11.7557 40
      vertex 66.2709 -8.13473 9.96217e-16
      vertex 66.2709 -8.13473 40
    endloop
  endfacet
  facet normal 0.866026 -0.499998 0
    outer loop
      vertex 66.2709 -8.13473 9.96217e-16
      vertex 64.1803 -11.7557 40
      vertex 64.1803 -11.7557 1.43966e-15
    endloop
  endfacet
  facet normal 0.951056 -0.309018 0
    outer loop
      vertex 66.2709 -8.13473 40
      vertex 67.563 -4.15823 5.09237e-16
      vertex 67.563 -4.15823 40
    endloop
  endfacet
  facet normal 0.951056 -0.309018 0
    outer loop
      vertex 67.563 -4.15823 5.09237e-16
      vertex 66.2709 -8.13473 40
      vertex 66.2709 -8.13473 9.96217e-16
    endloop
  endfacet
  facet normal 0.743144 -0.669131 0
    outer loop
      vertex 61.3826 -14.8629 40
      vertex 64.1803 -11.7557 1.43966e-15
      vertex 64.1803 -11.7557 40
    endloop
  endfacet
  facet normal 0.743144 -0.669131 0
    outer loop
      vertex 64.1803 -11.7557 1.43966e-15
      vertex 61.3826 -14.8629 40
      vertex 61.3826 -14.8629 1.82018e-15
    endloop
  endfacet
  facet normal 0.207911 -0.978148 4.66417e-08
    outer loop
      vertex 50.0906 -19.8904 2.43588e-15
      vertex 54.1803 -19.0211 40
      vertex 50.0906 -19.8904 40
    endloop
  endfacet
  facet normal 0.207912 -0.978148 0
    outer loop
      vertex 54.1803 -19.0211 40
      vertex 50.0906 -19.8904 2.43588e-15
      vertex 54.1803 -19.0211 2.32942e-15
    endloop
  endfacet
  facet normal -0.951057 -0.309017 0
    outer loop
      vertex 29.7291 -8.13473 9.96217e-16
      vertex 28.437 -4.15823 40
      vertex 28.437 -4.15823 5.09237e-16
    endloop
  endfacet
  facet normal -0.951057 -0.309017 0
    outer loop
      vertex 28.437 -4.15823 40
      vertex 29.7291 -8.13473 9.96217e-16
      vertex 29.7291 -8.13473 40
    endloop
  endfacet
  facet normal 0 -1.22465e-16 -1
    outer loop
      vertex 51 0 0
      vertex 68 0 0
      vertex 67.563 -4.15823 5.09237e-16
    endloop
  endfacet
  facet normal -8.39349e-25 -1.22465e-16 -1
    outer loop
      vertex 51 0 0
      vertex 67.563 -4.15823 5.09237e-16
      vertex 66.2709 -8.13473 9.96217e-16
    endloop
  endfacet
  facet normal -0 -1.22465e-16 -1
    outer loop
      vertex 68 0 0
      vertex 51 0 0
      vertex 67.563 4.15823 -5.09237e-16
    endloop
  endfacet
  facet normal 1.65816e-24 -1.22465e-16 -1
    outer loop
      vertex 50.4271 -1.76336 2.15949e-16
      vertex 66.2709 -8.13473 9.96217e-16
      vertex 64.1803 -11.7557 1.43966e-15
    endloop
  endfacet
  facet normal 8.39349e-25 -1.22465e-16 -1
    outer loop
      vertex 67.563 4.15823 -5.09237e-16
      vertex 51 0 0
      vertex 66.2709 8.13473 -9.96217e-16
    endloop
  endfacet
  facet normal -5.17759e-24 -1.22465e-16 -1
    outer loop
      vertex 50.4271 -1.76336 2.15949e-16
      vertex 64.1803 -11.7557 1.43966e-15
      vertex 61.3826 -14.8629 1.82018e-15
    endloop
  endfacet
  facet normal 1.17684e-26 -1.22465e-16 -1
    outer loop
      vertex 50.4271 1.76336 -2.15949e-16
      vertex 66.2709 8.13473 -9.96217e-16
      vertex 51 0 0
    endloop
  endfacet
  facet normal -2.91893e-23 -1.22465e-16 -1
    outer loop
      vertex 50.4271 -1.76336 2.15949e-16
      vertex 61.3826 -14.8629 1.82018e-15
      vertex 58 -17.3205 2.12115e-15
    endloop
  endfacet
  facet normal -1.65816e-24 -1.22465e-16 -1
    outer loop
      vertex 66.2709 8.13473 -9.96217e-16
      vertex 50.4271 1.76336 -2.15949e-16
      vertex 64.1803 11.7557 -1.43966e-15
    endloop
  endfacet
  facet normal 1.70811e-23 -1.22465e-16 -1
    outer loop
      vertex 48.9271 -2.85317 3.49412e-16
      vertex 58 -17.3205 2.12115e-15
      vertex 54.1803 -19.0211 2.32942e-15
    endloop
  endfacet
  facet normal 5.17759e-24 -1.22465e-16 -1
    outer loop
      vertex 64.1803 11.7557 -1.43966e-15
      vertex 50.4271 1.76336 -2.15949e-16
      vertex 61.3826 14.8629 -1.82018e-15
    endloop
  endfacet
  facet normal 2.91893e-23 -1.22465e-16 -1
    outer loop
      vertex 61.3826 14.8629 -1.82018e-15
      vertex 50.4271 1.76336 -2.15949e-16
      vertex 58 17.3205 -2.12115e-15
    endloop
  endfacet
  facet normal -1.17684e-26 -1.22465e-16 -1
    outer loop
      vertex 66.2709 -8.13473 9.96217e-16
      vertex 50.4271 -1.76336 2.15949e-16
      vertex 51 0 0
    endloop
  endfacet
  facet normal 5.77319e-23 -1.22465e-16 -1
    outer loop
      vertex 48.9271 -2.85317 3.49412e-16
      vertex 54.1803 -19.0211 2.32942e-15
      vertex 50.0906 -19.8904 2.43588e-15
    endloop
  endfacet
  facet normal 8.23703e-24 -1.22465e-16 -1
    outer loop
      vertex 58 -17.3205 2.12115e-15
      vertex 48.9271 -2.85317 3.49412e-16
      vertex 50.4271 -1.76336 2.15949e-16
    endloop
  endfacet
  facet normal 0 -1.22465e-16 -1
    outer loop
      vertex 50.0906 -19.8904 2.43588e-15
      vertex 47.0729 -2.85317 3.49412e-16
      vertex 48.9271 -2.85317 3.49412e-16
    endloop
  endfacet
  facet normal 0 -1.22465e-16 -1
    outer loop
      vertex 45.9094 -19.8904 2.43588e-15
      vertex 47.0729 -2.85317 3.49412e-16
      vertex 50.0906 -19.8904 2.43588e-15
    endloop
  endfacet
  facet normal -5.77319e-23 -1.22465e-16 -1
    outer loop
      vertex 41.8197 -19.0211 2.32942e-15
      vertex 47.0729 -2.85317 3.49412e-16
      vertex 45.9094 -19.8904 2.43588e-15
    endloop
  endfacet
  facet normal -1.70811e-23 -1.22465e-16 -1
    outer loop
      vertex 38 -17.3205 2.12115e-15
      vertex 47.0729 -2.85317 3.49412e-16
      vertex 41.8197 -19.0211 2.32942e-15
    endloop
  endfacet
  facet normal -8.23703e-24 -1.22465e-16 -1
    outer loop
      vertex 47.0729 -2.85317 3.49412e-16
      vertex 38 -17.3205 2.12115e-15
      vertex 45.5729 -1.76336 2.15949e-16
    endloop
  endfacet
  facet normal -8.23703e-24 -1.22465e-16 -1
    outer loop
      vertex 48.9271 2.85317 -3.49412e-16
      vertex 58 17.3205 -2.12115e-15
      vertex 50.4271 1.76336 -2.15949e-16
    endloop
  endfacet
  facet normal -1.70811e-23 -1.22465e-16 -1
    outer loop
      vertex 58 17.3205 -2.12115e-15
      vertex 48.9271 2.85317 -3.49412e-16
      vertex 54.1803 19.0211 -2.32942e-15
    endloop
  endfacet
  facet normal -5.77319e-23 -1.22465e-16 -1
    outer loop
      vertex 54.1803 19.0211 -2.32942e-15
      vertex 48.9271 2.85317 -3.49412e-16
      vertex 50.0906 19.8904 -2.43588e-15
    endloop
  endfacet
  facet normal 0 -1.22465e-16 -1
    outer loop
      vertex 47.0729 2.85317 -3.49412e-16
      vertex 50.0906 19.8904 -2.43588e-15
      vertex 48.9271 2.85317 -3.49412e-16
    endloop
  endfacet
  facet normal 0 -1.22465e-16 -1
    outer loop
      vertex 47.0729 2.85317 -3.49412e-16
      vertex 45.9094 19.8904 -2.43588e-15
      vertex 50.0906 19.8904 -2.43588e-15
    endloop
  endfacet
  facet normal 8.23703e-24 -1.22465e-16 -1
    outer loop
      vertex 38 17.3205 -2.12115e-15
      vertex 47.0729 2.85317 -3.49412e-16
      vertex 45.5729 1.76336 -2.15949e-16
    endloop
  endfacet
  facet normal -1.17684e-26 -1.22465e-16 -1
    outer loop
      vertex 29.7291 8.13473 -9.96217e-16
      vertex 45.5729 1.76336 -2.15949e-16
      vertex 45 0 0
    endloop
  endfacet
  facet normal 2.91893e-23 -1.22465e-16 -1
    outer loop
      vertex 34.6174 -14.8629 1.82018e-15
      vertex 45.5729 -1.76336 2.15949e-16
      vertex 38 -17.3205 2.12115e-15
    endloop
  endfacet
  facet normal 5.77319e-23 -1.22465e-16 -1
    outer loop
      vertex 47.0729 2.85317 -3.49412e-16
      vertex 41.8197 19.0211 -2.32942e-15
      vertex 45.9094 19.8904 -2.43588e-15
    endloop
  endfacet
  facet normal 5.17759e-24 -1.22465e-16 -1
    outer loop
      vertex 31.8197 -11.7557 1.43966e-15
      vertex 45.5729 -1.76336 2.15949e-16
      vertex 34.6174 -14.8629 1.82018e-15
    endloop
  endfacet
  facet normal 1.70811e-23 -1.22465e-16 -1
    outer loop
      vertex 47.0729 2.85317 -3.49412e-16
      vertex 38 17.3205 -2.12115e-15
      vertex 41.8197 19.0211 -2.32942e-15
    endloop
  endfacet
  facet normal -1.65816e-24 -1.22465e-16 -1
    outer loop
      vertex 29.7291 -8.13473 9.96217e-16
      vertex 45.5729 -1.76336 2.15949e-16
      vertex 31.8197 -11.7557 1.43966e-15
    endloop
  endfacet
  facet normal -2.91893e-23 -1.22465e-16 -1
    outer loop
      vertex 45.5729 1.76336 -2.15949e-16
      vertex 34.6174 14.8629 -1.82018e-15
      vertex 38 17.3205 -2.12115e-15
    endloop
  endfacet
  facet normal 1.17684e-26 -1.22465e-16 -1
    outer loop
      vertex 45.5729 -1.76336 2.15949e-16
      vertex 29.7291 -8.13473 9.96217e-16
      vertex 45 0 0
    endloop
  endfacet
  facet normal -5.17759e-24 -1.22465e-16 -1
    outer loop
      vertex 45.5729 1.76336 -2.15949e-16
      vertex 31.8197 11.7557 -1.43966e-15
      vertex 34.6174 14.8629 -1.82018e-15
    endloop
  endfacet
  facet normal 8.39349e-25 -1.22465e-16 -1
    outer loop
      vertex 28.437 -4.15823 5.09237e-16
      vertex 45 0 0
      vertex 29.7291 -8.13473 9.96217e-16
    endloop
  endfacet
  facet normal 1.65816e-24 -1.22465e-16 -1
    outer loop
      vertex 45.5729 1.76336 -2.15949e-16
      vertex 29.7291 8.13473 -9.96217e-16
      vertex 31.8197 11.7557 -1.43966e-15
    endloop
  endfacet
  facet normal 0 -1.22465e-16 -1
    outer loop
      vertex 28 0 0
      vertex 45 0 0
      vertex 28.437 -4.15823 5.09237e-16
    endloop
  endfacet
  facet normal -8.39349e-25 -1.22465e-16 -1
    outer loop
      vertex 45 0 0
      vertex 28.437 4.15823 -5.09237e-16
      vertex 29.7291 8.13473 -9.96217e-16
    endloop
  endfacet
  facet normal -0 -1.22465e-16 -1
    outer loop
      vertex 45 0 0
      vertex 28 0 0
      vertex 28.437 4.15823 -5.09237e-16
    endloop
  endfacet
  facet normal -0.587785 -0.809017 0
    outer loop
      vertex 34.6174 -14.8629 40
      vertex 38 -17.3205 2.12115e-15
      vertex 38 -17.3205 40
    endloop
  endfacet
  facet normal -0.587785 -0.809017 0
    outer loop
      vertex 38 -17.3205 2.12115e-15
      vertex 34.6174 -14.8629 40
      vertex 34.6174 -14.8629 1.82018e-15
    endloop
  endfacet
  facet normal -0.207911 -0.978148 4.66417e-08
    outer loop
      vertex 41.8197 -19.0211 40
      vertex 45.9094 -19.8904 2.43588e-15
      vertex 45.9094 -19.8904 40
    endloop
  endfacet
  facet normal -0.207912 -0.978148 0
    outer loop
      vertex 45.9094 -19.8904 2.43588e-15
      vertex 41.8197 -19.0211 40
      vertex 41.8197 -19.0211 2.32942e-15
    endloop
  endfacet
  facet normal 0.994522 0.104529 0
    outer loop
      vertex 68 4.89859e-15 40
      vertex 67.563 4.15823 -5.09237e-16
      vertex 67.563 4.15823 40
    endloop
  endfacet
  facet normal 0.994522 0.104529 -1.32766e-17
    outer loop
      vertex 67.563 4.15823 -5.09237e-16
      vertex 68 4.89859e-15 40
      vertex 68 0 0
    endloop
  endfacet
  facet normal 0 0 1
    outer loop
      vertex 51 1.22465e-16 1
      vertex 67 1.22465e-16 1
      vertex 66.5848 3.95032 1
    endloop
  endfacet
  facet normal 0 0 1
    outer loop
      vertex 51 1.22465e-16 1
      vertex 66.5848 3.95032 1
      vertex 65.3574 7.728 1
    endloop
  endfacet
  facet normal 0 0 1
    outer loop
      vertex 67 1.22465e-16 1
      vertex 51 1.22465e-16 1
      vertex 66.5848 -3.95032 1
    endloop
  endfacet
  facet normal 0 0 1
    outer loop
      vertex 50.4271 1.76336 1
      vertex 65.3574 7.728 1
      vertex 63.3713 11.1679 1
    endloop
  endfacet
  facet normal 0 0 1
    outer loop
      vertex 66.5848 -3.95032 1
      vertex 51 1.22465e-16 1
      vertex 65.3574 -7.728 1
    endloop
  endfacet
  facet normal 0 0 1
    outer loop
      vertex 50.4271 1.76336 1
      vertex 63.3713 11.1679 1
      vertex 60.7135 14.1198 1
    endloop
  endfacet
  facet normal -0 0 1
    outer loop
      vertex 50.4271 -1.76336 1
      vertex 65.3574 -7.728 1
      vertex 51 1.22465e-16 1
    endloop
  endfacet
  facet normal 0 0 1
    outer loop
      vertex 50.4271 1.76336 1
      vertex 60.7135 14.1198 1
      vertex 57.5 16.4545 1
    endloop
  endfacet
  facet normal 0 0 1
    outer loop
      vertex 65.3574 -7.728 1
      vertex 50.4271 -1.76336 1
      vertex 63.3713 -11.1679 1
    endloop
  endfacet
  facet normal 0 0 1
    outer loop
      vertex 48.9271 2.85317 1
      vertex 57.5 16.4545 1
      vertex 53.8713 18.0701 1
    endloop
  endfacet
  facet normal 0 0 1
    outer loop
      vertex 63.3713 -11.1679 1
      vertex 50.4271 -1.76336 1
      vertex 60.7135 -14.1198 1
    endloop
  endfacet
  facet normal 0 0 1
    outer loop
      vertex 60.7135 -14.1198 1
      vertex 50.4271 -1.76336 1
      vertex 57.5 -16.4545 1
    endloop
  endfacet
  facet normal 0 0 1
    outer loop
      vertex 65.3574 7.728 1
      vertex 50.4271 1.76336 1
      vertex 51 1.22465e-16 1
    endloop
  endfacet
  facet normal 0 0 1
    outer loop
      vertex 48.9271 2.85317 1
      vertex 53.8713 18.0701 1
      vertex 49.986 18.8959 1
    endloop
  endfacet
  facet normal 0 0 1
    outer loop
      vertex 57.5 16.4545 1
      vertex 48.9271 2.85317 1
      vertex 50.4271 1.76336 1
    endloop
  endfacet
  facet normal 0 0 1
    outer loop
      vertex 49.986 18.8959 1
      vertex 47.0729 2.85317 1
      vertex 48.9271 2.85317 1
    endloop
  endfacet
  facet normal -0 0 1
    outer loop
      vertex 46.014 18.8959 1
      vertex 47.0729 2.85317 1
      vertex 49.986 18.8959 1
    endloop
  endfacet
  facet normal -0 0 1
    outer loop
      vertex 42.1287 18.0701 1
      vertex 47.0729 2.85317 1
      vertex 46.014 18.8959 1
    endloop
  endfacet
  facet normal -0 0 1
    outer loop
      vertex 38.5 16.4545 1
      vertex 47.0729 2.85317 1
      vertex 42.1287 18.0701 1
    endloop
  endfacet
  facet normal 0 0 1
    outer loop
      vertex 47.0729 2.85317 1
      vertex 38.5 16.4545 1
      vertex 45.5729 1.76336 1
    endloop
  endfacet
  facet normal -0 0 1
    outer loop
      vertex 48.9271 -2.85317 1
      vertex 57.5 -16.4545 1
      vertex 50.4271 -1.76336 1
    endloop
  endfacet
  facet normal 0 0 1
    outer loop
      vertex 57.5 -16.4545 1
      vertex 48.9271 -2.85317 1
      vertex 53.8713 -18.0701 1
    endloop
  endfacet
  facet normal 0 0 1
    outer loop
      vertex 53.8713 -18.0701 1
      vertex 48.9271 -2.85317 1
      vertex 49.986 -18.8959 1
    endloop
  endfacet
  facet normal -0 0 1
    outer loop
      vertex 47.0729 -2.85317 1
      vertex 49.986 -18.8959 1
      vertex 48.9271 -2.85317 1
    endloop
  endfacet
  facet normal 0 0 1
    outer loop
      vertex 47.0729 -2.85317 1
      vertex 46.014 -18.8959 1
      vertex 49.986 -18.8959 1
    endloop
  endfacet
  facet normal 0 0 1
    outer loop
      vertex 38.5 -16.4545 1
      vertex 47.0729 -2.85317 1
      vertex 45.5729 -1.76336 1
    endloop
  endfacet
  facet normal 0 0 1
    outer loop
      vertex 30.6426 -7.728 1
      vertex 45.5729 -1.76336 1
      vertex 45 1.22465e-16 1
    endloop
  endfacet
  facet normal -0 0 1
    outer loop
      vertex 35.2865 14.1198 1
      vertex 45.5729 1.76336 1
      vertex 38.5 16.4545 1
    endloop
  endfacet
  facet normal 0 0 1
    outer loop
      vertex 47.0729 -2.85317 1
      vertex 42.1287 -18.0701 1
      vertex 46.014 -18.8959 1
    endloop
  endfacet
  facet normal -0 0 1
    outer loop
      vertex 32.6287 11.1679 1
      vertex 45.5729 1.76336 1
      vertex 35.2865 14.1198 1
    endloop
  endfacet
  facet normal 0 0 1
    outer loop
      vertex 47.0729 -2.85317 1
      vertex 38.5 -16.4545 1
      vertex 42.1287 -18.0701 1
    endloop
  endfacet
  facet normal -0 0 1
    outer loop
      vertex 30.6426 7.728 1
      vertex 45.5729 1.76336 1
      vertex 32.6287 11.1679 1
    endloop
  endfacet
  facet normal 0 0 1
    outer loop
      vertex 45.5729 -1.76336 1
      vertex 35.2865 -14.1198 1
      vertex 38.5 -16.4545 1
    endloop
  endfacet
  facet normal 0 0 1
    outer loop
      vertex 45.5729 1.76336 1
      vertex 30.6426 7.728 1
      vertex 45 1.22465e-16 1
    endloop
  endfacet
  facet normal 0 0 1
    outer loop
      vertex 45.5729 -1.76336 1
      vertex 32.6287 -11.1679 1
      vertex 35.2865 -14.1198 1
    endloop
  endfacet
  facet normal -0 0 1
    outer loop
      vertex 29.4152 3.95032 1
      vertex 45 1.22465e-16 1
      vertex 30.6426 7.728 1
    endloop
  endfacet
  facet normal 0 0 1
    outer loop
      vertex 45.5729 -1.76336 1
      vertex 30.6426 -7.728 1
      vertex 32.6287 -11.1679 1
    endloop
  endfacet
  facet normal 0 0 1
    outer loop
      vertex 29 1.22465e-16 1
      vertex 45 1.22465e-16 1
      vertex 29.4152 3.95032 1
    endloop
  endfacet
  facet normal 0 0 1
    outer loop
      vertex 45 1.22465e-16 1
      vertex 29.4152 -3.95032 1
      vertex 30.6426 -7.728 1
    endloop
  endfacet
  facet normal 0 0 1
    outer loop
      vertex 45 1.22465e-16 1
      vertex 29 1.22465e-16 1
      vertex 29.4152 -3.95032 1
    endloop
  endfacet
  facet normal 0.207912 0.978148 -0
    outer loop
      vertex 54.1803 19.0211 -2.32942e-15
      vertex 50.0906 19.8904 40
      vertex 54.1803 19.0211 40
    endloop
  endfacet
  facet normal 0.207912 0.978148 0
    outer loop
      vertex 50.0906 19.8904 40
      vertex 54.1803 19.0211 -2.32942e-15
      vertex 50.0906 19.8904 -2.43588e-15
    endloop
  endfacet
  facet normal 0.743144 0.669131 0
    outer loop
      vertex 64.1803 11.7557 40
      vertex 61.3826 14.8629 -1.82018e-15
      vertex 61.3826 14.8629 40
    endloop
  endfacet
  facet normal 0.743144 0.669131 0
    outer loop
      vertex 61.3826 14.8629 -1.82018e-15
      vertex 64.1803 11.7557 40
      vertex 64.1803 11.7557 -1.43966e-15
    endloop
  endfacet
  facet normal 0.951056 0.309018 0
    outer loop
      vertex 67.563 4.15823 40
      vertex 66.2709 8.13473 -9.96217e-16
      vertex 66.2709 8.13473 40
    endloop
  endfacet
  facet normal 0.951056 0.309018 0
    outer loop
      vertex 66.2709 8.13473 -9.96217e-16
      vertex 67.563 4.15823 40
      vertex 67.563 4.15823 -5.09237e-16
    endloop
  endfacet
  facet normal 0.866026 0.499998 0
    outer loop
      vertex 66.2709 8.13473 40
      vertex 64.1803 11.7557 -1.43966e-15
      vertex 64.1803 11.7557 40
    endloop
  endfacet
  facet normal 0.866026 0.499998 0
    outer loop
      vertex 64.1803 11.7557 -1.43966e-15
      vertex 66.2709 8.13473 40
      vertex 66.2709 8.13473 -9.96217e-16
    endloop
  endfacet
  facet normal -0.866026 0.5 0
    outer loop
      vertex 29.7291 8.13473 -9.96217e-16
      vertex 31.8197 11.7557 40
      vertex 31.8197 11.7557 -1.43966e-15
    endloop
  endfacet
  facet normal -0.866026 0.5 0
    outer loop
      vertex 31.8197 11.7557 40
      vertex 29.7291 8.13473 -9.96217e-16
      vertex 29.7291 8.13473 40
    endloop
  endfacet
  facet normal 0.587786 0.809017 -0
    outer loop
      vertex 61.3826 14.8629 -1.82018e-15
      vertex 58 17.3205 40
      vertex 61.3826 14.8629 40
    endloop
  endfacet
  facet normal 0.587785 0.809017 -3.85769e-08
    outer loop
      vertex 58 17.3205 40
      vertex 61.3826 14.8629 -1.82018e-15
      vertex 58 17.3205 -2.12115e-15
    endloop
  endfacet
  facet normal 0.406736 0.913546 -4.35612e-08
    outer loop
      vertex 58 17.3205 -2.12115e-15
      vertex 54.1803 19.0211 40
      vertex 58 17.3205 40
    endloop
  endfacet
  facet normal 0.406737 0.913545 0
    outer loop
      vertex 54.1803 19.0211 40
      vertex 58 17.3205 -2.12115e-15
      vertex 54.1803 19.0211 -2.32942e-15
    endloop
  endfacet
  facet normal -0.207912 0.978148 0
    outer loop
      vertex 45.9094 19.8904 40
      vertex 41.8197 19.0211 -2.32942e-15
      vertex 41.8197 19.0211 40
    endloop
  endfacet
  facet normal -0.207912 0.978148 0
    outer loop
      vertex 41.8197 19.0211 -2.32942e-15
      vertex 45.9094 19.8904 40
      vertex 45.9094 19.8904 -2.43588e-15
    endloop
  endfacet
  facet normal -0.406736 0.913546 -4.35612e-08
    outer loop
      vertex 41.8197 19.0211 40
      vertex 38 17.3205 -2.12115e-15
      vertex 38 17.3205 40
    endloop
  endfacet
  facet normal -0.406737 0.913545 0
    outer loop
      vertex 38 17.3205 -2.12115e-15
      vertex 41.8197 19.0211 40
      vertex 41.8197 19.0211 -2.32942e-15
    endloop
  endfacet
  facet normal -0.743145 0.669131 0
    outer loop
      vertex 31.8197 11.7557 -1.43966e-15
      vertex 34.6174 14.8629 40
      vertex 34.6174 14.8629 -1.82018e-15
    endloop
  endfacet
  facet normal -0.743145 0.669131 0
    outer loop
      vertex 34.6174 14.8629 40
      vertex 31.8197 11.7557 -1.43966e-15
      vertex 31.8197 11.7557 40
    endloop
  endfacet
  facet normal -0.951057 0.309017 0
    outer loop
      vertex 28.437 4.15823 -5.09237e-16
      vertex 29.7291 8.13473 40
      vertex 29.7291 8.13473 -9.96217e-16
    endloop
  endfacet
  facet normal -0.951057 0.309017 0
    outer loop
      vertex 29.7291 8.13473 40
      vertex 28.437 4.15823 -5.09237e-16
      vertex 28.437 4.15823 40
    endloop
  endfacet
  facet normal -0.994522 0.104529 0
    outer loop
      vertex 28.437 4.15823 -5.09237e-16
      vertex 28 4.89859e-15 40
      vertex 28.437 4.15823 40
    endloop
  endfacet
  facet normal -0.994522 0.104529 -1.28011e-17
    outer loop
      vertex 28 4.89859e-15 40
      vertex 28.437 4.15823 -5.09237e-16
      vertex 28 0 0
    endloop
  endfacet
  facet normal -0.587786 0.809017 0
    outer loop
      vertex 38 17.3205 40
      vertex 34.6174 14.8629 -1.82018e-15
      vertex 34.6174 14.8629 40
    endloop
  endfacet
  facet normal -0.587785 0.809017 -3.85769e-08
    outer loop
      vertex 34.6174 14.8629 -1.82018e-15
      vertex 38 17.3205 40
      vertex 38 17.3205 -2.12115e-15
    endloop
  endfacet
  facet normal -0.951057 0.309017 -1.19759e-16
    outer loop
      vertex 50.4271 -1.76336 2.15949e-16
      vertex 51 1.22465e-16 1
      vertex 51 0 0
    endloop
  endfacet
  facet normal -0.951057 0.309017 0
    outer loop
      vertex 51 1.22465e-16 1
      vertex 50.4271 -1.76336 2.15949e-16
      vertex 50.4271 -1.76336 1
    endloop
  endfacet
  facet normal 0.951057 0.309017 -1.19759e-16
    outer loop
      vertex 45.5729 -1.76336 1
      vertex 45 0 0
      vertex 45 1.22465e-16 1
    endloop
  endfacet
  facet normal 0.951057 0.309017 0
    outer loop
      vertex 45 0 0
      vertex 45.5729 -1.76336 1
      vertex 45.5729 -1.76336 2.15949e-16
    endloop
  endfacet
  facet normal 0 1 -0
    outer loop
      vertex 48.9271 -2.85317 3.49412e-16
      vertex 47.0729 -2.85317 1
      vertex 48.9271 -2.85317 1
    endloop
  endfacet
  facet normal 0 1 0
    outer loop
      vertex 47.0729 -2.85317 1
      vertex 48.9271 -2.85317 3.49412e-16
      vertex 47.0729 -2.85317 3.49412e-16
    endloop
  endfacet
  facet normal -0.587785 0.809017 0
    outer loop
      vertex 50.4271 -1.76336 1
      vertex 48.9271 -2.85317 3.49412e-16
      vertex 48.9271 -2.85317 1
    endloop
  endfacet
  facet normal -0.587785 0.809017 0
    outer loop
      vertex 48.9271 -2.85317 3.49412e-16
      vertex 50.4271 -1.76336 1
      vertex 50.4271 -1.76336 2.15949e-16
    endloop
  endfacet
  facet normal 0.587785 0.809017 -0
    outer loop
      vertex 47.0729 -2.85317 3.49412e-16
      vertex 45.5729 -1.76336 1
      vertex 47.0729 -2.85317 1
    endloop
  endfacet
  facet normal 0.587785 0.809017 0
    outer loop
      vertex 45.5729 -1.76336 1
      vertex 47.0729 -2.85317 3.49412e-16
      vertex 45.5729 -1.76336 2.15949e-16
    endloop
  endfacet
  facet normal -0.951057 -0.309017 0
    outer loop
      vertex 50.4271 1.76336 -2.15949e-16
      vertex 51 1.22465e-16 1
      vertex 50.4271 1.76336 1
    endloop
  endfacet
  facet normal -0.951057 -0.309017 3.78436e-17
    outer loop
      vertex 51 1.22465e-16 1
      vertex 50.4271 1.76336 -2.15949e-16
      vertex 51 0 0
    endloop
  endfacet
  facet normal 0.951057 -0.309017 0
    outer loop
      vertex 45 1.22465e-16 1
      vertex 45.5729 1.76336 -2.15949e-16
      vertex 45.5729 1.76336 1
    endloop
  endfacet
  facet normal 0.951057 -0.309017 1.19759e-16
    outer loop
      vertex 45.5729 1.76336 -2.15949e-16
      vertex 45 1.22465e-16 1
      vertex 45 0 0
    endloop
  endfacet
  facet normal 0 -1 0
    outer loop
      vertex 47.0729 2.85317 -3.49412e-16
      vertex 48.9271 2.85317 1
      vertex 47.0729 2.85317 1
    endloop
  endfacet
  facet normal 0 -1 -0
    outer loop
      vertex 48.9271 2.85317 1
      vertex 47.0729 2.85317 -3.49412e-16
      vertex 48.9271 2.85317 -3.49412e-16
    endloop
  endfacet
  facet normal -0.587785 -0.809017 0
    outer loop
      vertex 48.9271 2.85317 1
      vertex 50.4271 1.76336 -2.15949e-16
      vertex 50.4271 1.76336 1
    endloop
  endfacet
  facet normal -0.587785 -0.809017 0
    outer loop
      vertex 50.4271 1.76336 -2.15949e-16
      vertex 48.9271 2.85317 1
      vertex 48.9271 2.85317 -3.49412e-16
    endloop
  endfacet
  facet normal 0.587785 -0.809017 0
    outer loop
      vertex 45.5729 1.76336 -2.15949e-16
      vertex 47.0729 2.85317 1
      vertex 45.5729 1.76336 1
    endloop
  endfacet
  facet normal 0.587785 -0.809017 0
    outer loop
      vertex 47.0729 2.85317 1
      vertex 45.5729 1.76336 -2.15949e-16
      vertex 47.0729 2.85317 -3.49412e-16
    endloop
  endfacet
  facet normal -0.866026 0.5 0
    outer loop
      vertex 63.3713 -11.1679 1
      vertex 65.3574 -7.728 40
      vertex 65.3574 -7.728 1
    endloop
  endfacet
  facet normal -0.866026 0.5 0
    outer loop
      vertex 65.3574 -7.728 40
      vertex 63.3713 -11.1679 1
      vertex 63.3713 -11.1679 40
    endloop
  endfacet
  facet normal 0 1 -0
    outer loop
      vertex 49.986 -18.8959 1
      vertex 46.014 -18.8959 40
      vertex 49.986 -18.8959 40
    endloop
  endfacet
  facet normal 0 1 0
    outer loop
      vertex 46.014 -18.8959 40
      vertex 49.986 -18.8959 1
      vertex 46.014 -18.8959 1
    endloop
  endfacet
  facet normal 0.951056 0.309017 0
    outer loop
      vertex 30.6426 -7.728 40
      vertex 29.4152 -3.95032 1
      vertex 29.4152 -3.95032 40
    endloop
  endfacet
  facet normal 0.951056 0.309017 0
    outer loop
      vertex 29.4152 -3.95032 1
      vertex 30.6426 -7.728 40
      vertex 30.6426 -7.728 1
    endloop
  endfacet
  facet normal -0.743145 0.669131 0
    outer loop
      vertex 60.7135 -14.1198 1
      vertex 63.3713 -11.1679 40
      vertex 63.3713 -11.1679 1
    endloop
  endfacet
  facet normal -0.743145 0.669131 0
    outer loop
      vertex 63.3713 -11.1679 40
      vertex 60.7135 -14.1198 1
      vertex 60.7135 -14.1198 40
    endloop
  endfacet
  facet normal -0.207912 0.978148 0
    outer loop
      vertex 53.8713 -18.0701 1
      vertex 49.986 -18.8959 40
      vertex 53.8713 -18.0701 40
    endloop
  endfacet
  facet normal -0.207912 0.978148 0
    outer loop
      vertex 49.986 -18.8959 40
      vertex 53.8713 -18.0701 1
      vertex 49.986 -18.8959 1
    endloop
  endfacet
  facet normal 0.406737 0.913545 -0
    outer loop
      vertex 42.1287 -18.0701 1
      vertex 38.5 -16.4545 40
      vertex 42.1287 -18.0701 40
    endloop
  endfacet
  facet normal 0.406737 0.913545 0
    outer loop
      vertex 38.5 -16.4545 40
      vertex 42.1287 -18.0701 1
      vertex 38.5 -16.4545 1
    endloop
  endfacet
  facet normal -0.994522 -0.104529 0
    outer loop
      vertex 66.5848 3.95032 1
      vertex 67 4.89859e-15 40
      vertex 66.5848 3.95032 40
    endloop
  endfacet
  facet normal -0.994522 -0.104529 1.28012e-17
    outer loop
      vertex 67 4.89859e-15 40
      vertex 66.5848 3.95032 1
      vertex 67 1.22465e-16 1
    endloop
  endfacet
  facet normal -0.207911 -0.978148 0
    outer loop
      vertex 49.986 18.8959 1
      vertex 53.8713 18.0701 40
      vertex 49.986 18.8959 40
    endloop
  endfacet
  facet normal -0.207912 -0.978148 4.78377e-08
    outer loop
      vertex 53.8713 18.0701 40
      vertex 49.986 18.8959 1
      vertex 53.8713 18.0701 1
    endloop
  endfacet
  facet normal -0.587785 0.809017 0
    outer loop
      vertex 60.7135 -14.1198 1
      vertex 57.5 -16.4545 40
      vertex 60.7135 -14.1198 40
    endloop
  endfacet
  facet normal -0.587785 0.809017 0
    outer loop
      vertex 57.5 -16.4545 40
      vertex 60.7135 -14.1198 1
      vertex 57.5 -16.4545 1
    endloop
  endfacet
  facet normal -0.406737 0.913545 0
    outer loop
      vertex 57.5 -16.4545 1
      vertex 53.8713 -18.0701 40
      vertex 57.5 -16.4545 40
    endloop
  endfacet
  facet normal -0.406737 0.913545 0
    outer loop
      vertex 53.8713 -18.0701 40
      vertex 57.5 -16.4545 1
      vertex 53.8713 -18.0701 1
    endloop
  endfacet
  facet normal 0.994522 0.104528 -1.29003e-17
    outer loop
      vertex 29.4152 -3.95032 40
      vertex 29 1.22465e-16 1
      vertex 29 4.89859e-15 40
    endloop
  endfacet
  facet normal 0.994522 0.104528 0
    outer loop
      vertex 29 1.22465e-16 1
      vertex 29.4152 -3.95032 40
      vertex 29.4152 -3.95032 1
    endloop
  endfacet
  facet normal 0.866025 0.5 0
    outer loop
      vertex 32.6287 -11.1679 40
      vertex 30.6426 -7.728 1
      vertex 30.6426 -7.728 40
    endloop
  endfacet
  facet normal 0.866025 0.5 0
    outer loop
      vertex 30.6426 -7.728 1
      vertex 32.6287 -11.1679 40
      vertex 32.6287 -11.1679 1
    endloop
  endfacet
  facet normal 0.587785 0.809017 -0
    outer loop
      vertex 38.5 -16.4545 1
      vertex 35.2865 -14.1198 40
      vertex 38.5 -16.4545 40
    endloop
  endfacet
  facet normal 0.587785 0.809017 0
    outer loop
      vertex 35.2865 -14.1198 40
      vertex 38.5 -16.4545 1
      vertex 35.2865 -14.1198 1
    endloop
  endfacet
  facet normal 0.207912 0.978148 -0
    outer loop
      vertex 46.014 -18.8959 1
      vertex 42.1287 -18.0701 40
      vertex 46.014 -18.8959 40
    endloop
  endfacet
  facet normal 0.207912 0.978148 0
    outer loop
      vertex 42.1287 -18.0701 40
      vertex 46.014 -18.8959 1
      vertex 42.1287 -18.0701 1
    endloop
  endfacet
  facet normal 0.743145 0.669131 0
    outer loop
      vertex 35.2865 -14.1198 40
      vertex 32.6287 -11.1679 1
      vertex 32.6287 -11.1679 40
    endloop
  endfacet
  facet normal 0.743145 0.669131 0
    outer loop
      vertex 32.6287 -11.1679 1
      vertex 35.2865 -14.1198 40
      vertex 35.2865 -14.1198 1
    endloop
  endfacet
  facet normal -0.994522 0.104529 -1.29003e-17
    outer loop
      vertex 66.5848 -3.95032 1
      vertex 67 4.89859e-15 40
      vertex 67 1.22465e-16 1
    endloop
  endfacet
  facet normal -0.994522 0.104529 0
    outer loop
      vertex 67 4.89859e-15 40
      vertex 66.5848 -3.95032 1
      vertex 66.5848 -3.95032 40
    endloop
  endfacet
  facet normal 0.866025 -0.5 0
    outer loop
      vertex 30.6426 7.728 40
      vertex 32.6287 11.1679 1
      vertex 32.6287 11.1679 40
    endloop
  endfacet
  facet normal 0.866025 -0.5 0
    outer loop
      vertex 32.6287 11.1679 1
      vertex 30.6426 7.728 40
      vertex 30.6426 7.728 1
    endloop
  endfacet
  facet normal -0.587785 -0.809017 0
    outer loop
      vertex 57.5 16.4545 1
      vertex 60.7135 14.1198 40
      vertex 57.5 16.4545 40
    endloop
  endfacet
  facet normal -0.587785 -0.809017 -0
    outer loop
      vertex 60.7135 14.1198 40
      vertex 57.5 16.4545 1
      vertex 60.7135 14.1198 1
    endloop
  endfacet
  facet normal -0.951057 0.309017 0
    outer loop
      vertex 65.3574 -7.728 1
      vertex 66.5848 -3.95032 40
      vertex 66.5848 -3.95032 1
    endloop
  endfacet
  facet normal -0.951057 0.309017 0
    outer loop
      vertex 66.5848 -3.95032 40
      vertex 65.3574 -7.728 1
      vertex 65.3574 -7.728 40
    endloop
  endfacet
  facet normal -0.866026 -0.5 0
    outer loop
      vertex 65.3574 7.728 1
      vertex 63.3713 11.1679 40
      vertex 63.3713 11.1679 1
    endloop
  endfacet
  facet normal -0.866026 -0.5 0
    outer loop
      vertex 63.3713 11.1679 40
      vertex 65.3574 7.728 1
      vertex 65.3574 7.728 40
    endloop
  endfacet
  facet normal 0.994522 -0.104528 0
    outer loop
      vertex 29 4.89859e-15 40
      vertex 29.4152 3.95032 1
      vertex 29.4152 3.95032 40
    endloop
  endfacet
  facet normal 0.994522 -0.104528 1.29003e-17
    outer loop
      vertex 29.4152 3.95032 1
      vertex 29 4.89859e-15 40
      vertex 29 1.22465e-16 1
    endloop
  endfacet
  facet normal -0.406737 -0.913545 4.46782e-08
    outer loop
      vertex 53.8713 18.0701 1
      vertex 57.5 16.4545 40
      vertex 53.8713 18.0701 40
    endloop
  endfacet
  facet normal -0.406736 -0.913546 -0
    outer loop
      vertex 57.5 16.4545 40
      vertex 53.8713 18.0701 1
      vertex 57.5 16.4545 1
    endloop
  endfacet
  facet normal -0.951057 -0.309017 0
    outer loop
      vertex 66.5848 3.95032 1
      vertex 65.3574 7.728 40
      vertex 65.3574 7.728 1
    endloop
  endfacet
  facet normal -0.951057 -0.309017 0
    outer loop
      vertex 65.3574 7.728 40
      vertex 66.5848 3.95032 1
      vertex 66.5848 3.95032 40
    endloop
  endfacet
  facet normal 0.207911 -0.978148 4.78377e-08
    outer loop
      vertex 42.1287 18.0701 1
      vertex 46.014 18.8959 40
      vertex 42.1287 18.0701 40
    endloop
  endfacet
  facet normal 0.207912 -0.978148 0
    outer loop
      vertex 46.014 18.8959 40
      vertex 42.1287 18.0701 1
      vertex 46.014 18.8959 1
    endloop
  endfacet
  facet normal 0 -1 0
    outer loop
      vertex 46.014 18.8959 1
      vertex 49.986 18.8959 40
      vertex 46.014 18.8959 40
    endloop
  endfacet
  facet normal 0 -1 -0
    outer loop
      vertex 49.986 18.8959 40
      vertex 46.014 18.8959 1
      vertex 49.986 18.8959 1
    endloop
  endfacet
  facet normal 0.951056 -0.309017 0
    outer loop
      vertex 29.4152 3.95032 40
      vertex 30.6426 7.728 1
      vertex 30.6426 7.728 40
    endloop
  endfacet
  facet normal 0.951056 -0.309017 0
    outer loop
      vertex 30.6426 7.728 1
      vertex 29.4152 3.95032 40
      vertex 29.4152 3.95032 1
    endloop
  endfacet
  facet normal 0.743145 -0.669131 0
    outer loop
      vertex 32.6287 11.1679 40
      vertex 35.2865 14.1198 1
      vertex 35.2865 14.1198 40
    endloop
  endfacet
  facet normal 0.743145 -0.669131 0
    outer loop
      vertex 35.2865 14.1198 1
      vertex 32.6287 11.1679 40
      vertex 32.6287 11.1679 1
    endloop
  endfacet
  facet normal -0.743145 -0.669131 0
    outer loop
      vertex 63.3713 11.1679 1
      vertex 60.7135 14.1198 40
      vertex 60.7135 14.1198 1
    endloop
  endfacet
  facet normal -0.743145 -0.669131 0
    outer loop
      vertex 60.7135 14.1198 40
      vertex 63.3713 11.1679 1
      vertex 63.3713 11.1679 40
    endloop
  endfacet
  facet normal 0.587785 -0.809017 0
    outer loop
      vertex 35.2865 14.1198 1
      vertex 38.5 16.4545 40
      vertex 35.2865 14.1198 40
    endloop
  endfacet
  facet normal 0.587785 -0.809017 0
    outer loop
      vertex 38.5 16.4545 40
      vertex 35.2865 14.1198 1
      vertex 38.5 16.4545 1
    endloop
  endfacet
  facet normal 0.406737 -0.913545 0
    outer loop
      vertex 38.5 16.4545 1
      vertex 42.1287 18.0701 40
      vertex 38.5 16.4545 40
    endloop
  endfacet
  facet normal 0.406736 -0.913546 4.46782e-08
    outer loop
      vertex 42.1287 18.0701 40
      vertex 38.5 16.4545 1
      vertex 42.1287 18.0701 1
    endloop
  endfacet
  facet normal 0.44672 -0.046952 0.893441
    outer loop
      vertex 66 5.02105e-15 41
      vertex 65.6067 -3.74241 41
      vertex 68 4.89859e-15 40
    endloop
  endfacet
  facet normal 0.264022 0.363395 0.893441
    outer loop
      vertex 61.3826 14.8629 40
      vertex 58 17.3205 40
      vertex 60.0443 13.3766 41
    endloop
  endfacet
  facet normal -0.264022 -0.363395 0.893441
    outer loop
      vertex 35.9557 -13.3766 41
      vertex 34.6174 -14.8629 40
      vertex 38 -17.3205 40
    endloop
  endfacet
  facet normal 0.389003 -0.22459 0.89344
    outer loop
      vertex 64.4438 -7.32126 41
      vertex 64.1803 -11.7557 40
      vertex 66.2709 -8.13473 40
    endloop
  endfacet
  facet normal -0.389002 0.22459 0.893441
    outer loop
      vertex 31.8197 11.7557 40
      vertex 29.7291 8.13473 40
      vertex 31.5562 7.32126 41
    endloop
  endfacet
  facet normal 0.427197 -0.138805 0.89344
    outer loop
      vertex 67.563 -4.15823 40
      vertex 64.4438 -7.32126 41
      vertex 66.2709 -8.13473 40
    endloop
  endfacet
  facet normal 0.427197 0.138805 0.89344
    outer loop
      vertex 67.563 4.15823 40
      vertex 64.4438 7.32126 41
      vertex 65.6067 3.74241 41
    endloop
  endfacet
  facet normal 0.264022 0.363395 0.893441
    outer loop
      vertex 58 17.3205 40
      vertex 57 15.5885 41
      vertex 60.0443 13.3766 41
    endloop
  endfacet
  facet normal -0.333806 0.300561 0.893441
    outer loop
      vertex 35.9557 13.3766 41
      vertex 31.8197 11.7557 40
      vertex 33.4377 10.5801 41
    endloop
  endfacet
  facet normal -0.182698 -0.410347 0.893441
    outer loop
      vertex 42.4377 -17.119 41
      vertex 39 -15.5885 41
      vertex 41.8197 -19.0211 40
    endloop
  endfacet
  facet normal -0.333806 -0.300561 0.893441
    outer loop
      vertex 35.9557 -13.3766 41
      vertex 31.8197 -11.7557 40
      vertex 34.6174 -14.8629 40
    endloop
  endfacet
  facet normal 0.389002 -0.22459 0.893441
    outer loop
      vertex 64.4438 -7.32126 41
      vertex 62.5623 -10.5801 41
      vertex 64.1803 -11.7557 40
    endloop
  endfacet
  facet normal 0.182698 -0.410347 0.893441
    outer loop
      vertex 57 -15.5885 41
      vertex 53.5623 -17.119 41
      vertex 54.1803 -19.0211 40
    endloop
  endfacet
  facet normal 0.333806 -0.300561 0.893441
    outer loop
      vertex 62.5623 -10.5801 41
      vertex 60.0443 -13.3766 41
      vertex 64.1803 -11.7557 40
    endloop
  endfacet
  facet normal 0.446721 -0.0469525 0.89344
    outer loop
      vertex 68 4.89859e-15 40
      vertex 65.6067 -3.74241 41
      vertex 67.563 -4.15823 40
    endloop
  endfacet
  facet normal 0.427197 0.138805 0.89344
    outer loop
      vertex 66.2709 8.13473 40
      vertex 64.4438 7.32126 41
      vertex 67.563 4.15823 40
    endloop
  endfacet
  facet normal 0.389003 0.22459 0.89344
    outer loop
      vertex 66.2709 8.13473 40
      vertex 64.1803 11.7557 40
      vertex 64.4438 7.32126 41
    endloop
  endfacet
  facet normal 0.182698 0.410347 0.893441
    outer loop
      vertex 58 17.3205 40
      vertex 54.1803 19.0211 40
      vertex 57 15.5885 41
    endloop
  endfacet
  facet normal 0 0.449181 0.893441
    outer loop
      vertex 50.0906 19.8904 40
      vertex 46.1185 17.9014 41
      vertex 49.8815 17.9014 41
    endloop
  endfacet
  facet normal 0 0.449181 0.893441
    outer loop
      vertex 46.1185 17.9014 41
      vertex 50.0906 19.8904 40
      vertex 45.9094 19.8904 40
    endloop
  endfacet
  facet normal 0.0933901 0.439365 0.893441
    outer loop
      vertex 50.0906 19.8904 40
      vertex 49.8815 17.9014 41
      vertex 54.1803 19.0211 40
    endloop
  endfacet
  facet normal -0.44672 0.0469524 0.893441
    outer loop
      vertex 30.3933 3.74241 41
      vertex 28 4.89859e-15 40
      vertex 30 5.02105e-15 41
    endloop
  endfacet
  facet normal -0.182698 0.410347 0.893441
    outer loop
      vertex 41.8197 19.0211 40
      vertex 39 15.5885 41
      vertex 42.4377 17.119 41
    endloop
  endfacet
  facet normal -0.44672 -0.0469524 0.893441
    outer loop
      vertex 30 5.02105e-15 41
      vertex 28 4.89859e-15 40
      vertex 30.3933 -3.74241 41
    endloop
  endfacet
  facet normal -0.389002 -0.22459 0.893441
    outer loop
      vertex 33.4377 -10.5801 41
      vertex 31.5562 -7.32126 41
      vertex 31.8197 -11.7557 40
    endloop
  endfacet
  facet normal 0.0933899 -0.439366 0.893441
    outer loop
      vertex 54.1803 -19.0211 40
      vertex 49.8815 -17.9014 41
      vertex 50.0906 -19.8904 40
    endloop
  endfacet
  facet normal 0.264022 -0.363395 0.893441
    outer loop
      vertex 60.0443 -13.3766 41
      vertex 58 -17.3205 40
      vertex 61.3826 -14.8629 40
    endloop
  endfacet
  facet normal 0.333806 -0.300561 0.893441
    outer loop
      vertex 64.1803 -11.7557 40
      vertex 60.0443 -13.3766 41
      vertex 61.3826 -14.8629 40
    endloop
  endfacet
  facet normal 0.427197 -0.138805 0.89344
    outer loop
      vertex 65.6067 -3.74241 41
      vertex 64.4438 -7.32126 41
      vertex 67.563 -4.15823 40
    endloop
  endfacet
  facet normal 0.44672 0.046952 0.893441
    outer loop
      vertex 68 4.89859e-15 40
      vertex 65.6067 3.74241 41
      vertex 66 5.02105e-15 41
    endloop
  endfacet
  facet normal 0.446721 0.0469525 0.89344
    outer loop
      vertex 67.563 4.15823 40
      vertex 65.6067 3.74241 41
      vertex 68 4.89859e-15 40
    endloop
  endfacet
  facet normal 0.333806 0.300561 0.893441
    outer loop
      vertex 61.3826 14.8629 40
      vertex 60.0443 13.3766 41
      vertex 64.1803 11.7557 40
    endloop
  endfacet
  facet normal 0.182698 0.410347 0.893441
    outer loop
      vertex 54.1803 19.0211 40
      vertex 53.5623 17.119 41
      vertex 57 15.5885 41
    endloop
  endfacet
  facet normal 0.09339 0.439365 0.893441
    outer loop
      vertex 54.1803 19.0211 40
      vertex 49.8815 17.9014 41
      vertex 53.5623 17.119 41
    endloop
  endfacet
  facet normal -0.44672 0.0469524 0.893441
    outer loop
      vertex 28.437 4.15823 40
      vertex 28 4.89859e-15 40
      vertex 30.3933 3.74241 41
    endloop
  endfacet
  facet normal -0.09339 0.439365 0.893441
    outer loop
      vertex 46.1185 17.9014 41
      vertex 41.8197 19.0211 40
      vertex 42.4377 17.119 41
    endloop
  endfacet
  facet normal -0.333806 -0.300561 0.893441
    outer loop
      vertex 33.4377 -10.5801 41
      vertex 31.8197 -11.7557 40
      vertex 35.9557 -13.3766 41
    endloop
  endfacet
  facet normal -0.427197 -0.138804 0.893441
    outer loop
      vertex 31.5562 -7.32126 41
      vertex 28.437 -4.15823 40
      vertex 29.7291 -8.13473 40
    endloop
  endfacet
  facet normal -0.389002 -0.22459 0.893441
    outer loop
      vertex 31.5562 -7.32126 41
      vertex 29.7291 -8.13473 40
      vertex 31.8197 -11.7557 40
    endloop
  endfacet
  facet normal -0.182698 -0.410347 0.893441
    outer loop
      vertex 39 -15.5885 41
      vertex 38 -17.3205 40
      vertex 41.8197 -19.0211 40
    endloop
  endfacet
  facet normal -0.264022 -0.363395 0.893441
    outer loop
      vertex 39 -15.5885 41
      vertex 35.9557 -13.3766 41
      vertex 38 -17.3205 40
    endloop
  endfacet
  facet normal -0.09339 -0.439365 0.893441
    outer loop
      vertex 42.4377 -17.119 41
      vertex 41.8197 -19.0211 40
      vertex 46.1185 -17.9014 41
    endloop
  endfacet
  facet normal 0 -0.449181 0.893441
    outer loop
      vertex 46.1185 -17.9014 41
      vertex 50.0906 -19.8904 40
      vertex 49.8815 -17.9014 41
    endloop
  endfacet
  facet normal 0 -0.449181 0.893441
    outer loop
      vertex 50.0906 -19.8904 40
      vertex 46.1185 -17.9014 41
      vertex 45.9094 -19.8904 40
    endloop
  endfacet
  facet normal -0.0933899 -0.439366 0.893441
    outer loop
      vertex 46.1185 -17.9014 41
      vertex 41.8197 -19.0211 40
      vertex 45.9094 -19.8904 40
    endloop
  endfacet
  facet normal 0.09339 -0.439365 0.893441
    outer loop
      vertex 53.5623 -17.119 41
      vertex 49.8815 -17.9014 41
      vertex 54.1803 -19.0211 40
    endloop
  endfacet
  facet normal 0.389002 0.22459 0.893441
    outer loop
      vertex 64.1803 11.7557 40
      vertex 62.5623 10.5801 41
      vertex 64.4438 7.32126 41
    endloop
  endfacet
  facet normal 0.333806 0.300561 0.893441
    outer loop
      vertex 64.1803 11.7557 40
      vertex 60.0443 13.3766 41
      vertex 62.5623 10.5801 41
    endloop
  endfacet
  facet normal -0.389002 0.22459 0.893441
    outer loop
      vertex 31.8197 11.7557 40
      vertex 31.5562 7.32126 41
      vertex 33.4377 10.5801 41
    endloop
  endfacet
  facet normal -0.264022 0.363395 0.893441
    outer loop
      vertex 38 17.3205 40
      vertex 34.6174 14.8629 40
      vertex 35.9557 13.3766 41
    endloop
  endfacet
  facet normal -0.333806 0.300561 0.893441
    outer loop
      vertex 34.6174 14.8629 40
      vertex 31.8197 11.7557 40
      vertex 35.9557 13.3766 41
    endloop
  endfacet
  facet normal -0.0933901 0.439365 0.893441
    outer loop
      vertex 45.9094 19.8904 40
      vertex 41.8197 19.0211 40
      vertex 46.1185 17.9014 41
    endloop
  endfacet
  facet normal -0.44672 -0.0469524 0.893441
    outer loop
      vertex 30.3933 -3.74241 41
      vertex 28 4.89859e-15 40
      vertex 28.437 -4.15823 40
    endloop
  endfacet
  facet normal -0.427197 -0.138804 0.893441
    outer loop
      vertex 30.3933 -3.74241 41
      vertex 28.437 -4.15823 40
      vertex 31.5562 -7.32126 41
    endloop
  endfacet
  facet normal 0.182698 -0.410347 0.893441
    outer loop
      vertex 57 -15.5885 41
      vertex 54.1803 -19.0211 40
      vertex 58 -17.3205 40
    endloop
  endfacet
  facet normal 0.264022 -0.363395 0.893441
    outer loop
      vertex 60.0443 -13.3766 41
      vertex 57 -15.5885 41
      vertex 58 -17.3205 40
    endloop
  endfacet
  facet normal -0.427197 0.138804 0.893441
    outer loop
      vertex 29.7291 8.13473 40
      vertex 28.437 4.15823 40
      vertex 31.5562 7.32126 41
    endloop
  endfacet
  facet normal -0.427197 0.138804 0.893441
    outer loop
      vertex 31.5562 7.32126 41
      vertex 28.437 4.15823 40
      vertex 30.3933 3.74241 41
    endloop
  endfacet
  facet normal -0.182698 0.410347 0.893441
    outer loop
      vertex 41.8197 19.0211 40
      vertex 38 17.3205 40
      vertex 39 15.5885 41
    endloop
  endfacet
  facet normal -0.264022 0.363395 0.893441
    outer loop
      vertex 38 17.3205 40
      vertex 35.9557 13.3766 41
      vertex 39 15.5885 41
    endloop
  endfacet
  facet normal -0.44672 0.0469522 -0.893441
    outer loop
      vertex 65 5.02105e-15 41
      vertex 67 4.89859e-15 40
      vertex 64.6285 -3.5345 41
    endloop
  endfacet
  facet normal 0.264022 0.363395 -0.893441
    outer loop
      vertex 36.6248 -12.6335 41
      vertex 38.5 -16.4545 40
      vertex 35.2865 -14.1198 40
    endloop
  endfacet
  facet normal -0.264022 -0.363395 -0.893441
    outer loop
      vertex 60.7135 14.1198 40
      vertex 59.3752 12.6335 41
      vertex 57.5 16.4545 40
    endloop
  endfacet
  facet normal 0.44672 -0.0469522 -0.893441
    outer loop
      vertex 31.3715 3.5345 41
      vertex 31 5.02105e-15 41
      vertex 29 4.89859e-15 40
    endloop
  endfacet
  facet normal -0.264022 0.363395 -0.893441
    outer loop
      vertex 59.3752 -12.6335 41
      vertex 57.5 -16.4545 40
      vertex 56.5 -14.7224 41
    endloop
  endfacet
  facet normal -0.333807 0.300561 -0.893441
    outer loop
      vertex 61.7533 -9.99235 41
      vertex 63.3713 -11.1679 40
      vertex 59.3752 -12.6335 41
    endloop
  endfacet
  facet normal -0.389003 -0.224591 -0.893441
    outer loop
      vertex 65.3574 7.728 40
      vertex 63.5303 6.91452 41
      vertex 63.3713 11.1679 40
    endloop
  endfacet
  facet normal 0.389002 0.224591 -0.893441
    outer loop
      vertex 32.4697 -6.91452 41
      vertex 32.6287 -11.1679 40
      vertex 30.6426 -7.728 40
    endloop
  endfacet
  facet normal -0.427197 0.138805 -0.89344
    outer loop
      vertex 64.6285 -3.5345 41
      vertex 66.5848 -3.95032 40
      vertex 63.5303 -6.91452 41
    endloop
  endfacet
  facet normal -0.446721 0.0469527 -0.89344
    outer loop
      vertex 67 4.89859e-15 40
      vertex 66.5848 -3.95032 40
      vertex 64.6285 -3.5345 41
    endloop
  endfacet
  facet normal -0.333807 -0.300561 -0.893441
    outer loop
      vertex 60.7135 14.1198 40
      vertex 63.3713 11.1679 40
      vertex 59.3752 12.6335 41
    endloop
  endfacet
  facet normal -0.182698 -0.410347 -0.893441
    outer loop
      vertex 57.5 16.4545 40
      vertex 56.5 14.7224 41
      vertex 53.8713 18.0701 40
    endloop
  endfacet
  facet normal -0.427197 -0.138805 -0.89344
    outer loop
      vertex 66.5848 3.95032 40
      vertex 64.6285 3.5345 41
      vertex 63.5303 6.91452 41
    endloop
  endfacet
  facet normal -0.427197 -0.138805 -0.89344
    outer loop
      vertex 65.3574 7.728 40
      vertex 66.5848 3.95032 40
      vertex 63.5303 6.91452 41
    endloop
  endfacet
  facet normal 0.427197 -0.138805 -0.893441
    outer loop
      vertex 30.6426 7.728 40
      vertex 32.4697 6.91452 41
      vertex 29.4152 3.95032 40
    endloop
  endfacet
  facet normal 0.44672 -0.0469522 -0.893441
    outer loop
      vertex 29.4152 3.95032 40
      vertex 31.3715 3.5345 41
      vertex 29 4.89859e-15 40
    endloop
  endfacet
  facet normal 0.333807 -0.300561 -0.893441
    outer loop
      vertex 36.6248 12.6335 41
      vertex 34.2467 9.99235 41
      vertex 32.6287 11.1679 40
    endloop
  endfacet
  facet normal 0.264022 -0.363395 -0.893441
    outer loop
      vertex 38.5 16.4545 40
      vertex 39.5 14.7224 41
      vertex 36.6248 12.6335 41
    endloop
  endfacet
  facet normal 0.333807 0.300561 -0.893441
    outer loop
      vertex 36.6248 -12.6335 41
      vertex 35.2865 -14.1198 40
      vertex 32.6287 -11.1679 40
    endloop
  endfacet
  facet normal 0.0933901 0.439365 -0.893441
    outer loop
      vertex 42.7467 -16.168 41
      vertex 46.014 -18.8959 40
      vertex 42.1287 -18.0701 40
    endloop
  endfacet
  facet normal 0.427197 0.138805 -0.893441
    outer loop
      vertex 31.3715 -3.5345 41
      vertex 32.4697 -6.91452 41
      vertex 29.4152 -3.95032 40
    endloop
  endfacet
  facet normal 0.427197 0.138805 -0.893441
    outer loop
      vertex 32.4697 -6.91452 41
      vertex 30.6426 -7.728 40
      vertex 29.4152 -3.95032 40
    endloop
  endfacet
  facet normal -0.264022 -0.363395 -0.893441
    outer loop
      vertex 57.5 16.4545 40
      vertex 59.3752 12.6335 41
      vertex 56.5 14.7224 41
    endloop
  endfacet
  facet normal 0 -0.449181 -0.893441
    outer loop
      vertex 46.223 16.9069 41
      vertex 49.986 18.8959 40
      vertex 49.777 16.9069 41
    endloop
  endfacet
  facet normal -0 -0.449181 -0.893441
    outer loop
      vertex 49.986 18.8959 40
      vertex 46.223 16.9069 41
      vertex 46.014 18.8959 40
    endloop
  endfacet
  facet normal -0.0933899 -0.439365 -0.893441
    outer loop
      vertex 53.8713 18.0701 40
      vertex 53.2533 16.168 41
      vertex 49.986 18.8959 40
    endloop
  endfacet
  facet normal -0.389002 -0.224591 -0.893441
    outer loop
      vertex 63.3713 11.1679 40
      vertex 63.5303 6.91452 41
      vertex 61.7533 9.99235 41
    endloop
  endfacet
  facet normal -0.333807 -0.300561 -0.893441
    outer loop
      vertex 63.3713 11.1679 40
      vertex 61.7533 9.99235 41
      vertex 59.3752 12.6335 41
    endloop
  endfacet
  facet normal -0.44672 -0.0469522 -0.893441
    outer loop
      vertex 67 4.89859e-15 40
      vertex 65 5.02105e-15 41
      vertex 64.6285 3.5345 41
    endloop
  endfacet
  facet normal -0.446721 -0.0469527 -0.89344
    outer loop
      vertex 66.5848 3.95032 40
      vertex 67 4.89859e-15 40
      vertex 64.6285 3.5345 41
    endloop
  endfacet
  facet normal 0.427197 -0.138805 -0.893441
    outer loop
      vertex 32.4697 6.91452 41
      vertex 31.3715 3.5345 41
      vertex 29.4152 3.95032 40
    endloop
  endfacet
  facet normal 0.182698 -0.410347 -0.893441
    outer loop
      vertex 42.1287 18.0701 40
      vertex 42.7467 16.168 41
      vertex 39.5 14.7224 41
    endloop
  endfacet
  facet normal 0.182698 -0.410347 -0.893441
    outer loop
      vertex 42.1287 18.0701 40
      vertex 39.5 14.7224 41
      vertex 38.5 16.4545 40
    endloop
  endfacet
  facet normal 0.264022 -0.363395 -0.893441
    outer loop
      vertex 38.5 16.4545 40
      vertex 36.6248 12.6335 41
      vertex 35.2865 14.1198 40
    endloop
  endfacet
  facet normal 0.264022 0.363395 -0.893441
    outer loop
      vertex 39.5 -14.7224 41
      vertex 38.5 -16.4545 40
      vertex 36.6248 -12.6335 41
    endloop
  endfacet
  facet normal 0 0.449181 -0.893441
    outer loop
      vertex 49.986 -18.8959 40
      vertex 46.223 -16.9069 41
      vertex 49.777 -16.9069 41
    endloop
  endfacet
  facet normal 0 0.449181 -0.893441
    outer loop
      vertex 46.223 -16.9069 41
      vertex 49.986 -18.8959 40
      vertex 46.014 -18.8959 40
    endloop
  endfacet
  facet normal 0.389002 0.224591 -0.893441
    outer loop
      vertex 34.2467 -9.99235 41
      vertex 32.6287 -11.1679 40
      vertex 32.4697 -6.91452 41
    endloop
  endfacet
  facet normal 0.333807 0.300561 -0.893441
    outer loop
      vertex 34.2467 -9.99235 41
      vertex 36.6248 -12.6335 41
      vertex 32.6287 -11.1679 40
    endloop
  endfacet
  facet normal 0.44672 0.0469522 -0.893441
    outer loop
      vertex 31 5.02105e-15 41
      vertex 31.3715 -3.5345 41
      vertex 29 4.89859e-15 40
    endloop
  endfacet
  facet normal 0.44672 0.0469522 -0.893441
    outer loop
      vertex 31.3715 -3.5345 41
      vertex 29.4152 -3.95032 40
      vertex 29 4.89859e-15 40
    endloop
  endfacet
  facet normal -0.333807 0.300561 -0.893441
    outer loop
      vertex 63.3713 -11.1679 40
      vertex 60.7135 -14.1198 40
      vertex 59.3752 -12.6335 41
    endloop
  endfacet
  facet normal -0.264022 0.363395 -0.893441
    outer loop
      vertex 59.3752 -12.6335 41
      vertex 60.7135 -14.1198 40
      vertex 57.5 -16.4545 40
    endloop
  endfacet
  facet normal -0.389003 0.224591 -0.893441
    outer loop
      vertex 63.5303 -6.91452 41
      vertex 65.3574 -7.728 40
      vertex 63.3713 -11.1679 40
    endloop
  endfacet
  facet normal -0.427197 0.138805 -0.89344
    outer loop
      vertex 66.5848 -3.95032 40
      vertex 65.3574 -7.728 40
      vertex 63.5303 -6.91452 41
    endloop
  endfacet
  facet normal -0.182698 0.410347 -0.893441
    outer loop
      vertex 56.5 -14.7224 41
      vertex 53.8713 -18.0701 40
      vertex 53.2533 -16.168 41
    endloop
  endfacet
  facet normal -0.182698 0.410347 -0.893441
    outer loop
      vertex 56.5 -14.7224 41
      vertex 57.5 -16.4545 40
      vertex 53.8713 -18.0701 40
    endloop
  endfacet
  facet normal 0.389002 -0.224591 -0.893441
    outer loop
      vertex 32.6287 11.1679 40
      vertex 34.2467 9.99235 41
      vertex 32.4697 6.91452 41
    endloop
  endfacet
  facet normal 0.389002 -0.224591 -0.893441
    outer loop
      vertex 32.6287 11.1679 40
      vertex 32.4697 6.91452 41
      vertex 30.6426 7.728 40
    endloop
  endfacet
  facet normal 0.09339 -0.439365 -0.893441
    outer loop
      vertex 46.014 18.8959 40
      vertex 46.223 16.9069 41
      vertex 42.7467 16.168 41
    endloop
  endfacet
  facet normal 0.0933899 -0.439365 -0.893441
    outer loop
      vertex 46.014 18.8959 40
      vertex 42.7467 16.168 41
      vertex 42.1287 18.0701 40
    endloop
  endfacet
  facet normal 0.333807 -0.300561 -0.893441
    outer loop
      vertex 35.2865 14.1198 40
      vertex 36.6248 12.6335 41
      vertex 32.6287 11.1679 40
    endloop
  endfacet
  facet normal -0.389002 0.224591 -0.893441
    outer loop
      vertex 63.5303 -6.91452 41
      vertex 63.3713 -11.1679 40
      vertex 61.7533 -9.99235 41
    endloop
  endfacet
  facet normal -0.0933902 0.439365 -0.893441
    outer loop
      vertex 53.2533 -16.168 41
      vertex 49.986 -18.8959 40
      vertex 49.777 -16.9069 41
    endloop
  endfacet
  facet normal -0.0933901 0.439365 -0.893441
    outer loop
      vertex 53.2533 -16.168 41
      vertex 53.8713 -18.0701 40
      vertex 49.986 -18.8959 40
    endloop
  endfacet
  facet normal -0.182698 -0.410347 -0.893441
    outer loop
      vertex 53.8713 18.0701 40
      vertex 56.5 14.7224 41
      vertex 53.2533 16.168 41
    endloop
  endfacet
  facet normal 0.182698 0.410347 -0.893441
    outer loop
      vertex 39.5 -14.7224 41
      vertex 42.7467 -16.168 41
      vertex 38.5 -16.4545 40
    endloop
  endfacet
  facet normal 0.182698 0.410347 -0.893441
    outer loop
      vertex 42.7467 -16.168 41
      vertex 42.1287 -18.0701 40
      vertex 38.5 -16.4545 40
    endloop
  endfacet
  facet normal -0.09339 -0.439365 -0.893441
    outer loop
      vertex 49.986 18.8959 40
      vertex 53.2533 16.168 41
      vertex 49.777 16.9069 41
    endloop
  endfacet
  facet normal 0.0933902 0.439365 -0.893441
    outer loop
      vertex 46.223 -16.9069 41
      vertex 46.014 -18.8959 40
      vertex 42.7467 -16.168 41
    endloop
  endfacet
  facet normal -1 0 0
    outer loop
      vertex 29 -1 44
      vertex 29 5.51091e-15 45
      vertex 29 5.38845e-15 44
    endloop
  endfacet
  facet normal -1 -0 0
    outer loop
      vertex 29 5.51091e-15 45
      vertex 29 -1 44
      vertex 29 -1 45
    endloop
  endfacet
  facet normal 0 0 -1
    outer loop
      vertex 29 -1 44
      vertex 30 5.38845e-15 44
      vertex 30 -1 44
    endloop
  endfacet
  facet normal -0 0 -1
    outer loop
      vertex 30 5.38845e-15 44
      vertex 29 -1 44
      vertex 29 5.38845e-15 44
    endloop
  endfacet
  facet normal 1 -0 0
    outer loop
      vertex 30 -1 45
      vertex 30 5.38845e-15 44
      vertex 30 5.51091e-15 45
    endloop
  endfacet
  facet normal 1 0 0
    outer loop
      vertex 30 5.38845e-15 44
      vertex 30 -1 45
      vertex 30 -1 44
    endloop
  endfacet
  facet normal 0 -1 0
    outer loop
      vertex 29 -1 44
      vertex 30 -1 45
      vertex 29 -1 45
    endloop
  endfacet
  facet normal 0 -1 -0
    outer loop
      vertex 30 -1 45
      vertex 29 -1 44
      vertex 30 -1 44
    endloop
  endfacet
  facet normal -0 0 1
    outer loop
      vertex 29 5.51091e-15 45
      vertex 30 -1 45
      vertex 30 5.51091e-15 45
    endloop
  endfacet
  facet normal 0 0 1
    outer loop
      vertex 30 -1 45
      vertex 29 5.51091e-15 45
      vertex 29 -1 45
    endloop
  endfacet
  facet normal 0 1 -1.22465e-16
    outer loop
      vertex 30 5.38845e-15 44
      vertex 29 5.51091e-15 45
      vertex 30 5.51091e-15 45
    endloop
  endfacet
  facet normal 0 1 -1.22465e-16
    outer loop
      vertex 29 5.51091e-15 45
      vertex 30 5.38845e-15 44
      vertex 29 5.38845e-15 44
    endloop
  endfacet
  facet normal -1 0 0
    outer loop
      vertex 66 -1 44
      vertex 66 5.51091e-15 45
      vertex 66 5.38845e-15 44
    endloop
  endfacet
  facet normal -1 -0 0
    outer loop
      vertex 66 5.51091e-15 45
      vertex 66 -1 44
      vertex 66 -1 45
    endloop
  endfacet
  facet normal 0 0 -1
    outer loop
      vertex 66 -1 44
      vertex 67 5.38845e-15 44
      vertex 67 -1 44
    endloop
  endfacet
  facet normal -0 0 -1
    outer loop
      vertex 67 5.38845e-15 44
      vertex 66 -1 44
      vertex 66 5.38845e-15 44
    endloop
  endfacet
  facet normal 1 -0 0
    outer loop
      vertex 67 -1 45
      vertex 67 5.38845e-15 44
      vertex 67 5.51091e-15 45
    endloop
  endfacet
  facet normal 1 0 0
    outer loop
      vertex 67 5.38845e-15 44
      vertex 67 -1 45
      vertex 67 -1 44
    endloop
  endfacet
  facet normal 0 -1 0
    outer loop
      vertex 66 -1 44
      vertex 67 -1 45
      vertex 66 -1 45
    endloop
  endfacet
  facet normal 0 -1 -0
    outer loop
      vertex 67 -1 45
      vertex 66 -1 44
      vertex 67 -1 44
    endloop
  endfacet
  facet normal -0 0 1
    outer loop
      vertex 66 5.51091e-15 45
      vertex 67 -1 45
      vertex 67 5.51091e-15 45
    endloop
  endfacet
  facet normal 0 0 1
    outer loop
      vertex 67 -1 45
      vertex 66 5.51091e-15 45
      vertex 66 -1 45
    endloop
  endfacet
  facet normal 0 1 -1.22465e-16
    outer loop
      vertex 67 5.38845e-15 44
      vertex 66 5.51091e-15 45
      vertex 67 5.51091e-15 45
    endloop
  endfacet
  facet normal 0 1 -1.22465e-16
    outer loop
      vertex 66 5.51091e-15 45
      vertex 67 5.38845e-15 44
      vertex 66 5.38845e-15 44
    endloop
  endfacet
endsolid OpenSCAD_Model
