solid OpenSCAD_Model
  facet normal -1 0 0
    outer loop
      vertex 0 0 0
      vertex 0 18 15
      vertex 0 18 0
    endloop
  endfacet
  facet normal -1 -0 0
    outer loop
      vertex 0 18 15
      vertex 0 0 0
      vertex 0 0 15
    endloop
  endfacet
  facet normal 0 0 1
    outer loop
      vertex 8.06114 18.3468 15
      vertex 3 16.9963 15
      vertex 7.03508 15.5277 15
    endloop
  endfacet
  facet normal -0 0 1
    outer loop
      vertex 0 18 15
      vertex 3 16.9963 15
      vertex 0.242432 18 15
    endloop
  endfacet
  facet normal 0 0 1
    outer loop
      vertex 8.06114 18.3468 15
      vertex 0.242432 18 15
      vertex 3 16.9963 15
    endloop
  endfacet
  facet normal 0 0 1
    outer loop
      vertex -6.97394 23.8191 15
      vertex 0.242432 18 15
      vertex 8.06114 18.3468 15
    endloop
  endfacet
  facet normal 0 0 1
    outer loop
      vertex 0.242432 18 15
      vertex -6.97394 23.8191 15
      vertex -8 21 15
    endloop
  endfacet
  facet normal -0 0 1
    outer loop
      vertex 3 3 15
      vertex 30 0 15
      vertex 32 3 15
    endloop
  endfacet
  facet normal 0 0 1
    outer loop
      vertex 3 16.9963 15
      vertex 0 18 15
      vertex 3 3 15
    endloop
  endfacet
  facet normal 0 0 1
    outer loop
      vertex 3 3 15
      vertex 0 0 15
      vertex 30 0 15
    endloop
  endfacet
  facet normal 0 0 1
    outer loop
      vertex 0 0 15
      vertex 3 3 15
      vertex 0 18 15
    endloop
  endfacet
  facet normal -0 0 1
    outer loop
      vertex 32 8 15
      vertex 35 3 15
      vertex 35 11 15
    endloop
  endfacet
  facet normal 0 0 1
    outer loop
      vertex 35 3 15
      vertex 32 3 15
      vertex 33 0 15
    endloop
  endfacet
  facet normal 0 0 1
    outer loop
      vertex 35 3 15
      vertex 32 8 15
      vertex 32 3 15
    endloop
  endfacet
  facet normal -0 0 1
    outer loop
      vertex 27 11 15
      vertex 32 8 15
      vertex 35 11 15
    endloop
  endfacet
  facet normal 0 0 1
    outer loop
      vertex 32 8 15
      vertex 27 11 15
      vertex 27 8 15
    endloop
  endfacet
  facet normal -0 0 1
    outer loop
      vertex 35 3 15
      vertex 41 0 15
      vertex 41 3 15
    endloop
  endfacet
  facet normal 0 0 1
    outer loop
      vertex 41 0 15
      vertex 35 3 15
      vertex 33 0 15
    endloop
  endfacet
  facet normal 0 0 1
    outer loop
      vertex 30 0 15
      vertex 33 0 15
      vertex 32 3 15
    endloop
  endfacet
  facet normal 0 0 1
    outer loop
      vertex 33 0 15
      vertex 30 0 15
      vertex 33 -6 15
    endloop
  endfacet
  facet normal 0 0 1
    outer loop
      vertex 33 -6 15
      vertex 30 0 15
      vertex 30 -6 15
    endloop
  endfacet
  facet normal 1 -0 0
    outer loop
      vertex 35 0 12
      vertex 35 3 3
      vertex 35 3 12
    endloop
  endfacet
  facet normal 1 0 0
    outer loop
      vertex 35 3 3
      vertex 35 0 12
      vertex 35 0 3
    endloop
  endfacet
  facet normal 1 0 0
    outer loop
      vertex 35 3 12
      vertex 35 11 15
      vertex 35 3 15
    endloop
  endfacet
  facet normal 1 0 0
    outer loop
      vertex 35 11 15
      vertex 35 3 12
      vertex 35 11 0
    endloop
  endfacet
  facet normal 1 -0 0
    outer loop
      vertex 35 3 3
      vertex 35 11 0
      vertex 35 3 12
    endloop
  endfacet
  facet normal 1 0 0
    outer loop
      vertex 35 11 0
      vertex 35 3 3
      vertex 35 3 0
    endloop
  endfacet
  facet normal 0 0 -1
    outer loop
      vertex 30 0 0
      vertex 33 0 0
      vertex 33 -6 0
    endloop
  endfacet
  facet normal 0 0 -1
    outer loop
      vertex 30 0 0
      vertex 33 -6 0
      vertex 30 -6 0
    endloop
  endfacet
  facet normal 0 0 -1
    outer loop
      vertex 33 0 0
      vertex 30 0 0
      vertex 32 3 0
    endloop
  endfacet
  facet normal 0 0 -1
    outer loop
      vertex 30 0 0
      vertex 3 3 0
      vertex 32 3 0
    endloop
  endfacet
  facet normal 0 0 -1
    outer loop
      vertex 0 18 0
      vertex 3 16.9963 0
      vertex 3 3 0
    endloop
  endfacet
  facet normal 0 0 -1
    outer loop
      vertex 0 0 0
      vertex 3 3 0
      vertex 30 0 0
    endloop
  endfacet
  facet normal 0 0 -1
    outer loop
      vertex 0 18 0
      vertex 3 3 0
      vertex 0 0 0
    endloop
  endfacet
  facet normal 0 0 -1
    outer loop
      vertex 3 16.9963 0
      vertex 0 18 0
      vertex 0.242432 18 0
    endloop
  endfacet
  facet normal 0 0 -1
    outer loop
      vertex 41 0 0
      vertex 35 3 0
      vertex 41 3 0
    endloop
  endfacet
  facet normal 0 0 -1
    outer loop
      vertex 33 0 0
      vertex 35 3 0
      vertex 41 0 0
    endloop
  endfacet
  facet normal 0 0 -1
    outer loop
      vertex 32 3 0
      vertex 35 3 0
      vertex 33 0 0
    endloop
  endfacet
  facet normal 0 0 -1
    outer loop
      vertex 32 8 0
      vertex 35 3 0
      vertex 32 3 0
    endloop
  endfacet
  facet normal 0 0 -1
    outer loop
      vertex 35 3 0
      vertex 32 8 0
      vertex 35 11 0
    endloop
  endfacet
  facet normal 0 0 -1
    outer loop
      vertex 27 11 0
      vertex 32 8 0
      vertex 27 8 0
    endloop
  endfacet
  facet normal 0 0 -1
    outer loop
      vertex 32 8 0
      vertex 27 11 0
      vertex 35 11 0
    endloop
  endfacet
  facet normal 0 0 -1
    outer loop
      vertex 3 16.9963 0
      vertex 8.06114 18.3468 0
      vertex 7.03508 15.5277 0
    endloop
  endfacet
  facet normal 0 0 -1
    outer loop
      vertex 0.242432 18 0
      vertex 8.06114 18.3468 0
      vertex 3 16.9963 0
    endloop
  endfacet
  facet normal 0 0 -1
    outer loop
      vertex 0.242432 18 0
      vertex -6.97394 23.8191 0
      vertex 8.06114 18.3468 0
    endloop
  endfacet
  facet normal 0 -0 -1
    outer loop
      vertex -6.97394 23.8191 0
      vertex 0.242432 18 0
      vertex -8 21 0
    endloop
  endfacet
  facet normal 0 -1 0
    outer loop
      vertex 0 0 15
      vertex 30 0 12
      vertex 30 0 15
    endloop
  endfacet
  facet normal 0 -1 0
    outer loop
      vertex 33 0 3
      vertex 33 0 12
      vertex 30 0 12
    endloop
  endfacet
  facet normal 0 -1 0
    outer loop
      vertex 33 0 3
      vertex 30 0 12
      vertex 30 0 3
    endloop
  endfacet
  facet normal 0 -1 0
    outer loop
      vertex 0 0 15
      vertex 30 0 3
      vertex 30 0 12
    endloop
  endfacet
  facet normal 0 -1 0
    outer loop
      vertex 0 0 0
      vertex 30 0 3
      vertex 0 0 15
    endloop
  endfacet
  facet normal 0 -1 -0
    outer loop
      vertex 30 0 3
      vertex 0 0 0
      vertex 30 0 0
    endloop
  endfacet
  facet normal 0 -1 0
    outer loop
      vertex 35 0 12
      vertex 33 0 15
      vertex 33 0 12
    endloop
  endfacet
  facet normal 0 -1 0
    outer loop
      vertex 38 0 12
      vertex 33 0 15
      vertex 35 0 12
    endloop
  endfacet
  facet normal 0 -1 0
    outer loop
      vertex 33 0 15
      vertex 38 0 12
      vertex 41 0 15
    endloop
  endfacet
  facet normal 0 -1 0
    outer loop
      vertex 38 0 3
      vertex 41 0 15
      vertex 38 0 12
    endloop
  endfacet
  facet normal 0 -1 0
    outer loop
      vertex 38 0 3
      vertex 41 0 0
      vertex 41 0 15
    endloop
  endfacet
  facet normal 0 -1 0
    outer loop
      vertex 41 0 0
      vertex 38 0 3
      vertex 33 0 0
    endloop
  endfacet
  facet normal 0 -1 0
    outer loop
      vertex 33 0 12
      vertex 33 0 3
      vertex 35 0 12
    endloop
  endfacet
  facet normal 0 -1 0
    outer loop
      vertex 33 0 3
      vertex 35 0 3
      vertex 35 0 12
    endloop
  endfacet
  facet normal 0 -1 0
    outer loop
      vertex 33 0 0
      vertex 35 0 3
      vertex 33 0 3
    endloop
  endfacet
  facet normal 0 -1 -0
    outer loop
      vertex 35 0 3
      vertex 33 0 0
      vertex 38 0 3
    endloop
  endfacet
  facet normal 0 1 -0
    outer loop
      vertex 35 11 0
      vertex 27 11 15
      vertex 35 11 15
    endloop
  endfacet
  facet normal 0 1 0
    outer loop
      vertex 27 11 15
      vertex 35 11 0
      vertex 27 11 0
    endloop
  endfacet
  facet normal 1 -0 0
    outer loop
      vertex 3 3 15
      vertex 3 16.9963 0
      vertex 3 16.9963 15
    endloop
  endfacet
  facet normal 1 0 0
    outer loop
      vertex 3 16.9963 0
      vertex 3 3 15
      vertex 3 3 0
    endloop
  endfacet
  facet normal -1 0 0
    outer loop
      vertex 32 3 0
      vertex 32 8 15
      vertex 32 8 0
    endloop
  endfacet
  facet normal -1 -0 0
    outer loop
      vertex 32 8 15
      vertex 32 3 0
      vertex 32 3 15
    endloop
  endfacet
  facet normal 0 -1 0
    outer loop
      vertex 27 8 0
      vertex 32 8 15
      vertex 27 8 15
    endloop
  endfacet
  facet normal 0 -1 -0
    outer loop
      vertex 32 8 15
      vertex 27 8 0
      vertex 32 8 0
    endloop
  endfacet
  facet normal 0 1 -0
    outer loop
      vertex 32 3 0
      vertex 3 3 15
      vertex 32 3 15
    endloop
  endfacet
  facet normal 0 1 0
    outer loop
      vertex 3 3 15
      vertex 32 3 0
      vertex 3 3 0
    endloop
  endfacet
  facet normal -1 0 0
    outer loop
      vertex 27 8 0
      vertex 27 11 15
      vertex 27 11 0
    endloop
  endfacet
  facet normal -1 -0 0
    outer loop
      vertex 27 11 15
      vertex 27 8 0
      vertex 27 8 15
    endloop
  endfacet
  facet normal 1 -0 0
    outer loop
      vertex 41 0 15
      vertex 41 3 0
      vertex 41 3 15
    endloop
  endfacet
  facet normal 1 0 0
    outer loop
      vertex 41 3 0
      vertex 41 0 15
      vertex 41 0 0
    endloop
  endfacet
  facet normal 0 1 0
    outer loop
      vertex 41 3 15
      vertex 38 3 12
      vertex 35 3 15
    endloop
  endfacet
  facet normal 0 1 0
    outer loop
      vertex 41 3 15
      vertex 38 3 3
      vertex 38 3 12
    endloop
  endfacet
  facet normal 0 1 -0
    outer loop
      vertex 41 3 0
      vertex 38 3 3
      vertex 41 3 15
    endloop
  endfacet
  facet normal 0 1 0
    outer loop
      vertex 35 3 0
      vertex 38 3 3
      vertex 41 3 0
    endloop
  endfacet
  facet normal 0 1 0
    outer loop
      vertex 38 3 3
      vertex 35 3 0
      vertex 35 3 3
    endloop
  endfacet
  facet normal 0 1 0
    outer loop
      vertex 35 3 15
      vertex 38 3 12
      vertex 35 3 12
    endloop
  endfacet
  facet normal 0 0 -1
    outer loop
      vertex 35 0 12
      vertex 38 3 12
      vertex 38 0 12
    endloop
  endfacet
  facet normal -0 0 -1
    outer loop
      vertex 38 3 12
      vertex 35 0 12
      vertex 35 3 12
    endloop
  endfacet
  facet normal -1 0 0
    outer loop
      vertex 38 0 3
      vertex 38 3 12
      vertex 38 3 3
    endloop
  endfacet
  facet normal -1 -0 0
    outer loop
      vertex 38 3 12
      vertex 38 0 3
      vertex 38 0 12
    endloop
  endfacet
  facet normal -0 0 1
    outer loop
      vertex 35 3 3
      vertex 38 0 3
      vertex 38 3 3
    endloop
  endfacet
  facet normal 0 0 1
    outer loop
      vertex 38 0 3
      vertex 35 3 3
      vertex 35 0 3
    endloop
  endfacet
  facet normal -1 0 0
    outer loop
      vertex 30 0 0
      vertex 30 -3 3
      vertex 30 0 3
    endloop
  endfacet
  facet normal -1 -0 0
    outer loop
      vertex 30 -3 3
      vertex 30 -6 0
      vertex 30 -3 12
    endloop
  endfacet
  facet normal -1 0 0
    outer loop
      vertex 30 -6 0
      vertex 30 -3 3
      vertex 30 0 0
    endloop
  endfacet
  facet normal -1 0 0
    outer loop
      vertex 30 -3 12
      vertex 30 0 15
      vertex 30 0 12
    endloop
  endfacet
  facet normal -1 0 0
    outer loop
      vertex 30 -3 12
      vertex 30 -6 15
      vertex 30 0 15
    endloop
  endfacet
  facet normal -1 0 0
    outer loop
      vertex 30 -6 15
      vertex 30 -3 12
      vertex 30 -6 0
    endloop
  endfacet
  facet normal 1 0 0
    outer loop
      vertex 33 0 15
      vertex 33 -3 12
      vertex 33 0 12
    endloop
  endfacet
  facet normal 1 0 0
    outer loop
      vertex 33 -3 12
      vertex 33 -6 15
      vertex 33 -3 3
    endloop
  endfacet
  facet normal 1 -0 0
    outer loop
      vertex 33 -6 15
      vertex 33 -3 12
      vertex 33 0 15
    endloop
  endfacet
  facet normal 1 -0 0
    outer loop
      vertex 33 -3 3
      vertex 33 0 0
      vertex 33 0 3
    endloop
  endfacet
  facet normal 1 0 0
    outer loop
      vertex 33 -3 3
      vertex 33 -6 0
      vertex 33 0 0
    endloop
  endfacet
  facet normal 1 0 0
    outer loop
      vertex 33 -6 0
      vertex 33 -3 3
      vertex 33 -6 15
    endloop
  endfacet
  facet normal 0 -1 0
    outer loop
      vertex 30 -6 0
      vertex 33 -6 15
      vertex 30 -6 15
    endloop
  endfacet
  facet normal 0 -1 -0
    outer loop
      vertex 33 -6 15
      vertex 30 -6 0
      vertex 33 -6 0
    endloop
  endfacet
  facet normal 0 0 -1
    outer loop
      vertex 30 -3 12
      vertex 33 0 12
      vertex 33 -3 12
    endloop
  endfacet
  facet normal -0 0 -1
    outer loop
      vertex 33 0 12
      vertex 30 -3 12
      vertex 30 0 12
    endloop
  endfacet
  facet normal -0 0 1
    outer loop
      vertex 30 0 3
      vertex 33 -3 3
      vertex 33 0 3
    endloop
  endfacet
  facet normal 0 0 1
    outer loop
      vertex 33 -3 3
      vertex 30 0 3
      vertex 30 -3 3
    endloop
  endfacet
  facet normal 0 1 -0
    outer loop
      vertex 33 -3 3
      vertex 30 -3 12
      vertex 33 -3 12
    endloop
  endfacet
  facet normal 0 1 0
    outer loop
      vertex 30 -3 12
      vertex 33 -3 3
      vertex 30 -3 3
    endloop
  endfacet
  facet normal 0 1 -0
    outer loop
      vertex 0.242432 18 0
      vertex 0 18 15
      vertex 0.242432 18 15
    endloop
  endfacet
  facet normal 0 1 0
    outer loop
      vertex 0 18 15
      vertex 0.242432 18 0
      vertex 0 18 0
    endloop
  endfacet
  facet normal -0.939693 0.34202 0
    outer loop
      vertex -8 21 0
      vertex -6.97394 23.8191 15
      vertex -6.97394 23.8191 0
    endloop
  endfacet
  facet normal -0.939693 0.34202 0
    outer loop
      vertex -6.97394 23.8191 15
      vertex -8 21 0
      vertex -8 21 15
    endloop
  endfacet
  facet normal 0.939693 -0.34202 0
    outer loop
      vertex 7.03508 15.5277 15
      vertex 8.06114 18.3468 0
      vertex 8.06114 18.3468 15
    endloop
  endfacet
  facet normal 0.939693 -0.34202 0
    outer loop
      vertex 8.06114 18.3468 0
      vertex 7.03508 15.5277 15
      vertex 7.03508 15.5277 0
    endloop
  endfacet
  facet normal -0.34202 -0.939693 0
    outer loop
      vertex -8 21 0
      vertex 0.242432 18 15
      vertex -8 21 15
    endloop
  endfacet
  facet normal -0.34202 -0.939693 -0
    outer loop
      vertex 0.242432 18 15
      vertex -8 21 0
      vertex 0.242432 18 0
    endloop
  endfacet
  facet normal -0.34202 -0.939693 0
    outer loop
      vertex 3 16.9963 0
      vertex 7.03508 15.5277 15
      vertex 3 16.9963 15
    endloop
  endfacet
  facet normal -0.34202 -0.939693 -0
    outer loop
      vertex 7.03508 15.5277 15
      vertex 3 16.9963 0
      vertex 7.03508 15.5277 0
    endloop
  endfacet
  facet normal 0.34202 0.939693 -0
    outer loop
      vertex 8.06114 18.3468 0
      vertex -6.97394 23.8191 15
      vertex 8.06114 18.3468 15
    endloop
  endfacet
  facet normal 0.34202 0.939693 0
    outer loop
      vertex -6.97394 23.8191 15
      vertex 8.06114 18.3468 0
      vertex -6.97394 23.8191 0
    endloop
  endfacet
endsolid OpenSCAD_Model
