solid OpenSCAD_Model
  facet normal 0.994522 0.104529 0
    outer loop
      vertex 14.5 0 33
      vertex 14.1831 3.01472 0
      vertex 14.1831 3.01472 33
    endloop
  endfacet
  facet normal 0.994522 0.104529 0
    outer loop
      vertex 14.1831 3.01472 0
      vertex 14.5 0 33
      vertex 14.5 0 0
    endloop
  endfacet
  facet normal -0.994522 0.104529 0
    outer loop
      vertex -14.5 0 0
      vertex -14.1831 3.01472 33
      vertex -14.1831 3.01472 0
    endloop
  endfacet
  facet normal -0.994522 0.104529 0
    outer loop
      vertex -14.1831 3.01472 33
      vertex -14.5 0 0
      vertex -14.5 0 33
    endloop
  endfacet
  facet normal -0 0 1
    outer loop
      vertex 3.01109 3.65585 3
      vertex 11.5 0 3
      vertex 4.11095 5.16968 3
    endloop
  endfacet
  facet normal 0 0 1
    outer loop
      vertex 11.5 0 3
      vertex 4.11095 -3.16968 3
      vertex 4.5 -5 3
    endloop
  endfacet
  facet normal 0 0 1
    outer loop
      vertex 3.01109 -1.65585 3
      vertex 11.5 0 3
      vertex 3.01109 3.65585 3
    endloop
  endfacet
  facet normal 0 0 1
    outer loop
      vertex 11.5 0 3
      vertex 3.01109 -1.65585 3
      vertex 4.11095 -3.16968 3
    endloop
  endfacet
  facet normal -0 0 1
    outer loop
      vertex 1.39058 2.72025 3
      vertex 3.01109 -1.65585 3
      vertex 3.01109 3.65585 3
    endloop
  endfacet
  facet normal 0 0 1
    outer loop
      vertex 1.39058 2.72025 3
      vertex 1.39058 -0.720245 3
      vertex 3.01109 -1.65585 3
    endloop
  endfacet
  facet normal -0 0 1
    outer loop
      vertex -0.470378 2.52465 3
      vertex 1.39058 -0.720245 3
      vertex 1.39058 2.72025 3
    endloop
  endfacet
  facet normal 0 0 1
    outer loop
      vertex -0.470378 2.52465 3
      vertex -0.470378 -0.524651 3
      vertex 1.39058 -0.720245 3
    endloop
  endfacet
  facet normal 0 0 1
    outer loop
      vertex -0.470378 2.52465 3
      vertex -2.25 -1.10289 3
      vertex -0.470378 -0.524651 3
    endloop
  endfacet
  facet normal 0 0 1
    outer loop
      vertex -2.25 3.10289 3
      vertex -2.25 -1.10289 3
      vertex -0.470378 2.52465 3
    endloop
  endfacet
  facet normal 0 0 1
    outer loop
      vertex -3.64058 4.35497 3
      vertex -2.25 -1.10289 3
      vertex -2.25 3.10289 3
    endloop
  endfacet
  facet normal 0 0 1
    outer loop
      vertex -3.64058 4.35497 3
      vertex -3.64058 -2.35497 3
      vertex -2.25 -1.10289 3
    endloop
  endfacet
  facet normal 0 0 1
    outer loop
      vertex -11.5 0 3
      vertex -3.64058 4.35497 3
      vertex -4.40166 6.0644 3
    endloop
  endfacet
  facet normal 0 0 1
    outer loop
      vertex -3.64058 4.35497 3
      vertex -11.5 0 3
      vertex -3.64058 -2.35497 3
    endloop
  endfacet
  facet normal 0 0 1
    outer loop
      vertex 4.11095 5.16968 3
      vertex 11.5 8.77915 3
      vertex 4.5 7 3
    endloop
  endfacet
  facet normal 0 0 1
    outer loop
      vertex 11.5 8.77915 3
      vertex 4.11095 5.16968 3
      vertex 11.5 0 3
    endloop
  endfacet
  facet normal 0 0 1
    outer loop
      vertex 4.5 7 3
      vertex 11.5 8.77915 3
      vertex 9.70239 10.7756 3
    endloop
  endfacet
  facet normal 0 0 1
    outer loop
      vertex 11.5 0 3
      vertex 4.5 -5 3
      vertex 11.2487 -2.39098 3
    endloop
  endfacet
  facet normal 0 0 1
    outer loop
      vertex 11.2487 -2.39098 3
      vertex 4.5 -5 3
      vertex 10.5058 -4.67747 3
    endloop
  endfacet
  facet normal 0 0 1
    outer loop
      vertex 4.11095 8.83031 3
      vertex 9.70239 10.7756 3
      vertex 7.25 12.5574 3
    endloop
  endfacet
  facet normal 0 0 1
    outer loop
      vertex 10.5058 -4.67747 3
      vertex 4.5 -5 3
      vertex 9.30369 -6.75953 3
    endloop
  endfacet
  facet normal 0 0 1
    outer loop
      vertex 9.30369 -6.75953 3
      vertex 4.5 -5 3
      vertex 7.695 -8.54617 3
    endloop
  endfacet
  facet normal 0 0 1
    outer loop
      vertex 3.01109 10.3442 3
      vertex 7.25 12.5574 3
      vertex 4.48075 13.7903 3
    endloop
  endfacet
  facet normal 0 0 1
    outer loop
      vertex 9.70239 10.7756 3
      vertex 4.11095 8.83031 3
      vertex 4.5 7 3
    endloop
  endfacet
  facet normal 0 0 1
    outer loop
      vertex 7.25 12.5574 3
      vertex 3.01109 10.3442 3
      vertex 4.11095 8.83031 3
    endloop
  endfacet
  facet normal 0 0 1
    outer loop
      vertex 1.39058 11.2798 3
      vertex 4.48075 13.7903 3
      vertex 1.51566 14.4206 3
    endloop
  endfacet
  facet normal 0 0 1
    outer loop
      vertex 4.48075 13.7903 3
      vertex 1.39058 11.2798 3
      vertex 3.01109 10.3442 3
    endloop
  endfacet
  facet normal 0 0 1
    outer loop
      vertex 1.51566 14.4206 3
      vertex -0.470378 11.4753 3
      vertex 1.39058 11.2798 3
    endloop
  endfacet
  facet normal -0 0 1
    outer loop
      vertex -1.51566 14.4206 3
      vertex -0.470378 11.4753 3
      vertex 1.51566 14.4206 3
    endloop
  endfacet
  facet normal 0 0 1
    outer loop
      vertex -1.51566 14.4206 3
      vertex -2.25 10.8971 3
      vertex -0.470378 11.4753 3
    endloop
  endfacet
  facet normal -0 0 1
    outer loop
      vertex -4.48075 13.7903 3
      vertex -2.25 10.8971 3
      vertex -1.51566 14.4206 3
    endloop
  endfacet
  facet normal 0 0 1
    outer loop
      vertex -2.25 10.8971 3
      vertex -4.48075 13.7903 3
      vertex -3.64058 9.64503 3
    endloop
  endfacet
  facet normal 0 0 1
    outer loop
      vertex -11.5 8.77915 3
      vertex -4.40166 6.0644 3
      vertex -4.40166 7.9356 3
    endloop
  endfacet
  facet normal 0 -0 1
    outer loop
      vertex -11.2487 -2.39098 3
      vertex -3.64058 -2.35497 3
      vertex -11.5 0 3
    endloop
  endfacet
  facet normal 0 0 1
    outer loop
      vertex -3.64058 9.64503 3
      vertex -7.25 12.5574 3
      vertex -4.40166 7.9356 3
    endloop
  endfacet
  facet normal -0 0 1
    outer loop
      vertex -7.25 12.5574 3
      vertex -3.64058 9.64503 3
      vertex -4.48075 13.7903 3
    endloop
  endfacet
  facet normal -0 0 1
    outer loop
      vertex 4.11095 -6.83031 3
      vertex 7.695 -8.54617 3
      vertex 4.5 -5 3
    endloop
  endfacet
  facet normal 0 0 1
    outer loop
      vertex 7.695 -8.54617 3
      vertex 4.11095 -6.83031 3
      vertex 5.75 -9.95929 3
    endloop
  endfacet
  facet normal -0 0 1
    outer loop
      vertex 3.01109 -8.34415 3
      vertex 5.75 -9.95929 3
      vertex 4.11095 -6.83031 3
    endloop
  endfacet
  facet normal 0 0 1
    outer loop
      vertex 5.75 -9.95929 3
      vertex 3.01109 -8.34415 3
      vertex 3.55369 -10.9371 3
    endloop
  endfacet
  facet normal -0 0 1
    outer loop
      vertex 1.39058 -9.27975 3
      vertex 3.55369 -10.9371 3
      vertex 3.01109 -8.34415 3
    endloop
  endfacet
  facet normal 0 0 1
    outer loop
      vertex 1.39058 -9.27975 3
      vertex 1.20208 -11.437 3
      vertex 3.55369 -10.9371 3
    endloop
  endfacet
  facet normal -0 0 1
    outer loop
      vertex -0.470378 -9.47535 3
      vertex 1.20208 -11.437 3
      vertex 1.39058 -9.27975 3
    endloop
  endfacet
  facet normal 0 0 1
    outer loop
      vertex -0.470378 -9.47535 3
      vertex -1.20208 -11.437 3
      vertex 1.20208 -11.437 3
    endloop
  endfacet
  facet normal 0 0 1
    outer loop
      vertex -2.25 -8.89711 3
      vertex -1.20208 -11.437 3
      vertex -0.470378 -9.47535 3
    endloop
  endfacet
  facet normal 0 0 1
    outer loop
      vertex -2.25 -8.89711 3
      vertex -3.55369 -10.9371 3
      vertex -1.20208 -11.437 3
    endloop
  endfacet
  facet normal 0 0 1
    outer loop
      vertex -3.64058 -7.64503 3
      vertex -3.55369 -10.9371 3
      vertex -2.25 -8.89711 3
    endloop
  endfacet
  facet normal 0 0 1
    outer loop
      vertex -7.695 -8.54617 3
      vertex -3.64058 -7.64503 3
      vertex -4.40166 -5.9356 3
    endloop
  endfacet
  facet normal 0 0 1
    outer loop
      vertex -3.64058 -7.64503 3
      vertex -5.75 -9.95929 3
      vertex -3.55369 -10.9371 3
    endloop
  endfacet
  facet normal -0 0 1
    outer loop
      vertex -9.70239 10.7756 3
      vertex -4.40166 7.9356 3
      vertex -7.25 12.5574 3
    endloop
  endfacet
  facet normal 0 0 1
    outer loop
      vertex -3.64058 -2.35497 3
      vertex -11.2487 -2.39098 3
      vertex -4.40166 -4.0644 3
    endloop
  endfacet
  facet normal 0 -0 1
    outer loop
      vertex -10.5058 -4.67747 3
      vertex -4.40166 -4.0644 3
      vertex -11.2487 -2.39098 3
    endloop
  endfacet
  facet normal 0 0 1
    outer loop
      vertex -3.64058 -7.64503 3
      vertex -7.695 -8.54617 3
      vertex -5.75 -9.95929 3
    endloop
  endfacet
  facet normal -0 0 1
    outer loop
      vertex -11.5 8.77915 3
      vertex -4.40166 7.9356 3
      vertex -9.70239 10.7756 3
    endloop
  endfacet
  facet normal 0 0 1
    outer loop
      vertex -4.40166 -5.9356 3
      vertex -9.30369 -6.75953 3
      vertex -7.695 -8.54617 3
    endloop
  endfacet
  facet normal 0 0 1
    outer loop
      vertex -4.40166 -4.0644 3
      vertex -9.30369 -6.75953 3
      vertex -4.40166 -5.9356 3
    endloop
  endfacet
  facet normal 0 0 1
    outer loop
      vertex -4.40166 6.0644 3
      vertex -11.5 8.77915 3
      vertex -11.5 0 3
    endloop
  endfacet
  facet normal 0 -0 1
    outer loop
      vertex -9.30369 -6.75953 3
      vertex -4.40166 -4.0644 3
      vertex -10.5058 -4.67747 3
    endloop
  endfacet
  facet normal 0.866025 0.5 0
    outer loop
      vertex 13.2464 5.89768 33
      vertex 11.7307 8.52289 0
      vertex 11.7307 8.52289 33
    endloop
  endfacet
  facet normal 0.866025 0.5 0
    outer loop
      vertex 11.7307 8.52289 0
      vertex 13.2464 5.89768 33
      vertex 13.2464 5.89768 0
    endloop
  endfacet
  facet normal 0.951057 0.309017 0
    outer loop
      vertex 14.1831 3.01472 33
      vertex 13.2464 5.89768 0
      vertex 13.2464 5.89768 33
    endloop
  endfacet
  facet normal 0.951057 0.309017 0
    outer loop
      vertex 13.2464 5.89768 0
      vertex 14.1831 3.01472 33
      vertex 14.1831 3.01472 0
    endloop
  endfacet
  facet normal 0.743145 0.669131 0
    outer loop
      vertex 11.5 8.77915 33
      vertex 11.7307 8.52289 33
      vertex 11.5 8.77915 3
    endloop
  endfacet
  facet normal 0.743145 0.669131 0
    outer loop
      vertex 11.5 8.77915 3
      vertex 9.70239 10.7756 0
      vertex 9.70239 10.7756 3
    endloop
  endfacet
  facet normal 0.743145 0.669131 5.90397e-08
    outer loop
      vertex 11.5 8.77915 3
      vertex 11.7307 8.52289 0
      vertex 9.70239 10.7756 0
    endloop
  endfacet
  facet normal 0.743145 0.669131 -0
    outer loop
      vertex 11.7307 8.52289 0
      vertex 11.5 8.77915 3
      vertex 11.7307 8.52289 33
    endloop
  endfacet
  facet normal -0.866025 0.5 0
    outer loop
      vertex -13.2464 5.89768 0
      vertex -11.7307 8.52289 33
      vertex -11.7307 8.52289 0
    endloop
  endfacet
  facet normal -0.866025 0.5 0
    outer loop
      vertex -11.7307 8.52289 33
      vertex -13.2464 5.89768 0
      vertex -13.2464 5.89768 33
    endloop
  endfacet
  facet normal -0.743145 0.669131 0
    outer loop
      vertex -9.70239 10.7756 0
      vertex -11.5 8.77915 3
      vertex -9.70239 10.7756 3
    endloop
  endfacet
  facet normal -0.743145 0.669131 5.90397e-08
    outer loop
      vertex -11.7307 8.52289 0
      vertex -11.5 8.77915 3
      vertex -9.70239 10.7756 0
    endloop
  endfacet
  facet normal -0.743145 0.669131 0
    outer loop
      vertex -11.7307 8.52289 33
      vertex -11.5 8.77915 3
      vertex -11.7307 8.52289 0
    endloop
  endfacet
  facet normal -0.743145 0.669131 0
    outer loop
      vertex -11.5 8.77915 3
      vertex -11.7307 8.52289 33
      vertex -11.5 8.77915 33
    endloop
  endfacet
  facet normal -0.951057 0.309017 0
    outer loop
      vertex -14.1831 3.01472 0
      vertex -13.2464 5.89768 33
      vertex -13.2464 5.89768 0
    endloop
  endfacet
  facet normal -0.951057 0.309017 0
    outer loop
      vertex -13.2464 5.89768 33
      vertex -14.1831 3.01472 0
      vertex -14.1831 3.01472 33
    endloop
  endfacet
  facet normal 0 0 1
    outer loop
      vertex -11.5 8.77915 33
      vertex -11.7307 8.52289 33
      vertex -11.5 0 33
    endloop
  endfacet
  facet normal 0 0 1
    outer loop
      vertex 11.5 0 33
      vertex 14.5 0 33
      vertex 14.1831 3.01472 33
    endloop
  endfacet
  facet normal 0 0 1
    outer loop
      vertex 11.5 0 33
      vertex 14.1831 3.01472 33
      vertex 13.2464 5.89768 33
    endloop
  endfacet
  facet normal 0 0 1
    outer loop
      vertex 14.5 0 33
      vertex 11.5 0 33
      vertex 14.1831 -3.01472 33
    endloop
  endfacet
  facet normal 0 0 1
    outer loop
      vertex 11.5 0 33
      vertex 13.2464 5.89768 33
      vertex 11.7307 8.52289 33
    endloop
  endfacet
  facet normal -0 0 1
    outer loop
      vertex 11.2487 -2.39098 33
      vertex 14.1831 -3.01472 33
      vertex 11.5 0 33
    endloop
  endfacet
  facet normal 0 0 1
    outer loop
      vertex 11.5 0 33
      vertex 11.7307 8.52289 33
      vertex 11.5 8.77915 33
    endloop
  endfacet
  facet normal 0 0 1
    outer loop
      vertex 14.1831 -3.01472 33
      vertex 11.2487 -2.39098 33
      vertex 13.2464 -5.89768 33
    endloop
  endfacet
  facet normal -0 0 1
    outer loop
      vertex 10.5058 -4.67747 33
      vertex 13.2464 -5.89768 33
      vertex 11.2487 -2.39098 33
    endloop
  endfacet
  facet normal 0 0 1
    outer loop
      vertex 13.2464 -5.89768 33
      vertex 10.5058 -4.67747 33
      vertex 11.7307 -8.52289 33
    endloop
  endfacet
  facet normal -0 0 1
    outer loop
      vertex 9.30369 -6.75953 33
      vertex 11.7307 -8.52289 33
      vertex 10.5058 -4.67747 33
    endloop
  endfacet
  facet normal 0 0 1
    outer loop
      vertex 11.7307 -8.52289 33
      vertex 9.30369 -6.75953 33
      vertex 9.70239 -10.7756 33
    endloop
  endfacet
  facet normal -0 0 1
    outer loop
      vertex 7.695 -8.54617 33
      vertex 9.70239 -10.7756 33
      vertex 9.30369 -6.75953 33
    endloop
  endfacet
  facet normal 0 0 1
    outer loop
      vertex 7.695 -8.54617 33
      vertex 7.25 -12.5574 33
      vertex 9.70239 -10.7756 33
    endloop
  endfacet
  facet normal -0 0 1
    outer loop
      vertex 5.75 -9.95929 33
      vertex 7.25 -12.5574 33
      vertex 7.695 -8.54617 33
    endloop
  endfacet
  facet normal 0 0 1
    outer loop
      vertex 5.75 -9.95929 33
      vertex 4.48075 -13.7903 33
      vertex 7.25 -12.5574 33
    endloop
  endfacet
  facet normal -0 0 1
    outer loop
      vertex 3.55369 -10.9371 33
      vertex 4.48075 -13.7903 33
      vertex 5.75 -9.95929 33
    endloop
  endfacet
  facet normal 0 0 1
    outer loop
      vertex 3.55369 -10.9371 33
      vertex 1.51566 -14.4206 33
      vertex 4.48075 -13.7903 33
    endloop
  endfacet
  facet normal -0 0 1
    outer loop
      vertex 1.20208 -11.437 33
      vertex 1.51566 -14.4206 33
      vertex 3.55369 -10.9371 33
    endloop
  endfacet
  facet normal -0 0 1
    outer loop
      vertex -1.20208 -11.437 33
      vertex 1.51566 -14.4206 33
      vertex 1.20208 -11.437 33
    endloop
  endfacet
  facet normal 0 0 1
    outer loop
      vertex -1.20208 -11.437 33
      vertex -1.51566 -14.4206 33
      vertex 1.51566 -14.4206 33
    endloop
  endfacet
  facet normal 0 0 1
    outer loop
      vertex -3.55369 -10.9371 33
      vertex -1.51566 -14.4206 33
      vertex -1.20208 -11.437 33
    endloop
  endfacet
  facet normal 0 0 1
    outer loop
      vertex -3.55369 -10.9371 33
      vertex -4.48075 -13.7903 33
      vertex -1.51566 -14.4206 33
    endloop
  endfacet
  facet normal 0 0 1
    outer loop
      vertex -5.75 -9.95929 33
      vertex -4.48075 -13.7903 33
      vertex -3.55369 -10.9371 33
    endloop
  endfacet
  facet normal 0 0 1
    outer loop
      vertex -5.75 -9.95929 33
      vertex -7.25 -12.5574 33
      vertex -4.48075 -13.7903 33
    endloop
  endfacet
  facet normal 0 0 1
    outer loop
      vertex -7.695 -8.54617 33
      vertex -7.25 -12.5574 33
      vertex -5.75 -9.95929 33
    endloop
  endfacet
  facet normal 0 0 1
    outer loop
      vertex -9.70239 -10.7756 33
      vertex -7.695 -8.54617 33
      vertex -9.30369 -6.75953 33
    endloop
  endfacet
  facet normal 0 0 1
    outer loop
      vertex -7.695 -8.54617 33
      vertex -9.70239 -10.7756 33
      vertex -7.25 -12.5574 33
    endloop
  endfacet
  facet normal 0 0 1
    outer loop
      vertex -11.7307 -8.52289 33
      vertex -9.30369 -6.75953 33
      vertex -10.5058 -4.67747 33
    endloop
  endfacet
  facet normal 0 0 1
    outer loop
      vertex -13.2464 -5.89768 33
      vertex -10.5058 -4.67747 33
      vertex -11.2487 -2.39098 33
    endloop
  endfacet
  facet normal 0 0 1
    outer loop
      vertex -9.30369 -6.75953 33
      vertex -11.7307 -8.52289 33
      vertex -9.70239 -10.7756 33
    endloop
  endfacet
  facet normal 0 0 1
    outer loop
      vertex -14.1831 -3.01472 33
      vertex -11.2487 -2.39098 33
      vertex -11.5 0 33
    endloop
  endfacet
  facet normal -0 0 1
    outer loop
      vertex -13.2464 5.89768 33
      vertex -11.5 0 33
      vertex -11.7307 8.52289 33
    endloop
  endfacet
  facet normal -0 0 1
    outer loop
      vertex -14.1831 3.01472 33
      vertex -11.5 0 33
      vertex -13.2464 5.89768 33
    endloop
  endfacet
  facet normal 0 0 1
    outer loop
      vertex -10.5058 -4.67747 33
      vertex -13.2464 -5.89768 33
      vertex -11.7307 -8.52289 33
    endloop
  endfacet
  facet normal 0 0 1
    outer loop
      vertex -14.5 0 33
      vertex -11.5 0 33
      vertex -14.1831 3.01472 33
    endloop
  endfacet
  facet normal 0 0 1
    outer loop
      vertex -11.2487 -2.39098 33
      vertex -14.1831 -3.01472 33
      vertex -13.2464 -5.89768 33
    endloop
  endfacet
  facet normal 0 0 1
    outer loop
      vertex -11.5 0 33
      vertex -14.5 0 33
      vertex -14.1831 -3.01472 33
    endloop
  endfacet
  facet normal 0.994522 -0.104529 0
    outer loop
      vertex 14.1831 -3.01472 33
      vertex 14.5 0 0
      vertex 14.5 0 33
    endloop
  endfacet
  facet normal 0.994522 -0.104529 0
    outer loop
      vertex 14.5 0 0
      vertex 14.1831 -3.01472 33
      vertex 14.1831 -3.01472 0
    endloop
  endfacet
  facet normal -0.207911 -0.978148 0
    outer loop
      vertex -4.48075 -13.7903 0
      vertex -1.51566 -14.4206 33
      vertex -4.48075 -13.7903 33
    endloop
  endfacet
  facet normal -0.207911 -0.978148 -0
    outer loop
      vertex -1.51566 -14.4206 33
      vertex -4.48075 -13.7903 0
      vertex -1.51566 -14.4206 0
    endloop
  endfacet
  facet normal 0.207911 -0.978148 0
    outer loop
      vertex 1.51566 -14.4206 0
      vertex 4.48075 -13.7903 33
      vertex 1.51566 -14.4206 33
    endloop
  endfacet
  facet normal 0.207911 -0.978148 0
    outer loop
      vertex 4.48075 -13.7903 33
      vertex 1.51566 -14.4206 0
      vertex 4.48075 -13.7903 0
    endloop
  endfacet
  facet normal 0.743145 -0.669131 0
    outer loop
      vertex 9.70239 -10.7756 33
      vertex 11.7307 -8.52289 0
      vertex 11.7307 -8.52289 33
    endloop
  endfacet
  facet normal 0.743145 -0.669131 0
    outer loop
      vertex 11.7307 -8.52289 0
      vertex 9.70239 -10.7756 33
      vertex 9.70239 -10.7756 0
    endloop
  endfacet
  facet normal 0.951057 -0.309017 0
    outer loop
      vertex 13.2464 -5.89768 33
      vertex 14.1831 -3.01472 0
      vertex 14.1831 -3.01472 33
    endloop
  endfacet
  facet normal 0.951057 -0.309017 0
    outer loop
      vertex 14.1831 -3.01472 0
      vertex 13.2464 -5.89768 33
      vertex 13.2464 -5.89768 0
    endloop
  endfacet
  facet normal 0.866025 -0.5 0
    outer loop
      vertex 11.7307 -8.52289 33
      vertex 13.2464 -5.89768 0
      vertex 13.2464 -5.89768 33
    endloop
  endfacet
  facet normal 0.866025 -0.5 0
    outer loop
      vertex 13.2464 -5.89768 0
      vertex 11.7307 -8.52289 33
      vertex 11.7307 -8.52289 0
    endloop
  endfacet
  facet normal -0.406737 -0.913545 0
    outer loop
      vertex -7.25 -12.5574 0
      vertex -4.48075 -13.7903 33
      vertex -7.25 -12.5574 33
    endloop
  endfacet
  facet normal -0.406737 -0.913545 -0
    outer loop
      vertex -4.48075 -13.7903 33
      vertex -7.25 -12.5574 0
      vertex -4.48075 -13.7903 0
    endloop
  endfacet
  facet normal -0.866025 -0.5 0
    outer loop
      vertex -11.7307 -8.52289 0
      vertex -13.2464 -5.89768 33
      vertex -13.2464 -5.89768 0
    endloop
  endfacet
  facet normal -0.866025 -0.5 0
    outer loop
      vertex -13.2464 -5.89768 33
      vertex -11.7307 -8.52289 0
      vertex -11.7307 -8.52289 33
    endloop
  endfacet
  facet normal -0.994522 -0.104529 0
    outer loop
      vertex -14.1831 -3.01472 0
      vertex -14.5 0 33
      vertex -14.5 0 0
    endloop
  endfacet
  facet normal -0.994522 -0.104529 0
    outer loop
      vertex -14.5 0 33
      vertex -14.1831 -3.01472 0
      vertex -14.1831 -3.01472 33
    endloop
  endfacet
  facet normal -0.951057 -0.309017 0
    outer loop
      vertex -13.2464 -5.89768 0
      vertex -14.1831 -3.01472 33
      vertex -14.1831 -3.01472 0
    endloop
  endfacet
  facet normal -0.951057 -0.309017 0
    outer loop
      vertex -14.1831 -3.01472 33
      vertex -13.2464 -5.89768 0
      vertex -13.2464 -5.89768 33
    endloop
  endfacet
  facet normal 0.587785 -0.809017 0
    outer loop
      vertex 7.25 -12.5574 0
      vertex 9.70239 -10.7756 33
      vertex 7.25 -12.5574 33
    endloop
  endfacet
  facet normal 0.587785 -0.809017 0
    outer loop
      vertex 9.70239 -10.7756 33
      vertex 7.25 -12.5574 0
      vertex 9.70239 -10.7756 0
    endloop
  endfacet
  facet normal 0.406737 -0.913545 0
    outer loop
      vertex 4.48075 -13.7903 0
      vertex 7.25 -12.5574 33
      vertex 4.48075 -13.7903 33
    endloop
  endfacet
  facet normal 0.406737 -0.913545 0
    outer loop
      vertex 7.25 -12.5574 33
      vertex 4.48075 -13.7903 0
      vertex 7.25 -12.5574 0
    endloop
  endfacet
  facet normal 0 -1 0
    outer loop
      vertex -1.51566 -14.4206 0
      vertex 1.51566 -14.4206 33
      vertex -1.51566 -14.4206 33
    endloop
  endfacet
  facet normal 0 -1 -0
    outer loop
      vertex 1.51566 -14.4206 33
      vertex -1.51566 -14.4206 0
      vertex 1.51566 -14.4206 0
    endloop
  endfacet
  facet normal -0.587785 -0.809017 0
    outer loop
      vertex -9.70239 -10.7756 0
      vertex -7.25 -12.5574 33
      vertex -9.70239 -10.7756 33
    endloop
  endfacet
  facet normal -0.587785 -0.809017 -0
    outer loop
      vertex -7.25 -12.5574 33
      vertex -9.70239 -10.7756 0
      vertex -7.25 -12.5574 0
    endloop
  endfacet
  facet normal -0.743145 -0.669131 0
    outer loop
      vertex -9.70239 -10.7756 0
      vertex -11.7307 -8.52289 33
      vertex -11.7307 -8.52289 0
    endloop
  endfacet
  facet normal -0.743145 -0.669131 0
    outer loop
      vertex -11.7307 -8.52289 33
      vertex -9.70239 -10.7756 0
      vertex -9.70239 -10.7756 33
    endloop
  endfacet
  facet normal 0 1 -0
    outer loop
      vertex 1.20208 -11.437 3
      vertex -1.20208 -11.437 33
      vertex 1.20208 -11.437 33
    endloop
  endfacet
  facet normal 0 1 0
    outer loop
      vertex -1.20208 -11.437 33
      vertex 1.20208 -11.437 3
      vertex -1.20208 -11.437 3
    endloop
  endfacet
  facet normal -0.866025 0.5 0
    outer loop
      vertex 9.30369 -6.75953 3
      vertex 10.5058 -4.67747 33
      vertex 10.5058 -4.67747 3
    endloop
  endfacet
  facet normal -0.866025 0.5 0
    outer loop
      vertex 10.5058 -4.67747 33
      vertex 9.30369 -6.75953 3
      vertex 9.30369 -6.75953 33
    endloop
  endfacet
  facet normal -0.994522 0.104529 0
    outer loop
      vertex 11.2487 -2.39098 3
      vertex 11.5 0 33
      vertex 11.5 0 3
    endloop
  endfacet
  facet normal -0.994522 0.104529 0
    outer loop
      vertex 11.5 0 33
      vertex 11.2487 -2.39098 3
      vertex 11.2487 -2.39098 33
    endloop
  endfacet
  facet normal -0.587785 0.809017 0
    outer loop
      vertex 7.695 -8.54617 3
      vertex 5.75 -9.95929 33
      vertex 7.695 -8.54617 33
    endloop
  endfacet
  facet normal -0.587785 0.809017 0
    outer loop
      vertex 5.75 -9.95929 33
      vertex 7.695 -8.54617 3
      vertex 5.75 -9.95929 3
    endloop
  endfacet
  facet normal -0.743145 0.66913 0
    outer loop
      vertex 7.695 -8.54617 3
      vertex 9.30369 -6.75953 33
      vertex 9.30369 -6.75953 3
    endloop
  endfacet
  facet normal -0.743145 0.66913 0
    outer loop
      vertex 9.30369 -6.75953 33
      vertex 7.695 -8.54617 3
      vertex 7.695 -8.54617 33
    endloop
  endfacet
  facet normal -0.951057 0.309017 0
    outer loop
      vertex 10.5058 -4.67747 3
      vertex 11.2487 -2.39098 33
      vertex 11.2487 -2.39098 3
    endloop
  endfacet
  facet normal -0.951057 0.309017 0
    outer loop
      vertex 11.2487 -2.39098 33
      vertex 10.5058 -4.67747 3
      vertex 10.5058 -4.67747 33
    endloop
  endfacet
  facet normal 0.866025 0.5 0
    outer loop
      vertex -9.30369 -6.75953 33
      vertex -10.5058 -4.67747 3
      vertex -10.5058 -4.67747 33
    endloop
  endfacet
  facet normal 0.866025 0.5 0
    outer loop
      vertex -10.5058 -4.67747 3
      vertex -9.30369 -6.75953 33
      vertex -9.30369 -6.75953 3
    endloop
  endfacet
  facet normal 0.743145 0.66913 0
    outer loop
      vertex -7.695 -8.54617 33
      vertex -9.30369 -6.75953 3
      vertex -9.30369 -6.75953 33
    endloop
  endfacet
  facet normal 0.743145 0.66913 0
    outer loop
      vertex -9.30369 -6.75953 3
      vertex -7.695 -8.54617 33
      vertex -7.695 -8.54617 3
    endloop
  endfacet
  facet normal 0.951057 0.309017 0
    outer loop
      vertex -10.5058 -4.67747 33
      vertex -11.2487 -2.39098 3
      vertex -11.2487 -2.39098 33
    endloop
  endfacet
  facet normal 0.951057 0.309017 0
    outer loop
      vertex -11.2487 -2.39098 3
      vertex -10.5058 -4.67747 33
      vertex -10.5058 -4.67747 3
    endloop
  endfacet
  facet normal 0.994522 0.104529 0
    outer loop
      vertex -11.2487 -2.39098 33
      vertex -11.5 0 3
      vertex -11.5 0 33
    endloop
  endfacet
  facet normal 0.994522 0.104529 0
    outer loop
      vertex -11.5 0 3
      vertex -11.2487 -2.39098 33
      vertex -11.2487 -2.39098 3
    endloop
  endfacet
  facet normal -0.406736 0.913546 0
    outer loop
      vertex 5.75 -9.95929 3
      vertex 3.55369 -10.9371 33
      vertex 5.75 -9.95929 33
    endloop
  endfacet
  facet normal -0.406736 0.913546 0
    outer loop
      vertex 3.55369 -10.9371 33
      vertex 5.75 -9.95929 3
      vertex 3.55369 -10.9371 3
    endloop
  endfacet
  facet normal -0.207912 0.978148 0
    outer loop
      vertex 3.55369 -10.9371 3
      vertex 1.20208 -11.437 33
      vertex 3.55369 -10.9371 33
    endloop
  endfacet
  facet normal -0.207912 0.978148 0
    outer loop
      vertex 1.20208 -11.437 33
      vertex 3.55369 -10.9371 3
      vertex 1.20208 -11.437 3
    endloop
  endfacet
  facet normal 0.406736 0.913546 -0
    outer loop
      vertex -3.55369 -10.9371 3
      vertex -5.75 -9.95929 33
      vertex -3.55369 -10.9371 33
    endloop
  endfacet
  facet normal 0.406736 0.913546 0
    outer loop
      vertex -5.75 -9.95929 33
      vertex -3.55369 -10.9371 3
      vertex -5.75 -9.95929 3
    endloop
  endfacet
  facet normal 0.587785 0.809017 -0
    outer loop
      vertex -5.75 -9.95929 3
      vertex -7.695 -8.54617 33
      vertex -5.75 -9.95929 33
    endloop
  endfacet
  facet normal 0.587785 0.809017 0
    outer loop
      vertex -7.695 -8.54617 33
      vertex -5.75 -9.95929 3
      vertex -7.695 -8.54617 3
    endloop
  endfacet
  facet normal 0.207912 0.978148 -0
    outer loop
      vertex -1.20208 -11.437 3
      vertex -3.55369 -10.9371 33
      vertex -1.20208 -11.437 33
    endloop
  endfacet
  facet normal 0.207912 0.978148 0
    outer loop
      vertex -3.55369 -10.9371 33
      vertex -1.20208 -11.437 3
      vertex -3.55369 -10.9371 3
    endloop
  endfacet
  facet normal 1 -0 0
    outer loop
      vertex -11.5 0 33
      vertex -11.5 8.77915 3
      vertex -11.5 8.77915 33
    endloop
  endfacet
  facet normal 1 0 0
    outer loop
      vertex -11.5 8.77915 3
      vertex -11.5 0 33
      vertex -11.5 0 3
    endloop
  endfacet
  facet normal -1 0 0
    outer loop
      vertex 11.5 0 3
      vertex 11.5 8.77915 33
      vertex 11.5 8.77915 3
    endloop
  endfacet
  facet normal -1 -0 0
    outer loop
      vertex 11.5 8.77915 33
      vertex 11.5 0 3
      vertex 11.5 0 33
    endloop
  endfacet
  facet normal 0.207911 0.978148 -0
    outer loop
      vertex 4.48075 13.7903 0
      vertex 1.51566 14.4206 3
      vertex 4.48075 13.7903 3
    endloop
  endfacet
  facet normal 0.207911 0.978148 0
    outer loop
      vertex 1.51566 14.4206 3
      vertex 4.48075 13.7903 0
      vertex 1.51566 14.4206 0
    endloop
  endfacet
  facet normal -0.207911 0.978148 0
    outer loop
      vertex -1.51566 14.4206 0
      vertex -4.48075 13.7903 3
      vertex -1.51566 14.4206 3
    endloop
  endfacet
  facet normal -0.207911 0.978148 0
    outer loop
      vertex -4.48075 13.7903 3
      vertex -1.51566 14.4206 0
      vertex -4.48075 13.7903 0
    endloop
  endfacet
  facet normal 0.587785 0.809017 -0
    outer loop
      vertex 9.70239 10.7756 0
      vertex 7.25 12.5574 3
      vertex 9.70239 10.7756 3
    endloop
  endfacet
  facet normal 0.587785 0.809017 0
    outer loop
      vertex 7.25 12.5574 3
      vertex 9.70239 10.7756 0
      vertex 7.25 12.5574 0
    endloop
  endfacet
  facet normal 0 1 -0
    outer loop
      vertex 1.51566 14.4206 0
      vertex -1.51566 14.4206 3
      vertex 1.51566 14.4206 3
    endloop
  endfacet
  facet normal 0 1 0
    outer loop
      vertex -1.51566 14.4206 3
      vertex 1.51566 14.4206 0
      vertex -1.51566 14.4206 0
    endloop
  endfacet
  facet normal 0.406737 0.913545 -0
    outer loop
      vertex 7.25 12.5574 0
      vertex 4.48075 13.7903 3
      vertex 7.25 12.5574 3
    endloop
  endfacet
  facet normal 0.406737 0.913545 0
    outer loop
      vertex 4.48075 13.7903 3
      vertex 7.25 12.5574 0
      vertex 4.48075 13.7903 0
    endloop
  endfacet
  facet normal -0.406737 0.913545 0
    outer loop
      vertex -4.48075 13.7903 0
      vertex -7.25 12.5574 3
      vertex -4.48075 13.7903 3
    endloop
  endfacet
  facet normal -0.406737 0.913545 0
    outer loop
      vertex -7.25 12.5574 3
      vertex -4.48075 13.7903 0
      vertex -7.25 12.5574 0
    endloop
  endfacet
  facet normal -0.587785 0.809017 0
    outer loop
      vertex -7.25 12.5574 0
      vertex -9.70239 10.7756 3
      vertex -7.25 12.5574 3
    endloop
  endfacet
  facet normal -0.587785 0.809017 0
    outer loop
      vertex -9.70239 10.7756 3
      vertex -7.25 12.5574 0
      vertex -9.70239 10.7756 0
    endloop
  endfacet
  facet normal -0 0 -1
    outer loop
      vertex 14.5 0 0
      vertex 1.33826 -3.51371 0
      vertex 14.1831 3.01472 0
    endloop
  endfacet
  facet normal 0 0 -1
    outer loop
      vertex 14.1831 3.01472 0
      vertex 1.82709 6.18653 0
      vertex 2 7 0
    endloop
  endfacet
  facet normal 0 0 -1
    outer loop
      vertex 1.33826 5.51371 0
      vertex 14.1831 3.01472 0
      vertex 1.33826 -3.51371 0
    endloop
  endfacet
  facet normal 0 0 -1
    outer loop
      vertex 14.1831 3.01472 0
      vertex 1.33826 5.51371 0
      vertex 1.82709 6.18653 0
    endloop
  endfacet
  facet normal 0 0 -1
    outer loop
      vertex 0.618033 -3.09789 0
      vertex 1.33826 5.51371 0
      vertex 1.33826 -3.51371 0
    endloop
  endfacet
  facet normal 0 0 -1
    outer loop
      vertex 0.618033 -3.09789 0
      vertex 0.618033 5.09789 0
      vertex 1.33826 5.51371 0
    endloop
  endfacet
  facet normal 0 0 -1
    outer loop
      vertex -0.209057 -3.01096 0
      vertex 0.618033 5.09789 0
      vertex 0.618033 -3.09789 0
    endloop
  endfacet
  facet normal 0 0 -1
    outer loop
      vertex -0.209057 -3.01096 0
      vertex -0.209057 5.01096 0
      vertex 0.618033 5.09789 0
    endloop
  endfacet
  facet normal 0 0 -1
    outer loop
      vertex -0.999999 -3.26795 0
      vertex -0.209057 5.01096 0
      vertex -0.209057 -3.01096 0
    endloop
  endfacet
  facet normal 0 0 -1
    outer loop
      vertex -0.999999 -3.26795 0
      vertex -1 5.26795 0
      vertex -0.209057 5.01096 0
    endloop
  endfacet
  facet normal 0 0 -1
    outer loop
      vertex -1.61803 -3.82443 0
      vertex -1 5.26795 0
      vertex -0.999999 -3.26795 0
    endloop
  endfacet
  facet normal 0 0 -1
    outer loop
      vertex -1.61803 -3.82443 0
      vertex -1.61803 5.82443 0
      vertex -1 5.26795 0
    endloop
  endfacet
  facet normal 0 0 -1
    outer loop
      vertex -14.1831 -3.01472 0
      vertex -1.61803 -3.82443 0
      vertex -1.9563 -4.58418 0
    endloop
  endfacet
  facet normal 0 0 -1
    outer loop
      vertex -1.61803 -3.82443 0
      vertex -14.1831 3.01472 0
      vertex -1.61803 5.82443 0
    endloop
  endfacet
  facet normal 0 0 -1
    outer loop
      vertex 13.2464 -5.89768 0
      vertex 1.82709 -4.18653 0
      vertex 14.1831 -3.01472 0
    endloop
  endfacet
  facet normal 0 0 -1
    outer loop
      vertex 1.82709 -4.18653 0
      vertex 13.2464 -5.89768 0
      vertex 2 -5 0
    endloop
  endfacet
  facet normal -0 0 -1
    outer loop
      vertex 14.1831 -3.01472 0
      vertex 1.82709 -4.18653 0
      vertex 14.5 0 0
    endloop
  endfacet
  facet normal 0 0 -1
    outer loop
      vertex 2 -5 0
      vertex 13.2464 -5.89768 0
      vertex 11.7307 -8.52289 0
    endloop
  endfacet
  facet normal 0 0 -1
    outer loop
      vertex 1.33826 -3.51371 0
      vertex 14.5 0 0
      vertex 1.82709 -4.18653 0
    endloop
  endfacet
  facet normal 0 0 -1
    outer loop
      vertex 2 -5 0
      vertex 11.7307 -8.52289 0
      vertex 9.70239 -10.7756 0
    endloop
  endfacet
  facet normal 0 0 -1
    outer loop
      vertex 14.1831 3.01472 0
      vertex 2 7 0
      vertex 13.2464 5.89768 0
    endloop
  endfacet
  facet normal 0 0 -1
    outer loop
      vertex 1.82709 -5.81347 0
      vertex 9.70239 -10.7756 0
      vertex 7.25 -12.5574 0
    endloop
  endfacet
  facet normal 0 0 -1
    outer loop
      vertex 13.2464 5.89768 0
      vertex 2 7 0
      vertex 11.7307 8.52289 0
    endloop
  endfacet
  facet normal 0 0 -1
    outer loop
      vertex 1.33826 -6.48629 0
      vertex 7.25 -12.5574 0
      vertex 4.48075 -13.7903 0
    endloop
  endfacet
  facet normal -0 0 -1
    outer loop
      vertex 11.7307 8.52289 0
      vertex 2 7 0
      vertex 9.70239 10.7756 0
    endloop
  endfacet
  facet normal 0 0 -1
    outer loop
      vertex 1.82709 7.81347 0
      vertex 9.70239 10.7756 0
      vertex 2 7 0
    endloop
  endfacet
  facet normal 0 0 -1
    outer loop
      vertex 9.70239 -10.7756 0
      vertex 1.82709 -5.81347 0
      vertex 2 -5 0
    endloop
  endfacet
  facet normal 0 0 -1
    outer loop
      vertex 0.618033 -6.90211 0
      vertex 4.48075 -13.7903 0
      vertex 1.51566 -14.4206 0
    endloop
  endfacet
  facet normal 0 0 -1
    outer loop
      vertex 7.25 -12.5574 0
      vertex 1.33826 -6.48629 0
      vertex 1.82709 -5.81347 0
    endloop
  endfacet
  facet normal 0 0 -1
    outer loop
      vertex 4.48075 -13.7903 0
      vertex 0.618033 -6.90211 0
      vertex 1.33826 -6.48629 0
    endloop
  endfacet
  facet normal 0 0 -1
    outer loop
      vertex 1.51566 -14.4206 0
      vertex -0.209057 -6.98904 0
      vertex 0.618033 -6.90211 0
    endloop
  endfacet
  facet normal 0 0 -1
    outer loop
      vertex -1.51566 -14.4206 0
      vertex -0.209057 -6.98904 0
      vertex 1.51566 -14.4206 0
    endloop
  endfacet
  facet normal -0 0 -1
    outer loop
      vertex -0.209057 -6.98904 0
      vertex -1.51566 -14.4206 0
      vertex -1 -6.73205 0
    endloop
  endfacet
  facet normal 0 0 -1
    outer loop
      vertex -4.48075 -13.7903 0
      vertex -1 -6.73205 0
      vertex -1.51566 -14.4206 0
    endloop
  endfacet
  facet normal -0 0 -1
    outer loop
      vertex -1 -6.73205 0
      vertex -4.48075 -13.7903 0
      vertex -1.61803 -6.17557 0
    endloop
  endfacet
  facet normal 0 0 -1
    outer loop
      vertex -11.7307 -8.52289 0
      vertex -1.9563 -4.58418 0
      vertex -1.9563 -5.41582 0
    endloop
  endfacet
  facet normal 0 0 -1
    outer loop
      vertex -1.61803 -3.82443 0
      vertex -14.5 0 0
      vertex -14.1831 3.01472 0
    endloop
  endfacet
  facet normal 0 0 -1
    outer loop
      vertex -9.70239 -10.7756 0
      vertex -1.61803 -6.17557 0
      vertex -7.25 -12.5574 0
    endloop
  endfacet
  facet normal 0 0 -1
    outer loop
      vertex -7.25 -12.5574 0
      vertex -1.61803 -6.17557 0
      vertex -4.48075 -13.7903 0
    endloop
  endfacet
  facet normal -0 0 -1
    outer loop
      vertex 9.70239 10.7756 0
      vertex 1.82709 7.81347 0
      vertex 7.25 12.5574 0
    endloop
  endfacet
  facet normal -0 0 -1
    outer loop
      vertex 7.25 12.5574 0
      vertex 1.82709 7.81347 0
      vertex 4.48075 13.7903 0
    endloop
  endfacet
  facet normal 0 0 -1
    outer loop
      vertex 1.33826 8.48629 0
      vertex 4.48075 13.7903 0
      vertex 1.82709 7.81347 0
    endloop
  endfacet
  facet normal 0 0 -1
    outer loop
      vertex 0.618033 8.90211 0
      vertex 4.48075 13.7903 0
      vertex 1.33826 8.48629 0
    endloop
  endfacet
  facet normal -0 0 -1
    outer loop
      vertex 4.48075 13.7903 0
      vertex 0.618033 8.90211 0
      vertex 1.51566 14.4206 0
    endloop
  endfacet
  facet normal 0 0 -1
    outer loop
      vertex -0.209057 8.98904 0
      vertex 1.51566 14.4206 0
      vertex 0.618033 8.90211 0
    endloop
  endfacet
  facet normal 0 0 -1
    outer loop
      vertex -1.51566 14.4206 0
      vertex -0.209057 8.98904 0
      vertex -0.999999 8.73205 0
    endloop
  endfacet
  facet normal 0 0 -1
    outer loop
      vertex -0.209057 8.98904 0
      vertex -1.51566 14.4206 0
      vertex 1.51566 14.4206 0
    endloop
  endfacet
  facet normal 0 0 -1
    outer loop
      vertex -4.48075 13.7903 0
      vertex -0.999999 8.73205 0
      vertex -1.61803 8.17557 0
    endloop
  endfacet
  facet normal 0 0 -1
    outer loop
      vertex -7.25 12.5574 0
      vertex -1.61803 8.17557 0
      vertex -1.9563 7.41582 0
    endloop
  endfacet
  facet normal -0 0 -1
    outer loop
      vertex -1.61803 -6.17557 0
      vertex -9.70239 -10.7756 0
      vertex -1.9563 -5.41582 0
    endloop
  endfacet
  facet normal 0 0 -1
    outer loop
      vertex -0.999999 8.73205 0
      vertex -4.48075 13.7903 0
      vertex -1.51566 14.4206 0
    endloop
  endfacet
  facet normal 0 0 -1
    outer loop
      vertex -1.61803 8.17557 0
      vertex -7.25 12.5574 0
      vertex -4.48075 13.7903 0
    endloop
  endfacet
  facet normal 0 0 -1
    outer loop
      vertex -11.7307 -8.52289 0
      vertex -1.9563 -5.41582 0
      vertex -9.70239 -10.7756 0
    endloop
  endfacet
  facet normal 0 0 -1
    outer loop
      vertex -1.9563 -4.58418 0
      vertex -11.7307 -8.52289 0
      vertex -13.2464 -5.89768 0
    endloop
  endfacet
  facet normal 0 0 -1
    outer loop
      vertex -1.9563 7.41582 0
      vertex -9.70239 10.7756 0
      vertex -7.25 12.5574 0
    endloop
  endfacet
  facet normal -0 0 -1
    outer loop
      vertex -1.9563 -4.58418 0
      vertex -13.2464 -5.89768 0
      vertex -14.1831 -3.01472 0
    endloop
  endfacet
  facet normal 0 0 -1
    outer loop
      vertex -1.9563 6.58418 0
      vertex -9.70239 10.7756 0
      vertex -1.9563 7.41582 0
    endloop
  endfacet
  facet normal 0 0 -1
    outer loop
      vertex -1.61803 -3.82443 0
      vertex -14.1831 -3.01472 0
      vertex -14.5 0 0
    endloop
  endfacet
  facet normal 0 -0 -1
    outer loop
      vertex -9.70239 10.7756 0
      vertex -1.9563 6.58418 0
      vertex -11.7307 8.52289 0
    endloop
  endfacet
  facet normal 0 -0 -1
    outer loop
      vertex -13.2464 5.89768 0
      vertex -1.61803 5.82443 0
      vertex -14.1831 3.01472 0
    endloop
  endfacet
  facet normal 0 -0 -1
    outer loop
      vertex -11.7307 8.52289 0
      vertex -1.9563 6.58418 0
      vertex -13.2464 5.89768 0
    endloop
  endfacet
  facet normal 0 0 -1
    outer loop
      vertex -1.61803 5.82443 0
      vertex -13.2464 5.89768 0
      vertex -1.9563 6.58418 0
    endloop
  endfacet
  facet normal 0.775118 0 0.631816
    outer loop
      vertex -4.40166 7.9356 3
      vertex -1.9563 6.58418 0
      vertex -1.9563 7.41582 0
    endloop
  endfacet
  facet normal 0.775118 0 0.631816
    outer loop
      vertex -1.9563 6.58418 0
      vertex -4.40166 7.9356 3
      vertex -4.40166 6.0644 3
    endloop
  endfacet
  facet normal -0.75818 -0.161156 0.631816
    outer loop
      vertex 4.5 7 3
      vertex 4.11095 8.83031 3
      vertex 2 7 0
    endloop
  endfacet
  facet normal -0.75818 -0.161157 0.631817
    outer loop
      vertex 2 7 0
      vertex 4.11095 8.83031 3
      vertex 1.82709 7.81347 0
    endloop
  endfacet
  facet normal 0.708106 0.315269 0.631816
    outer loop
      vertex -3.64058 4.35497 3
      vertex -1.9563 6.58418 0
      vertex -4.40166 6.0644 3
    endloop
  endfacet
  facet normal -0.387559 -0.671272 0.631816
    outer loop
      vertex 3.01109 10.3442 3
      vertex 1.39058 11.2798 3
      vertex 0.618033 8.90211 0
    endloop
  endfacet
  facet normal -0.0810221 0.770872 0.631816
    outer loop
      vertex 1.39058 2.72025 3
      vertex 0.618033 5.09789 0
      vertex -0.470378 2.52465 3
    endloop
  endfacet
  facet normal -0.627084 -0.455603 0.631817
    outer loop
      vertex 4.11095 8.83031 3
      vertex 3.01109 10.3442 3
      vertex 1.33826 8.48629 0
    endloop
  endfacet
  facet normal 0.239525 0.737181 0.631817
    outer loop
      vertex -0.209057 5.01096 0
      vertex -1 5.26795 0
      vertex -2.25 3.10289 3
    endloop
  endfacet
  facet normal 0.239525 0.737181 0.631817
    outer loop
      vertex -0.470378 2.52465 3
      vertex -0.209057 5.01096 0
      vertex -2.25 3.10289 3
    endloop
  endfacet
  facet normal -0.627084 0.455603 0.631817
    outer loop
      vertex 3.01109 3.65585 3
      vertex 4.11095 5.16968 3
      vertex 1.33826 5.51371 0
    endloop
  endfacet
  facet normal -0.75818 0.161156 0.631816
    outer loop
      vertex 4.11095 5.16968 3
      vertex 4.5 7 3
      vertex 2 7 0
    endloop
  endfacet
  facet normal 0.518655 0.576025 0.631816
    outer loop
      vertex -2.25 3.10289 3
      vertex -1.61803 5.82443 0
      vertex -3.64058 4.35497 3
    endloop
  endfacet
  facet normal 0.708105 -0.315269 0.631817
    outer loop
      vertex -1.9563 7.41582 0
      vertex -1.61803 8.17557 0
      vertex -3.64058 9.64503 3
    endloop
  endfacet
  facet normal -0.387559 -0.671272 0.631817
    outer loop
      vertex 1.33826 8.48629 0
      vertex 3.01109 10.3442 3
      vertex 0.618033 8.90211 0
    endloop
  endfacet
  facet normal -0.387559 0.671272 0.631816
    outer loop
      vertex 1.39058 2.72025 3
      vertex 3.01109 3.65585 3
      vertex 0.618033 5.09789 0
    endloop
  endfacet
  facet normal -0.0810215 0.770872 0.631817
    outer loop
      vertex 0.618033 5.09789 0
      vertex -0.209057 5.01096 0
      vertex -0.470378 2.52465 3
    endloop
  endfacet
  facet normal -0.387559 0.671272 0.631817
    outer loop
      vertex 3.01109 3.65585 3
      vertex 1.33826 5.51371 0
      vertex 0.618033 5.09789 0
    endloop
  endfacet
  facet normal 0.239525 -0.737181 0.631817
    outer loop
      vertex -0.999999 8.73205 0
      vertex -0.209057 8.98904 0
      vertex -2.25 10.8971 3
    endloop
  endfacet
  facet normal -0.0810221 -0.770872 0.631816
    outer loop
      vertex 0.618033 8.90211 0
      vertex 1.39058 11.2798 3
      vertex -0.470378 11.4753 3
    endloop
  endfacet
  facet normal 0.239525 -0.737181 0.631817
    outer loop
      vertex -0.209057 8.98904 0
      vertex -0.470378 11.4753 3
      vertex -2.25 10.8971 3
    endloop
  endfacet
  facet normal 0.708106 -0.315269 0.631816
    outer loop
      vertex -1.9563 7.41582 0
      vertex -3.64058 9.64503 3
      vertex -4.40166 7.9356 3
    endloop
  endfacet
  facet normal 0.518655 0.576025 0.631817
    outer loop
      vertex -1 5.26795 0
      vertex -1.61803 5.82443 0
      vertex -2.25 3.10289 3
    endloop
  endfacet
  facet normal -0.75818 0.161157 0.631817
    outer loop
      vertex 4.11095 5.16968 3
      vertex 2 7 0
      vertex 1.82709 6.18653 0
    endloop
  endfacet
  facet normal -0.627084 0.455603 0.631817
    outer loop
      vertex 4.11095 5.16968 3
      vertex 1.82709 6.18653 0
      vertex 1.33826 5.51371 0
    endloop
  endfacet
  facet normal -0.627084 -0.455603 0.631817
    outer loop
      vertex 1.82709 7.81347 0
      vertex 4.11095 8.83031 3
      vertex 1.33826 8.48629 0
    endloop
  endfacet
  facet normal -0.0810215 -0.770872 0.631817
    outer loop
      vertex -0.209057 8.98904 0
      vertex 0.618033 8.90211 0
      vertex -0.470378 11.4753 3
    endloop
  endfacet
  facet normal 0.708105 0.315269 0.631817
    outer loop
      vertex -1.61803 5.82443 0
      vertex -1.9563 6.58418 0
      vertex -3.64058 4.35497 3
    endloop
  endfacet
  facet normal 0.518655 -0.576025 0.631816
    outer loop
      vertex -1.61803 8.17557 0
      vertex -2.25 10.8971 3
      vertex -3.64058 9.64503 3
    endloop
  endfacet
  facet normal 0.518654 -0.576025 0.631817
    outer loop
      vertex -1.61803 8.17557 0
      vertex -0.999999 8.73205 0
      vertex -2.25 10.8971 3
    endloop
  endfacet
  facet normal -0.75818 -0.161156 0.631816
    outer loop
      vertex 4.5 -5 3
      vertex 4.11095 -3.16968 3
      vertex 2 -5 0
    endloop
  endfacet
  facet normal -0.75818 -0.161157 0.631817
    outer loop
      vertex 2 -5 0
      vertex 4.11095 -3.16968 3
      vertex 1.82709 -4.18653 0
    endloop
  endfacet
  facet normal 0.708106 0.315269 0.631816
    outer loop
      vertex -3.64058 -7.64503 3
      vertex -1.9563 -5.41582 0
      vertex -4.40166 -5.9356 3
    endloop
  endfacet
  facet normal 0.239525 -0.737181 0.631817
    outer loop
      vertex -0.209057 -3.01096 0
      vertex -0.470378 -0.524651 3
      vertex -2.25 -1.10289 3
    endloop
  endfacet
  facet normal -0.0810221 0.770872 0.631816
    outer loop
      vertex 1.39058 -9.27975 3
      vertex 0.618033 -6.90211 0
      vertex -0.470378 -9.47535 3
    endloop
  endfacet
  facet normal 0.708105 0.315269 0.631817
    outer loop
      vertex -1.61803 -6.17557 0
      vertex -1.9563 -5.41582 0
      vertex -3.64058 -7.64503 3
    endloop
  endfacet
  facet normal -0.627084 -0.455603 0.631817
    outer loop
      vertex 4.11095 -3.16968 3
      vertex 3.01109 -1.65585 3
      vertex 1.33826 -3.51371 0
    endloop
  endfacet
  facet normal -0.627084 0.455603 0.631817
    outer loop
      vertex 3.01109 -8.34415 3
      vertex 4.11095 -6.83031 3
      vertex 1.33826 -6.48629 0
    endloop
  endfacet
  facet normal -0.75818 0.161156 0.631816
    outer loop
      vertex 4.11095 -6.83031 3
      vertex 4.5 -5 3
      vertex 2 -5 0
    endloop
  endfacet
  facet normal -0.387559 0.671272 0.631817
    outer loop
      vertex 3.01109 -8.34415 3
      vertex 1.33826 -6.48629 0
      vertex 0.618033 -6.90211 0
    endloop
  endfacet
  facet normal -0.387559 0.671272 0.631816
    outer loop
      vertex 1.39058 -9.27975 3
      vertex 3.01109 -8.34415 3
      vertex 0.618033 -6.90211 0
    endloop
  endfacet
  facet normal -0.0810215 0.770872 0.631817
    outer loop
      vertex 0.618033 -6.90211 0
      vertex -0.209057 -6.98904 0
      vertex -0.470378 -9.47535 3
    endloop
  endfacet
  facet normal -0.627084 -0.455603 0.631817
    outer loop
      vertex 1.82709 -4.18653 0
      vertex 4.11095 -3.16968 3
      vertex 1.33826 -3.51371 0
    endloop
  endfacet
  facet normal 0.239525 -0.737181 0.631817
    outer loop
      vertex -0.999999 -3.26795 0
      vertex -0.209057 -3.01096 0
      vertex -2.25 -1.10289 3
    endloop
  endfacet
  facet normal 0.775118 0 0.631816
    outer loop
      vertex -4.40166 -4.0644 3
      vertex -1.9563 -5.41582 0
      vertex -1.9563 -4.58418 0
    endloop
  endfacet
  facet normal 0.775118 0 0.631816
    outer loop
      vertex -1.9563 -5.41582 0
      vertex -4.40166 -4.0644 3
      vertex -4.40166 -5.9356 3
    endloop
  endfacet
  facet normal -0.75818 0.161157 0.631817
    outer loop
      vertex 4.11095 -6.83031 3
      vertex 2 -5 0
      vertex 1.82709 -5.81347 0
    endloop
  endfacet
  facet normal -0.627084 0.455603 0.631817
    outer loop
      vertex 4.11095 -6.83031 3
      vertex 1.82709 -5.81347 0
      vertex 1.33826 -6.48629 0
    endloop
  endfacet
  facet normal 0.518655 0.576025 0.631817
    outer loop
      vertex -1 -6.73205 0
      vertex -1.61803 -6.17557 0
      vertex -2.25 -8.89711 3
    endloop
  endfacet
  facet normal 0.518655 0.576025 0.631816
    outer loop
      vertex -2.25 -8.89711 3
      vertex -1.61803 -6.17557 0
      vertex -3.64058 -7.64503 3
    endloop
  endfacet
  facet normal 0.239525 0.737181 0.631817
    outer loop
      vertex -0.470378 -9.47535 3
      vertex -0.209057 -6.98904 0
      vertex -2.25 -8.89711 3
    endloop
  endfacet
  facet normal 0.239525 0.737181 0.631817
    outer loop
      vertex -0.209057 -6.98904 0
      vertex -1 -6.73205 0
      vertex -2.25 -8.89711 3
    endloop
  endfacet
  facet normal -0.0810215 -0.770872 0.631817
    outer loop
      vertex -0.209057 -3.01096 0
      vertex 0.618033 -3.09789 0
      vertex -0.470378 -0.524651 3
    endloop
  endfacet
  facet normal -0.387559 -0.671272 0.631816
    outer loop
      vertex 3.01109 -1.65585 3
      vertex 1.39058 -0.720245 3
      vertex 0.618033 -3.09789 0
    endloop
  endfacet
  facet normal 0.708105 -0.315269 0.631817
    outer loop
      vertex -1.9563 -4.58418 0
      vertex -1.61803 -3.82443 0
      vertex -3.64058 -2.35497 3
    endloop
  endfacet
  facet normal 0.518655 -0.576025 0.631816
    outer loop
      vertex -1.61803 -3.82443 0
      vertex -2.25 -1.10289 3
      vertex -3.64058 -2.35497 3
    endloop
  endfacet
  facet normal 0.708106 -0.315269 0.631816
    outer loop
      vertex -1.9563 -4.58418 0
      vertex -3.64058 -2.35497 3
      vertex -4.40166 -4.0644 3
    endloop
  endfacet
  facet normal -0.387559 -0.671272 0.631817
    outer loop
      vertex 1.33826 -3.51371 0
      vertex 3.01109 -1.65585 3
      vertex 0.618033 -3.09789 0
    endloop
  endfacet
  facet normal -0.0810221 -0.770872 0.631816
    outer loop
      vertex 0.618033 -3.09789 0
      vertex 1.39058 -0.720245 3
      vertex -0.470378 -0.524651 3
    endloop
  endfacet
  facet normal 0.518654 -0.576025 0.631817
    outer loop
      vertex -1.61803 -3.82443 0
      vertex -0.999999 -3.26795 0
      vertex -2.25 -1.10289 3
    endloop
  endfacet
endsolid OpenSCAD_Model
