solid OpenSCAD_Model
  facet normal -1 0 0
    outer loop
      vertex 16 35 1
      vertex 16 35 0
      vertex 16 34 1
    endloop
  endfacet
  facet normal -1 0 0
    outer loop
      vertex 16 32 0
      vertex 16 32 11
      vertex 16 34 1
    endloop
  endfacet
  facet normal -1 0 0
    outer loop
      vertex 16 32 0
      vertex 16 34 1
      vertex 16 35 0
    endloop
  endfacet
  facet normal -1 0 0
    outer loop
      vertex 16 34 1
      vertex 16 32 11
      vertex 16 34 11
    endloop
  endfacet
  facet normal 0 -1 0
    outer loop
      vertex 16 32 11
      vertex 16 32 0
      vertex 36 32 0
    endloop
  endfacet
  facet normal 0 -1 0
    outer loop
      vertex 36 32 11
      vertex 16 32 11
      vertex 36 32 0
    endloop
  endfacet
  facet normal 0 0 -1
    outer loop
      vertex 16 32 0
      vertex 16 35 0
      vertex 36 32 0
    endloop
  endfacet
  facet normal 0 0 -1
    outer loop
      vertex 36 32 0
      vertex 16 35 0
      vertex 26 35 0
    endloop
  endfacet
  facet normal 0 0 -1
    outer loop
      vertex 36 32 0
      vertex 26 35 0
      vertex 26 35.0583 0
    endloop
  endfacet
  facet normal 0 0 -1
    outer loop
      vertex 36 32 0
      vertex 26 35.0583 0
      vertex 26.9643 35.0583 0
    endloop
  endfacet
  facet normal 0 0 -1
    outer loop
      vertex 36 32 0
      vertex 26.9643 35.0583 0
      vertex 28.8368 35.5199 0
    endloop
  endfacet
  facet normal 0 0 -1
    outer loop
      vertex 28.8368 35.5199 0
      vertex 30.5445 36.4161 0
      vertex 36 32 0
    endloop
  endfacet
  facet normal 0 0 -1
    outer loop
      vertex 30.5445 36.4161 0
      vertex 31.9881 37.695 0
      vertex 36 32 0
    endloop
  endfacet
  facet normal 0 0 -1
    outer loop
      vertex 31.9881 37.695 0
      vertex 33.0836 39.2822 0
      vertex 36 32 0
    endloop
  endfacet
  facet normal 0 0 -1
    outer loop
      vertex 33.0836 39.2822 0
      vertex 33.7675 41.0855 0
      vertex 36 32 0
    endloop
  endfacet
  facet normal 0 0 -1
    outer loop
      vertex 33.7675 41.0855 0
      vertex 34 43 0
      vertex 36 32 0
    endloop
  endfacet
  facet normal 0 0 -1
    outer loop
      vertex 34 43 0
      vertex 33.7675 44.9145 0
      vertex 36 32 0
    endloop
  endfacet
  facet normal 0 0 -1
    outer loop
      vertex 33.7675 44.9145 0
      vertex 36 54 0
      vertex 36 32 0
    endloop
  endfacet
  facet normal 0 0 -1
    outer loop
      vertex 33.0836 46.7178 0
      vertex 36 54 0
      vertex 33.7675 44.9145 0
    endloop
  endfacet
  facet normal 0 0 -1
    outer loop
      vertex 31.9881 48.305 0
      vertex 36 54 0
      vertex 33.0836 46.7178 0
    endloop
  endfacet
  facet normal 0 0 -1
    outer loop
      vertex 30.5445 49.5839 0
      vertex 36 54 0
      vertex 31.9881 48.305 0
    endloop
  endfacet
  facet normal 0 0 -1
    outer loop
      vertex 26.9643 50.9417 0
      vertex 26 50.9417 0
      vertex 26 51 0
    endloop
  endfacet
  facet normal 0 0 -1
    outer loop
      vertex 26.9643 50.9417 0
      vertex 16 54 0
      vertex 28.8368 50.4801 0
    endloop
  endfacet
  facet normal 0 0 -1
    outer loop
      vertex 26 51 0
      vertex 16 51 0
      vertex 16 54 0
    endloop
  endfacet
  facet normal 0 0 -1
    outer loop
      vertex 26 51 0
      vertex 16 54 0
      vertex 26.9643 50.9417 0
    endloop
  endfacet
  facet normal 0 0 -1
    outer loop
      vertex 28.8368 50.4801 0
      vertex 16 54 0
      vertex 36 54 0
    endloop
  endfacet
  facet normal 0 0 -1
    outer loop
      vertex 28.8368 50.4801 0
      vertex 36 54 0
      vertex 30.5445 49.5839 0
    endloop
  endfacet
  facet normal 0 1 0
    outer loop
      vertex 26 35 1
      vertex 26 35 0
      vertex 16 35 1
    endloop
  endfacet
  facet normal 0 1 0
    outer loop
      vertex 16 35 1
      vertex 26 35 0
      vertex 16 35 0
    endloop
  endfacet
  facet normal 0 0 1
    outer loop
      vertex 17 34 1
      vertex 17 33 1
      vertex 27 33 1
    endloop
  endfacet
  facet normal 0 0 1
    outer loop
      vertex 26 35 1
      vertex 16 35 1
      vertex 17 34 1
    endloop
  endfacet
  facet normal 0 0 1
    outer loop
      vertex 26.9643 35.0583 1
      vertex 17 34 1
      vertex 27 33 1
    endloop
  endfacet
  facet normal 0 0 1
    outer loop
      vertex 27 35.0671 1
      vertex 26.9643 35.0583 1
      vertex 27 33 1
    endloop
  endfacet
  facet normal 0 0 1
    outer loop
      vertex 26.9643 35.0583 1
      vertex 26 35 1
      vertex 17 34 1
    endloop
  endfacet
  facet normal 0 0 1
    outer loop
      vertex 16 34 1
      vertex 17 34 1
      vertex 16 35 1
    endloop
  endfacet
  facet normal 0 0 1
    outer loop
      vertex 26.9643 35.0583 1
      vertex 26 35.0583 1
      vertex 26 35 1
    endloop
  endfacet
  facet normal 0 1 0
    outer loop
      vertex 17 34 11
      vertex 17 34 1
      vertex 16 34 11
    endloop
  endfacet
  facet normal 0 1 0
    outer loop
      vertex 16 34 11
      vertex 17 34 1
      vertex 16 34 1
    endloop
  endfacet
  facet normal 0 0 1
    outer loop
      vertex 17 33 11
      vertex 16 32 11
      vertex 36 32 11
    endloop
  endfacet
  facet normal 0 0 1
    outer loop
      vertex 34 43 11
      vertex 33.7675 41.0855 11
      vertex 36 32 11
    endloop
  endfacet
  facet normal 0 0 1
    outer loop
      vertex 17 33 11
      vertex 17 34 11
      vertex 16 34 11
    endloop
  endfacet
  facet normal 0 0 1
    outer loop
      vertex 17 53 11
      vertex 27 53 11
      vertex 36 54 11
    endloop
  endfacet
  facet normal 0 0 1
    outer loop
      vertex 16 54 11
      vertex 17 53 11
      vertex 36 54 11
    endloop
  endfacet
  facet normal 0 0 1
    outer loop
      vertex 16 54 11
      vertex 16 52 11
      vertex 17 53 11
    endloop
  endfacet
  facet normal 0 0 1
    outer loop
      vertex 27 53 11
      vertex 27 50.9329 11
      vertex 36 54 11
    endloop
  endfacet
  facet normal 0 0 1
    outer loop
      vertex 27 50.9329 11
      vertex 28.8368 50.4801 11
      vertex 36 54 11
    endloop
  endfacet
  facet normal 0 0 1
    outer loop
      vertex 28.8368 50.4801 11
      vertex 30.5445 49.5839 11
      vertex 36 54 11
    endloop
  endfacet
  facet normal 0 0 1
    outer loop
      vertex 27 33 11
      vertex 17 33 11
      vertex 36 32 11
    endloop
  endfacet
  facet normal 0 0 1
    outer loop
      vertex 33.7675 41.0855 11
      vertex 33.0836 39.2822 11
      vertex 36 32 11
    endloop
  endfacet
  facet normal 0 0 1
    outer loop
      vertex 36 54 11
      vertex 31.9881 48.305 11
      vertex 33.0836 46.7178 11
    endloop
  endfacet
  facet normal 0 0 1
    outer loop
      vertex 36 54 11
      vertex 33.7675 44.9145 11
      vertex 36 32 11
    endloop
  endfacet
  facet normal 0 0 1
    outer loop
      vertex 36 54 11
      vertex 33.0836 46.7178 11
      vertex 33.7675 44.9145 11
    endloop
  endfacet
  facet normal 0 0 1
    outer loop
      vertex 33.7675 44.9145 11
      vertex 34 43 11
      vertex 36 32 11
    endloop
  endfacet
  facet normal 0 0 1
    outer loop
      vertex 33.0836 39.2822 11
      vertex 31.9881 37.695 11
      vertex 36 32 11
    endloop
  endfacet
  facet normal 0 0 1
    outer loop
      vertex 31.9881 37.695 11
      vertex 30.5445 36.4161 11
      vertex 36 32 11
    endloop
  endfacet
  facet normal 0 0 1
    outer loop
      vertex 30.5445 36.4161 11
      vertex 28.8368 35.5199 11
      vertex 36 32 11
    endloop
  endfacet
  facet normal 0 0 1
    outer loop
      vertex 28.8368 35.5199 11
      vertex 27 35.0671 11
      vertex 36 32 11
    endloop
  endfacet
  facet normal 0 0 1
    outer loop
      vertex 27 35.0671 11
      vertex 27 33 11
      vertex 36 32 11
    endloop
  endfacet
  facet normal 0 0 1
    outer loop
      vertex 16 34 11
      vertex 16 32 11
      vertex 17 33 11
    endloop
  endfacet
  facet normal 0 0 1
    outer loop
      vertex 30.5445 49.5839 11
      vertex 31.9881 48.305 11
      vertex 36 54 11
    endloop
  endfacet
  facet normal 0 0 1
    outer loop
      vertex 17 52 11
      vertex 17 53 11
      vertex 16 52 11
    endloop
  endfacet
  facet normal 1 0 0
    outer loop
      vertex 36 32 11
      vertex 36 32 0
      vertex 36 54 0
    endloop
  endfacet
  facet normal 1 0 0
    outer loop
      vertex 36 54 11
      vertex 36 32 11
      vertex 36 54 0
    endloop
  endfacet
  facet normal 0 1 0
    outer loop
      vertex 16 54 0
      vertex 16 54 11
      vertex 36 54 0
    endloop
  endfacet
  facet normal 0 1 0
    outer loop
      vertex 36 54 0
      vertex 16 54 11
      vertex 36 54 11
    endloop
  endfacet
  facet normal -1 0 0
    outer loop
      vertex 16 51 0
      vertex 16 51 1
      vertex 16 54 0
    endloop
  endfacet
  facet normal -1 0 0
    outer loop
      vertex 16 54 0
      vertex 16 51 1
      vertex 16 52 1
    endloop
  endfacet
  facet normal -1 0 0
    outer loop
      vertex 16 54 0
      vertex 16 52 1
      vertex 16 52 11
    endloop
  endfacet
  facet normal -1 0 0
    outer loop
      vertex 16 54 0
      vertex 16 52 11
      vertex 16 54 11
    endloop
  endfacet
  facet normal 0 -1 0
    outer loop
      vertex 26 51 0
      vertex 26 51 1
      vertex 16 51 1
    endloop
  endfacet
  facet normal 0 -1 0
    outer loop
      vertex 16 51 0
      vertex 26 51 0
      vertex 16 51 1
    endloop
  endfacet
  facet normal -1 0 0
    outer loop
      vertex 26 51 1
      vertex 26 51 0
      vertex 26 50.9417 1
    endloop
  endfacet
  facet normal -1 0 0
    outer loop
      vertex 26 50.9417 1
      vertex 26 51 0
      vertex 26 50.9417 0
    endloop
  endfacet
  facet normal 0 -1 0
    outer loop
      vertex 26.9643 50.9417 0
      vertex 26.9643 50.9417 1
      vertex 26 50.9417 1
    endloop
  endfacet
  facet normal 0 -1 0
    outer loop
      vertex 26 50.9417 0
      vertex 26.9643 50.9417 0
      vertex 26 50.9417 1
    endloop
  endfacet
  facet normal -0.239316 -0.970942 0
    outer loop
      vertex 28.8368 50.4801 0
      vertex 28.8368 50.4801 11
      vertex 27 50.9329 11
    endloop
  endfacet
  facet normal -0.239316 -0.970942 0
    outer loop
      vertex 26.9643 50.9417 1
      vertex 28.8368 50.4801 0
      vertex 27 50.9329 1
    endloop
  endfacet
  facet normal -0.239316 -0.970942 0
    outer loop
      vertex 27 50.9329 1
      vertex 28.8368 50.4801 0
      vertex 27 50.9329 11
    endloop
  endfacet
  facet normal -0.239316 -0.970942 0
    outer loop
      vertex 26.9643 50.9417 0
      vertex 28.8368 50.4801 0
      vertex 26.9643 50.9417 1
    endloop
  endfacet
  facet normal -0.464723 -0.885456 0
    outer loop
      vertex 30.5445 49.5839 0
      vertex 30.5445 49.5839 11
      vertex 28.8368 50.4801 11
    endloop
  endfacet
  facet normal -0.464723 -0.885456 0
    outer loop
      vertex 28.8368 50.4801 0
      vertex 30.5445 49.5839 0
      vertex 28.8368 50.4801 11
    endloop
  endfacet
  facet normal -0.663123 -0.748511 0
    outer loop
      vertex 31.9881 48.305 0
      vertex 31.9881 48.305 11
      vertex 30.5445 49.5839 11
    endloop
  endfacet
  facet normal -0.663123 -0.748511 0
    outer loop
      vertex 30.5445 49.5839 0
      vertex 31.9881 48.305 0
      vertex 30.5445 49.5839 11
    endloop
  endfacet
  facet normal -0.822984 -0.568065 0
    outer loop
      vertex 33.0836 46.7178 11
      vertex 31.9881 48.305 11
      vertex 33.0836 46.7178 0
    endloop
  endfacet
  facet normal -0.822984 -0.568065 0
    outer loop
      vertex 33.0836 46.7178 0
      vertex 31.9881 48.305 11
      vertex 31.9881 48.305 0
    endloop
  endfacet
  facet normal -0.935016 -0.354605 0
    outer loop
      vertex 33.7675 44.9145 11
      vertex 33.0836 46.7178 11
      vertex 33.7675 44.9145 0
    endloop
  endfacet
  facet normal -0.935016 -0.354605 0
    outer loop
      vertex 33.7675 44.9145 0
      vertex 33.0836 46.7178 11
      vertex 33.0836 46.7178 0
    endloop
  endfacet
  facet normal -0.992709 -0.120536 0
    outer loop
      vertex 34 43 11
      vertex 33.7675 44.9145 11
      vertex 34 43 0
    endloop
  endfacet
  facet normal -0.992709 -0.120536 0
    outer loop
      vertex 34 43 0
      vertex 33.7675 44.9145 11
      vertex 33.7675 44.9145 0
    endloop
  endfacet
  facet normal -0.992709 0.120536 0
    outer loop
      vertex 34 43 11
      vertex 34 43 0
      vertex 33.7675 41.0855 11
    endloop
  endfacet
  facet normal -0.992709 0.120536 0
    outer loop
      vertex 33.7675 41.0855 11
      vertex 34 43 0
      vertex 33.7675 41.0855 0
    endloop
  endfacet
  facet normal -0.935016 0.354605 0
    outer loop
      vertex 33.7675 41.0855 11
      vertex 33.7675 41.0855 0
      vertex 33.0836 39.2822 11
    endloop
  endfacet
  facet normal -0.935016 0.354605 0
    outer loop
      vertex 33.0836 39.2822 11
      vertex 33.7675 41.0855 0
      vertex 33.0836 39.2822 0
    endloop
  endfacet
  facet normal -0.822984 0.568065 0
    outer loop
      vertex 33.0836 39.2822 11
      vertex 33.0836 39.2822 0
      vertex 31.9881 37.695 11
    endloop
  endfacet
  facet normal -0.822984 0.568065 0
    outer loop
      vertex 31.9881 37.695 11
      vertex 33.0836 39.2822 0
      vertex 31.9881 37.695 0
    endloop
  endfacet
  facet normal -0.663123 0.748511 0
    outer loop
      vertex 31.9881 37.695 11
      vertex 31.9881 37.695 0
      vertex 30.5445 36.4161 11
    endloop
  endfacet
  facet normal -0.663123 0.748511 0
    outer loop
      vertex 30.5445 36.4161 11
      vertex 31.9881 37.695 0
      vertex 30.5445 36.4161 0
    endloop
  endfacet
  facet normal -0.464723 0.885456 0
    outer loop
      vertex 30.5445 36.4161 11
      vertex 30.5445 36.4161 0
      vertex 28.8368 35.5199 11
    endloop
  endfacet
  facet normal -0.464723 0.885456 0
    outer loop
      vertex 28.8368 35.5199 11
      vertex 30.5445 36.4161 0
      vertex 28.8368 35.5199 0
    endloop
  endfacet
  facet normal -0.239316 0.970942 0
    outer loop
      vertex 27 35.0671 1
      vertex 27 35.0671 11
      vertex 28.8368 35.5199 11
    endloop
  endfacet
  facet normal -0.239316 0.970942 0
    outer loop
      vertex 27 35.0671 1
      vertex 28.8368 35.5199 11
      vertex 28.8368 35.5199 0
    endloop
  endfacet
  facet normal -0.239316 0.970942 0
    outer loop
      vertex 27 35.0671 1
      vertex 28.8368 35.5199 0
      vertex 26.9643 35.0583 1
    endloop
  endfacet
  facet normal -0.239316 0.970942 0
    outer loop
      vertex 28.8368 35.5199 0
      vertex 26.9643 35.0583 0
      vertex 26.9643 35.0583 1
    endloop
  endfacet
  facet normal 0 1 0
    outer loop
      vertex 26.9643 35.0583 1
      vertex 26.9643 35.0583 0
      vertex 26 35.0583 1
    endloop
  endfacet
  facet normal 0 1 0
    outer loop
      vertex 26 35.0583 1
      vertex 26.9643 35.0583 0
      vertex 26 35.0583 0
    endloop
  endfacet
  facet normal -1 0 0
    outer loop
      vertex 26 35.0583 1
      vertex 26 35.0583 0
      vertex 26 35 1
    endloop
  endfacet
  facet normal -1 0 0
    outer loop
      vertex 26 35 1
      vertex 26 35.0583 0
      vertex 26 35 0
    endloop
  endfacet
  facet normal 1 0 0
    outer loop
      vertex 17 33 11
      vertex 17 33 1
      vertex 17 34 1
    endloop
  endfacet
  facet normal 1 0 0
    outer loop
      vertex 17 34 11
      vertex 17 33 11
      vertex 17 34 1
    endloop
  endfacet
  facet normal -1 0 0
    outer loop
      vertex 27 35.0671 11
      vertex 27 35.0671 1
      vertex 27 33 11
    endloop
  endfacet
  facet normal -1 0 0
    outer loop
      vertex 27 33 11
      vertex 27 35.0671 1
      vertex 27 33 1
    endloop
  endfacet
  facet normal 0 1 0
    outer loop
      vertex 27 33 11
      vertex 27 33 1
      vertex 17 33 11
    endloop
  endfacet
  facet normal 0 1 0
    outer loop
      vertex 17 33 11
      vertex 27 33 1
      vertex 17 33 1
    endloop
  endfacet
  facet normal -1 0 0
    outer loop
      vertex 27 53 11
      vertex 27 53 1
      vertex 27 50.9329 11
    endloop
  endfacet
  facet normal -1 0 0
    outer loop
      vertex 27 50.9329 11
      vertex 27 53 1
      vertex 27 50.9329 1
    endloop
  endfacet
  facet normal 0 -1 0
    outer loop
      vertex 27 53 1
      vertex 27 53 11
      vertex 17 53 11
    endloop
  endfacet
  facet normal 0 -1 0
    outer loop
      vertex 17 53 1
      vertex 27 53 1
      vertex 17 53 11
    endloop
  endfacet
  facet normal 1 0 0
    outer loop
      vertex 17 52 11
      vertex 17 52 1
      vertex 17 53 1
    endloop
  endfacet
  facet normal 1 0 0
    outer loop
      vertex 17 53 11
      vertex 17 52 11
      vertex 17 53 1
    endloop
  endfacet
  facet normal 0 -1 0
    outer loop
      vertex 17 52 1
      vertex 17 52 11
      vertex 16 52 11
    endloop
  endfacet
  facet normal 0 -1 0
    outer loop
      vertex 16 52 1
      vertex 17 52 1
      vertex 16 52 11
    endloop
  endfacet
  facet normal 0 0 1
    outer loop
      vertex 26 51 1
      vertex 26 50.9417 1
      vertex 26.9643 50.9417 1
    endloop
  endfacet
  facet normal 0 0 1
    outer loop
      vertex 27 53 1
      vertex 26 51 1
      vertex 26.9643 50.9417 1
    endloop
  endfacet
  facet normal 0 0 1
    outer loop
      vertex 27 50.9329 1
      vertex 27 53 1
      vertex 26.9643 50.9417 1
    endloop
  endfacet
  facet normal 0 0 1
    outer loop
      vertex 27 53 1
      vertex 17 53 1
      vertex 26 51 1
    endloop
  endfacet
  facet normal 0 0 1
    outer loop
      vertex 16 51 1
      vertex 17 52 1
      vertex 16 52 1
    endloop
  endfacet
  facet normal 0 0 1
    outer loop
      vertex 17 52 1
      vertex 26 51 1
      vertex 17 53 1
    endloop
  endfacet
  facet normal 0 0 1
    outer loop
      vertex 16 51 1
      vertex 26 51 1
      vertex 17 52 1
    endloop
  endfacet
endsolid OpenSCAD_Model
