solid OpenSCAD_Model
  facet normal -1 0 0
    outer loop
      vertex 0 0 0
      vertex 0 0 10
      vertex 0 28 0
    endloop
  endfacet
  facet normal -1 0 0
    outer loop
      vertex 0 28 0
      vertex 0 0 10
      vertex 0 28 10
    endloop
  endfacet
  facet normal 0 -1 0
    outer loop
      vertex 0 0 10
      vertex 0 0 0
      vertex 19 0 0
    endloop
  endfacet
  facet normal 0 -1 0
    outer loop
      vertex 19 0 10
      vertex 0 0 10
      vertex 19 0 0
    endloop
  endfacet
  facet normal 0 0 -1
    outer loop
      vertex 0 0 0
      vertex 0 28 0
      vertex 19 0 0
    endloop
  endfacet
  facet normal 0 0 -1
    outer loop
      vertex 19 25 0
      vertex 0 28 0
      vertex 19 28 0
    endloop
  endfacet
  facet normal 0 0 -1
    outer loop
      vertex 19 0 0
      vertex 0 28 0
      vertex 19 3 0
    endloop
  endfacet
  facet normal 0 0 -1
    outer loop
      vertex 22 25 0
      vertex 22 28 0
      vertex 33 28 0
    endloop
  endfacet
  facet normal 0 0 -1
    outer loop
      vertex 31.8502 24.9397 0
      vertex 33 28 0
      vertex 33 24.9397 0
    endloop
  endfacet
  facet normal 0 0 -1
    outer loop
      vertex 22 3 0
      vertex 27.5 4.47372 0
      vertex 29.6008 3.53838 0
    endloop
  endfacet
  facet normal 0 0 -1
    outer loop
      vertex 22 25 0
      vertex 33 28 0
      vertex 29.6008 24.4616 0
    endloop
  endfacet
  facet normal 0 0 -1
    outer loop
      vertex 22 3 0
      vertex 31.8502 3.06026 0
      vertex 33 3.06026 0
    endloop
  endfacet
  facet normal 0 0 -1
    outer loop
      vertex 22 25 0
      vertex 29.6008 24.4616 0
      vertex 27.5 23.5263 0
    endloop
  endfacet
  facet normal 0 0 -1
    outer loop
      vertex 22 25 0
      vertex 27.5 23.5263 0
      vertex 25.6396 22.1746 0
    endloop
  endfacet
  facet normal 0 0 -1
    outer loop
      vertex 22 25 0
      vertex 25.6396 22.1746 0
      vertex 24.1008 20.4656 0
    endloop
  endfacet
  facet normal 0 0 -1
    outer loop
      vertex 22 25 0
      vertex 24.1008 20.4656 0
      vertex 22.951 18.4741 0
    endloop
  endfacet
  facet normal 0 0 -1
    outer loop
      vertex 22 25 0
      vertex 22.951 18.4741 0
      vertex 22.2404 16.287 0
    endloop
  endfacet
  facet normal 0 0 -1
    outer loop
      vertex 22 3 0
      vertex 25.6396 5.82541 0
      vertex 27.5 4.47372 0
    endloop
  endfacet
  facet normal 0 0 -1
    outer loop
      vertex 22 3 0
      vertex 24.1008 7.53436 0
      vertex 25.6396 5.82541 0
    endloop
  endfacet
  facet normal 0 0 -1
    outer loop
      vertex 19 3 0
      vertex 22.2404 16.287 0
      vertex 22 14 0
    endloop
  endfacet
  facet normal 0 0 -1
    outer loop
      vertex 19 3 0
      vertex 22 14 0
      vertex 22.2404 11.713 0
    endloop
  endfacet
  facet normal 0 0 -1
    outer loop
      vertex 19 3 0
      vertex 22.2404 11.713 0
      vertex 22.951 9.5259 0
    endloop
  endfacet
  facet normal 0 0 -1
    outer loop
      vertex 19 3 0
      vertex 22.951 9.5259 0
      vertex 24.1008 7.53436 0
    endloop
  endfacet
  facet normal 0 0 -1
    outer loop
      vertex 22 0 0
      vertex 33 3.06026 0
      vertex 33 0 0
    endloop
  endfacet
  facet normal 0 0 -1
    outer loop
      vertex 19 3 0
      vertex 24.1008 7.53436 0
      vertex 22 3 0
    endloop
  endfacet
  facet normal 0 0 -1
    outer loop
      vertex 19 3 0
      vertex 22 25 0
      vertex 22.2404 16.287 0
    endloop
  endfacet
  facet normal 0 0 -1
    outer loop
      vertex 19 25 0
      vertex 22 25 0
      vertex 19 3 0
    endloop
  endfacet
  facet normal 0 0 -1
    outer loop
      vertex 19 25 0
      vertex 19 3 0
      vertex 0 28 0
    endloop
  endfacet
  facet normal 0 0 -1
    outer loop
      vertex 29.6008 24.4616 0
      vertex 33 28 0
      vertex 31.8502 24.9397 0
    endloop
  endfacet
  facet normal 0 0 -1
    outer loop
      vertex 22 3 0
      vertex 29.6008 3.53838 0
      vertex 31.8502 3.06026 0
    endloop
  endfacet
  facet normal 0 0 -1
    outer loop
      vertex 22 3 0
      vertex 33 3.06026 0
      vertex 22 0 0
    endloop
  endfacet
  facet normal 0 1 0
    outer loop
      vertex 0 28 0
      vertex 0 28 10
      vertex 19 28 0
    endloop
  endfacet
  facet normal 0 1 0
    outer loop
      vertex 19 28 0
      vertex 0 28 10
      vertex 19 28 10
    endloop
  endfacet
  facet normal 0 0 1
    outer loop
      vertex 0 28 10
      vertex 0 0 10
      vertex 19 0 10
    endloop
  endfacet
  facet normal 0 0 1
    outer loop
      vertex 22 3 10
      vertex 0 28 10
      vertex 19 3 10
    endloop
  endfacet
  facet normal 0 0 1
    outer loop
      vertex 19 3 10
      vertex 0 28 10
      vertex 19 0 10
    endloop
  endfacet
  facet normal 0 0 1
    outer loop
      vertex 25.6396 5.82541 10
      vertex 0 28 10
      vertex 22 3 10
    endloop
  endfacet
  facet normal 0 0 1
    outer loop
      vertex 33 0 10
      vertex 22 3 10
      vertex 22 0 10
    endloop
  endfacet
  facet normal 0 0 1
    outer loop
      vertex 22.951 9.5259 10
      vertex 22.2404 11.713 10
      vertex 0 28 10
    endloop
  endfacet
  facet normal 0 0 1
    outer loop
      vertex 33 3.06026 10
      vertex 31.8502 3.06026 10
      vertex 33 0 10
    endloop
  endfacet
  facet normal 0 0 1
    outer loop
      vertex 31.8502 3.06026 10
      vertex 29.6008 3.53838 10
      vertex 33 0 10
    endloop
  endfacet
  facet normal 0 0 1
    outer loop
      vertex 33 0 10
      vertex 27.5 4.47372 10
      vertex 22 3 10
    endloop
  endfacet
  facet normal 0 0 1
    outer loop
      vertex 27.5 4.47372 10
      vertex 25.6396 5.82541 10
      vertex 22 3 10
    endloop
  endfacet
  facet normal 0 0 1
    outer loop
      vertex 24.1008 7.53436 10
      vertex 22.951 9.5259 10
      vertex 0 28 10
    endloop
  endfacet
  facet normal 0 0 1
    outer loop
      vertex 25.6396 5.82541 10
      vertex 24.1008 7.53436 10
      vertex 0 28 10
    endloop
  endfacet
  facet normal 0 0 1
    outer loop
      vertex 22 28 10
      vertex 31.8502 24.9397 10
      vertex 33 24.9397 10
    endloop
  endfacet
  facet normal 0 0 1
    outer loop
      vertex 22 14 10
      vertex 0 28 10
      vertex 22.2404 11.713 10
    endloop
  endfacet
  facet normal 0 0 1
    outer loop
      vertex 22.2404 16.287 10
      vertex 0 28 10
      vertex 22 14 10
    endloop
  endfacet
  facet normal 0 0 1
    outer loop
      vertex 22.951 18.4741 10
      vertex 0 28 10
      vertex 22.2404 16.287 10
    endloop
  endfacet
  facet normal 0 0 1
    outer loop
      vertex 24.1008 20.4656 10
      vertex 0 28 10
      vertex 22.951 18.4741 10
    endloop
  endfacet
  facet normal 0 0 1
    outer loop
      vertex 25.6396 22.1746 10
      vertex 0 28 10
      vertex 24.1008 20.4656 10
    endloop
  endfacet
  facet normal 0 0 1
    outer loop
      vertex 27.5 23.5263 10
      vertex 0 28 10
      vertex 25.6396 22.1746 10
    endloop
  endfacet
  facet normal 0 0 1
    outer loop
      vertex 19 25 10
      vertex 0 28 10
      vertex 27.5 23.5263 10
    endloop
  endfacet
  facet normal 0 0 1
    outer loop
      vertex 19 25 10
      vertex 19 28 10
      vertex 0 28 10
    endloop
  endfacet
  facet normal 0 0 1
    outer loop
      vertex 33 28 10
      vertex 22 28 10
      vertex 33 24.9397 10
    endloop
  endfacet
  facet normal 0 0 1
    outer loop
      vertex 29.6008 24.4616 10
      vertex 22 25 10
      vertex 27.5 23.5263 10
    endloop
  endfacet
  facet normal 0 0 1
    outer loop
      vertex 22 25 10
      vertex 19 25 10
      vertex 27.5 23.5263 10
    endloop
  endfacet
  facet normal 0 0 1
    outer loop
      vertex 29.6008 3.53838 10
      vertex 27.5 4.47372 10
      vertex 33 0 10
    endloop
  endfacet
  facet normal 0 0 1
    outer loop
      vertex 22 28 10
      vertex 29.6008 24.4616 10
      vertex 31.8502 24.9397 10
    endloop
  endfacet
  facet normal 0 0 1
    outer loop
      vertex 22 28 10
      vertex 22 25 10
      vertex 29.6008 24.4616 10
    endloop
  endfacet
  facet normal 1 0 0
    outer loop
      vertex 19 3 0
      vertex 19 3 10
      vertex 19 0 10
    endloop
  endfacet
  facet normal 1 0 0
    outer loop
      vertex 19 0 0
      vertex 19 3 0
      vertex 19 0 10
    endloop
  endfacet
  facet normal 0 -1 0
    outer loop
      vertex 22 3 0
      vertex 22 3 10
      vertex 19 3 10
    endloop
  endfacet
  facet normal 0 -1 0
    outer loop
      vertex 19 3 0
      vertex 22 3 0
      vertex 19 3 10
    endloop
  endfacet
  facet normal -1 0 0
    outer loop
      vertex 22 3 10
      vertex 22 3 0
      vertex 22 0 10
    endloop
  endfacet
  facet normal -1 0 0
    outer loop
      vertex 22 0 10
      vertex 22 3 0
      vertex 22 0 0
    endloop
  endfacet
  facet normal 0 -1 0
    outer loop
      vertex 22 0 10
      vertex 22 0 0
      vertex 33 0 0
    endloop
  endfacet
  facet normal 0 -1 0
    outer loop
      vertex 33 0 10
      vertex 22 0 10
      vertex 33 0 0
    endloop
  endfacet
  facet normal 1 0 0
    outer loop
      vertex 33 0 10
      vertex 33 0 0
      vertex 33 3.06026 0
    endloop
  endfacet
  facet normal 1 0 0
    outer loop
      vertex 33 3.06026 10
      vertex 33 0 10
      vertex 33 3.06026 0
    endloop
  endfacet
  facet normal 0 1 0
    outer loop
      vertex 33 3.06026 10
      vertex 33 3.06026 0
      vertex 31.8502 3.06026 10
    endloop
  endfacet
  facet normal 0 1 0
    outer loop
      vertex 31.8502 3.06026 10
      vertex 33 3.06026 0
      vertex 31.8502 3.06026 0
    endloop
  endfacet
  facet normal 0.207912 0.978148 0
    outer loop
      vertex 31.8502 3.06026 10
      vertex 31.8502 3.06026 0
      vertex 29.6008 3.53838 10
    endloop
  endfacet
  facet normal 0.207912 0.978148 0
    outer loop
      vertex 29.6008 3.53838 10
      vertex 31.8502 3.06026 0
      vertex 29.6008 3.53838 0
    endloop
  endfacet
  facet normal 0.406737 0.913545 0
    outer loop
      vertex 29.6008 3.53838 10
      vertex 29.6008 3.53838 0
      vertex 27.5 4.47372 10
    endloop
  endfacet
  facet normal 0.406737 0.913545 0
    outer loop
      vertex 27.5 4.47372 10
      vertex 29.6008 3.53838 0
      vertex 27.5 4.47372 0
    endloop
  endfacet
  facet normal 0.587785 0.809017 0
    outer loop
      vertex 27.5 4.47372 10
      vertex 27.5 4.47372 0
      vertex 25.6396 5.82541 10
    endloop
  endfacet
  facet normal 0.587785 0.809017 0
    outer loop
      vertex 25.6396 5.82541 10
      vertex 27.5 4.47372 0
      vertex 25.6396 5.82541 0
    endloop
  endfacet
  facet normal 0.743145 0.669131 0
    outer loop
      vertex 24.1008 7.53436 10
      vertex 25.6396 5.82541 10
      vertex 25.6396 5.82541 0
    endloop
  endfacet
  facet normal 0.743145 0.669131 0
    outer loop
      vertex 24.1008 7.53436 0
      vertex 24.1008 7.53436 10
      vertex 25.6396 5.82541 0
    endloop
  endfacet
  facet normal 0.866025 0.5 0
    outer loop
      vertex 22.951 9.5259 10
      vertex 24.1008 7.53436 10
      vertex 24.1008 7.53436 0
    endloop
  endfacet
  facet normal 0.866025 0.5 0
    outer loop
      vertex 22.951 9.5259 0
      vertex 22.951 9.5259 10
      vertex 24.1008 7.53436 0
    endloop
  endfacet
  facet normal 0.951056 0.309017 0
    outer loop
      vertex 22.2404 11.713 10
      vertex 22.951 9.5259 10
      vertex 22.951 9.5259 0
    endloop
  endfacet
  facet normal 0.951056 0.309017 0
    outer loop
      vertex 22.2404 11.713 0
      vertex 22.2404 11.713 10
      vertex 22.951 9.5259 0
    endloop
  endfacet
  facet normal 0.994522 0.104528 0
    outer loop
      vertex 22 14 10
      vertex 22.2404 11.713 10
      vertex 22.2404 11.713 0
    endloop
  endfacet
  facet normal 0.994522 0.104528 0
    outer loop
      vertex 22 14 0
      vertex 22 14 10
      vertex 22.2404 11.713 0
    endloop
  endfacet
  facet normal 0.994522 -0.104528 0
    outer loop
      vertex 22.2404 16.287 0
      vertex 22.2404 16.287 10
      vertex 22 14 10
    endloop
  endfacet
  facet normal 0.994522 -0.104528 0
    outer loop
      vertex 22 14 0
      vertex 22.2404 16.287 0
      vertex 22 14 10
    endloop
  endfacet
  facet normal 0.951056 -0.309017 0
    outer loop
      vertex 22.951 18.4741 0
      vertex 22.951 18.4741 10
      vertex 22.2404 16.287 10
    endloop
  endfacet
  facet normal 0.951056 -0.309017 0
    outer loop
      vertex 22.2404 16.287 0
      vertex 22.951 18.4741 0
      vertex 22.2404 16.287 10
    endloop
  endfacet
  facet normal 0.866025 -0.5 0
    outer loop
      vertex 24.1008 20.4656 0
      vertex 24.1008 20.4656 10
      vertex 22.951 18.4741 10
    endloop
  endfacet
  facet normal 0.866025 -0.5 0
    outer loop
      vertex 22.951 18.4741 0
      vertex 24.1008 20.4656 0
      vertex 22.951 18.4741 10
    endloop
  endfacet
  facet normal 0.743145 -0.669131 0
    outer loop
      vertex 25.6396 22.1746 0
      vertex 25.6396 22.1746 10
      vertex 24.1008 20.4656 10
    endloop
  endfacet
  facet normal 0.743145 -0.669131 0
    outer loop
      vertex 24.1008 20.4656 0
      vertex 25.6396 22.1746 0
      vertex 24.1008 20.4656 10
    endloop
  endfacet
  facet normal 0.587785 -0.809017 0
    outer loop
      vertex 27.5 23.5263 0
      vertex 27.5 23.5263 10
      vertex 25.6396 22.1746 10
    endloop
  endfacet
  facet normal 0.587785 -0.809017 0
    outer loop
      vertex 25.6396 22.1746 0
      vertex 27.5 23.5263 0
      vertex 25.6396 22.1746 10
    endloop
  endfacet
  facet normal 0.406737 -0.913545 0
    outer loop
      vertex 29.6008 24.4616 0
      vertex 29.6008 24.4616 10
      vertex 27.5 23.5263 10
    endloop
  endfacet
  facet normal 0.406737 -0.913545 0
    outer loop
      vertex 27.5 23.5263 0
      vertex 29.6008 24.4616 0
      vertex 27.5 23.5263 10
    endloop
  endfacet
  facet normal 0.207912 -0.978148 0
    outer loop
      vertex 31.8502 24.9397 0
      vertex 31.8502 24.9397 10
      vertex 29.6008 24.4616 10
    endloop
  endfacet
  facet normal 0.207912 -0.978148 0
    outer loop
      vertex 29.6008 24.4616 0
      vertex 31.8502 24.9397 0
      vertex 29.6008 24.4616 10
    endloop
  endfacet
  facet normal 0 -1 0
    outer loop
      vertex 33 24.9397 0
      vertex 33 24.9397 10
      vertex 31.8502 24.9397 10
    endloop
  endfacet
  facet normal 0 -1 0
    outer loop
      vertex 31.8502 24.9397 0
      vertex 33 24.9397 0
      vertex 31.8502 24.9397 10
    endloop
  endfacet
  facet normal 1 0 0
    outer loop
      vertex 33 24.9397 10
      vertex 33 24.9397 0
      vertex 33 28 0
    endloop
  endfacet
  facet normal 1 0 0
    outer loop
      vertex 33 28 10
      vertex 33 24.9397 10
      vertex 33 28 0
    endloop
  endfacet
  facet normal 0 1 0
    outer loop
      vertex 22 28 0
      vertex 22 28 10
      vertex 33 28 0
    endloop
  endfacet
  facet normal 0 1 0
    outer loop
      vertex 33 28 0
      vertex 22 28 10
      vertex 33 28 10
    endloop
  endfacet
  facet normal -1 0 0
    outer loop
      vertex 22 28 10
      vertex 22 28 0
      vertex 22 25 10
    endloop
  endfacet
  facet normal -1 0 0
    outer loop
      vertex 22 25 10
      vertex 22 28 0
      vertex 22 25 0
    endloop
  endfacet
  facet normal 0 1 0
    outer loop
      vertex 22 25 10
      vertex 22 25 0
      vertex 19 25 10
    endloop
  endfacet
  facet normal 0 1 0
    outer loop
      vertex 19 25 10
      vertex 22 25 0
      vertex 19 25 0
    endloop
  endfacet
  facet normal 1 0 0
    outer loop
      vertex 19 28 0
      vertex 19 28 10
      vertex 19 25 10
    endloop
  endfacet
  facet normal 1 0 0
    outer loop
      vertex 19 25 0
      vertex 19 28 0
      vertex 19 25 10
    endloop
  endfacet
  facet normal -1 0 0
    outer loop
      vertex 19 39 0
      vertex 19 39 12
      vertex 19 44 0
    endloop
  endfacet
  facet normal -1 0 0
    outer loop
      vertex 19 44 0
      vertex 19 39 12
      vertex 19 44 12
    endloop
  endfacet
  facet normal 0 -1 0
    outer loop
      vertex 19 39 12
      vertex 19 39 0
      vertex 48 39 0
    endloop
  endfacet
  facet normal 0 -1 0
    outer loop
      vertex 48 39 12
      vertex 19 39 12
      vertex 48 39 0
    endloop
  endfacet
  facet normal 0 0 -1
    outer loop
      vertex 19 39 0
      vertex 19 44 0
      vertex 48 39 0
    endloop
  endfacet
  facet normal 0 0 -1
    outer loop
      vertex 48 39 0
      vertex 19 44 0
      vertex 35 44 0
    endloop
  endfacet
  facet normal 0 0 -1
    outer loop
      vertex 48 39 0
      vertex 35 44 0
      vertex 35 44.0603 0
    endloop
  endfacet
  facet normal 0 0 -1
    outer loop
      vertex 48 39 0
      vertex 35 44.0603 0
      vertex 36.1498 44.0603 0
    endloop
  endfacet
  facet normal 0 0 -1
    outer loop
      vertex 48 39 0
      vertex 36.1498 44.0603 0
      vertex 38.3992 44.5384 0
    endloop
  endfacet
  facet normal 0 0 -1
    outer loop
      vertex 38.3992 44.5384 0
      vertex 40.5 45.4737 0
      vertex 48 39 0
    endloop
  endfacet
  facet normal 0 0 -1
    outer loop
      vertex 40.5 45.4737 0
      vertex 42.3604 46.8254 0
      vertex 48 39 0
    endloop
  endfacet
  facet normal 0 0 -1
    outer loop
      vertex 42.3604 46.8254 0
      vertex 43.8992 48.5344 0
      vertex 48 39 0
    endloop
  endfacet
  facet normal 0 0 -1
    outer loop
      vertex 43.8992 48.5344 0
      vertex 45.049 50.5259 0
      vertex 48 39 0
    endloop
  endfacet
  facet normal 0 0 -1
    outer loop
      vertex 45.049 50.5259 0
      vertex 45.7596 52.713 0
      vertex 48 39 0
    endloop
  endfacet
  facet normal 0 0 -1
    outer loop
      vertex 45.7596 52.713 0
      vertex 46 55 0
      vertex 48 39 0
    endloop
  endfacet
  facet normal 0 0 -1
    outer loop
      vertex 46 55 0
      vertex 45.7596 57.287 0
      vertex 48 39 0
    endloop
  endfacet
  facet normal 0 0 -1
    outer loop
      vertex 45.7596 57.287 0
      vertex 48 71 0
      vertex 48 39 0
    endloop
  endfacet
  facet normal 0 0 -1
    outer loop
      vertex 45.049 59.4741 0
      vertex 48 71 0
      vertex 45.7596 57.287 0
    endloop
  endfacet
  facet normal 0 0 -1
    outer loop
      vertex 43.8992 61.4656 0
      vertex 48 71 0
      vertex 45.049 59.4741 0
    endloop
  endfacet
  facet normal 0 0 -1
    outer loop
      vertex 42.3604 63.1746 0
      vertex 48 71 0
      vertex 43.8992 61.4656 0
    endloop
  endfacet
  facet normal 0 0 -1
    outer loop
      vertex 40.5 64.5263 0
      vertex 48 71 0
      vertex 42.3604 63.1746 0
    endloop
  endfacet
  facet normal 0 0 -1
    outer loop
      vertex 36.1498 65.9397 0
      vertex 35 65.9397 0
      vertex 35 66 0
    endloop
  endfacet
  facet normal 0 0 -1
    outer loop
      vertex 36.1498 65.9397 0
      vertex 19 71 0
      vertex 38.3992 65.4616 0
    endloop
  endfacet
  facet normal 0 0 -1
    outer loop
      vertex 35 66 0
      vertex 19 66 0
      vertex 19 71 0
    endloop
  endfacet
  facet normal 0 0 -1
    outer loop
      vertex 35 66 0
      vertex 19 71 0
      vertex 36.1498 65.9397 0
    endloop
  endfacet
  facet normal 0 0 -1
    outer loop
      vertex 38.3992 65.4616 0
      vertex 19 71 0
      vertex 48 71 0
    endloop
  endfacet
  facet normal 0 0 -1
    outer loop
      vertex 38.3992 65.4616 0
      vertex 48 71 0
      vertex 40.5 64.5263 0
    endloop
  endfacet
  facet normal 0 1 0
    outer loop
      vertex 22 44 12
      vertex 22 44 2
      vertex 19 44 12
    endloop
  endfacet
  facet normal 0 1 0
    outer loop
      vertex 35 44 0
      vertex 22 44 2
      vertex 35 44 2
    endloop
  endfacet
  facet normal 0 1 0
    outer loop
      vertex 19 44 0
      vertex 22 44 2
      vertex 35 44 0
    endloop
  endfacet
  facet normal 0 1 0
    outer loop
      vertex 19 44 12
      vertex 22 44 2
      vertex 19 44 0
    endloop
  endfacet
  facet normal 0 0 1
    outer loop
      vertex 36 41 12
      vertex 19 39 12
      vertex 48 39 12
    endloop
  endfacet
  facet normal 0 0 1
    outer loop
      vertex 46 55 12
      vertex 45.7596 52.713 12
      vertex 48 39 12
    endloop
  endfacet
  facet normal 0 0 1
    outer loop
      vertex 22 41 12
      vertex 22 44 12
      vertex 19 44 12
    endloop
  endfacet
  facet normal 0 0 1
    outer loop
      vertex 36 69 12
      vertex 36 65.9397 12
      vertex 48 71 12
    endloop
  endfacet
  facet normal 0 0 1
    outer loop
      vertex 45.7596 52.713 12
      vertex 45.049 50.5259 12
      vertex 48 39 12
    endloop
  endfacet
  facet normal 0 0 1
    outer loop
      vertex 19 71 12
      vertex 22 69 12
      vertex 48 71 12
    endloop
  endfacet
  facet normal 0 0 1
    outer loop
      vertex 19 71 12
      vertex 19 66 12
      vertex 22 69 12
    endloop
  endfacet
  facet normal 0 0 1
    outer loop
      vertex 22 69 12
      vertex 36 69 12
      vertex 48 71 12
    endloop
  endfacet
  facet normal 0 0 1
    outer loop
      vertex 36 65.9397 12
      vertex 36.1498 65.9397 12
      vertex 48 71 12
    endloop
  endfacet
  facet normal 0 0 1
    outer loop
      vertex 36.1498 65.9397 12
      vertex 38.3992 65.4616 12
      vertex 48 71 12
    endloop
  endfacet
  facet normal 0 0 1
    outer loop
      vertex 38.3992 65.4616 12
      vertex 40.5 64.5263 12
      vertex 48 71 12
    endloop
  endfacet
  facet normal 0 0 1
    outer loop
      vertex 48 71 12
      vertex 42.3604 63.1746 12
      vertex 43.8992 61.4656 12
    endloop
  endfacet
  facet normal 0 0 1
    outer loop
      vertex 48 71 12
      vertex 43.8992 61.4656 12
      vertex 45.049 59.4741 12
    endloop
  endfacet
  facet normal 0 0 1
    outer loop
      vertex 48 71 12
      vertex 45.7596 57.287 12
      vertex 48 39 12
    endloop
  endfacet
  facet normal 0 0 1
    outer loop
      vertex 48 71 12
      vertex 45.049 59.4741 12
      vertex 45.7596 57.287 12
    endloop
  endfacet
  facet normal 0 0 1
    outer loop
      vertex 45.7596 57.287 12
      vertex 46 55 12
      vertex 48 39 12
    endloop
  endfacet
  facet normal 0 0 1
    outer loop
      vertex 45.049 50.5259 12
      vertex 43.8992 48.5344 12
      vertex 48 39 12
    endloop
  endfacet
  facet normal 0 0 1
    outer loop
      vertex 43.8992 48.5344 12
      vertex 42.3604 46.8254 12
      vertex 48 39 12
    endloop
  endfacet
  facet normal 0 0 1
    outer loop
      vertex 42.3604 46.8254 12
      vertex 40.5 45.4737 12
      vertex 48 39 12
    endloop
  endfacet
  facet normal 0 0 1
    outer loop
      vertex 40.5 45.4737 12
      vertex 38.3992 44.5384 12
      vertex 48 39 12
    endloop
  endfacet
  facet normal 0 0 1
    outer loop
      vertex 38.3992 44.5384 12
      vertex 36.1498 44.0603 12
      vertex 48 39 12
    endloop
  endfacet
  facet normal 0 0 1
    outer loop
      vertex 22 41 12
      vertex 19 39 12
      vertex 36 41 12
    endloop
  endfacet
  facet normal 0 0 1
    outer loop
      vertex 19 44 12
      vertex 19 39 12
      vertex 22 41 12
    endloop
  endfacet
  facet normal 0 0 1
    outer loop
      vertex 40.5 64.5263 12
      vertex 42.3604 63.1746 12
      vertex 48 71 12
    endloop
  endfacet
  facet normal 0 0 1
    outer loop
      vertex 22 66 12
      vertex 22 69 12
      vertex 19 66 12
    endloop
  endfacet
  facet normal 0 0 1
    outer loop
      vertex 36 44.0603 12
      vertex 48 39 12
      vertex 36.1498 44.0603 12
    endloop
  endfacet
  facet normal 0 0 1
    outer loop
      vertex 36 44.0603 12
      vertex 36 41 12
      vertex 48 39 12
    endloop
  endfacet
  facet normal 1 0 0
    outer loop
      vertex 48 39 12
      vertex 48 39 0
      vertex 48 71 0
    endloop
  endfacet
  facet normal 1 0 0
    outer loop
      vertex 48 71 12
      vertex 48 39 12
      vertex 48 71 0
    endloop
  endfacet
  facet normal 0 1 0
    outer loop
      vertex 19 71 0
      vertex 19 71 12
      vertex 48 71 0
    endloop
  endfacet
  facet normal 0 1 0
    outer loop
      vertex 48 71 0
      vertex 19 71 12
      vertex 48 71 12
    endloop
  endfacet
  facet normal -1 0 0
    outer loop
      vertex 19 66 0
      vertex 19 66 12
      vertex 19 71 0
    endloop
  endfacet
  facet normal -1 0 0
    outer loop
      vertex 19 71 0
      vertex 19 66 12
      vertex 19 71 12
    endloop
  endfacet
  facet normal 0 -1 0
    outer loop
      vertex 35 66 0
      vertex 35 66 2
      vertex 22 66 2
    endloop
  endfacet
  facet normal 0 -1 0
    outer loop
      vertex 19 66 0
      vertex 35 66 0
      vertex 22 66 2
    endloop
  endfacet
  facet normal 0 -1 0
    outer loop
      vertex 22 66 12
      vertex 19 66 12
      vertex 22 66 2
    endloop
  endfacet
  facet normal 0 -1 0
    outer loop
      vertex 19 66 12
      vertex 19 66 0
      vertex 22 66 2
    endloop
  endfacet
  facet normal -1 0 0
    outer loop
      vertex 35 66 2
      vertex 35 66 0
      vertex 35 65.9397 2
    endloop
  endfacet
  facet normal -1 0 0
    outer loop
      vertex 35 65.9397 2
      vertex 35 66 0
      vertex 35 65.9397 0
    endloop
  endfacet
  facet normal 0 -1 0
    outer loop
      vertex 36.1498 65.9397 0
      vertex 36.1498 65.9397 12
      vertex 36 65.9397 12
    endloop
  endfacet
  facet normal 0 -1 0
    outer loop
      vertex 35 65.9397 2
      vertex 36.1498 65.9397 0
      vertex 36 65.9397 2
    endloop
  endfacet
  facet normal 0 -1 0
    outer loop
      vertex 36 65.9397 2
      vertex 36.1498 65.9397 0
      vertex 36 65.9397 12
    endloop
  endfacet
  facet normal 0 -1 0
    outer loop
      vertex 35 65.9397 0
      vertex 36.1498 65.9397 0
      vertex 35 65.9397 2
    endloop
  endfacet
  facet normal -0.207912 -0.978148 0
    outer loop
      vertex 38.3992 65.4616 0
      vertex 38.3992 65.4616 12
      vertex 36.1498 65.9397 12
    endloop
  endfacet
  facet normal -0.207912 -0.978148 0
    outer loop
      vertex 36.1498 65.9397 0
      vertex 38.3992 65.4616 0
      vertex 36.1498 65.9397 12
    endloop
  endfacet
  facet normal -0.406737 -0.913545 0
    outer loop
      vertex 40.5 64.5263 0
      vertex 40.5 64.5263 12
      vertex 38.3992 65.4616 12
    endloop
  endfacet
  facet normal -0.406737 -0.913545 0
    outer loop
      vertex 38.3992 65.4616 0
      vertex 40.5 64.5263 0
      vertex 38.3992 65.4616 12
    endloop
  endfacet
  facet normal -0.587785 -0.809017 0
    outer loop
      vertex 42.3604 63.1746 0
      vertex 42.3604 63.1746 12
      vertex 40.5 64.5263 12
    endloop
  endfacet
  facet normal -0.587785 -0.809017 0
    outer loop
      vertex 40.5 64.5263 0
      vertex 42.3604 63.1746 0
      vertex 40.5 64.5263 12
    endloop
  endfacet
  facet normal -0.743145 -0.669131 0
    outer loop
      vertex 43.8992 61.4656 12
      vertex 42.3604 63.1746 12
      vertex 43.8992 61.4656 0
    endloop
  endfacet
  facet normal -0.743145 -0.669131 0
    outer loop
      vertex 43.8992 61.4656 0
      vertex 42.3604 63.1746 12
      vertex 42.3604 63.1746 0
    endloop
  endfacet
  facet normal -0.866025 -0.5 0
    outer loop
      vertex 45.049 59.4741 12
      vertex 43.8992 61.4656 12
      vertex 45.049 59.4741 0
    endloop
  endfacet
  facet normal -0.866025 -0.5 0
    outer loop
      vertex 45.049 59.4741 0
      vertex 43.8992 61.4656 12
      vertex 43.8992 61.4656 0
    endloop
  endfacet
  facet normal -0.951056 -0.309017 0
    outer loop
      vertex 45.7596 57.287 12
      vertex 45.049 59.4741 12
      vertex 45.7596 57.287 0
    endloop
  endfacet
  facet normal -0.951056 -0.309017 0
    outer loop
      vertex 45.7596 57.287 0
      vertex 45.049 59.4741 12
      vertex 45.049 59.4741 0
    endloop
  endfacet
  facet normal -0.994522 -0.104528 0
    outer loop
      vertex 46 55 12
      vertex 45.7596 57.287 12
      vertex 46 55 0
    endloop
  endfacet
  facet normal -0.994522 -0.104528 0
    outer loop
      vertex 46 55 0
      vertex 45.7596 57.287 12
      vertex 45.7596 57.287 0
    endloop
  endfacet
  facet normal -0.994522 0.104528 0
    outer loop
      vertex 46 55 12
      vertex 46 55 0
      vertex 45.7596 52.713 12
    endloop
  endfacet
  facet normal -0.994522 0.104528 0
    outer loop
      vertex 45.7596 52.713 12
      vertex 46 55 0
      vertex 45.7596 52.713 0
    endloop
  endfacet
  facet normal -0.951056 0.309017 0
    outer loop
      vertex 45.7596 52.713 12
      vertex 45.7596 52.713 0
      vertex 45.049 50.5259 12
    endloop
  endfacet
  facet normal -0.951056 0.309017 0
    outer loop
      vertex 45.049 50.5259 12
      vertex 45.7596 52.713 0
      vertex 45.049 50.5259 0
    endloop
  endfacet
  facet normal -0.866025 0.5 0
    outer loop
      vertex 45.049 50.5259 12
      vertex 45.049 50.5259 0
      vertex 43.8992 48.5344 12
    endloop
  endfacet
  facet normal -0.866025 0.5 0
    outer loop
      vertex 43.8992 48.5344 12
      vertex 45.049 50.5259 0
      vertex 43.8992 48.5344 0
    endloop
  endfacet
  facet normal -0.743145 0.669131 0
    outer loop
      vertex 43.8992 48.5344 12
      vertex 43.8992 48.5344 0
      vertex 42.3604 46.8254 12
    endloop
  endfacet
  facet normal -0.743145 0.669131 0
    outer loop
      vertex 42.3604 46.8254 12
      vertex 43.8992 48.5344 0
      vertex 42.3604 46.8254 0
    endloop
  endfacet
  facet normal -0.587785 0.809017 0
    outer loop
      vertex 42.3604 46.8254 12
      vertex 42.3604 46.8254 0
      vertex 40.5 45.4737 12
    endloop
  endfacet
  facet normal -0.587785 0.809017 0
    outer loop
      vertex 40.5 45.4737 12
      vertex 42.3604 46.8254 0
      vertex 40.5 45.4737 0
    endloop
  endfacet
  facet normal -0.406737 0.913545 0
    outer loop
      vertex 40.5 45.4737 12
      vertex 40.5 45.4737 0
      vertex 38.3992 44.5384 12
    endloop
  endfacet
  facet normal -0.406737 0.913545 0
    outer loop
      vertex 38.3992 44.5384 12
      vertex 40.5 45.4737 0
      vertex 38.3992 44.5384 0
    endloop
  endfacet
  facet normal -0.207912 0.978148 0
    outer loop
      vertex 38.3992 44.5384 12
      vertex 38.3992 44.5384 0
      vertex 36.1498 44.0603 12
    endloop
  endfacet
  facet normal -0.207912 0.978148 0
    outer loop
      vertex 36.1498 44.0603 12
      vertex 38.3992 44.5384 0
      vertex 36.1498 44.0603 0
    endloop
  endfacet
  facet normal 0 1 0
    outer loop
      vertex 36 44.0603 2
      vertex 36 44.0603 12
      vertex 36.1498 44.0603 12
    endloop
  endfacet
  facet normal 0 1 0
    outer loop
      vertex 36 44.0603 2
      vertex 36.1498 44.0603 12
      vertex 36.1498 44.0603 0
    endloop
  endfacet
  facet normal 0 1 0
    outer loop
      vertex 36 44.0603 2
      vertex 36.1498 44.0603 0
      vertex 35 44.0603 2
    endloop
  endfacet
  facet normal 0 1 0
    outer loop
      vertex 36.1498 44.0603 0
      vertex 35 44.0603 0
      vertex 35 44.0603 2
    endloop
  endfacet
  facet normal -1 0 0
    outer loop
      vertex 35 44.0603 2
      vertex 35 44.0603 0
      vertex 35 44 2
    endloop
  endfacet
  facet normal -1 0 0
    outer loop
      vertex 35 44 2
      vertex 35 44.0603 0
      vertex 35 44 0
    endloop
  endfacet
  facet normal 0 0 1
    outer loop
      vertex 36 41 2
      vertex 36 44.0603 2
      vertex 35 44.0603 2
    endloop
  endfacet
  facet normal 0 0 1
    outer loop
      vertex 22 44 2
      vertex 36 41 2
      vertex 35 44 2
    endloop
  endfacet
  facet normal 0 0 1
    outer loop
      vertex 35 44 2
      vertex 36 41 2
      vertex 35 44.0603 2
    endloop
  endfacet
  facet normal 0 0 1
    outer loop
      vertex 22 41 2
      vertex 36 41 2
      vertex 22 44 2
    endloop
  endfacet
  facet normal 1 0 0
    outer loop
      vertex 22 44 2
      vertex 22 44 12
      vertex 22 41 12
    endloop
  endfacet
  facet normal 1 0 0
    outer loop
      vertex 22 41 2
      vertex 22 44 2
      vertex 22 41 12
    endloop
  endfacet
  facet normal 0 1 0
    outer loop
      vertex 36 41 12
      vertex 36 41 2
      vertex 22 41 12
    endloop
  endfacet
  facet normal 0 1 0
    outer loop
      vertex 22 41 12
      vertex 36 41 2
      vertex 22 41 2
    endloop
  endfacet
  facet normal -1 0 0
    outer loop
      vertex 36 44.0603 12
      vertex 36 44.0603 2
      vertex 36 41 12
    endloop
  endfacet
  facet normal -1 0 0
    outer loop
      vertex 36 41 12
      vertex 36 44.0603 2
      vertex 36 41 2
    endloop
  endfacet
  facet normal -1 0 0
    outer loop
      vertex 36 69 12
      vertex 36 69 2
      vertex 36 65.9397 12
    endloop
  endfacet
  facet normal -1 0 0
    outer loop
      vertex 36 65.9397 12
      vertex 36 69 2
      vertex 36 65.9397 2
    endloop
  endfacet
  facet normal 0 -1 0
    outer loop
      vertex 36 69 2
      vertex 36 69 12
      vertex 22 69 12
    endloop
  endfacet
  facet normal 0 -1 0
    outer loop
      vertex 22 69 2
      vertex 36 69 2
      vertex 22 69 12
    endloop
  endfacet
  facet normal 1 0 0
    outer loop
      vertex 22 69 2
      vertex 22 69 12
      vertex 22 66 12
    endloop
  endfacet
  facet normal 1 0 0
    outer loop
      vertex 22 66 2
      vertex 22 69 2
      vertex 22 66 12
    endloop
  endfacet
  facet normal 0 0 1
    outer loop
      vertex 35 66 2
      vertex 35 65.9397 2
      vertex 36 65.9397 2
    endloop
  endfacet
  facet normal 0 0 1
    outer loop
      vertex 22 69 2
      vertex 35 66 2
      vertex 36 69 2
    endloop
  endfacet
  facet normal 0 0 1
    outer loop
      vertex 36 69 2
      vertex 35 66 2
      vertex 36 65.9397 2
    endloop
  endfacet
  facet normal 0 0 1
    outer loop
      vertex 22 66 2
      vertex 35 66 2
      vertex 22 69 2
    endloop
  endfacet
endsolid OpenSCAD_Model
