solid OpenSCAD_Model
  facet normal -1 0 0
    outer loop
      vertex 0 0 0
      vertex 0 0 5
      vertex 0 30 0
    endloop
  endfacet
  facet normal -1 0 0
    outer loop
      vertex 0 30 0
      vertex 0 0 5
      vertex 0 30 5
    endloop
  endfacet
  facet normal 0 -1 0
    outer loop
      vertex 0 0 5
      vertex 0 0 0
      vertex 30 0 0
    endloop
  endfacet
  facet normal 0 -1 0
    outer loop
      vertex 30 0 5
      vertex 0 0 5
      vertex 30 0 0
    endloop
  endfacet
  facet normal 0 0 -1
    outer loop
      vertex 0 0 0
      vertex 0 30 0
      vertex 30 0 0
    endloop
  endfacet
  facet normal 0 0 -1
    outer loop
      vertex 30 0 0
      vertex 0 30 0
      vertex 30 30 0
    endloop
  endfacet
  facet normal 0 1 0
    outer loop
      vertex 0 30 0
      vertex 0 30 5
      vertex 30 30 0
    endloop
  endfacet
  facet normal 0 1 0
    outer loop
      vertex 30 30 0
      vertex 0 30 5
      vertex 30 30 5
    endloop
  endfacet
  facet normal 0 0 1
    outer loop
      vertex 5 5 5
      vertex 0 0 5
      vertex 30 0 5
    endloop
  endfacet
  facet normal 0 0 1
    outer loop
      vertex 5 25 5
      vertex 0 30 5
      vertex 5 5 5
    endloop
  endfacet
  facet normal 0 0 1
    outer loop
      vertex 25 5 5
      vertex 5 5 5
      vertex 30 0 5
    endloop
  endfacet
  facet normal 0 0 1
    outer loop
      vertex 0 30 5
      vertex 0 0 5
      vertex 5 5 5
    endloop
  endfacet
  facet normal 0 0 1
    outer loop
      vertex 30 30 5
      vertex 0 30 5
      vertex 5 25 5
    endloop
  endfacet
  facet normal 0 0 1
    outer loop
      vertex 30 30 5
      vertex 25 25 5
      vertex 30 0 5
    endloop
  endfacet
  facet normal 0 0 1
    outer loop
      vertex 30 30 5
      vertex 5 25 5
      vertex 25 25 5
    endloop
  endfacet
  facet normal 0 0 1
    outer loop
      vertex 25 25 5
      vertex 25 5 5
      vertex 30 0 5
    endloop
  endfacet
  facet normal 1 0 0
    outer loop
      vertex 30 0 5
      vertex 30 0 0
      vertex 30 30 0
    endloop
  endfacet
  facet normal 1 0 0
    outer loop
      vertex 30 30 5
      vertex 30 0 5
      vertex 30 30 0
    endloop
  endfacet
  facet normal 1 0 0
    outer loop
      vertex 5 25 2
      vertex 5 25 5
      vertex 5 5 5
    endloop
  endfacet
  facet normal 1 0 0
    outer loop
      vertex 5 5 2
      vertex 5 25 2
      vertex 5 5 5
    endloop
  endfacet
  facet normal 0 1 0
    outer loop
      vertex 25 5 5
      vertex 25 5 2
      vertex 5 5 5
    endloop
  endfacet
  facet normal 0 1 0
    outer loop
      vertex 5 5 5
      vertex 25 5 2
      vertex 5 5 2
    endloop
  endfacet
  facet normal -1 0 0
    outer loop
      vertex 25 25 5
      vertex 25 25 2
      vertex 25 5 5
    endloop
  endfacet
  facet normal -1 0 0
    outer loop
      vertex 25 5 5
      vertex 25 25 2
      vertex 25 5 2
    endloop
  endfacet
  facet normal 0 -1 0
    outer loop
      vertex 25 25 2
      vertex 25 25 5
      vertex 5 25 5
    endloop
  endfacet
  facet normal 0 -1 0
    outer loop
      vertex 5 25 2
      vertex 25 25 2
      vertex 5 25 5
    endloop
  endfacet
  facet normal 0 0 1
    outer loop
      vertex 25 5 2
      vertex 25 25 2
      vertex 5 25 2
    endloop
  endfacet
  facet normal 0 0 1
    outer loop
      vertex 5 5 2
      vertex 25 5 2
      vertex 5 25 2
    endloop
  endfacet
endsolid OpenSCAD_Model
