solid OpenSCAD_Model
  facet normal 0 1 0
    outer loop
      vertex -38 0 20
      vertex -38 0 0
      vertex -40 0 20
    endloop
  endfacet
  facet normal 0 1 0
    outer loop
      vertex -40 0 20
      vertex -38 0 0
      vertex -40 0 0
    endloop
  endfacet
  facet normal -0.994522 -0.104528 0
    outer loop
      vertex -40 0 0
      vertex -39.1259 -8.31647 0
      vertex -40 0 20
    endloop
  endfacet
  facet normal -0.994522 -0.104528 0
    outer loop
      vertex -40 0 20
      vertex -39.1259 -8.31647 0
      vertex -39.1259 -8.31647 20
    endloop
  endfacet
  facet normal 0 0 -1
    outer loop
      vertex -40 0 0
      vertex -38 0 0
      vertex -39.1259 -8.31647 0
    endloop
  endfacet
  facet normal 0 0 -1
    outer loop
      vertex -39.1259 -8.31647 0
      vertex -38 0 0
      vertex -37.1696 -7.90064 0
    endloop
  endfacet
  facet normal 0 0 -1
    outer loop
      vertex -39.1259 -8.31647 0
      vertex -37.1696 -7.90064 0
      vertex -34.7147 -15.456 0
    endloop
  endfacet
  facet normal 0 0 -1
    outer loop
      vertex -34.7147 -15.456 0
      vertex -30.7426 -22.3358 0
      vertex -39.1259 -8.31647 0
    endloop
  endfacet
  facet normal 0 0 -1
    outer loop
      vertex 37.1696 -7.90064 0
      vertex 40 0 0
      vertex 34.7147 -15.456 0
    endloop
  endfacet
  facet normal 0 0 -1
    outer loop
      vertex 38 0 0
      vertex 38 40 0
      vertex 40 40 0
    endloop
  endfacet
  facet normal 0 0 -1
    outer loop
      vertex 38 0 0
      vertex 40 40 0
      vertex 40 0 0
    endloop
  endfacet
  facet normal 0 0 -1
    outer loop
      vertex 38 0 0
      vertex 40 0 0
      vertex 37.1696 -7.90064 0
    endloop
  endfacet
  facet normal 0 0 -1
    outer loop
      vertex 34.7147 -15.456 0
      vertex 40 0 0
      vertex 39.1259 -8.31647 0
    endloop
  endfacet
  facet normal 0 0 -1
    outer loop
      vertex 34.7147 -15.456 0
      vertex 39.1259 -8.31647 0
      vertex 30.7426 -22.3358 0
    endloop
  endfacet
  facet normal 0 0 -1
    outer loop
      vertex 30.7426 -22.3358 0
      vertex 39.1259 -8.31647 0
      vertex 36.5418 -16.2695 0
    endloop
  endfacet
  facet normal 0 0 -1
    outer loop
      vertex 30.7426 -22.3358 0
      vertex 36.5418 -16.2695 0
      vertex 25.427 -28.2395 0
    endloop
  endfacet
  facet normal 0 0 -1
    outer loop
      vertex 25.427 -28.2395 0
      vertex 36.5418 -16.2695 0
      vertex 32.3607 -23.5114 0
    endloop
  endfacet
  facet normal 0 0 -1
    outer loop
      vertex 25.427 -28.2395 0
      vertex 32.3607 -23.5114 0
      vertex 19 -32.909 0
    endloop
  endfacet
  facet normal 0 0 -1
    outer loop
      vertex 19 -32.909 0
      vertex 32.3607 -23.5114 0
      vertex 26.7652 -29.7258 0
    endloop
  endfacet
  facet normal 0 0 -1
    outer loop
      vertex 19 -32.909 0
      vertex 26.7652 -29.7258 0
      vertex 11.7426 -36.1401 0
    endloop
  endfacet
  facet normal 0 0 -1
    outer loop
      vertex 11.7426 -36.1401 0
      vertex 26.7652 -29.7258 0
      vertex 20 -34.641 0
    endloop
  endfacet
  facet normal 0 0 -1
    outer loop
      vertex 11.7426 -36.1401 0
      vertex 20 -34.641 0
      vertex 3.97208 -37.7918 0
    endloop
  endfacet
  facet normal 0 0 -1
    outer loop
      vertex 3.97208 -37.7918 0
      vertex 20 -34.641 0
      vertex 12.3607 -38.0423 0
    endloop
  endfacet
  facet normal 0 0 -1
    outer loop
      vertex 3.97208 -37.7918 0
      vertex 12.3607 -38.0423 0
      vertex -3.97208 -37.7918 0
    endloop
  endfacet
  facet normal 0 0 -1
    outer loop
      vertex -3.97208 -37.7918 0
      vertex 12.3607 -38.0423 0
      vertex 4.18114 -39.7809 0
    endloop
  endfacet
  facet normal 0 0 -1
    outer loop
      vertex -3.97208 -37.7918 0
      vertex 4.18114 -39.7809 0
      vertex -11.7426 -36.1401 0
    endloop
  endfacet
  facet normal 0 0 -1
    outer loop
      vertex -11.7426 -36.1401 0
      vertex 4.18114 -39.7809 0
      vertex -4.18114 -39.7809 0
    endloop
  endfacet
  facet normal 0 0 -1
    outer loop
      vertex -11.7426 -36.1401 0
      vertex -4.18114 -39.7809 0
      vertex -19 -32.909 0
    endloop
  endfacet
  facet normal 0 0 -1
    outer loop
      vertex -19 -32.909 0
      vertex -4.18114 -39.7809 0
      vertex -12.3607 -38.0423 0
    endloop
  endfacet
  facet normal 0 0 -1
    outer loop
      vertex -19 -32.909 0
      vertex -12.3607 -38.0423 0
      vertex -25.427 -28.2395 0
    endloop
  endfacet
  facet normal 0 0 -1
    outer loop
      vertex -25.427 -28.2395 0
      vertex -12.3607 -38.0423 0
      vertex -20 -34.641 0
    endloop
  endfacet
  facet normal 0 0 -1
    outer loop
      vertex -25.427 -28.2395 0
      vertex -20 -34.641 0
      vertex -30.7426 -22.3358 0
    endloop
  endfacet
  facet normal 0 0 -1
    outer loop
      vertex -30.7426 -22.3358 0
      vertex -20 -34.641 0
      vertex -26.7652 -29.7258 0
    endloop
  endfacet
  facet normal 0 0 -1
    outer loop
      vertex -30.7426 -22.3358 0
      vertex -26.7652 -29.7258 0
      vertex -39.1259 -8.31647 0
    endloop
  endfacet
  facet normal 0 0 -1
    outer loop
      vertex -39.1259 -8.31647 0
      vertex -26.7652 -29.7258 0
      vertex -32.3607 -23.5114 0
    endloop
  endfacet
  facet normal 0 0 -1
    outer loop
      vertex -39.1259 -8.31647 0
      vertex -32.3607 -23.5114 0
      vertex -36.5418 -16.2695 0
    endloop
  endfacet
  facet normal 0 0 1
    outer loop
      vertex -38 0 20
      vertex -40 0 20
      vertex -39.1259 -8.31647 20
    endloop
  endfacet
  facet normal 0 0 1
    outer loop
      vertex -37.1696 -7.90064 20
      vertex -38 0 20
      vertex -36.5418 -16.2695 20
    endloop
  endfacet
  facet normal 0 0 1
    outer loop
      vertex -36.5418 -16.2695 20
      vertex -38 0 20
      vertex -39.1259 -8.31647 20
    endloop
  endfacet
  facet normal 0 0 1
    outer loop
      vertex 37.1696 -7.90064 20
      vertex 34.7147 -15.456 20
      vertex 39.1259 -8.31647 20
    endloop
  endfacet
  facet normal 0 0 1
    outer loop
      vertex -30.7426 -22.3358 20
      vertex -34.7147 -15.456 20
      vertex -32.3607 -23.5114 20
    endloop
  endfacet
  facet normal 0 0 1
    outer loop
      vertex -25.427 -28.2395 20
      vertex -30.7426 -22.3358 20
      vertex -26.7652 -29.7258 20
    endloop
  endfacet
  facet normal 0 0 1
    outer loop
      vertex -19 -32.909 20
      vertex -25.427 -28.2395 20
      vertex -20 -34.641 20
    endloop
  endfacet
  facet normal 0 0 1
    outer loop
      vertex -11.7426 -36.1401 20
      vertex -19 -32.909 20
      vertex -12.3607 -38.0423 20
    endloop
  endfacet
  facet normal 0 0 1
    outer loop
      vertex -3.97208 -37.7918 20
      vertex -11.7426 -36.1401 20
      vertex -4.18114 -39.7809 20
    endloop
  endfacet
  facet normal 0 0 1
    outer loop
      vertex 3.97208 -37.7918 20
      vertex -3.97208 -37.7918 20
      vertex 4.18114 -39.7809 20
    endloop
  endfacet
  facet normal 0 0 1
    outer loop
      vertex 11.7426 -36.1401 20
      vertex 3.97208 -37.7918 20
      vertex 12.3607 -38.0423 20
    endloop
  endfacet
  facet normal 0 0 1
    outer loop
      vertex 19 -32.909 20
      vertex 11.7426 -36.1401 20
      vertex 20 -34.641 20
    endloop
  endfacet
  facet normal 0 0 1
    outer loop
      vertex 25.427 -28.2395 20
      vertex 19 -32.909 20
      vertex 26.7652 -29.7258 20
    endloop
  endfacet
  facet normal 0 0 1
    outer loop
      vertex 30.7426 -22.3358 20
      vertex 25.427 -28.2395 20
      vertex 32.3607 -23.5114 20
    endloop
  endfacet
  facet normal 0 0 1
    outer loop
      vertex 40 0 20
      vertex 38 0 20
      vertex 39.1259 -8.31647 20
    endloop
  endfacet
  facet normal 0 0 1
    outer loop
      vertex 34.7147 -15.456 20
      vertex 30.7426 -22.3358 20
      vertex 36.5418 -16.2695 20
    endloop
  endfacet
  facet normal 0 0 1
    outer loop
      vertex 40 40 20
      vertex 38 0 20
      vertex 40 0 20
    endloop
  endfacet
  facet normal 0 0 1
    outer loop
      vertex 38 0 20
      vertex 37.1696 -7.90064 20
      vertex 39.1259 -8.31647 20
    endloop
  endfacet
  facet normal 0 0 1
    outer loop
      vertex 39.1259 -8.31647 20
      vertex 34.7147 -15.456 20
      vertex 36.5418 -16.2695 20
    endloop
  endfacet
  facet normal 0 0 1
    outer loop
      vertex 36.5418 -16.2695 20
      vertex 30.7426 -22.3358 20
      vertex 32.3607 -23.5114 20
    endloop
  endfacet
  facet normal 0 0 1
    outer loop
      vertex 32.3607 -23.5114 20
      vertex 25.427 -28.2395 20
      vertex 26.7652 -29.7258 20
    endloop
  endfacet
  facet normal 0 0 1
    outer loop
      vertex 26.7652 -29.7258 20
      vertex 19 -32.909 20
      vertex 20 -34.641 20
    endloop
  endfacet
  facet normal 0 0 1
    outer loop
      vertex 20 -34.641 20
      vertex 11.7426 -36.1401 20
      vertex 12.3607 -38.0423 20
    endloop
  endfacet
  facet normal 0 0 1
    outer loop
      vertex 12.3607 -38.0423 20
      vertex 3.97208 -37.7918 20
      vertex 4.18114 -39.7809 20
    endloop
  endfacet
  facet normal 0 0 1
    outer loop
      vertex 4.18114 -39.7809 20
      vertex -3.97208 -37.7918 20
      vertex -4.18114 -39.7809 20
    endloop
  endfacet
  facet normal 0 0 1
    outer loop
      vertex -4.18114 -39.7809 20
      vertex -11.7426 -36.1401 20
      vertex -12.3607 -38.0423 20
    endloop
  endfacet
  facet normal 0 0 1
    outer loop
      vertex -12.3607 -38.0423 20
      vertex -19 -32.909 20
      vertex -20 -34.641 20
    endloop
  endfacet
  facet normal 0 0 1
    outer loop
      vertex -20 -34.641 20
      vertex -25.427 -28.2395 20
      vertex -26.7652 -29.7258 20
    endloop
  endfacet
  facet normal 0 0 1
    outer loop
      vertex -26.7652 -29.7258 20
      vertex -30.7426 -22.3358 20
      vertex -32.3607 -23.5114 20
    endloop
  endfacet
  facet normal 0 0 1
    outer loop
      vertex -32.3607 -23.5114 20
      vertex -34.7147 -15.456 20
      vertex -36.5418 -16.2695 20
    endloop
  endfacet
  facet normal 0 0 1
    outer loop
      vertex -34.7147 -15.456 20
      vertex -37.1696 -7.90064 20
      vertex -36.5418 -16.2695 20
    endloop
  endfacet
  facet normal 0 0 1
    outer loop
      vertex 38 40 20
      vertex 38 0 20
      vertex 40 40 20
    endloop
  endfacet
  facet normal 0.994522 0.104528 0
    outer loop
      vertex -38 0 20
      vertex -37.1696 -7.90064 20
      vertex -37.1696 -7.90064 0
    endloop
  endfacet
  facet normal 0.994522 0.104528 0
    outer loop
      vertex -38 0 0
      vertex -38 0 20
      vertex -37.1696 -7.90064 0
    endloop
  endfacet
  facet normal -0.951057 -0.309017 0
    outer loop
      vertex -39.1259 -8.31647 0
      vertex -36.5418 -16.2695 0
      vertex -39.1259 -8.31647 20
    endloop
  endfacet
  facet normal -0.951057 -0.309017 0
    outer loop
      vertex -39.1259 -8.31647 20
      vertex -36.5418 -16.2695 0
      vertex -36.5418 -16.2695 20
    endloop
  endfacet
  facet normal -0.866025 -0.5 0
    outer loop
      vertex -36.5418 -16.2695 0
      vertex -32.3607 -23.5114 0
      vertex -36.5418 -16.2695 20
    endloop
  endfacet
  facet normal -0.866025 -0.5 0
    outer loop
      vertex -36.5418 -16.2695 20
      vertex -32.3607 -23.5114 0
      vertex -32.3607 -23.5114 20
    endloop
  endfacet
  facet normal -0.743145 -0.669131 0
    outer loop
      vertex -32.3607 -23.5114 0
      vertex -26.7652 -29.7258 0
      vertex -32.3607 -23.5114 20
    endloop
  endfacet
  facet normal -0.743145 -0.669131 0
    outer loop
      vertex -32.3607 -23.5114 20
      vertex -26.7652 -29.7258 0
      vertex -26.7652 -29.7258 20
    endloop
  endfacet
  facet normal -0.587785 -0.809017 0
    outer loop
      vertex -26.7652 -29.7258 20
      vertex -26.7652 -29.7258 0
      vertex -20 -34.641 0
    endloop
  endfacet
  facet normal -0.587785 -0.809017 0
    outer loop
      vertex -20 -34.641 20
      vertex -26.7652 -29.7258 20
      vertex -20 -34.641 0
    endloop
  endfacet
  facet normal -0.406737 -0.913545 0
    outer loop
      vertex -20 -34.641 20
      vertex -20 -34.641 0
      vertex -12.3607 -38.0423 0
    endloop
  endfacet
  facet normal -0.406737 -0.913545 0
    outer loop
      vertex -12.3607 -38.0423 20
      vertex -20 -34.641 20
      vertex -12.3607 -38.0423 0
    endloop
  endfacet
  facet normal -0.207912 -0.978148 0
    outer loop
      vertex -12.3607 -38.0423 20
      vertex -12.3607 -38.0423 0
      vertex -4.18114 -39.7809 0
    endloop
  endfacet
  facet normal -0.207912 -0.978148 0
    outer loop
      vertex -4.18114 -39.7809 20
      vertex -12.3607 -38.0423 20
      vertex -4.18114 -39.7809 0
    endloop
  endfacet
  facet normal 0 -1 0
    outer loop
      vertex -4.18114 -39.7809 20
      vertex -4.18114 -39.7809 0
      vertex 4.18114 -39.7809 0
    endloop
  endfacet
  facet normal 0 -1 0
    outer loop
      vertex 4.18114 -39.7809 20
      vertex -4.18114 -39.7809 20
      vertex 4.18114 -39.7809 0
    endloop
  endfacet
  facet normal 0.207912 -0.978148 0
    outer loop
      vertex 4.18114 -39.7809 20
      vertex 4.18114 -39.7809 0
      vertex 12.3607 -38.0423 0
    endloop
  endfacet
  facet normal 0.207912 -0.978148 0
    outer loop
      vertex 12.3607 -38.0423 20
      vertex 4.18114 -39.7809 20
      vertex 12.3607 -38.0423 0
    endloop
  endfacet
  facet normal 0.406737 -0.913545 0
    outer loop
      vertex 12.3607 -38.0423 20
      vertex 12.3607 -38.0423 0
      vertex 20 -34.641 0
    endloop
  endfacet
  facet normal 0.406737 -0.913545 0
    outer loop
      vertex 20 -34.641 20
      vertex 12.3607 -38.0423 20
      vertex 20 -34.641 0
    endloop
  endfacet
  facet normal 0.587785 -0.809017 0
    outer loop
      vertex 20 -34.641 20
      vertex 20 -34.641 0
      vertex 26.7652 -29.7258 0
    endloop
  endfacet
  facet normal 0.587785 -0.809017 0
    outer loop
      vertex 26.7652 -29.7258 20
      vertex 20 -34.641 20
      vertex 26.7652 -29.7258 0
    endloop
  endfacet
  facet normal 0.743145 -0.669131 0
    outer loop
      vertex 26.7652 -29.7258 20
      vertex 26.7652 -29.7258 0
      vertex 32.3607 -23.5114 0
    endloop
  endfacet
  facet normal 0.743145 -0.669131 0
    outer loop
      vertex 32.3607 -23.5114 20
      vertex 26.7652 -29.7258 20
      vertex 32.3607 -23.5114 0
    endloop
  endfacet
  facet normal 0.866025 -0.5 0
    outer loop
      vertex 32.3607 -23.5114 20
      vertex 32.3607 -23.5114 0
      vertex 36.5418 -16.2695 0
    endloop
  endfacet
  facet normal 0.866025 -0.5 0
    outer loop
      vertex 36.5418 -16.2695 20
      vertex 32.3607 -23.5114 20
      vertex 36.5418 -16.2695 0
    endloop
  endfacet
  facet normal 0.951057 -0.309017 0
    outer loop
      vertex 36.5418 -16.2695 20
      vertex 36.5418 -16.2695 0
      vertex 39.1259 -8.31647 0
    endloop
  endfacet
  facet normal 0.951057 -0.309017 0
    outer loop
      vertex 39.1259 -8.31647 20
      vertex 36.5418 -16.2695 20
      vertex 39.1259 -8.31647 0
    endloop
  endfacet
  facet normal 0.994522 -0.104528 0
    outer loop
      vertex 39.1259 -8.31647 20
      vertex 39.1259 -8.31647 0
      vertex 40 0 0
    endloop
  endfacet
  facet normal 0.994522 -0.104528 0
    outer loop
      vertex 40 0 20
      vertex 39.1259 -8.31647 20
      vertex 40 0 0
    endloop
  endfacet
  facet normal 1 0 0
    outer loop
      vertex 40 0 20
      vertex 40 0 0
      vertex 40 40 0
    endloop
  endfacet
  facet normal 1 0 0
    outer loop
      vertex 40 40 20
      vertex 40 0 20
      vertex 40 40 0
    endloop
  endfacet
  facet normal 0 1 0
    outer loop
      vertex 38 40 0
      vertex 38 40 20
      vertex 40 40 0
    endloop
  endfacet
  facet normal 0 1 0
    outer loop
      vertex 40 40 0
      vertex 38 40 20
      vertex 40 40 20
    endloop
  endfacet
  facet normal -1 0 0
    outer loop
      vertex 38 0 0
      vertex 38 0 20
      vertex 38 40 0
    endloop
  endfacet
  facet normal -1 0 0
    outer loop
      vertex 38 40 0
      vertex 38 0 20
      vertex 38 40 20
    endloop
  endfacet
  facet normal -0.994522 0.104528 0
    outer loop
      vertex 38 0 20
      vertex 38 0 0
      vertex 37.1696 -7.90064 20
    endloop
  endfacet
  facet normal -0.994522 0.104528 0
    outer loop
      vertex 37.1696 -7.90064 20
      vertex 38 0 0
      vertex 37.1696 -7.90064 0
    endloop
  endfacet
  facet normal -0.951056 0.309017 0
    outer loop
      vertex 37.1696 -7.90064 20
      vertex 37.1696 -7.90064 0
      vertex 34.7147 -15.456 20
    endloop
  endfacet
  facet normal -0.951056 0.309017 0
    outer loop
      vertex 34.7147 -15.456 20
      vertex 37.1696 -7.90064 0
      vertex 34.7147 -15.456 0
    endloop
  endfacet
  facet normal -0.866025 0.5 0
    outer loop
      vertex 34.7147 -15.456 20
      vertex 34.7147 -15.456 0
      vertex 30.7426 -22.3358 20
    endloop
  endfacet
  facet normal -0.866025 0.5 0
    outer loop
      vertex 30.7426 -22.3358 20
      vertex 34.7147 -15.456 0
      vertex 30.7426 -22.3358 0
    endloop
  endfacet
  facet normal -0.743145 0.669131 0
    outer loop
      vertex 30.7426 -22.3358 20
      vertex 30.7426 -22.3358 0
      vertex 25.427 -28.2395 20
    endloop
  endfacet
  facet normal -0.743145 0.669131 0
    outer loop
      vertex 25.427 -28.2395 20
      vertex 30.7426 -22.3358 0
      vertex 25.427 -28.2395 0
    endloop
  endfacet
  facet normal -0.587785 0.809017 0
    outer loop
      vertex 25.427 -28.2395 20
      vertex 25.427 -28.2395 0
      vertex 19 -32.909 20
    endloop
  endfacet
  facet normal -0.587785 0.809017 0
    outer loop
      vertex 19 -32.909 20
      vertex 25.427 -28.2395 0
      vertex 19 -32.909 0
    endloop
  endfacet
  facet normal -0.406737 0.913545 0
    outer loop
      vertex 19 -32.909 20
      vertex 19 -32.909 0
      vertex 11.7426 -36.1401 20
    endloop
  endfacet
  facet normal -0.406737 0.913545 0
    outer loop
      vertex 11.7426 -36.1401 20
      vertex 19 -32.909 0
      vertex 11.7426 -36.1401 0
    endloop
  endfacet
  facet normal -0.207912 0.978148 0
    outer loop
      vertex 11.7426 -36.1401 20
      vertex 11.7426 -36.1401 0
      vertex 3.97208 -37.7918 20
    endloop
  endfacet
  facet normal -0.207912 0.978148 0
    outer loop
      vertex 3.97208 -37.7918 20
      vertex 11.7426 -36.1401 0
      vertex 3.97208 -37.7918 0
    endloop
  endfacet
  facet normal 0 1 0
    outer loop
      vertex 3.97208 -37.7918 20
      vertex 3.97208 -37.7918 0
      vertex -3.97208 -37.7918 20
    endloop
  endfacet
  facet normal 0 1 0
    outer loop
      vertex -3.97208 -37.7918 20
      vertex 3.97208 -37.7918 0
      vertex -3.97208 -37.7918 0
    endloop
  endfacet
  facet normal 0.207912 0.978148 0
    outer loop
      vertex -3.97208 -37.7918 20
      vertex -3.97208 -37.7918 0
      vertex -11.7426 -36.1401 20
    endloop
  endfacet
  facet normal 0.207912 0.978148 0
    outer loop
      vertex -11.7426 -36.1401 20
      vertex -3.97208 -37.7918 0
      vertex -11.7426 -36.1401 0
    endloop
  endfacet
  facet normal 0.406737 0.913545 0
    outer loop
      vertex -11.7426 -36.1401 20
      vertex -11.7426 -36.1401 0
      vertex -19 -32.909 20
    endloop
  endfacet
  facet normal 0.406737 0.913545 0
    outer loop
      vertex -19 -32.909 20
      vertex -11.7426 -36.1401 0
      vertex -19 -32.909 0
    endloop
  endfacet
  facet normal 0.587785 0.809017 0
    outer loop
      vertex -19 -32.909 20
      vertex -19 -32.909 0
      vertex -25.427 -28.2395 20
    endloop
  endfacet
  facet normal 0.587785 0.809017 0
    outer loop
      vertex -25.427 -28.2395 20
      vertex -19 -32.909 0
      vertex -25.427 -28.2395 0
    endloop
  endfacet
  facet normal 0.743145 0.669131 0
    outer loop
      vertex -30.7426 -22.3358 20
      vertex -25.427 -28.2395 20
      vertex -25.427 -28.2395 0
    endloop
  endfacet
  facet normal 0.743145 0.669131 0
    outer loop
      vertex -30.7426 -22.3358 0
      vertex -30.7426 -22.3358 20
      vertex -25.427 -28.2395 0
    endloop
  endfacet
  facet normal 0.866025 0.5 0
    outer loop
      vertex -34.7147 -15.456 20
      vertex -30.7426 -22.3358 20
      vertex -30.7426 -22.3358 0
    endloop
  endfacet
  facet normal 0.866025 0.5 0
    outer loop
      vertex -34.7147 -15.456 0
      vertex -34.7147 -15.456 20
      vertex -30.7426 -22.3358 0
    endloop
  endfacet
  facet normal 0.951056 0.309017 0
    outer loop
      vertex -37.1696 -7.90064 20
      vertex -34.7147 -15.456 20
      vertex -34.7147 -15.456 0
    endloop
  endfacet
  facet normal 0.951056 0.309017 0
    outer loop
      vertex -37.1696 -7.90064 0
      vertex -37.1696 -7.90064 20
      vertex -34.7147 -15.456 0
    endloop
  endfacet
endsolid OpenSCAD_Model
