solid OpenSCAD_Model
  facet normal -0.994522 -0.104528 0
    outer loop
      vertex -9.78148 -2.07912 30
      vertex -10 5.66554e-15 30
      vertex -10 5.66554e-15 0
    endloop
  endfacet
  facet normal -0.994522 -0.104528 0
    outer loop
      vertex -9.78148 -2.07912 0
      vertex -9.78148 -2.07912 30
      vertex -10 5.66554e-15 0
    endloop
  endfacet
  facet normal 0 0 -1
    outer loop
      vertex 7.47108 6.56543 0
      vertex 7 3 0
      vertex 5.88877 3.78449 0
    endloop
  endfacet
  facet normal 0 0 -1
    outer loop
      vertex -5 8.66025 0
      vertex -2.90791 6.36742 0
      vertex -4.58403 5.29025 0
    endloop
  endfacet
  facet normal 0 0 -1
    outer loop
      vertex -9.13545 4.06737 0
      vertex -8.09017 5.87785 0
      vertex -5.88877 3.78449 0
    endloop
  endfacet
  facet normal 0 0 -1
    outer loop
      vertex -3.09017 9.51057 0
      vertex -1.04528 9.94522 0
      vertex -0.996204 6.92875 0
    endloop
  endfacet
  facet normal 0 0 -1
    outer loop
      vertex 7 3 0
      vertex 6.24704 3 0
      vertex 5.88877 3.78449 0
    endloop
  endfacet
  facet normal -0 0 -1
    outer loop
      vertex 6.69131 7.43145 0
      vertex 4.58403 5.29025 0
      vertex 5 8.66025 0
    endloop
  endfacet
  facet normal 0 0 -1
    outer loop
      vertex 77.625 40.6977 0
      vertex 9.14342 4.04285 0
      vertex 7.47108 6.56543 0
    endloop
  endfacet
  facet normal -0 0 -1
    outer loop
      vertex 78.9375 38 0
      vertex 9.14342 4.04285 0
      vertex 77.625 40.6977 0
    endloop
  endfacet
  facet normal 0 0 -1
    outer loop
      vertex 7 3 0
      vertex 7.47108 6.56543 0
      vertex 9.14342 4.04285 0
    endloop
  endfacet
  facet normal 0 0 -1
    outer loop
      vertex 9.48226 3 0
      vertex 7 3 0
      vertex 9.14342 4.04285 0
    endloop
  endfacet
  facet normal 0 0 -1
    outer loop
      vertex 4.58403 5.29025 0
      vertex 6.69131 7.43145 0
      vertex 7.47108 6.56543 0
    endloop
  endfacet
  facet normal -0 0 -1
    outer loop
      vertex 5 8.66025 0
      vertex 2.90791 6.36742 0
      vertex 3.09017 9.51057 0
    endloop
  endfacet
  facet normal 0 0 -1
    outer loop
      vertex 0.996204 6.92875 0
      vertex 1.04528 9.94522 0
      vertex 3.09017 9.51057 0
    endloop
  endfacet
  facet normal 0 0 -1
    outer loop
      vertex 5.88877 3.78449 0
      vertex 4.58403 5.29025 0
      vertex 7.47108 6.56543 0
    endloop
  endfacet
  facet normal 0 0 -1
    outer loop
      vertex -0.996204 6.92875 0
      vertex -1.04528 9.94522 0
      vertex 1.04528 9.94522 0
    endloop
  endfacet
  facet normal 0 0 -1
    outer loop
      vertex 3.09017 9.51057 0
      vertex 2.90791 6.36742 0
      vertex 0.996204 6.92875 0
    endloop
  endfacet
  facet normal 0 0 -1
    outer loop
      vertex 2.90791 6.36742 0
      vertex 5 8.66025 0
      vertex 4.58403 5.29025 0
    endloop
  endfacet
  facet normal 0 -0 -1
    outer loop
      vertex -3.09017 9.51057 0
      vertex -2.90791 6.36742 0
      vertex -5 8.66025 0
    endloop
  endfacet
  facet normal 0 0 -1
    outer loop
      vertex -4.58403 5.29025 0
      vertex -6.69131 7.43145 0
      vertex -5 8.66025 0
    endloop
  endfacet
  facet normal 0 0 -1
    outer loop
      vertex 0.996204 6.92875 0
      vertex -0.996204 6.92875 0
      vertex 1.04528 9.94522 0
    endloop
  endfacet
  facet normal 0 0 -1
    outer loop
      vertex -4.58403 5.29025 0
      vertex -8.09017 5.87785 0
      vertex -6.69131 7.43145 0
    endloop
  endfacet
  facet normal 0 -0 -1
    outer loop
      vertex -9.13545 4.06737 0
      vertex -6.71645 1.97213 0
      vertex -9.78148 2.07912 0
    endloop
  endfacet
  facet normal 0 0 -1
    outer loop
      vertex -2.90791 6.36742 0
      vertex -3.09017 9.51057 0
      vertex -0.996204 6.92875 0
    endloop
  endfacet
  facet normal 0 -0 -1
    outer loop
      vertex -9.78148 2.07912 0
      vertex -7 3.96588e-15 0
      vertex -10 5.66554e-15 0
    endloop
  endfacet
  facet normal -0 0 -1
    outer loop
      vertex -6.71645 -1.97213 0
      vertex -9.78148 -2.07912 0
      vertex -7 3.96588e-15 0
    endloop
  endfacet
  facet normal -0 0 -1
    outer loop
      vertex -4.58403 5.29025 0
      vertex -5.88877 3.78449 0
      vertex -8.09017 5.87785 0
    endloop
  endfacet
  facet normal -0 0 -1
    outer loop
      vertex -7 3.96588e-15 0
      vertex -9.78148 -2.07912 0
      vertex -10 5.66554e-15 0
    endloop
  endfacet
  facet normal 0 0 -1
    outer loop
      vertex -6.71645 1.97213 0
      vertex -9.13545 4.06737 0
      vertex -5.88877 3.78449 0
    endloop
  endfacet
  facet normal 0 0 -1
    outer loop
      vertex -7 3.96588e-15 0
      vertex -9.78148 2.07912 0
      vertex -6.71645 1.97213 0
    endloop
  endfacet
  facet normal 0 0 -1
    outer loop
      vertex -9.13545 -4.06737 0
      vertex -9.78148 -2.07912 0
      vertex -6.71645 -1.97213 0
    endloop
  endfacet
  facet normal 0 0 -1
    outer loop
      vertex -9.13545 -4.06737 0
      vertex -6.71645 -1.97213 0
      vertex -5.88877 -3.78449 0
    endloop
  endfacet
  facet normal 0 0 -1
    outer loop
      vertex -8.09017 -5.87785 0
      vertex -5.88877 -3.78449 0
      vertex -4.58403 -5.29025 0
    endloop
  endfacet
  facet normal 0 0 -1
    outer loop
      vertex -3.09017 -9.51057 0
      vertex -2.90791 -6.36742 0
      vertex -0.996204 -6.92875 0
    endloop
  endfacet
  facet normal 0 0 -1
    outer loop
      vertex 0.996204 -6.92875 0
      vertex 2.90791 -6.36742 0
      vertex 3.09017 -9.51057 0
    endloop
  endfacet
  facet normal 0 0 -1
    outer loop
      vertex 3.09017 -9.51057 0
      vertex 2.90791 -6.36742 0
      vertex 5 -8.66025 0
    endloop
  endfacet
  facet normal 0 0 -1
    outer loop
      vertex 2.90791 -6.36742 0
      vertex 4.58403 -5.29025 0
      vertex 5 -8.66025 0
    endloop
  endfacet
  facet normal 0 0 -1
    outer loop
      vertex 4.58403 -5.29025 0
      vertex 5.88877 -3.78449 0
      vertex 8.09017 -5.87785 0
    endloop
  endfacet
  facet normal 0 0 -1
    outer loop
      vertex 5.88877 -3.78449 0
      vertex 6.71645 -1.97213 0
      vertex 9.14342 -4.04285 0
    endloop
  endfacet
  facet normal 0 0 -1
    outer loop
      vertex 6.71645 -1.97213 0
      vertex 7 0 0
      vertex 9.88767 -1.06872 0
    endloop
  endfacet
  facet normal 0 0 -1
    outer loop
      vertex 9.88767 -1.06872 0
      vertex 7 0 0
      vertex 10 0 0
    endloop
  endfacet
  facet normal 0 0 -1
    outer loop
      vertex -0.996204 -6.92875 0
      vertex 0.996204 -6.92875 0
      vertex 1.04528 -9.94522 0
    endloop
  endfacet
  facet normal 0 0 -1
    outer loop
      vertex 80.25 -35.3023 0
      vertex 9.14342 -4.04285 0
      vertex 9.88767 -1.06872 0
    endloop
  endfacet
  facet normal 0 0 -1
    outer loop
      vertex 9.14342 -4.04285 0
      vertex 6.71645 -1.97213 0
      vertex 9.88767 -1.06872 0
    endloop
  endfacet
  facet normal 0 0 -1
    outer loop
      vertex 9.13545 -4.06737 0
      vertex 5.88877 -3.78449 0
      vertex 9.14342 -4.04285 0
    endloop
  endfacet
  facet normal 0 0 -1
    outer loop
      vertex 8.09017 -5.87785 0
      vertex 5.88877 -3.78449 0
      vertex 9.13545 -4.06737 0
    endloop
  endfacet
  facet normal 0 0 -1
    outer loop
      vertex 6.69131 -7.43145 0
      vertex 4.58403 -5.29025 0
      vertex 8.09017 -5.87785 0
    endloop
  endfacet
  facet normal 0 0 -1
    outer loop
      vertex 5 -8.66025 0
      vertex 4.58403 -5.29025 0
      vertex 6.69131 -7.43145 0
    endloop
  endfacet
  facet normal -0 0 -1
    outer loop
      vertex 3.09017 -9.51057 0
      vertex 1.04528 -9.94522 0
      vertex 0.996204 -6.92875 0
    endloop
  endfacet
  facet normal 0 0 -1
    outer loop
      vertex -5 -8.66025 0
      vertex -4.58403 -5.29025 0
      vertex -2.90791 -6.36742 0
    endloop
  endfacet
  facet normal 0 0 -1
    outer loop
      vertex 1.04528 -9.94522 0
      vertex -1.04528 -9.94522 0
      vertex -0.996204 -6.92875 0
    endloop
  endfacet
  facet normal 0 0 -1
    outer loop
      vertex -1.04528 -9.94522 0
      vertex -3.09017 -9.51057 0
      vertex -0.996204 -6.92875 0
    endloop
  endfacet
  facet normal 0 0 -1
    outer loop
      vertex -3.09017 -9.51057 0
      vertex -5 -8.66025 0
      vertex -2.90791 -6.36742 0
    endloop
  endfacet
  facet normal 0 0 -1
    outer loop
      vertex -5 -8.66025 0
      vertex -6.69131 -7.43145 0
      vertex -4.58403 -5.29025 0
    endloop
  endfacet
  facet normal 0 0 -1
    outer loop
      vertex -6.69131 -7.43145 0
      vertex -8.09017 -5.87785 0
      vertex -4.58403 -5.29025 0
    endloop
  endfacet
  facet normal 0 0 -1
    outer loop
      vertex -8.09017 -5.87785 0
      vertex -9.13545 -4.06737 0
      vertex -5.88877 -3.78449 0
    endloop
  endfacet
  facet normal -0 0 -1
    outer loop
      vertex 80.25 -35.3023 0
      vertex 78.9375 -38 0
      vertex 9.14342 -4.04285 0
    endloop
  endfacet
  facet normal 0.207912 -0.978148 0
    outer loop
      vertex 3.09017 -9.51057 0
      vertex 1.04528 -9.94522 30
      vertex 1.04528 -9.94522 0
    endloop
  endfacet
  facet normal 0.207912 -0.978148 0
    outer loop
      vertex 3.09017 -9.51057 0
      vertex 3.09017 -9.51057 30
      vertex 1.04528 -9.94522 30
    endloop
  endfacet
  facet normal 0.587785 -0.809017 0
    outer loop
      vertex 6.69131 -7.43145 0
      vertex 5 -8.66025 30
      vertex 5 -8.66025 0
    endloop
  endfacet
  facet normal 0.587785 -0.809017 0
    outer loop
      vertex 6.69131 -7.43145 0
      vertex 6.69131 -7.43145 30
      vertex 5 -8.66025 30
    endloop
  endfacet
  facet normal 0 -1 0
    outer loop
      vertex 1.04528 -9.94522 0
      vertex -1.04528 -9.94522 30
      vertex -1.04528 -9.94522 0
    endloop
  endfacet
  facet normal 0 -1 0
    outer loop
      vertex 1.04528 -9.94522 0
      vertex 1.04528 -9.94522 30
      vertex -1.04528 -9.94522 30
    endloop
  endfacet
  facet normal 0.743145 0.669131 0
    outer loop
      vertex 7.47108 6.56543 30
      vertex 7.47108 6.56543 0
      vertex 6.69131 7.43145 0
    endloop
  endfacet
  facet normal 0.743145 0.669131 0
    outer loop
      vertex 6.69131 7.43145 30
      vertex 7.47108 6.56543 30
      vertex 6.69131 7.43145 0
    endloop
  endfacet
  facet normal 0.207912 0.978148 0
    outer loop
      vertex 1.04528 9.94522 30
      vertex 3.09017 9.51057 0
      vertex 1.04528 9.94522 0
    endloop
  endfacet
  facet normal 0.207912 0.978148 0
    outer loop
      vertex 1.04528 9.94522 30
      vertex 3.09017 9.51057 30
      vertex 3.09017 9.51057 0
    endloop
  endfacet
  facet normal -0.994522 0.104528 0
    outer loop
      vertex -10 5.66554e-15 30
      vertex -9.78148 2.07912 0
      vertex -10 5.66554e-15 0
    endloop
  endfacet
  facet normal -0.994522 0.104528 0
    outer loop
      vertex -10 5.66554e-15 30
      vertex -9.78148 2.07912 30
      vertex -9.78148 2.07912 0
    endloop
  endfacet
  facet normal -0.587785 -0.809017 0
    outer loop
      vertex -5 -8.66025 0
      vertex -6.69131 -7.43145 30
      vertex -6.69131 -7.43145 0
    endloop
  endfacet
  facet normal -0.587785 -0.809017 0
    outer loop
      vertex -5 -8.66025 0
      vertex -5 -8.66025 30
      vertex -6.69131 -7.43145 30
    endloop
  endfacet
  facet normal -0.743145 -0.669131 0
    outer loop
      vertex -6.69131 -7.43145 30
      vertex -8.09017 -5.87785 30
      vertex -8.09017 -5.87785 0
    endloop
  endfacet
  facet normal -0.743145 -0.669131 0
    outer loop
      vertex -6.69131 -7.43145 0
      vertex -6.69131 -7.43145 30
      vertex -8.09017 -5.87785 0
    endloop
  endfacet
  facet normal -0.866025 -0.5 0
    outer loop
      vertex -8.09017 -5.87785 30
      vertex -9.13545 -4.06737 30
      vertex -9.13545 -4.06737 0
    endloop
  endfacet
  facet normal -0.866025 -0.5 0
    outer loop
      vertex -8.09017 -5.87785 0
      vertex -8.09017 -5.87785 30
      vertex -9.13545 -4.06737 0
    endloop
  endfacet
  facet normal -0.951057 -0.309017 0
    outer loop
      vertex -9.13545 -4.06737 30
      vertex -9.78148 -2.07912 30
      vertex -9.78148 -2.07912 0
    endloop
  endfacet
  facet normal -0.951057 -0.309017 0
    outer loop
      vertex -9.13545 -4.06737 0
      vertex -9.13545 -4.06737 30
      vertex -9.78148 -2.07912 0
    endloop
  endfacet
  facet normal 0.406737 -0.913545 0
    outer loop
      vertex 5 -8.66025 0
      vertex 3.09017 -9.51057 30
      vertex 3.09017 -9.51057 0
    endloop
  endfacet
  facet normal 0.406737 -0.913545 0
    outer loop
      vertex 5 -8.66025 0
      vertex 5 -8.66025 30
      vertex 3.09017 -9.51057 30
    endloop
  endfacet
  facet normal 0.743145 -0.669131 0
    outer loop
      vertex 8.09017 -5.87785 0
      vertex 6.69131 -7.43145 30
      vertex 6.69131 -7.43145 0
    endloop
  endfacet
  facet normal 0.743145 -0.669131 0
    outer loop
      vertex 8.09017 -5.87785 0
      vertex 8.09017 -5.87785 30
      vertex 6.69131 -7.43145 30
    endloop
  endfacet
  facet normal 0.951057 -0.309017 0
    outer loop
      vertex 9.14342 -4.04285 0
      vertex 9.13545 -4.06737 30
      vertex 9.13545 -4.06737 0
    endloop
  endfacet
  facet normal 0.951057 -0.309017 0
    outer loop
      vertex 9.14342 -4.04285 0
      vertex 9.14342 -4.04285 30
      vertex 9.13545 -4.06737 30
    endloop
  endfacet
  facet normal 0.587785 0.809017 0
    outer loop
      vertex 5 8.66025 30
      vertex 6.69131 7.43145 0
      vertex 5 8.66025 0
    endloop
  endfacet
  facet normal 0.587785 0.809017 0
    outer loop
      vertex 5 8.66025 30
      vertex 6.69131 7.43145 30
      vertex 6.69131 7.43145 0
    endloop
  endfacet
  facet normal 0.406737 0.913545 0
    outer loop
      vertex 3.09017 9.51057 30
      vertex 5 8.66025 0
      vertex 3.09017 9.51057 0
    endloop
  endfacet
  facet normal 0.406737 0.913545 0
    outer loop
      vertex 3.09017 9.51057 30
      vertex 5 8.66025 30
      vertex 5 8.66025 0
    endloop
  endfacet
  facet normal -0.406737 0.913545 0
    outer loop
      vertex -5 8.66025 30
      vertex -3.09017 9.51057 0
      vertex -5 8.66025 0
    endloop
  endfacet
  facet normal -0.406737 0.913545 0
    outer loop
      vertex -5 8.66025 30
      vertex -3.09017 9.51057 30
      vertex -3.09017 9.51057 0
    endloop
  endfacet
  facet normal -0.587785 0.809017 0
    outer loop
      vertex -6.69131 7.43145 30
      vertex -5 8.66025 0
      vertex -6.69131 7.43145 0
    endloop
  endfacet
  facet normal -0.587785 0.809017 0
    outer loop
      vertex -6.69131 7.43145 30
      vertex -5 8.66025 30
      vertex -5 8.66025 0
    endloop
  endfacet
  facet normal -0.866025 0.5 0
    outer loop
      vertex -9.13545 4.06737 30
      vertex -8.09017 5.87785 0
      vertex -9.13545 4.06737 0
    endloop
  endfacet
  facet normal -0.866025 0.5 0
    outer loop
      vertex -9.13545 4.06737 30
      vertex -8.09017 5.87785 30
      vertex -8.09017 5.87785 0
    endloop
  endfacet
  facet normal -0.743145 0.669131 0
    outer loop
      vertex -8.09017 5.87785 30
      vertex -6.69131 7.43145 0
      vertex -8.09017 5.87785 0
    endloop
  endfacet
  facet normal -0.743145 0.669131 0
    outer loop
      vertex -8.09017 5.87785 30
      vertex -6.69131 7.43145 30
      vertex -6.69131 7.43145 0
    endloop
  endfacet
  facet normal -0.951057 0.309017 0
    outer loop
      vertex -9.78148 2.07912 30
      vertex -9.13545 4.06737 0
      vertex -9.78148 2.07912 0
    endloop
  endfacet
  facet normal -0.951057 0.309017 0
    outer loop
      vertex -9.78148 2.07912 30
      vertex -9.13545 4.06737 30
      vertex -9.13545 4.06737 0
    endloop
  endfacet
  facet normal 0 0 1
    outer loop
      vertex -9.78148 2.07912 30
      vertex -10 5.66554e-15 30
      vertex -7 3.96588e-15 30
    endloop
  endfacet
  facet normal -0 0 1
    outer loop
      vertex -8.09017 -5.87785 30
      vertex -6.69131 -7.43145 30
      vertex -4.58403 -5.29025 30
    endloop
  endfacet
  facet normal 0 0 1
    outer loop
      vertex -1.04528 -9.94522 30
      vertex 1.04528 -9.94522 30
      vertex -0.996204 -6.92875 30
    endloop
  endfacet
  facet normal 0 0 1
    outer loop
      vertex 9.88767 -1.06872 30
      vertex 7 0 30
      vertex 6.71645 -1.97213 30
    endloop
  endfacet
  facet normal 0 0 1
    outer loop
      vertex 8.09017 -5.87785 30
      vertex 4.58403 -5.29025 30
      vertex 6.69131 -7.43145 30
    endloop
  endfacet
  facet normal 0 0 1
    outer loop
      vertex 9.13545 -4.06737 30
      vertex 5.88877 -3.78449 30
      vertex 8.09017 -5.87785 30
    endloop
  endfacet
  facet normal 0 0 1
    outer loop
      vertex 80.25 -35.3023 30
      vertex 9.88767 -1.06872 30
      vertex 9.14342 -4.04285 30
    endloop
  endfacet
  facet normal 0 0 1
    outer loop
      vertex 5.88877 -3.78449 30
      vertex 9.13545 -4.06737 30
      vertex 9.14342 -4.04285 30
    endloop
  endfacet
  facet normal 0 -0 1
    outer loop
      vertex 9.88767 -1.06872 30
      vertex 10 0 30
      vertex 7 0 30
    endloop
  endfacet
  facet normal 0 0 1
    outer loop
      vertex 9.88767 -1.06872 30
      vertex 6.71645 -1.97213 30
      vertex 9.14342 -4.04285 30
    endloop
  endfacet
  facet normal 0 0 1
    outer loop
      vertex 6.69131 -7.43145 30
      vertex 4.58403 -5.29025 30
      vertex 5 -8.66025 30
    endloop
  endfacet
  facet normal 0 -0 1
    outer loop
      vertex 1.04528 -9.94522 30
      vertex 3.09017 -9.51057 30
      vertex 0.996204 -6.92875 30
    endloop
  endfacet
  facet normal 0 0 1
    outer loop
      vertex 6.71645 -1.97213 30
      vertex 5.88877 -3.78449 30
      vertex 9.14342 -4.04285 30
    endloop
  endfacet
  facet normal 0 0 1
    outer loop
      vertex 2.90791 -6.36742 30
      vertex 3.09017 -9.51057 30
      vertex 5 -8.66025 30
    endloop
  endfacet
  facet normal 0 0 1
    outer loop
      vertex 5 -8.66025 30
      vertex 4.58403 -5.29025 30
      vertex 2.90791 -6.36742 30
    endloop
  endfacet
  facet normal -0 0 1
    outer loop
      vertex 4.58403 -5.29025 30
      vertex 8.09017 -5.87785 30
      vertex 5.88877 -3.78449 30
    endloop
  endfacet
  facet normal 0 -0 1
    outer loop
      vertex -1.04528 -9.94522 30
      vertex -0.996204 -6.92875 30
      vertex -3.09017 -9.51057 30
    endloop
  endfacet
  facet normal -0 0 1
    outer loop
      vertex -6.69131 -7.43145 30
      vertex -5 -8.66025 30
      vertex -4.58403 -5.29025 30
    endloop
  endfacet
  facet normal 0 0 1
    outer loop
      vertex 2.90791 -6.36742 30
      vertex 0.996204 -6.92875 30
      vertex 3.09017 -9.51057 30
    endloop
  endfacet
  facet normal 0 0 1
    outer loop
      vertex -2.90791 -6.36742 30
      vertex -5 -8.66025 30
      vertex -3.09017 -9.51057 30
    endloop
  endfacet
  facet normal 0 0 1
    outer loop
      vertex -3.09017 -9.51057 30
      vertex -0.996204 -6.92875 30
      vertex -2.90791 -6.36742 30
    endloop
  endfacet
  facet normal 0 0 1
    outer loop
      vertex -0.996204 -6.92875 30
      vertex 1.04528 -9.94522 30
      vertex 0.996204 -6.92875 30
    endloop
  endfacet
  facet normal 0 -0 1
    outer loop
      vertex -8.09017 -5.87785 30
      vertex -5.88877 -3.78449 30
      vertex -9.13545 -4.06737 30
    endloop
  endfacet
  facet normal 0 0 1
    outer loop
      vertex -6.71645 -1.97213 30
      vertex -9.78148 -2.07912 30
      vertex -9.13545 -4.06737 30
    endloop
  endfacet
  facet normal 0 0 1
    outer loop
      vertex -2.90791 -6.36742 30
      vertex -4.58403 -5.29025 30
      vertex -5 -8.66025 30
    endloop
  endfacet
  facet normal 0 0 1
    outer loop
      vertex -7 3.96588e-15 30
      vertex -10 5.66554e-15 30
      vertex -9.78148 -2.07912 30
    endloop
  endfacet
  facet normal 0 0 1
    outer loop
      vertex -9.13545 -4.06737 30
      vertex -5.88877 -3.78449 30
      vertex -6.71645 -1.97213 30
    endloop
  endfacet
  facet normal 0 0 1
    outer loop
      vertex -5.88877 -3.78449 30
      vertex -8.09017 -5.87785 30
      vertex -4.58403 -5.29025 30
    endloop
  endfacet
  facet normal 0 0 1
    outer loop
      vertex -9.78148 -2.07912 30
      vertex -6.71645 -1.97213 30
      vertex -7 3.96588e-15 30
    endloop
  endfacet
  facet normal 0 0 1
    outer loop
      vertex -9.78148 2.07912 30
      vertex -7 3.96588e-15 30
      vertex -6.71645 1.97213 30
    endloop
  endfacet
  facet normal 0 0 1
    outer loop
      vertex -9.13545 4.06737 30
      vertex -9.78148 2.07912 30
      vertex -6.71645 1.97213 30
    endloop
  endfacet
  facet normal 0 0 1
    outer loop
      vertex -9.13545 4.06737 30
      vertex -6.71645 1.97213 30
      vertex -5.88877 3.78449 30
    endloop
  endfacet
  facet normal 0 0 1
    outer loop
      vertex -8.09017 5.87785 30
      vertex -5.88877 3.78449 30
      vertex -4.58403 5.29025 30
    endloop
  endfacet
  facet normal 0 0 1
    outer loop
      vertex -3.09017 9.51057 30
      vertex -2.90791 6.36742 30
      vertex -0.996204 6.92875 30
    endloop
  endfacet
  facet normal 0 0 1
    outer loop
      vertex 5 8.66025 30
      vertex 2.90791 6.36742 30
      vertex 4.58403 5.29025 30
    endloop
  endfacet
  facet normal 0 0 1
    outer loop
      vertex 3.09017 9.51057 30
      vertex 2.90791 6.36742 30
      vertex 5 8.66025 30
    endloop
  endfacet
  facet normal 0 0 1
    outer loop
      vertex 7.47108 6.56543 30
      vertex 5.88877 3.78449 30
      vertex 7 3 30
    endloop
  endfacet
  facet normal -0 0 1
    outer loop
      vertex 4.58403 5.29025 30
      vertex 5.88877 3.78449 30
      vertex 7.47108 6.56543 30
    endloop
  endfacet
  facet normal 0 0 1
    outer loop
      vertex 5.88877 3.78449 30
      vertex 6.24704 3 30
      vertex 7 3 30
    endloop
  endfacet
  facet normal 0 0 1
    outer loop
      vertex 9.48226 3 30
      vertex 9.14342 4.04285 30
      vertex 7 3 30
    endloop
  endfacet
  facet normal -0 0 1
    outer loop
      vertex -0.996204 6.92875 30
      vertex 0.996204 6.92875 30
      vertex 1.04528 9.94522 30
    endloop
  endfacet
  facet normal -0 0 1
    outer loop
      vertex 0.996204 6.92875 30
      vertex 2.90791 6.36742 30
      vertex 3.09017 9.51057 30
    endloop
  endfacet
  facet normal 0 0 1
    outer loop
      vertex 78.9375 38 30
      vertex 77.625 40.6977 30
      vertex 9.14342 4.04285 30
    endloop
  endfacet
  facet normal 0 0 1
    outer loop
      vertex 77.625 40.6977 30
      vertex 7.47108 6.56543 30
      vertex 9.14342 4.04285 30
    endloop
  endfacet
  facet normal 0 0 1
    outer loop
      vertex 7.47108 6.56543 30
      vertex 7 3 30
      vertex 9.14342 4.04285 30
    endloop
  endfacet
  facet normal 0 0 1
    outer loop
      vertex 6.69131 7.43145 30
      vertex 4.58403 5.29025 30
      vertex 7.47108 6.56543 30
    endloop
  endfacet
  facet normal 0 0 1
    outer loop
      vertex 5 8.66025 30
      vertex 4.58403 5.29025 30
      vertex 6.69131 7.43145 30
    endloop
  endfacet
  facet normal 0 0 1
    outer loop
      vertex 3.09017 9.51057 30
      vertex 1.04528 9.94522 30
      vertex 0.996204 6.92875 30
    endloop
  endfacet
  facet normal 0 0 1
    outer loop
      vertex -5 8.66025 30
      vertex -4.58403 5.29025 30
      vertex -2.90791 6.36742 30
    endloop
  endfacet
  facet normal 0 0 1
    outer loop
      vertex 1.04528 9.94522 30
      vertex -1.04528 9.94522 30
      vertex -0.996204 6.92875 30
    endloop
  endfacet
  facet normal 0 0 1
    outer loop
      vertex -1.04528 9.94522 30
      vertex -3.09017 9.51057 30
      vertex -0.996204 6.92875 30
    endloop
  endfacet
  facet normal 0 0 1
    outer loop
      vertex -3.09017 9.51057 30
      vertex -5 8.66025 30
      vertex -2.90791 6.36742 30
    endloop
  endfacet
  facet normal 0 0 1
    outer loop
      vertex -5 8.66025 30
      vertex -6.69131 7.43145 30
      vertex -4.58403 5.29025 30
    endloop
  endfacet
  facet normal 0 0 1
    outer loop
      vertex -6.69131 7.43145 30
      vertex -8.09017 5.87785 30
      vertex -4.58403 5.29025 30
    endloop
  endfacet
  facet normal 0 0 1
    outer loop
      vertex -8.09017 5.87785 30
      vertex -9.13545 4.06737 30
      vertex -5.88877 3.78449 30
    endloop
  endfacet
  facet normal 0 0 1
    outer loop
      vertex 80.25 -35.3023 30
      vertex 9.14342 -4.04285 30
      vertex 78.9375 -38 30
    endloop
  endfacet
  facet normal -0.207912 -0.978148 0
    outer loop
      vertex -1.04528 -9.94522 0
      vertex -3.09017 -9.51057 30
      vertex -3.09017 -9.51057 0
    endloop
  endfacet
  facet normal -0.207912 -0.978148 0
    outer loop
      vertex -1.04528 -9.94522 0
      vertex -1.04528 -9.94522 30
      vertex -3.09017 -9.51057 30
    endloop
  endfacet
  facet normal -0.406737 -0.913545 0
    outer loop
      vertex -3.09017 -9.51057 0
      vertex -5 -8.66025 30
      vertex -5 -8.66025 0
    endloop
  endfacet
  facet normal -0.406737 -0.913545 0
    outer loop
      vertex -3.09017 -9.51057 0
      vertex -3.09017 -9.51057 30
      vertex -5 -8.66025 30
    endloop
  endfacet
  facet normal 0.866025 -0.5 0
    outer loop
      vertex 9.13545 -4.06737 0
      vertex 8.09017 -5.87785 30
      vertex 8.09017 -5.87785 0
    endloop
  endfacet
  facet normal 0.866025 -0.5 0
    outer loop
      vertex 9.13545 -4.06737 0
      vertex 9.13545 -4.06737 30
      vertex 8.09017 -5.87785 30
    endloop
  endfacet
  facet normal 0.994522 -0.104528 0
    outer loop
      vertex 10 0 0
      vertex 9.88767 -1.06872 30
      vertex 9.88767 -1.06872 0
    endloop
  endfacet
  facet normal 0.994522 -0.104528 0
    outer loop
      vertex 10 0 0
      vertex 10 0 30
      vertex 9.88767 -1.06872 30
    endloop
  endfacet
  facet normal -0.207912 0.978148 0
    outer loop
      vertex -3.09017 9.51057 30
      vertex -1.04528 9.94522 0
      vertex -3.09017 9.51057 0
    endloop
  endfacet
  facet normal -0.207912 0.978148 0
    outer loop
      vertex -3.09017 9.51057 30
      vertex -1.04528 9.94522 30
      vertex -1.04528 9.94522 0
    endloop
  endfacet
  facet normal 0 1 0
    outer loop
      vertex -1.04528 9.94522 30
      vertex 1.04528 9.94522 0
      vertex -1.04528 9.94522 0
    endloop
  endfacet
  facet normal -0 1 0
    outer loop
      vertex -1.04528 9.94522 30
      vertex 1.04528 9.94522 30
      vertex 1.04528 9.94522 0
    endloop
  endfacet
  facet normal 0.951057 0.309017 0
    outer loop
      vertex 9.48226 3 30
      vertex 9.48226 3 0
      vertex 9.14342 4.04285 0
    endloop
  endfacet
  facet normal 0.951057 0.309017 0
    outer loop
      vertex 9.14342 4.04285 30
      vertex 9.48226 3 30
      vertex 9.14342 4.04285 0
    endloop
  endfacet
  facet normal 0.989821 0.142315 -0
    outer loop
      vertex -7 3.96588e-15 0
      vertex -7 3.96588e-15 30
      vertex -6.71645 -1.97213 30
    endloop
  endfacet
  facet normal 0.989821 0.142315 -0
    outer loop
      vertex -6.71645 -1.97213 0
      vertex -7 3.96588e-15 0
      vertex -6.71645 -1.97213 30
    endloop
  endfacet
  facet normal -0.540641 -0.841254 0
    outer loop
      vertex 2.90791 6.36742 30
      vertex 4.58403 5.29025 0
      vertex 4.58403 5.29025 30
    endloop
  endfacet
  facet normal -0.540641 -0.841254 -0
    outer loop
      vertex 2.90791 6.36742 30
      vertex 2.90791 6.36742 0
      vertex 4.58403 5.29025 0
    endloop
  endfacet
  facet normal 4.45781e-16 1 -0
    outer loop
      vertex 0.996204 -6.92875 0
      vertex -0.996204 -6.92875 30
      vertex 0.996204 -6.92875 30
    endloop
  endfacet
  facet normal 4.45781e-16 1 0
    outer loop
      vertex 0.996204 -6.92875 0
      vertex -0.996204 -6.92875 0
      vertex -0.996204 -6.92875 30
    endloop
  endfacet
  facet normal -0.75575 -0.654861 0
    outer loop
      vertex 4.58403 5.29025 0
      vertex 5.88877 3.78449 0
      vertex 5.88877 3.78449 30
    endloop
  endfacet
  facet normal -0.75575 -0.654861 -0
    outer loop
      vertex 4.58403 5.29025 30
      vertex 4.58403 5.29025 0
      vertex 5.88877 3.78449 30
    endloop
  endfacet
  facet normal 0.909632 0.415415 -0
    outer loop
      vertex -6.71645 -1.97213 0
      vertex -6.71645 -1.97213 30
      vertex -5.88877 -3.78449 30
    endloop
  endfacet
  facet normal 0.909632 0.415415 -0
    outer loop
      vertex -5.88877 -3.78449 0
      vertex -6.71645 -1.97213 0
      vertex -5.88877 -3.78449 30
    endloop
  endfacet
  facet normal 0.989821 -0.142315 0
    outer loop
      vertex -7 3.96588e-15 30
      vertex -6.71645 1.97213 0
      vertex -6.71645 1.97213 30
    endloop
  endfacet
  facet normal 0.989821 -0.142315 0
    outer loop
      vertex -7 3.96588e-15 30
      vertex -7 3.96588e-15 0
      vertex -6.71645 1.97213 0
    endloop
  endfacet
  facet normal -0.909632 -0.415415 0
    outer loop
      vertex 5.88877 3.78449 0
      vertex 6.24704 3 0
      vertex 6.24704 3 30
    endloop
  endfacet
  facet normal -0.909632 -0.415415 -0
    outer loop
      vertex 5.88877 3.78449 30
      vertex 5.88877 3.78449 0
      vertex 6.24704 3 30
    endloop
  endfacet
  facet normal 0.281733 -0.959493 0
    outer loop
      vertex -2.90791 6.36742 30
      vertex -0.996204 6.92875 0
      vertex -0.996204 6.92875 30
    endloop
  endfacet
  facet normal 0.281733 -0.959493 0
    outer loop
      vertex -2.90791 6.36742 30
      vertex -2.90791 6.36742 0
      vertex -0.996204 6.92875 0
    endloop
  endfacet
  facet normal -0.989821 0.142315 0
    outer loop
      vertex 7 0 0
      vertex 6.71645 -1.97213 30
      vertex 7 0 30
    endloop
  endfacet
  facet normal -0.989821 0.142315 0
    outer loop
      vertex 7 0 0
      vertex 6.71645 -1.97213 0
      vertex 6.71645 -1.97213 30
    endloop
  endfacet
  facet normal -0.75575 0.654861 0
    outer loop
      vertex 5.88877 -3.78449 0
      vertex 4.58403 -5.29025 30
      vertex 5.88877 -3.78449 30
    endloop
  endfacet
  facet normal -0.75575 0.654861 0
    outer loop
      vertex 5.88877 -3.78449 0
      vertex 4.58403 -5.29025 0
      vertex 4.58403 -5.29025 30
    endloop
  endfacet
  facet normal -0.281733 0.959493 0
    outer loop
      vertex 2.90791 -6.36742 0
      vertex 0.996204 -6.92875 30
      vertex 2.90791 -6.36742 30
    endloop
  endfacet
  facet normal -0.281733 0.959493 0
    outer loop
      vertex 2.90791 -6.36742 0
      vertex 0.996204 -6.92875 0
      vertex 0.996204 -6.92875 30
    endloop
  endfacet
  facet normal -4.45781e-16 -1 0
    outer loop
      vertex -0.996204 6.92875 30
      vertex 0.996204 6.92875 0
      vertex 0.996204 6.92875 30
    endloop
  endfacet
  facet normal -4.45781e-16 -1 -0
    outer loop
      vertex -0.996204 6.92875 30
      vertex -0.996204 6.92875 0
      vertex 0.996204 6.92875 0
    endloop
  endfacet
  facet normal 0.540641 -0.841254 0
    outer loop
      vertex -4.58403 5.29025 30
      vertex -2.90791 6.36742 0
      vertex -2.90791 6.36742 30
    endloop
  endfacet
  facet normal 0.540641 -0.841254 0
    outer loop
      vertex -4.58403 5.29025 30
      vertex -4.58403 5.29025 0
      vertex -2.90791 6.36742 0
    endloop
  endfacet
  facet normal 0.540641 0.841254 -0
    outer loop
      vertex -2.90791 -6.36742 0
      vertex -4.58403 -5.29025 30
      vertex -2.90791 -6.36742 30
    endloop
  endfacet
  facet normal 0.540641 0.841254 0
    outer loop
      vertex -2.90791 -6.36742 0
      vertex -4.58403 -5.29025 0
      vertex -4.58403 -5.29025 30
    endloop
  endfacet
  facet normal 0.75575 0.654861 -0
    outer loop
      vertex -5.88877 -3.78449 0
      vertex -5.88877 -3.78449 30
      vertex -4.58403 -5.29025 30
    endloop
  endfacet
  facet normal 0.75575 0.654861 -0
    outer loop
      vertex -4.58403 -5.29025 0
      vertex -5.88877 -3.78449 0
      vertex -4.58403 -5.29025 30
    endloop
  endfacet
  facet normal -0.909632 0.415415 0
    outer loop
      vertex 6.71645 -1.97213 0
      vertex 5.88877 -3.78449 30
      vertex 6.71645 -1.97213 30
    endloop
  endfacet
  facet normal -0.909632 0.415415 0
    outer loop
      vertex 6.71645 -1.97213 0
      vertex 5.88877 -3.78449 0
      vertex 5.88877 -3.78449 30
    endloop
  endfacet
  facet normal -0.540641 0.841254 0
    outer loop
      vertex 4.58403 -5.29025 0
      vertex 2.90791 -6.36742 30
      vertex 4.58403 -5.29025 30
    endloop
  endfacet
  facet normal -0.540641 0.841254 0
    outer loop
      vertex 4.58403 -5.29025 0
      vertex 2.90791 -6.36742 0
      vertex 2.90791 -6.36742 30
    endloop
  endfacet
  facet normal -0.281733 -0.959493 0
    outer loop
      vertex 0.996204 6.92875 30
      vertex 2.90791 6.36742 0
      vertex 2.90791 6.36742 30
    endloop
  endfacet
  facet normal -0.281733 -0.959493 -0
    outer loop
      vertex 0.996204 6.92875 30
      vertex 0.996204 6.92875 0
      vertex 2.90791 6.36742 0
    endloop
  endfacet
  facet normal 0.75575 -0.654861 0
    outer loop
      vertex -5.88877 3.78449 30
      vertex -4.58403 5.29025 0
      vertex -4.58403 5.29025 30
    endloop
  endfacet
  facet normal 0.75575 -0.654861 0
    outer loop
      vertex -5.88877 3.78449 30
      vertex -5.88877 3.78449 0
      vertex -4.58403 5.29025 0
    endloop
  endfacet
  facet normal 0.909632 -0.415415 0
    outer loop
      vertex -6.71645 1.97213 30
      vertex -5.88877 3.78449 0
      vertex -5.88877 3.78449 30
    endloop
  endfacet
  facet normal 0.909632 -0.415415 0
    outer loop
      vertex -6.71645 1.97213 30
      vertex -6.71645 1.97213 0
      vertex -5.88877 3.78449 0
    endloop
  endfacet
  facet normal 0.281733 0.959493 -0
    outer loop
      vertex -0.996204 -6.92875 0
      vertex -2.90791 -6.36742 30
      vertex -0.996204 -6.92875 30
    endloop
  endfacet
  facet normal 0.281733 0.959493 0
    outer loop
      vertex -0.996204 -6.92875 0
      vertex -2.90791 -6.36742 0
      vertex -2.90791 -6.36742 30
    endloop
  endfacet
  facet normal 0 1 -0
    outer loop
      vertex 10 0 0
      vertex 7 0 30
      vertex 10 0 30
    endloop
  endfacet
  facet normal 0 1 0
    outer loop
      vertex 10 0 0
      vertex 7 0 0
      vertex 7 0 30
    endloop
  endfacet
  facet normal 0 -1 0
    outer loop
      vertex 6.24704 3 30
      vertex 7 3 0
      vertex 7 3 30
    endloop
  endfacet
  facet normal 0 -1 0
    outer loop
      vertex 6.24704 3 30
      vertex 6.24704 3 0
      vertex 7 3 0
    endloop
  endfacet
  facet normal 0 -1 0
    outer loop
      vertex 7 3 30
      vertex 9.48226 3 0
      vertex 9.48226 3 30
    endloop
  endfacet
  facet normal 0 -1 0
    outer loop
      vertex 7 3 30
      vertex 7 3 0
      vertex 9.48226 3 0
    endloop
  endfacet
  facet normal -0.4375 0.899218 0
    outer loop
      vertex 7.47108 6.56543 30
      vertex 77.625 40.6977 0
      vertex 7.47108 6.56543 0
    endloop
  endfacet
  facet normal -0.4375 0.899218 0
    outer loop
      vertex 7.47108 6.56543 30
      vertex 77.625 40.6977 30
      vertex 77.625 40.6977 0
    endloop
  endfacet
  facet normal 0.4375 -0.899218 0
    outer loop
      vertex 78.9375 38 0
      vertex 9.14342 4.04285 30
      vertex 9.14342 4.04285 0
    endloop
  endfacet
  facet normal 0.4375 -0.899218 0
    outer loop
      vertex 78.9375 38 0
      vertex 78.9375 38 30
      vertex 9.14342 4.04285 30
    endloop
  endfacet
  facet normal 0.899218 0.4375 0
    outer loop
      vertex 78.9375 38 30
      vertex 78.9375 38 0
      vertex 77.625 40.6977 0
    endloop
  endfacet
  facet normal 0.899218 0.4375 0
    outer loop
      vertex 77.625 40.6977 30
      vertex 78.9375 38 30
      vertex 77.625 40.6977 0
    endloop
  endfacet
  facet normal -0.4375 -0.899218 0
    outer loop
      vertex 78.9375 -38 0
      vertex 9.14342 -4.04285 30
      vertex 9.14342 -4.04285 0
    endloop
  endfacet
  facet normal -0.4375 -0.899218 0
    outer loop
      vertex 78.9375 -38 0
      vertex 78.9375 -38 30
      vertex 9.14342 -4.04285 30
    endloop
  endfacet
  facet normal 0.4375 0.899218 0
    outer loop
      vertex 9.88767 -1.06872 30
      vertex 80.25 -35.3023 0
      vertex 9.88767 -1.06872 0
    endloop
  endfacet
  facet normal 0.4375 0.899218 0
    outer loop
      vertex 9.88767 -1.06872 30
      vertex 80.25 -35.3023 30
      vertex 80.25 -35.3023 0
    endloop
  endfacet
  facet normal 0.899218 -0.4375 0
    outer loop
      vertex 80.25 -35.3023 0
      vertex 78.9375 -38 30
      vertex 78.9375 -38 0
    endloop
  endfacet
  facet normal 0.899218 -0.4375 0
    outer loop
      vertex 80.25 -35.3023 0
      vertex 80.25 -35.3023 30
      vertex 78.9375 -38 30
    endloop
  endfacet
endsolid OpenSCAD_Model
