solid OpenSCAD_Model
  facet normal -0.994522 0.104529 0
    outer loop
      vertex -10 0 0
      vertex -9.78148 2.07912 30
      vertex -9.78148 2.07912 0
    endloop
  endfacet
  facet normal -0.994522 0.104529 0
    outer loop
      vertex -9.78148 2.07912 30
      vertex -10 0 0
      vertex -10 0 30
    endloop
  endfacet
  facet normal 0 1 -0
    outer loop
      vertex 1.04528 9.94522 0
      vertex -1.04528 9.94522 30
      vertex 1.04528 9.94522 30
    endloop
  endfacet
  facet normal 0 1 0
    outer loop
      vertex -1.04528 9.94522 30
      vertex 1.04528 9.94522 0
      vertex -1.04528 9.94522 0
    endloop
  endfacet
  facet normal 0 -1 0
    outer loop
      vertex -1.04528 -9.94522 0
      vertex 1.04528 -9.94522 30
      vertex -1.04528 -9.94522 30
    endloop
  endfacet
  facet normal 0 -1 -0
    outer loop
      vertex 1.04528 -9.94522 30
      vertex -1.04528 -9.94522 0
      vertex 1.04528 -9.94522 0
    endloop
  endfacet
  facet normal 0.587785 0.809017 -0
    outer loop
      vertex 6.69131 7.43145 0
      vertex 5 8.66025 30
      vertex 6.69131 7.43145 30
    endloop
  endfacet
  facet normal 0.587785 0.809017 0
    outer loop
      vertex 5 8.66025 30
      vertex 6.69131 7.43145 0
      vertex 5 8.66025 0
    endloop
  endfacet
  facet normal 0.406737 0.913545 -0
    outer loop
      vertex 5 8.66025 0
      vertex 3.09017 9.51056 30
      vertex 5 8.66025 30
    endloop
  endfacet
  facet normal 0.406737 0.913545 0
    outer loop
      vertex 3.09017 9.51056 30
      vertex 5 8.66025 0
      vertex 3.09017 9.51056 0
    endloop
  endfacet
  facet normal -0.743145 0.669131 0
    outer loop
      vertex -8.09017 5.87785 0
      vertex -6.69131 7.43145 30
      vertex -6.69131 7.43145 0
    endloop
  endfacet
  facet normal -0.743145 0.669131 0
    outer loop
      vertex -6.69131 7.43145 30
      vertex -8.09017 5.87785 0
      vertex -8.09017 5.87785 30
    endloop
  endfacet
  facet normal -0.866026 0.5 0
    outer loop
      vertex -9.13545 4.06737 0
      vertex -8.09017 5.87785 30
      vertex -8.09017 5.87785 0
    endloop
  endfacet
  facet normal -0.866026 0.5 0
    outer loop
      vertex -8.09017 5.87785 30
      vertex -9.13545 4.06737 0
      vertex -9.13545 4.06737 30
    endloop
  endfacet
  facet normal -0.406737 0.913545 0
    outer loop
      vertex -3.09017 9.51056 0
      vertex -5 8.66025 30
      vertex -3.09017 9.51056 30
    endloop
  endfacet
  facet normal -0.406737 0.913545 0
    outer loop
      vertex -5 8.66025 30
      vertex -3.09017 9.51056 0
      vertex -5 8.66025 0
    endloop
  endfacet
  facet normal 0.743144 0.669131 0
    outer loop
      vertex 7.04198 7.04198 30
      vertex 6.69131 7.43145 0
      vertex 6.69131 7.43145 30
    endloop
  endfacet
  facet normal 0.743144 0.669131 0
    outer loop
      vertex 6.69131 7.43145 0
      vertex 7.04198 7.04198 30
      vertex 7.04198 7.04198 0
    endloop
  endfacet
  facet normal 0.207911 0.978148 -0
    outer loop
      vertex 3.09017 9.51056 0
      vertex 1.04528 9.94522 30
      vertex 3.09017 9.51056 30
    endloop
  endfacet
  facet normal 0.207911 0.978148 0
    outer loop
      vertex 1.04528 9.94522 30
      vertex 3.09017 9.51056 0
      vertex 1.04528 9.94522 0
    endloop
  endfacet
  facet normal -0.951057 0.309017 0
    outer loop
      vertex -9.78148 2.07912 0
      vertex -9.13545 4.06737 30
      vertex -9.13545 4.06737 0
    endloop
  endfacet
  facet normal -0.951057 0.309017 0
    outer loop
      vertex -9.13545 4.06737 30
      vertex -9.78148 2.07912 0
      vertex -9.78148 2.07912 30
    endloop
  endfacet
  facet normal 0 0 1
    outer loop
      vertex 4.58402 5.29025 30
      vertex 6.69131 7.43145 30
      vertex 5 8.66025 30
    endloop
  endfacet
  facet normal 0 0 1
    outer loop
      vertex 6.69131 7.43145 30
      vertex 4.58402 5.29025 30
      vertex 7.04198 7.04198 30
    endloop
  endfacet
  facet normal 0 0 1
    outer loop
      vertex 7.04198 7.04198 30
      vertex 4.58402 5.29025 30
      vertex 4.91188 4.91188 30
    endloop
  endfacet
  facet normal 0 0 1
    outer loop
      vertex 2.9079 6.36742 30
      vertex 5 8.66025 30
      vertex 3.09017 9.51056 30
    endloop
  endfacet
  facet normal 0 0 1
    outer loop
      vertex 5 8.66025 30
      vertex 2.9079 6.36742 30
      vertex 4.58402 5.29025 30
    endloop
  endfacet
  facet normal 0 0 1
    outer loop
      vertex 0.996203 6.92875 30
      vertex 3.09017 9.51056 30
      vertex 1.04528 9.94522 30
    endloop
  endfacet
  facet normal 0 0 1
    outer loop
      vertex 3.09017 9.51056 30
      vertex 0.996203 6.92875 30
      vertex 2.9079 6.36742 30
    endloop
  endfacet
  facet normal 0 0 1
    outer loop
      vertex 1.04528 9.94522 30
      vertex -0.996203 6.92875 30
      vertex 0.996203 6.92875 30
    endloop
  endfacet
  facet normal -0 0 1
    outer loop
      vertex -1.04528 9.94522 30
      vertex -0.996203 6.92875 30
      vertex 1.04528 9.94522 30
    endloop
  endfacet
  facet normal -0 0 1
    outer loop
      vertex -3.09017 9.51056 30
      vertex -0.996203 6.92875 30
      vertex -1.04528 9.94522 30
    endloop
  endfacet
  facet normal 0 0 1
    outer loop
      vertex -0.996203 6.92875 30
      vertex -3.09017 9.51056 30
      vertex -2.9079 6.36742 30
    endloop
  endfacet
  facet normal -0 0 1
    outer loop
      vertex -5 8.66025 30
      vertex -2.9079 6.36742 30
      vertex -3.09017 9.51056 30
    endloop
  endfacet
  facet normal 0 0 1
    outer loop
      vertex -2.9079 6.36742 30
      vertex -5 8.66025 30
      vertex -4.58402 5.29025 30
    endloop
  endfacet
  facet normal -0 0 1
    outer loop
      vertex -6.69131 7.43145 30
      vertex -4.58402 5.29025 30
      vertex -5 8.66025 30
    endloop
  endfacet
  facet normal -0 0 1
    outer loop
      vertex -8.09017 5.87785 30
      vertex -4.58402 5.29025 30
      vertex -6.69131 7.43145 30
    endloop
  endfacet
  facet normal 0 0 1
    outer loop
      vertex -4.58402 5.29025 30
      vertex -8.09017 5.87785 30
      vertex -5.88877 3.78448 30
    endloop
  endfacet
  facet normal -0 0 1
    outer loop
      vertex -9.13545 4.06737 30
      vertex -5.88877 3.78448 30
      vertex -8.09017 5.87785 30
    endloop
  endfacet
  facet normal 0 0 1
    outer loop
      vertex -5.88877 3.78448 30
      vertex -9.13545 4.06737 30
      vertex -6.71645 1.97213 30
    endloop
  endfacet
  facet normal 0 0 1
    outer loop
      vertex 4.58402 -5.29025 30
      vertex 6.69131 -7.43145 30
      vertex 7.04198 -7.04198 30
    endloop
  endfacet
  facet normal -0 0 1
    outer loop
      vertex 4.58402 -5.29025 30
      vertex 7.04198 -7.04198 30
      vertex 4.91188 -4.91188 30
    endloop
  endfacet
  facet normal 0 0 1
    outer loop
      vertex 6.69131 -7.43145 30
      vertex 4.58402 -5.29025 30
      vertex 5 -8.66025 30
    endloop
  endfacet
  facet normal -0 0 1
    outer loop
      vertex 2.9079 -6.36742 30
      vertex 5 -8.66025 30
      vertex 4.58402 -5.29025 30
    endloop
  endfacet
  facet normal 0 0 1
    outer loop
      vertex 5 -8.66025 30
      vertex 2.9079 -6.36742 30
      vertex 3.09017 -9.51056 30
    endloop
  endfacet
  facet normal -0 0 1
    outer loop
      vertex 0.996203 -6.92875 30
      vertex 3.09017 -9.51056 30
      vertex 2.9079 -6.36742 30
    endloop
  endfacet
  facet normal 0 0 1
    outer loop
      vertex 3.09017 -9.51056 30
      vertex 0.996203 -6.92875 30
      vertex 1.04528 -9.94522 30
    endloop
  endfacet
  facet normal -0 0 1
    outer loop
      vertex -0.996203 -6.92875 30
      vertex 1.04528 -9.94522 30
      vertex 0.996203 -6.92875 30
    endloop
  endfacet
  facet normal 0 0 1
    outer loop
      vertex -0.996203 -6.92875 30
      vertex -1.04528 -9.94522 30
      vertex 1.04528 -9.94522 30
    endloop
  endfacet
  facet normal 0 0 1
    outer loop
      vertex -3.09017 -9.51056 30
      vertex -0.996203 -6.92875 30
      vertex -2.9079 -6.36742 30
    endloop
  endfacet
  facet normal 0 0 1
    outer loop
      vertex -0.996203 -6.92875 30
      vertex -3.09017 -9.51056 30
      vertex -1.04528 -9.94522 30
    endloop
  endfacet
  facet normal 0 0 1
    outer loop
      vertex -5 -8.66025 30
      vertex -2.9079 -6.36742 30
      vertex -4.58402 -5.29025 30
    endloop
  endfacet
  facet normal 0 0 1
    outer loop
      vertex -2.9079 -6.36742 30
      vertex -5 -8.66025 30
      vertex -3.09017 -9.51056 30
    endloop
  endfacet
  facet normal 0 0 1
    outer loop
      vertex -8.09017 -5.87785 30
      vertex -4.58402 -5.29025 30
      vertex -5.88877 -3.78448 30
    endloop
  endfacet
  facet normal 0 0 1
    outer loop
      vertex -4.58402 -5.29025 30
      vertex -6.69131 -7.43145 30
      vertex -5 -8.66025 30
    endloop
  endfacet
  facet normal 0 0 1
    outer loop
      vertex -9.13545 -4.06737 30
      vertex -5.88877 -3.78448 30
      vertex -6.71645 -1.97213 30
    endloop
  endfacet
  facet normal 0 0 1
    outer loop
      vertex -9.78148 -2.07912 30
      vertex -6.71645 -1.97213 30
      vertex -7 0 30
    endloop
  endfacet
  facet normal -0 0 1
    outer loop
      vertex -9.78148 2.07912 30
      vertex -6.71645 1.97213 30
      vertex -9.13545 4.06737 30
    endloop
  endfacet
  facet normal 0 0 1
    outer loop
      vertex -4.58402 -5.29025 30
      vertex -8.09017 -5.87785 30
      vertex -6.69131 -7.43145 30
    endloop
  endfacet
  facet normal 0 0 1
    outer loop
      vertex -6.71645 1.97213 30
      vertex -9.78148 2.07912 30
      vertex -7 0 30
    endloop
  endfacet
  facet normal 0 0 1
    outer loop
      vertex -5.88877 -3.78448 30
      vertex -9.13545 -4.06737 30
      vertex -8.09017 -5.87785 30
    endloop
  endfacet
  facet normal 0 0 1
    outer loop
      vertex -10 0 30
      vertex -7 0 30
      vertex -9.78148 2.07912 30
    endloop
  endfacet
  facet normal 0 0 1
    outer loop
      vertex -6.71645 -1.97213 30
      vertex -9.78148 -2.07912 30
      vertex -9.13545 -4.06737 30
    endloop
  endfacet
  facet normal 0 0 1
    outer loop
      vertex -7 0 30
      vertex -10 0 30
      vertex -9.78148 -2.07912 30
    endloop
  endfacet
  facet normal -0.587785 0.809017 0
    outer loop
      vertex -5 8.66025 0
      vertex -6.69131 7.43145 30
      vertex -5 8.66025 30
    endloop
  endfacet
  facet normal -0.587785 0.809017 0
    outer loop
      vertex -6.69131 7.43145 30
      vertex -5 8.66025 0
      vertex -6.69131 7.43145 0
    endloop
  endfacet
  facet normal -0.207911 0.978148 0
    outer loop
      vertex -1.04528 9.94522 0
      vertex -3.09017 9.51056 30
      vertex -1.04528 9.94522 30
    endloop
  endfacet
  facet normal -0.207911 0.978148 0
    outer loop
      vertex -3.09017 9.51056 30
      vertex -1.04528 9.94522 0
      vertex -3.09017 9.51056 0
    endloop
  endfacet
  facet normal 0 0 -1
    outer loop
      vertex 4.58402 -5.29025 0
      vertex 6.69131 -7.43145 0
      vertex 5 -8.66025 0
    endloop
  endfacet
  facet normal 0 0 -1
    outer loop
      vertex 6.69131 -7.43145 0
      vertex 4.58402 -5.29025 0
      vertex 7.04198 -7.04198 0
    endloop
  endfacet
  facet normal 0 0 -1
    outer loop
      vertex 7.04198 -7.04198 0
      vertex 4.58402 -5.29025 0
      vertex 4.91188 -4.91188 0
    endloop
  endfacet
  facet normal 0 0 -1
    outer loop
      vertex 2.9079 -6.36742 0
      vertex 5 -8.66025 0
      vertex 3.09017 -9.51056 0
    endloop
  endfacet
  facet normal 0 0 -1
    outer loop
      vertex 5 -8.66025 0
      vertex 2.9079 -6.36742 0
      vertex 4.58402 -5.29025 0
    endloop
  endfacet
  facet normal 0 0 -1
    outer loop
      vertex 0.996203 -6.92875 0
      vertex 3.09017 -9.51056 0
      vertex 1.04528 -9.94522 0
    endloop
  endfacet
  facet normal 0 0 -1
    outer loop
      vertex 3.09017 -9.51056 0
      vertex 0.996203 -6.92875 0
      vertex 2.9079 -6.36742 0
    endloop
  endfacet
  facet normal 0 0 -1
    outer loop
      vertex 1.04528 -9.94522 0
      vertex -0.996203 -6.92875 0
      vertex 0.996203 -6.92875 0
    endloop
  endfacet
  facet normal 0 0 -1
    outer loop
      vertex -1.04528 -9.94522 0
      vertex -0.996203 -6.92875 0
      vertex 1.04528 -9.94522 0
    endloop
  endfacet
  facet normal 0 0 -1
    outer loop
      vertex -3.09017 -9.51056 0
      vertex -0.996203 -6.92875 0
      vertex -1.04528 -9.94522 0
    endloop
  endfacet
  facet normal -0 0 -1
    outer loop
      vertex -0.996203 -6.92875 0
      vertex -3.09017 -9.51056 0
      vertex -2.9079 -6.36742 0
    endloop
  endfacet
  facet normal 0 0 -1
    outer loop
      vertex -5 -8.66025 0
      vertex -2.9079 -6.36742 0
      vertex -3.09017 -9.51056 0
    endloop
  endfacet
  facet normal -0 0 -1
    outer loop
      vertex -2.9079 -6.36742 0
      vertex -5 -8.66025 0
      vertex -4.58402 -5.29025 0
    endloop
  endfacet
  facet normal 0 0 -1
    outer loop
      vertex -6.69131 -7.43145 0
      vertex -4.58402 -5.29025 0
      vertex -5 -8.66025 0
    endloop
  endfacet
  facet normal 0 0 -1
    outer loop
      vertex -8.09017 -5.87785 0
      vertex -4.58402 -5.29025 0
      vertex -6.69131 -7.43145 0
    endloop
  endfacet
  facet normal -0 0 -1
    outer loop
      vertex -4.58402 -5.29025 0
      vertex -8.09017 -5.87785 0
      vertex -5.88877 -3.78448 0
    endloop
  endfacet
  facet normal 0 0 -1
    outer loop
      vertex -9.13545 -4.06737 0
      vertex -5.88877 -3.78448 0
      vertex -8.09017 -5.87785 0
    endloop
  endfacet
  facet normal -0 0 -1
    outer loop
      vertex -5.88877 -3.78448 0
      vertex -9.13545 -4.06737 0
      vertex -6.71645 -1.97213 0
    endloop
  endfacet
  facet normal 0 0 -1
    outer loop
      vertex 4.58402 5.29025 0
      vertex 6.69131 7.43145 0
      vertex 7.04198 7.04198 0
    endloop
  endfacet
  facet normal 0 0 -1
    outer loop
      vertex 4.58402 5.29025 0
      vertex 7.04198 7.04198 0
      vertex 4.91188 4.91188 0
    endloop
  endfacet
  facet normal -0 0 -1
    outer loop
      vertex 6.69131 7.43145 0
      vertex 4.58402 5.29025 0
      vertex 5 8.66025 0
    endloop
  endfacet
  facet normal 0 0 -1
    outer loop
      vertex 2.9079 6.36742 0
      vertex 5 8.66025 0
      vertex 4.58402 5.29025 0
    endloop
  endfacet
  facet normal -0 0 -1
    outer loop
      vertex 5 8.66025 0
      vertex 2.9079 6.36742 0
      vertex 3.09017 9.51056 0
    endloop
  endfacet
  facet normal 0 0 -1
    outer loop
      vertex 0.996203 6.92875 0
      vertex 3.09017 9.51056 0
      vertex 2.9079 6.36742 0
    endloop
  endfacet
  facet normal -0 0 -1
    outer loop
      vertex 3.09017 9.51056 0
      vertex 0.996203 6.92875 0
      vertex 1.04528 9.94522 0
    endloop
  endfacet
  facet normal 0 0 -1
    outer loop
      vertex -0.996203 6.92875 0
      vertex 1.04528 9.94522 0
      vertex 0.996203 6.92875 0
    endloop
  endfacet
  facet normal 0 0 -1
    outer loop
      vertex -0.996203 6.92875 0
      vertex -1.04528 9.94522 0
      vertex 1.04528 9.94522 0
    endloop
  endfacet
  facet normal 0 0 -1
    outer loop
      vertex -3.09017 9.51056 0
      vertex -0.996203 6.92875 0
      vertex -2.9079 6.36742 0
    endloop
  endfacet
  facet normal 0 0 -1
    outer loop
      vertex -0.996203 6.92875 0
      vertex -3.09017 9.51056 0
      vertex -1.04528 9.94522 0
    endloop
  endfacet
  facet normal 0 0 -1
    outer loop
      vertex -5 8.66025 0
      vertex -2.9079 6.36742 0
      vertex -4.58402 5.29025 0
    endloop
  endfacet
  facet normal 0 0 -1
    outer loop
      vertex -2.9079 6.36742 0
      vertex -5 8.66025 0
      vertex -3.09017 9.51056 0
    endloop
  endfacet
  facet normal 0 0 -1
    outer loop
      vertex -8.09017 5.87785 0
      vertex -4.58402 5.29025 0
      vertex -5.88877 3.78448 0
    endloop
  endfacet
  facet normal 0 0 -1
    outer loop
      vertex -4.58402 5.29025 0
      vertex -6.69131 7.43145 0
      vertex -5 8.66025 0
    endloop
  endfacet
  facet normal 0 0 -1
    outer loop
      vertex -9.13545 4.06737 0
      vertex -5.88877 3.78448 0
      vertex -6.71645 1.97213 0
    endloop
  endfacet
  facet normal 0 0 -1
    outer loop
      vertex -9.78148 2.07912 0
      vertex -6.71645 1.97213 0
      vertex -7 0 0
    endloop
  endfacet
  facet normal 0 0 -1
    outer loop
      vertex -9.78148 -2.07912 0
      vertex -6.71645 -1.97213 0
      vertex -9.13545 -4.06737 0
    endloop
  endfacet
  facet normal 0 0 -1
    outer loop
      vertex -4.58402 5.29025 0
      vertex -8.09017 5.87785 0
      vertex -6.69131 7.43145 0
    endloop
  endfacet
  facet normal -0 0 -1
    outer loop
      vertex -6.71645 -1.97213 0
      vertex -9.78148 -2.07912 0
      vertex -7 0 0
    endloop
  endfacet
  facet normal 0 0 -1
    outer loop
      vertex -5.88877 3.78448 0
      vertex -9.13545 4.06737 0
      vertex -8.09017 5.87785 0
    endloop
  endfacet
  facet normal 0 0 -1
    outer loop
      vertex -10 0 0
      vertex -7 0 0
      vertex -9.78148 -2.07912 0
    endloop
  endfacet
  facet normal 0 0 -1
    outer loop
      vertex -6.71645 1.97213 0
      vertex -9.78148 2.07912 0
      vertex -9.13545 4.06737 0
    endloop
  endfacet
  facet normal 0 0 -1
    outer loop
      vertex -7 0 0
      vertex -10 0 0
      vertex -9.78148 2.07912 0
    endloop
  endfacet
  facet normal 0.207911 -0.978148 0
    outer loop
      vertex 1.04528 -9.94522 0
      vertex 3.09017 -9.51056 30
      vertex 1.04528 -9.94522 30
    endloop
  endfacet
  facet normal 0.207911 -0.978148 0
    outer loop
      vertex 3.09017 -9.51056 30
      vertex 1.04528 -9.94522 0
      vertex 3.09017 -9.51056 0
    endloop
  endfacet
  facet normal -0.866026 -0.5 0
    outer loop
      vertex -8.09017 -5.87785 0
      vertex -9.13545 -4.06737 30
      vertex -9.13545 -4.06737 0
    endloop
  endfacet
  facet normal -0.866026 -0.5 0
    outer loop
      vertex -9.13545 -4.06737 30
      vertex -8.09017 -5.87785 0
      vertex -8.09017 -5.87785 30
    endloop
  endfacet
  facet normal 0.587785 -0.809017 0
    outer loop
      vertex 5 -8.66025 0
      vertex 6.69131 -7.43145 30
      vertex 5 -8.66025 30
    endloop
  endfacet
  facet normal 0.587785 -0.809017 0
    outer loop
      vertex 6.69131 -7.43145 30
      vertex 5 -8.66025 0
      vertex 6.69131 -7.43145 0
    endloop
  endfacet
  facet normal 0.406737 -0.913545 0
    outer loop
      vertex 3.09017 -9.51056 0
      vertex 5 -8.66025 30
      vertex 3.09017 -9.51056 30
    endloop
  endfacet
  facet normal 0.406737 -0.913545 0
    outer loop
      vertex 5 -8.66025 30
      vertex 3.09017 -9.51056 0
      vertex 5 -8.66025 0
    endloop
  endfacet
  facet normal -0.207911 -0.978148 0
    outer loop
      vertex -3.09017 -9.51056 0
      vertex -1.04528 -9.94522 30
      vertex -3.09017 -9.51056 30
    endloop
  endfacet
  facet normal -0.207911 -0.978148 -0
    outer loop
      vertex -1.04528 -9.94522 30
      vertex -3.09017 -9.51056 0
      vertex -1.04528 -9.94522 0
    endloop
  endfacet
  facet normal -0.743145 -0.669131 0
    outer loop
      vertex -6.69131 -7.43145 0
      vertex -8.09017 -5.87785 30
      vertex -8.09017 -5.87785 0
    endloop
  endfacet
  facet normal -0.743145 -0.669131 0
    outer loop
      vertex -8.09017 -5.87785 30
      vertex -6.69131 -7.43145 0
      vertex -6.69131 -7.43145 30
    endloop
  endfacet
  facet normal -0.951057 -0.309017 0
    outer loop
      vertex -9.13545 -4.06737 0
      vertex -9.78148 -2.07912 30
      vertex -9.78148 -2.07912 0
    endloop
  endfacet
  facet normal -0.951057 -0.309017 0
    outer loop
      vertex -9.78148 -2.07912 30
      vertex -9.13545 -4.06737 0
      vertex -9.13545 -4.06737 30
    endloop
  endfacet
  facet normal -0.994522 -0.104529 0
    outer loop
      vertex -9.78148 -2.07912 0
      vertex -10 0 30
      vertex -10 0 0
    endloop
  endfacet
  facet normal -0.994522 -0.104529 0
    outer loop
      vertex -10 0 30
      vertex -9.78148 -2.07912 0
      vertex -9.78148 -2.07912 30
    endloop
  endfacet
  facet normal 0.743144 -0.669131 0
    outer loop
      vertex 6.69131 -7.43145 30
      vertex 7.04198 -7.04198 0
      vertex 7.04198 -7.04198 30
    endloop
  endfacet
  facet normal 0.743144 -0.669131 0
    outer loop
      vertex 7.04198 -7.04198 0
      vertex 6.69131 -7.43145 30
      vertex 6.69131 -7.43145 0
    endloop
  endfacet
  facet normal -0.406737 -0.913545 0
    outer loop
      vertex -5 -8.66025 0
      vertex -3.09017 -9.51056 30
      vertex -5 -8.66025 30
    endloop
  endfacet
  facet normal -0.406737 -0.913545 -0
    outer loop
      vertex -3.09017 -9.51056 30
      vertex -5 -8.66025 0
      vertex -3.09017 -9.51056 0
    endloop
  endfacet
  facet normal -0.587785 -0.809017 0
    outer loop
      vertex -6.69131 -7.43145 0
      vertex -5 -8.66025 30
      vertex -6.69131 -7.43145 30
    endloop
  endfacet
  facet normal -0.587785 -0.809017 -0
    outer loop
      vertex -5 -8.66025 30
      vertex -6.69131 -7.43145 0
      vertex -5 -8.66025 0
    endloop
  endfacet
  facet normal 0.989821 -0.142315 0
    outer loop
      vertex -7 0 30
      vertex -6.71645 1.97213 0
      vertex -6.71645 1.97213 30
    endloop
  endfacet
  facet normal 0.989821 -0.142315 0
    outer loop
      vertex -6.71645 1.97213 0
      vertex -7 0 30
      vertex -7 0 0
    endloop
  endfacet
  facet normal 0 -1 0
    outer loop
      vertex -0.996203 6.92875 0
      vertex 0.996203 6.92875 30
      vertex -0.996203 6.92875 30
    endloop
  endfacet
  facet normal 0 -1 -0
    outer loop
      vertex 0.996203 6.92875 30
      vertex -0.996203 6.92875 0
      vertex 0.996203 6.92875 0
    endloop
  endfacet
  facet normal 0 1 -0
    outer loop
      vertex 0.996203 -6.92875 0
      vertex -0.996203 -6.92875 30
      vertex 0.996203 -6.92875 30
    endloop
  endfacet
  facet normal 0 1 0
    outer loop
      vertex -0.996203 -6.92875 30
      vertex 0.996203 -6.92875 0
      vertex -0.996203 -6.92875 0
    endloop
  endfacet
  facet normal -0.75575 -0.65486 0
    outer loop
      vertex 4.91188 4.91188 0
      vertex 4.58402 5.29025 30
      vertex 4.58402 5.29025 0
    endloop
  endfacet
  facet normal -0.75575 -0.65486 0
    outer loop
      vertex 4.58402 5.29025 30
      vertex 4.91188 4.91188 0
      vertex 4.91188 4.91188 30
    endloop
  endfacet
  facet normal 0.540641 -0.841254 0
    outer loop
      vertex -4.58402 5.29025 0
      vertex -2.9079 6.36742 30
      vertex -4.58402 5.29025 30
    endloop
  endfacet
  facet normal 0.540641 -0.841254 0
    outer loop
      vertex -2.9079 6.36742 30
      vertex -4.58402 5.29025 0
      vertex -2.9079 6.36742 0
    endloop
  endfacet
  facet normal 0.281733 -0.959493 0
    outer loop
      vertex -2.9079 6.36742 0
      vertex -0.996203 6.92875 30
      vertex -2.9079 6.36742 30
    endloop
  endfacet
  facet normal 0.281733 -0.959493 0
    outer loop
      vertex -0.996203 6.92875 30
      vertex -2.9079 6.36742 0
      vertex -0.996203 6.92875 0
    endloop
  endfacet
  facet normal -0.281733 -0.959493 0
    outer loop
      vertex 0.996203 6.92875 0
      vertex 2.9079 6.36742 30
      vertex 0.996203 6.92875 30
    endloop
  endfacet
  facet normal -0.281733 -0.959493 -0
    outer loop
      vertex 2.9079 6.36742 30
      vertex 0.996203 6.92875 0
      vertex 2.9079 6.36742 0
    endloop
  endfacet
  facet normal -0.540641 -0.841254 0
    outer loop
      vertex 2.9079 6.36742 0
      vertex 4.58402 5.29025 30
      vertex 2.9079 6.36742 30
    endloop
  endfacet
  facet normal -0.540641 -0.841254 -0
    outer loop
      vertex 4.58402 5.29025 30
      vertex 2.9079 6.36742 0
      vertex 4.58402 5.29025 0
    endloop
  endfacet
  facet normal 0.75575 -0.654861 0
    outer loop
      vertex -5.88877 3.78448 30
      vertex -4.58402 5.29025 0
      vertex -4.58402 5.29025 30
    endloop
  endfacet
  facet normal 0.75575 -0.654861 0
    outer loop
      vertex -4.58402 5.29025 0
      vertex -5.88877 3.78448 30
      vertex -5.88877 3.78448 0
    endloop
  endfacet
  facet normal 0.909632 -0.415415 0
    outer loop
      vertex -6.71645 1.97213 30
      vertex -5.88877 3.78448 0
      vertex -5.88877 3.78448 30
    endloop
  endfacet
  facet normal 0.909632 -0.415415 0
    outer loop
      vertex -5.88877 3.78448 0
      vertex -6.71645 1.97213 30
      vertex -6.71645 1.97213 0
    endloop
  endfacet
  facet normal -0.75575 0.65486 0
    outer loop
      vertex 4.58402 -5.29025 0
      vertex 4.91188 -4.91188 30
      vertex 4.91188 -4.91188 0
    endloop
  endfacet
  facet normal -0.75575 0.65486 0
    outer loop
      vertex 4.91188 -4.91188 30
      vertex 4.58402 -5.29025 0
      vertex 4.58402 -5.29025 30
    endloop
  endfacet
  facet normal 0.540641 0.841254 -0
    outer loop
      vertex -2.9079 -6.36742 0
      vertex -4.58402 -5.29025 30
      vertex -2.9079 -6.36742 30
    endloop
  endfacet
  facet normal 0.540641 0.841254 0
    outer loop
      vertex -4.58402 -5.29025 30
      vertex -2.9079 -6.36742 0
      vertex -4.58402 -5.29025 0
    endloop
  endfacet
  facet normal 0.909632 0.415415 0
    outer loop
      vertex -5.88877 -3.78448 30
      vertex -6.71645 -1.97213 0
      vertex -6.71645 -1.97213 30
    endloop
  endfacet
  facet normal 0.909632 0.415415 0
    outer loop
      vertex -6.71645 -1.97213 0
      vertex -5.88877 -3.78448 30
      vertex -5.88877 -3.78448 0
    endloop
  endfacet
  facet normal 0.989821 0.142315 0
    outer loop
      vertex -6.71645 -1.97213 30
      vertex -7 0 0
      vertex -7 0 30
    endloop
  endfacet
  facet normal 0.989821 0.142315 0
    outer loop
      vertex -7 0 0
      vertex -6.71645 -1.97213 30
      vertex -6.71645 -1.97213 0
    endloop
  endfacet
  facet normal 0.75575 0.654861 0
    outer loop
      vertex -4.58402 -5.29025 30
      vertex -5.88877 -3.78448 0
      vertex -5.88877 -3.78448 30
    endloop
  endfacet
  facet normal 0.75575 0.654861 0
    outer loop
      vertex -5.88877 -3.78448 0
      vertex -4.58402 -5.29025 30
      vertex -4.58402 -5.29025 0
    endloop
  endfacet
  facet normal 0.281733 0.959493 -0
    outer loop
      vertex -0.996203 -6.92875 0
      vertex -2.9079 -6.36742 30
      vertex -0.996203 -6.92875 30
    endloop
  endfacet
  facet normal 0.281733 0.959493 0
    outer loop
      vertex -2.9079 -6.36742 30
      vertex -0.996203 -6.92875 0
      vertex -2.9079 -6.36742 0
    endloop
  endfacet
  facet normal -0.540641 0.841254 0
    outer loop
      vertex 4.58402 -5.29025 0
      vertex 2.9079 -6.36742 30
      vertex 4.58402 -5.29025 30
    endloop
  endfacet
  facet normal -0.540641 0.841254 0
    outer loop
      vertex 2.9079 -6.36742 30
      vertex 4.58402 -5.29025 0
      vertex 2.9079 -6.36742 0
    endloop
  endfacet
  facet normal -0.281733 0.959493 0
    outer loop
      vertex 2.9079 -6.36742 0
      vertex 0.996203 -6.92875 30
      vertex 2.9079 -6.36742 30
    endloop
  endfacet
  facet normal -0.281733 0.959493 0
    outer loop
      vertex 0.996203 -6.92875 30
      vertex 2.9079 -6.36742 0
      vertex 0.996203 -6.92875 0
    endloop
  endfacet
  facet normal 0.707107 0.707107 0
    outer loop
      vertex 7.04198 -7.04198 30
      vertex 4.91188 -4.91188 0
      vertex 4.91188 -4.91188 30
    endloop
  endfacet
  facet normal 0.707107 0.707107 0
    outer loop
      vertex 4.91188 -4.91188 0
      vertex 7.04198 -7.04198 30
      vertex 7.04198 -7.04198 0
    endloop
  endfacet
  facet normal -0.707107 0.707107 0
    outer loop
      vertex 4.83447 4.83447 0
      vertex 4.91188 4.91188 30
      vertex 4.91188 4.91188 0
    endloop
  endfacet
  facet normal -0.707107 0.707107 0
    outer loop
      vertex 4.91188 4.91188 30
      vertex 4.83447 4.83447 0
      vertex 4.83447 4.83447 30
    endloop
  endfacet
  facet normal -0.707107 0.707107 0
    outer loop
      vertex 7.04198 7.04198 0
      vertex 7.08778 7.08778 30
      vertex 7.08778 7.08778 0
    endloop
  endfacet
  facet normal -0.707107 0.707107 0
    outer loop
      vertex 7.08778 7.08778 30
      vertex 7.04198 7.04198 0
      vertex 7.04198 7.04198 30
    endloop
  endfacet
  facet normal -0.195091 -0.980785 0
    outer loop
      vertex 6.45658 3.7506 0
      vertex 8.37 3.37 30
      vertex 6.45658 3.7506 30
    endloop
  endfacet
  facet normal -0.195091 -0.980785 -0
    outer loop
      vertex 8.37 3.37 30
      vertex 6.45658 3.7506 0
      vertex 8.37 3.37 0
    endloop
  endfacet
  facet normal -0 0 -1
    outer loop
      vertex 11.2321 4.38448 0
      vertex 10.2834 3.7506 0
      vertex 11.152 4.45655 0
    endloop
  endfacet
  facet normal 0 0 -1
    outer loop
      vertex 11.152 4.45655 0
      vertex 74.3114 52.3436 0
      vertex 76.0322 49.8861 0
    endloop
  endfacet
  facet normal 0 0 -1
    outer loop
      vertex 11.152 4.45655 0
      vertex 8.86395 6.51675 0
      vertex 74.3114 52.3436 0
    endloop
  endfacet
  facet normal 0 0 -1
    outer loop
      vertex 10.2834 3.7506 0
      vertex 8.86395 6.51675 0
      vertex 11.152 4.45655 0
    endloop
  endfacet
  facet normal 0 0 -1
    outer loop
      vertex 8.37 3.37 0
      vertex 8.86395 6.51675 0
      vertex 10.2834 3.7506 0
    endloop
  endfacet
  facet normal 0 0 -1
    outer loop
      vertex 7.92496 6.42014 0
      vertex 8.86395 6.51675 0
      vertex 8.37 3.37 0
    endloop
  endfacet
  facet normal -0 0 -1
    outer loop
      vertex 8.86395 6.51675 0
      vertex 7.92496 6.42014 0
      vertex 8.75965 6.61066 0
    endloop
  endfacet
  facet normal 0 0 -1
    outer loop
      vertex 6.45658 3.7506 0
      vertex 7.92496 6.42014 0
      vertex 8.37 3.37 0
    endloop
  endfacet
  facet normal 0 0 -1
    outer loop
      vertex 7.92496 6.42014 0
      vertex 7.04198 7.04198 0
      vertex 7.08778 7.08778 0
    endloop
  endfacet
  facet normal -0 0 -1
    outer loop
      vertex 7.92496 6.42014 0
      vertex 6.45658 3.7506 0
      vertex 7.04198 7.04198 0
    endloop
  endfacet
  facet normal 0 0 -1
    outer loop
      vertex 6.45658 3.7506 0
      vertex 4.91188 4.91188 0
      vertex 7.04198 7.04198 0
    endloop
  endfacet
  facet normal 0 -0 -1
    outer loop
      vertex 4.91188 4.91188 0
      vertex 6.45658 3.7506 0
      vertex 4.83447 4.83447 0
    endloop
  endfacet
  facet normal 0 0 1
    outer loop
      vertex 74.3114 52.3436 30
      vertex 11.152 4.45655 30
      vertex 76.0322 49.8861 30
    endloop
  endfacet
  facet normal -0 0 1
    outer loop
      vertex 8.86395 6.51675 30
      vertex 11.152 4.45655 30
      vertex 74.3114 52.3436 30
    endloop
  endfacet
  facet normal 0 0 1
    outer loop
      vertex 8.86395 6.51675 30
      vertex 10.2834 3.7506 30
      vertex 11.152 4.45655 30
    endloop
  endfacet
  facet normal 0 0 1
    outer loop
      vertex 7.92496 6.42014 30
      vertex 8.86395 6.51675 30
      vertex 8.75965 6.61066 30
    endloop
  endfacet
  facet normal 0 0 1
    outer loop
      vertex 8.86395 6.51675 30
      vertex 8.37 3.37 30
      vertex 10.2834 3.7506 30
    endloop
  endfacet
  facet normal 0 0 1
    outer loop
      vertex 8.86395 6.51675 30
      vertex 7.92496 6.42014 30
      vertex 8.37 3.37 30
    endloop
  endfacet
  facet normal -0 0 1
    outer loop
      vertex 7.04198 7.04198 30
      vertex 7.92496 6.42014 30
      vertex 7.08778 7.08778 30
    endloop
  endfacet
  facet normal 0 0 1
    outer loop
      vertex 6.45658 3.7506 30
      vertex 7.92496 6.42014 30
      vertex 7.04198 7.04198 30
    endloop
  endfacet
  facet normal 0 0 1
    outer loop
      vertex 7.92496 6.42014 30
      vertex 6.45658 3.7506 30
      vertex 8.37 3.37 30
    endloop
  endfacet
  facet normal -0 0 1
    outer loop
      vertex 4.91188 4.91188 30
      vertex 6.45658 3.7506 30
      vertex 7.04198 7.04198 30
    endloop
  endfacet
  facet normal 0 0 1
    outer loop
      vertex 6.45658 3.7506 30
      vertex 4.91188 4.91188 30
      vertex 4.83447 4.83447 30
    endloop
  endfacet
  facet normal 0 0 1
    outer loop
      vertex 11.2321 4.38448 30
      vertex 11.152 4.45655 30
      vertex 10.2834 3.7506 30
    endloop
  endfacet
  facet normal -0.55557 -0.83147 0
    outer loop
      vertex 4.83447 4.83447 0
      vertex 6.45658 3.7506 30
      vertex 4.83447 4.83447 30
    endloop
  endfacet
  facet normal -0.55557 -0.83147 -0
    outer loop
      vertex 6.45658 3.7506 30
      vertex 4.83447 4.83447 0
      vertex 6.45658 3.7506 0
    endloop
  endfacet
  facet normal 0.55557 -0.83147 0
    outer loop
      vertex 10.2834 3.7506 0
      vertex 11.2321 4.38448 30
      vertex 10.2834 3.7506 30
    endloop
  endfacet
  facet normal 0.55557 -0.83147 0
    outer loop
      vertex 11.2321 4.38448 30
      vertex 10.2834 3.7506 0
      vertex 11.2321 4.38448 0
    endloop
  endfacet
  facet normal 0.195091 -0.980785 0
    outer loop
      vertex 8.37 3.37 0
      vertex 10.2834 3.7506 30
      vertex 8.37 3.37 30
    endloop
  endfacet
  facet normal 0.195091 -0.980785 0
    outer loop
      vertex 10.2834 3.7506 30
      vertex 8.37 3.37 0
      vertex 10.2834 3.7506 0
    endloop
  endfacet
  facet normal 0.62349 0.781831 -0
    outer loop
      vertex 7.92496 6.42014 0
      vertex 7.08778 7.08778 30
      vertex 7.92496 6.42014 30
    endloop
  endfacet
  facet normal 0.62349 0.781831 0
    outer loop
      vertex 7.08778 7.08778 30
      vertex 7.92496 6.42014 0
      vertex 7.08778 7.08778 0
    endloop
  endfacet
  facet normal -0.222521 0.974928 0
    outer loop
      vertex 8.75965 6.61066 0
      vertex 7.92496 6.42014 30
      vertex 8.75965 6.61066 30
    endloop
  endfacet
  facet normal -0.222521 0.974928 0
    outer loop
      vertex 7.92496 6.42014 30
      vertex 8.75965 6.61066 0
      vertex 7.92496 6.42014 0
    endloop
  endfacet
  facet normal 0.66913 0.743146 -0
    outer loop
      vertex 8.86395 6.51675 0
      vertex 8.75965 6.61066 30
      vertex 8.86395 6.51675 30
    endloop
  endfacet
  facet normal 0.66913 0.743146 0
    outer loop
      vertex 8.75965 6.61066 30
      vertex 8.86395 6.51675 0
      vertex 8.75965 6.61066 0
    endloop
  endfacet
  facet normal 0.669132 0.743143 -0
    outer loop
      vertex 11.2321 4.38448 0
      vertex 11.152 4.45655 30
      vertex 11.2321 4.38448 30
    endloop
  endfacet
  facet normal 0.669132 0.743143 0
    outer loop
      vertex 11.152 4.45655 30
      vertex 11.2321 4.38448 0
      vertex 11.152 4.45655 0
    endloop
  endfacet
  facet normal 0 0 -1
    outer loop
      vertex 74.5322 -52.4861 0
      vertex 11.1595 -4.4498 0
      vertex 76.2529 -50.0287 0
    endloop
  endfacet
  facet normal -0 0 -1
    outer loop
      vertex 11.1595 -4.4498 0
      vertex 9.38987 -6.0432 0
      vertex 10.2834 -3.7506 0
    endloop
  endfacet
  facet normal 0 0 -1
    outer loop
      vertex 9 -6.6 0
      vertex 11.1595 -4.4498 0
      vertex 74.5322 -52.4861 0
    endloop
  endfacet
  facet normal 0 0 -1
    outer loop
      vertex 11.1595 -4.4498 0
      vertex 9 -6.6 0
      vertex 9.38987 -6.0432 0
    endloop
  endfacet
  facet normal -0 0 -1
    outer loop
      vertex 11.2321 -4.38448 0
      vertex 11.1595 -4.4498 0
      vertex 10.2834 -3.7506 0
    endloop
  endfacet
  facet normal 0 0 -1
    outer loop
      vertex 8.81504 -6.42014 0
      vertex 9.38987 -6.0432 0
      vertex 8.89787 -6.4862 0
    endloop
  endfacet
  facet normal 0 0 -1
    outer loop
      vertex 8.37 -3.37 0
      vertex 9.38987 -6.0432 0
      vertex 8.81504 -6.42014 0
    endloop
  endfacet
  facet normal 0 0 -1
    outer loop
      vertex 9.38987 -6.0432 0
      vertex 8.37 -3.37 0
      vertex 10.2834 -3.7506 0
    endloop
  endfacet
  facet normal 0 0 -1
    outer loop
      vertex 6.45658 -3.7506 0
      vertex 8.81504 -6.42014 0
      vertex 7.12302 -6.80634 0
    endloop
  endfacet
  facet normal 0 0 -1
    outer loop
      vertex 4.83447 -4.83447 0
      vertex 7.12302 -6.80634 0
      vertex 7.02009 -7.02009 0
    endloop
  endfacet
  facet normal 0 0 -1
    outer loop
      vertex 8.81504 -6.42014 0
      vertex 6.45658 -3.7506 0
      vertex 8.37 -3.37 0
    endloop
  endfacet
  facet normal 0 0 -1
    outer loop
      vertex 7.12302 -6.80634 0
      vertex 4.83447 -4.83447 0
      vertex 6.45658 -3.7506 0
    endloop
  endfacet
  facet normal 0 0 1
    outer loop
      vertex 11.2321 -4.38448 30
      vertex 10.2834 -3.7506 30
      vertex 11.1595 -4.4498 30
    endloop
  endfacet
  facet normal 0 0 1
    outer loop
      vertex 11.1595 -4.4498 30
      vertex 74.5322 -52.4861 30
      vertex 76.2529 -50.0287 30
    endloop
  endfacet
  facet normal 0 0 1
    outer loop
      vertex 9.38987 -6.0432 30
      vertex 11.1595 -4.4498 30
      vertex 10.2834 -3.7506 30
    endloop
  endfacet
  facet normal 0 0 1
    outer loop
      vertex 9 -6.6 30
      vertex 11.1595 -4.4498 30
      vertex 9.38987 -6.0432 30
    endloop
  endfacet
  facet normal 0 0 1
    outer loop
      vertex 11.1595 -4.4498 30
      vertex 9 -6.6 30
      vertex 74.5322 -52.4861 30
    endloop
  endfacet
  facet normal 0 0 1
    outer loop
      vertex 8.37 -3.37 30
      vertex 9.38987 -6.0432 30
      vertex 10.2834 -3.7506 30
    endloop
  endfacet
  facet normal 0 0 1
    outer loop
      vertex 9.38987 -6.0432 30
      vertex 8.81504 -6.42014 30
      vertex 8.89787 -6.4862 30
    endloop
  endfacet
  facet normal 0 0 1
    outer loop
      vertex 9.38987 -6.0432 30
      vertex 8.37 -3.37 30
      vertex 8.81504 -6.42014 30
    endloop
  endfacet
  facet normal -0 0 1
    outer loop
      vertex 6.45658 -3.7506 30
      vertex 8.81504 -6.42014 30
      vertex 8.37 -3.37 30
    endloop
  endfacet
  facet normal 0 0 1
    outer loop
      vertex 8.81504 -6.42014 30
      vertex 6.45658 -3.7506 30
      vertex 7.12302 -6.80634 30
    endloop
  endfacet
  facet normal -0 0 1
    outer loop
      vertex 4.83447 -4.83447 30
      vertex 7.12302 -6.80634 30
      vertex 6.45658 -3.7506 30
    endloop
  endfacet
  facet normal 0 0 1
    outer loop
      vertex 7.12302 -6.80634 30
      vertex 4.83447 -4.83447 30
      vertex 7.02009 -7.02009 30
    endloop
  endfacet
  facet normal 0.55557 0.83147 -0
    outer loop
      vertex 11.2321 -4.38448 0
      vertex 10.2834 -3.7506 30
      vertex 11.2321 -4.38448 30
    endloop
  endfacet
  facet normal 0.55557 0.83147 0
    outer loop
      vertex 10.2834 -3.7506 30
      vertex 11.2321 -4.38448 0
      vertex 10.2834 -3.7506 0
    endloop
  endfacet
  facet normal -0.55557 0.83147 0
    outer loop
      vertex 6.45658 -3.7506 0
      vertex 4.83447 -4.83447 30
      vertex 6.45658 -3.7506 30
    endloop
  endfacet
  facet normal -0.55557 0.83147 0
    outer loop
      vertex 4.83447 -4.83447 30
      vertex 6.45658 -3.7506 0
      vertex 4.83447 -4.83447 0
    endloop
  endfacet
  facet normal -0.195091 0.980785 0
    outer loop
      vertex 8.37 -3.37 0
      vertex 6.45658 -3.7506 30
      vertex 8.37 -3.37 30
    endloop
  endfacet
  facet normal -0.195091 0.980785 0
    outer loop
      vertex 6.45658 -3.7506 30
      vertex 8.37 -3.37 0
      vertex 6.45658 -3.7506 0
    endloop
  endfacet
  facet normal 0.195091 0.980785 -0
    outer loop
      vertex 10.2834 -3.7506 0
      vertex 8.37 -3.37 30
      vertex 10.2834 -3.7506 30
    endloop
  endfacet
  facet normal 0.195091 0.980785 0
    outer loop
      vertex 8.37 -3.37 30
      vertex 10.2834 -3.7506 0
      vertex 8.37 -3.37 0
    endloop
  endfacet
  facet normal -0.623491 -0.781831 0
    outer loop
      vertex 8.81504 -6.42014 0
      vertex 8.89787 -6.4862 30
      vertex 8.81504 -6.42014 30
    endloop
  endfacet
  facet normal -0.623491 -0.781831 -0
    outer loop
      vertex 8.89787 -6.4862 30
      vertex 8.81504 -6.42014 0
      vertex 8.89787 -6.4862 0
    endloop
  endfacet
  facet normal 0.900969 -0.433884 0
    outer loop
      vertex 7.02009 -7.02009 30
      vertex 7.12302 -6.80634 0
      vertex 7.12302 -6.80634 30
    endloop
  endfacet
  facet normal 0.900969 -0.433884 0
    outer loop
      vertex 7.12302 -6.80634 0
      vertex 7.02009 -7.02009 30
      vertex 7.02009 -7.02009 0
    endloop
  endfacet
  facet normal 0.222521 -0.974928 0
    outer loop
      vertex 7.12302 -6.80634 0
      vertex 8.81504 -6.42014 30
      vertex 7.12302 -6.80634 30
    endloop
  endfacet
  facet normal 0.222521 -0.974928 0
    outer loop
      vertex 8.81504 -6.42014 30
      vertex 7.12302 -6.80634 0
      vertex 8.81504 -6.42014 0
    endloop
  endfacet
  facet normal -0.707107 -0.707107 0
    outer loop
      vertex 7.02009 -7.02009 0
      vertex 4.83447 -4.83447 30
      vertex 4.83447 -4.83447 0
    endloop
  endfacet
  facet normal -0.707107 -0.707107 0
    outer loop
      vertex 4.83447 -4.83447 30
      vertex 7.02009 -7.02009 0
      vertex 7.02009 -7.02009 30
    endloop
  endfacet
  facet normal 0.669134 -0.743142 0
    outer loop
      vertex 11.1595 -4.4498 0
      vertex 11.2321 -4.38448 30
      vertex 11.1595 -4.4498 30
    endloop
  endfacet
  facet normal 0.669134 -0.743142 0
    outer loop
      vertex 11.2321 -4.38448 30
      vertex 11.1595 -4.4498 0
      vertex 11.2321 -4.38448 0
    endloop
  endfacet
  facet normal 0.669131 -0.743145 0
    outer loop
      vertex 8.89787 -6.4862 0
      vertex 9.38987 -6.0432 30
      vertex 8.89787 -6.4862 30
    endloop
  endfacet
  facet normal 0.669131 -0.743145 0
    outer loop
      vertex 9.38987 -6.0432 30
      vertex 8.89787 -6.4862 0
      vertex 9.38987 -6.0432 0
    endloop
  endfacet
  facet normal -0.819152 0.573576 0
    outer loop
      vertex 9 -6.6 0
      vertex 9.38987 -6.0432 30
      vertex 9.38987 -6.0432 0
    endloop
  endfacet
  facet normal -0.819152 0.573576 0
    outer loop
      vertex 9.38987 -6.0432 30
      vertex 9 -6.6 0
      vertex 9 -6.6 30
    endloop
  endfacet
  facet normal 0.819152 -0.573576 0
    outer loop
      vertex 74.5322 -52.4861 30
      vertex 76.2529 -50.0287 0
      vertex 76.2529 -50.0287 30
    endloop
  endfacet
  facet normal 0.819152 -0.573576 0
    outer loop
      vertex 76.2529 -50.0287 0
      vertex 74.5322 -52.4861 30
      vertex 74.5322 -52.4861 0
    endloop
  endfacet
  facet normal 0.573576 0.819152 -0
    outer loop
      vertex 76.2529 -50.0287 0
      vertex 11.1595 -4.4498 30
      vertex 76.2529 -50.0287 30
    endloop
  endfacet
  facet normal 0.573576 0.819152 0
    outer loop
      vertex 11.1595 -4.4498 30
      vertex 76.2529 -50.0287 0
      vertex 11.1595 -4.4498 0
    endloop
  endfacet
  facet normal -0.573576 -0.819152 0
    outer loop
      vertex 9 -6.6 0
      vertex 74.5322 -52.4861 30
      vertex 9 -6.6 30
    endloop
  endfacet
  facet normal -0.573576 -0.819152 -0
    outer loop
      vertex 74.5322 -52.4861 30
      vertex 9 -6.6 0
      vertex 74.5322 -52.4861 0
    endloop
  endfacet
  facet normal 0.819151 0.573578 0
    outer loop
      vertex 76.0322 49.8861 30
      vertex 74.3114 52.3436 0
      vertex 74.3114 52.3436 30
    endloop
  endfacet
  facet normal 0.819151 0.573578 0
    outer loop
      vertex 74.3114 52.3436 0
      vertex 76.0322 49.8861 30
      vertex 76.0322 49.8861 0
    endloop
  endfacet
  facet normal 0.573576 -0.819152 0
    outer loop
      vertex 11.152 4.45655 0
      vertex 76.0322 49.8861 30
      vertex 11.152 4.45655 30
    endloop
  endfacet
  facet normal 0.573576 -0.819152 0
    outer loop
      vertex 76.0322 49.8861 30
      vertex 11.152 4.45655 0
      vertex 76.0322 49.8861 0
    endloop
  endfacet
  facet normal -0.573576 0.819152 0
    outer loop
      vertex 74.3114 52.3436 0
      vertex 8.86395 6.51675 30
      vertex 74.3114 52.3436 30
    endloop
  endfacet
  facet normal -0.573576 0.819152 0
    outer loop
      vertex 8.86395 6.51675 30
      vertex 74.3114 52.3436 0
      vertex 8.86395 6.51675 0
    endloop
  endfacet
endsolid OpenSCAD_Model
