solid OpenSCAD_Model
  facet normal 0 -0 -1
    outer loop
      vertex -11.5179 0.0291645 0
      vertex -10.7457 -7.93426 0
      vertex -12 -7.93426 0
    endloop
  endfacet
  facet normal 0 0 -1
    outer loop
      vertex -12 0.0877077 0
      vertex -11.5179 0.0291645 0
      vertex -12 -7.93426 0
    endloop
  endfacet
  facet normal 0 0 -1
    outer loop
      vertex -11.5179 0.0291645 0
      vertex -8.2918 -7.41268 0
      vertex -10.7457 -7.93426 0
    endloop
  endfacet
  facet normal 0 0 -1
    outer loop
      vertex -8.2918 -7.41268 0
      vertex -11.5179 0.0291645 0
      vertex -9.72774 0.708065 0
    endloop
  endfacet
  facet normal 0 0 -1
    outer loop
      vertex -2.2918 -3.05342 0
      vertex -9.72774 0.708065 0
      vertex -8.45818 2.14111 0
    endloop
  endfacet
  facet normal 0 0 -1
    outer loop
      vertex -2.2918 11.0534 0
      vertex -8.45818 5.85889 0
      vertex -9.72774 7.29194 0
    endloop
  endfacet
  facet normal 0 0 -1
    outer loop
      vertex -12 7.91229 0
      vertex -12 15.9343 0
      vertex -11.5179 7.97084 0
    endloop
  endfacet
  facet normal 0 0 -1
    outer loop
      vertex -8.2918 15.4127 0
      vertex -9.72774 7.29194 0
      vertex -11.5179 7.97084 0
    endloop
  endfacet
  facet normal 0 0 -1
    outer loop
      vertex -12 15.9343 0
      vertex -10.7457 15.9343 0
      vertex -11.5179 7.97084 0
    endloop
  endfacet
  facet normal 0 0 -1
    outer loop
      vertex -0.262229 6.49494 0
      vertex -8 4 0
      vertex -8.45818 5.85889 0
    endloop
  endfacet
  facet normal 0 -0 -1
    outer loop
      vertex -10.7457 15.9343 0
      vertex -8.2918 15.4127 0
      vertex -11.5179 7.97084 0
    endloop
  endfacet
  facet normal 0 -0 -1
    outer loop
      vertex -8.2918 15.4127 0
      vertex -6 14.3923 0
      vertex -9.72774 7.29194 0
    endloop
  endfacet
  facet normal 0 -0 -1
    outer loop
      vertex -6 14.3923 0
      vertex -3.97043 12.9177 0
      vertex -9.72774 7.29194 0
    endloop
  endfacet
  facet normal 0 0 -1
    outer loop
      vertex -0.262229 1.50506 0
      vertex -8.45818 2.14111 0
      vertex -8 4 0
    endloop
  endfacet
  facet normal 0 -0 -1
    outer loop
      vertex -3.97043 12.9177 0
      vertex -2.2918 11.0534 0
      vertex -9.72774 7.29194 0
    endloop
  endfacet
  facet normal 0 -0 -1
    outer loop
      vertex -2.2918 11.0534 0
      vertex -1.03745 8.88084 0
      vertex -8.45818 5.85889 0
    endloop
  endfacet
  facet normal 0 -0 -1
    outer loop
      vertex -1.03745 8.88084 0
      vertex -0.262229 6.49494 0
      vertex -8.45818 5.85889 0
    endloop
  endfacet
  facet normal 0 -0 -1
    outer loop
      vertex -0.262229 6.49494 0
      vertex 0 4 0
      vertex -8 4 0
    endloop
  endfacet
  facet normal -0 0 -1
    outer loop
      vertex 0 4 0
      vertex -0.262229 1.50506 0
      vertex -8 4 0
    endloop
  endfacet
  facet normal -0 0 -1
    outer loop
      vertex -0.262229 1.50506 0
      vertex -1.03745 -0.88084 0
      vertex -8.45818 2.14111 0
    endloop
  endfacet
  facet normal -0 0 -1
    outer loop
      vertex -1.03745 -0.88084 0
      vertex -2.2918 -3.05342 0
      vertex -8.45818 2.14111 0
    endloop
  endfacet
  facet normal -0 0 -1
    outer loop
      vertex -2.2918 -3.05342 0
      vertex -3.97043 -4.91774 0
      vertex -9.72774 0.708065 0
    endloop
  endfacet
  facet normal -0 0 -1
    outer loop
      vertex -3.97043 -4.91774 0
      vertex -6 -6.3923 0
      vertex -9.72774 0.708065 0
    endloop
  endfacet
  facet normal -0 0 -1
    outer loop
      vertex -6 -6.3923 0
      vertex -8.2918 -7.41268 0
      vertex -9.72774 0.708065 0
    endloop
  endfacet
  facet normal 0.587785 0.809017 0
    outer loop
      vertex -6 14.3923 8
      vertex -3.97043 12.9177 0
      vertex -6 14.3923 0
    endloop
  endfacet
  facet normal 0.587785 0.809017 0
    outer loop
      vertex -6 14.3923 8
      vertex -3.97043 12.9177 8
      vertex -3.97043 12.9177 0
    endloop
  endfacet
  facet normal 0.951057 0.309017 0
    outer loop
      vertex -0.262229 6.49494 8
      vertex -0.262229 6.49494 0
      vertex -1.03745 8.88084 0
    endloop
  endfacet
  facet normal 0.951057 0.309017 0
    outer loop
      vertex -1.03745 8.88084 8
      vertex -0.262229 6.49494 8
      vertex -1.03745 8.88084 0
    endloop
  endfacet
  facet normal 0.951057 -0.309017 0
    outer loop
      vertex -0.262229 1.50506 0
      vertex -1.03745 -0.88084 8
      vertex -1.03745 -0.88084 0
    endloop
  endfacet
  facet normal 0.951057 -0.309017 0
    outer loop
      vertex -0.262229 1.50506 0
      vertex -0.262229 1.50506 8
      vertex -1.03745 -0.88084 8
    endloop
  endfacet
  facet normal 0.587785 -0.809017 0
    outer loop
      vertex -3.97043 -4.91774 0
      vertex -6 -6.3923 8
      vertex -6 -6.3923 0
    endloop
  endfacet
  facet normal 0.587785 -0.809017 0
    outer loop
      vertex -3.97043 -4.91774 0
      vertex -3.97043 -4.91774 8
      vertex -6 -6.3923 8
    endloop
  endfacet
  facet normal 0.207912 -0.978148 0
    outer loop
      vertex -8.2918 -7.41268 0
      vertex -10.7457 -7.93426 8
      vertex -10.7457 -7.93426 0
    endloop
  endfacet
  facet normal 0.207912 -0.978148 0
    outer loop
      vertex -8.2918 -7.41268 0
      vertex -8.2918 -7.41268 8
      vertex -10.7457 -7.93426 8
    endloop
  endfacet
  facet normal 0.994522 0.104528 0
    outer loop
      vertex 0 4 8
      vertex 0 4 0
      vertex -0.262229 6.49494 0
    endloop
  endfacet
  facet normal 0.994522 0.104528 0
    outer loop
      vertex -0.262229 6.49494 8
      vertex 0 4 8
      vertex -0.262229 6.49494 0
    endloop
  endfacet
  facet normal -7.08083e-16 -1 0
    outer loop
      vertex -10.7457 -7.93426 0
      vertex -12 -7.93426 8
      vertex -12 -7.93426 0
    endloop
  endfacet
  facet normal -7.08083e-16 -1 0
    outer loop
      vertex -10.7457 -7.93426 0
      vertex -10.7457 -7.93426 8
      vertex -12 -7.93426 8
    endloop
  endfacet
  facet normal 0.866025 -0.5 0
    outer loop
      vertex -1.03745 -0.88084 0
      vertex -2.2918 -3.05342 8
      vertex -2.2918 -3.05342 0
    endloop
  endfacet
  facet normal 0.866025 -0.5 0
    outer loop
      vertex -1.03745 -0.88084 0
      vertex -1.03745 -0.88084 8
      vertex -2.2918 -3.05342 8
    endloop
  endfacet
  facet normal 0.994522 -0.104528 0
    outer loop
      vertex 0 4 0
      vertex -0.262229 1.50506 8
      vertex -0.262229 1.50506 0
    endloop
  endfacet
  facet normal 0.994522 -0.104528 0
    outer loop
      vertex 0 4 0
      vertex 0 4 8
      vertex -0.262229 1.50506 8
    endloop
  endfacet
  facet normal 0.406737 -0.913545 0
    outer loop
      vertex -6 -6.3923 0
      vertex -8.2918 -7.41268 8
      vertex -8.2918 -7.41268 0
    endloop
  endfacet
  facet normal 0.406737 -0.913545 0
    outer loop
      vertex -6 -6.3923 0
      vertex -6 -6.3923 8
      vertex -8.2918 -7.41268 8
    endloop
  endfacet
  facet normal 0.743145 0.669131 0
    outer loop
      vertex -2.2918 11.0534 8
      vertex -2.2918 11.0534 0
      vertex -3.97043 12.9177 0
    endloop
  endfacet
  facet normal 0.743145 0.669131 0
    outer loop
      vertex -3.97043 12.9177 8
      vertex -2.2918 11.0534 8
      vertex -3.97043 12.9177 0
    endloop
  endfacet
  facet normal 0.866025 0.5 0
    outer loop
      vertex -1.03745 8.88084 8
      vertex -1.03745 8.88084 0
      vertex -2.2918 11.0534 0
    endloop
  endfacet
  facet normal 0.866025 0.5 0
    outer loop
      vertex -2.2918 11.0534 8
      vertex -1.03745 8.88084 8
      vertex -2.2918 11.0534 0
    endloop
  endfacet
  facet normal 0.406737 0.913545 0
    outer loop
      vertex -8.2918 15.4127 8
      vertex -6 14.3923 0
      vertex -8.2918 15.4127 0
    endloop
  endfacet
  facet normal 0.406737 0.913545 0
    outer loop
      vertex -8.2918 15.4127 8
      vertex -6 14.3923 8
      vertex -6 14.3923 0
    endloop
  endfacet
  facet normal 0 1 0
    outer loop
      vertex -12 15.9343 8
      vertex -10.7457 15.9343 0
      vertex -12 15.9343 0
    endloop
  endfacet
  facet normal -0 1 0
    outer loop
      vertex -12 15.9343 8
      vertex -10.7457 15.9343 8
      vertex -10.7457 15.9343 0
    endloop
  endfacet
  facet normal 0 0 1
    outer loop
      vertex -11.5179 0.0291645 8
      vertex -12 0.0877077 8
      vertex -12 -7.93426 8
    endloop
  endfacet
  facet normal 0 0 1
    outer loop
      vertex -10.7457 -7.93426 8
      vertex -11.5179 0.0291645 8
      vertex -12 -7.93426 8
    endloop
  endfacet
  facet normal 0 0 1
    outer loop
      vertex -8.2918 -7.41268 8
      vertex -9.72774 0.708065 8
      vertex -11.5179 0.0291645 8
    endloop
  endfacet
  facet normal 0 0 1
    outer loop
      vertex -2.2918 -3.05342 8
      vertex -8.45818 2.14111 8
      vertex -9.72774 0.708065 8
    endloop
  endfacet
  facet normal 0 0 1
    outer loop
      vertex -0.262229 1.50506 8
      vertex -8 4 8
      vertex -8.45818 2.14111 8
    endloop
  endfacet
  facet normal 0 0 1
    outer loop
      vertex -0.262229 6.49494 8
      vertex -8.45818 5.85889 8
      vertex -8 4 8
    endloop
  endfacet
  facet normal 0 0 1
    outer loop
      vertex -1.03745 -0.88084 8
      vertex -8.45818 2.14111 8
      vertex -2.2918 -3.05342 8
    endloop
  endfacet
  facet normal 0 0 1
    outer loop
      vertex -2.2918 11.0534 8
      vertex -9.72774 7.29194 8
      vertex -8.45818 5.85889 8
    endloop
  endfacet
  facet normal 0 0 1
    outer loop
      vertex -8 4 8
      vertex 0 4 8
      vertex -0.262229 6.49494 8
    endloop
  endfacet
  facet normal 0 0 1
    outer loop
      vertex -12 15.9343 8
      vertex -12 7.91229 8
      vertex -11.5179 7.97084 8
    endloop
  endfacet
  facet normal 0 0 1
    outer loop
      vertex -3.97043 12.9177 8
      vertex -9.72774 7.29194 8
      vertex -2.2918 11.0534 8
    endloop
  endfacet
  facet normal 0 0 1
    outer loop
      vertex -6 14.3923 8
      vertex -9.72774 7.29194 8
      vertex -3.97043 12.9177 8
    endloop
  endfacet
  facet normal 0 0 1
    outer loop
      vertex -8.2918 15.4127 8
      vertex -9.72774 7.29194 8
      vertex -6 14.3923 8
    endloop
  endfacet
  facet normal 0 0 1
    outer loop
      vertex -10.7457 15.9343 8
      vertex -12 15.9343 8
      vertex -11.5179 7.97084 8
    endloop
  endfacet
  facet normal 0 0 1
    outer loop
      vertex -10.7457 15.9343 8
      vertex -11.5179 7.97084 8
      vertex -8.2918 15.4127 8
    endloop
  endfacet
  facet normal 0 0 1
    outer loop
      vertex -2.2918 11.0534 8
      vertex -8.45818 5.85889 8
      vertex -1.03745 8.88084 8
    endloop
  endfacet
  facet normal 0 0 1
    outer loop
      vertex -8.45818 5.85889 8
      vertex -0.262229 6.49494 8
      vertex -1.03745 8.88084 8
    endloop
  endfacet
  facet normal -0 0 1
    outer loop
      vertex -11.5179 7.97084 8
      vertex -9.72774 7.29194 8
      vertex -8.2918 15.4127 8
    endloop
  endfacet
  facet normal -0 0 1
    outer loop
      vertex -8 4 8
      vertex -0.262229 1.50506 8
      vertex 0 4 8
    endloop
  endfacet
  facet normal 0 0 1
    outer loop
      vertex -0.262229 1.50506 8
      vertex -8.45818 2.14111 8
      vertex -1.03745 -0.88084 8
    endloop
  endfacet
  facet normal 0 0 1
    outer loop
      vertex -2.2918 -3.05342 8
      vertex -9.72774 0.708065 8
      vertex -3.97043 -4.91774 8
    endloop
  endfacet
  facet normal 0 0 1
    outer loop
      vertex -3.97043 -4.91774 8
      vertex -9.72774 0.708065 8
      vertex -6 -6.3923 8
    endloop
  endfacet
  facet normal 0 0 1
    outer loop
      vertex -6 -6.3923 8
      vertex -9.72774 0.708065 8
      vertex -8.2918 -7.41268 8
    endloop
  endfacet
  facet normal 0 0 1
    outer loop
      vertex -8.2918 -7.41268 8
      vertex -11.5179 0.0291645 8
      vertex -10.7457 -7.93426 8
    endloop
  endfacet
  facet normal 0.743145 -0.669131 0
    outer loop
      vertex -2.2918 -3.05342 0
      vertex -3.97043 -4.91774 8
      vertex -3.97043 -4.91774 0
    endloop
  endfacet
  facet normal 0.743145 -0.669131 0
    outer loop
      vertex -2.2918 -3.05342 0
      vertex -2.2918 -3.05342 8
      vertex -3.97043 -4.91774 8
    endloop
  endfacet
  facet normal 0.207912 0.978148 0
    outer loop
      vertex -10.7457 15.9343 8
      vertex -8.2918 15.4127 0
      vertex -10.7457 15.9343 0
    endloop
  endfacet
  facet normal 0.207912 0.978148 0
    outer loop
      vertex -10.7457 15.9343 8
      vertex -8.2918 15.4127 8
      vertex -8.2918 15.4127 0
    endloop
  endfacet
  facet normal -0.970942 0.239316 0
    outer loop
      vertex -8 4 0
      vertex -8.45818 2.14111 8
      vertex -8 4 8
    endloop
  endfacet
  facet normal -0.970942 0.239316 0
    outer loop
      vertex -8 4 0
      vertex -8.45818 2.14111 0
      vertex -8.45818 2.14111 8
    endloop
  endfacet
  facet normal -0.354605 -0.935016 0
    outer loop
      vertex -11.5179 7.97084 8
      vertex -9.72774 7.29194 0
      vertex -9.72774 7.29194 8
    endloop
  endfacet
  facet normal -0.354605 -0.935016 -0
    outer loop
      vertex -11.5179 7.97084 8
      vertex -11.5179 7.97084 0
      vertex -9.72774 7.29194 0
    endloop
  endfacet
  facet normal 0.120537 0.992709 -0
    outer loop
      vertex -11.5179 0.0291645 0
      vertex -12 0.0877077 8
      vertex -11.5179 0.0291645 8
    endloop
  endfacet
  facet normal 0.120537 0.992709 0
    outer loop
      vertex -11.5179 0.0291645 0
      vertex -12 0.0877077 0
      vertex -12 0.0877077 8
    endloop
  endfacet
  facet normal -0.354605 0.935016 0
    outer loop
      vertex -9.72774 0.708065 0
      vertex -11.5179 0.0291645 8
      vertex -9.72774 0.708065 8
    endloop
  endfacet
  facet normal -0.354605 0.935016 0
    outer loop
      vertex -9.72774 0.708065 0
      vertex -11.5179 0.0291645 0
      vertex -11.5179 0.0291645 8
    endloop
  endfacet
  facet normal 0.120537 -0.992709 0
    outer loop
      vertex -12 7.91229 8
      vertex -11.5179 7.97084 0
      vertex -11.5179 7.97084 8
    endloop
  endfacet
  facet normal 0.120537 -0.992709 0
    outer loop
      vertex -12 7.91229 8
      vertex -12 7.91229 0
      vertex -11.5179 7.97084 0
    endloop
  endfacet
  facet normal -0.748511 0.663123 0
    outer loop
      vertex -8.45818 2.14111 0
      vertex -9.72774 0.708065 8
      vertex -8.45818 2.14111 8
    endloop
  endfacet
  facet normal -0.748511 0.663123 0
    outer loop
      vertex -8.45818 2.14111 0
      vertex -9.72774 0.708065 0
      vertex -9.72774 0.708065 8
    endloop
  endfacet
  facet normal -0.748511 -0.663123 0
    outer loop
      vertex -9.72774 7.29194 0
      vertex -8.45818 5.85889 0
      vertex -8.45818 5.85889 8
    endloop
  endfacet
  facet normal -0.748511 -0.663123 -0
    outer loop
      vertex -9.72774 7.29194 8
      vertex -9.72774 7.29194 0
      vertex -8.45818 5.85889 8
    endloop
  endfacet
  facet normal -0.970942 -0.239316 0
    outer loop
      vertex -8.45818 5.85889 0
      vertex -8 4 0
      vertex -8 4 8
    endloop
  endfacet
  facet normal -0.970942 -0.239316 -0
    outer loop
      vertex -8.45818 5.85889 8
      vertex -8.45818 5.85889 0
      vertex -8 4 8
    endloop
  endfacet
  facet normal -1 0 0
    outer loop
      vertex -12 0.0877077 0
      vertex -12 -7.93426 8
      vertex -12 0.0877077 8
    endloop
  endfacet
  facet normal -1 0 0
    outer loop
      vertex -12 0.0877077 0
      vertex -12 -7.93426 0
      vertex -12 -7.93426 8
    endloop
  endfacet
  facet normal -1 0 0
    outer loop
      vertex -12 15.9343 0
      vertex -12 7.91229 8
      vertex -12 15.9343 8
    endloop
  endfacet
  facet normal -1 0 0
    outer loop
      vertex -12 15.9343 0
      vertex -12 7.91229 0
      vertex -12 7.91229 8
    endloop
  endfacet
  facet normal -0.994522 -0.104528 0
    outer loop
      vertex 190.262 1.50506 8
      vertex 190 4 8
      vertex 190 4 0
    endloop
  endfacet
  facet normal -0.994522 -0.104528 0
    outer loop
      vertex 190.262 1.50506 0
      vertex 190.262 1.50506 8
      vertex 190 4 0
    endloop
  endfacet
  facet normal 0 0 -1
    outer loop
      vertex 198.116 4.95726 0
      vertex 191.037 8.88084 0
      vertex 199.006 6.65249 0
    endloop
  endfacet
  facet normal 0 -0 -1
    outer loop
      vertex 200.746 15.9343 0
      vertex 202 7.91229 0
      vertex 200.582 7.74006 0
    endloop
  endfacet
  facet normal 0 -0 -1
    outer loop
      vertex 191.037 8.88084 0
      vertex 198.116 4.95726 0
      vertex 190.262 6.49494 0
    endloop
  endfacet
  facet normal 0 -0 -1
    outer loop
      vertex 192.292 11.0534 0
      vertex 199.006 6.65249 0
      vertex 191.037 8.88084 0
    endloop
  endfacet
  facet normal 0 -0 -1
    outer loop
      vertex 193.97 12.9177 0
      vertex 199.006 6.65249 0
      vertex 192.292 11.0534 0
    endloop
  endfacet
  facet normal 0 -0 -1
    outer loop
      vertex 196 14.3923 0
      vertex 199.006 6.65249 0
      vertex 193.97 12.9177 0
    endloop
  endfacet
  facet normal 0 -0 -1
    outer loop
      vertex 198.292 15.4127 0
      vertex 200.582 7.74006 0
      vertex 196 14.3923 0
    endloop
  endfacet
  facet normal 0 0 -1
    outer loop
      vertex 200.746 15.9343 0
      vertex 200.582 7.74006 0
      vertex 198.292 15.4127 0
    endloop
  endfacet
  facet normal -0 -0 -1
    outer loop
      vertex 202 15.9343 0
      vertex 202 7.91229 0
      vertex 200.746 15.9343 0
    endloop
  endfacet
  facet normal 0 -0 -1
    outer loop
      vertex 190.262 6.49494 0
      vertex 198.116 4.95726 0
      vertex 190 4 0
    endloop
  endfacet
  facet normal -0 0 -1
    outer loop
      vertex 198.116 3.04274 0
      vertex 190.262 1.50506 0
      vertex 190 4 0
    endloop
  endfacet
  facet normal 0 0 -1
    outer loop
      vertex 199.006 6.65249 0
      vertex 196 14.3923 0
      vertex 200.582 7.74006 0
    endloop
  endfacet
  facet normal 0 0 -1
    outer loop
      vertex 198.116 3.04274 0
      vertex 190 4 0
      vertex 198.116 4.95726 0
    endloop
  endfacet
  facet normal 0 0 -1
    outer loop
      vertex 191.037 -0.88084 0
      vertex 190.262 1.50506 0
      vertex 198.116 3.04274 0
    endloop
  endfacet
  facet normal 0 0 -1
    outer loop
      vertex 191.037 -0.88084 0
      vertex 198.116 3.04274 0
      vertex 199.006 1.34751 0
    endloop
  endfacet
  facet normal 0 0 -1
    outer loop
      vertex 196 -6.3923 0
      vertex 199.006 1.34751 0
      vertex 200.582 0.259935 0
    endloop
  endfacet
  facet normal -0 0 -1
    outer loop
      vertex 202 0.0877077 0
      vertex 200.746 -7.93426 0
      vertex 200.582 0.259935 0
    endloop
  endfacet
  facet normal 0 0 -1
    outer loop
      vertex 202 -7.93426 0
      vertex 200.746 -7.93426 0
      vertex 202 0.0877077 0
    endloop
  endfacet
  facet normal 0 0 -1
    outer loop
      vertex 200.746 -7.93426 0
      vertex 198.292 -7.41268 0
      vertex 200.582 0.259935 0
    endloop
  endfacet
  facet normal 0 0 -1
    outer loop
      vertex 198.292 -7.41268 0
      vertex 196 -6.3923 0
      vertex 200.582 0.259935 0
    endloop
  endfacet
  facet normal 0 0 -1
    outer loop
      vertex 196 -6.3923 0
      vertex 193.97 -4.91774 0
      vertex 199.006 1.34751 0
    endloop
  endfacet
  facet normal 0 0 -1
    outer loop
      vertex 193.97 -4.91774 0
      vertex 192.292 -3.05342 0
      vertex 199.006 1.34751 0
    endloop
  endfacet
  facet normal 0 0 -1
    outer loop
      vertex 192.292 -3.05342 0
      vertex 191.037 -0.88084 0
      vertex 199.006 1.34751 0
    endloop
  endfacet
  facet normal -0.587785 -0.809017 0
    outer loop
      vertex 196 -6.3923 0
      vertex 193.97 -4.91774 8
      vertex 193.97 -4.91774 0
    endloop
  endfacet
  facet normal -0.587785 -0.809017 0
    outer loop
      vertex 196 -6.3923 0
      vertex 196 -6.3923 8
      vertex 193.97 -4.91774 8
    endloop
  endfacet
  facet normal -0.743145 -0.669131 0
    outer loop
      vertex 193.97 -4.91774 8
      vertex 192.292 -3.05342 8
      vertex 192.292 -3.05342 0
    endloop
  endfacet
  facet normal -0.743145 -0.669131 0
    outer loop
      vertex 193.97 -4.91774 0
      vertex 193.97 -4.91774 8
      vertex 192.292 -3.05342 0
    endloop
  endfacet
  facet normal -0.207912 -0.978148 0
    outer loop
      vertex 200.746 -7.93426 0
      vertex 198.292 -7.41268 8
      vertex 198.292 -7.41268 0
    endloop
  endfacet
  facet normal -0.207912 -0.978148 0
    outer loop
      vertex 200.746 -7.93426 0
      vertex 200.746 -7.93426 8
      vertex 198.292 -7.41268 8
    endloop
  endfacet
  facet normal -0.866025 0.5 0
    outer loop
      vertex 191.037 8.88084 8
      vertex 192.292 11.0534 0
      vertex 191.037 8.88084 0
    endloop
  endfacet
  facet normal -0.866025 0.5 0
    outer loop
      vertex 191.037 8.88084 8
      vertex 192.292 11.0534 8
      vertex 192.292 11.0534 0
    endloop
  endfacet
  facet normal -7.08083e-16 -1 0
    outer loop
      vertex 202 -7.93426 0
      vertex 200.746 -7.93426 8
      vertex 200.746 -7.93426 0
    endloop
  endfacet
  facet normal -7.08083e-16 -1 0
    outer loop
      vertex 202 -7.93426 0
      vertex 202 -7.93426 8
      vertex 200.746 -7.93426 8
    endloop
  endfacet
  facet normal -0.743145 0.669131 0
    outer loop
      vertex 192.292 11.0534 8
      vertex 193.97 12.9177 0
      vertex 192.292 11.0534 0
    endloop
  endfacet
  facet normal -0.743145 0.669131 0
    outer loop
      vertex 192.292 11.0534 8
      vertex 193.97 12.9177 8
      vertex 193.97 12.9177 0
    endloop
  endfacet
  facet normal -0.994522 0.104528 0
    outer loop
      vertex 190 4 8
      vertex 190.262 6.49494 0
      vertex 190 4 0
    endloop
  endfacet
  facet normal -0.994522 0.104528 0
    outer loop
      vertex 190 4 8
      vertex 190.262 6.49494 8
      vertex 190.262 6.49494 0
    endloop
  endfacet
  facet normal 1.41617e-15 1 0
    outer loop
      vertex 200.746 15.9343 8
      vertex 202 15.9343 0
      vertex 200.746 15.9343 0
    endloop
  endfacet
  facet normal 1.41617e-15 1 0
    outer loop
      vertex 200.746 15.9343 8
      vertex 202 15.9343 8
      vertex 202 15.9343 0
    endloop
  endfacet
  facet normal -0.207912 0.978148 0
    outer loop
      vertex 198.292 15.4127 8
      vertex 200.746 15.9343 0
      vertex 198.292 15.4127 0
    endloop
  endfacet
  facet normal -0.207912 0.978148 0
    outer loop
      vertex 198.292 15.4127 8
      vertex 200.746 15.9343 8
      vertex 200.746 15.9343 0
    endloop
  endfacet
  facet normal -0.406737 -0.913545 0
    outer loop
      vertex 198.292 -7.41268 0
      vertex 196 -6.3923 8
      vertex 196 -6.3923 0
    endloop
  endfacet
  facet normal -0.406737 -0.913545 0
    outer loop
      vertex 198.292 -7.41268 0
      vertex 198.292 -7.41268 8
      vertex 196 -6.3923 8
    endloop
  endfacet
  facet normal -0.866025 -0.5 0
    outer loop
      vertex 192.292 -3.05342 8
      vertex 191.037 -0.88084 8
      vertex 191.037 -0.88084 0
    endloop
  endfacet
  facet normal -0.866025 -0.5 0
    outer loop
      vertex 192.292 -3.05342 0
      vertex 192.292 -3.05342 8
      vertex 191.037 -0.88084 0
    endloop
  endfacet
  facet normal -0.951057 -0.309017 0
    outer loop
      vertex 191.037 -0.88084 8
      vertex 190.262 1.50506 8
      vertex 190.262 1.50506 0
    endloop
  endfacet
  facet normal -0.951057 -0.309017 0
    outer loop
      vertex 191.037 -0.88084 0
      vertex 191.037 -0.88084 8
      vertex 190.262 1.50506 0
    endloop
  endfacet
  facet normal 0 0 1
    outer loop
      vertex 198.116 3.04274 8
      vertex 191.037 -0.88084 8
      vertex 199.006 1.34751 8
    endloop
  endfacet
  facet normal 0 -0 1
    outer loop
      vertex 200.746 -7.93426 8
      vertex 202 0.0877077 8
      vertex 200.582 0.259935 8
    endloop
  endfacet
  facet normal 0 -0 1
    outer loop
      vertex 191.037 -0.88084 8
      vertex 198.116 3.04274 8
      vertex 190.262 1.50506 8
    endloop
  endfacet
  facet normal 0 -0 1
    outer loop
      vertex 192.292 -3.05342 8
      vertex 199.006 1.34751 8
      vertex 191.037 -0.88084 8
    endloop
  endfacet
  facet normal 0 -0 1
    outer loop
      vertex 193.97 -4.91774 8
      vertex 199.006 1.34751 8
      vertex 192.292 -3.05342 8
    endloop
  endfacet
  facet normal 0 -0 1
    outer loop
      vertex 196 -6.3923 8
      vertex 199.006 1.34751 8
      vertex 193.97 -4.91774 8
    endloop
  endfacet
  facet normal 0 -0 1
    outer loop
      vertex 198.292 -7.41268 8
      vertex 200.582 0.259935 8
      vertex 196 -6.3923 8
    endloop
  endfacet
  facet normal 0 0 1
    outer loop
      vertex 200.746 -7.93426 8
      vertex 200.582 0.259935 8
      vertex 198.292 -7.41268 8
    endloop
  endfacet
  facet normal 0 -0 1
    outer loop
      vertex 202 -7.93426 8
      vertex 202 0.0877077 8
      vertex 200.746 -7.93426 8
    endloop
  endfacet
  facet normal 0 -0 1
    outer loop
      vertex 190.262 1.50506 8
      vertex 198.116 3.04274 8
      vertex 190 4 8
    endloop
  endfacet
  facet normal 0 0 1
    outer loop
      vertex 198.116 4.95726 8
      vertex 190.262 6.49494 8
      vertex 190 4 8
    endloop
  endfacet
  facet normal 0 0 1
    outer loop
      vertex 199.006 1.34751 8
      vertex 196 -6.3923 8
      vertex 200.582 0.259935 8
    endloop
  endfacet
  facet normal 0 0 1
    outer loop
      vertex 198.116 4.95726 8
      vertex 190 4 8
      vertex 198.116 3.04274 8
    endloop
  endfacet
  facet normal 0 0 1
    outer loop
      vertex 191.037 8.88084 8
      vertex 190.262 6.49494 8
      vertex 198.116 4.95726 8
    endloop
  endfacet
  facet normal 0 0 1
    outer loop
      vertex 191.037 8.88084 8
      vertex 198.116 4.95726 8
      vertex 199.006 6.65249 8
    endloop
  endfacet
  facet normal 0 0 1
    outer loop
      vertex 196 14.3923 8
      vertex 199.006 6.65249 8
      vertex 200.582 7.74006 8
    endloop
  endfacet
  facet normal 0 0 1
    outer loop
      vertex 202 7.91229 8
      vertex 200.746 15.9343 8
      vertex 200.582 7.74006 8
    endloop
  endfacet
  facet normal 0 0 1
    outer loop
      vertex 202 15.9343 8
      vertex 200.746 15.9343 8
      vertex 202 7.91229 8
    endloop
  endfacet
  facet normal 0 0 1
    outer loop
      vertex 200.746 15.9343 8
      vertex 198.292 15.4127 8
      vertex 200.582 7.74006 8
    endloop
  endfacet
  facet normal 0 0 1
    outer loop
      vertex 198.292 15.4127 8
      vertex 196 14.3923 8
      vertex 200.582 7.74006 8
    endloop
  endfacet
  facet normal 0 0 1
    outer loop
      vertex 196 14.3923 8
      vertex 193.97 12.9177 8
      vertex 199.006 6.65249 8
    endloop
  endfacet
  facet normal 0 0 1
    outer loop
      vertex 193.97 12.9177 8
      vertex 192.292 11.0534 8
      vertex 199.006 6.65249 8
    endloop
  endfacet
  facet normal 0 0 1
    outer loop
      vertex 192.292 11.0534 8
      vertex 191.037 8.88084 8
      vertex 199.006 6.65249 8
    endloop
  endfacet
  facet normal -0.406737 0.913545 0
    outer loop
      vertex 196 14.3923 8
      vertex 198.292 15.4127 0
      vertex 196 14.3923 0
    endloop
  endfacet
  facet normal -0.406737 0.913545 0
    outer loop
      vertex 196 14.3923 8
      vertex 198.292 15.4127 8
      vertex 198.292 15.4127 0
    endloop
  endfacet
  facet normal -0.587785 0.809017 0
    outer loop
      vertex 193.97 12.9177 8
      vertex 196 14.3923 0
      vertex 193.97 12.9177 0
    endloop
  endfacet
  facet normal -0.587785 0.809017 0
    outer loop
      vertex 193.97 12.9177 8
      vertex 196 14.3923 8
      vertex 196 14.3923 0
    endloop
  endfacet
  facet normal -0.951057 0.309017 0
    outer loop
      vertex 190.262 6.49494 8
      vertex 191.037 8.88084 0
      vertex 190.262 6.49494 0
    endloop
  endfacet
  facet normal -0.951057 0.309017 0
    outer loop
      vertex 190.262 6.49494 8
      vertex 191.037 8.88084 8
      vertex 191.037 8.88084 0
    endloop
  endfacet
  facet normal 1 -1.48453e-14 0
    outer loop
      vertex 198.116 3.04274 8
      vertex 198.116 4.95726 0
      vertex 198.116 4.95726 8
    endloop
  endfacet
  facet normal 1 -1.48453e-14 0
    outer loop
      vertex 198.116 3.04274 8
      vertex 198.116 3.04274 0
      vertex 198.116 4.95726 0
    endloop
  endfacet
  facet normal 0.885456 -0.464723 0
    outer loop
      vertex 198.116 4.95726 8
      vertex 199.006 6.65249 0
      vertex 199.006 6.65249 8
    endloop
  endfacet
  facet normal 0.885456 -0.464723 0
    outer loop
      vertex 198.116 4.95726 8
      vertex 198.116 4.95726 0
      vertex 199.006 6.65249 0
    endloop
  endfacet
  facet normal 0.120537 0.992709 -0
    outer loop
      vertex 202 0.0877077 0
      vertex 200.582 0.259935 8
      vertex 202 0.0877077 8
    endloop
  endfacet
  facet normal 0.120537 0.992709 0
    outer loop
      vertex 202 0.0877077 0
      vertex 200.582 0.259935 0
      vertex 200.582 0.259935 8
    endloop
  endfacet
  facet normal 0.885456 0.464723 -0
    outer loop
      vertex 198.116 3.04274 0
      vertex 198.116 3.04274 8
      vertex 199.006 1.34751 8
    endloop
  endfacet
  facet normal 0.885456 0.464723 -0
    outer loop
      vertex 199.006 1.34751 0
      vertex 198.116 3.04274 0
      vertex 199.006 1.34751 8
    endloop
  endfacet
  facet normal 0.568065 0.822984 -0
    outer loop
      vertex 200.582 0.259935 0
      vertex 199.006 1.34751 8
      vertex 200.582 0.259935 8
    endloop
  endfacet
  facet normal 0.568065 0.822984 0
    outer loop
      vertex 200.582 0.259935 0
      vertex 199.006 1.34751 0
      vertex 199.006 1.34751 8
    endloop
  endfacet
  facet normal 0.568065 -0.822984 0
    outer loop
      vertex 199.006 6.65249 8
      vertex 200.582 7.74006 0
      vertex 200.582 7.74006 8
    endloop
  endfacet
  facet normal 0.568065 -0.822984 0
    outer loop
      vertex 199.006 6.65249 8
      vertex 199.006 6.65249 0
      vertex 200.582 7.74006 0
    endloop
  endfacet
  facet normal 0.120537 -0.992709 0
    outer loop
      vertex 200.582 7.74006 8
      vertex 202 7.91229 0
      vertex 202 7.91229 8
    endloop
  endfacet
  facet normal 0.120537 -0.992709 0
    outer loop
      vertex 200.582 7.74006 8
      vertex 200.582 7.74006 0
      vertex 202 7.91229 0
    endloop
  endfacet
  facet normal 1 -0 0
    outer loop
      vertex 202 -7.93426 8
      vertex 202 0.0877077 0
      vertex 202 0.0877077 8
    endloop
  endfacet
  facet normal 1 0 0
    outer loop
      vertex 202 -7.93426 8
      vertex 202 -7.93426 0
      vertex 202 0.0877077 0
    endloop
  endfacet
  facet normal 1 -0 0
    outer loop
      vertex 202 7.91229 8
      vertex 202 15.9343 0
      vertex 202 15.9343 8
    endloop
  endfacet
  facet normal 1 0 0
    outer loop
      vertex 202 7.91229 8
      vertex 202 7.91229 0
      vertex 202 15.9343 0
    endloop
  endfacet
  facet normal -1 0 0
    outer loop
      vertex 0 0 8
      vertex 0 4 0
      vertex 0 0 0
    endloop
  endfacet
  facet normal -1 0 0
    outer loop
      vertex 0 0 8
      vertex 0 4 8
      vertex 0 4 0
    endloop
  endfacet
  facet normal -1 0 0
    outer loop
      vertex 0 4 8
      vertex 0 8 0
      vertex 0 4 0
    endloop
  endfacet
  facet normal -1 0 0
    outer loop
      vertex 0 4 8
      vertex 0 8 8
      vertex 0 8 0
    endloop
  endfacet
  facet normal 0 -1 0
    outer loop
      vertex 190 0 0
      vertex 0 0 8
      vertex 0 0 0
    endloop
  endfacet
  facet normal 0 -1 0
    outer loop
      vertex 190 0 0
      vertex 190 0 8
      vertex 0 0 8
    endloop
  endfacet
  facet normal 0 0 -1
    outer loop
      vertex 0 4 0
      vertex 190 0 0
      vertex 0 0 0
    endloop
  endfacet
  facet normal 0 0 -1
    outer loop
      vertex 0 8 0
      vertex 190 8 0
      vertex 190 4 0
    endloop
  endfacet
  facet normal 0 0 -1
    outer loop
      vertex 0 8 0
      vertex 190 4 0
      vertex 0 4 0
    endloop
  endfacet
  facet normal 0 0 -1
    outer loop
      vertex 0 4 0
      vertex 190 4 0
      vertex 190 0 0
    endloop
  endfacet
  facet normal 0 1 0
    outer loop
      vertex 0 8 8
      vertex 190 8 0
      vertex 0 8 0
    endloop
  endfacet
  facet normal -0 1 0
    outer loop
      vertex 0 8 8
      vertex 190 8 8
      vertex 190 8 0
    endloop
  endfacet
  facet normal 0 0 1
    outer loop
      vertex 190 0 8
      vertex 0 4 8
      vertex 0 0 8
    endloop
  endfacet
  facet normal 0 -0 1
    outer loop
      vertex 190 0 8
      vertex 190 4 8
      vertex 0 4 8
    endloop
  endfacet
  facet normal 0 0 1
    outer loop
      vertex 190 4 8
      vertex 0 8 8
      vertex 0 4 8
    endloop
  endfacet
  facet normal 0 0 1
    outer loop
      vertex 190 8 8
      vertex 0 8 8
      vertex 190 4 8
    endloop
  endfacet
  facet normal 1 0 0
    outer loop
      vertex 190 4 0
      vertex 190 0 8
      vertex 190 0 0
    endloop
  endfacet
  facet normal 1 0 -0
    outer loop
      vertex 190 4 0
      vertex 190 4 8
      vertex 190 0 8
    endloop
  endfacet
  facet normal 1 0 0
    outer loop
      vertex 190 8 0
      vertex 190 4 8
      vertex 190 4 0
    endloop
  endfacet
  facet normal 1 0 -0
    outer loop
      vertex 190 8 0
      vertex 190 8 8
      vertex 190 4 8
    endloop
  endfacet
endsolid OpenSCAD_Model
