solid OpenSCAD_Model
  facet normal -1 0 0
    outer loop
      vertex 0 0 0
      vertex 0 22 10
      vertex 0 22 0
    endloop
  endfacet
  facet normal -1 -0 0
    outer loop
      vertex 0 22 10
      vertex 0 0 0
      vertex 0 0 10
    endloop
  endfacet
  facet normal 0 0 1
    outer loop
      vertex 22 22 10
      vertex 21 21 10
      vertex 22 0 10
    endloop
  endfacet
  facet normal 0 0 1
    outer loop
      vertex 22 22 10
      vertex 1 21 10
      vertex 21 21 10
    endloop
  endfacet
  facet normal 0 0 1
    outer loop
      vertex 1 21 10
      vertex 0 22 10
      vertex 1 1 10
    endloop
  endfacet
  facet normal -0 0 1
    outer loop
      vertex 0 22 10
      vertex 1 21 10
      vertex 22 22 10
    endloop
  endfacet
  facet normal -0 0 1
    outer loop
      vertex 21 1 10
      vertex 22 0 10
      vertex 21 21 10
    endloop
  endfacet
  facet normal 0 0 1
    outer loop
      vertex 16 0 10
      vertex 21 1 10
      vertex 16 1 10
    endloop
  endfacet
  facet normal 0 0 1
    outer loop
      vertex 21 1 10
      vertex 16 0 10
      vertex 22 0 10
    endloop
  endfacet
  facet normal -0 0 1
    outer loop
      vertex 1 1 10
      vertex 6 0 10
      vertex 6 1 10
    endloop
  endfacet
  facet normal 0 0 1
    outer loop
      vertex 1 1 10
      vertex 0 0 10
      vertex 6 0 10
    endloop
  endfacet
  facet normal 0 0 1
    outer loop
      vertex 0 0 10
      vertex 1 1 10
      vertex 0 22 10
    endloop
  endfacet
  facet normal 1 -0 0
    outer loop
      vertex 22 0 10
      vertex 22 22 0
      vertex 22 22 10
    endloop
  endfacet
  facet normal 1 0 0
    outer loop
      vertex 22 22 0
      vertex 22 0 10
      vertex 22 0 0
    endloop
  endfacet
  facet normal 0 1 -0
    outer loop
      vertex 14 22 1
      vertex 8 22 4
      vertex 14 22 4
    endloop
  endfacet
  facet normal 0 1 0
    outer loop
      vertex 8 22 4
      vertex 14 22 1
      vertex 8 22 1
    endloop
  endfacet
  facet normal 0 1 0
    outer loop
      vertex 14 22 4
      vertex 22 22 10
      vertex 21 22 4
    endloop
  endfacet
  facet normal 0 1 -0
    outer loop
      vertex 22 22 0
      vertex 21 22 4
      vertex 22 22 10
    endloop
  endfacet
  facet normal 0 1 0
    outer loop
      vertex 22 22 0
      vertex 14 22 1
      vertex 21 22 1
    endloop
  endfacet
  facet normal 0 1 0
    outer loop
      vertex 14 22 1
      vertex 22 22 0
      vertex 8 22 1
    endloop
  endfacet
  facet normal 0 1 0
    outer loop
      vertex 0 22 0
      vertex 8 22 1
      vertex 22 22 0
    endloop
  endfacet
  facet normal 0 1 0
    outer loop
      vertex 21 22 4
      vertex 22 22 0
      vertex 21 22 1
    endloop
  endfacet
  facet normal 0 1 0
    outer loop
      vertex 22 22 10
      vertex 14 22 4
      vertex 0 22 10
    endloop
  endfacet
  facet normal 0 1 -0
    outer loop
      vertex 8 22 4
      vertex 0 22 10
      vertex 14 22 4
    endloop
  endfacet
  facet normal 0 1 -0
    outer loop
      vertex 1 22 4
      vertex 0 22 10
      vertex 8 22 4
    endloop
  endfacet
  facet normal 0 1 0
    outer loop
      vertex 0 22 0
      vertex 1 22 4
      vertex 1 22 1
    endloop
  endfacet
  facet normal 0 1 0
    outer loop
      vertex 1 22 4
      vertex 0 22 0
      vertex 0 22 10
    endloop
  endfacet
  facet normal 0 1 0
    outer loop
      vertex 8 22 1
      vertex 0 22 0
      vertex 1 22 1
    endloop
  endfacet
  facet normal 0 0 -1
    outer loop
      vertex 0 0 0
      vertex 22 22 0
      vertex 22 0 0
    endloop
  endfacet
  facet normal -0 0 -1
    outer loop
      vertex 22 22 0
      vertex 0 0 0
      vertex 0 22 0
    endloop
  endfacet
  facet normal 0 -1 0
    outer loop
      vertex 0 0 10
      vertex 6 0 1
      vertex 6 0 10
    endloop
  endfacet
  facet normal 0 -1 -0
    outer loop
      vertex 6 0 1
      vertex 0 0 0
      vertex 16 0 1
    endloop
  endfacet
  facet normal 0 -1 0
    outer loop
      vertex 0 0 0
      vertex 6 0 1
      vertex 0 0 10
    endloop
  endfacet
  facet normal 0 -1 0
    outer loop
      vertex 16 0 1
      vertex 22 0 10
      vertex 16 0 10
    endloop
  endfacet
  facet normal 0 -1 0
    outer loop
      vertex 16 0 1
      vertex 22 0 0
      vertex 22 0 10
    endloop
  endfacet
  facet normal 0 -1 0
    outer loop
      vertex 22 0 0
      vertex 16 0 1
      vertex 0 0 0
    endloop
  endfacet
  facet normal 1 0 0
    outer loop
      vertex 1 21 10
      vertex 1 1 10
      vertex 1 21 4
    endloop
  endfacet
  facet normal 1 -0 0
    outer loop
      vertex 1 21 4
      vertex 1 22 1
      vertex 1 22 4
    endloop
  endfacet
  facet normal 1 0 0
    outer loop
      vertex 1 1 1
      vertex 1 21 4
      vertex 1 1 10
    endloop
  endfacet
  facet normal 1 0 0
    outer loop
      vertex 1 21 4
      vertex 1 1 1
      vertex 1 22 1
    endloop
  endfacet
  facet normal -1 0 0
    outer loop
      vertex 21 22 1
      vertex 21 21 4
      vertex 21 22 4
    endloop
  endfacet
  facet normal -1 0 0
    outer loop
      vertex 21 1 1
      vertex 21 21 4
      vertex 21 22 1
    endloop
  endfacet
  facet normal -1 0 0
    outer loop
      vertex 21 1 10
      vertex 21 21 4
      vertex 21 1 1
    endloop
  endfacet
  facet normal -1 0 0
    outer loop
      vertex 21 21 4
      vertex 21 1 10
      vertex 21 21 10
    endloop
  endfacet
  facet normal 0 -1 0
    outer loop
      vertex 8 21 1
      vertex 14 21 4
      vertex 8 21 4
    endloop
  endfacet
  facet normal 0 -1 -0
    outer loop
      vertex 14 21 4
      vertex 8 21 1
      vertex 14 21 1
    endloop
  endfacet
  facet normal 0 -1 0
    outer loop
      vertex 8 21 4
      vertex 1 21 10
      vertex 1 21 4
    endloop
  endfacet
  facet normal 0 -1 0
    outer loop
      vertex 1 21 10
      vertex 8 21 4
      vertex 21 21 10
    endloop
  endfacet
  facet normal 0 -1 0
    outer loop
      vertex 14 21 4
      vertex 21 21 10
      vertex 8 21 4
    endloop
  endfacet
  facet normal 0 -1 -0
    outer loop
      vertex 21 21 10
      vertex 14 21 4
      vertex 21 21 4
    endloop
  endfacet
  facet normal -0 0 1
    outer loop
      vertex 1 22 1
      vertex 8 21 1
      vertex 8 22 1
    endloop
  endfacet
  facet normal 0 0 1
    outer loop
      vertex 1 1 1
      vertex 8 21 1
      vertex 1 22 1
    endloop
  endfacet
  facet normal 0 0 1
    outer loop
      vertex 8 21 1
      vertex 1 1 1
      vertex 6 1 1
    endloop
  endfacet
  facet normal -0 0 1
    outer loop
      vertex 14 21 1
      vertex 21 1 1
      vertex 21 22 1
    endloop
  endfacet
  facet normal 0 0 1
    outer loop
      vertex 14 21 1
      vertex 21 22 1
      vertex 14 22 1
    endloop
  endfacet
  facet normal 0 0 1
    outer loop
      vertex 21 1 1
      vertex 14 21 1
      vertex 16 1 1
    endloop
  endfacet
  facet normal 0 0 1
    outer loop
      vertex 6 1 1
      vertex 16 1 1
      vertex 14 21 1
    endloop
  endfacet
  facet normal 0 0 1
    outer loop
      vertex 6 1 1
      vertex 14 21 1
      vertex 8 21 1
    endloop
  endfacet
  facet normal 0 0 1
    outer loop
      vertex 16 1 1
      vertex 6 1 1
      vertex 16 0 1
    endloop
  endfacet
  facet normal 0 0 1
    outer loop
      vertex 16 0 1
      vertex 6 1 1
      vertex 6 0 1
    endloop
  endfacet
  facet normal 0 1 -0
    outer loop
      vertex 6 1 1
      vertex 1 1 10
      vertex 6 1 10
    endloop
  endfacet
  facet normal 0 1 0
    outer loop
      vertex 1 1 10
      vertex 6 1 1
      vertex 1 1 1
    endloop
  endfacet
  facet normal 0 1 -0
    outer loop
      vertex 21 1 1
      vertex 16 1 10
      vertex 21 1 10
    endloop
  endfacet
  facet normal 0 1 0
    outer loop
      vertex 16 1 10
      vertex 21 1 1
      vertex 16 1 1
    endloop
  endfacet
  facet normal 1 -0 0
    outer loop
      vertex 6 0 10
      vertex 6 1 1
      vertex 6 1 10
    endloop
  endfacet
  facet normal 1 0 0
    outer loop
      vertex 6 1 1
      vertex 6 0 10
      vertex 6 0 1
    endloop
  endfacet
  facet normal -1 0 0
    outer loop
      vertex 16 0 1
      vertex 16 1 10
      vertex 16 1 1
    endloop
  endfacet
  facet normal -1 -0 0
    outer loop
      vertex 16 1 10
      vertex 16 0 1
      vertex 16 0 10
    endloop
  endfacet
  facet normal 0 0 -1
    outer loop
      vertex 1 21 4
      vertex 8 22 4
      vertex 8 21 4
    endloop
  endfacet
  facet normal -0 0 -1
    outer loop
      vertex 8 22 4
      vertex 1 21 4
      vertex 1 22 4
    endloop
  endfacet
  facet normal -1 0 0
    outer loop
      vertex 8 21 1
      vertex 8 22 4
      vertex 8 22 1
    endloop
  endfacet
  facet normal -1 -0 0
    outer loop
      vertex 8 22 4
      vertex 8 21 1
      vertex 8 21 4
    endloop
  endfacet
  facet normal 1 -0 0
    outer loop
      vertex 14 21 4
      vertex 14 22 1
      vertex 14 22 4
    endloop
  endfacet
  facet normal 1 0 0
    outer loop
      vertex 14 22 1
      vertex 14 21 4
      vertex 14 21 1
    endloop
  endfacet
  facet normal 0 0 -1
    outer loop
      vertex 14 21 4
      vertex 21 22 4
      vertex 21 21 4
    endloop
  endfacet
  facet normal -0 0 -1
    outer loop
      vertex 21 22 4
      vertex 14 21 4
      vertex 14 22 4
    endloop
  endfacet
endsolid OpenSCAD_Model
