solid OpenSCAD_Model
  facet normal -1 0 0
    outer loop
      vertex 0 0 0
      vertex 0 0 1.2
      vertex 0 12 0
    endloop
  endfacet
  facet normal -1 0 0
    outer loop
      vertex 0 12 0
      vertex 0 0 1.2
      vertex 0 12 1.2
    endloop
  endfacet
  facet normal 0 -1 0
    outer loop
      vertex 0 0 1.2
      vertex 0 0 0
      vertex 12 0 0
    endloop
  endfacet
  facet normal 0 -1 0
    outer loop
      vertex 12 0 1.2
      vertex 0 0 1.2
      vertex 12 0 0
    endloop
  endfacet
  facet normal 0 0 -1
    outer loop
      vertex 0 0 0
      vertex 0 12 0
      vertex 12 0 0
    endloop
  endfacet
  facet normal 0 0 -1
    outer loop
      vertex 12 0 0
      vertex 0 12 0
      vertex 12 12 0
    endloop
  endfacet
  facet normal 0 1 0
    outer loop
      vertex 0 12 0
      vertex 0 12 1.2
      vertex 12 12 0
    endloop
  endfacet
  facet normal 0 1 0
    outer loop
      vertex 12 12 0
      vertex 0 12 1.2
      vertex 12 12 1.2
    endloop
  endfacet
  facet normal 0 0 1
    outer loop
      vertex 5.55496 4.05014 1.2
      vertex 0 0 1.2
      vertex 12 0 1.2
    endloop
  endfacet
  facet normal 0 0 1
    outer loop
      vertex 0 12 1.2
      vertex 0 0 1.2
      vertex 4.19806 5.13223 1.2
    endloop
  endfacet
  facet normal 0 0 1
    outer loop
      vertex 0 12 1.2
      vertex 4.19806 5.13223 1.2
      vertex 4.19806 6.86777 1.2
    endloop
  endfacet
  facet normal 0 0 1
    outer loop
      vertex 12 12 1.2
      vertex 0 12 1.2
      vertex 5.55496 7.94986 1.2
    endloop
  endfacet
  facet normal 0 0 1
    outer loop
      vertex 12 12 1.2
      vertex 7.24698 7.56366 1.2
      vertex 12 0 1.2
    endloop
  endfacet
  facet normal 0 0 1
    outer loop
      vertex 12 12 1.2
      vertex 5.55496 7.94986 1.2
      vertex 7.24698 7.56366 1.2
    endloop
  endfacet
  facet normal 0 0 1
    outer loop
      vertex 7.24698 7.56366 1.2
      vertex 8 6 1.2
      vertex 12 0 1.2
    endloop
  endfacet
  facet normal 0 0 1
    outer loop
      vertex 8 6 1.2
      vertex 7.24698 4.43634 1.2
      vertex 12 0 1.2
    endloop
  endfacet
  facet normal 0 0 1
    outer loop
      vertex 7.24698 4.43634 1.2
      vertex 5.55496 4.05014 1.2
      vertex 12 0 1.2
    endloop
  endfacet
  facet normal 0 0 1
    outer loop
      vertex 4.19806 5.13223 1.2
      vertex 0 0 1.2
      vertex 5.55496 4.05014 1.2
    endloop
  endfacet
  facet normal 0 0 1
    outer loop
      vertex 4.19806 6.86777 1.2
      vertex 5.55496 7.94986 1.2
      vertex 0 12 1.2
    endloop
  endfacet
  facet normal 1 0 0
    outer loop
      vertex 12 0 1.2
      vertex 12 0 0
      vertex 12 12 0
    endloop
  endfacet
  facet normal 1 0 0
    outer loop
      vertex 12 12 1.2
      vertex 12 0 1.2
      vertex 12 12 0
    endloop
  endfacet
  facet normal -1 0 0
    outer loop
      vertex 4.19806 5.13223 1.2
      vertex 4.19806 5.13223 12
      vertex 4.19806 6.86777 1.2
    endloop
  endfacet
  facet normal -1 0 0
    outer loop
      vertex 4.19806 6.86777 1.2
      vertex 4.19806 5.13223 12
      vertex 4.19806 6.86777 12
    endloop
  endfacet
  facet normal -0.62349 -0.781831 0
    outer loop
      vertex 4.19806 5.13223 12
      vertex 4.19806 5.13223 1.2
      vertex 5.55496 4.05014 1.2
    endloop
  endfacet
  facet normal -0.62349 -0.781831 0
    outer loop
      vertex 5.55496 4.05014 12
      vertex 4.19806 5.13223 12
      vertex 5.55496 4.05014 1.2
    endloop
  endfacet
  facet normal 0.222521 -0.974928 0
    outer loop
      vertex 5.55496 4.05014 12
      vertex 5.55496 4.05014 1.2
      vertex 7.24698 4.43634 1.2
    endloop
  endfacet
  facet normal 0.222521 -0.974928 0
    outer loop
      vertex 7.24698 4.43634 12
      vertex 5.55496 4.05014 12
      vertex 7.24698 4.43634 1.2
    endloop
  endfacet
  facet normal 0.900969 -0.433884 0
    outer loop
      vertex 7.24698 4.43634 12
      vertex 7.24698 4.43634 1.2
      vertex 8 6 1.2
    endloop
  endfacet
  facet normal 0.900969 -0.433884 0
    outer loop
      vertex 8 6 12
      vertex 7.24698 4.43634 12
      vertex 8 6 1.2
    endloop
  endfacet
  facet normal 0.900969 0.433884 0
    outer loop
      vertex 8 6 1.2
      vertex 7.24698 7.56366 1.2
      vertex 7.24698 7.56366 12
    endloop
  endfacet
  facet normal 0.900969 0.433884 0
    outer loop
      vertex 8 6 12
      vertex 8 6 1.2
      vertex 7.24698 7.56366 12
    endloop
  endfacet
  facet normal 0.222521 0.974928 0
    outer loop
      vertex 5.55496 7.94986 1.2
      vertex 5.55496 7.94986 12
      vertex 7.24698 7.56366 1.2
    endloop
  endfacet
  facet normal 0.222521 0.974928 0
    outer loop
      vertex 7.24698 7.56366 1.2
      vertex 5.55496 7.94986 12
      vertex 7.24698 7.56366 12
    endloop
  endfacet
  facet normal -0.62349 0.781831 0
    outer loop
      vertex 4.19806 6.86777 1.2
      vertex 4.19806 6.86777 12
      vertex 5.55496 7.94986 1.2
    endloop
  endfacet
  facet normal -0.62349 0.781831 0
    outer loop
      vertex 5.55496 7.94986 1.2
      vertex 4.19806 6.86777 12
      vertex 5.55496 7.94986 12
    endloop
  endfacet
  facet normal 0 0 1
    outer loop
      vertex 4.19806 6.86777 12
      vertex 4.19806 5.13223 12
      vertex 5.55496 4.05014 12
    endloop
  endfacet
  facet normal 0 0 1
    outer loop
      vertex 8 6 12
      vertex 4.19806 6.86777 12
      vertex 7.24698 4.43634 12
    endloop
  endfacet
  facet normal 0 0 1
    outer loop
      vertex 7.24698 4.43634 12
      vertex 4.19806 6.86777 12
      vertex 5.55496 4.05014 12
    endloop
  endfacet
  facet normal 0 0 1
    outer loop
      vertex 7.24698 7.56366 12
      vertex 4.19806 6.86777 12
      vertex 8 6 12
    endloop
  endfacet
  facet normal 0 0 1
    outer loop
      vertex 5.55496 7.94986 12
      vertex 4.19806 6.86777 12
      vertex 7.24698 7.56366 12
    endloop
  endfacet
endsolid OpenSCAD_Model
