solid OpenSCAD_Model
  facet normal -1 0 0
    outer loop
      vertex -3.88377 5 4
      vertex -3.88377 -0.957263 6
      vertex -3.88377 12.9573 6
    endloop
  endfacet
  facet normal -1 0 0
    outer loop
      vertex -3.88377 7 4
      vertex -3.88377 5 4
      vertex -3.88377 12.9573 6
    endloop
  endfacet
  facet normal -1 0 0
    outer loop
      vertex -3.88377 -0.957263 0
      vertex -3.88377 -0.957263 6
      vertex -3.88377 5 2
    endloop
  endfacet
  facet normal -1 0 0
    outer loop
      vertex -3.88377 -0.957263 0
      vertex -3.88377 5 2
      vertex -3.88377 12.9573 0
    endloop
  endfacet
  facet normal -1 0 0
    outer loop
      vertex -3.88377 7 4
      vertex -3.88377 12.9573 0
      vertex -3.88377 7 2
    endloop
  endfacet
  facet normal -1 0 0
    outer loop
      vertex -3.88377 5 2
      vertex -3.88377 7 2
      vertex -3.88377 12.9573 0
    endloop
  endfacet
  facet normal -1 0 0
    outer loop
      vertex -3.88377 12.9573 0
      vertex -3.88377 7 4
      vertex -3.88377 12.9573 6
    endloop
  endfacet
  facet normal -1 0 0
    outer loop
      vertex -3.88377 5 2
      vertex -3.88377 -0.957263 6
      vertex -3.88377 5 4
    endloop
  endfacet
  facet normal -0.885456 -0.464723 0
    outer loop
      vertex -3.88377 -0.957263 0
      vertex -2.99404 -2.65249 0
      vertex -3.88377 -0.957263 6
    endloop
  endfacet
  facet normal -0.885456 -0.464723 0
    outer loop
      vertex -3.88377 -0.957263 6
      vertex -2.99404 -2.65249 0
      vertex -2.99404 -2.65249 6
    endloop
  endfacet
  facet normal -0.864483 -0.453715 -0.216362
    outer loop
      vertex -2.99404 -2.65249 0
      vertex -3.88377 -0.957263 0
      vertex -2.69754 -2.38981 -1.73553
    endloop
  endfacet
  facet normal -0.864483 -0.453715 -0.216362
    outer loop
      vertex -2.69754 -2.38981 -1.73553
      vertex -3.88377 -0.957263 0
      vertex -3.49915 -0.862464 -1.73553
    endloop
  endfacet
  facet normal -0.976313 0 -0.216362
    outer loop
      vertex -3.88377 -0.957263 0
      vertex -3.88377 12.9573 0
      vertex -3.49915 -0.862464 -1.73553
    endloop
  endfacet
  facet normal -0.976313 0 -0.216362
    outer loop
      vertex -3.49915 -0.862464 -1.73553
      vertex -3.88377 12.9573 0
      vertex -3.49915 12.8625 -1.73553
    endloop
  endfacet
  facet normal -0.885456 0.464723 0
    outer loop
      vertex -3.88377 12.9573 0
      vertex -3.88377 12.9573 6
      vertex -2.99404 14.6525 0
    endloop
  endfacet
  facet normal -0.885456 0.464723 0
    outer loop
      vertex -2.99404 14.6525 0
      vertex -3.88377 12.9573 6
      vertex -2.99404 14.6525 6
    endloop
  endfacet
  facet normal -0.864482 0.453715 -0.216362
    outer loop
      vertex -3.49915 12.8625 -1.73553
      vertex -3.88377 12.9573 0
      vertex -2.99404 14.6525 0
    endloop
  endfacet
  facet normal -0.864483 0.453715 0.216362
    outer loop
      vertex -2.99404 14.6525 6
      vertex -3.88377 12.9573 6
      vertex -2.69754 14.3898 7.73553
    endloop
  endfacet
  facet normal -0.864483 0.453715 0.216362
    outer loop
      vertex -2.69754 14.3898 7.73553
      vertex -3.88377 12.9573 6
      vertex -3.49915 12.8625 7.73553
    endloop
  endfacet
  facet normal -0.976313 0 0.216362
    outer loop
      vertex -3.88377 -0.957263 6
      vertex -3.49915 -0.862464 7.73553
      vertex -3.88377 12.9573 6
    endloop
  endfacet
  facet normal -0.976313 0 0.216362
    outer loop
      vertex -3.88377 12.9573 6
      vertex -3.49915 -0.862464 7.73553
      vertex -3.49915 12.8625 7.73553
    endloop
  endfacet
  facet normal -0.864482 -0.453715 0.216362
    outer loop
      vertex -3.49915 -0.862464 7.73553
      vertex -3.88377 -0.957263 6
      vertex -2.99404 -2.65249 6
    endloop
  endfacet
  facet normal 0 1 0
    outer loop
      vertex 6 5 4
      vertex 6 5 2
      vertex -3.88377 5 4
    endloop
  endfacet
  facet normal 0 1 0
    outer loop
      vertex -3.88377 5 4
      vertex 6 5 2
      vertex -3.88377 5 2
    endloop
  endfacet
  facet normal 0 0 -1
    outer loop
      vertex 6 7 4
      vertex 6 5 4
      vertex -3.88377 7 4
    endloop
  endfacet
  facet normal 0 0 -1
    outer loop
      vertex -3.88377 7 4
      vertex 6 5 4
      vertex -3.88377 5 4
    endloop
  endfacet
  facet normal 0 -1 0
    outer loop
      vertex 6 7 2
      vertex 6 7 4
      vertex -3.88377 7 4
    endloop
  endfacet
  facet normal 0 -1 0
    outer loop
      vertex -3.88377 7 2
      vertex 6 7 2
      vertex -3.88377 7 4
    endloop
  endfacet
  facet normal 0 0 1
    outer loop
      vertex 6 5 2
      vertex 6 7 2
      vertex -3.88377 7 2
    endloop
  endfacet
  facet normal 0 0 1
    outer loop
      vertex -3.88377 5 2
      vertex 6 5 2
      vertex -3.88377 7 2
    endloop
  endfacet
  facet normal -0.864483 -0.453715 0.216362
    outer loop
      vertex -2.69754 -2.38981 7.73553
      vertex -3.49915 -0.862464 7.73553
      vertex -2.99404 -2.65249 6
    endloop
  endfacet
  facet normal -0.554609 -0.80349 0.216362
    outer loop
      vertex -2.69754 -2.38981 7.73553
      vertex -2.99404 -2.65249 6
      vertex -1.41842 -3.74006 6
    endloop
  endfacet
  facet normal -0.568065 -0.822984 0
    outer loop
      vertex -2.99404 -2.65249 6
      vertex -2.99404 -2.65249 0
      vertex -1.41842 -3.74006 0
    endloop
  endfacet
  facet normal -0.568065 -0.822984 0
    outer loop
      vertex -1.41842 -3.74006 6
      vertex -2.99404 -2.65249 6
      vertex -1.41842 -3.74006 0
    endloop
  endfacet
  facet normal -0.554609 -0.80349 -0.216362
    outer loop
      vertex -1.41842 -3.74006 0
      vertex -2.99404 -2.65249 0
      vertex -1.27795 -3.36968 -1.73553
    endloop
  endfacet
  facet normal -0.554609 -0.80349 -0.216362
    outer loop
      vertex -1.27795 -3.36968 -1.73553
      vertex -2.99404 -2.65249 0
      vertex -2.69754 -2.38981 -1.73553
    endloop
  endfacet
  facet normal -0.449159 -0.650719 -0.612226
    outer loop
      vertex -1.27795 -3.36968 -1.73553
      vertex -2.69754 -2.38981 -1.73553
      vertex -0.88437 -2.33189 -3.12733
    endloop
  endfacet
  facet normal -0.449159 -0.650719 -0.612226
    outer loop
      vertex -0.88437 -2.33189 -3.12733
      vertex -2.69754 -2.38981 -1.73553
      vertex -1.86675 -1.6538 -3.12733
    endloop
  endfacet
  facet normal -0.700115 -0.367448 -0.612226
    outer loop
      vertex -2.69754 -2.38981 -1.73553
      vertex -3.49915 -0.862464 -1.73553
      vertex -1.86675 -1.6538 -3.12733
    endloop
  endfacet
  facet normal -0.700115 -0.367449 -0.612226
    outer loop
      vertex -1.86675 -1.6538 -3.12733
      vertex -3.49915 -0.862464 -1.73553
      vertex -2.42149 -0.596844 -3.12733
    endloop
  endfacet
  facet normal -0.790683 0 -0.612226
    outer loop
      vertex -3.49915 -0.862464 -1.73553
      vertex -3.49915 12.8625 -1.73553
      vertex -2.42149 -0.596844 -3.12733
    endloop
  endfacet
  facet normal -0.790683 0 -0.612226
    outer loop
      vertex -2.42149 -0.596844 -3.12733
      vertex -3.49915 12.8625 -1.73553
      vertex -2.42149 12.5968 -3.12733
    endloop
  endfacet
  facet normal -0.700115 0.367448 -0.612226
    outer loop
      vertex -2.42149 12.5968 -3.12733
      vertex -3.49915 12.8625 -1.73553
      vertex -2.69754 14.3898 -1.73553
    endloop
  endfacet
  facet normal -0.864483 0.453715 -0.216362
    outer loop
      vertex -2.69754 14.3898 -1.73553
      vertex -3.49915 12.8625 -1.73553
      vertex -2.99404 14.6525 0
    endloop
  endfacet
  facet normal -0.554609 0.80349 -0.216362
    outer loop
      vertex -2.69754 14.3898 -1.73553
      vertex -2.99404 14.6525 0
      vertex -1.41842 15.7401 0
    endloop
  endfacet
  facet normal -0.568065 0.822984 0
    outer loop
      vertex -2.99404 14.6525 0
      vertex -2.99404 14.6525 6
      vertex -1.41842 15.7401 0
    endloop
  endfacet
  facet normal -0.568065 0.822984 0
    outer loop
      vertex -1.41842 15.7401 0
      vertex -2.99404 14.6525 6
      vertex -1.41842 15.7401 6
    endloop
  endfacet
  facet normal -0.554609 0.80349 0.216362
    outer loop
      vertex -1.41842 15.7401 6
      vertex -2.99404 14.6525 6
      vertex -1.27795 15.3697 7.73553
    endloop
  endfacet
  facet normal -0.554609 0.80349 0.216362
    outer loop
      vertex -1.27795 15.3697 7.73553
      vertex -2.99404 14.6525 6
      vertex -2.69754 14.3898 7.73553
    endloop
  endfacet
  facet normal -0.700115 0.367448 0.612226
    outer loop
      vertex -2.69754 14.3898 7.73553
      vertex -3.49915 12.8625 7.73553
      vertex -1.86675 13.6538 9.12733
    endloop
  endfacet
  facet normal -0.449159 0.650719 0.612226
    outer loop
      vertex -1.27795 15.3697 7.73553
      vertex -2.69754 14.3898 7.73553
      vertex -0.88437 14.3319 9.12733
    endloop
  endfacet
  facet normal -0.449159 0.650719 0.612226
    outer loop
      vertex -0.88437 14.3319 9.12733
      vertex -2.69754 14.3898 7.73553
      vertex -1.86675 13.6538 9.12733
    endloop
  endfacet
  facet normal -0.790683 0 0.612226
    outer loop
      vertex -3.49915 -0.862464 7.73553
      vertex -2.42149 -0.596844 9.12733
      vertex -3.49915 12.8625 7.73553
    endloop
  endfacet
  facet normal -0.790683 0 0.612226
    outer loop
      vertex -3.49915 12.8625 7.73553
      vertex -2.42149 -0.596844 9.12733
      vertex -2.42149 12.5968 9.12733
    endloop
  endfacet
  facet normal -0.700115 0.367449 0.612226
    outer loop
      vertex -1.86675 13.6538 9.12733
      vertex -3.49915 12.8625 7.73553
      vertex -2.42149 12.5968 9.12733
    endloop
  endfacet
  facet normal -0.700115 -0.367448 0.612226
    outer loop
      vertex -2.42149 -0.596844 9.12733
      vertex -3.49915 -0.862464 7.73553
      vertex -2.69754 -2.38981 7.73553
    endloop
  endfacet
  facet normal -1 0 0
    outer loop
      vertex 6 7 4
      vertex 6 7 2
      vertex 6 5 4
    endloop
  endfacet
  facet normal -1 0 0
    outer loop
      vertex 6 5 4
      vertex 6 7 2
      vertex 6 5 2
    endloop
  endfacet
  facet normal -0.700115 -0.367449 0.612226
    outer loop
      vertex -2.42149 -0.596844 9.12733
      vertex -2.69754 -2.38981 7.73553
      vertex -1.86675 -1.6538 9.12733
    endloop
  endfacet
  facet normal -0.449159 -0.650719 0.612226
    outer loop
      vertex -1.86675 -1.6538 9.12733
      vertex -2.69754 -2.38981 7.73553
      vertex -1.27795 -3.36968 7.73553
    endloop
  endfacet
  facet normal -0.554609 -0.80349 0.216362
    outer loop
      vertex -1.27795 -3.36968 7.73553
      vertex -2.69754 -2.38981 7.73553
      vertex -1.41842 -3.74006 6
    endloop
  endfacet
  facet normal -0.117681 -0.969195 0.216362
    outer loop
      vertex -1.27795 -3.36968 7.73553
      vertex -1.41842 -3.74006 6
      vertex 0.482147 -3.97083 6
    endloop
  endfacet
  facet normal -0.120536 -0.992709 0
    outer loop
      vertex -1.41842 -3.74006 6
      vertex -1.41842 -3.74006 0
      vertex 0.482147 -3.97083 0
    endloop
  endfacet
  facet normal -0.120536 -0.992709 0
    outer loop
      vertex 0.482147 -3.97083 6
      vertex -1.41842 -3.74006 6
      vertex 0.482147 -3.97083 0
    endloop
  endfacet
  facet normal -0.117681 -0.969195 -0.216362
    outer loop
      vertex 0.482147 -3.97083 0
      vertex -1.41842 -3.74006 0
      vertex 0.434399 -3.5776 -1.73553
    endloop
  endfacet
  facet normal -0.117682 -0.969195 -0.216362
    outer loop
      vertex 0.434399 -3.5776 -1.73553
      vertex -1.41842 -3.74006 0
      vertex -1.27795 -3.36968 -1.73553
    endloop
  endfacet
  facet normal -0.0953063 -0.784918 -0.612226
    outer loop
      vertex 0.434399 -3.5776 -1.73553
      vertex -1.27795 -3.36968 -1.73553
      vertex 0.300614 -2.47578 -3.12733
    endloop
  endfacet
  facet normal -0.0953062 -0.784918 -0.612226
    outer loop
      vertex 0.300614 -2.47578 -3.12733
      vertex -1.27795 -3.36968 -1.73553
      vertex -0.88437 -2.33189 -3.12733
    endloop
  endfacet
  facet normal -0.0535587 -0.441096 -0.89586
    outer loop
      vertex 0.300614 -2.47578 -3.12733
      vertex -0.88437 -2.33189 -3.12733
      vertex 0.107288 -0.883594 -3.89971
    endloop
  endfacet
  facet normal -0.0535584 -0.441096 -0.89586
    outer loop
      vertex 0.107288 -0.883594 -3.89971
      vertex -0.88437 -2.33189 -3.12733
      vertex -0.315628 -0.832243 -3.89971
    endloop
  endfacet
  facet normal -0.252411 -0.365681 -0.89586
    outer loop
      vertex -0.88437 -2.33189 -3.12733
      vertex -1.86675 -1.6538 -3.12733
      vertex -0.315628 -0.832243 -3.89971
    endloop
  endfacet
  facet normal -0.252411 -0.365681 -0.89586
    outer loop
      vertex -0.315628 -0.832243 -3.89971
      vertex -1.86675 -1.6538 -3.12733
      vertex -0.666237 -0.590235 -3.89971
    endloop
  endfacet
  facet normal -0.393439 -0.206493 -0.89586
    outer loop
      vertex -1.86675 -1.6538 -3.12733
      vertex -2.42149 -0.596844 -3.12733
      vertex -0.666237 -0.590235 -3.89971
    endloop
  endfacet
  facet normal -0.393439 -0.206494 -0.89586
    outer loop
      vertex -0.666237 -0.590235 -3.89971
      vertex -2.42149 -0.596844 -3.12733
      vertex -0.86422 -0.213011 -3.89971
    endloop
  endfacet
  facet normal -0.444336 0 -0.89586
    outer loop
      vertex -2.42149 -0.596844 -3.12733
      vertex -2.42149 12.5968 -3.12733
      vertex -0.86422 -0.213011 -3.89971
    endloop
  endfacet
  facet normal -0.444336 0 -0.89586
    outer loop
      vertex -0.86422 -0.213011 -3.89971
      vertex -2.42149 12.5968 -3.12733
      vertex -0.86422 12.213 -3.89971
    endloop
  endfacet
  facet normal -0.39344 0.206493 -0.89586
    outer loop
      vertex -0.86422 12.213 -3.89971
      vertex -2.42149 12.5968 -3.12733
      vertex -1.86675 13.6538 -3.12733
    endloop
  endfacet
  facet normal -0.700115 0.367449 -0.612226
    outer loop
      vertex -2.42149 12.5968 -3.12733
      vertex -2.69754 14.3898 -1.73553
      vertex -1.86675 13.6538 -3.12733
    endloop
  endfacet
  facet normal -0.449159 0.650719 -0.612226
    outer loop
      vertex -1.86675 13.6538 -3.12733
      vertex -2.69754 14.3898 -1.73553
      vertex -1.27795 15.3697 -1.73553
    endloop
  endfacet
  facet normal -0.554609 0.80349 -0.216362
    outer loop
      vertex -1.27795 15.3697 -1.73553
      vertex -2.69754 14.3898 -1.73553
      vertex -1.41842 15.7401 0
    endloop
  endfacet
  facet normal -0.117681 0.969195 -0.216362
    outer loop
      vertex -1.27795 15.3697 -1.73553
      vertex -1.41842 15.7401 0
      vertex 0.482147 15.9708 0
    endloop
  endfacet
  facet normal -0.120536 0.992709 0
    outer loop
      vertex -1.41842 15.7401 0
      vertex -1.41842 15.7401 6
      vertex 0.482147 15.9708 0
    endloop
  endfacet
  facet normal -0.120536 0.992709 0
    outer loop
      vertex 0.482147 15.9708 0
      vertex -1.41842 15.7401 6
      vertex 0.482147 15.9708 6
    endloop
  endfacet
  facet normal -0.117681 0.969195 0.216362
    outer loop
      vertex 0.482147 15.9708 6
      vertex -1.41842 15.7401 6
      vertex 0.434399 15.5776 7.73553
    endloop
  endfacet
  facet normal -0.117682 0.969195 0.216362
    outer loop
      vertex 0.434399 15.5776 7.73553
      vertex -1.41842 15.7401 6
      vertex -1.27795 15.3697 7.73553
    endloop
  endfacet
  facet normal -0.0953063 0.784918 0.612226
    outer loop
      vertex 0.434399 15.5776 7.73553
      vertex -1.27795 15.3697 7.73553
      vertex 0.300614 14.4758 9.12733
    endloop
  endfacet
  facet normal -0.0953062 0.784918 0.612226
    outer loop
      vertex 0.300614 14.4758 9.12733
      vertex -1.27795 15.3697 7.73553
      vertex -0.88437 14.3319 9.12733
    endloop
  endfacet
  facet normal -0.393439 0.206493 0.89586
    outer loop
      vertex -1.86675 13.6538 9.12733
      vertex -2.42149 12.5968 9.12733
      vertex -0.666237 12.5902 9.89971
    endloop
  endfacet
  facet normal -0.252411 0.365681 0.89586
    outer loop
      vertex -0.88437 14.3319 9.12733
      vertex -1.86675 13.6538 9.12733
      vertex -0.315628 12.8322 9.89971
    endloop
  endfacet
  facet normal -0.252411 0.365681 0.89586
    outer loop
      vertex -0.315628 12.8322 9.89971
      vertex -1.86675 13.6538 9.12733
      vertex -0.666237 12.5902 9.89971
    endloop
  endfacet
  facet normal -0.0535587 0.441096 0.89586
    outer loop
      vertex 0.300614 14.4758 9.12733
      vertex -0.88437 14.3319 9.12733
      vertex 0.107288 12.8836 9.89971
    endloop
  endfacet
  facet normal -0.0535584 0.441096 0.89586
    outer loop
      vertex 0.107288 12.8836 9.89971
      vertex -0.88437 14.3319 9.12733
      vertex -0.315628 12.8322 9.89971
    endloop
  endfacet
  facet normal -0.444336 0 0.89586
    outer loop
      vertex -2.42149 12.5968 9.12733
      vertex -2.42149 -0.596844 9.12733
      vertex -0.86422 -0.213011 9.89971
    endloop
  endfacet
  facet normal -0.444336 0 0.89586
    outer loop
      vertex -0.86422 12.213 9.89971
      vertex -2.42149 12.5968 9.12733
      vertex -0.86422 -0.213011 9.89971
    endloop
  endfacet
  facet normal -0.393439 0.206494 0.89586
    outer loop
      vertex -0.666237 12.5902 9.89971
      vertex -2.42149 12.5968 9.12733
      vertex -0.86422 12.213 9.89971
    endloop
  endfacet
  facet normal -0.39344 -0.206493 0.89586
    outer loop
      vertex -0.86422 -0.213011 9.89971
      vertex -2.42149 -0.596844 9.12733
      vertex -1.86675 -1.6538 9.12733
    endloop
  endfacet
  facet normal -0.393439 -0.206493 0.895861
    outer loop
      vertex -0.86422 -0.213011 9.89971
      vertex -1.86675 -1.6538 9.12733
      vertex -0.666237 -0.590235 9.89971
    endloop
  endfacet
  facet normal -0.252411 -0.365681 0.89586
    outer loop
      vertex -0.666237 -0.590235 9.89971
      vertex -1.86675 -1.6538 9.12733
      vertex -0.88437 -2.33189 9.12733
    endloop
  endfacet
  facet normal -0.449159 -0.650719 0.612226
    outer loop
      vertex -0.88437 -2.33189 9.12733
      vertex -1.86675 -1.6538 9.12733
      vertex -1.27795 -3.36968 7.73553
    endloop
  endfacet
  facet normal -0.0953063 -0.784918 0.612226
    outer loop
      vertex -0.88437 -2.33189 9.12733
      vertex -1.27795 -3.36968 7.73553
      vertex 0.434399 -3.5776 7.73553
    endloop
  endfacet
  facet normal -0.117682 -0.969195 0.216362
    outer loop
      vertex 0.434399 -3.5776 7.73553
      vertex -1.27795 -3.36968 7.73553
      vertex 0.482147 -3.97083 6
    endloop
  endfacet
  facet normal 0 -0.975279 0.220978
    outer loop
      vertex 16.4344 -3.5776 7.73553
      vertex 0.434399 -3.5776 7.73553
      vertex 0.482147 -3.97083 6
    endloop
  endfacet
  facet normal 0 -0.975279 0.220978
    outer loop
      vertex 16.4821 -3.97083 6
      vertex 16.4344 -3.5776 7.73553
      vertex 0.482147 -3.97083 6
    endloop
  endfacet
  facet normal 0 -1 0
    outer loop
      vertex 0.482147 -3.97083 6
      vertex 0.482147 -3.97083 0
      vertex 16.4821 -3.97083 0
    endloop
  endfacet
  facet normal 0 -1 0
    outer loop
      vertex 16.4821 -3.97083 6
      vertex 0.482147 -3.97083 6
      vertex 16.4821 -3.97083 0
    endloop
  endfacet
  facet normal 0 -0.975279 -0.220978
    outer loop
      vertex 0.482147 -3.97083 0
      vertex 0.434399 -3.5776 -1.73553
      vertex 16.4344 -3.5776 -1.73553
    endloop
  endfacet
  facet normal 0 -0.975279 -0.220978
    outer loop
      vertex 16.4821 -3.97083 0
      vertex 0.482147 -3.97083 0
      vertex 16.4344 -3.5776 -1.73553
    endloop
  endfacet
  facet normal 0 -0.784049 -0.620699
    outer loop
      vertex 0.434399 -3.5776 -1.73553
      vertex 0.300614 -2.47578 -3.12733
      vertex 16.3006 -2.47578 -3.12733
    endloop
  endfacet
  facet normal 0 -0.784049 -0.620699
    outer loop
      vertex 16.4344 -3.5776 -1.73553
      vertex 0.434399 -3.5776 -1.73553
      vertex 16.3006 -2.47578 -3.12733
    endloop
  endfacet
  facet normal 0 -0.436465 -0.899721
    outer loop
      vertex 0.107288 -0.883594 -3.89971
      vertex 16.1073 -0.883594 -3.89971
      vertex 0.300614 -2.47578 -3.12733
    endloop
  endfacet
  facet normal 0 -0.436465 -0.899721
    outer loop
      vertex 0.300614 -2.47578 -3.12733
      vertex 16.1073 -0.883594 -3.89971
      vertex 16.3006 -2.47578 -3.12733
    endloop
  endfacet
  facet normal 0 0 -1
    outer loop
      vertex -0.86422 -0.213011 -3.89971
      vertex -0.86422 12.213 -3.89971
      vertex -0.666237 -0.590235 -3.89971
    endloop
  endfacet
  facet normal 0 0 -1
    outer loop
      vertex -0.666237 -0.590235 -3.89971
      vertex -0.86422 12.213 -3.89971
      vertex -0.666237 12.5902 -3.89971
    endloop
  endfacet
  facet normal 0 0 -1
    outer loop
      vertex -0.666237 -0.590235 -3.89971
      vertex -0.666237 12.5902 -3.89971
      vertex -0.315628 12.8322 -3.89971
    endloop
  endfacet
  facet normal 0 0 -1
    outer loop
      vertex -0.666237 -0.590235 -3.89971
      vertex -0.315628 12.8322 -3.89971
      vertex 0.107288 12.8836 -3.89971
    endloop
  endfacet
  facet normal 0 0 -1
    outer loop
      vertex -0.666237 -0.590235 -3.89971
      vertex 0.107288 12.8836 -3.89971
      vertex 16.1073 12.8836 -3.89971
    endloop
  endfacet
  facet normal 0 0 -1
    outer loop
      vertex -0.666237 -0.590235 -3.89971
      vertex 16.1073 12.8836 -3.89971
      vertex 16.5056 12.7325 -3.89971
    endloop
  endfacet
  facet normal 0 0 -1
    outer loop
      vertex -0.666237 -0.590235 -3.89971
      vertex 16.5056 12.7325 -3.89971
      vertex 16.7881 12.4136 -3.89971
    endloop
  endfacet
  facet normal 0 0 -1
    outer loop
      vertex -0.666237 -0.590235 -3.89971
      vertex 16.7881 12.4136 -3.89971
      vertex 16.8901 12 -3.89971
    endloop
  endfacet
  facet normal 0 0 -1
    outer loop
      vertex -0.666237 -0.590235 -3.89971
      vertex 16.8901 12 -3.89971
      vertex 16.8901 0 -3.89971
    endloop
  endfacet
  facet normal 0 0 -1
    outer loop
      vertex -0.666237 -0.590235 -3.89971
      vertex 16.8901 0 -3.89971
      vertex 16.7881 -0.413643 -3.89971
    endloop
  endfacet
  facet normal 0 0 -1
    outer loop
      vertex -0.666237 -0.590235 -3.89971
      vertex 16.7881 -0.413643 -3.89971
      vertex 16.5056 -0.732525 -3.89971
    endloop
  endfacet
  facet normal 0 0 -1
    outer loop
      vertex -0.666237 -0.590235 -3.89971
      vertex 16.5056 -0.732525 -3.89971
      vertex 16.1073 -0.883594 -3.89971
    endloop
  endfacet
  facet normal 0 0 -1
    outer loop
      vertex -0.666237 -0.590235 -3.89971
      vertex 16.1073 -0.883594 -3.89971
      vertex 0.107288 -0.883594 -3.89971
    endloop
  endfacet
  facet normal 0 0 -1
    outer loop
      vertex -0.666237 -0.590235 -3.89971
      vertex 0.107288 -0.883594 -3.89971
      vertex -0.315628 -0.832243 -3.89971
    endloop
  endfacet
  facet normal -0.393439 0.206493 -0.895861
    outer loop
      vertex -0.86422 12.213 -3.89971
      vertex -1.86675 13.6538 -3.12733
      vertex -0.666237 12.5902 -3.89971
    endloop
  endfacet
  facet normal -0.252411 0.365681 -0.89586
    outer loop
      vertex -0.666237 12.5902 -3.89971
      vertex -1.86675 13.6538 -3.12733
      vertex -0.88437 14.3319 -3.12733
    endloop
  endfacet
  facet normal -0.449159 0.650719 -0.612226
    outer loop
      vertex -0.88437 14.3319 -3.12733
      vertex -1.86675 13.6538 -3.12733
      vertex -1.27795 15.3697 -1.73553
    endloop
  endfacet
  facet normal -0.0953063 0.784918 -0.612226
    outer loop
      vertex -0.88437 14.3319 -3.12733
      vertex -1.27795 15.3697 -1.73553
      vertex 0.434399 15.5776 -1.73553
    endloop
  endfacet
  facet normal -0.117682 0.969195 -0.216362
    outer loop
      vertex 0.434399 15.5776 -1.73553
      vertex -1.27795 15.3697 -1.73553
      vertex 0.482147 15.9708 0
    endloop
  endfacet
  facet normal 0 0.975279 -0.220978
    outer loop
      vertex 0.434399 15.5776 -1.73553
      vertex 0.482147 15.9708 0
      vertex 16.4344 15.5776 -1.73553
    endloop
  endfacet
  facet normal 0 0.975279 -0.220978
    outer loop
      vertex 16.4344 15.5776 -1.73553
      vertex 0.482147 15.9708 0
      vertex 16.4821 15.9708 0
    endloop
  endfacet
  facet normal 0 1 0
    outer loop
      vertex 0.482147 15.9708 0
      vertex 0.482147 15.9708 6
      vertex 16.4821 15.9708 0
    endloop
  endfacet
  facet normal 0 1 0
    outer loop
      vertex 16.4821 15.9708 0
      vertex 0.482147 15.9708 6
      vertex 16.4821 15.9708 6
    endloop
  endfacet
  facet normal 0 0.975279 0.220978
    outer loop
      vertex 0.434399 15.5776 7.73553
      vertex 16.4344 15.5776 7.73553
      vertex 0.482147 15.9708 6
    endloop
  endfacet
  facet normal 0 0.975279 0.220978
    outer loop
      vertex 0.482147 15.9708 6
      vertex 16.4344 15.5776 7.73553
      vertex 16.4821 15.9708 6
    endloop
  endfacet
  facet normal 0 0.784049 0.620699
    outer loop
      vertex 0.300614 14.4758 9.12733
      vertex 16.3006 14.4758 9.12733
      vertex 0.434399 15.5776 7.73553
    endloop
  endfacet
  facet normal 0 0.784049 0.620699
    outer loop
      vertex 0.434399 15.5776 7.73553
      vertex 16.3006 14.4758 9.12733
      vertex 16.4344 15.5776 7.73553
    endloop
  endfacet
  facet normal 0 0.436465 0.899721
    outer loop
      vertex 0.300614 14.4758 9.12733
      vertex 0.107288 12.8836 9.89971
      vertex 16.1073 12.8836 9.89971
    endloop
  endfacet
  facet normal 0 0.436465 0.899721
    outer loop
      vertex 16.3006 14.4758 9.12733
      vertex 0.300614 14.4758 9.12733
      vertex 16.1073 12.8836 9.89971
    endloop
  endfacet
  facet normal 0 0 1
    outer loop
      vertex -0.86422 12.213 9.89971
      vertex -0.86422 -0.213011 9.89971
      vertex -0.666237 -0.590235 9.89971
    endloop
  endfacet
  facet normal 0 0 1
    outer loop
      vertex 0.107288 -0.883594 9.89971
      vertex -0.86422 12.213 9.89971
      vertex -0.315628 -0.832243 9.89971
    endloop
  endfacet
  facet normal 0 0 1
    outer loop
      vertex -0.315628 -0.832243 9.89971
      vertex -0.86422 12.213 9.89971
      vertex -0.666237 -0.590235 9.89971
    endloop
  endfacet
  facet normal 0 0 1
    outer loop
      vertex 16.1073 -0.883594 9.89971
      vertex -0.86422 12.213 9.89971
      vertex 0.107288 -0.883594 9.89971
    endloop
  endfacet
  facet normal 0 0 1
    outer loop
      vertex 16.5056 -0.732525 9.89971
      vertex -0.86422 12.213 9.89971
      vertex 16.1073 -0.883594 9.89971
    endloop
  endfacet
  facet normal 0 0 1
    outer loop
      vertex 16.7881 -0.413643 9.89971
      vertex -0.86422 12.213 9.89971
      vertex 16.5056 -0.732525 9.89971
    endloop
  endfacet
  facet normal 0 0 1
    outer loop
      vertex 16.8901 0 9.89971
      vertex -0.86422 12.213 9.89971
      vertex 16.7881 -0.413643 9.89971
    endloop
  endfacet
  facet normal 0 0 1
    outer loop
      vertex 16.8901 12 9.89971
      vertex -0.86422 12.213 9.89971
      vertex 16.8901 0 9.89971
    endloop
  endfacet
  facet normal 0 0 1
    outer loop
      vertex 16.7881 12.4136 9.89971
      vertex -0.86422 12.213 9.89971
      vertex 16.8901 12 9.89971
    endloop
  endfacet
  facet normal 0 0 1
    outer loop
      vertex 16.5056 12.7325 9.89971
      vertex -0.86422 12.213 9.89971
      vertex 16.7881 12.4136 9.89971
    endloop
  endfacet
  facet normal 0 0 1
    outer loop
      vertex 16.1073 12.8836 9.89971
      vertex -0.86422 12.213 9.89971
      vertex 16.5056 12.7325 9.89971
    endloop
  endfacet
  facet normal 0 0 1
    outer loop
      vertex 0.107288 12.8836 9.89971
      vertex -0.86422 12.213 9.89971
      vertex 16.1073 12.8836 9.89971
    endloop
  endfacet
  facet normal 0 0 1
    outer loop
      vertex -0.315628 12.8322 9.89971
      vertex -0.86422 12.213 9.89971
      vertex 0.107288 12.8836 9.89971
    endloop
  endfacet
  facet normal 0 0 1
    outer loop
      vertex -0.666237 12.5902 9.89971
      vertex -0.86422 12.213 9.89971
      vertex -0.315628 12.8322 9.89971
    endloop
  endfacet
  facet normal -0.252411 -0.365681 0.89586
    outer loop
      vertex -0.666237 -0.590235 9.89971
      vertex -0.88437 -2.33189 9.12733
      vertex -0.315628 -0.832243 9.89971
    endloop
  endfacet
  facet normal -0.0535587 -0.441096 0.89586
    outer loop
      vertex -0.315628 -0.832243 9.89971
      vertex -0.88437 -2.33189 9.12733
      vertex 0.300614 -2.47578 9.12733
    endloop
  endfacet
  facet normal -0.0953062 -0.784918 0.612226
    outer loop
      vertex 0.300614 -2.47578 9.12733
      vertex -0.88437 -2.33189 9.12733
      vertex 0.434399 -3.5776 7.73553
    endloop
  endfacet
  facet normal 0 -0.784049 0.620699
    outer loop
      vertex 16.3006 -2.47578 9.12733
      vertex 0.300614 -2.47578 9.12733
      vertex 0.434399 -3.5776 7.73553
    endloop
  endfacet
  facet normal 0 -0.784049 0.620699
    outer loop
      vertex 16.4344 -3.5776 7.73553
      vertex 16.3006 -2.47578 9.12733
      vertex 0.434399 -3.5776 7.73553
    endloop
  endfacet
  facet normal 0.28038 -0.739301 0.612226
    outer loop
      vertex 18.0472 -2.96593 7.73553
      vertex 16.3006 -2.47578 9.12733
      vertex 16.4344 -3.5776 7.73553
    endloop
  endfacet
  facet normal 0.346205 -0.912869 0.216362
    outer loop
      vertex 18.0472 -2.96593 7.73553
      vertex 16.4344 -3.5776 7.73553
      vertex 18.2723 -3.29194 6
    endloop
  endfacet
  facet normal 0.346205 -0.912869 0.216362
    outer loop
      vertex 18.2723 -3.29194 6
      vertex 16.4344 -3.5776 7.73553
      vertex 16.4821 -3.97083 6
    endloop
  endfacet
  facet normal 0.354605 -0.935016 0
    outer loop
      vertex 16.4821 -3.97083 6
      vertex 16.4821 -3.97083 0
      vertex 18.2723 -3.29194 0
    endloop
  endfacet
  facet normal 0.354605 -0.935016 0
    outer loop
      vertex 18.2723 -3.29194 6
      vertex 16.4821 -3.97083 6
      vertex 18.2723 -3.29194 0
    endloop
  endfacet
  facet normal 0.346205 -0.912869 -0.216362
    outer loop
      vertex 18.2723 -3.29194 0
      vertex 16.4821 -3.97083 0
      vertex 18.0472 -2.96593 -1.73553
    endloop
  endfacet
  facet normal 0.346205 -0.912869 -0.216362
    outer loop
      vertex 16.4821 -3.97083 0
      vertex 16.4344 -3.5776 -1.73553
      vertex 18.0472 -2.96593 -1.73553
    endloop
  endfacet
  facet normal 0.28038 -0.739301 -0.612226
    outer loop
      vertex 18.0472 -2.96593 -1.73553
      vertex 16.4344 -3.5776 -1.73553
      vertex 17.4167 -2.05249 -3.12733
    endloop
  endfacet
  facet normal 0.28038 -0.739301 -0.612226
    outer loop
      vertex 16.4344 -3.5776 -1.73553
      vertex 16.3006 -2.47578 -3.12733
      vertex 17.4167 -2.05249 -3.12733
    endloop
  endfacet
  facet normal 0.157564 -0.415461 -0.89586
    outer loop
      vertex 17.4167 -2.05249 -3.12733
      vertex 16.3006 -2.47578 -3.12733
      vertex 16.5056 -0.732525 -3.89971
    endloop
  endfacet
  facet normal 0.157563 -0.415461 -0.89586
    outer loop
      vertex 16.3006 -2.47578 -3.12733
      vertex 16.1073 -0.883594 -3.89971
      vertex 16.5056 -0.732525 -3.89971
    endloop
  endfacet
  facet normal 0.33259 -0.294649 -0.89586
    outer loop
      vertex 17.4167 -2.05249 -3.12733
      vertex 16.5056 -0.732525 -3.89971
      vertex 16.7881 -0.413643 -3.89971
    endloop
  endfacet
  facet normal 0.33259 -0.294649 -0.89586
    outer loop
      vertex 17.4167 -2.05249 -3.12733
      vertex 16.7881 -0.413643 -3.89971
      vertex 18.2083 -1.159 -3.12733
    endloop
  endfacet
  facet normal 0.431424 -0.106337 -0.89586
    outer loop
      vertex 18.2083 -1.159 -3.12733
      vertex 16.7881 -0.413643 -3.89971
      vertex 16.8901 0 -3.89971
    endloop
  endfacet
  facet normal 0.431424 -0.106336 -0.89586
    outer loop
      vertex 18.2083 -1.159 -3.12733
      vertex 16.8901 0 -3.89971
      vertex 18.494 0 -3.12733
    endloop
  endfacet
  facet normal 0.433884 0 -0.900969
    outer loop
      vertex 16.8901 0 -3.89971
      vertex 16.8901 12 -3.89971
      vertex 18.494 0 -3.12733
    endloop
  endfacet
  facet normal 0.433884 0 -0.900969
    outer loop
      vertex 18.494 0 -3.12733
      vertex 16.8901 12 -3.89971
      vertex 18.494 12 -3.12733
    endloop
  endfacet
  facet normal 0.431424 0.106337 -0.89586
    outer loop
      vertex 16.8901 12 -3.89971
      vertex 16.7881 12.4136 -3.89971
      vertex 18.494 12 -3.12733
    endloop
  endfacet
  facet normal 0.431424 0.106336 -0.89586
    outer loop
      vertex 18.494 12 -3.12733
      vertex 16.7881 12.4136 -3.89971
      vertex 18.2083 13.159 -3.12733
    endloop
  endfacet
  facet normal 0.33259 0.294649 -0.89586
    outer loop
      vertex 16.7881 12.4136 -3.89971
      vertex 16.5056 12.7325 -3.89971
      vertex 18.2083 13.159 -3.12733
    endloop
  endfacet
  facet normal 0.33259 0.294649 -0.89586
    outer loop
      vertex 18.2083 13.159 -3.12733
      vertex 16.5056 12.7325 -3.89971
      vertex 17.4167 14.0525 -3.12733
    endloop
  endfacet
  facet normal 0.157563 0.415461 -0.89586
    outer loop
      vertex 16.5056 12.7325 -3.89971
      vertex 16.1073 12.8836 -3.89971
      vertex 17.4167 14.0525 -3.12733
    endloop
  endfacet
  facet normal 0.157564 0.415461 -0.89586
    outer loop
      vertex 17.4167 14.0525 -3.12733
      vertex 16.1073 12.8836 -3.89971
      vertex 16.3006 14.4758 -3.12733
    endloop
  endfacet
  facet normal 0 0.436465 -0.899721
    outer loop
      vertex 0.107288 12.8836 -3.89971
      vertex 0.300614 14.4758 -3.12733
      vertex 16.1073 12.8836 -3.89971
    endloop
  endfacet
  facet normal 0 0.436465 -0.899721
    outer loop
      vertex 16.1073 12.8836 -3.89971
      vertex 0.300614 14.4758 -3.12733
      vertex 16.3006 14.4758 -3.12733
    endloop
  endfacet
  facet normal -0.0535584 0.441096 -0.89586
    outer loop
      vertex 0.107288 12.8836 -3.89971
      vertex -0.315628 12.8322 -3.89971
      vertex 0.300614 14.4758 -3.12733
    endloop
  endfacet
  facet normal -0.0535587 0.441096 -0.89586
    outer loop
      vertex -0.315628 12.8322 -3.89971
      vertex -0.88437 14.3319 -3.12733
      vertex 0.300614 14.4758 -3.12733
    endloop
  endfacet
  facet normal -0.252411 0.365681 -0.89586
    outer loop
      vertex -0.666237 12.5902 -3.89971
      vertex -0.88437 14.3319 -3.12733
      vertex -0.315628 12.8322 -3.89971
    endloop
  endfacet
  facet normal -0.0953062 0.784918 -0.612226
    outer loop
      vertex 0.300614 14.4758 -3.12733
      vertex -0.88437 14.3319 -3.12733
      vertex 0.434399 15.5776 -1.73553
    endloop
  endfacet
  facet normal 0 0.784049 -0.620699
    outer loop
      vertex 0.300614 14.4758 -3.12733
      vertex 0.434399 15.5776 -1.73553
      vertex 16.3006 14.4758 -3.12733
    endloop
  endfacet
  facet normal 0 0.784049 -0.620699
    outer loop
      vertex 16.3006 14.4758 -3.12733
      vertex 0.434399 15.5776 -1.73553
      vertex 16.4344 15.5776 -1.73553
    endloop
  endfacet
  facet normal 0.28038 0.739301 -0.612226
    outer loop
      vertex 18.0472 14.9659 -1.73553
      vertex 16.3006 14.4758 -3.12733
      vertex 16.4344 15.5776 -1.73553
    endloop
  endfacet
  facet normal 0.346205 0.912869 -0.216362
    outer loop
      vertex 18.0472 14.9659 -1.73553
      vertex 16.4344 15.5776 -1.73553
      vertex 18.2723 15.2919 0
    endloop
  endfacet
  facet normal 0.346205 0.912869 -0.216362
    outer loop
      vertex 18.2723 15.2919 0
      vertex 16.4344 15.5776 -1.73553
      vertex 16.4821 15.9708 0
    endloop
  endfacet
  facet normal 0.354605 0.935016 0
    outer loop
      vertex 16.4821 15.9708 0
      vertex 16.4821 15.9708 6
      vertex 18.2723 15.2919 0
    endloop
  endfacet
  facet normal 0.354605 0.935016 0
    outer loop
      vertex 18.2723 15.2919 0
      vertex 16.4821 15.9708 6
      vertex 18.2723 15.2919 6
    endloop
  endfacet
  facet normal 0.346205 0.912869 0.216362
    outer loop
      vertex 18.2723 15.2919 6
      vertex 16.4821 15.9708 6
      vertex 18.0472 14.9659 7.73553
    endloop
  endfacet
  facet normal 0.346205 0.912869 0.216362
    outer loop
      vertex 16.4821 15.9708 6
      vertex 16.4344 15.5776 7.73553
      vertex 18.0472 14.9659 7.73553
    endloop
  endfacet
  facet normal 0.28038 0.739301 0.612226
    outer loop
      vertex 18.0472 14.9659 7.73553
      vertex 16.4344 15.5776 7.73553
      vertex 17.4167 14.0525 9.12733
    endloop
  endfacet
  facet normal 0.28038 0.739301 0.612226
    outer loop
      vertex 16.4344 15.5776 7.73553
      vertex 16.3006 14.4758 9.12733
      vertex 17.4167 14.0525 9.12733
    endloop
  endfacet
  facet normal 0.157564 0.415461 0.89586
    outer loop
      vertex 17.4167 14.0525 9.12733
      vertex 16.3006 14.4758 9.12733
      vertex 16.5056 12.7325 9.89971
    endloop
  endfacet
  facet normal 0.157563 0.415461 0.89586
    outer loop
      vertex 16.3006 14.4758 9.12733
      vertex 16.1073 12.8836 9.89971
      vertex 16.5056 12.7325 9.89971
    endloop
  endfacet
  facet normal 0.33259 0.294649 0.89586
    outer loop
      vertex 17.4167 14.0525 9.12733
      vertex 16.5056 12.7325 9.89971
      vertex 16.7881 12.4136 9.89971
    endloop
  endfacet
  facet normal 0.33259 0.294649 0.89586
    outer loop
      vertex 17.4167 14.0525 9.12733
      vertex 16.7881 12.4136 9.89971
      vertex 18.2083 13.159 9.12733
    endloop
  endfacet
  facet normal 0.431424 0.106337 0.89586
    outer loop
      vertex 18.2083 13.159 9.12733
      vertex 16.7881 12.4136 9.89971
      vertex 16.8901 12 9.89971
    endloop
  endfacet
  facet normal 0.431424 0.106336 0.89586
    outer loop
      vertex 18.2083 13.159 9.12733
      vertex 16.8901 12 9.89971
      vertex 18.494 12 9.12733
    endloop
  endfacet
  facet normal 0.433884 0 0.900969
    outer loop
      vertex 16.8901 12 9.89971
      vertex 16.8901 0 9.89971
      vertex 18.494 0 9.12733
    endloop
  endfacet
  facet normal 0.433884 0 0.900969
    outer loop
      vertex 18.494 12 9.12733
      vertex 16.8901 12 9.89971
      vertex 18.494 0 9.12733
    endloop
  endfacet
  facet normal 0.431424 -0.106337 0.89586
    outer loop
      vertex 16.8901 0 9.89971
      vertex 16.7881 -0.413643 9.89971
      vertex 18.494 0 9.12733
    endloop
  endfacet
  facet normal 0.431424 -0.106336 0.89586
    outer loop
      vertex 18.494 0 9.12733
      vertex 16.7881 -0.413643 9.89971
      vertex 18.2083 -1.159 9.12733
    endloop
  endfacet
  facet normal 0.33259 -0.294649 0.89586
    outer loop
      vertex 16.7881 -0.413643 9.89971
      vertex 16.5056 -0.732525 9.89971
      vertex 18.2083 -1.159 9.12733
    endloop
  endfacet
  facet normal 0.33259 -0.294649 0.89586
    outer loop
      vertex 18.2083 -1.159 9.12733
      vertex 16.5056 -0.732525 9.89971
      vertex 17.4167 -2.05249 9.12733
    endloop
  endfacet
  facet normal 0.157563 -0.415461 0.89586
    outer loop
      vertex 16.5056 -0.732525 9.89971
      vertex 16.1073 -0.883594 9.89971
      vertex 17.4167 -2.05249 9.12733
    endloop
  endfacet
  facet normal 0.157564 -0.415461 0.89586
    outer loop
      vertex 17.4167 -2.05249 9.12733
      vertex 16.1073 -0.883594 9.89971
      vertex 16.3006 -2.47578 9.12733
    endloop
  endfacet
  facet normal 0 -0.436465 0.899721
    outer loop
      vertex 16.1073 -0.883594 9.89971
      vertex 0.107288 -0.883594 9.89971
      vertex 0.300614 -2.47578 9.12733
    endloop
  endfacet
  facet normal 0 -0.436465 0.899721
    outer loop
      vertex 16.3006 -2.47578 9.12733
      vertex 16.1073 -0.883594 9.89971
      vertex 0.300614 -2.47578 9.12733
    endloop
  endfacet
  facet normal -0.0535584 -0.441096 0.89586
    outer loop
      vertex 0.107288 -0.883594 9.89971
      vertex -0.315628 -0.832243 9.89971
      vertex 0.300614 -2.47578 9.12733
    endloop
  endfacet
  facet normal 0.28038 -0.739301 0.612226
    outer loop
      vertex 17.4167 -2.05249 9.12733
      vertex 16.3006 -2.47578 9.12733
      vertex 18.0472 -2.96593 7.73553
    endloop
  endfacet
  facet normal 0.591835 -0.524319 0.612226
    outer loop
      vertex 19.1911 -1.6748 7.73553
      vertex 17.4167 -2.05249 9.12733
      vertex 18.0472 -2.96593 7.73553
    endloop
  endfacet
  facet normal 0.730781 -0.647415 0.216362
    outer loop
      vertex 19.1911 -1.6748 7.73553
      vertex 18.0472 -2.96593 7.73553
      vertex 19.5418 -1.85889 6
    endloop
  endfacet
  facet normal 0.730781 -0.647416 0.216362
    outer loop
      vertex 19.5418 -1.85889 6
      vertex 18.0472 -2.96593 7.73553
      vertex 18.2723 -3.29194 6
    endloop
  endfacet
  facet normal 0.748511 -0.663123 0
    outer loop
      vertex 18.2723 -3.29194 6
      vertex 18.2723 -3.29194 0
      vertex 19.5418 -1.85889 0
    endloop
  endfacet
  facet normal 0.748511 -0.663123 0
    outer loop
      vertex 19.5418 -1.85889 6
      vertex 18.2723 -3.29194 6
      vertex 19.5418 -1.85889 0
    endloop
  endfacet
  facet normal 0.730781 -0.647416 -0.216362
    outer loop
      vertex 19.5418 -1.85889 0
      vertex 18.2723 -3.29194 0
      vertex 19.1911 -1.6748 -1.73553
    endloop
  endfacet
  facet normal 0.730781 -0.647415 -0.216362
    outer loop
      vertex 18.2723 -3.29194 0
      vertex 18.0472 -2.96593 -1.73553
      vertex 19.1911 -1.6748 -1.73553
    endloop
  endfacet
  facet normal 0.591835 -0.52432 -0.612226
    outer loop
      vertex 19.1911 -1.6748 -1.73553
      vertex 18.0472 -2.96593 -1.73553
      vertex 18.2083 -1.159 -3.12733
    endloop
  endfacet
  facet normal 0.591834 -0.52432 -0.612226
    outer loop
      vertex 18.0472 -2.96593 -1.73553
      vertex 17.4167 -2.05249 -3.12733
      vertex 18.2083 -1.159 -3.12733
    endloop
  endfacet
  facet normal 0.767707 -0.189223 -0.612226
    outer loop
      vertex 19.1911 -1.6748 -1.73553
      vertex 18.2083 -1.159 -3.12733
      vertex 18.494 0 -3.12733
    endloop
  endfacet
  facet normal 0.767707 -0.189223 -0.612226
    outer loop
      vertex 19.1911 -1.6748 -1.73553
      vertex 18.494 0 -3.12733
      vertex 19.6039 0 -1.73553
    endloop
  endfacet
  facet normal 0.781832 0 -0.62349
    outer loop
      vertex 19.6039 0 -1.73553
      vertex 18.494 0 -3.12733
      vertex 18.494 12 -3.12733
    endloop
  endfacet
  facet normal 0.781832 0 -0.62349
    outer loop
      vertex 19.6039 12 -1.73553
      vertex 19.6039 0 -1.73553
      vertex 18.494 12 -3.12733
    endloop
  endfacet
  facet normal 0.767707 0.189223 -0.612226
    outer loop
      vertex 18.494 12 -3.12733
      vertex 18.2083 13.159 -3.12733
      vertex 19.6039 12 -1.73553
    endloop
  endfacet
  facet normal 0.767707 0.189223 -0.612226
    outer loop
      vertex 19.6039 12 -1.73553
      vertex 18.2083 13.159 -3.12733
      vertex 19.1911 13.6748 -1.73553
    endloop
  endfacet
  facet normal 0.591835 0.52432 -0.612226
    outer loop
      vertex 18.2083 13.159 -3.12733
      vertex 17.4167 14.0525 -3.12733
      vertex 19.1911 13.6748 -1.73553
    endloop
  endfacet
  facet normal 0.28038 0.739301 -0.612226
    outer loop
      vertex 17.4167 14.0525 -3.12733
      vertex 16.3006 14.4758 -3.12733
      vertex 18.0472 14.9659 -1.73553
    endloop
  endfacet
  facet normal 0.591835 0.524319 -0.612226
    outer loop
      vertex 19.1911 13.6748 -1.73553
      vertex 17.4167 14.0525 -3.12733
      vertex 18.0472 14.9659 -1.73553
    endloop
  endfacet
  facet normal 0.730781 0.647416 -0.216362
    outer loop
      vertex 19.5418 13.8589 0
      vertex 18.0472 14.9659 -1.73553
      vertex 18.2723 15.2919 0
    endloop
  endfacet
  facet normal 0.730781 0.647415 -0.216362
    outer loop
      vertex 19.1911 13.6748 -1.73553
      vertex 18.0472 14.9659 -1.73553
      vertex 19.5418 13.8589 0
    endloop
  endfacet
  facet normal 0.748511 0.663123 0
    outer loop
      vertex 19.5418 13.8589 0
      vertex 18.2723 15.2919 0
      vertex 18.2723 15.2919 6
    endloop
  endfacet
  facet normal 0.748511 0.663123 0
    outer loop
      vertex 19.5418 13.8589 6
      vertex 19.5418 13.8589 0
      vertex 18.2723 15.2919 6
    endloop
  endfacet
  facet normal 0.730781 0.647416 0.216362
    outer loop
      vertex 19.5418 13.8589 6
      vertex 18.2723 15.2919 6
      vertex 19.1911 13.6748 7.73553
    endloop
  endfacet
  facet normal 0.730781 0.647415 0.216362
    outer loop
      vertex 18.2723 15.2919 6
      vertex 18.0472 14.9659 7.73553
      vertex 19.1911 13.6748 7.73553
    endloop
  endfacet
  facet normal 0.591835 0.52432 0.612226
    outer loop
      vertex 19.1911 13.6748 7.73553
      vertex 18.0472 14.9659 7.73553
      vertex 18.2083 13.159 9.12733
    endloop
  endfacet
  facet normal 0.591834 0.52432 0.612226
    outer loop
      vertex 18.0472 14.9659 7.73553
      vertex 17.4167 14.0525 9.12733
      vertex 18.2083 13.159 9.12733
    endloop
  endfacet
  facet normal 0.767707 0.189223 0.612226
    outer loop
      vertex 19.1911 13.6748 7.73553
      vertex 18.2083 13.159 9.12733
      vertex 18.494 12 9.12733
    endloop
  endfacet
  facet normal 0.767707 0.189223 0.612226
    outer loop
      vertex 19.1911 13.6748 7.73553
      vertex 18.494 12 9.12733
      vertex 19.6039 12 7.73553
    endloop
  endfacet
  facet normal 0.781832 0 0.62349
    outer loop
      vertex 18.494 12 9.12733
      vertex 18.494 0 9.12733
      vertex 19.6039 0 7.73553
    endloop
  endfacet
  facet normal 0.781832 0 0.62349
    outer loop
      vertex 19.6039 12 7.73553
      vertex 18.494 12 9.12733
      vertex 19.6039 0 7.73553
    endloop
  endfacet
  facet normal 0.767707 -0.189223 0.612226
    outer loop
      vertex 18.494 0 9.12733
      vertex 18.2083 -1.159 9.12733
      vertex 19.6039 0 7.73553
    endloop
  endfacet
  facet normal 0.767707 -0.189223 0.612226
    outer loop
      vertex 19.6039 0 7.73553
      vertex 18.2083 -1.159 9.12733
      vertex 19.1911 -1.6748 7.73553
    endloop
  endfacet
  facet normal 0.591835 -0.52432 0.612226
    outer loop
      vertex 18.2083 -1.159 9.12733
      vertex 17.4167 -2.05249 9.12733
      vertex 19.1911 -1.6748 7.73553
    endloop
  endfacet
  facet normal 0.947943 -0.233647 0.216362
    outer loop
      vertex 19.6039 0 7.73553
      vertex 19.1911 -1.6748 7.73553
      vertex 20 0 6
    endloop
  endfacet
  facet normal 0.947943 -0.233647 0.216362
    outer loop
      vertex 20 0 6
      vertex 19.1911 -1.6748 7.73553
      vertex 19.5418 -1.85889 6
    endloop
  endfacet
  facet normal 0.970942 -0.239316 0
    outer loop
      vertex 19.5418 -1.85889 6
      vertex 19.5418 -1.85889 0
      vertex 20 0 0
    endloop
  endfacet
  facet normal 0.970942 -0.239316 0
    outer loop
      vertex 20 0 6
      vertex 19.5418 -1.85889 6
      vertex 20 0 0
    endloop
  endfacet
  facet normal 0.947943 -0.233647 -0.216362
    outer loop
      vertex 20 0 0
      vertex 19.5418 -1.85889 0
      vertex 19.6039 0 -1.73553
    endloop
  endfacet
  facet normal 0.947943 -0.233647 -0.216362
    outer loop
      vertex 19.5418 -1.85889 0
      vertex 19.1911 -1.6748 -1.73553
      vertex 19.6039 0 -1.73553
    endloop
  endfacet
  facet normal 0.974928 0 -0.222521
    outer loop
      vertex 20 0 0
      vertex 19.6039 0 -1.73553
      vertex 19.6039 12 -1.73553
    endloop
  endfacet
  facet normal 0.974928 0 -0.222521
    outer loop
      vertex 20 12 0
      vertex 20 0 0
      vertex 19.6039 12 -1.73553
    endloop
  endfacet
  facet normal 0.947943 0.233647 -0.216362
    outer loop
      vertex 19.6039 12 -1.73553
      vertex 19.1911 13.6748 -1.73553
      vertex 20 12 0
    endloop
  endfacet
  facet normal 0.947943 0.233647 -0.216362
    outer loop
      vertex 20 12 0
      vertex 19.1911 13.6748 -1.73553
      vertex 19.5418 13.8589 0
    endloop
  endfacet
  facet normal 0.970942 0.239316 0
    outer loop
      vertex 20 12 0
      vertex 19.5418 13.8589 0
      vertex 19.5418 13.8589 6
    endloop
  endfacet
  facet normal 0.970942 0.239316 0
    outer loop
      vertex 20 12 6
      vertex 20 12 0
      vertex 19.5418 13.8589 6
    endloop
  endfacet
  facet normal 0.947943 0.233647 0.216362
    outer loop
      vertex 20 12 6
      vertex 19.5418 13.8589 6
      vertex 19.6039 12 7.73553
    endloop
  endfacet
  facet normal 0.947943 0.233647 0.216362
    outer loop
      vertex 19.5418 13.8589 6
      vertex 19.1911 13.6748 7.73553
      vertex 19.6039 12 7.73553
    endloop
  endfacet
  facet normal 0.974928 0 0.222521
    outer loop
      vertex 19.6039 12 7.73553
      vertex 19.6039 0 7.73553
      vertex 20 0 6
    endloop
  endfacet
  facet normal 0.974928 0 0.222521
    outer loop
      vertex 20 12 6
      vertex 19.6039 12 7.73553
      vertex 20 0 6
    endloop
  endfacet
  facet normal 1 0 0
    outer loop
      vertex 20 0 6
      vertex 20 0 0
      vertex 20 12 0
    endloop
  endfacet
  facet normal 1 0 0
    outer loop
      vertex 20 12 6
      vertex 20 0 6
      vertex 20 12 0
    endloop
  endfacet
endsolid OpenSCAD_Model
