solid OpenSCAD_Model
  facet normal -6.12303e-17 -1 0
    outer loop
      vertex -5 -25 0
      vertex -1.53076e-15 -25 0
      vertex -1.53076e-15 -25 40
    endloop
  endfacet
  facet normal -6.12303e-17 -1 0
    outer loop
      vertex -5 -25 40
      vertex -5 -25 0
      vertex -1.53076e-15 -25 40
    endloop
  endfacet
  facet normal 1 -6.12303e-17 0
    outer loop
      vertex -1.53076e-15 -25 40
      vertex -1.53076e-15 -25 0
      vertex 4.59227e-15 75 0
    endloop
  endfacet
  facet normal 1 -6.12303e-17 0
    outer loop
      vertex 3.09213e-15 50.5 40
      vertex 2.26552e-15 37 40
      vertex 4.59227e-15 75 0
    endloop
  endfacet
  facet normal 1 -6.12303e-17 0
    outer loop
      vertex 3.79628e-15 62 40
      vertex 3.09213e-15 50.5 40
      vertex 4.59227e-15 75 0
    endloop
  endfacet
  facet normal 1 -6.12303e-17 0
    outer loop
      vertex 4.59227e-15 75 40
      vertex 3.79628e-15 62 40
      vertex 4.59227e-15 75 0
    endloop
  endfacet
  facet normal 1 -6.12303e-17 0
    outer loop
      vertex 3.79628e-15 62 50
      vertex 3.09213e-15 50.5 40
      vertex 3.79628e-15 62 40
    endloop
  endfacet
  facet normal 1 -6.12303e-17 0
    outer loop
      vertex 2.26552e-15 37 40
      vertex 1.56137e-15 25.5 40
      vertex 4.59227e-15 75 0
    endloop
  endfacet
  facet normal 1 -6.12303e-17 0
    outer loop
      vertex 1.56137e-15 25.5 40
      vertex 7.34764e-16 12 40
      vertex 4.59227e-15 75 0
    endloop
  endfacet
  facet normal 1 -6.12303e-17 0
    outer loop
      vertex 7.34764e-16 12 40
      vertex 7.34764e-16 12 50
      vertex 3.06152e-17 0.5 40
    endloop
  endfacet
  facet normal 1 -6.12303e-17 0
    outer loop
      vertex 7.34764e-16 12 40
      vertex 3.06152e-17 0.5 40
      vertex 4.59227e-15 75 0
    endloop
  endfacet
  facet normal 1 -6.12303e-17 0
    outer loop
      vertex 3.06152e-17 0.5 40
      vertex -7.95994e-16 -13 40
      vertex 4.59227e-15 75 0
    endloop
  endfacet
  facet normal 1 -6.12303e-17 0
    outer loop
      vertex -1.50014e-15 -24.5 50
      vertex -1.50014e-15 -24.5 40
      vertex -7.95994e-16 -13 50
    endloop
  endfacet
  facet normal 1 -6.12303e-17 0
    outer loop
      vertex -7.95994e-16 -13 40
      vertex -1.50014e-15 -24.5 40
      vertex 4.59227e-15 75 0
    endloop
  endfacet
  facet normal 1 -6.12303e-17 0
    outer loop
      vertex -7.95994e-16 -13 40
      vertex -7.95994e-16 -13 50
      vertex -1.50014e-15 -24.5 40
    endloop
  endfacet
  facet normal 1 -6.12303e-17 0
    outer loop
      vertex -1.50014e-15 -24.5 40
      vertex -1.53076e-15 -25 40
      vertex 4.59227e-15 75 0
    endloop
  endfacet
  facet normal 1 -6.12303e-17 0
    outer loop
      vertex 2.26552e-15 37 40
      vertex 2.26552e-15 37 50
      vertex 1.56137e-15 25.5 40
    endloop
  endfacet
  facet normal 1 -6.12303e-17 0
    outer loop
      vertex 3.06152e-17 0.5 50
      vertex 3.06152e-17 0.5 40
      vertex 7.34764e-16 12 50
    endloop
  endfacet
  facet normal 1 -6.12303e-17 0
    outer loop
      vertex 1.56137e-15 25.5 50
      vertex 1.56137e-15 25.5 40
      vertex 2.26552e-15 37 50
    endloop
  endfacet
  facet normal 1 -6.12303e-17 0
    outer loop
      vertex 3.09213e-15 50.5 50
      vertex 3.09213e-15 50.5 40
      vertex 3.79628e-15 62 50
    endloop
  endfacet
  facet normal 0 0 -1
    outer loop
      vertex -1.53076e-15 -25 0
      vertex -5 -25 0
      vertex 4.59227e-15 75 0
    endloop
  endfacet
  facet normal 0 0 -1
    outer loop
      vertex 4.59227e-15 75 0
      vertex -5 -25 0
      vertex -5 3.06152e-16 0
    endloop
  endfacet
  facet normal 0 0 -1
    outer loop
      vertex -5 50 0
      vertex -5 3.06152e-16 0
      vertex -150 9.18455e-15 0
    endloop
  endfacet
  facet normal 0 0 -1
    outer loop
      vertex -132.5 50 0
      vertex -150 9.18455e-15 0
      vertex -150 50 0
    endloop
  endfacet
  facet normal 0 0 -1
    outer loop
      vertex -136.367 27.9079 0
      vertex -150 9.18455e-15 0
      vertex -132.5 50 0
    endloop
  endfacet
  facet normal 0 0 -1
    outer loop
      vertex -136.367 22.0921 0
      vertex -150 9.18455e-15 0
      vertex -136.929 24.0038 0
    endloop
  endfacet
  facet normal 0 0 -1
    outer loop
      vertex -132.5 31.4754 0
      vertex -133.784 30.8888 0
      vertex -132.5 50 0
    endloop
  endfacet
  facet normal 0 0 -1
    outer loop
      vertex -136.929 24.0038 0
      vertex -150 9.18455e-15 0
      vertex -136.929 25.9962 0
    endloop
  endfacet
  facet normal 0 0 -1
    outer loop
      vertex -133.784 30.8888 0
      vertex -135.29 29.584 0
      vertex -132.5 50 0
    endloop
  endfacet
  facet normal 0 0 -1
    outer loop
      vertex -135.29 29.584 0
      vertex -136.367 27.9079 0
      vertex -132.5 50 0
    endloop
  endfacet
  facet normal 0 0 -1
    outer loop
      vertex -135.29 20.416 0
      vertex -150 9.18455e-15 0
      vertex -136.367 22.0921 0
    endloop
  endfacet
  facet normal 0 0 -1
    outer loop
      vertex -133.784 19.1112 0
      vertex -150 9.18455e-15 0
      vertex -135.29 20.416 0
    endloop
  endfacet
  facet normal 0 0 -1
    outer loop
      vertex -131.972 18.2835 0
      vertex -150 9.18455e-15 0
      vertex -133.784 19.1112 0
    endloop
  endfacet
  facet normal 0 0 -1
    outer loop
      vertex -130 18 0
      vertex -150 9.18455e-15 0
      vertex -131.972 18.2835 0
    endloop
  endfacet
  facet normal 0 0 -1
    outer loop
      vertex -128.028 18.2835 0
      vertex -150 9.18455e-15 0
      vertex -130 18 0
    endloop
  endfacet
  facet normal 0 0 -1
    outer loop
      vertex -5 50 0
      vertex -128.028 18.2835 0
      vertex -126.216 19.1112 0
    endloop
  endfacet
  facet normal 0 0 -1
    outer loop
      vertex -5 50 0
      vertex -150 9.18455e-15 0
      vertex -128.028 18.2835 0
    endloop
  endfacet
  facet normal 0 0 -1
    outer loop
      vertex 4.59227e-15 75 0
      vertex -5 3.06152e-16 0
      vertex -5 50 0
    endloop
  endfacet
  facet normal 0 0 -1
    outer loop
      vertex -5 75 0
      vertex 4.59227e-15 75 0
      vertex -5 50 0
    endloop
  endfacet
  facet normal 0 0 -1
    outer loop
      vertex -136.929 25.9962 0
      vertex -150 9.18455e-15 0
      vertex -136.367 27.9079 0
    endloop
  endfacet
  facet normal 0 0 -1
    outer loop
      vertex -5 50 0
      vertex -126.216 19.1112 0
      vertex -124.71 20.416 0
    endloop
  endfacet
  facet normal 0 0 -1
    outer loop
      vertex -5 50 0
      vertex -124.71 20.416 0
      vertex -123.633 22.0921 0
    endloop
  endfacet
  facet normal 0 0 -1
    outer loop
      vertex -5 50 0
      vertex -123.633 22.0921 0
      vertex -123.071 24.0038 0
    endloop
  endfacet
  facet normal 0 0 -1
    outer loop
      vertex -5 50 0
      vertex -123.071 24.0038 0
      vertex -123.071 25.9962 0
    endloop
  endfacet
  facet normal 0 0 -1
    outer loop
      vertex -5 50 0
      vertex -123.071 25.9962 0
      vertex -123.633 27.9079 0
    endloop
  endfacet
  facet normal 0 0 -1
    outer loop
      vertex -5 50 0
      vertex -123.633 27.9079 0
      vertex -124.71 29.584 0
    endloop
  endfacet
  facet normal 0 0 -1
    outer loop
      vertex -5 50 0
      vertex -124.71 29.584 0
      vertex -126.216 30.8888 0
    endloop
  endfacet
  facet normal 0 0 -1
    outer loop
      vertex -5 50 0
      vertex -126.216 30.8888 0
      vertex -127.5 31.4754 0
    endloop
  endfacet
  facet normal 0 0 -1
    outer loop
      vertex -5 50 0
      vertex -127.5 31.4754 0
      vertex -127.5 50 0
    endloop
  endfacet
  facet normal -1 6.12303e-17 0
    outer loop
      vertex -5 -25 0
      vertex -5 -25 40
      vertex -5 3.06152e-16 0
    endloop
  endfacet
  facet normal -1 6.12303e-17 0
    outer loop
      vertex -5 3.06152e-16 0
      vertex -5 -25 40
      vertex -5 -12 40
    endloop
  endfacet
  facet normal -1 6.12303e-17 0
    outer loop
      vertex -5 3.06152e-16 0
      vertex -5 -12 40
      vertex -5 -12 50
    endloop
  endfacet
  facet normal -1 6.12303e-17 0
    outer loop
      vertex -5 -0.5 40
      vertex -5 -12 50
      vertex -5 -0.5 50
    endloop
  endfacet
  facet normal -1 6.12303e-17 0
    outer loop
      vertex -5 3.06152e-16 0
      vertex -5 -12 50
      vertex -5 -0.5 40
    endloop
  endfacet
  facet normal -1 6.12303e-17 0
    outer loop
      vertex -5 5 5
      vertex -5 74.5 40
      vertex -5 75 40
    endloop
  endfacet
  facet normal -1 6.12303e-17 0
    outer loop
      vertex -5 13 40
      vertex -5 13 50
      vertex -5 24.5 50
    endloop
  endfacet
  facet normal -1 6.12303e-17 0
    outer loop
      vertex -5 3.06152e-16 15
      vertex -5 13 40
      vertex -5 5 15
    endloop
  endfacet
  facet normal -1 6.12303e-17 0
    outer loop
      vertex -5 38 40
      vertex -5 38 50
      vertex -5 49.5 50
    endloop
  endfacet
  facet normal -1 6.12303e-17 0
    outer loop
      vertex -5 5 5
      vertex -5 49.5 50
      vertex -5 49.5 40
    endloop
  endfacet
  facet normal -1 6.12303e-17 0
    outer loop
      vertex -5 5 15
      vertex -5 24.5 40
      vertex -5 38 40
    endloop
  endfacet
  facet normal -1 6.12303e-17 0
    outer loop
      vertex -5 63 40
      vertex -5 63 50
      vertex -5 74.5 50
    endloop
  endfacet
  facet normal -1 6.12303e-17 0
    outer loop
      vertex -5 63 40
      vertex -5 74.5 50
      vertex -5 74.5 40
    endloop
  endfacet
  facet normal -1 6.12303e-17 0
    outer loop
      vertex -5 38 40
      vertex -5 49.5 50
      vertex -5 5 5
    endloop
  endfacet
  facet normal -1 6.12303e-17 0
    outer loop
      vertex -5 5 15
      vertex -5 38 40
      vertex -5 5 5
    endloop
  endfacet
  facet normal -1 6.12303e-17 0
    outer loop
      vertex -5 50 0
      vertex -5 75 40
      vertex -5 75 0
    endloop
  endfacet
  facet normal -1 6.12303e-17 0
    outer loop
      vertex -5 50 15
      vertex -5 75 40
      vertex -5 50 0
    endloop
  endfacet
  facet normal -1 6.12303e-17 0
    outer loop
      vertex -5 45 15
      vertex -5 75 40
      vertex -5 50 15
    endloop
  endfacet
  facet normal -1 6.12303e-17 0
    outer loop
      vertex -5 5 5
      vertex -5 63 40
      vertex -5 74.5 40
    endloop
  endfacet
  facet normal -1 6.12303e-17 0
    outer loop
      vertex -5 5 5
      vertex -5 49.5 40
      vertex -5 63 40
    endloop
  endfacet
  facet normal -1 6.12303e-17 0
    outer loop
      vertex -5 5 15
      vertex -5 24.5 50
      vertex -5 24.5 40
    endloop
  endfacet
  facet normal -1 6.12303e-17 0
    outer loop
      vertex -5 13 40
      vertex -5 24.5 50
      vertex -5 5 15
    endloop
  endfacet
  facet normal -1 6.12303e-17 0
    outer loop
      vertex -5 3.06152e-16 15
      vertex -5 3.06152e-16 0
      vertex -5 -0.5 40
    endloop
  endfacet
  facet normal -1 6.12303e-17 0
    outer loop
      vertex -5 13 40
      vertex -5 3.06152e-16 15
      vertex -5 -0.5 40
    endloop
  endfacet
  facet normal -1 6.12303e-17 0
    outer loop
      vertex -5 5 5
      vertex -5 75 40
      vertex -5 45 15
    endloop
  endfacet
  facet normal -1 6.12303e-17 0
    outer loop
      vertex -5 5 5
      vertex -5 45 15
      vertex -5 45 5
    endloop
  endfacet
  facet normal 0 0 1
    outer loop
      vertex -5 -25 40
      vertex -1.53076e-15 -25 40
      vertex -1.50014e-15 -24.5 40
    endloop
  endfacet
  facet normal 0 0 1
    outer loop
      vertex -2 -13 40
      vertex -5 -25 40
      vertex -2 -24.5 40
    endloop
  endfacet
  facet normal 0 0 1
    outer loop
      vertex -2 -24.5 40
      vertex -5 -25 40
      vertex -1.50014e-15 -24.5 40
    endloop
  endfacet
  facet normal 0 0 1
    outer loop
      vertex 3.06152e-17 0.5 40
      vertex -5 -25 40
      vertex -2 -13 40
    endloop
  endfacet
  facet normal 0 0 1
    outer loop
      vertex 3.06152e-17 0.5 40
      vertex -2 -13 40
      vertex -7.95994e-16 -13 40
    endloop
  endfacet
  facet normal 0 0 1
    outer loop
      vertex -3 -12 40
      vertex -5 -25 40
      vertex 3.06152e-17 0.5 40
    endloop
  endfacet
  facet normal 0 0 1
    outer loop
      vertex -3 -12 40
      vertex -5 -12 40
      vertex -5 -25 40
    endloop
  endfacet
  facet normal 0 0 1
    outer loop
      vertex -3 -0.5 40
      vertex -3 -12 40
      vertex -2 0.5 40
    endloop
  endfacet
  facet normal 0 0 1
    outer loop
      vertex 1.56137e-15 25.5 40
      vertex -2 12 40
      vertex 7.34764e-16 12 40
    endloop
  endfacet
  facet normal 0 0 1
    outer loop
      vertex -2 25.5 40
      vertex -2 12 40
      vertex 1.56137e-15 25.5 40
    endloop
  endfacet
  facet normal 0 0 1
    outer loop
      vertex 3.09213e-15 50.5 40
      vertex -2 37 40
      vertex 2.26552e-15 37 40
    endloop
  endfacet
  facet normal 0 0 1
    outer loop
      vertex -2 50.5 40
      vertex -2 37 40
      vertex 3.09213e-15 50.5 40
    endloop
  endfacet
  facet normal 0 0 1
    outer loop
      vertex -3 24.5 40
      vertex -3 13 40
      vertex -2 37 40
    endloop
  endfacet
  facet normal 0 0 1
    outer loop
      vertex 4.59227e-15 75 40
      vertex -2 62 40
      vertex 3.79628e-15 62 40
    endloop
  endfacet
  facet normal 0 0 1
    outer loop
      vertex -3 74.5 40
      vertex -2 62 40
      vertex 4.59227e-15 75 40
    endloop
  endfacet
  facet normal 0 0 1
    outer loop
      vertex -3 74.5 40
      vertex -3 63 40
      vertex -2 62 40
    endloop
  endfacet
  facet normal 0 0 1
    outer loop
      vertex -5 75 40
      vertex -3 74.5 40
      vertex 4.59227e-15 75 40
    endloop
  endfacet
  facet normal 0 0 1
    outer loop
      vertex -3 38 40
      vertex -2 50.5 40
      vertex -2 62 40
    endloop
  endfacet
  facet normal 0 0 1
    outer loop
      vertex -3 13 40
      vertex -5 13 40
      vertex -5 -0.5 40
    endloop
  endfacet
  facet normal 0 0 1
    outer loop
      vertex -5 63 40
      vertex -5 49.5 40
      vertex -3 63 40
    endloop
  endfacet
  facet normal 0 0 1
    outer loop
      vertex -3 63 40
      vertex -3 49.5 40
      vertex -2 62 40
    endloop
  endfacet
  facet normal 0 0 1
    outer loop
      vertex -3 49.5 40
      vertex -3 38 40
      vertex -2 62 40
    endloop
  endfacet
  facet normal 0 0 1
    outer loop
      vertex -3 38 40
      vertex -3 24.5 40
      vertex -2 50.5 40
    endloop
  endfacet
  facet normal 0 0 1
    outer loop
      vertex -5 24.5 40
      vertex -3 24.5 40
      vertex -3 38 40
    endloop
  endfacet
  facet normal 0 0 1
    outer loop
      vertex -3 38 40
      vertex -5 38 40
      vertex -5 24.5 40
    endloop
  endfacet
  facet normal 0 0 1
    outer loop
      vertex -2 50.5 40
      vertex -3 24.5 40
      vertex -2 37 40
    endloop
  endfacet
  facet normal 0 0 1
    outer loop
      vertex -5 -0.5 40
      vertex -2 12 40
      vertex -3 13 40
    endloop
  endfacet
  facet normal 0 0 1
    outer loop
      vertex -2 37 40
      vertex -3 13 40
      vertex -2 25.5 40
    endloop
  endfacet
  facet normal 0 0 1
    outer loop
      vertex -2 12 40
      vertex -3 -0.5 40
      vertex -2 0.5 40
    endloop
  endfacet
  facet normal 0 0 1
    outer loop
      vertex -2 0.5 40
      vertex -3 -12 40
      vertex 3.06152e-17 0.5 40
    endloop
  endfacet
  facet normal 0 0 1
    outer loop
      vertex -5 -0.5 40
      vertex -3 -0.5 40
      vertex -2 12 40
    endloop
  endfacet
  facet normal 0 0 1
    outer loop
      vertex -5 74.5 40
      vertex -3 74.5 40
      vertex -5 75 40
    endloop
  endfacet
  facet normal 0 0 1
    outer loop
      vertex -3 13 40
      vertex -2 12 40
      vertex -2 25.5 40
    endloop
  endfacet
  facet normal 0 0 1
    outer loop
      vertex -5 49.5 40
      vertex -3 49.5 40
      vertex -3 63 40
    endloop
  endfacet
  facet normal -6.12303e-17 -1 0
    outer loop
      vertex -2 -24.5 40
      vertex -1.50014e-15 -24.5 40
      vertex -1.50014e-15 -24.5 50
    endloop
  endfacet
  facet normal -6.12303e-17 -1 0
    outer loop
      vertex -2 -24.5 50
      vertex -2 -24.5 40
      vertex -1.50014e-15 -24.5 50
    endloop
  endfacet
  facet normal 0 0 1
    outer loop
      vertex -2 -24.5 50
      vertex -1.50014e-15 -24.5 50
      vertex -7.95994e-16 -13 50
    endloop
  endfacet
  facet normal 0 0 1
    outer loop
      vertex -2 -13 50
      vertex -2 -24.5 50
      vertex -7.95994e-16 -13 50
    endloop
  endfacet
  facet normal 6.12303e-17 1 0
    outer loop
      vertex -7.95994e-16 -13 40
      vertex -2 -13 40
      vertex -7.95994e-16 -13 50
    endloop
  endfacet
  facet normal 6.12303e-17 1 0
    outer loop
      vertex -7.95994e-16 -13 50
      vertex -2 -13 40
      vertex -2 -13 50
    endloop
  endfacet
  facet normal -6.12303e-17 -1 0
    outer loop
      vertex -2 0.5 40
      vertex 3.06152e-17 0.5 40
      vertex 3.06152e-17 0.5 50
    endloop
  endfacet
  facet normal -6.12303e-17 -1 0
    outer loop
      vertex -2 0.5 50
      vertex -2 0.5 40
      vertex 3.06152e-17 0.5 50
    endloop
  endfacet
  facet normal 0 0 1
    outer loop
      vertex -2 0.5 50
      vertex 3.06152e-17 0.5 50
      vertex 7.34764e-16 12 50
    endloop
  endfacet
  facet normal 0 0 1
    outer loop
      vertex -2 12 50
      vertex -2 0.5 50
      vertex 7.34764e-16 12 50
    endloop
  endfacet
  facet normal 6.12303e-17 1 0
    outer loop
      vertex 7.34764e-16 12 40
      vertex -2 12 40
      vertex 7.34764e-16 12 50
    endloop
  endfacet
  facet normal 6.12303e-17 1 0
    outer loop
      vertex 7.34764e-16 12 50
      vertex -2 12 40
      vertex -2 12 50
    endloop
  endfacet
  facet normal -6.12303e-17 -1 0
    outer loop
      vertex -2 25.5 40
      vertex 1.56137e-15 25.5 40
      vertex 1.56137e-15 25.5 50
    endloop
  endfacet
  facet normal -6.12303e-17 -1 0
    outer loop
      vertex -2 25.5 50
      vertex -2 25.5 40
      vertex 1.56137e-15 25.5 50
    endloop
  endfacet
  facet normal 0 0 1
    outer loop
      vertex -2 25.5 50
      vertex 1.56137e-15 25.5 50
      vertex 2.26552e-15 37 50
    endloop
  endfacet
  facet normal 0 0 1
    outer loop
      vertex -2 37 50
      vertex -2 25.5 50
      vertex 2.26552e-15 37 50
    endloop
  endfacet
  facet normal 6.12303e-17 1 0
    outer loop
      vertex 2.26552e-15 37 40
      vertex -2 37 40
      vertex 2.26552e-15 37 50
    endloop
  endfacet
  facet normal 6.12303e-17 1 0
    outer loop
      vertex 2.26552e-15 37 50
      vertex -2 37 40
      vertex -2 37 50
    endloop
  endfacet
  facet normal -6.12303e-17 -1 0
    outer loop
      vertex -2 50.5 40
      vertex 3.09213e-15 50.5 40
      vertex 3.09213e-15 50.5 50
    endloop
  endfacet
  facet normal -6.12303e-17 -1 0
    outer loop
      vertex -2 50.5 50
      vertex -2 50.5 40
      vertex 3.09213e-15 50.5 50
    endloop
  endfacet
  facet normal 0 0 1
    outer loop
      vertex -2 50.5 50
      vertex 3.09213e-15 50.5 50
      vertex 3.79628e-15 62 50
    endloop
  endfacet
  facet normal 0 0 1
    outer loop
      vertex -2 62 50
      vertex -2 50.5 50
      vertex 3.79628e-15 62 50
    endloop
  endfacet
  facet normal 6.12303e-17 1 0
    outer loop
      vertex 3.79628e-15 62 40
      vertex -2 62 40
      vertex 3.79628e-15 62 50
    endloop
  endfacet
  facet normal 6.12303e-17 1 0
    outer loop
      vertex 3.79628e-15 62 50
      vertex -2 62 40
      vertex -2 62 50
    endloop
  endfacet
  facet normal 6.12303e-17 1 0
    outer loop
      vertex 4.59227e-15 75 0
      vertex -5 75 0
      vertex 4.59227e-15 75 40
    endloop
  endfacet
  facet normal 6.12303e-17 1 0
    outer loop
      vertex 4.59227e-15 75 40
      vertex -5 75 0
      vertex -5 75 40
    endloop
  endfacet
  facet normal 6.12303e-17 1 0
    outer loop
      vertex -25 50 15
      vertex -16.8483 50 10
      vertex -25 50 5
    endloop
  endfacet
  facet normal 6.12303e-17 1 0
    outer loop
      vertex -5 50 0
      vertex -127.5 50 0
      vertex -25 50 5
    endloop
  endfacet
  facet normal 6.12303e-17 1 0
    outer loop
      vertex -16.8483 50 10
      vertex -5 50 15
      vertex -13.1517 50 10
    endloop
  endfacet
  facet normal 6.12303e-17 1 0
    outer loop
      vertex -5 50 0
      vertex -13.4363 50 8.75302
      vertex -5 50 15
    endloop
  endfacet
  facet normal 6.12303e-17 1 0
    outer loop
      vertex -13.4363 50 8.75302
      vertex -13.1517 50 10
      vertex -5 50 15
    endloop
  endfacet
  facet normal 6.12303e-17 1 0
    outer loop
      vertex -25 50 15
      vertex -5 50 15
      vertex -16.8483 50 10
    endloop
  endfacet
  facet normal 6.12303e-17 1 0
    outer loop
      vertex -15 50 8
      vertex -25 50 5
      vertex -16.5637 50 8.75302
    endloop
  endfacet
  facet normal 6.12303e-17 1 0
    outer loop
      vertex -5 50 0
      vertex -25 50 5
      vertex -15 50 8
    endloop
  endfacet
  facet normal 6.12303e-17 1 0
    outer loop
      vertex -5 50 0
      vertex -15 50 8
      vertex -13.4363 50 8.75302
    endloop
  endfacet
  facet normal 6.12303e-17 1 0
    outer loop
      vertex -25 50 5
      vertex -127.5 50 0
      vertex -127.5 50 5
    endloop
  endfacet
  facet normal 6.12303e-17 1 0
    outer loop
      vertex -16.5637 50 8.75302
      vertex -25 50 5
      vertex -16.8483 50 10
    endloop
  endfacet
  facet normal -1 6.12303e-17 0
    outer loop
      vertex -127.5 50 5
      vertex -127.5 50 0
      vertex -127.5 31.4754 5
    endloop
  endfacet
  facet normal -1 6.12303e-17 0
    outer loop
      vertex -127.5 31.4754 5
      vertex -127.5 50 0
      vertex -127.5 31.4754 0
    endloop
  endfacet
  facet normal -0.415415 -0.909632 0
    outer loop
      vertex -126.216 30.8888 5
      vertex -127.5 31.4754 5
      vertex -127.5 31.4754 0
    endloop
  endfacet
  facet normal -0.415415 -0.909632 0
    outer loop
      vertex -126.216 30.8888 0
      vertex -126.216 30.8888 5
      vertex -127.5 31.4754 0
    endloop
  endfacet
  facet normal -0.654861 -0.755749 0
    outer loop
      vertex -124.71 29.584 5
      vertex -126.216 30.8888 5
      vertex -126.216 30.8888 0
    endloop
  endfacet
  facet normal -0.654861 -0.755749 0
    outer loop
      vertex -124.71 29.584 0
      vertex -124.71 29.584 5
      vertex -126.216 30.8888 0
    endloop
  endfacet
  facet normal -0.841254 -0.540641 0
    outer loop
      vertex -124.71 29.584 5
      vertex -124.71 29.584 0
      vertex -123.633 27.9079 5
    endloop
  endfacet
  facet normal -0.841254 -0.540641 0
    outer loop
      vertex -123.633 27.9079 5
      vertex -124.71 29.584 0
      vertex -123.633 27.9079 0
    endloop
  endfacet
  facet normal -0.959493 -0.281733 0
    outer loop
      vertex -123.633 27.9079 5
      vertex -123.633 27.9079 0
      vertex -123.071 25.9962 5
    endloop
  endfacet
  facet normal -0.959493 -0.281733 0
    outer loop
      vertex -123.071 25.9962 5
      vertex -123.633 27.9079 0
      vertex -123.071 25.9962 0
    endloop
  endfacet
  facet normal -1 6.12303e-17 0
    outer loop
      vertex -123.071 25.9962 5
      vertex -123.071 25.9962 0
      vertex -123.071 24.0038 5
    endloop
  endfacet
  facet normal -1 6.12303e-17 0
    outer loop
      vertex -123.071 24.0038 5
      vertex -123.071 25.9962 0
      vertex -123.071 24.0038 0
    endloop
  endfacet
  facet normal -0.959493 0.281733 0
    outer loop
      vertex -123.071 24.0038 5
      vertex -123.071 24.0038 0
      vertex -123.633 22.0921 5
    endloop
  endfacet
  facet normal -0.959493 0.281733 0
    outer loop
      vertex -123.633 22.0921 5
      vertex -123.071 24.0038 0
      vertex -123.633 22.0921 0
    endloop
  endfacet
  facet normal -0.841254 0.540641 0
    outer loop
      vertex -123.633 22.0921 5
      vertex -123.633 22.0921 0
      vertex -124.71 20.416 5
    endloop
  endfacet
  facet normal -0.841254 0.540641 0
    outer loop
      vertex -124.71 20.416 5
      vertex -123.633 22.0921 0
      vertex -124.71 20.416 0
    endloop
  endfacet
  facet normal -0.654861 0.755749 0
    outer loop
      vertex -124.71 20.416 5
      vertex -124.71 20.416 0
      vertex -126.216 19.1112 5
    endloop
  endfacet
  facet normal -0.654861 0.755749 0
    outer loop
      vertex -126.216 19.1112 5
      vertex -124.71 20.416 0
      vertex -126.216 19.1112 0
    endloop
  endfacet
  facet normal -0.415415 0.909632 0
    outer loop
      vertex -126.216 19.1112 5
      vertex -126.216 19.1112 0
      vertex -128.028 18.2835 5
    endloop
  endfacet
  facet normal -0.415415 0.909632 0
    outer loop
      vertex -128.028 18.2835 5
      vertex -126.216 19.1112 0
      vertex -128.028 18.2835 0
    endloop
  endfacet
  facet normal -0.142315 0.989821 0
    outer loop
      vertex -128.028 18.2835 5
      vertex -128.028 18.2835 0
      vertex -130 18 5
    endloop
  endfacet
  facet normal -0.142315 0.989821 0
    outer loop
      vertex -130 18 5
      vertex -128.028 18.2835 0
      vertex -130 18 0
    endloop
  endfacet
  facet normal 0.142315 0.989821 0
    outer loop
      vertex -131.972 18.2835 5
      vertex -130 18 5
      vertex -131.972 18.2835 0
    endloop
  endfacet
  facet normal 0.142315 0.989821 0
    outer loop
      vertex -131.972 18.2835 0
      vertex -130 18 5
      vertex -130 18 0
    endloop
  endfacet
  facet normal 0.415415 0.909632 0
    outer loop
      vertex -133.784 19.1112 5
      vertex -131.972 18.2835 5
      vertex -133.784 19.1112 0
    endloop
  endfacet
  facet normal 0.415415 0.909632 0
    outer loop
      vertex -133.784 19.1112 0
      vertex -131.972 18.2835 5
      vertex -131.972 18.2835 0
    endloop
  endfacet
  facet normal 0.654861 0.755749 0
    outer loop
      vertex -135.29 20.416 5
      vertex -133.784 19.1112 5
      vertex -135.29 20.416 0
    endloop
  endfacet
  facet normal 0.654861 0.755749 0
    outer loop
      vertex -135.29 20.416 0
      vertex -133.784 19.1112 5
      vertex -133.784 19.1112 0
    endloop
  endfacet
  facet normal 0.841254 0.540641 0
    outer loop
      vertex -136.367 22.0921 0
      vertex -136.367 22.0921 5
      vertex -135.29 20.416 5
    endloop
  endfacet
  facet normal 0.841254 0.540641 0
    outer loop
      vertex -135.29 20.416 0
      vertex -136.367 22.0921 0
      vertex -135.29 20.416 5
    endloop
  endfacet
  facet normal 0.959493 0.281733 0
    outer loop
      vertex -136.929 24.0038 0
      vertex -136.929 24.0038 5
      vertex -136.367 22.0921 5
    endloop
  endfacet
  facet normal 0.959493 0.281733 0
    outer loop
      vertex -136.367 22.0921 0
      vertex -136.929 24.0038 0
      vertex -136.367 22.0921 5
    endloop
  endfacet
  facet normal 1 -6.12303e-17 0
    outer loop
      vertex -136.929 25.9962 0
      vertex -136.929 25.9962 5
      vertex -136.929 24.0038 5
    endloop
  endfacet
  facet normal 1 -6.12303e-17 0
    outer loop
      vertex -136.929 24.0038 0
      vertex -136.929 25.9962 0
      vertex -136.929 24.0038 5
    endloop
  endfacet
  facet normal 0.959493 -0.281733 0
    outer loop
      vertex -136.367 27.9079 0
      vertex -136.367 27.9079 5
      vertex -136.929 25.9962 5
    endloop
  endfacet
  facet normal 0.959493 -0.281733 0
    outer loop
      vertex -136.929 25.9962 0
      vertex -136.367 27.9079 0
      vertex -136.929 25.9962 5
    endloop
  endfacet
  facet normal 0.841254 -0.540641 0
    outer loop
      vertex -135.29 29.584 0
      vertex -135.29 29.584 5
      vertex -136.367 27.9079 5
    endloop
  endfacet
  facet normal 0.841254 -0.540641 0
    outer loop
      vertex -136.367 27.9079 0
      vertex -135.29 29.584 0
      vertex -136.367 27.9079 5
    endloop
  endfacet
  facet normal 0.654861 -0.755749 0
    outer loop
      vertex -133.784 30.8888 0
      vertex -133.784 30.8888 5
      vertex -135.29 29.584 5
    endloop
  endfacet
  facet normal 0.654861 -0.755749 0
    outer loop
      vertex -135.29 29.584 0
      vertex -133.784 30.8888 0
      vertex -135.29 29.584 5
    endloop
  endfacet
  facet normal 0.415415 -0.909632 0
    outer loop
      vertex -132.5 31.4754 0
      vertex -132.5 31.4754 5
      vertex -133.784 30.8888 5
    endloop
  endfacet
  facet normal 0.415415 -0.909632 0
    outer loop
      vertex -133.784 30.8888 0
      vertex -132.5 31.4754 0
      vertex -133.784 30.8888 5
    endloop
  endfacet
  facet normal 1 -6.12303e-17 0
    outer loop
      vertex -132.5 50 0
      vertex -132.5 50 5
      vertex -132.5 31.4754 5
    endloop
  endfacet
  facet normal 1 -6.12303e-17 0
    outer loop
      vertex -132.5 31.4754 0
      vertex -132.5 50 0
      vertex -132.5 31.4754 5
    endloop
  endfacet
  facet normal 6.12303e-17 1 0
    outer loop
      vertex -132.5 50 0
      vertex -150 50 0
      vertex -132.5 50 5
    endloop
  endfacet
  facet normal 6.12303e-17 1 0
    outer loop
      vertex -132.5 50 5
      vertex -150 50 0
      vertex -150 50 5
    endloop
  endfacet
  facet normal -1 6.12303e-17 0
    outer loop
      vertex -150 9.18455e-15 0
      vertex -150 9.18455e-15 5
      vertex -150 50 0
    endloop
  endfacet
  facet normal -1 6.12303e-17 0
    outer loop
      vertex -150 50 0
      vertex -150 9.18455e-15 5
      vertex -150 50 5
    endloop
  endfacet
  facet normal -6.12303e-17 -1 0
    outer loop
      vertex -13.0501 7.99064e-16 10.445
      vertex -5 3.06152e-16 0
      vertex -5 3.06152e-16 15
    endloop
  endfacet
  facet normal -6.12303e-17 -1 0
    outer loop
      vertex -13.1517 8.05284e-16 10
      vertex -16.8483 1.03163e-15 10
      vertex -25 1.53076e-15 5
    endloop
  endfacet
  facet normal -6.12303e-17 -1 0
    outer loop
      vertex -150 9.18455e-15 0
      vertex -5 3.06152e-16 0
      vertex -25 1.53076e-15 5
    endloop
  endfacet
  facet normal -6.12303e-17 -1 0
    outer loop
      vertex -13.1517 8.05284e-16 10
      vertex -5 3.06152e-16 0
      vertex -13.0501 7.99064e-16 10.445
    endloop
  endfacet
  facet normal -6.12303e-17 -1 0
    outer loop
      vertex -25 1.53076e-15 5
      vertex -5 3.06152e-16 0
      vertex -13.1517 8.05284e-16 10
    endloop
  endfacet
  facet normal -6.12303e-17 -1 0
    outer loop
      vertex -25 1.53076e-15 5
      vertex -150 9.18455e-15 5
      vertex -150 9.18455e-15 0
    endloop
  endfacet
  facet normal -6.12303e-17 -1 0
    outer loop
      vertex -14.1322 8.65321e-16 11.8019
      vertex -13.0501 7.99064e-16 10.445
      vertex -5 3.06152e-16 15
    endloop
  endfacet
  facet normal -6.12303e-17 -1 0
    outer loop
      vertex -15.8678 9.71588e-16 11.8019
      vertex -14.1322 8.65321e-16 11.8019
      vertex -5 3.06152e-16 15
    endloop
  endfacet
  facet normal -6.12303e-17 -1 0
    outer loop
      vertex -25 1.53076e-15 15
      vertex -15.8678 9.71588e-16 11.8019
      vertex -5 3.06152e-16 15
    endloop
  endfacet
  facet normal -6.12303e-17 -1 0
    outer loop
      vertex -25 1.53076e-15 15
      vertex -16.9499 1.03785e-15 10.445
      vertex -15.8678 9.71588e-16 11.8019
    endloop
  endfacet
  facet normal -6.12303e-17 -1 0
    outer loop
      vertex -25 1.53076e-15 15
      vertex -16.8483 1.03163e-15 10
      vertex -16.9499 1.03785e-15 10.445
    endloop
  endfacet
  facet normal -6.12303e-17 -1 0
    outer loop
      vertex -25 1.53076e-15 15
      vertex -25 1.53076e-15 5
      vertex -16.8483 1.03163e-15 10
    endloop
  endfacet
  facet normal 0 0 1
    outer loop
      vertex -25 1.53076e-15 15
      vertex -5 3.06152e-16 15
      vertex -5 5 15
    endloop
  endfacet
  facet normal 0 0 1
    outer loop
      vertex -25 5 15
      vertex -25 1.53076e-15 15
      vertex -5 5 15
    endloop
  endfacet
  facet normal 6.12303e-17 1 0
    outer loop
      vertex -16.8483 5 10
      vertex -25 5 5
      vertex -25 5 15
    endloop
  endfacet
  facet normal 6.12303e-17 1 0
    outer loop
      vertex -5 5 5
      vertex -13.4363 5 8.75302
      vertex -5 5 15
    endloop
  endfacet
  facet normal 6.12303e-17 1 0
    outer loop
      vertex -13.4363 5 8.75302
      vertex -13.1517 5 10
      vertex -5 5 15
    endloop
  endfacet
  facet normal 6.12303e-17 1 0
    outer loop
      vertex -15 5 8
      vertex -25 5 5
      vertex -16.5637 5 8.75302
    endloop
  endfacet
  facet normal 6.12303e-17 1 0
    outer loop
      vertex -5 5 15
      vertex -16.8483 5 10
      vertex -25 5 15
    endloop
  endfacet
  facet normal 6.12303e-17 1 0
    outer loop
      vertex -5 5 5
      vertex -25 5 5
      vertex -15 5 8
    endloop
  endfacet
  facet normal 6.12303e-17 1 0
    outer loop
      vertex -5 5 5
      vertex -15 5 8
      vertex -13.4363 5 8.75302
    endloop
  endfacet
  facet normal 6.12303e-17 1 0
    outer loop
      vertex -16.8483 5 10
      vertex -5 5 15
      vertex -13.1517 5 10
    endloop
  endfacet
  facet normal 6.12303e-17 1 0
    outer loop
      vertex -16.5637 5 8.75302
      vertex -25 5 5
      vertex -16.8483 5 10
    endloop
  endfacet
  facet normal 0 0 1
    outer loop
      vertex -25 45 5
      vertex -25 50 5
      vertex -150 9.18455e-15 5
    endloop
  endfacet
  facet normal 0 0 1
    outer loop
      vertex -150 9.18455e-15 5
      vertex -25 1.53076e-15 5
      vertex -25 5 5
    endloop
  endfacet
  facet normal 0 0 1
    outer loop
      vertex -5 45 5
      vertex -150 9.18455e-15 5
      vertex -25 5 5
    endloop
  endfacet
  facet normal 0 0 1
    outer loop
      vertex -5 5 5
      vertex -5 45 5
      vertex -25 5 5
    endloop
  endfacet
  facet normal 0 0 1
    outer loop
      vertex -5 45 5
      vertex -25 45 5
      vertex -150 9.18455e-15 5
    endloop
  endfacet
  facet normal 0 0 1
    outer loop
      vertex -25 50 5
      vertex -127.5 50 5
      vertex -127.5 31.4754 5
    endloop
  endfacet
  facet normal 0 0 1
    outer loop
      vertex -135.29 20.416 5
      vertex -136.367 22.0921 5
      vertex -150 9.18455e-15 5
    endloop
  endfacet
  facet normal 0 0 1
    outer loop
      vertex -25 50 5
      vertex -127.5 31.4754 5
      vertex -126.216 30.8888 5
    endloop
  endfacet
  facet normal 0 0 1
    outer loop
      vertex -133.784 19.1112 5
      vertex -135.29 20.416 5
      vertex -150 9.18455e-15 5
    endloop
  endfacet
  facet normal 0 0 1
    outer loop
      vertex -25 50 5
      vertex -126.216 30.8888 5
      vertex -124.71 29.584 5
    endloop
  endfacet
  facet normal 0 0 1
    outer loop
      vertex -135.29 29.584 5
      vertex -132.5 50 5
      vertex -136.367 27.9079 5
    endloop
  endfacet
  facet normal 0 0 1
    outer loop
      vertex -25 50 5
      vertex -124.71 29.584 5
      vertex -123.633 27.9079 5
    endloop
  endfacet
  facet normal 0 0 1
    outer loop
      vertex -25 50 5
      vertex -123.633 27.9079 5
      vertex -123.071 25.9962 5
    endloop
  endfacet
  facet normal 0 0 1
    outer loop
      vertex -130 18 5
      vertex -131.972 18.2835 5
      vertex -150 9.18455e-15 5
    endloop
  endfacet
  facet normal 0 0 1
    outer loop
      vertex -25 50 5
      vertex -123.071 25.9962 5
      vertex -123.071 24.0038 5
    endloop
  endfacet
  facet normal 0 0 1
    outer loop
      vertex -131.972 18.2835 5
      vertex -133.784 19.1112 5
      vertex -150 9.18455e-15 5
    endloop
  endfacet
  facet normal 0 0 1
    outer loop
      vertex -25 50 5
      vertex -123.071 24.0038 5
      vertex -123.633 22.0921 5
    endloop
  endfacet
  facet normal 0 0 1
    outer loop
      vertex -25 50 5
      vertex -123.633 22.0921 5
      vertex -124.71 20.416 5
    endloop
  endfacet
  facet normal 0 0 1
    outer loop
      vertex -25 50 5
      vertex -126.216 19.1112 5
      vertex -150 9.18455e-15 5
    endloop
  endfacet
  facet normal 0 0 1
    outer loop
      vertex -25 50 5
      vertex -124.71 20.416 5
      vertex -126.216 19.1112 5
    endloop
  endfacet
  facet normal 0 0 1
    outer loop
      vertex -136.367 22.0921 5
      vertex -136.929 24.0038 5
      vertex -150 9.18455e-15 5
    endloop
  endfacet
  facet normal 0 0 1
    outer loop
      vertex -136.929 24.0038 5
      vertex -136.929 25.9962 5
      vertex -150 9.18455e-15 5
    endloop
  endfacet
  facet normal 0 0 1
    outer loop
      vertex -136.929 25.9962 5
      vertex -136.367 27.9079 5
      vertex -150 9.18455e-15 5
    endloop
  endfacet
  facet normal 0 0 1
    outer loop
      vertex -136.367 27.9079 5
      vertex -132.5 50 5
      vertex -150 9.18455e-15 5
    endloop
  endfacet
  facet normal 0 0 1
    outer loop
      vertex -132.5 50 5
      vertex -150 50 5
      vertex -150 9.18455e-15 5
    endloop
  endfacet
  facet normal 0 0 1
    outer loop
      vertex -126.216 19.1112 5
      vertex -128.028 18.2835 5
      vertex -150 9.18455e-15 5
    endloop
  endfacet
  facet normal 0 0 1
    outer loop
      vertex -128.028 18.2835 5
      vertex -130 18 5
      vertex -150 9.18455e-15 5
    endloop
  endfacet
  facet normal 0 0 1
    outer loop
      vertex -133.784 30.8888 5
      vertex -132.5 50 5
      vertex -135.29 29.584 5
    endloop
  endfacet
  facet normal 0 0 1
    outer loop
      vertex -132.5 31.4754 5
      vertex -132.5 50 5
      vertex -133.784 30.8888 5
    endloop
  endfacet
  facet normal -6.12303e-17 -1 0
    outer loop
      vertex -13.0501 45 10.445
      vertex -5 45 5
      vertex -5 45 15
    endloop
  endfacet
  facet normal -6.12303e-17 -1 0
    outer loop
      vertex -13.1517 45 10
      vertex -16.8483 45 10
      vertex -25 45 5
    endloop
  endfacet
  facet normal -6.12303e-17 -1 0
    outer loop
      vertex -13.1517 45 10
      vertex -5 45 5
      vertex -13.0501 45 10.445
    endloop
  endfacet
  facet normal -6.12303e-17 -1 0
    outer loop
      vertex -25 45 5
      vertex -5 45 5
      vertex -13.1517 45 10
    endloop
  endfacet
  facet normal -6.12303e-17 -1 0
    outer loop
      vertex -25 45 15
      vertex -25 45 5
      vertex -16.8483 45 10
    endloop
  endfacet
  facet normal -6.12303e-17 -1 0
    outer loop
      vertex -25 45 15
      vertex -16.8483 45 10
      vertex -16.9499 45 10.445
    endloop
  endfacet
  facet normal -6.12303e-17 -1 0
    outer loop
      vertex -25 45 15
      vertex -15.8678 45 11.8019
      vertex -5 45 15
    endloop
  endfacet
  facet normal -6.12303e-17 -1 0
    outer loop
      vertex -25 45 15
      vertex -16.9499 45 10.445
      vertex -15.8678 45 11.8019
    endloop
  endfacet
  facet normal -6.12303e-17 -1 0
    outer loop
      vertex -15.8678 45 11.8019
      vertex -14.1322 45 11.8019
      vertex -5 45 15
    endloop
  endfacet
  facet normal -6.12303e-17 -1 0
    outer loop
      vertex -14.1322 45 11.8019
      vertex -13.0501 45 10.445
      vertex -5 45 15
    endloop
  endfacet
  facet normal 0 0 1
    outer loop
      vertex -25 45 15
      vertex -5 45 15
      vertex -5 50 15
    endloop
  endfacet
  facet normal 0 0 1
    outer loop
      vertex -25 50 15
      vertex -25 45 15
      vertex -5 50 15
    endloop
  endfacet
  facet normal 6.12303e-17 1 0
    outer loop
      vertex -3 74.5 40
      vertex -5 74.5 40
      vertex -3 74.5 50
    endloop
  endfacet
  facet normal 6.12303e-17 1 0
    outer loop
      vertex -3 74.5 50
      vertex -5 74.5 40
      vertex -5 74.5 50
    endloop
  endfacet
  facet normal 0 0 1
    outer loop
      vertex -5 63 50
      vertex -3 63 50
      vertex -3 74.5 50
    endloop
  endfacet
  facet normal 0 0 1
    outer loop
      vertex -5 74.5 50
      vertex -5 63 50
      vertex -3 74.5 50
    endloop
  endfacet
  facet normal -6.12303e-17 -1 0
    outer loop
      vertex -5 63 40
      vertex -3 63 40
      vertex -3 63 50
    endloop
  endfacet
  facet normal -6.12303e-17 -1 0
    outer loop
      vertex -5 63 50
      vertex -5 63 40
      vertex -3 63 50
    endloop
  endfacet
  facet normal 6.12303e-17 1 0
    outer loop
      vertex -3 49.5 40
      vertex -5 49.5 40
      vertex -3 49.5 50
    endloop
  endfacet
  facet normal 6.12303e-17 1 0
    outer loop
      vertex -3 49.5 50
      vertex -5 49.5 40
      vertex -5 49.5 50
    endloop
  endfacet
  facet normal 0 0 1
    outer loop
      vertex -5 38 50
      vertex -3 38 50
      vertex -3 49.5 50
    endloop
  endfacet
  facet normal 0 0 1
    outer loop
      vertex -5 49.5 50
      vertex -5 38 50
      vertex -3 49.5 50
    endloop
  endfacet
  facet normal -6.12303e-17 -1 0
    outer loop
      vertex -5 38 40
      vertex -3 38 40
      vertex -3 38 50
    endloop
  endfacet
  facet normal -6.12303e-17 -1 0
    outer loop
      vertex -5 38 50
      vertex -5 38 40
      vertex -3 38 50
    endloop
  endfacet
  facet normal 6.12303e-17 1 0
    outer loop
      vertex -3 24.5 40
      vertex -5 24.5 40
      vertex -3 24.5 50
    endloop
  endfacet
  facet normal 6.12303e-17 1 0
    outer loop
      vertex -3 24.5 50
      vertex -5 24.5 40
      vertex -5 24.5 50
    endloop
  endfacet
  facet normal 0 0 1
    outer loop
      vertex -5 13 50
      vertex -3 13 50
      vertex -3 24.5 50
    endloop
  endfacet
  facet normal 0 0 1
    outer loop
      vertex -5 24.5 50
      vertex -5 13 50
      vertex -3 24.5 50
    endloop
  endfacet
  facet normal -6.12303e-17 -1 0
    outer loop
      vertex -5 13 40
      vertex -3 13 40
      vertex -3 13 50
    endloop
  endfacet
  facet normal -6.12303e-17 -1 0
    outer loop
      vertex -5 13 50
      vertex -5 13 40
      vertex -3 13 50
    endloop
  endfacet
  facet normal 6.12303e-17 1 0
    outer loop
      vertex -3 -0.5 40
      vertex -5 -0.5 40
      vertex -3 -0.5 50
    endloop
  endfacet
  facet normal 6.12303e-17 1 0
    outer loop
      vertex -3 -0.5 50
      vertex -5 -0.5 40
      vertex -5 -0.5 50
    endloop
  endfacet
  facet normal 0 0 1
    outer loop
      vertex -5 -12 50
      vertex -3 -12 50
      vertex -3 -0.5 50
    endloop
  endfacet
  facet normal 0 0 1
    outer loop
      vertex -5 -0.5 50
      vertex -5 -12 50
      vertex -3 -0.5 50
    endloop
  endfacet
  facet normal -6.12303e-17 -1 0
    outer loop
      vertex -5 -12 40
      vertex -3 -12 40
      vertex -3 -12 50
    endloop
  endfacet
  facet normal -6.12303e-17 -1 0
    outer loop
      vertex -5 -12 50
      vertex -5 -12 40
      vertex -3 -12 50
    endloop
  endfacet
  facet normal 1 -6.12303e-17 0
    outer loop
      vertex -3 -12 50
      vertex -3 -12 40
      vertex -3 -0.5 40
    endloop
  endfacet
  facet normal 1 -6.12303e-17 0
    outer loop
      vertex -3 -0.5 50
      vertex -3 -12 50
      vertex -3 -0.5 40
    endloop
  endfacet
  facet normal 1 -6.12303e-17 0
    outer loop
      vertex -3 13 50
      vertex -3 13 40
      vertex -3 24.5 40
    endloop
  endfacet
  facet normal 1 -6.12303e-17 0
    outer loop
      vertex -3 24.5 50
      vertex -3 13 50
      vertex -3 24.5 40
    endloop
  endfacet
  facet normal 1 -6.12303e-17 0
    outer loop
      vertex -3 38 50
      vertex -3 38 40
      vertex -3 49.5 40
    endloop
  endfacet
  facet normal 1 -6.12303e-17 0
    outer loop
      vertex -3 49.5 50
      vertex -3 38 50
      vertex -3 49.5 40
    endloop
  endfacet
  facet normal 1 -6.12303e-17 0
    outer loop
      vertex -3 63 50
      vertex -3 63 40
      vertex -3 74.5 40
    endloop
  endfacet
  facet normal 1 -6.12303e-17 0
    outer loop
      vertex -3 74.5 50
      vertex -3 63 50
      vertex -3 74.5 40
    endloop
  endfacet
  facet normal -1 6.12303e-17 0
    outer loop
      vertex -2 50.5 40
      vertex -2 50.5 50
      vertex -2 62 40
    endloop
  endfacet
  facet normal -1 6.12303e-17 0
    outer loop
      vertex -2 62 40
      vertex -2 50.5 50
      vertex -2 62 50
    endloop
  endfacet
  facet normal -1 6.12303e-17 0
    outer loop
      vertex -2 25.5 40
      vertex -2 25.5 50
      vertex -2 37 40
    endloop
  endfacet
  facet normal -1 6.12303e-17 0
    outer loop
      vertex -2 37 40
      vertex -2 25.5 50
      vertex -2 37 50
    endloop
  endfacet
  facet normal -1 6.12303e-17 0
    outer loop
      vertex -2 0.5 40
      vertex -2 0.5 50
      vertex -2 12 40
    endloop
  endfacet
  facet normal -1 6.12303e-17 0
    outer loop
      vertex -2 12 40
      vertex -2 0.5 50
      vertex -2 12 50
    endloop
  endfacet
  facet normal -1 6.12303e-17 0
    outer loop
      vertex -2 -24.5 40
      vertex -2 -24.5 50
      vertex -2 -13 40
    endloop
  endfacet
  facet normal -1 6.12303e-17 0
    outer loop
      vertex -2 -13 40
      vertex -2 -24.5 50
      vertex -2 -13 50
    endloop
  endfacet
  facet normal -1 6.12303e-17 0
    outer loop
      vertex -25 45 5
      vertex -25 45 15
      vertex -25 50 5
    endloop
  endfacet
  facet normal -1 6.12303e-17 0
    outer loop
      vertex -25 50 5
      vertex -25 45 15
      vertex -25 50 15
    endloop
  endfacet
  facet normal -0.974928 1.02856e-17 0.222521
    outer loop
      vertex -13.1517 50 10
      vertex -13.4363 50 8.75302
      vertex -13.0501 50 10.445
    endloop
  endfacet
  facet normal -0.974928 1.02856e-17 0.222521
    outer loop
      vertex -13.0501 50 10.445
      vertex -13.4363 50 8.75302
      vertex -13.4363 45 8.75302
    endloop
  endfacet
  facet normal -0.974928 1.02856e-17 0.222521
    outer loop
      vertex -13.0501 50 10.445
      vertex -13.4363 45 8.75302
      vertex -13.1517 45 10
    endloop
  endfacet
  facet normal -0.974928 1.02856e-17 0.222521
    outer loop
      vertex -13.0501 50 10.445
      vertex -13.1517 45 10
      vertex -13.0501 45 10.445
    endloop
  endfacet
  facet normal -0.433884 -1.73488e-16 0.900969
    outer loop
      vertex -13.4363 50 8.75302
      vertex -15 50 8
      vertex -15 45 8
    endloop
  endfacet
  facet normal -0.433884 -1.73488e-16 0.900969
    outer loop
      vertex -13.4363 45 8.75302
      vertex -13.4363 50 8.75302
      vertex -15 45 8
    endloop
  endfacet
  facet normal 0.433884 -2.26622e-16 0.900969
    outer loop
      vertex -15 45 8
      vertex -15 50 8
      vertex -16.5637 50 8.75302
    endloop
  endfacet
  facet normal 0.433884 -2.26622e-16 0.900969
    outer loop
      vertex -16.5637 45 8.75302
      vertex -15 45 8
      vertex -16.5637 50 8.75302
    endloop
  endfacet
  facet normal 0.974928 -1.09105e-16 0.222521
    outer loop
      vertex -16.5637 45 8.75302
      vertex -16.5637 50 8.75302
      vertex -16.8483 50 10
    endloop
  endfacet
  facet normal 0.974928 -1.09105e-16 0.222521
    outer loop
      vertex -16.9499 45 10.445
      vertex -16.5637 45 8.75302
      vertex -16.9499 50 10.445
    endloop
  endfacet
  facet normal 0.974928 -1.09105e-16 0.222521
    outer loop
      vertex -16.9499 50 10.445
      vertex -16.5637 45 8.75302
      vertex -16.8483 50 10
    endloop
  endfacet
  facet normal 0.974928 -1.09105e-16 0.222521
    outer loop
      vertex -16.8483 45 10
      vertex -16.5637 45 8.75302
      vertex -16.9499 45 10.445
    endloop
  endfacet
  facet normal -6.12303e-17 -1 -2.22045e-16
    outer loop
      vertex -15.8678 50 11.8019
      vertex -16.9499 50 10.445
      vertex -16.8483 50 10
    endloop
  endfacet
  facet normal -6.12303e-17 -1 -2.22045e-16
    outer loop
      vertex -13.0501 50 10.445
      vertex -15.8678 50 11.8019
      vertex -13.1517 50 10
    endloop
  endfacet
  facet normal -6.12303e-17 -1 -2.22045e-16
    outer loop
      vertex -13.1517 50 10
      vertex -15.8678 50 11.8019
      vertex -16.8483 50 10
    endloop
  endfacet
  facet normal -6.12303e-17 -1 -2.22045e-16
    outer loop
      vertex -14.1322 50 11.8019
      vertex -15.8678 50 11.8019
      vertex -13.0501 50 10.445
    endloop
  endfacet
  facet normal -1 6.12303e-17 0
    outer loop
      vertex -25 1.53076e-15 5
      vertex -25 1.53076e-15 15
      vertex -25 5 5
    endloop
  endfacet
  facet normal -1 6.12303e-17 0
    outer loop
      vertex -25 5 5
      vertex -25 1.53076e-15 15
      vertex -25 5 15
    endloop
  endfacet
  facet normal -0.781831 1.86314e-16 -0.62349
    outer loop
      vertex -14.1322 5 11.8019
      vertex -13.0501 5 10.445
      vertex -14.1322 8.65321e-16 11.8019
    endloop
  endfacet
  facet normal -0.781831 1.86314e-16 -0.62349
    outer loop
      vertex -14.1322 8.65321e-16 11.8019
      vertex -13.0501 5 10.445
      vertex -13.0501 7.99064e-16 10.445
    endloop
  endfacet
  facet normal -0.974928 1.02856e-17 0.222521
    outer loop
      vertex -13.1517 5 10
      vertex -13.4363 5 8.75302
      vertex -13.0501 5 10.445
    endloop
  endfacet
  facet normal -0.974928 1.02856e-17 0.222521
    outer loop
      vertex -13.0501 5 10.445
      vertex -13.4363 5 8.75302
      vertex -13.4363 1.0996e-15 8.75302
    endloop
  endfacet
  facet normal -0.974928 1.02856e-17 0.222521
    outer loop
      vertex -13.0501 5 10.445
      vertex -13.4363 1.0996e-15 8.75302
      vertex -13.1517 8.05284e-16 10
    endloop
  endfacet
  facet normal -0.974928 1.02856e-17 0.222521
    outer loop
      vertex -13.0501 5 10.445
      vertex -13.1517 8.05284e-16 10
      vertex -13.0501 7.99064e-16 10.445
    endloop
  endfacet
  facet normal 1.35959e-32 2.22045e-16 -1
    outer loop
      vertex -15.8678 5 11.8019
      vertex -14.1322 5 11.8019
      vertex -15.8678 9.71588e-16 11.8019
    endloop
  endfacet
  facet normal 1.35959e-32 2.22045e-16 -1
    outer loop
      vertex -15.8678 9.71588e-16 11.8019
      vertex -14.1322 5 11.8019
      vertex -14.1322 8.65321e-16 11.8019
    endloop
  endfacet
  facet normal 0.781831 9.05708e-17 -0.62349
    outer loop
      vertex -16.9499 1.03785e-15 10.445
      vertex -16.9499 5 10.445
      vertex -15.8678 5 11.8019
    endloop
  endfacet
  facet normal 0.781831 9.05708e-17 -0.62349
    outer loop
      vertex -15.8678 9.71588e-16 11.8019
      vertex -16.9499 1.03785e-15 10.445
      vertex -15.8678 5 11.8019
    endloop
  endfacet
  facet normal 0.974928 -1.09105e-16 0.222521
    outer loop
      vertex -16.5637 1.29108e-15 8.75302
      vertex -16.5637 5 8.75302
      vertex -16.8483 5 10
    endloop
  endfacet
  facet normal 0.974928 -1.09105e-16 0.222521
    outer loop
      vertex -16.9499 1.03785e-15 10.445
      vertex -16.5637 1.29108e-15 8.75302
      vertex -16.9499 5 10.445
    endloop
  endfacet
  facet normal 0.974928 -1.09105e-16 0.222521
    outer loop
      vertex -16.9499 5 10.445
      vertex -16.5637 1.29108e-15 8.75302
      vertex -16.8483 5 10
    endloop
  endfacet
  facet normal 0.974928 -1.09105e-16 0.222521
    outer loop
      vertex -16.8483 1.03163e-15 10
      vertex -16.5637 1.29108e-15 8.75302
      vertex -16.9499 1.03785e-15 10.445
    endloop
  endfacet
  facet normal 6.12303e-17 1 2.22045e-16
    outer loop
      vertex -15 1.36254e-15 8
      vertex -16.5637 1.29108e-15 8.75302
      vertex -13.4363 1.0996e-15 8.75302
    endloop
  endfacet
  facet normal 6.12303e-17 1 2.22045e-16
    outer loop
      vertex -13.4363 1.0996e-15 8.75302
      vertex -16.5637 1.29108e-15 8.75302
      vertex -16.8483 1.03163e-15 10
    endloop
  endfacet
  facet normal 6.12303e-17 1 2.22045e-16
    outer loop
      vertex -13.4363 1.0996e-15 8.75302
      vertex -16.8483 1.03163e-15 10
      vertex -13.1517 8.05284e-16 10
    endloop
  endfacet
  facet normal -0.433884 -1.73488e-16 0.900969
    outer loop
      vertex -13.4363 5 8.75302
      vertex -15 5 8
      vertex -15 1.36254e-15 8
    endloop
  endfacet
  facet normal -0.433884 -1.73488e-16 0.900969
    outer loop
      vertex -13.4363 1.0996e-15 8.75302
      vertex -13.4363 5 8.75302
      vertex -15 1.36254e-15 8
    endloop
  endfacet
  facet normal 0.433884 -2.26622e-16 0.900969
    outer loop
      vertex -15 1.36254e-15 8
      vertex -15 5 8
      vertex -16.5637 5 8.75302
    endloop
  endfacet
  facet normal 0.433884 -2.26622e-16 0.900969
    outer loop
      vertex -16.5637 1.29108e-15 8.75302
      vertex -15 1.36254e-15 8
      vertex -16.5637 5 8.75302
    endloop
  endfacet
  facet normal -6.12303e-17 -1 -2.22045e-16
    outer loop
      vertex -15.8678 5 11.8019
      vertex -16.9499 5 10.445
      vertex -16.8483 5 10
    endloop
  endfacet
  facet normal -6.12303e-17 -1 -2.22045e-16
    outer loop
      vertex -13.0501 5 10.445
      vertex -15.8678 5 11.8019
      vertex -13.1517 5 10
    endloop
  endfacet
  facet normal -6.12303e-17 -1 -2.22045e-16
    outer loop
      vertex -13.1517 5 10
      vertex -15.8678 5 11.8019
      vertex -16.8483 5 10
    endloop
  endfacet
  facet normal -6.12303e-17 -1 -2.22045e-16
    outer loop
      vertex -14.1322 5 11.8019
      vertex -15.8678 5 11.8019
      vertex -13.0501 5 10.445
    endloop
  endfacet
  facet normal -0.781831 1.86314e-16 -0.62349
    outer loop
      vertex -14.1322 50 11.8019
      vertex -13.0501 50 10.445
      vertex -14.1322 45 11.8019
    endloop
  endfacet
  facet normal -0.781831 1.86314e-16 -0.62349
    outer loop
      vertex -14.1322 45 11.8019
      vertex -13.0501 50 10.445
      vertex -13.0501 45 10.445
    endloop
  endfacet
  facet normal 1.35959e-32 2.22045e-16 -1
    outer loop
      vertex -15.8678 50 11.8019
      vertex -14.1322 50 11.8019
      vertex -15.8678 45 11.8019
    endloop
  endfacet
  facet normal 1.35959e-32 2.22045e-16 -1
    outer loop
      vertex -15.8678 45 11.8019
      vertex -14.1322 50 11.8019
      vertex -14.1322 45 11.8019
    endloop
  endfacet
  facet normal 0.781831 9.05708e-17 -0.62349
    outer loop
      vertex -16.9499 45 10.445
      vertex -16.9499 50 10.445
      vertex -15.8678 50 11.8019
    endloop
  endfacet
  facet normal 0.781831 9.05708e-17 -0.62349
    outer loop
      vertex -15.8678 45 11.8019
      vertex -16.9499 45 10.445
      vertex -15.8678 50 11.8019
    endloop
  endfacet
  facet normal 6.12303e-17 1 2.22045e-16
    outer loop
      vertex -15 45 8
      vertex -16.5637 45 8.75302
      vertex -13.4363 45 8.75302
    endloop
  endfacet
  facet normal 6.12303e-17 1 2.22045e-16
    outer loop
      vertex -13.4363 45 8.75302
      vertex -16.5637 45 8.75302
      vertex -16.8483 45 10
    endloop
  endfacet
  facet normal 6.12303e-17 1 2.22045e-16
    outer loop
      vertex -13.4363 45 8.75302
      vertex -16.8483 45 10
      vertex -13.1517 45 10
    endloop
  endfacet
endsolid OpenSCAD_Model
