solid OpenSCAD_Model
  facet normal -0 0 -1
    outer loop
      vertex -29.2335 13.0156 6
      vertex -25.8885 18.8091 6
      vertex -31.3007 6.65317 6
    endloop
  endfacet
  facet normal 0 0 -1
    outer loop
      vertex -31.3007 6.65317 6
      vertex -25.8885 18.8091 6
      vertex -21.4122 23.7806 6
    endloop
  endfacet
  facet normal 0 0 -1
    outer loop
      vertex -31.3007 6.65317 6
      vertex -21.4122 23.7806 6
      vertex -16 27.7128 6
    endloop
  endfacet
  facet normal 0 0 -1
    outer loop
      vertex -31.3007 6.65317 6
      vertex -16 27.7128 6
      vertex -9.88854 30.4338 6
    endloop
  endfacet
  facet normal 0 0 -1
    outer loop
      vertex -31.3007 6.65317 6
      vertex -9.88854 30.4338 6
      vertex -3.34491 31.8247 6
    endloop
  endfacet
  facet normal 0 0 -1
    outer loop
      vertex -12.5 21.6506 6
      vertex -3.34491 31.8247 6
      vertex 3.34491 31.8247 6
    endloop
  endfacet
  facet normal 0 0 -1
    outer loop
      vertex -2.61321 24.863 6
      vertex 3.34491 31.8247 6
      vertex 9.88854 30.4338 6
    endloop
  endfacet
  facet normal 0 0 -1
    outer loop
      vertex 2.61321 24.863 6
      vertex 9.88854 30.4338 6
      vertex 16 27.7128 6
    endloop
  endfacet
  facet normal 0 0 -1
    outer loop
      vertex 12.5 21.6506 6
      vertex 16 27.7128 6
      vertex 21.4122 23.7806 6
    endloop
  endfacet
  facet normal 0 0 -1
    outer loop
      vertex 16.7283 18.5786 6
      vertex 21.4122 23.7806 6
      vertex 25.8885 18.8091 6
    endloop
  endfacet
  facet normal -0 0 -1
    outer loop
      vertex 20.2254 14.6946 6
      vertex 25.8885 18.8091 6
      vertex 29.2335 13.0156 6
    endloop
  endfacet
  facet normal -0 0 -1
    outer loop
      vertex 22.8386 10.1684 6
      vertex 29.2335 13.0156 6
      vertex 31.3007 6.65317 6
    endloop
  endfacet
  facet normal -0 0 -1
    outer loop
      vertex 24.4537 5.19779 6
      vertex 31.3007 6.65317 6
      vertex 32 0 6
    endloop
  endfacet
  facet normal -0 0 -1
    outer loop
      vertex 24.4537 -5.19779 6
      vertex 32 0 6
      vertex 31.3007 -6.65317 6
    endloop
  endfacet
  facet normal -0 0 -1
    outer loop
      vertex 22.8386 -10.1684 6
      vertex 31.3007 -6.65317 6
      vertex 29.2335 -13.0156 6
    endloop
  endfacet
  facet normal -0 0 -1
    outer loop
      vertex 20.2254 -14.6946 6
      vertex 29.2335 -13.0156 6
      vertex 25.8885 -18.8091 6
    endloop
  endfacet
  facet normal 0 0 -1
    outer loop
      vertex 16.7283 -18.5786 6
      vertex 25.8885 -18.8091 6
      vertex 21.4122 -23.7806 6
    endloop
  endfacet
  facet normal 0 0 -1
    outer loop
      vertex 12.5 -21.6506 6
      vertex 21.4122 -23.7806 6
      vertex 16 -27.7128 6
    endloop
  endfacet
  facet normal 0 0 -1
    outer loop
      vertex 7.72542 -23.7764 6
      vertex 16 -27.7128 6
      vertex 9.88854 -30.4338 6
    endloop
  endfacet
  facet normal 0 0 -1
    outer loop
      vertex -2.61321 -24.863 6
      vertex 9.88854 -30.4338 6
      vertex 3.34491 -31.8247 6
    endloop
  endfacet
  facet normal 0 0 -1
    outer loop
      vertex -7.72542 -23.7764 6
      vertex 3.34491 -31.8247 6
      vertex -3.34491 -31.8247 6
    endloop
  endfacet
  facet normal 0 0 -1
    outer loop
      vertex -16.7283 -18.5786 6
      vertex -3.34491 -31.8247 6
      vertex -9.88854 -30.4338 6
    endloop
  endfacet
  facet normal 0 0 -1
    outer loop
      vertex -20.2254 -14.6946 6
      vertex -9.88854 -30.4338 6
      vertex -16 -27.7128 6
    endloop
  endfacet
  facet normal 0 0 -1
    outer loop
      vertex -31.3007 6.65317 6
      vertex -16 -27.7128 6
      vertex -21.4122 -23.7806 6
    endloop
  endfacet
  facet normal 0 0 -1
    outer loop
      vertex -31.3007 6.65317 6
      vertex -21.4122 -23.7806 6
      vertex -25.8885 -18.8091 6
    endloop
  endfacet
  facet normal 0 0 -1
    outer loop
      vertex -31.3007 6.65317 6
      vertex -25.8885 -18.8091 6
      vertex -29.2335 -13.0156 6
    endloop
  endfacet
  facet normal 0 0 -1
    outer loop
      vertex -31.3007 6.65317 6
      vertex -29.2335 -13.0156 6
      vertex -31.3007 -6.65317 6
    endloop
  endfacet
  facet normal 0 0 -1
    outer loop
      vertex -31.3007 6.65317 6
      vertex -31.3007 -6.65317 6
      vertex -32 0 6
    endloop
  endfacet
  facet normal 0 0 -1
    outer loop
      vertex -22.8386 -10.1684 6
      vertex -31.3007 6.65317 6
      vertex -24.4537 -5.19779 6
    endloop
  endfacet
  facet normal 0 0 -1
    outer loop
      vertex -16.7283 -18.5786 6
      vertex -9.88854 -30.4338 6
      vertex -20.2254 -14.6946 6
    endloop
  endfacet
  facet normal 0 0 -1
    outer loop
      vertex -31.3007 6.65317 6
      vertex -22.8386 -10.1684 6
      vertex -16 -27.7128 6
    endloop
  endfacet
  facet normal 0 0 -1
    outer loop
      vertex -22.8386 -10.1684 6
      vertex -20.2254 -14.6946 6
      vertex -16 -27.7128 6
    endloop
  endfacet
  facet normal 0 0 -1
    outer loop
      vertex -12.5 -21.6506 6
      vertex -3.34491 -31.8247 6
      vertex -16.7283 -18.5786 6
    endloop
  endfacet
  facet normal 0 0 -1
    outer loop
      vertex -7.72542 -23.7764 6
      vertex -3.34491 -31.8247 6
      vertex -12.5 -21.6506 6
    endloop
  endfacet
  facet normal 0 0 -1
    outer loop
      vertex 2.61321 -24.863 6
      vertex 9.88854 -30.4338 6
      vertex -2.61321 -24.863 6
    endloop
  endfacet
  facet normal 0 0 -1
    outer loop
      vertex 12.5 -21.6506 6
      vertex 16 -27.7128 6
      vertex 7.72542 -23.7764 6
    endloop
  endfacet
  facet normal 0 0 -1
    outer loop
      vertex 16.7283 -18.5786 6
      vertex 21.4122 -23.7806 6
      vertex 12.5 -21.6506 6
    endloop
  endfacet
  facet normal 0 0 -1
    outer loop
      vertex 20.2254 -14.6946 6
      vertex 25.8885 -18.8091 6
      vertex 16.7283 -18.5786 6
    endloop
  endfacet
  facet normal 0 -0 -1
    outer loop
      vertex -25 0 6
      vertex -31.3007 6.65317 6
      vertex -24.4537 5.19779 6
    endloop
  endfacet
  facet normal 0 0 -1
    outer loop
      vertex 22.8386 -10.1684 6
      vertex 29.2335 -13.0156 6
      vertex 20.2254 -14.6946 6
    endloop
  endfacet
  facet normal 0 0 -1
    outer loop
      vertex 24.4537 -5.19779 6
      vertex 31.3007 -6.65317 6
      vertex 22.8386 -10.1684 6
    endloop
  endfacet
  facet normal 0 0 -1
    outer loop
      vertex 25 0 6
      vertex 32 0 6
      vertex 24.4537 -5.19779 6
    endloop
  endfacet
  facet normal 0 0 -1
    outer loop
      vertex 24.4537 5.19779 6
      vertex 32 0 6
      vertex 25 0 6
    endloop
  endfacet
  facet normal 0 0 -1
    outer loop
      vertex 22.8386 10.1684 6
      vertex 31.3007 6.65317 6
      vertex 24.4537 5.19779 6
    endloop
  endfacet
  facet normal 0 0 -1
    outer loop
      vertex 20.2254 14.6946 6
      vertex 29.2335 13.0156 6
      vertex 22.8386 10.1684 6
    endloop
  endfacet
  facet normal -0 0 -1
    outer loop
      vertex 16.7283 18.5786 6
      vertex 25.8885 18.8091 6
      vertex 20.2254 14.6946 6
    endloop
  endfacet
  facet normal -0 0 -1
    outer loop
      vertex 12.5 21.6506 6
      vertex 21.4122 23.7806 6
      vertex 16.7283 18.5786 6
    endloop
  endfacet
  facet normal -0 0 -1
    outer loop
      vertex 7.72542 23.7764 6
      vertex 16 27.7128 6
      vertex 12.5 21.6506 6
    endloop
  endfacet
  facet normal -0 0 -1
    outer loop
      vertex 2.61321 24.863 6
      vertex 16 27.7128 6
      vertex 7.72542 23.7764 6
    endloop
  endfacet
  facet normal -0 0 -1
    outer loop
      vertex -2.61321 24.863 6
      vertex 9.88854 30.4338 6
      vertex 2.61321 24.863 6
    endloop
  endfacet
  facet normal 0 0 -1
    outer loop
      vertex -7.72542 23.7764 6
      vertex 3.34491 31.8247 6
      vertex -2.61321 24.863 6
    endloop
  endfacet
  facet normal 0 0 -1
    outer loop
      vertex -12.5 21.6506 6
      vertex 3.34491 31.8247 6
      vertex -7.72542 23.7764 6
    endloop
  endfacet
  facet normal 0 0 -1
    outer loop
      vertex -16.7283 18.5786 6
      vertex -3.34491 31.8247 6
      vertex -12.5 21.6506 6
    endloop
  endfacet
  facet normal 0 -0 -1
    outer loop
      vertex -20.2254 14.6946 6
      vertex -31.3007 6.65317 6
      vertex -16.7283 18.5786 6
    endloop
  endfacet
  facet normal 0 0 -1
    outer loop
      vertex -31.3007 6.65317 6
      vertex -3.34491 31.8247 6
      vertex -16.7283 18.5786 6
    endloop
  endfacet
  facet normal 0 -0 -1
    outer loop
      vertex -22.8386 10.1684 6
      vertex -31.3007 6.65317 6
      vertex -20.2254 14.6946 6
    endloop
  endfacet
  facet normal 0 -0 -1
    outer loop
      vertex -24.4537 5.19779 6
      vertex -31.3007 6.65317 6
      vertex -22.8386 10.1684 6
    endloop
  endfacet
  facet normal 0 0 -1
    outer loop
      vertex -24.4537 -5.19779 6
      vertex -31.3007 6.65317 6
      vertex -25 0 6
    endloop
  endfacet
  facet normal 0 0 -1
    outer loop
      vertex 7.72542 -23.7764 6
      vertex 9.88854 -30.4338 6
      vertex 2.61321 -24.863 6
    endloop
  endfacet
  facet normal 0 0 -1
    outer loop
      vertex -2.61321 -24.863 6
      vertex 3.34491 -31.8247 6
      vertex -7.72542 -23.7764 6
    endloop
  endfacet
  facet normal -0.994522 0.104528 0
    outer loop
      vertex -32 0 6
      vertex -32 0 12
      vertex -31.3007 6.65317 6
    endloop
  endfacet
  facet normal -0.994522 0.104528 0
    outer loop
      vertex -31.3007 6.65317 6
      vertex -32 0 12
      vertex -31.3007 6.65317 12
    endloop
  endfacet
  facet normal -0.994522 -0.104528 -0
    outer loop
      vertex -32 0 6
      vertex -31.3007 -6.65317 6
      vertex -32 0 12
    endloop
  endfacet
  facet normal -0.994522 -0.104528 0
    outer loop
      vertex -32 0 12
      vertex -31.3007 -6.65317 6
      vertex -31.3007 -6.65317 12
    endloop
  endfacet
  facet normal -0.951057 0.309017 0
    outer loop
      vertex -31.3007 6.65317 6
      vertex -31.3007 6.65317 12
      vertex -29.2335 13.0156 6
    endloop
  endfacet
  facet normal -0.951057 0.309017 0
    outer loop
      vertex -29.2335 13.0156 6
      vertex -31.3007 6.65317 12
      vertex -29.2335 13.0156 12
    endloop
  endfacet
  facet normal -0.951057 -0.309017 -0
    outer loop
      vertex -31.3007 -6.65317 6
      vertex -29.2335 -13.0156 6
      vertex -31.3007 -6.65317 12
    endloop
  endfacet
  facet normal -0.951057 -0.309017 0
    outer loop
      vertex -31.3007 -6.65317 12
      vertex -29.2335 -13.0156 6
      vertex -29.2335 -13.0156 12
    endloop
  endfacet
  facet normal -0.866025 -0.5 -0
    outer loop
      vertex -29.2335 -13.0156 6
      vertex -25.8885 -18.8091 6
      vertex -29.2335 -13.0156 12
    endloop
  endfacet
  facet normal -0.866025 -0.5 0
    outer loop
      vertex -29.2335 -13.0156 12
      vertex -25.8885 -18.8091 6
      vertex -25.8885 -18.8091 12
    endloop
  endfacet
  facet normal -0.743145 -0.669131 -0
    outer loop
      vertex -25.8885 -18.8091 6
      vertex -21.4122 -23.7806 6
      vertex -25.8885 -18.8091 12
    endloop
  endfacet
  facet normal -0.743145 -0.669131 0
    outer loop
      vertex -25.8885 -18.8091 12
      vertex -21.4122 -23.7806 6
      vertex -21.4122 -23.7806 12
    endloop
  endfacet
  facet normal -0.587785 -0.809017 0
    outer loop
      vertex -21.4122 -23.7806 12
      vertex -21.4122 -23.7806 6
      vertex -16 -27.7128 6
    endloop
  endfacet
  facet normal -0.587785 -0.809017 0
    outer loop
      vertex -16 -27.7128 12
      vertex -21.4122 -23.7806 12
      vertex -16 -27.7128 6
    endloop
  endfacet
  facet normal -0.406737 -0.913545 0
    outer loop
      vertex -16 -27.7128 12
      vertex -16 -27.7128 6
      vertex -9.88854 -30.4338 6
    endloop
  endfacet
  facet normal -0.406737 -0.913545 0
    outer loop
      vertex -9.88854 -30.4338 12
      vertex -16 -27.7128 12
      vertex -9.88854 -30.4338 6
    endloop
  endfacet
  facet normal -0.207912 -0.978148 0
    outer loop
      vertex -9.88854 -30.4338 12
      vertex -9.88854 -30.4338 6
      vertex -3.34491 -31.8247 6
    endloop
  endfacet
  facet normal -0.207912 -0.978148 0
    outer loop
      vertex -3.34491 -31.8247 12
      vertex -9.88854 -30.4338 12
      vertex -3.34491 -31.8247 6
    endloop
  endfacet
  facet normal 0 -1 0
    outer loop
      vertex -3.34491 -31.8247 12
      vertex -3.34491 -31.8247 6
      vertex 3.34491 -31.8247 6
    endloop
  endfacet
  facet normal 0 -1 0
    outer loop
      vertex 3.34491 -31.8247 12
      vertex -3.34491 -31.8247 12
      vertex 3.34491 -31.8247 6
    endloop
  endfacet
  facet normal 0.207912 -0.978148 0
    outer loop
      vertex 3.34491 -31.8247 12
      vertex 3.34491 -31.8247 6
      vertex 9.88854 -30.4338 6
    endloop
  endfacet
  facet normal 0.207912 -0.978148 0
    outer loop
      vertex 9.88854 -30.4338 12
      vertex 3.34491 -31.8247 12
      vertex 9.88854 -30.4338 6
    endloop
  endfacet
  facet normal 0.406737 -0.913545 0
    outer loop
      vertex 9.88854 -30.4338 12
      vertex 9.88854 -30.4338 6
      vertex 16 -27.7128 6
    endloop
  endfacet
  facet normal 0.406737 -0.913545 0
    outer loop
      vertex 16 -27.7128 12
      vertex 9.88854 -30.4338 12
      vertex 16 -27.7128 6
    endloop
  endfacet
  facet normal 0.587785 -0.809017 0
    outer loop
      vertex 16 -27.7128 12
      vertex 16 -27.7128 6
      vertex 21.4122 -23.7806 6
    endloop
  endfacet
  facet normal 0.587785 -0.809017 0
    outer loop
      vertex 21.4122 -23.7806 12
      vertex 16 -27.7128 12
      vertex 21.4122 -23.7806 6
    endloop
  endfacet
  facet normal 0.743145 -0.669131 0
    outer loop
      vertex 21.4122 -23.7806 12
      vertex 21.4122 -23.7806 6
      vertex 25.8885 -18.8091 6
    endloop
  endfacet
  facet normal 0.743145 -0.669131 0
    outer loop
      vertex 25.8885 -18.8091 12
      vertex 21.4122 -23.7806 12
      vertex 25.8885 -18.8091 6
    endloop
  endfacet
  facet normal 0.866025 -0.5 0
    outer loop
      vertex 25.8885 -18.8091 12
      vertex 25.8885 -18.8091 6
      vertex 29.2335 -13.0156 6
    endloop
  endfacet
  facet normal 0.866025 -0.5 0
    outer loop
      vertex 29.2335 -13.0156 12
      vertex 25.8885 -18.8091 12
      vertex 29.2335 -13.0156 6
    endloop
  endfacet
  facet normal 0.951057 -0.309017 0
    outer loop
      vertex 29.2335 -13.0156 12
      vertex 29.2335 -13.0156 6
      vertex 31.3007 -6.65317 6
    endloop
  endfacet
  facet normal 0.951057 -0.309017 0
    outer loop
      vertex 31.3007 -6.65317 12
      vertex 29.2335 -13.0156 12
      vertex 31.3007 -6.65317 6
    endloop
  endfacet
  facet normal 0.994522 -0.104528 0
    outer loop
      vertex 31.3007 -6.65317 12
      vertex 31.3007 -6.65317 6
      vertex 32 0 6
    endloop
  endfacet
  facet normal 0.994522 -0.104528 0
    outer loop
      vertex 32 0 12
      vertex 31.3007 -6.65317 12
      vertex 32 0 6
    endloop
  endfacet
  facet normal 0.994522 0.104528 0
    outer loop
      vertex 32 0 6
      vertex 31.3007 6.65317 6
      vertex 31.3007 6.65317 12
    endloop
  endfacet
  facet normal 0.994522 0.104528 -0
    outer loop
      vertex 32 0 12
      vertex 32 0 6
      vertex 31.3007 6.65317 12
    endloop
  endfacet
  facet normal 0.951057 0.309017 0
    outer loop
      vertex 31.3007 6.65317 6
      vertex 29.2335 13.0156 6
      vertex 29.2335 13.0156 12
    endloop
  endfacet
  facet normal 0.951057 0.309017 -0
    outer loop
      vertex 31.3007 6.65317 12
      vertex 31.3007 6.65317 6
      vertex 29.2335 13.0156 12
    endloop
  endfacet
  facet normal 0.866025 0.5 0
    outer loop
      vertex 29.2335 13.0156 6
      vertex 25.8885 18.8091 6
      vertex 25.8885 18.8091 12
    endloop
  endfacet
  facet normal 0.866025 0.5 -0
    outer loop
      vertex 29.2335 13.0156 12
      vertex 29.2335 13.0156 6
      vertex 25.8885 18.8091 12
    endloop
  endfacet
  facet normal 0.743145 0.669131 0
    outer loop
      vertex 25.8885 18.8091 6
      vertex 21.4122 23.7806 6
      vertex 21.4122 23.7806 12
    endloop
  endfacet
  facet normal 0.743145 0.669131 -0
    outer loop
      vertex 25.8885 18.8091 12
      vertex 25.8885 18.8091 6
      vertex 21.4122 23.7806 12
    endloop
  endfacet
  facet normal 0.587785 0.809017 0
    outer loop
      vertex 16 27.7128 6
      vertex 16 27.7128 12
      vertex 21.4122 23.7806 6
    endloop
  endfacet
  facet normal 0.587785 0.809017 0
    outer loop
      vertex 21.4122 23.7806 6
      vertex 16 27.7128 12
      vertex 21.4122 23.7806 12
    endloop
  endfacet
  facet normal 0.406737 0.913545 0
    outer loop
      vertex 9.88854 30.4338 6
      vertex 9.88854 30.4338 12
      vertex 16 27.7128 6
    endloop
  endfacet
  facet normal 0.406737 0.913545 0
    outer loop
      vertex 16 27.7128 6
      vertex 9.88854 30.4338 12
      vertex 16 27.7128 12
    endloop
  endfacet
  facet normal 0.207912 0.978148 0
    outer loop
      vertex 3.34491 31.8247 6
      vertex 3.34491 31.8247 12
      vertex 9.88854 30.4338 6
    endloop
  endfacet
  facet normal 0.207912 0.978148 0
    outer loop
      vertex 9.88854 30.4338 6
      vertex 3.34491 31.8247 12
      vertex 9.88854 30.4338 12
    endloop
  endfacet
  facet normal 0 1 0
    outer loop
      vertex -3.34491 31.8247 6
      vertex -3.34491 31.8247 12
      vertex 3.34491 31.8247 6
    endloop
  endfacet
  facet normal 0 1 0
    outer loop
      vertex 3.34491 31.8247 6
      vertex -3.34491 31.8247 12
      vertex 3.34491 31.8247 12
    endloop
  endfacet
  facet normal -0.207912 0.978148 0
    outer loop
      vertex -9.88854 30.4338 6
      vertex -9.88854 30.4338 12
      vertex -3.34491 31.8247 6
    endloop
  endfacet
  facet normal -0.207912 0.978148 0
    outer loop
      vertex -3.34491 31.8247 6
      vertex -9.88854 30.4338 12
      vertex -3.34491 31.8247 12
    endloop
  endfacet
  facet normal -0.406737 0.913545 0
    outer loop
      vertex -16 27.7128 6
      vertex -16 27.7128 12
      vertex -9.88854 30.4338 6
    endloop
  endfacet
  facet normal -0.406737 0.913545 0
    outer loop
      vertex -9.88854 30.4338 6
      vertex -16 27.7128 12
      vertex -9.88854 30.4338 12
    endloop
  endfacet
  facet normal -0.587785 0.809017 0
    outer loop
      vertex -21.4122 23.7806 6
      vertex -21.4122 23.7806 12
      vertex -16 27.7128 6
    endloop
  endfacet
  facet normal -0.587785 0.809017 0
    outer loop
      vertex -16 27.7128 6
      vertex -21.4122 23.7806 12
      vertex -16 27.7128 12
    endloop
  endfacet
  facet normal -0.743145 0.669131 0
    outer loop
      vertex -25.8885 18.8091 6
      vertex -25.8885 18.8091 12
      vertex -21.4122 23.7806 6
    endloop
  endfacet
  facet normal -0.743145 0.669131 0
    outer loop
      vertex -21.4122 23.7806 6
      vertex -25.8885 18.8091 12
      vertex -21.4122 23.7806 12
    endloop
  endfacet
  facet normal -0.866025 0.5 0
    outer loop
      vertex -29.2335 13.0156 6
      vertex -29.2335 13.0156 12
      vertex -25.8885 18.8091 6
    endloop
  endfacet
  facet normal -0.866025 0.5 0
    outer loop
      vertex -25.8885 18.8091 6
      vertex -29.2335 13.0156 12
      vertex -25.8885 18.8091 12
    endloop
  endfacet
  facet normal -0.951056 -0.309017 -0
    outer loop
      vertex -24.4537 -5.19779 0
      vertex -22.8386 -10.1684 0
      vertex -24.4537 -5.19779 6
    endloop
  endfacet
  facet normal -0.951056 -0.309017 0
    outer loop
      vertex -24.4537 -5.19779 6
      vertex -22.8386 -10.1684 0
      vertex -22.8386 -10.1684 6
    endloop
  endfacet
  facet normal -0.994522 -0.104528 -0
    outer loop
      vertex -25 0 0
      vertex -24.4537 -5.19779 0
      vertex -25 0 6
    endloop
  endfacet
  facet normal -0.994522 -0.104528 0
    outer loop
      vertex -25 0 6
      vertex -24.4537 -5.19779 0
      vertex -24.4537 -5.19779 6
    endloop
  endfacet
  facet normal -0.994522 0.104528 0
    outer loop
      vertex -25 0 0
      vertex -25 0 6
      vertex -24.4537 5.19779 0
    endloop
  endfacet
  facet normal -0.994522 0.104528 0
    outer loop
      vertex -24.4537 5.19779 0
      vertex -25 0 6
      vertex -24.4537 5.19779 6
    endloop
  endfacet
  facet normal -0.951056 0.309017 0
    outer loop
      vertex -24.4537 5.19779 0
      vertex -24.4537 5.19779 6
      vertex -22.8386 10.1684 0
    endloop
  endfacet
  facet normal -0.951056 0.309017 0
    outer loop
      vertex -22.8386 10.1684 0
      vertex -24.4537 5.19779 6
      vertex -22.8386 10.1684 6
    endloop
  endfacet
  facet normal -0.866025 0.5 0
    outer loop
      vertex -22.8386 10.1684 0
      vertex -22.8386 10.1684 6
      vertex -20.2254 14.6946 0
    endloop
  endfacet
  facet normal -0.866025 0.5 0
    outer loop
      vertex -20.2254 14.6946 0
      vertex -22.8386 10.1684 6
      vertex -20.2254 14.6946 6
    endloop
  endfacet
  facet normal -0.743145 0.669131 0
    outer loop
      vertex -20.2254 14.6946 0
      vertex -20.2254 14.6946 6
      vertex -16.7283 18.5786 0
    endloop
  endfacet
  facet normal -0.743145 0.669131 0
    outer loop
      vertex -16.7283 18.5786 0
      vertex -20.2254 14.6946 6
      vertex -16.7283 18.5786 6
    endloop
  endfacet
  facet normal -0.587785 0.809017 0
    outer loop
      vertex -16.7283 18.5786 0
      vertex -16.7283 18.5786 6
      vertex -12.5 21.6506 0
    endloop
  endfacet
  facet normal -0.587785 0.809017 0
    outer loop
      vertex -12.5 21.6506 0
      vertex -16.7283 18.5786 6
      vertex -12.5 21.6506 6
    endloop
  endfacet
  facet normal -0.406737 0.913545 0
    outer loop
      vertex -12.5 21.6506 0
      vertex -12.5 21.6506 6
      vertex -7.72542 23.7764 0
    endloop
  endfacet
  facet normal -0.406737 0.913545 0
    outer loop
      vertex -7.72542 23.7764 0
      vertex -12.5 21.6506 6
      vertex -7.72542 23.7764 6
    endloop
  endfacet
  facet normal -0.207912 0.978148 0
    outer loop
      vertex -7.72542 23.7764 0
      vertex -7.72542 23.7764 6
      vertex -2.61321 24.863 0
    endloop
  endfacet
  facet normal -0.207912 0.978148 0
    outer loop
      vertex -2.61321 24.863 0
      vertex -7.72542 23.7764 6
      vertex -2.61321 24.863 6
    endloop
  endfacet
  facet normal 0 1 0
    outer loop
      vertex -2.61321 24.863 0
      vertex -2.61321 24.863 6
      vertex 2.61321 24.863 0
    endloop
  endfacet
  facet normal 0 1 0
    outer loop
      vertex 2.61321 24.863 0
      vertex -2.61321 24.863 6
      vertex 2.61321 24.863 6
    endloop
  endfacet
  facet normal 0.207912 0.978148 0
    outer loop
      vertex 2.61321 24.863 0
      vertex 2.61321 24.863 6
      vertex 7.72542 23.7764 0
    endloop
  endfacet
  facet normal 0.207912 0.978148 0
    outer loop
      vertex 7.72542 23.7764 0
      vertex 2.61321 24.863 6
      vertex 7.72542 23.7764 6
    endloop
  endfacet
  facet normal 0.406737 0.913545 0
    outer loop
      vertex 7.72542 23.7764 0
      vertex 7.72542 23.7764 6
      vertex 12.5 21.6506 0
    endloop
  endfacet
  facet normal 0.406737 0.913545 0
    outer loop
      vertex 12.5 21.6506 0
      vertex 7.72542 23.7764 6
      vertex 12.5 21.6506 6
    endloop
  endfacet
  facet normal 0.587785 0.809017 0
    outer loop
      vertex 12.5 21.6506 0
      vertex 12.5 21.6506 6
      vertex 16.7283 18.5786 0
    endloop
  endfacet
  facet normal 0.587785 0.809017 0
    outer loop
      vertex 16.7283 18.5786 0
      vertex 12.5 21.6506 6
      vertex 16.7283 18.5786 6
    endloop
  endfacet
  facet normal 0.743145 0.669131 0
    outer loop
      vertex 20.2254 14.6946 0
      vertex 16.7283 18.5786 0
      vertex 16.7283 18.5786 6
    endloop
  endfacet
  facet normal 0.743145 0.669131 -0
    outer loop
      vertex 20.2254 14.6946 6
      vertex 20.2254 14.6946 0
      vertex 16.7283 18.5786 6
    endloop
  endfacet
  facet normal 0.866025 0.5 0
    outer loop
      vertex 22.8386 10.1684 0
      vertex 20.2254 14.6946 0
      vertex 20.2254 14.6946 6
    endloop
  endfacet
  facet normal 0.866025 0.5 -0
    outer loop
      vertex 22.8386 10.1684 6
      vertex 22.8386 10.1684 0
      vertex 20.2254 14.6946 6
    endloop
  endfacet
  facet normal 0.951056 0.309017 0
    outer loop
      vertex 24.4537 5.19779 0
      vertex 22.8386 10.1684 0
      vertex 22.8386 10.1684 6
    endloop
  endfacet
  facet normal 0.951056 0.309017 -0
    outer loop
      vertex 24.4537 5.19779 6
      vertex 24.4537 5.19779 0
      vertex 22.8386 10.1684 6
    endloop
  endfacet
  facet normal 0.994522 0.104528 0
    outer loop
      vertex 25 0 0
      vertex 24.4537 5.19779 0
      vertex 24.4537 5.19779 6
    endloop
  endfacet
  facet normal 0.994522 0.104528 -0
    outer loop
      vertex 25 0 6
      vertex 25 0 0
      vertex 24.4537 5.19779 6
    endloop
  endfacet
  facet normal 0.994522 -0.104528 0
    outer loop
      vertex 24.4537 -5.19779 6
      vertex 24.4537 -5.19779 0
      vertex 25 0 0
    endloop
  endfacet
  facet normal 0.994522 -0.104528 0
    outer loop
      vertex 25 0 6
      vertex 24.4537 -5.19779 6
      vertex 25 0 0
    endloop
  endfacet
  facet normal 0.951056 -0.309017 0
    outer loop
      vertex 22.8386 -10.1684 6
      vertex 22.8386 -10.1684 0
      vertex 24.4537 -5.19779 0
    endloop
  endfacet
  facet normal 0.951056 -0.309017 0
    outer loop
      vertex 24.4537 -5.19779 6
      vertex 22.8386 -10.1684 6
      vertex 24.4537 -5.19779 0
    endloop
  endfacet
  facet normal 0.866025 -0.5 0
    outer loop
      vertex 20.2254 -14.6946 6
      vertex 20.2254 -14.6946 0
      vertex 22.8386 -10.1684 0
    endloop
  endfacet
  facet normal 0.866025 -0.5 0
    outer loop
      vertex 22.8386 -10.1684 6
      vertex 20.2254 -14.6946 6
      vertex 22.8386 -10.1684 0
    endloop
  endfacet
  facet normal 0.743145 -0.669131 0
    outer loop
      vertex 16.7283 -18.5786 6
      vertex 16.7283 -18.5786 0
      vertex 20.2254 -14.6946 0
    endloop
  endfacet
  facet normal 0.743145 -0.669131 0
    outer loop
      vertex 20.2254 -14.6946 6
      vertex 16.7283 -18.5786 6
      vertex 20.2254 -14.6946 0
    endloop
  endfacet
  facet normal 0.587785 -0.809017 0
    outer loop
      vertex 12.5 -21.6506 6
      vertex 12.5 -21.6506 0
      vertex 16.7283 -18.5786 0
    endloop
  endfacet
  facet normal 0.587785 -0.809017 0
    outer loop
      vertex 16.7283 -18.5786 6
      vertex 12.5 -21.6506 6
      vertex 16.7283 -18.5786 0
    endloop
  endfacet
  facet normal 0.406737 -0.913545 0
    outer loop
      vertex 7.72542 -23.7764 6
      vertex 7.72542 -23.7764 0
      vertex 12.5 -21.6506 0
    endloop
  endfacet
  facet normal 0.406737 -0.913545 0
    outer loop
      vertex 12.5 -21.6506 6
      vertex 7.72542 -23.7764 6
      vertex 12.5 -21.6506 0
    endloop
  endfacet
  facet normal 0.207912 -0.978148 0
    outer loop
      vertex 2.61321 -24.863 6
      vertex 2.61321 -24.863 0
      vertex 7.72542 -23.7764 0
    endloop
  endfacet
  facet normal 0.207912 -0.978148 0
    outer loop
      vertex 7.72542 -23.7764 6
      vertex 2.61321 -24.863 6
      vertex 7.72542 -23.7764 0
    endloop
  endfacet
  facet normal 0 -1 0
    outer loop
      vertex -2.61321 -24.863 6
      vertex -2.61321 -24.863 0
      vertex 2.61321 -24.863 0
    endloop
  endfacet
  facet normal 0 -1 0
    outer loop
      vertex 2.61321 -24.863 6
      vertex -2.61321 -24.863 6
      vertex 2.61321 -24.863 0
    endloop
  endfacet
  facet normal -0.207912 -0.978148 0
    outer loop
      vertex -7.72542 -23.7764 6
      vertex -7.72542 -23.7764 0
      vertex -2.61321 -24.863 0
    endloop
  endfacet
  facet normal -0.207912 -0.978148 0
    outer loop
      vertex -2.61321 -24.863 6
      vertex -7.72542 -23.7764 6
      vertex -2.61321 -24.863 0
    endloop
  endfacet
  facet normal -0.406737 -0.913545 0
    outer loop
      vertex -12.5 -21.6506 6
      vertex -12.5 -21.6506 0
      vertex -7.72542 -23.7764 0
    endloop
  endfacet
  facet normal -0.406737 -0.913545 0
    outer loop
      vertex -7.72542 -23.7764 6
      vertex -12.5 -21.6506 6
      vertex -7.72542 -23.7764 0
    endloop
  endfacet
  facet normal -0.587785 -0.809017 0
    outer loop
      vertex -16.7283 -18.5786 6
      vertex -16.7283 -18.5786 0
      vertex -12.5 -21.6506 0
    endloop
  endfacet
  facet normal -0.587785 -0.809017 0
    outer loop
      vertex -12.5 -21.6506 6
      vertex -16.7283 -18.5786 6
      vertex -12.5 -21.6506 0
    endloop
  endfacet
  facet normal -0.743145 -0.669131 -0
    outer loop
      vertex -20.2254 -14.6946 0
      vertex -16.7283 -18.5786 0
      vertex -20.2254 -14.6946 6
    endloop
  endfacet
  facet normal -0.743145 -0.669131 0
    outer loop
      vertex -20.2254 -14.6946 6
      vertex -16.7283 -18.5786 0
      vertex -16.7283 -18.5786 6
    endloop
  endfacet
  facet normal -0.866025 -0.5 -0
    outer loop
      vertex -22.8386 -10.1684 0
      vertex -20.2254 -14.6946 0
      vertex -22.8386 -10.1684 6
    endloop
  endfacet
  facet normal -0.866025 -0.5 0
    outer loop
      vertex -22.8386 -10.1684 6
      vertex -20.2254 -14.6946 0
      vertex -20.2254 -14.6946 6
    endloop
  endfacet
  facet normal 0 0 1
    outer loop
      vertex -31.3007 6.65317 12
      vertex -32 0 12
      vertex -31.3007 -6.65317 12
    endloop
  endfacet
  facet normal 0 0 1
    outer loop
      vertex -25.8885 -18.8091 12
      vertex -31.3007 6.65317 12
      vertex -29.2335 -13.0156 12
    endloop
  endfacet
  facet normal 0 0 1
    outer loop
      vertex -29.2335 -13.0156 12
      vertex -31.3007 6.65317 12
      vertex -31.3007 -6.65317 12
    endloop
  endfacet
  facet normal 0 0 1
    outer loop
      vertex -21.4122 -23.7806 12
      vertex -31.3007 6.65317 12
      vertex -25.8885 -18.8091 12
    endloop
  endfacet
  facet normal 0 0 1
    outer loop
      vertex -16 -27.7128 12
      vertex -31.3007 6.65317 12
      vertex -21.4122 -23.7806 12
    endloop
  endfacet
  facet normal 0 0 1
    outer loop
      vertex -9.88854 -30.4338 12
      vertex -31.3007 6.65317 12
      vertex -16 -27.7128 12
    endloop
  endfacet
  facet normal 0 0 1
    outer loop
      vertex -3.34491 -31.8247 12
      vertex -31.3007 6.65317 12
      vertex -9.88854 -30.4338 12
    endloop
  endfacet
  facet normal -0 0 1
    outer loop
      vertex 3.34491 -31.8247 12
      vertex -31.3007 6.65317 12
      vertex -3.34491 -31.8247 12
    endloop
  endfacet
  facet normal -0 0 1
    outer loop
      vertex 9.88854 -30.4338 12
      vertex -31.3007 6.65317 12
      vertex 3.34491 -31.8247 12
    endloop
  endfacet
  facet normal -0 0 1
    outer loop
      vertex 16 -27.7128 12
      vertex -31.3007 6.65317 12
      vertex 9.88854 -30.4338 12
    endloop
  endfacet
  facet normal -0 0 1
    outer loop
      vertex 21.4122 -23.7806 12
      vertex -31.3007 6.65317 12
      vertex 16 -27.7128 12
    endloop
  endfacet
  facet normal -0 0 1
    outer loop
      vertex 25.8885 -18.8091 12
      vertex -31.3007 6.65317 12
      vertex 21.4122 -23.7806 12
    endloop
  endfacet
  facet normal -0 0 1
    outer loop
      vertex 29.2335 -13.0156 12
      vertex -31.3007 6.65317 12
      vertex 25.8885 -18.8091 12
    endloop
  endfacet
  facet normal -0 -0 1
    outer loop
      vertex -0.927051 -2.85317 12
      vertex -31.3007 6.65317 12
      vertex 29.2335 -13.0156 12
    endloop
  endfacet
  facet normal 0 0 1
    outer loop
      vertex 0.927051 2.85317 12
      vertex 2.42705 1.76336 12
      vertex 32 0 12
    endloop
  endfacet
  facet normal 0 -0 1
    outer loop
      vertex 31.3007 6.65317 12
      vertex -31.3007 6.65317 12
      vertex 32 0 12
    endloop
  endfacet
  facet normal 0 -0 1
    outer loop
      vertex 29.2335 13.0156 12
      vertex -31.3007 6.65317 12
      vertex 31.3007 6.65317 12
    endloop
  endfacet
  facet normal 0 -0 1
    outer loop
      vertex 25.8885 18.8091 12
      vertex -31.3007 6.65317 12
      vertex 29.2335 13.0156 12
    endloop
  endfacet
  facet normal 0 -0 1
    outer loop
      vertex 21.4122 23.7806 12
      vertex -31.3007 6.65317 12
      vertex 25.8885 18.8091 12
    endloop
  endfacet
  facet normal 0 -0 1
    outer loop
      vertex 16 27.7128 12
      vertex -31.3007 6.65317 12
      vertex 21.4122 23.7806 12
    endloop
  endfacet
  facet normal 0 -0 1
    outer loop
      vertex 9.88854 30.4338 12
      vertex -31.3007 6.65317 12
      vertex 16 27.7128 12
    endloop
  endfacet
  facet normal 0 -0 1
    outer loop
      vertex 3.34491 31.8247 12
      vertex -31.3007 6.65317 12
      vertex 9.88854 30.4338 12
    endloop
  endfacet
  facet normal 0 -0 1
    outer loop
      vertex -3.34491 31.8247 12
      vertex -31.3007 6.65317 12
      vertex 3.34491 31.8247 12
    endloop
  endfacet
  facet normal 0 -0 1
    outer loop
      vertex -9.88854 30.4338 12
      vertex -31.3007 6.65317 12
      vertex -3.34491 31.8247 12
    endloop
  endfacet
  facet normal 0 -0 1
    outer loop
      vertex -16 27.7128 12
      vertex -31.3007 6.65317 12
      vertex -9.88854 30.4338 12
    endloop
  endfacet
  facet normal 0 -0 1
    outer loop
      vertex -21.4122 23.7806 12
      vertex -31.3007 6.65317 12
      vertex -16 27.7128 12
    endloop
  endfacet
  facet normal 0 -0 1
    outer loop
      vertex -25.8885 18.8091 12
      vertex -31.3007 6.65317 12
      vertex -21.4122 23.7806 12
    endloop
  endfacet
  facet normal 0 -0 1
    outer loop
      vertex -29.2335 13.0156 12
      vertex -31.3007 6.65317 12
      vertex -25.8885 18.8091 12
    endloop
  endfacet
  facet normal -0 -0 1
    outer loop
      vertex -3 0 12
      vertex -31.3007 6.65317 12
      vertex -2.42705 -1.76336 12
    endloop
  endfacet
  facet normal 0 0 1
    outer loop
      vertex 2.42705 1.76336 12
      vertex 3 0 12
      vertex 31.3007 -6.65317 12
    endloop
  endfacet
  facet normal 0 -0 1
    outer loop
      vertex 3 0 12
      vertex 2.42705 -1.76336 12
      vertex 31.3007 -6.65317 12
    endloop
  endfacet
  facet normal -0 0 1
    outer loop
      vertex -0.927051 2.85317 12
      vertex -31.3007 6.65317 12
      vertex -2.42705 1.76336 12
    endloop
  endfacet
  facet normal -0 0 1
    outer loop
      vertex 0.927051 2.85317 12
      vertex -31.3007 6.65317 12
      vertex -0.927051 2.85317 12
    endloop
  endfacet
  facet normal 0 0 1
    outer loop
      vertex 2.42705 1.76336 12
      vertex 31.3007 -6.65317 12
      vertex 32 0 12
    endloop
  endfacet
  facet normal 0 0 1
    outer loop
      vertex 32 0 12
      vertex -31.3007 6.65317 12
      vertex 0.927051 2.85317 12
    endloop
  endfacet
  facet normal 0 -0 1
    outer loop
      vertex 0.927051 -2.85317 12
      vertex -0.927051 -2.85317 12
      vertex 29.2335 -13.0156 12
    endloop
  endfacet
  facet normal -0 0 1
    outer loop
      vertex 31.3007 -6.65317 12
      vertex 0.927051 -2.85317 12
      vertex 29.2335 -13.0156 12
    endloop
  endfacet
  facet normal -0 -0 1
    outer loop
      vertex -2.42705 -1.76336 12
      vertex -31.3007 6.65317 12
      vertex -0.927051 -2.85317 12
    endloop
  endfacet
  facet normal 0 -0 1
    outer loop
      vertex 2.42705 -1.76336 12
      vertex 0.927051 -2.85317 12
      vertex 31.3007 -6.65317 12
    endloop
  endfacet
  facet normal 0 0 1
    outer loop
      vertex -3 0 12
      vertex -2.42705 1.76336 12
      vertex -31.3007 6.65317 12
    endloop
  endfacet
  facet normal -0 0 -1
    outer loop
      vertex -25 0 0
      vertex -24.4537 5.19779 0
      vertex -24.4537 -5.19779 0
    endloop
  endfacet
  facet normal 0 -0 -1
    outer loop
      vertex -24.4537 -5.19779 0
      vertex -24.4537 5.19779 0
      vertex -22.8386 10.1684 0
    endloop
  endfacet
  facet normal 0 0 -1
    outer loop
      vertex -24.4537 -5.19779 0
      vertex -22.8386 10.1684 0
      vertex -20.2254 14.6946 0
    endloop
  endfacet
  facet normal 0 0 -1
    outer loop
      vertex -24.4537 -5.19779 0
      vertex -20.2254 14.6946 0
      vertex -16.7283 18.5786 0
    endloop
  endfacet
  facet normal 0 0 -1
    outer loop
      vertex -24.4537 -5.19779 0
      vertex -16.7283 18.5786 0
      vertex -12.5 21.6506 0
    endloop
  endfacet
  facet normal 0 0 -1
    outer loop
      vertex -24.4537 -5.19779 0
      vertex -12.5 21.6506 0
      vertex -7.72542 23.7764 0
    endloop
  endfacet
  facet normal 0 0 -1
    outer loop
      vertex -24.4537 -5.19779 0
      vertex -7.72542 23.7764 0
      vertex -2.61321 24.863 0
    endloop
  endfacet
  facet normal 0 0 -1
    outer loop
      vertex -24.4537 -5.19779 0
      vertex -2.61321 24.863 0
      vertex 2.61321 24.863 0
    endloop
  endfacet
  facet normal 0 0 -1
    outer loop
      vertex -24.4537 -5.19779 0
      vertex 2.61321 24.863 0
      vertex 7.72542 23.7764 0
    endloop
  endfacet
  facet normal 0 0 -1
    outer loop
      vertex -24.4537 -5.19779 0
      vertex 7.72542 23.7764 0
      vertex 12.5 21.6506 0
    endloop
  endfacet
  facet normal 0 0 -1
    outer loop
      vertex -24.4537 -5.19779 0
      vertex 12.5 21.6506 0
      vertex 16.7283 18.5786 0
    endloop
  endfacet
  facet normal 0 0 -1
    outer loop
      vertex -24.4537 -5.19779 0
      vertex 16.7283 18.5786 0
      vertex 20.2254 14.6946 0
    endloop
  endfacet
  facet normal 0 0 -1
    outer loop
      vertex -0.927051 2.85317 0
      vertex 20.2254 14.6946 0
      vertex 22.8386 10.1684 0
    endloop
  endfacet
  facet normal 0 0 -1
    outer loop
      vertex 2.42705 1.76336 0
      vertex 22.8386 10.1684 0
      vertex 24.4537 5.19779 0
    endloop
  endfacet
  facet normal -0 0 -1
    outer loop
      vertex 0.927051 -2.85317 0
      vertex 25 0 0
      vertex 24.4537 -5.19779 0
    endloop
  endfacet
  facet normal 0 0 -1
    outer loop
      vertex -24.4537 -5.19779 0
      vertex 24.4537 -5.19779 0
      vertex 22.8386 -10.1684 0
    endloop
  endfacet
  facet normal 0 0 -1
    outer loop
      vertex -24.4537 -5.19779 0
      vertex 22.8386 -10.1684 0
      vertex 20.2254 -14.6946 0
    endloop
  endfacet
  facet normal 0 0 -1
    outer loop
      vertex -24.4537 -5.19779 0
      vertex 20.2254 -14.6946 0
      vertex 16.7283 -18.5786 0
    endloop
  endfacet
  facet normal 0 0 -1
    outer loop
      vertex -24.4537 -5.19779 0
      vertex 16.7283 -18.5786 0
      vertex 12.5 -21.6506 0
    endloop
  endfacet
  facet normal 0 0 -1
    outer loop
      vertex -24.4537 -5.19779 0
      vertex 12.5 -21.6506 0
      vertex 7.72542 -23.7764 0
    endloop
  endfacet
  facet normal 0 0 -1
    outer loop
      vertex -24.4537 -5.19779 0
      vertex 7.72542 -23.7764 0
      vertex 2.61321 -24.863 0
    endloop
  endfacet
  facet normal 0 0 -1
    outer loop
      vertex -24.4537 -5.19779 0
      vertex 2.61321 -24.863 0
      vertex -2.61321 -24.863 0
    endloop
  endfacet
  facet normal 0 0 -1
    outer loop
      vertex -24.4537 -5.19779 0
      vertex -2.61321 -24.863 0
      vertex -7.72542 -23.7764 0
    endloop
  endfacet
  facet normal 0 0 -1
    outer loop
      vertex -24.4537 -5.19779 0
      vertex -7.72542 -23.7764 0
      vertex -12.5 -21.6506 0
    endloop
  endfacet
  facet normal 0 0 -1
    outer loop
      vertex -24.4537 -5.19779 0
      vertex -12.5 -21.6506 0
      vertex -16.7283 -18.5786 0
    endloop
  endfacet
  facet normal 0 0 -1
    outer loop
      vertex -24.4537 -5.19779 0
      vertex -16.7283 -18.5786 0
      vertex -20.2254 -14.6946 0
    endloop
  endfacet
  facet normal 0 0 -1
    outer loop
      vertex -24.4537 -5.19779 0
      vertex -20.2254 -14.6946 0
      vertex -22.8386 -10.1684 0
    endloop
  endfacet
  facet normal -0 0 -1
    outer loop
      vertex -0.927051 2.85317 0
      vertex 22.8386 10.1684 0
      vertex 0.927051 2.85317 0
    endloop
  endfacet
  facet normal -0 0 -1
    outer loop
      vertex 2.42705 1.76336 0
      vertex 24.4537 5.19779 0
      vertex 3 0 0
    endloop
  endfacet
  facet normal -0 0 -1
    outer loop
      vertex 2.42705 -1.76336 0
      vertex 25 0 0
      vertex 0.927051 -2.85317 0
    endloop
  endfacet
  facet normal -0 0 -1
    outer loop
      vertex -24.4537 -5.19779 0
      vertex -0.927051 -2.85317 0
      vertex 24.4537 -5.19779 0
    endloop
  endfacet
  facet normal 0 0 -1
    outer loop
      vertex 3 0 0
      vertex 25 0 0
      vertex 2.42705 -1.76336 0
    endloop
  endfacet
  facet normal 0 0 -1
    outer loop
      vertex -0.927051 -2.85317 0
      vertex 0.927051 -2.85317 0
      vertex 24.4537 -5.19779 0
    endloop
  endfacet
  facet normal -0 0 -1
    outer loop
      vertex 3 0 0
      vertex 24.4537 5.19779 0
      vertex 25 0 0
    endloop
  endfacet
  facet normal 0 0 -1
    outer loop
      vertex -0.927051 -2.85317 0
      vertex -24.4537 -5.19779 0
      vertex -2.42705 -1.76336 0
    endloop
  endfacet
  facet normal -0 0 -1
    outer loop
      vertex 0.927051 2.85317 0
      vertex 22.8386 10.1684 0
      vertex 2.42705 1.76336 0
    endloop
  endfacet
  facet normal 0 0 -1
    outer loop
      vertex -24.4537 -5.19779 0
      vertex 20.2254 14.6946 0
      vertex -0.927051 2.85317 0
    endloop
  endfacet
  facet normal 0 -0 -1
    outer loop
      vertex -2.42705 1.76336 0
      vertex -24.4537 -5.19779 0
      vertex -0.927051 2.85317 0
    endloop
  endfacet
  facet normal 0 0 -1
    outer loop
      vertex -24.4537 -5.19779 0
      vertex -2.42705 1.76336 0
      vertex -3 0 0
    endloop
  endfacet
  facet normal 0 0 -1
    outer loop
      vertex -2.42705 -1.76336 0
      vertex -24.4537 -5.19779 0
      vertex -3 0 0
    endloop
  endfacet
  facet normal 0.951057 0.309017 0
    outer loop
      vertex -3 0 12
      vertex -2.42705 -1.76336 12
      vertex -2.42705 -1.76336 0
    endloop
  endfacet
  facet normal 0.951057 0.309017 0
    outer loop
      vertex -3 0 0
      vertex -3 0 12
      vertex -2.42705 -1.76336 0
    endloop
  endfacet
  facet normal 0.587785 0.809017 -0
    outer loop
      vertex -0.927051 -2.85317 12
      vertex -0.927051 -2.85317 0
      vertex -2.42705 -1.76336 12
    endloop
  endfacet
  facet normal 0.587785 0.809017 -0
    outer loop
      vertex -2.42705 -1.76336 12
      vertex -0.927051 -2.85317 0
      vertex -2.42705 -1.76336 0
    endloop
  endfacet
  facet normal 0 1 0
    outer loop
      vertex 0.927051 -2.85317 12
      vertex 0.927051 -2.85317 0
      vertex -0.927051 -2.85317 12
    endloop
  endfacet
  facet normal 0 1 -0
    outer loop
      vertex -0.927051 -2.85317 12
      vertex 0.927051 -2.85317 0
      vertex -0.927051 -2.85317 0
    endloop
  endfacet
  facet normal -0.587785 0.809017 0
    outer loop
      vertex 2.42705 -1.76336 12
      vertex 2.42705 -1.76336 0
      vertex 0.927051 -2.85317 12
    endloop
  endfacet
  facet normal -0.587785 0.809017 0
    outer loop
      vertex 0.927051 -2.85317 12
      vertex 2.42705 -1.76336 0
      vertex 0.927051 -2.85317 0
    endloop
  endfacet
  facet normal -0.951057 0.309017 0
    outer loop
      vertex 3 0 12
      vertex 3 0 0
      vertex 2.42705 -1.76336 12
    endloop
  endfacet
  facet normal -0.951057 0.309017 0
    outer loop
      vertex 2.42705 -1.76336 12
      vertex 3 0 0
      vertex 2.42705 -1.76336 0
    endloop
  endfacet
  facet normal -0.951057 -0.309017 0
    outer loop
      vertex 3 0 12
      vertex 2.42705 1.76336 12
      vertex 3 0 0
    endloop
  endfacet
  facet normal -0.951057 -0.309017 0
    outer loop
      vertex 3 0 0
      vertex 2.42705 1.76336 12
      vertex 2.42705 1.76336 0
    endloop
  endfacet
  facet normal -0.587785 -0.809017 -0
    outer loop
      vertex 2.42705 1.76336 0
      vertex 2.42705 1.76336 12
      vertex 0.927051 2.85317 12
    endloop
  endfacet
  facet normal -0.587785 -0.809017 -0
    outer loop
      vertex 0.927051 2.85317 0
      vertex 2.42705 1.76336 0
      vertex 0.927051 2.85317 12
    endloop
  endfacet
  facet normal 0 -1 0
    outer loop
      vertex 0.927051 2.85317 0
      vertex 0.927051 2.85317 12
      vertex -0.927051 2.85317 12
    endloop
  endfacet
  facet normal -0 -1 -0
    outer loop
      vertex -0.927051 2.85317 0
      vertex 0.927051 2.85317 0
      vertex -0.927051 2.85317 12
    endloop
  endfacet
  facet normal 0.587785 -0.809017 0
    outer loop
      vertex -0.927051 2.85317 0
      vertex -0.927051 2.85317 12
      vertex -2.42705 1.76336 12
    endloop
  endfacet
  facet normal 0.587785 -0.809017 0
    outer loop
      vertex -2.42705 1.76336 0
      vertex -0.927051 2.85317 0
      vertex -2.42705 1.76336 12
    endloop
  endfacet
  facet normal 0.951057 -0.309017 0
    outer loop
      vertex -2.42705 1.76336 0
      vertex -2.42705 1.76336 12
      vertex -3 0 12
    endloop
  endfacet
  facet normal 0.951057 -0.309017 0
    outer loop
      vertex -3 0 0
      vertex -2.42705 1.76336 0
      vertex -3 0 12
    endloop
  endfacet
endsolid OpenSCAD_Model
