solid OpenSCAD_Model
  facet normal -1 0 -0
    outer loop
      vertex 0 20 2
      vertex 0 32 0
      vertex 0 0 0
    endloop
  endfacet
  facet normal -1 0 0
    outer loop
      vertex 0 0 2
      vertex 0 20 2
      vertex 0 0 0
    endloop
  endfacet
  facet normal -1 0 -0
    outer loop
      vertex 0 32 5
      vertex 0 32 0
      vertex 0 20 2
    endloop
  endfacet
  facet normal -1 0 0
    outer loop
      vertex 0 20 5
      vertex 0 32 5
      vertex 0 20 2
    endloop
  endfacet
  facet normal 0 -1 0
    outer loop
      vertex 165 0 0
      vertex 0 0 2
      vertex 0 0 0
    endloop
  endfacet
  facet normal 0 -1 0
    outer loop
      vertex 165 0 0
      vertex 165 0 2
      vertex 0 0 2
    endloop
  endfacet
  facet normal 0 0 -1
    outer loop
      vertex 165 0 0
      vertex 0 0 0
      vertex 11.247 8.43634 0
    endloop
  endfacet
  facet normal 0 0 -1
    outer loop
      vertex 0 32 0
      vertex 2 22 0
      vertex 0 0 0
    endloop
  endfacet
  facet normal -0 -0 -1
    outer loop
      vertex 2 32 0
      vertex 2 22 0
      vertex 0 32 0
    endloop
  endfacet
  facet normal 0 -0 -1
    outer loop
      vertex 165 32 0
      vertex 165 0 0
      vertex 163 22 0
    endloop
  endfacet
  facet normal 0 0 -1
    outer loop
      vertex 163 32 0
      vertex 165 32 0
      vertex 163 22 0
    endloop
  endfacet
  facet normal -0 0 -1
    outer loop
      vertex 8.19806 10.8678 0
      vertex 0 0 0
      vertex 2 22 0
    endloop
  endfacet
  facet normal -0 0 -1
    outer loop
      vertex 8.19806 9.13223 0
      vertex 0 0 0
      vertex 8.19806 10.8678 0
    endloop
  endfacet
  facet normal 0 0 -1
    outer loop
      vertex 11.247 8.43634 0
      vertex 12 10 0
      vertex 153.198 9.13223 0
    endloop
  endfacet
  facet normal -0 0 -1
    outer loop
      vertex 9.55496 8.05014 0
      vertex 0 0 0
      vertex 8.19806 9.13223 0
    endloop
  endfacet
  facet normal 0 -0 -1
    outer loop
      vertex 9.55496 8.05014 0
      vertex 11.247 8.43634 0
      vertex 0 0 0
    endloop
  endfacet
  facet normal 0 0 -1
    outer loop
      vertex 12 10 0
      vertex 153.198 10.8678 0
      vertex 153.198 9.13223 0
    endloop
  endfacet
  facet normal 0 0 -1
    outer loop
      vertex 8.19806 10.8678 0
      vertex 2 22 0
      vertex 9.55496 11.9499 0
    endloop
  endfacet
  facet normal 0 0 -1
    outer loop
      vertex 12 10 0
      vertex 11.247 11.5637 0
      vertex 153.198 10.8678 0
    endloop
  endfacet
  facet normal 0 0 -1
    outer loop
      vertex 11.247 11.5637 0
      vertex 2 22 0
      vertex 163 22 0
    endloop
  endfacet
  facet normal 0 0 -1
    outer loop
      vertex 9.55496 11.9499 0
      vertex 2 22 0
      vertex 11.247 11.5637 0
    endloop
  endfacet
  facet normal 0 0 -1
    outer loop
      vertex 153.198 10.8678 0
      vertex 11.247 11.5637 0
      vertex 163 22 0
    endloop
  endfacet
  facet normal 0 0 -1
    outer loop
      vertex 11.247 8.43634 0
      vertex 153.198 9.13223 0
      vertex 154.555 8.05014 0
    endloop
  endfacet
  facet normal 0 0 -1
    outer loop
      vertex 11.247 8.43634 0
      vertex 154.555 8.05014 0
      vertex 165 0 0
    endloop
  endfacet
  facet normal 0 0 -1
    outer loop
      vertex 153.198 10.8678 0
      vertex 163 22 0
      vertex 154.555 11.9499 0
    endloop
  endfacet
  facet normal 0 0 -1
    outer loop
      vertex 154.555 8.05014 0
      vertex 156.247 8.43634 0
      vertex 165 0 0
    endloop
  endfacet
  facet normal 0 0 -1
    outer loop
      vertex 157 10 0
      vertex 163 22 0
      vertex 165 0 0
    endloop
  endfacet
  facet normal 0 -0 -1
    outer loop
      vertex 157 10 0
      vertex 165 0 0
      vertex 156.247 8.43634 0
    endloop
  endfacet
  facet normal 0 0 -1
    outer loop
      vertex 156.247 11.5637 0
      vertex 163 22 0
      vertex 157 10 0
    endloop
  endfacet
  facet normal 0 0 -1
    outer loop
      vertex 154.555 11.9499 0
      vertex 163 22 0
      vertex 156.247 11.5637 0
    endloop
  endfacet
  facet normal 0 -1 0
    outer loop
      vertex 0 20 5
      vertex 165 20 2
      vertex 165 20 5
    endloop
  endfacet
  facet normal 0 -1 0
    outer loop
      vertex 0 20 5
      vertex 0 20 2
      vertex 165 20 2
    endloop
  endfacet
  facet normal 0 0 1
    outer loop
      vertex 165 20 2
      vertex 0 20 2
      vertex 11.247 11.5637 2
    endloop
  endfacet
  facet normal 0 0 1
    outer loop
      vertex 8.19806 10.8678 2
      vertex 0 20 2
      vertex 0 0 2
    endloop
  endfacet
  facet normal 0 0 1
    outer loop
      vertex 8.19806 10.8678 2
      vertex 0 0 2
      vertex 8.19806 9.13223 2
    endloop
  endfacet
  facet normal 0 0 1
    outer loop
      vertex 11.247 11.5637 2
      vertex 12 10 2
      vertex 153.198 10.8678 2
    endloop
  endfacet
  facet normal 0 0 1
    outer loop
      vertex 9.55496 11.9499 2
      vertex 0 20 2
      vertex 8.19806 10.8678 2
    endloop
  endfacet
  facet normal -0 -0 1
    outer loop
      vertex 9.55496 11.9499 2
      vertex 11.247 11.5637 2
      vertex 0 20 2
    endloop
  endfacet
  facet normal -0 0 1
    outer loop
      vertex 12 10 2
      vertex 153.198 9.13223 2
      vertex 153.198 10.8678 2
    endloop
  endfacet
  facet normal 0 0 1
    outer loop
      vertex 8.19806 9.13223 2
      vertex 0 0 2
      vertex 9.55496 8.05014 2
    endloop
  endfacet
  facet normal 0 0 1
    outer loop
      vertex 12 10 2
      vertex 11.247 8.43634 2
      vertex 153.198 9.13223 2
    endloop
  endfacet
  facet normal 0 0 1
    outer loop
      vertex 11.247 8.43634 2
      vertex 0 0 2
      vertex 165 0 2
    endloop
  endfacet
  facet normal -0 0 1
    outer loop
      vertex 9.55496 8.05014 2
      vertex 0 0 2
      vertex 11.247 8.43634 2
    endloop
  endfacet
  facet normal 0 0 1
    outer loop
      vertex 153.198 9.13223 2
      vertex 11.247 8.43634 2
      vertex 154.555 8.05014 2
    endloop
  endfacet
  facet normal -0 0 1
    outer loop
      vertex 11.247 11.5637 2
      vertex 153.198 10.8678 2
      vertex 154.555 11.9499 2
    endloop
  endfacet
  facet normal 0 0 1
    outer loop
      vertex 11.247 11.5637 2
      vertex 154.555 11.9499 2
      vertex 165 20 2
    endloop
  endfacet
  facet normal -0 0 1
    outer loop
      vertex 154.555 8.05014 2
      vertex 165 0 2
      vertex 156.247 8.43634 2
    endloop
  endfacet
  facet normal -0 0 1
    outer loop
      vertex 154.555 11.9499 2
      vertex 156.247 11.5637 2
      vertex 165 20 2
    endloop
  endfacet
  facet normal -0 0 1
    outer loop
      vertex 157 10 2
      vertex 165 0 2
      vertex 165 20 2
    endloop
  endfacet
  facet normal 0 -0 1
    outer loop
      vertex 157 10 2
      vertex 165 20 2
      vertex 156.247 11.5637 2
    endloop
  endfacet
  facet normal -0 0 1
    outer loop
      vertex 156.247 8.43634 2
      vertex 165 0 2
      vertex 157 10 2
    endloop
  endfacet
  facet normal 0 0 1
    outer loop
      vertex 154.555 8.05014 2
      vertex 11.247 8.43634 2
      vertex 165 0 2
    endloop
  endfacet
  facet normal 1 0 0
    outer loop
      vertex 165 32 5
      vertex 165 20 5
      vertex 165 20 2
    endloop
  endfacet
  facet normal 1 0 0
    outer loop
      vertex 165 32 5
      vertex 165 20 2
      vertex 165 32 0
    endloop
  endfacet
  facet normal 1 0 0
    outer loop
      vertex 165 32 0
      vertex 165 20 2
      vertex 165 0 0
    endloop
  endfacet
  facet normal 1 0 0
    outer loop
      vertex 165 20 2
      vertex 165 0 2
      vertex 165 0 0
    endloop
  endfacet
  facet normal 1 -0 0
    outer loop
      vertex 8.19806 9.13223 2
      vertex 8.19806 10.8678 0
      vertex 8.19806 10.8678 2
    endloop
  endfacet
  facet normal 1 0 0
    outer loop
      vertex 8.19806 9.13223 2
      vertex 8.19806 9.13223 0
      vertex 8.19806 10.8678 0
    endloop
  endfacet
  facet normal 0.62349 -0.781831 0
    outer loop
      vertex 8.19806 10.8678 2
      vertex 9.55496 11.9499 0
      vertex 9.55496 11.9499 2
    endloop
  endfacet
  facet normal 0.62349 -0.781831 0
    outer loop
      vertex 8.19806 10.8678 2
      vertex 8.19806 10.8678 0
      vertex 9.55496 11.9499 0
    endloop
  endfacet
  facet normal -0.900969 0.433884 0
    outer loop
      vertex 12 10 0
      vertex 11.247 8.43634 2
      vertex 12 10 2
    endloop
  endfacet
  facet normal -0.900969 0.433884 0
    outer loop
      vertex 12 10 0
      vertex 11.247 8.43634 0
      vertex 11.247 8.43634 2
    endloop
  endfacet
  facet normal 0.62349 0.781831 -0
    outer loop
      vertex 9.55496 8.05014 0
      vertex 8.19806 9.13223 2
      vertex 9.55496 8.05014 2
    endloop
  endfacet
  facet normal 0.62349 0.781831 0
    outer loop
      vertex 9.55496 8.05014 0
      vertex 8.19806 9.13223 0
      vertex 8.19806 9.13223 2
    endloop
  endfacet
  facet normal -0.222521 -0.974928 0
    outer loop
      vertex 9.55496 11.9499 2
      vertex 11.247 11.5637 0
      vertex 11.247 11.5637 2
    endloop
  endfacet
  facet normal -0.222521 -0.974928 -0
    outer loop
      vertex 9.55496 11.9499 2
      vertex 9.55496 11.9499 0
      vertex 11.247 11.5637 0
    endloop
  endfacet
  facet normal -0.222521 0.974928 0
    outer loop
      vertex 11.247 8.43634 0
      vertex 9.55496 8.05014 2
      vertex 11.247 8.43634 2
    endloop
  endfacet
  facet normal -0.222521 0.974928 0
    outer loop
      vertex 11.247 8.43634 0
      vertex 9.55496 8.05014 0
      vertex 9.55496 8.05014 2
    endloop
  endfacet
  facet normal -0.900969 -0.433884 0
    outer loop
      vertex 11.247 11.5637 0
      vertex 12 10 0
      vertex 12 10 2
    endloop
  endfacet
  facet normal -0.900969 -0.433884 -0
    outer loop
      vertex 11.247 11.5637 2
      vertex 11.247 11.5637 0
      vertex 12 10 2
    endloop
  endfacet
  facet normal 1 -0 0
    outer loop
      vertex 153.198 9.13223 2
      vertex 153.198 10.8678 0
      vertex 153.198 10.8678 2
    endloop
  endfacet
  facet normal 1 0 0
    outer loop
      vertex 153.198 9.13223 2
      vertex 153.198 9.13223 0
      vertex 153.198 10.8678 0
    endloop
  endfacet
  facet normal -0.900969 0.433884 0
    outer loop
      vertex 157 10 0
      vertex 156.247 8.43634 2
      vertex 157 10 2
    endloop
  endfacet
  facet normal -0.900969 0.433884 0
    outer loop
      vertex 157 10 0
      vertex 156.247 8.43634 0
      vertex 156.247 8.43634 2
    endloop
  endfacet
  facet normal 0.62349 0.781831 -0
    outer loop
      vertex 154.555 8.05014 0
      vertex 153.198 9.13223 2
      vertex 154.555 8.05014 2
    endloop
  endfacet
  facet normal 0.62349 0.781831 0
    outer loop
      vertex 154.555 8.05014 0
      vertex 153.198 9.13223 0
      vertex 153.198 9.13223 2
    endloop
  endfacet
  facet normal -0.900969 -0.433884 0
    outer loop
      vertex 156.247 11.5637 0
      vertex 157 10 0
      vertex 157 10 2
    endloop
  endfacet
  facet normal -0.900969 -0.433884 -0
    outer loop
      vertex 156.247 11.5637 2
      vertex 156.247 11.5637 0
      vertex 157 10 2
    endloop
  endfacet
  facet normal 0.62349 -0.781831 0
    outer loop
      vertex 153.198 10.8678 2
      vertex 154.555 11.9499 0
      vertex 154.555 11.9499 2
    endloop
  endfacet
  facet normal 0.62349 -0.781831 0
    outer loop
      vertex 153.198 10.8678 2
      vertex 153.198 10.8678 0
      vertex 154.555 11.9499 0
    endloop
  endfacet
  facet normal -0.222521 0.974928 0
    outer loop
      vertex 156.247 8.43634 0
      vertex 154.555 8.05014 2
      vertex 156.247 8.43634 2
    endloop
  endfacet
  facet normal -0.222521 0.974928 0
    outer loop
      vertex 156.247 8.43634 0
      vertex 154.555 8.05014 0
      vertex 154.555 8.05014 2
    endloop
  endfacet
  facet normal -0.222521 -0.974928 0
    outer loop
      vertex 154.555 11.9499 2
      vertex 156.247 11.5637 0
      vertex 156.247 11.5637 2
    endloop
  endfacet
  facet normal -0.222521 -0.974928 -0
    outer loop
      vertex 154.555 11.9499 2
      vertex 154.555 11.9499 0
      vertex 156.247 11.5637 0
    endloop
  endfacet
  facet normal 0 1 0
    outer loop
      vertex 2 22 5
      vertex 163 22 0
      vertex 2 22 0
    endloop
  endfacet
  facet normal -0 1 0
    outer loop
      vertex 2 22 5
      vertex 163 22 5
      vertex 163 22 0
    endloop
  endfacet
  facet normal 0 -0 1
    outer loop
      vertex 165 20 5
      vertex 165 32 5
      vertex 163 22 5
    endloop
  endfacet
  facet normal 0 0 1
    outer loop
      vertex 165 32 5
      vertex 163 32 5
      vertex 163 22 5
    endloop
  endfacet
  facet normal 0 0 1
    outer loop
      vertex 165 20 5
      vertex 2 22 5
      vertex 0 20 5
    endloop
  endfacet
  facet normal 0 0 1
    outer loop
      vertex 163 22 5
      vertex 2 22 5
      vertex 165 20 5
    endloop
  endfacet
  facet normal 0 0 1
    outer loop
      vertex 2 22 5
      vertex 0 32 5
      vertex 0 20 5
    endloop
  endfacet
  facet normal 0 0 1
    outer loop
      vertex 2 32 5
      vertex 0 32 5
      vertex 2 22 5
    endloop
  endfacet
  facet normal 0 1 0
    outer loop
      vertex 0 32 5
      vertex 2 32 0
      vertex 0 32 0
    endloop
  endfacet
  facet normal -0 1 0
    outer loop
      vertex 0 32 5
      vertex 2 32 5
      vertex 2 32 0
    endloop
  endfacet
  facet normal 1 0 0
    outer loop
      vertex 2 32 0
      vertex 2 22 5
      vertex 2 22 0
    endloop
  endfacet
  facet normal 1 0 -0
    outer loop
      vertex 2 32 0
      vertex 2 32 5
      vertex 2 22 5
    endloop
  endfacet
  facet normal -1 0 0
    outer loop
      vertex 163 22 5
      vertex 163 32 0
      vertex 163 22 0
    endloop
  endfacet
  facet normal -1 0 0
    outer loop
      vertex 163 22 5
      vertex 163 32 5
      vertex 163 32 0
    endloop
  endfacet
  facet normal 0 1 0
    outer loop
      vertex 163 32 5
      vertex 165 32 0
      vertex 163 32 0
    endloop
  endfacet
  facet normal -0 1 0
    outer loop
      vertex 163 32 5
      vertex 165 32 5
      vertex 165 32 0
    endloop
  endfacet
endsolid OpenSCAD_Model
