solid OpenSCAD_Model
  facet normal -1 0 -0
    outer loop
      vertex 0 10 2
      vertex 0 22 0
      vertex 0 0 0
    endloop
  endfacet
  facet normal -1 0 0
    outer loop
      vertex 0 0 2
      vertex 0 10 2
      vertex 0 0 0
    endloop
  endfacet
  facet normal -1 -0 -0
    outer loop
      vertex 0 22 10
      vertex 0 22 0
      vertex 0 12 10
    endloop
  endfacet
  facet normal -1 -0 -0
    outer loop
      vertex 0 12 20
      vertex 0 12 10
      vertex 0 10 20
    endloop
  endfacet
  facet normal -1 0 -0
    outer loop
      vertex 0 12 10
      vertex 0 22 0
      vertex 0 10 2
    endloop
  endfacet
  facet normal -1 -0 0
    outer loop
      vertex 0 12 10
      vertex 0 10 2
      vertex 0 10 20
    endloop
  endfacet
  facet normal 0 -1 0
    outer loop
      vertex 165 0 0
      vertex 0 0 2
      vertex 0 0 0
    endloop
  endfacet
  facet normal 0 -1 0
    outer loop
      vertex 165 0 0
      vertex 165 0 2
      vertex 0 0 2
    endloop
  endfacet
  facet normal 0 0 -1
    outer loop
      vertex 165 0 0
      vertex 0 0 0
      vertex 154.555 3.05014 0
    endloop
  endfacet
  facet normal 0 0 -1
    outer loop
      vertex 0 22 0
      vertex 2 12 0
      vertex 0 0 0
    endloop
  endfacet
  facet normal -0 -0 -1
    outer loop
      vertex 2 22 0
      vertex 2 12 0
      vertex 0 22 0
    endloop
  endfacet
  facet normal 0 -0 -1
    outer loop
      vertex 165 22 0
      vertex 165 0 0
      vertex 163 12 0
    endloop
  endfacet
  facet normal 0 0 -1
    outer loop
      vertex 163 22 0
      vertex 165 22 0
      vertex 163 12 0
    endloop
  endfacet
  facet normal -0 0 -1
    outer loop
      vertex 8.19806 5.86777 0
      vertex 0 0 0
      vertex 2 12 0
    endloop
  endfacet
  facet normal -0 0 -1
    outer loop
      vertex 8.19806 4.13223 0
      vertex 0 0 0
      vertex 8.19806 5.86777 0
    endloop
  endfacet
  facet normal 0 0 -1
    outer loop
      vertex 11.247 3.43634 0
      vertex 12 5 0
      vertex 153.198 4.13223 0
    endloop
  endfacet
  facet normal -0 0 -1
    outer loop
      vertex 9.55496 3.05014 0
      vertex 0 0 0
      vertex 8.19806 4.13223 0
    endloop
  endfacet
  facet normal 0 -0 -1
    outer loop
      vertex 9.55496 3.05014 0
      vertex 11.247 3.43634 0
      vertex 0 0 0
    endloop
  endfacet
  facet normal 0 0 -1
    outer loop
      vertex 12 5 0
      vertex 153.198 5.86777 0
      vertex 153.198 4.13223 0
    endloop
  endfacet
  facet normal 0 0 -1
    outer loop
      vertex 8.19806 5.86777 0
      vertex 2 12 0
      vertex 9.55496 6.94986 0
    endloop
  endfacet
  facet normal 0 0 -1
    outer loop
      vertex 12 5 0
      vertex 11.247 6.56366 0
      vertex 153.198 5.86777 0
    endloop
  endfacet
  facet normal 0 0 -1
    outer loop
      vertex 11.247 6.56366 0
      vertex 2 12 0
      vertex 163 12 0
    endloop
  endfacet
  facet normal 0 0 -1
    outer loop
      vertex 9.55496 6.94986 0
      vertex 2 12 0
      vertex 11.247 6.56366 0
    endloop
  endfacet
  facet normal 0 0 -1
    outer loop
      vertex 153.198 5.86777 0
      vertex 11.247 6.56366 0
      vertex 154.555 6.94986 0
    endloop
  endfacet
  facet normal 0 0 -1
    outer loop
      vertex 11.247 3.43634 0
      vertex 153.198 4.13223 0
      vertex 154.555 3.05014 0
    endloop
  endfacet
  facet normal 0 -0 -1
    outer loop
      vertex 11.247 3.43634 0
      vertex 154.555 3.05014 0
      vertex 0 0 0
    endloop
  endfacet
  facet normal 0 0 -1
    outer loop
      vertex 154.555 6.94986 0
      vertex 163 12 0
      vertex 156.247 6.56366 0
    endloop
  endfacet
  facet normal 0 0 -1
    outer loop
      vertex 154.555 3.05014 0
      vertex 156.247 3.43634 0
      vertex 165 0 0
    endloop
  endfacet
  facet normal 0 0 -1
    outer loop
      vertex 157 5 0
      vertex 163 12 0
      vertex 165 0 0
    endloop
  endfacet
  facet normal 0 -0 -1
    outer loop
      vertex 157 5 0
      vertex 165 0 0
      vertex 156.247 3.43634 0
    endloop
  endfacet
  facet normal 0 0 -1
    outer loop
      vertex 156.247 6.56366 0
      vertex 163 12 0
      vertex 157 5 0
    endloop
  endfacet
  facet normal -0 0 -1
    outer loop
      vertex 154.555 6.94986 0
      vertex 11.247 6.56366 0
      vertex 163 12 0
    endloop
  endfacet
  facet normal 0 -1 0
    outer loop
      vertex 0 10 20
      vertex 165 10 2
      vertex 165 10 20
    endloop
  endfacet
  facet normal 0 -1 0
    outer loop
      vertex 0 10 20
      vertex 0 10 2
      vertex 165 10 2
    endloop
  endfacet
  facet normal 0 0 1
    outer loop
      vertex 165 10 2
      vertex 0 10 2
      vertex 154.555 6.94986 2
    endloop
  endfacet
  facet normal 0 0 1
    outer loop
      vertex 8.19806 5.86777 2
      vertex 0 10 2
      vertex 0 0 2
    endloop
  endfacet
  facet normal 0 0 1
    outer loop
      vertex 8.19806 5.86777 2
      vertex 0 0 2
      vertex 8.19806 4.13223 2
    endloop
  endfacet
  facet normal 0 0 1
    outer loop
      vertex 11.247 6.56366 2
      vertex 12 5 2
      vertex 153.198 5.86777 2
    endloop
  endfacet
  facet normal 0 0 1
    outer loop
      vertex 9.55496 6.94986 2
      vertex 0 10 2
      vertex 8.19806 5.86777 2
    endloop
  endfacet
  facet normal -0 -0 1
    outer loop
      vertex 9.55496 6.94986 2
      vertex 11.247 6.56366 2
      vertex 0 10 2
    endloop
  endfacet
  facet normal -0 0 1
    outer loop
      vertex 12 5 2
      vertex 153.198 4.13223 2
      vertex 153.198 5.86777 2
    endloop
  endfacet
  facet normal 0 0 1
    outer loop
      vertex 8.19806 4.13223 2
      vertex 0 0 2
      vertex 9.55496 3.05014 2
    endloop
  endfacet
  facet normal 0 0 1
    outer loop
      vertex 12 5 2
      vertex 11.247 3.43634 2
      vertex 153.198 4.13223 2
    endloop
  endfacet
  facet normal 0 0 1
    outer loop
      vertex 11.247 3.43634 2
      vertex 0 0 2
      vertex 154.555 3.05014 2
    endloop
  endfacet
  facet normal -0 0 1
    outer loop
      vertex 9.55496 3.05014 2
      vertex 0 0 2
      vertex 11.247 3.43634 2
    endloop
  endfacet
  facet normal 0 0 1
    outer loop
      vertex 153.198 4.13223 2
      vertex 11.247 3.43634 2
      vertex 154.555 3.05014 2
    endloop
  endfacet
  facet normal -0 0 1
    outer loop
      vertex 11.247 6.56366 2
      vertex 153.198 5.86777 2
      vertex 154.555 6.94986 2
    endloop
  endfacet
  facet normal 0 -0 1
    outer loop
      vertex 11.247 6.56366 2
      vertex 154.555 6.94986 2
      vertex 0 10 2
    endloop
  endfacet
  facet normal -0 0 1
    outer loop
      vertex 154.555 3.05014 2
      vertex 165 0 2
      vertex 156.247 3.43634 2
    endloop
  endfacet
  facet normal -0 0 1
    outer loop
      vertex 154.555 6.94986 2
      vertex 156.247 6.56366 2
      vertex 165 10 2
    endloop
  endfacet
  facet normal -0 0 1
    outer loop
      vertex 157 5 2
      vertex 165 0 2
      vertex 165 10 2
    endloop
  endfacet
  facet normal 0 -0 1
    outer loop
      vertex 157 5 2
      vertex 165 10 2
      vertex 156.247 6.56366 2
    endloop
  endfacet
  facet normal -0 0 1
    outer loop
      vertex 156.247 3.43634 2
      vertex 165 0 2
      vertex 157 5 2
    endloop
  endfacet
  facet normal 0 0 1
    outer loop
      vertex 154.555 3.05014 2
      vertex 0 0 2
      vertex 165 0 2
    endloop
  endfacet
  facet normal 1 0 0
    outer loop
      vertex 165 22 0
      vertex 165 12 10
      vertex 165 10 2
    endloop
  endfacet
  facet normal 1 0 0
    outer loop
      vertex 165 22 10
      vertex 165 12 10
      vertex 165 22 0
    endloop
  endfacet
  facet normal 1 0 0
    outer loop
      vertex 165 12 20
      vertex 165 10 20
      vertex 165 12 10
    endloop
  endfacet
  facet normal 1 0 0
    outer loop
      vertex 165 22 0
      vertex 165 10 2
      vertex 165 0 0
    endloop
  endfacet
  facet normal 1 0 0
    outer loop
      vertex 165 10 2
      vertex 165 0 2
      vertex 165 0 0
    endloop
  endfacet
  facet normal 1 0 0
    outer loop
      vertex 165 12 10
      vertex 165 10 20
      vertex 165 10 2
    endloop
  endfacet
  facet normal 1 -0 0
    outer loop
      vertex 8.19806 4.13223 2
      vertex 8.19806 5.86777 0
      vertex 8.19806 5.86777 2
    endloop
  endfacet
  facet normal 1 0 0
    outer loop
      vertex 8.19806 4.13223 2
      vertex 8.19806 4.13223 0
      vertex 8.19806 5.86777 0
    endloop
  endfacet
  facet normal 0.62349 -0.781831 0
    outer loop
      vertex 8.19806 5.86777 2
      vertex 9.55496 6.94986 0
      vertex 9.55496 6.94986 2
    endloop
  endfacet
  facet normal 0.62349 -0.781831 0
    outer loop
      vertex 8.19806 5.86777 2
      vertex 8.19806 5.86777 0
      vertex 9.55496 6.94986 0
    endloop
  endfacet
  facet normal -0.900969 0.433884 0
    outer loop
      vertex 12 5 0
      vertex 11.247 3.43634 2
      vertex 12 5 2
    endloop
  endfacet
  facet normal -0.900969 0.433884 0
    outer loop
      vertex 12 5 0
      vertex 11.247 3.43634 0
      vertex 11.247 3.43634 2
    endloop
  endfacet
  facet normal 0.62349 0.781831 -0
    outer loop
      vertex 9.55496 3.05014 0
      vertex 8.19806 4.13223 2
      vertex 9.55496 3.05014 2
    endloop
  endfacet
  facet normal 0.62349 0.781831 0
    outer loop
      vertex 9.55496 3.05014 0
      vertex 8.19806 4.13223 0
      vertex 8.19806 4.13223 2
    endloop
  endfacet
  facet normal -0.900969 -0.433884 0
    outer loop
      vertex 11.247 6.56366 0
      vertex 12 5 0
      vertex 12 5 2
    endloop
  endfacet
  facet normal -0.900969 -0.433884 -0
    outer loop
      vertex 11.247 6.56366 2
      vertex 11.247 6.56366 0
      vertex 12 5 2
    endloop
  endfacet
  facet normal -0.222521 0.974928 0
    outer loop
      vertex 11.247 3.43634 0
      vertex 9.55496 3.05014 2
      vertex 11.247 3.43634 2
    endloop
  endfacet
  facet normal -0.222521 0.974928 0
    outer loop
      vertex 11.247 3.43634 0
      vertex 9.55496 3.05014 0
      vertex 9.55496 3.05014 2
    endloop
  endfacet
  facet normal -0.222521 -0.974928 0
    outer loop
      vertex 9.55496 6.94986 2
      vertex 11.247 6.56366 0
      vertex 11.247 6.56366 2
    endloop
  endfacet
  facet normal -0.222521 -0.974928 -0
    outer loop
      vertex 9.55496 6.94986 2
      vertex 9.55496 6.94986 0
      vertex 11.247 6.56366 0
    endloop
  endfacet
  facet normal 1 -0 0
    outer loop
      vertex 153.198 4.13223 2
      vertex 153.198 5.86777 0
      vertex 153.198 5.86777 2
    endloop
  endfacet
  facet normal 1 0 0
    outer loop
      vertex 153.198 4.13223 2
      vertex 153.198 4.13223 0
      vertex 153.198 5.86777 0
    endloop
  endfacet
  facet normal -0.900969 0.433884 0
    outer loop
      vertex 157 5 0
      vertex 156.247 3.43634 2
      vertex 157 5 2
    endloop
  endfacet
  facet normal -0.900969 0.433884 0
    outer loop
      vertex 157 5 0
      vertex 156.247 3.43634 0
      vertex 156.247 3.43634 2
    endloop
  endfacet
  facet normal 0.62349 0.781831 -0
    outer loop
      vertex 154.555 3.05014 0
      vertex 153.198 4.13223 2
      vertex 154.555 3.05014 2
    endloop
  endfacet
  facet normal 0.62349 0.781831 0
    outer loop
      vertex 154.555 3.05014 0
      vertex 153.198 4.13223 0
      vertex 153.198 4.13223 2
    endloop
  endfacet
  facet normal -0.900969 -0.433884 0
    outer loop
      vertex 156.247 6.56366 0
      vertex 157 5 0
      vertex 157 5 2
    endloop
  endfacet
  facet normal -0.900969 -0.433884 -0
    outer loop
      vertex 156.247 6.56366 2
      vertex 156.247 6.56366 0
      vertex 157 5 2
    endloop
  endfacet
  facet normal 0.62349 -0.781831 0
    outer loop
      vertex 153.198 5.86777 2
      vertex 154.555 6.94986 0
      vertex 154.555 6.94986 2
    endloop
  endfacet
  facet normal 0.62349 -0.781831 0
    outer loop
      vertex 153.198 5.86777 2
      vertex 153.198 5.86777 0
      vertex 154.555 6.94986 0
    endloop
  endfacet
  facet normal -0.222521 0.974928 0
    outer loop
      vertex 156.247 3.43634 0
      vertex 154.555 3.05014 2
      vertex 156.247 3.43634 2
    endloop
  endfacet
  facet normal -0.222521 0.974928 0
    outer loop
      vertex 156.247 3.43634 0
      vertex 154.555 3.05014 0
      vertex 154.555 3.05014 2
    endloop
  endfacet
  facet normal -0.222521 -0.974928 0
    outer loop
      vertex 154.555 6.94986 2
      vertex 156.247 6.56366 0
      vertex 156.247 6.56366 2
    endloop
  endfacet
  facet normal -0.222521 -0.974928 -0
    outer loop
      vertex 154.555 6.94986 2
      vertex 154.555 6.94986 0
      vertex 156.247 6.56366 0
    endloop
  endfacet
  facet normal 0 1 0
    outer loop
      vertex 0 12 20
      vertex 2 12 10
      vertex 0 12 10
    endloop
  endfacet
  facet normal 0 1 0
    outer loop
      vertex 0 12 20
      vertex 163 12 10
      vertex 2 12 10
    endloop
  endfacet
  facet normal 0 1 0
    outer loop
      vertex 165 12 20
      vertex 165 12 10
      vertex 163 12 10
    endloop
  endfacet
  facet normal 0 1 0
    outer loop
      vertex 165 12 20
      vertex 163 12 10
      vertex 0 12 20
    endloop
  endfacet
  facet normal 0 1 -0
    outer loop
      vertex 163 12 0
      vertex 2 12 10
      vertex 163 12 10
    endloop
  endfacet
  facet normal 0 1 0
    outer loop
      vertex 2 12 0
      vertex 2 12 10
      vertex 163 12 0
    endloop
  endfacet
  facet normal 0 0 1
    outer loop
      vertex 165 10 20
      vertex 0 12 20
      vertex 0 10 20
    endloop
  endfacet
  facet normal 0 -0 1
    outer loop
      vertex 165 10 20
      vertex 165 12 20
      vertex 0 12 20
    endloop
  endfacet
  facet normal 0 1 0
    outer loop
      vertex 0 22 10
      vertex 2 22 0
      vertex 0 22 0
    endloop
  endfacet
  facet normal -0 1 0
    outer loop
      vertex 0 22 10
      vertex 2 22 10
      vertex 2 22 0
    endloop
  endfacet
  facet normal 0 0 1
    outer loop
      vertex 2 12 10
      vertex 0 22 10
      vertex 0 12 10
    endloop
  endfacet
  facet normal 0 -0 1
    outer loop
      vertex 2 12 10
      vertex 2 22 10
      vertex 0 22 10
    endloop
  endfacet
  facet normal 1 0 0
    outer loop
      vertex 2 22 0
      vertex 2 12 10
      vertex 2 12 0
    endloop
  endfacet
  facet normal 1 0 -0
    outer loop
      vertex 2 22 0
      vertex 2 22 10
      vertex 2 12 10
    endloop
  endfacet
  facet normal -1 0 0
    outer loop
      vertex 163 12 10
      vertex 163 22 0
      vertex 163 12 0
    endloop
  endfacet
  facet normal -1 0 0
    outer loop
      vertex 163 12 10
      vertex 163 22 10
      vertex 163 22 0
    endloop
  endfacet
  facet normal 0 1 0
    outer loop
      vertex 163 22 10
      vertex 165 22 0
      vertex 163 22 0
    endloop
  endfacet
  facet normal -0 1 0
    outer loop
      vertex 163 22 10
      vertex 165 22 10
      vertex 165 22 0
    endloop
  endfacet
  facet normal 0 0 1
    outer loop
      vertex 165 12 10
      vertex 163 22 10
      vertex 163 12 10
    endloop
  endfacet
  facet normal 0 -0 1
    outer loop
      vertex 165 12 10
      vertex 165 22 10
      vertex 163 22 10
    endloop
  endfacet
endsolid OpenSCAD_Model
