solid OpenSCAD_Model
  facet normal -1 0 0
    outer loop
      vertex 0 0 5
      vertex 0 15 0
      vertex 0 0 0
    endloop
  endfacet
  facet normal -1 0 0
    outer loop
      vertex 0 0 5
      vertex 0 15 5
      vertex 0 15 0
    endloop
  endfacet
  facet normal 0 -1 0
    outer loop
      vertex 30 0 0
      vertex 0 0 5
      vertex 0 0 0
    endloop
  endfacet
  facet normal 0 -1 0
    outer loop
      vertex 30 0 0
      vertex 30 0 5
      vertex 0 0 5
    endloop
  endfacet
  facet normal 0 0 -1
    outer loop
      vertex 0 15 0
      vertex 3 7.5 0
      vertex 0 0 0
    endloop
  endfacet
  facet normal 0 -0 -1
    outer loop
      vertex 3 7.5 0
      vertex 3.57295 5.73664 0
      vertex 0 0 0
    endloop
  endfacet
  facet normal 0 -0 -1
    outer loop
      vertex 30 15 0
      vertex 30 0 0
      vertex 9 7.5 0
    endloop
  endfacet
  facet normal 0 -0 -1
    outer loop
      vertex 3.57295 5.73664 0
      vertex 5.07295 4.64683 0
      vertex 0 0 0
    endloop
  endfacet
  facet normal 0 -0 -1
    outer loop
      vertex 6.92705 4.64683 0
      vertex 30 0 0
      vertex 0 0 0
    endloop
  endfacet
  facet normal 0 0 -1
    outer loop
      vertex 30 0 0
      vertex 6.92705 4.64683 0
      vertex 8.42705 5.73664 0
    endloop
  endfacet
  facet normal -0 0 -1
    outer loop
      vertex 6.92705 4.64683 0
      vertex 0 0 0
      vertex 5.07295 4.64683 0
    endloop
  endfacet
  facet normal 0 0 -1
    outer loop
      vertex 30 0 0
      vertex 8.42705 5.73664 0
      vertex 9 7.5 0
    endloop
  endfacet
  facet normal 0 0 -1
    outer loop
      vertex 30 15 0
      vertex 9 7.5 0
      vertex 8.42705 9.26336 0
    endloop
  endfacet
  facet normal 0 0 -1
    outer loop
      vertex 30 15 0
      vertex 8.42705 9.26336 0
      vertex 6.92705 10.3532 0
    endloop
  endfacet
  facet normal -0 0 -1
    outer loop
      vertex 30 15 0
      vertex 6.92705 10.3532 0
      vertex 0 15 0
    endloop
  endfacet
  facet normal 0 0 -1
    outer loop
      vertex 6.92705 10.3532 0
      vertex 5.07295 10.3532 0
      vertex 0 15 0
    endloop
  endfacet
  facet normal -0 0 -1
    outer loop
      vertex 5.07295 10.3532 0
      vertex 3.57295 9.26336 0
      vertex 0 15 0
    endloop
  endfacet
  facet normal -0 0 -1
    outer loop
      vertex 3.57295 9.26336 0
      vertex 3 7.5 0
      vertex 0 15 0
    endloop
  endfacet
  facet normal 0 1 0
    outer loop
      vertex 0 15 5
      vertex 30 15 0
      vertex 0 15 0
    endloop
  endfacet
  facet normal -0 1 0
    outer loop
      vertex 0 15 5
      vertex 30 15 5
      vertex 30 15 0
    endloop
  endfacet
  facet normal 0 0 1
    outer loop
      vertex 30 15 5
      vertex 0 15 5
      vertex 6.92705 10.3532 5
    endloop
  endfacet
  facet normal 0 0 1
    outer loop
      vertex 3 7.5 5
      vertex 0 15 5
      vertex 0 0 5
    endloop
  endfacet
  facet normal 0 0 1
    outer loop
      vertex 3 7.5 5
      vertex 0 0 5
      vertex 3.57295 5.73664 5
    endloop
  endfacet
  facet normal 0 0 1
    outer loop
      vertex 3.57295 9.26336 5
      vertex 0 15 5
      vertex 3 7.5 5
    endloop
  endfacet
  facet normal 0 0 1
    outer loop
      vertex 0 15 5
      vertex 5.07295 10.3532 5
      vertex 6.92705 10.3532 5
    endloop
  endfacet
  facet normal 0 0 1
    outer loop
      vertex 5.07295 10.3532 5
      vertex 0 15 5
      vertex 3.57295 9.26336 5
    endloop
  endfacet
  facet normal 0 0 1
    outer loop
      vertex 30 15 5
      vertex 9 7.5 5
      vertex 30 0 5
    endloop
  endfacet
  facet normal -0 0 1
    outer loop
      vertex 6.92705 10.3532 5
      vertex 8.42705 9.26336 5
      vertex 30 15 5
    endloop
  endfacet
  facet normal -0 0 1
    outer loop
      vertex 8.42705 9.26336 5
      vertex 9 7.5 5
      vertex 30 15 5
    endloop
  endfacet
  facet normal 0 0 1
    outer loop
      vertex 9 7.5 5
      vertex 8.42705 5.73664 5
      vertex 30 0 5
    endloop
  endfacet
  facet normal 0 0 1
    outer loop
      vertex 3.57295 5.73664 5
      vertex 0 0 5
      vertex 5.07295 4.64683 5
    endloop
  endfacet
  facet normal 0 0 1
    outer loop
      vertex 8.42705 5.73664 5
      vertex 6.92705 4.64683 5
      vertex 30 0 5
    endloop
  endfacet
  facet normal 0 0 1
    outer loop
      vertex 6.92705 4.64683 5
      vertex 0 0 5
      vertex 30 0 5
    endloop
  endfacet
  facet normal -0 0 1
    outer loop
      vertex 5.07295 4.64683 5
      vertex 0 0 5
      vertex 6.92705 4.64683 5
    endloop
  endfacet
  facet normal 1 0 0
    outer loop
      vertex 30 15 0
      vertex 30 0 5
      vertex 30 0 0
    endloop
  endfacet
  facet normal 1 0 -0
    outer loop
      vertex 30 15 0
      vertex 30 15 5
      vertex 30 0 5
    endloop
  endfacet
  facet normal 0.951057 0.309017 -0
    outer loop
      vertex 3 7.5 0
      vertex 3 7.5 5
      vertex 3.57295 5.73664 5
    endloop
  endfacet
  facet normal 0.951057 0.309017 -0
    outer loop
      vertex 3.57295 5.73664 0
      vertex 3 7.5 0
      vertex 3.57295 5.73664 5
    endloop
  endfacet
  facet normal 0 -1 0
    outer loop
      vertex 5.07295 10.3532 5
      vertex 6.92705 10.3532 0
      vertex 6.92705 10.3532 5
    endloop
  endfacet
  facet normal 0 -1 0
    outer loop
      vertex 5.07295 10.3532 5
      vertex 5.07295 10.3532 0
      vertex 6.92705 10.3532 0
    endloop
  endfacet
  facet normal -0.951057 -0.309017 0
    outer loop
      vertex 8.42705 9.26336 0
      vertex 9 7.5 0
      vertex 9 7.5 5
    endloop
  endfacet
  facet normal -0.951057 -0.309017 -0
    outer loop
      vertex 8.42705 9.26336 5
      vertex 8.42705 9.26336 0
      vertex 9 7.5 5
    endloop
  endfacet
  facet normal 0.587785 0.809017 -0
    outer loop
      vertex 5.07295 4.64683 0
      vertex 3.57295 5.73664 5
      vertex 5.07295 4.64683 5
    endloop
  endfacet
  facet normal 0.587785 0.809017 0
    outer loop
      vertex 5.07295 4.64683 0
      vertex 3.57295 5.73664 0
      vertex 3.57295 5.73664 5
    endloop
  endfacet
  facet normal 0.951057 -0.309017 0
    outer loop
      vertex 3 7.5 5
      vertex 3.57295 9.26336 0
      vertex 3.57295 9.26336 5
    endloop
  endfacet
  facet normal 0.951057 -0.309017 0
    outer loop
      vertex 3 7.5 5
      vertex 3 7.5 0
      vertex 3.57295 9.26336 0
    endloop
  endfacet
  facet normal -0.951057 0.309017 0
    outer loop
      vertex 9 7.5 0
      vertex 8.42705 5.73664 5
      vertex 9 7.5 5
    endloop
  endfacet
  facet normal -0.951057 0.309017 0
    outer loop
      vertex 9 7.5 0
      vertex 8.42705 5.73664 0
      vertex 8.42705 5.73664 5
    endloop
  endfacet
  facet normal -0.587785 -0.809017 0
    outer loop
      vertex 6.92705 10.3532 5
      vertex 8.42705 9.26336 0
      vertex 8.42705 9.26336 5
    endloop
  endfacet
  facet normal -0.587785 -0.809017 -0
    outer loop
      vertex 6.92705 10.3532 5
      vertex 6.92705 10.3532 0
      vertex 8.42705 9.26336 0
    endloop
  endfacet
  facet normal 0.587785 -0.809017 0
    outer loop
      vertex 3.57295 9.26336 5
      vertex 5.07295 10.3532 0
      vertex 5.07295 10.3532 5
    endloop
  endfacet
  facet normal 0.587785 -0.809017 0
    outer loop
      vertex 3.57295 9.26336 5
      vertex 3.57295 9.26336 0
      vertex 5.07295 10.3532 0
    endloop
  endfacet
  facet normal 0 1 -0
    outer loop
      vertex 6.92705 4.64683 0
      vertex 5.07295 4.64683 5
      vertex 6.92705 4.64683 5
    endloop
  endfacet
  facet normal 0 1 0
    outer loop
      vertex 6.92705 4.64683 0
      vertex 5.07295 4.64683 0
      vertex 5.07295 4.64683 5
    endloop
  endfacet
  facet normal -0.587785 0.809017 0
    outer loop
      vertex 8.42705 5.73664 0
      vertex 6.92705 4.64683 5
      vertex 8.42705 5.73664 5
    endloop
  endfacet
  facet normal -0.587785 0.809017 0
    outer loop
      vertex 8.42705 5.73664 0
      vertex 6.92705 4.64683 0
      vertex 6.92705 4.64683 5
    endloop
  endfacet
endsolid OpenSCAD_Model
