solid OpenSCAD_Model
  facet normal -1 0 0
    outer loop
      vertex 0 0 2
      vertex 0 40 0
      vertex 0 0 0
    endloop
  endfacet
  facet normal -1 0 0
    outer loop
      vertex 0 0 2
      vertex 0 40 2
      vertex 0 40 0
    endloop
  endfacet
  facet normal 0 -1 0
    outer loop
      vertex 25 0 0
      vertex 0 0 2
      vertex 0 0 0
    endloop
  endfacet
  facet normal 0 -1 0
    outer loop
      vertex 25 0 0
      vertex 25 0 2
      vertex 0 0 2
    endloop
  endfacet
  facet normal 0 0 -1
    outer loop
      vertex 25 40 0
      vertex 15.5 20.96 0
      vertex 14.3541 20.96 0
    endloop
  endfacet
  facet normal 0 0 -1
    outer loop
      vertex 0 40 0
      vertex 9.5 20.96 0
      vertex 0 0 0
    endloop
  endfacet
  facet normal 0 -0 -1
    outer loop
      vertex 9.5 20.96 0
      vertex 10.0127 18.7286 0
      vertex 0 0 0
    endloop
  endfacet
  facet normal 0 -0 -1
    outer loop
      vertex 25 40 0
      vertex 25 0 0
      vertex 15.5 20.96 0
    endloop
  endfacet
  facet normal 0 -0 -1
    outer loop
      vertex 10.0127 18.7286 0
      vertex 10.0729 18.4662 0
      vertex 0 0 0
    endloop
  endfacet
  facet normal 0 -0 -1
    outer loop
      vertex 11.9256 16.925 0
      vertex 25 0 0
      vertex 0 0 0
    endloop
  endfacet
  facet normal -0 0 -1
    outer loop
      vertex 11.307 17.1983 0
      vertex 0 0 0
      vertex 10.0729 18.4662 0
    endloop
  endfacet
  facet normal -0 0 -1
    outer loop
      vertex 11.5729 16.925 0
      vertex 0 0 0
      vertex 11.307 17.1983 0
    endloop
  endfacet
  facet normal -0 0 -1
    outer loop
      vertex 11.9256 16.925 0
      vertex 0 0 0
      vertex 11.5729 16.925 0
    endloop
  endfacet
  facet normal -0 -0 -1
    outer loop
      vertex 13.4271 16.925 0
      vertex 25 0 0
      vertex 11.9256 16.925 0
    endloop
  endfacet
  facet normal 0 -0 -1
    outer loop
      vertex 14.7369 18.2709 0
      vertex 25 0 0
      vertex 13.4271 16.925 0
    endloop
  endfacet
  facet normal 0 0 -1
    outer loop
      vertex 25 0 0
      vertex 14.9271 18.4662 0
      vertex 14.9873 18.7286 0
    endloop
  endfacet
  facet normal 0 -0 -1
    outer loop
      vertex 14.9271 18.4662 0
      vertex 25 0 0
      vertex 14.7369 18.2709 0
    endloop
  endfacet
  facet normal 0 0 -1
    outer loop
      vertex 25 0 0
      vertex 14.9873 18.7286 0
      vertex 15.5 20.96 0
    endloop
  endfacet
  facet normal -0 0 -1
    outer loop
      vertex 25 40 0
      vertex 11.3541 20.96 0
      vertex 0 40 0
    endloop
  endfacet
  facet normal 0 0 -1
    outer loop
      vertex 25 40 0
      vertex 14.3541 20.96 0
      vertex 11.3541 20.96 0
    endloop
  endfacet
  facet normal 0 0 -1
    outer loop
      vertex 0 40 0
      vertex 11.3541 20.96 0
      vertex 10.6459 20.96 0
    endloop
  endfacet
  facet normal 0 0 -1
    outer loop
      vertex 0 40 0
      vertex 10.6459 20.96 0
      vertex 9.5 20.96 0
    endloop
  endfacet
  facet normal 0 1 0
    outer loop
      vertex 0 40 2
      vertex 25 40 0
      vertex 0 40 0
    endloop
  endfacet
  facet normal -0 1 0
    outer loop
      vertex 0 40 2
      vertex 25 40 2
      vertex 25 40 0
    endloop
  endfacet
  facet normal 0 0 1
    outer loop
      vertex 25 40 2
      vertex 0 40 2
      vertex 13.3509 22.96 2
    endloop
  endfacet
  facet normal 0 0 1
    outer loop
      vertex 9.5 18.96 2
      vertex 0 40 2
      vertex 0 0 2
    endloop
  endfacet
  facet normal 0 0 1
    outer loop
      vertex 9.59667 19.3808 2
      vertex 0 40 2
      vertex 9.5 18.96 2
    endloop
  endfacet
  facet normal 0 0 1
    outer loop
      vertex 0 40 2
      vertex 10.0729 21.4538 2
      vertex 10.1722 21.5558 2
    endloop
  endfacet
  facet normal 0 0 1
    outer loop
      vertex 10.0729 21.4538 2
      vertex 0 40 2
      vertex 9.59667 19.3808 2
    endloop
  endfacet
  facet normal 0 0 1
    outer loop
      vertex 0 40 2
      vertex 10.1722 21.5558 2
      vertex 11.5389 22.96 2
    endloop
  endfacet
  facet normal 0 0 1
    outer loop
      vertex 0 40 2
      vertex 11.5389 22.96 2
      vertex 13.3509 22.96 2
    endloop
  endfacet
  facet normal 0 0 1
    outer loop
      vertex 25 40 2
      vertex 13.3509 22.96 2
      vertex 13.4611 22.96 2
    endloop
  endfacet
  facet normal 0 0 1
    outer loop
      vertex 25 40 2
      vertex 13.4611 22.96 2
      vertex 14.9271 21.4538 2
    endloop
  endfacet
  facet normal 0 0 1
    outer loop
      vertex 25 40 2
      vertex 15.5 18.96 2
      vertex 25 0 2
    endloop
  endfacet
  facet normal -0 0 1
    outer loop
      vertex 14.9271 21.4538 2
      vertex 15.4033 19.3808 2
      vertex 25 40 2
    endloop
  endfacet
  facet normal -0 0 1
    outer loop
      vertex 15.4033 19.3808 2
      vertex 15.5 18.96 2
      vertex 25 40 2
    endloop
  endfacet
  facet normal 0 0 1
    outer loop
      vertex 15.5 18.96 2
      vertex 15.084 17.1493 2
      vertex 25 0 2
    endloop
  endfacet
  facet normal 0 0 1
    outer loop
      vertex 9.5 18.96 2
      vertex 0 0 2
      vertex 9.91601 17.1493 2
    endloop
  endfacet
  facet normal 0 0 1
    outer loop
      vertex 15.084 17.1493 2
      vertex 14.9271 16.4662 2
      vertex 25 0 2
    endloop
  endfacet
  facet normal 0 0 1
    outer loop
      vertex 12.2752 14.925 2
      vertex 0 0 2
      vertex 25 0 2
    endloop
  endfacet
  facet normal -0 0 1
    outer loop
      vertex 14.4319 15.9575 2
      vertex 25 0 2
      vertex 14.9271 16.4662 2
    endloop
  endfacet
  facet normal -0 0 1
    outer loop
      vertex 13.4271 14.925 2
      vertex 25 0 2
      vertex 14.4319 15.9575 2
    endloop
  endfacet
  facet normal 0 0 1
    outer loop
      vertex 12.2752 14.925 2
      vertex 25 0 2
      vertex 13.4271 14.925 2
    endloop
  endfacet
  facet normal -0 0 1
    outer loop
      vertex 11.5729 14.925 2
      vertex 0 0 2
      vertex 12.2752 14.925 2
    endloop
  endfacet
  facet normal 0 0 1
    outer loop
      vertex 11.0433 15.4692 2
      vertex 0 0 2
      vertex 11.5729 14.925 2
    endloop
  endfacet
  facet normal 0 0 1
    outer loop
      vertex 10.0729 16.4662 2
      vertex 0 0 2
      vertex 11.0433 15.4692 2
    endloop
  endfacet
  facet normal 0 0 1
    outer loop
      vertex 9.91601 17.1493 2
      vertex 0 0 2
      vertex 10.0729 16.4662 2
    endloop
  endfacet
  facet normal 1 0 0
    outer loop
      vertex 25 40 0
      vertex 25 0 2
      vertex 25 0 0
    endloop
  endfacet
  facet normal 1 0 -0
    outer loop
      vertex 25 40 0
      vertex 25 40 2
      vertex 25 0 2
    endloop
  endfacet
  facet normal -0.951057 -0.218508 -0.218508
    outer loop
      vertex 9.91601 17.1493 2
      vertex 9.5 10.3534 10.6066
      vertex 9.5 18.96 2
    endloop
  endfacet
  facet normal -0.951057 -0.218508 -0.218508
    outer loop
      vertex 10.0127 18.7286 0
      vertex 9.5 20.96 0
      vertex 10.0729 19.7131 -1.24688
    endloop
  endfacet
  facet normal -3.35791e-16 -0.707107 0.707107
    outer loop
      vertex 11.5729 12.3709 12.6241
      vertex 9.5 10.3534 10.6066
      vertex 10.0729 9.10652 9.35972
    endloop
  endfacet
  facet normal -0.951057 0.218508 0.218508
    outer loop
      vertex 10.0729 21.4538 2
      vertex 9.59667 19.3808 2
      vertex 10.0729 11.6003 11.8535
    endloop
  endfacet
  facet normal 4.19739e-16 -0.707107 0.707107
    outer loop
      vertex 14.9271 11.6003 11.8535
      vertex 11.5729 12.3709 12.6241
      vertex 15.5 10.3534 10.6066
    endloop
  endfacet
  facet normal 0.587785 0.572061 0.572061
    outer loop
      vertex 14.9271 21.4538 2
      vertex 13.4611 22.96 2
      vertex 13.4271 22.9775 2.0175
    endloop
  endfacet
  facet normal 0.587785 0.572061 0.572061
    outer loop
      vertex 14.9271 11.6003 11.8535
      vertex 14.9271 21.4538 2
      vertex 13.4271 22.9775 2.0175
    endloop
  endfacet
  facet normal -0.951057 -0.218508 -0.218508
    outer loop
      vertex 10.0729 16.4662 2
      vertex 10.0729 9.10652 9.35972
      vertex 9.5 10.3534 10.6066
    endloop
  endfacet
  facet normal -0.951057 -0.218508 -0.218508
    outer loop
      vertex 9.91601 17.1493 2
      vertex 10.0729 16.4662 2
      vertex 9.5 10.3534 10.6066
    endloop
  endfacet
  facet normal -0.951057 -0.218508 -0.218508
    outer loop
      vertex 10.0729 18.4662 0
      vertex 10.0127 18.7286 0
      vertex 10.0729 19.7131 -1.24688
    endloop
  endfacet
  facet normal -2.17328e-15 0.707107 -0.707107
    outer loop
      vertex 11.5729 18.9425 -2.0175
      vertex 9.5 20.96 0
      vertex 10.6459 20.96 0
    endloop
  endfacet
  facet normal -1.09889e-15 -0.707107 0.707107
    outer loop
      vertex 10.0729 11.6003 11.8535
      vertex 9.5 10.3534 10.6066
      vertex 11.5729 12.3709 12.6241
    endloop
  endfacet
  facet normal 0.951057 0.218508 0.218508
    outer loop
      vertex 15.5 18.96 2
      vertex 15.4033 19.3808 2
      vertex 14.9271 11.6003 11.8535
    endloop
  endfacet
  facet normal 0.951057 0.218508 0.218508
    outer loop
      vertex 15.5 10.3534 10.6066
      vertex 15.5 18.96 2
      vertex 14.9271 11.6003 11.8535
    endloop
  endfacet
  facet normal 1.69364e-16 0.707107 0.707107
    outer loop
      vertex 11.5729 22.9775 2.0175
      vertex 11.5729 12.3709 12.6241
      vertex 13.4271 22.9775 2.0175
    endloop
  endfacet
  facet normal -0.587785 0.572061 0.572061
    outer loop
      vertex 11.5729 12.3709 12.6241
      vertex 10.0729 21.4538 2
      vertex 10.0729 11.6003 11.8535
    endloop
  endfacet
  facet normal -0.587785 0.572061 0.572061
    outer loop
      vertex 11.5729 12.3709 12.6241
      vertex 10.1722 21.5558 2
      vertex 10.0729 21.4538 2
    endloop
  endfacet
  facet normal -0.951057 0.218508 0.218508
    outer loop
      vertex 10.0729 11.6003 11.8535
      vertex 9.5 18.96 2
      vertex 9.5 10.3534 10.6066
    endloop
  endfacet
  facet normal -0.951057 0.218508 0.218508
    outer loop
      vertex 10.0729 11.6003 11.8535
      vertex 9.59667 19.3808 2
      vertex 9.5 18.96 2
    endloop
  endfacet
  facet normal 0 0.707107 -0.707107
    outer loop
      vertex 13.4611 22.96 2
      vertex 13.3509 22.96 2
      vertex 13.4271 22.9775 2.0175
    endloop
  endfacet
  facet normal -0.587785 0.572061 0.572061
    outer loop
      vertex 11.5729 22.9775 2.0175
      vertex 11.5389 22.96 2
      vertex 10.1722 21.5558 2
    endloop
  endfacet
  facet normal -0.587785 0.572061 0.572061
    outer loop
      vertex 11.5729 12.3709 12.6241
      vertex 11.5729 22.9775 2.0175
      vertex 10.1722 21.5558 2
    endloop
  endfacet
  facet normal 0 0.707107 -0.707107
    outer loop
      vertex 11.5729 22.9775 2.0175
      vertex 13.3509 22.96 2
      vertex 11.5389 22.96 2
    endloop
  endfacet
  facet normal -1.69364e-16 0.707107 -0.707107
    outer loop
      vertex 11.5729 22.9775 2.0175
      vertex 13.4271 22.9775 2.0175
      vertex 13.3509 22.96 2
    endloop
  endfacet
  facet normal 6.77457e-16 -0.707107 0.707107
    outer loop
      vertex 13.4271 12.3709 12.6241
      vertex 11.5729 12.3709 12.6241
      vertex 14.9271 11.6003 11.8535
    endloop
  endfacet
  facet normal -0 -0.707107 -0.707107
    outer loop
      vertex 11.9256 16.925 0
      vertex 11.5729 16.925 0
      vertex 11.5729 18.9425 -2.0175
    endloop
  endfacet
  facet normal -8.22517e-16 -0.707107 -0.707107
    outer loop
      vertex 12.2752 14.925 2
      vertex 13.4271 8.3359 8.58911
      vertex 11.5729 8.3359 8.58911
    endloop
  endfacet
  facet normal 0 -0.707107 -0.707107
    outer loop
      vertex 11.5729 14.925 2
      vertex 12.2752 14.925 2
      vertex 11.5729 8.3359 8.58911
    endloop
  endfacet
  facet normal -1.69364e-16 -0.707107 -0.707107
    outer loop
      vertex 13.4271 18.9425 -2.0175
      vertex 11.9256 16.925 0
      vertex 11.5729 18.9425 -2.0175
    endloop
  endfacet
  facet normal 0 -0.707107 -0.707107
    outer loop
      vertex 13.4271 18.9425 -2.0175
      vertex 13.4271 16.925 0
      vertex 11.9256 16.925 0
    endloop
  endfacet
  facet normal -6.6201e-16 -0.707107 -0.707107
    outer loop
      vertex 13.4271 8.3359 8.58911
      vertex 12.2752 14.925 2
      vertex 13.4271 14.925 2
    endloop
  endfacet
  facet normal 0.587785 -0.572061 -0.572061
    outer loop
      vertex 14.4319 15.9575 2
      vertex 14.9271 9.10652 9.35972
      vertex 13.4271 8.3359 8.58911
    endloop
  endfacet
  facet normal 0.587785 -0.572061 -0.572061
    outer loop
      vertex 14.4319 15.9575 2
      vertex 14.9271 16.4662 2
      vertex 14.9271 9.10652 9.35972
    endloop
  endfacet
  facet normal 0.587785 -0.572061 -0.572061
    outer loop
      vertex 14.9271 18.4662 0
      vertex 14.7369 18.2709 0
      vertex 14.9271 19.7131 -1.24688
    endloop
  endfacet
  facet normal -0.587785 -0.572061 -0.572061
    outer loop
      vertex 11.5729 14.925 2
      vertex 11.5729 8.3359 8.58911
      vertex 10.0729 9.10652 9.35972
    endloop
  endfacet
  facet normal -0.587785 -0.572061 -0.572061
    outer loop
      vertex 11.0433 15.4692 2
      vertex 11.5729 14.925 2
      vertex 10.0729 9.10652 9.35972
    endloop
  endfacet
  facet normal -0.587785 -0.572061 -0.572061
    outer loop
      vertex 11.5729 16.925 0
      vertex 11.307 17.1983 0
      vertex 11.5729 18.9425 -2.0175
    endloop
  endfacet
  facet normal 1.02194e-15 0.707107 0.707107
    outer loop
      vertex 13.4271 22.9775 2.0175
      vertex 11.5729 12.3709 12.6241
      vertex 13.4271 12.3709 12.6241
    endloop
  endfacet
  facet normal 0.587785 0.572061 0.572061
    outer loop
      vertex 13.4271 22.9775 2.0175
      vertex 13.4271 12.3709 12.6241
      vertex 14.9271 11.6003 11.8535
    endloop
  endfacet
  facet normal -0.587785 -0.572061 -0.572061
    outer loop
      vertex 11.5729 18.9425 -2.0175
      vertex 11.307 17.1983 0
      vertex 10.0729 18.4662 0
    endloop
  endfacet
  facet normal -0.587785 -0.572061 -0.572061
    outer loop
      vertex 10.0729 19.7131 -1.24688
      vertex 11.5729 18.9425 -2.0175
      vertex 10.0729 18.4662 0
    endloop
  endfacet
  facet normal -0.587785 -0.572061 -0.572061
    outer loop
      vertex 11.0433 15.4692 2
      vertex 10.0729 9.10652 9.35972
      vertex 10.0729 16.4662 2
    endloop
  endfacet
  facet normal 8.79112e-16 0.707107 -0.707107
    outer loop
      vertex 9.5 20.96 0
      vertex 11.5729 18.9425 -2.0175
      vertex 10.0729 19.7131 -1.24688
    endloop
  endfacet
  facet normal 2.59413e-16 -0.707107 0.707107
    outer loop
      vertex 15.5 10.3534 10.6066
      vertex 11.5729 12.3709 12.6241
      vertex 14.9271 9.10652 9.35972
    endloop
  endfacet
  facet normal 6.59334e-16 -0.707107 0.707107
    outer loop
      vertex 14.9271 9.10652 9.35972
      vertex 11.5729 8.3359 8.58911
      vertex 13.4271 8.3359 8.58911
    endloop
  endfacet
  facet normal 0 0.707107 -0.707107
    outer loop
      vertex 11.3541 20.96 0
      vertex 11.5729 18.9425 -2.0175
      vertex 10.6459 20.96 0
    endloop
  endfacet
  facet normal -1.67895e-16 0.707107 -0.707107
    outer loop
      vertex 11.3541 20.96 0
      vertex 13.4271 18.9425 -2.0175
      vertex 11.5729 18.9425 -2.0175
    endloop
  endfacet
  facet normal 0 0.707107 -0.707107
    outer loop
      vertex 13.4271 18.9425 -2.0175
      vertex 11.3541 20.96 0
      vertex 14.3541 20.96 0
    endloop
  endfacet
  facet normal 9.28103e-17 -0.707107 0.707107
    outer loop
      vertex 11.5729 12.3709 12.6241
      vertex 11.5729 8.3359 8.58911
      vertex 14.9271 9.10652 9.35972
    endloop
  endfacet
  facet normal -2.0753e-16 -0.707107 0.707107
    outer loop
      vertex 11.5729 12.3709 12.6241
      vertex 10.0729 9.10652 9.35972
      vertex 11.5729 8.3359 8.58911
    endloop
  endfacet
  facet normal 0.951057 -0.218508 -0.218508
    outer loop
      vertex 14.9271 16.4662 2
      vertex 15.5 10.3534 10.6066
      vertex 14.9271 9.10652 9.35972
    endloop
  endfacet
  facet normal 0.951057 -0.218508 -0.218508
    outer loop
      vertex 14.9271 16.4662 2
      vertex 15.084 17.1493 2
      vertex 15.5 10.3534 10.6066
    endloop
  endfacet
  facet normal 0.951057 -0.218508 -0.218508
    outer loop
      vertex 14.9873 18.7286 0
      vertex 14.9271 18.4662 0
      vertex 14.9271 19.7131 -1.24688
    endloop
  endfacet
  facet normal 3.29667e-16 0.707107 -0.707107
    outer loop
      vertex 14.9271 19.7131 -1.24688
      vertex 13.4271 18.9425 -2.0175
      vertex 15.5 20.96 0
    endloop
  endfacet
  facet normal 0.587785 -0.572061 -0.572061
    outer loop
      vertex 14.4319 15.9575 2
      vertex 13.4271 8.3359 8.58911
      vertex 13.4271 14.925 2
    endloop
  endfacet
  facet normal 0.587785 -0.572061 -0.572061
    outer loop
      vertex 13.4271 18.9425 -2.0175
      vertex 14.7369 18.2709 0
      vertex 13.4271 16.925 0
    endloop
  endfacet
  facet normal 0.587785 -0.572061 -0.572061
    outer loop
      vertex 13.4271 18.9425 -2.0175
      vertex 14.9271 19.7131 -1.24688
      vertex 14.7369 18.2709 0
    endloop
  endfacet
  facet normal 0.951057 -0.218508 -0.218508
    outer loop
      vertex 15.5 10.3534 10.6066
      vertex 15.084 17.1493 2
      vertex 15.5 18.96 2
    endloop
  endfacet
  facet normal 0.951057 -0.218508 -0.218508
    outer loop
      vertex 14.9873 18.7286 0
      vertex 14.9271 19.7131 -1.24688
      vertex 15.5 20.96 0
    endloop
  endfacet
  facet normal 0 0.707107 -0.707107
    outer loop
      vertex 15.5 20.96 0
      vertex 13.4271 18.9425 -2.0175
      vertex 14.3541 20.96 0
    endloop
  endfacet
  facet normal 0.951057 0.218508 0.218508
    outer loop
      vertex 14.9271 21.4538 2
      vertex 14.9271 11.6003 11.8535
      vertex 15.4033 19.3808 2
    endloop
  endfacet
endsolid OpenSCAD_Model
