solid OpenSCAD_Model
  facet normal -1 0 0
    outer loop
      vertex 0 0 0
      vertex 0 0 20
      vertex 0 60 0
    endloop
  endfacet
  facet normal -1 0 0
    outer loop
      vertex 0 60 0
      vertex 0 0 20
      vertex 0 23.0227 20
    endloop
  endfacet
  facet normal -1 0 0
    outer loop
      vertex 0 27.2794 20
      vertex 0 23.0227 20
      vertex 0 36.7624 57.7496
    endloop
  endfacet
  facet normal -1 0 0
    outer loop
      vertex 0 60 0
      vertex 0 23.0227 20
      vertex 0 27.2794 20
    endloop
  endfacet
  facet normal -1 0 0
    outer loop
      vertex 0 60 20
      vertex 0 60 0
      vertex 0 27.2794 20
    endloop
  endfacet
  facet normal -1 0 0
    outer loop
      vertex 0 27.2794 20
      vertex 0 36.7624 57.7496
      vertex 0 40.5212 56.3816
    endloop
  endfacet
  facet normal 0 -1 0
    outer loop
      vertex 0 0 20
      vertex 0 0 0
      vertex 154 0 0
    endloop
  endfacet
  facet normal 0 -1 0
    outer loop
      vertex 154 0 20
      vertex 0 0 20
      vertex 154 0 0
    endloop
  endfacet
  facet normal 0 0 -1
    outer loop
      vertex 152 20 0
      vertex 154 0 0
      vertex 2 20 0
    endloop
  endfacet
  facet normal 0 0 -1
    outer loop
      vertex 152 58 0
      vertex 0 60 0
      vertex 154 60 0
    endloop
  endfacet
  facet normal 0 0 -1
    outer loop
      vertex 0 0 0
      vertex 0 60 0
      vertex 2 58 0
    endloop
  endfacet
  facet normal 0 0 -1
    outer loop
      vertex 0 0 0
      vertex 2 58 0
      vertex 2 20 0
    endloop
  endfacet
  facet normal 0 0 -1
    outer loop
      vertex 0 0 0
      vertex 2 20 0
      vertex 154 0 0
    endloop
  endfacet
  facet normal 0 0 -1
    outer loop
      vertex 154 0 0
      vertex 152 20 0
      vertex 154 60 0
    endloop
  endfacet
  facet normal 0 0 -1
    outer loop
      vertex 152 20 0
      vertex 152 58 0
      vertex 154 60 0
    endloop
  endfacet
  facet normal 0 0 -1
    outer loop
      vertex 2 58 0
      vertex 0 60 0
      vertex 152 58 0
    endloop
  endfacet
  facet normal 0 1 0
    outer loop
      vertex 0 60 0
      vertex 0 60 20
      vertex 154 60 0
    endloop
  endfacet
  facet normal 0 1 0
    outer loop
      vertex 154 60 0
      vertex 0 60 20
      vertex 154 60 20
    endloop
  endfacet
  facet normal 0 0 1
    outer loop
      vertex 0 60 20
      vertex 0 27.2794 20
      vertex 2 27.2794 20
    endloop
  endfacet
  facet normal 0 0 1
    outer loop
      vertex 152 58 20
      vertex 0 60 20
      vertex 2 58 20
    endloop
  endfacet
  facet normal 0 0 1
    outer loop
      vertex 2 58 20
      vertex 0 60 20
      vertex 2 27.2794 20
    endloop
  endfacet
  facet normal 0 0 1
    outer loop
      vertex 154 60 20
      vertex 0 60 20
      vertex 152 58 20
    endloop
  endfacet
  facet normal 0 0 1
    outer loop
      vertex 154 27.2794 20
      vertex 152 58 20
      vertex 152 27.2794 20
    endloop
  endfacet
  facet normal 0 0 1
    outer loop
      vertex 154 60 20
      vertex 152 58 20
      vertex 154 27.2794 20
    endloop
  endfacet
  facet normal 0 0.939693 -0.34202
    outer loop
      vertex 0 27.2794 20
      vertex 0 40.5212 56.3816
      vertex 2 27.2794 20
    endloop
  endfacet
  facet normal 0 0.939693 -0.34202
    outer loop
      vertex 2 27.2794 20
      vertex 0 40.5212 56.3816
      vertex 154 40.5212 56.3816
    endloop
  endfacet
  facet normal 0 0.939693 -0.34202
    outer loop
      vertex 152 27.2794 20
      vertex 154 40.5212 56.3816
      vertex 154 27.2794 20
    endloop
  endfacet
  facet normal 0 0.939693 -0.34202
    outer loop
      vertex 2 27.2794 20
      vertex 154 40.5212 56.3816
      vertex 152 27.2794 20
    endloop
  endfacet
  facet normal 0 0.939693 -0.34202
    outer loop
      vertex 152 27.2794 20
      vertex 152 20 0
      vertex 2 27.2794 20
    endloop
  endfacet
  facet normal 0 0.939693 -0.34202
    outer loop
      vertex 2 27.2794 20
      vertex 152 20 0
      vertex 2 20 0
    endloop
  endfacet
  facet normal 0 0.34202 0.939693
    outer loop
      vertex 0 40.5212 56.3816
      vertex 0 36.7624 57.7496
      vertex 154 36.7624 57.7496
    endloop
  endfacet
  facet normal 0 0.34202 0.939693
    outer loop
      vertex 154 40.5212 56.3816
      vertex 0 40.5212 56.3816
      vertex 154 36.7624 57.7496
    endloop
  endfacet
  facet normal 0 -0.939693 0.34202
    outer loop
      vertex 152 23.0227 20
      vertex 154 23.0227 20
      vertex 0 36.7624 57.7496
    endloop
  endfacet
  facet normal 0 -0.939693 0.34202
    outer loop
      vertex 0 36.7624 57.7496
      vertex 0 23.0227 20
      vertex 2 23.0227 20
    endloop
  endfacet
  facet normal 0 -0.939693 0.34202
    outer loop
      vertex 152 16.4712 2
      vertex 0 36.7624 57.7496
      vertex 2 23.0227 20
    endloop
  endfacet
  facet normal 0 -0.939693 0.34202
    outer loop
      vertex 2 16.4712 2
      vertex 152 16.4712 2
      vertex 2 23.0227 20
    endloop
  endfacet
  facet normal 0 -0.939693 0.34202
    outer loop
      vertex 152 16.4712 2
      vertex 152 23.0227 20
      vertex 0 36.7624 57.7496
    endloop
  endfacet
  facet normal 0 -0.939693 0.34202
    outer loop
      vertex 154 23.0227 20
      vertex 154 36.7624 57.7496
      vertex 0 36.7624 57.7496
    endloop
  endfacet
  facet normal 0 0 1
    outer loop
      vertex 2 2 20
      vertex 0 0 20
      vertex 154 0 20
    endloop
  endfacet
  facet normal 0 0 1
    outer loop
      vertex 2 2 20
      vertex 2 23.0227 20
      vertex 0 23.0227 20
    endloop
  endfacet
  facet normal 0 0 1
    outer loop
      vertex 154 23.0227 20
      vertex 152 23.0227 20
      vertex 154 0 20
    endloop
  endfacet
  facet normal 0 0 1
    outer loop
      vertex 152 23.0227 20
      vertex 152 2 20
      vertex 154 0 20
    endloop
  endfacet
  facet normal 0 0 1
    outer loop
      vertex 0 23.0227 20
      vertex 0 0 20
      vertex 2 2 20
    endloop
  endfacet
  facet normal 0 0 1
    outer loop
      vertex 152 2 20
      vertex 2 2 20
      vertex 154 0 20
    endloop
  endfacet
  facet normal 1 0 0
    outer loop
      vertex 154 0 20
      vertex 154 0 0
      vertex 154 60 0
    endloop
  endfacet
  facet normal 1 0 0
    outer loop
      vertex 154 23.0227 20
      vertex 154 0 20
      vertex 154 60 0
    endloop
  endfacet
  facet normal 1 0 0
    outer loop
      vertex 154 27.2794 20
      vertex 154 23.0227 20
      vertex 154 60 0
    endloop
  endfacet
  facet normal 1 0 0
    outer loop
      vertex 154 60 20
      vertex 154 27.2794 20
      vertex 154 60 0
    endloop
  endfacet
  facet normal 1 0 0
    outer loop
      vertex 154 40.5212 56.3816
      vertex 154 23.0227 20
      vertex 154 27.2794 20
    endloop
  endfacet
  facet normal 1 0 0
    outer loop
      vertex 154 36.7624 57.7496
      vertex 154 23.0227 20
      vertex 154 40.5212 56.3816
    endloop
  endfacet
  facet normal 1 0 0
    outer loop
      vertex 2 58 0
      vertex 2 58 20
      vertex 2 27.2794 20
    endloop
  endfacet
  facet normal 1 0 0
    outer loop
      vertex 2 20 0
      vertex 2 58 0
      vertex 2 27.2794 20
    endloop
  endfacet
  facet normal 0 -1 0
    outer loop
      vertex 152 58 0
      vertex 152 58 20
      vertex 2 58 20
    endloop
  endfacet
  facet normal 0 -1 0
    outer loop
      vertex 2 58 0
      vertex 152 58 0
      vertex 2 58 20
    endloop
  endfacet
  facet normal -1 0 0
    outer loop
      vertex 152 58 20
      vertex 152 58 0
      vertex 152 27.2794 20
    endloop
  endfacet
  facet normal -1 0 0
    outer loop
      vertex 152 27.2794 20
      vertex 152 58 0
      vertex 152 20 0
    endloop
  endfacet
  facet normal -1 0 0
    outer loop
      vertex 152 23.0227 20
      vertex 152 16.4712 2
      vertex 152 2 20
    endloop
  endfacet
  facet normal -1 0 0
    outer loop
      vertex 152 2 20
      vertex 152 16.4712 2
      vertex 152 2 2
    endloop
  endfacet
  facet normal 0 0 1
    outer loop
      vertex 2 16.4712 2
      vertex 2 2 2
      vertex 152 2 2
    endloop
  endfacet
  facet normal 0 0 1
    outer loop
      vertex 152 16.4712 2
      vertex 2 16.4712 2
      vertex 152 2 2
    endloop
  endfacet
  facet normal 1 0 0
    outer loop
      vertex 2 16.4712 2
      vertex 2 23.0227 20
      vertex 2 2 20
    endloop
  endfacet
  facet normal 1 0 0
    outer loop
      vertex 2 2 2
      vertex 2 16.4712 2
      vertex 2 2 20
    endloop
  endfacet
  facet normal 0 1 0
    outer loop
      vertex 152 2 20
      vertex 152 2 2
      vertex 2 2 20
    endloop
  endfacet
  facet normal 0 1 0
    outer loop
      vertex 2 2 20
      vertex 152 2 2
      vertex 2 2 2
    endloop
  endfacet
endsolid OpenSCAD_Model
