solid OpenSCAD_Model
  facet normal -2.22045e-16 0 -1
    outer loop
      vertex 0 0 0
      vertex -40 0 8.88178e-15
      vertex 0 10 0
    endloop
  endfacet
  facet normal -2.22045e-16 0 -1
    outer loop
      vertex 0 10 0
      vertex -40 0 8.88178e-15
      vertex -40 10 8.88178e-15
    endloop
  endfacet
  facet normal 0 -1 0
    outer loop
      vertex -5 0 5
      vertex 0 0 0
      vertex 4.44089e-15 0 20
    endloop
  endfacet
  facet normal 0 -1 0
    outer loop
      vertex -5 0 5
      vertex -40 0 5
      vertex -40 0 8.88178e-15
    endloop
  endfacet
  facet normal 0 -1 0
    outer loop
      vertex -40 0 8.88178e-15
      vertex 0 0 0
      vertex -5 0 5
    endloop
  endfacet
  facet normal 0 -1 0
    outer loop
      vertex -5 0 20
      vertex -5 0 5
      vertex 4.44089e-15 0 20
    endloop
  endfacet
  facet normal 1 0 -2.22045e-16
    outer loop
      vertex 2.79176e-15 3.23664 12.5729
      vertex 0 0 0
      vertex 0 10 0
    endloop
  endfacet
  facet normal 1 0 -2.22045e-16
    outer loop
      vertex 3.12482e-15 2.14683 14.0729
      vertex 3.53652e-15 2.14683 15.9271
      vertex 4.44089e-15 0 20
    endloop
  endfacet
  facet normal 1 0 -2.22045e-16
    outer loop
      vertex 2.79176e-15 6.76336 12.5729
      vertex 2.66454e-15 5 12
      vertex 0 10 0
    endloop
  endfacet
  facet normal 1 0 -2.22045e-16
    outer loop
      vertex 3.12482e-15 2.14683 14.0729
      vertex 0 0 0
      vertex 2.79176e-15 3.23664 12.5729
    endloop
  endfacet
  facet normal 1 0 -2.22045e-16
    outer loop
      vertex 3.53652e-15 2.14683 15.9271
      vertex 3.86958e-15 3.23664 17.4271
      vertex 4.44089e-15 0 20
    endloop
  endfacet
  facet normal 1 0 -2.22045e-16
    outer loop
      vertex 4.44089e-15 0 20
      vertex 0 0 0
      vertex 3.12482e-15 2.14683 14.0729
    endloop
  endfacet
  facet normal 1 0 -2.22045e-16
    outer loop
      vertex 3.86958e-15 6.76336 17.4271
      vertex 3.53652e-15 7.85317 15.9271
      vertex 4.44089e-15 10 20
    endloop
  endfacet
  facet normal 1 0 -2.22045e-16
    outer loop
      vertex 4.44089e-15 10 20
      vertex 4.44089e-15 0 20
      vertex 3.86958e-15 3.23664 17.4271
    endloop
  endfacet
  facet normal 1 0 -2.22045e-16
    outer loop
      vertex 4.44089e-15 10 20
      vertex 3.86958e-15 3.23664 17.4271
      vertex 3.9968e-15 5 18
    endloop
  endfacet
  facet normal 1 0 -2.22045e-16
    outer loop
      vertex 4.44089e-15 10 20
      vertex 3.9968e-15 5 18
      vertex 3.86958e-15 6.76336 17.4271
    endloop
  endfacet
  facet normal 1 0 -2.22045e-16
    outer loop
      vertex 4.44089e-15 10 20
      vertex 3.53652e-15 7.85317 15.9271
      vertex 0 10 0
    endloop
  endfacet
  facet normal 1 0 -2.22045e-16
    outer loop
      vertex 3.53652e-15 7.85317 15.9271
      vertex 3.12482e-15 7.85317 14.0729
      vertex 0 10 0
    endloop
  endfacet
  facet normal 1 0 -2.22045e-16
    outer loop
      vertex 3.12482e-15 7.85317 14.0729
      vertex 2.79176e-15 6.76336 12.5729
      vertex 0 10 0
    endloop
  endfacet
  facet normal 1 0 -2.22045e-16
    outer loop
      vertex 2.66454e-15 5 12
      vertex 2.79176e-15 3.23664 12.5729
      vertex 0 10 0
    endloop
  endfacet
  facet normal 0 1 0
    outer loop
      vertex -5 10 20
      vertex 4.44089e-15 10 20
      vertex -5 10 5
    endloop
  endfacet
  facet normal 0 1 0
    outer loop
      vertex 0 10 0
      vertex -40 10 8.88178e-15
      vertex -5 10 5
    endloop
  endfacet
  facet normal 0 1 0
    outer loop
      vertex 0 10 0
      vertex -5 10 5
      vertex 4.44089e-15 10 20
    endloop
  endfacet
  facet normal 0 1 0
    outer loop
      vertex -5 10 5
      vertex -40 10 8.88178e-15
      vertex -40 10 5
    endloop
  endfacet
  facet normal -1 0 2.22045e-16
    outer loop
      vertex -40 0 8.88178e-15
      vertex -40 0 5
      vertex -40 10 8.88178e-15
    endloop
  endfacet
  facet normal -1 0 2.22045e-16
    outer loop
      vertex -40 10 8.88178e-15
      vertex -40 0 5
      vertex -40 10 5
    endloop
  endfacet
  facet normal 2.22045e-16 0 1
    outer loop
      vertex -40 0 5
      vertex -5 0 5
      vertex -5 10 5
    endloop
  endfacet
  facet normal 2.22045e-16 0 1
    outer loop
      vertex -40 10 5
      vertex -40 0 5
      vertex -5 10 5
    endloop
  endfacet
  facet normal -1 0 2.22045e-16
    outer loop
      vertex -5 6.76336 17.4271
      vertex -5 0 20
      vertex -5 10 20
    endloop
  endfacet
  facet normal -1 0 2.22045e-16
    outer loop
      vertex -5 0 5
      vertex -5 3.23664 12.5729
      vertex -5 10 5
    endloop
  endfacet
  facet normal -1 0 2.22045e-16
    outer loop
      vertex -5 2.14683 14.0729
      vertex -5 0 20
      vertex -5 2.14683 15.9271
    endloop
  endfacet
  facet normal -1 0 2.22045e-16
    outer loop
      vertex -5 3.23664 12.5729
      vertex -5 5 12
      vertex -5 10 5
    endloop
  endfacet
  facet normal -1 0 2.22045e-16
    outer loop
      vertex -5 7.85317 15.9271
      vertex -5 10 20
      vertex -5 7.85317 14.0729
    endloop
  endfacet
  facet normal -1 0 2.22045e-16
    outer loop
      vertex -5 10 5
      vertex -5 6.76336 12.5729
      vertex -5 7.85317 14.0729
    endloop
  endfacet
  facet normal -1 0 2.22045e-16
    outer loop
      vertex -5 10 5
      vertex -5 7.85317 14.0729
      vertex -5 10 20
    endloop
  endfacet
  facet normal -1 0 2.22045e-16
    outer loop
      vertex -5 2.14683 15.9271
      vertex -5 0 20
      vertex -5 3.23664 17.4271
    endloop
  endfacet
  facet normal -1 0 2.22045e-16
    outer loop
      vertex -5 3.23664 17.4271
      vertex -5 0 20
      vertex -5 5 18
    endloop
  endfacet
  facet normal -1 0 2.22045e-16
    outer loop
      vertex -5 5 18
      vertex -5 0 20
      vertex -5 6.76336 17.4271
    endloop
  endfacet
  facet normal -1 0 2.22045e-16
    outer loop
      vertex -5 7.85317 15.9271
      vertex -5 6.76336 17.4271
      vertex -5 10 20
    endloop
  endfacet
  facet normal -1 0 2.22045e-16
    outer loop
      vertex -5 0 5
      vertex -5 0 20
      vertex -5 2.14683 14.0729
    endloop
  endfacet
  facet normal -1 0 2.22045e-16
    outer loop
      vertex -5 0 5
      vertex -5 2.14683 14.0729
      vertex -5 3.23664 12.5729
    endloop
  endfacet
  facet normal -1 0 2.22045e-16
    outer loop
      vertex -5 6.76336 12.5729
      vertex -5 10 5
      vertex -5 5 12
    endloop
  endfacet
  facet normal 2.22045e-16 0 1
    outer loop
      vertex -5 0 20
      vertex 4.44089e-15 0 20
      vertex 4.44089e-15 10 20
    endloop
  endfacet
  facet normal 2.22045e-16 0 1
    outer loop
      vertex -5 10 20
      vertex -5 0 20
      vertex 4.44089e-15 10 20
    endloop
  endfacet
  facet normal 2.11177e-16 -0.309017 0.951057
    outer loop
      vertex 2.79176e-15 6.76336 12.5729
      vertex -5 6.76336 12.5729
      vertex -5 5 12
    endloop
  endfacet
  facet normal 2.11177e-16 -0.309017 0.951057
    outer loop
      vertex 2.66454e-15 5 12
      vertex 2.79176e-15 6.76336 12.5729
      vertex -5 5 12
    endloop
  endfacet
  facet normal 2.11177e-16 0.309017 0.951057
    outer loop
      vertex -5 5 12
      vertex -5 3.23664 12.5729
      vertex 2.79176e-15 3.23664 12.5729
    endloop
  endfacet
  facet normal 2.11177e-16 0.309017 0.951057
    outer loop
      vertex 2.66454e-15 5 12
      vertex -5 5 12
      vertex 2.79176e-15 3.23664 12.5729
    endloop
  endfacet
  facet normal 1.30515e-16 -0.809017 0.587785
    outer loop
      vertex 3.12482e-15 7.85317 14.0729
      vertex -5 7.85317 14.0729
      vertex -5 6.76336 12.5729
    endloop
  endfacet
  facet normal 1.30515e-16 -0.809017 0.587785
    outer loop
      vertex 2.79176e-15 6.76336 12.5729
      vertex 3.12482e-15 7.85317 14.0729
      vertex -5 6.76336 12.5729
    endloop
  endfacet
  facet normal 0 -1 0
    outer loop
      vertex 3.53652e-15 7.85317 15.9271
      vertex -5 7.85317 15.9271
      vertex -5 7.85317 14.0729
    endloop
  endfacet
  facet normal 0 -1 0
    outer loop
      vertex 3.12482e-15 7.85317 14.0729
      vertex 3.53652e-15 7.85317 15.9271
      vertex -5 7.85317 14.0729
    endloop
  endfacet
  facet normal -1.30515e-16 -0.809017 -0.587785
    outer loop
      vertex 3.86958e-15 6.76336 17.4271
      vertex -5 6.76336 17.4271
      vertex -5 7.85317 15.9271
    endloop
  endfacet
  facet normal -1.30515e-16 -0.809017 -0.587785
    outer loop
      vertex 3.53652e-15 7.85317 15.9271
      vertex 3.86958e-15 6.76336 17.4271
      vertex -5 7.85317 15.9271
    endloop
  endfacet
  facet normal -2.11177e-16 -0.309017 -0.951057
    outer loop
      vertex -5 5 18
      vertex -5 6.76336 17.4271
      vertex 3.9968e-15 5 18
    endloop
  endfacet
  facet normal -2.11177e-16 -0.309017 -0.951057
    outer loop
      vertex 3.9968e-15 5 18
      vertex -5 6.76336 17.4271
      vertex 3.86958e-15 6.76336 17.4271
    endloop
  endfacet
  facet normal -2.11177e-16 0.309017 -0.951057
    outer loop
      vertex -5 5 18
      vertex 3.9968e-15 5 18
      vertex -5 3.23664 17.4271
    endloop
  endfacet
  facet normal -2.11177e-16 0.309017 -0.951057
    outer loop
      vertex -5 3.23664 17.4271
      vertex 3.9968e-15 5 18
      vertex 3.86958e-15 3.23664 17.4271
    endloop
  endfacet
  facet normal -1.30515e-16 0.809017 -0.587785
    outer loop
      vertex -5 3.23664 17.4271
      vertex 3.86958e-15 3.23664 17.4271
      vertex -5 2.14683 15.9271
    endloop
  endfacet
  facet normal -1.30515e-16 0.809017 -0.587785
    outer loop
      vertex -5 2.14683 15.9271
      vertex 3.86958e-15 3.23664 17.4271
      vertex 3.53652e-15 2.14683 15.9271
    endloop
  endfacet
  facet normal 0 1 0
    outer loop
      vertex -5 2.14683 15.9271
      vertex 3.53652e-15 2.14683 15.9271
      vertex -5 2.14683 14.0729
    endloop
  endfacet
  facet normal 0 1 0
    outer loop
      vertex -5 2.14683 14.0729
      vertex 3.53652e-15 2.14683 15.9271
      vertex 3.12482e-15 2.14683 14.0729
    endloop
  endfacet
  facet normal 1.30515e-16 0.809017 0.587785
    outer loop
      vertex -5 2.14683 14.0729
      vertex 3.12482e-15 2.14683 14.0729
      vertex -5 3.23664 12.5729
    endloop
  endfacet
  facet normal 1.30515e-16 0.809017 0.587785
    outer loop
      vertex -5 3.23664 12.5729
      vertex 3.12482e-15 2.14683 14.0729
      vertex 2.79176e-15 3.23664 12.5729
    endloop
  endfacet
endsolid OpenSCAD_Model
